<svg data-slug-id="72-percent" xmlns="http://www.w3.org/2000/svg" viewBox="0 0 48 48">
    <path d="M34 48C41.732 48 48 41.732 48 34C48 26.268 41.732 20 34 20C26.268 20 20 26.268 20 34C20 41.732 26.268 48 34 48Z" fill="#50E6FF"/>
    <path d="M29.5 33C27.5704 33 26 31.4296 26 29.5C26 27.5704 27.5704 26 29.5 26C31.4296 26 33 27.5704 33 29.5C33 31.4296 31.4194 33 29.5 33ZM29.5 27.3446C28.3094 27.3446 27.3343 28.3094 27.3343 29.5103C27.3343 30.7111 28.2991 31.676 29.5 31.676C30.7009 31.676 31.6657 30.7111 31.6657 29.5103C31.6657 28.3094 30.6906 27.3446 29.5 27.3446Z" fill="#0078D4"/>
    <path d="M38.5 42C36.5704 42 35 40.4296 35 38.5C35 36.5704 36.5704 35 38.5 35C40.4296 35 42 36.5704 42 38.5C42 40.4296 40.4296 42 38.5 42ZM38.5 36.3446C37.3094 36.3446 36.3343 37.3094 36.3343 38.5103C36.3343 39.7111 37.2991 40.676 38.5 40.676C39.7009 40.676 40.6657 39.7111 40.6657 38.5103C40.6657 37.3094 39.6906 36.3446 38.5 36.3446Z" fill="#0078D4"/>
    <path d="M42.2013 26.7672L41.2583 25.8242L26.0183 41.0642L26.9613 42.0072L42.2013 26.7672Z" fill="#0078D4"/>
    <path d="M16.0335 1.94142C15.0293 3.78243 14.0809 5.60669 13.1883 7.41423C12.2957 9.2106 11.4867 11.0181 10.7615 12.8368C10.0363 14.6555 9.40586 16.4909 8.87029 18.3431C8.33473 20.1841 7.9219 22.0697 7.6318 24H3.56485C3.83264 22.2817 4.21199 20.569 4.70293 18.8619C5.20502 17.1437 5.79079 15.431 6.46025 13.7238C7.12971 12.0056 7.87727 10.2817 8.70293 8.5523C9.53975 6.82287 10.4268 5.07671 11.364 3.31381H0V0H16.0335V1.94142Z" fill="#0078D4"/>
    <path d="M32.8148 24H18V22.1728C18 21.4266 18.1043 20.7298 18.3128 20.0823C18.5213 19.4239 18.8011 18.8093 19.1523 18.2387C19.5034 17.6571 19.915 17.1139 20.3868 16.6091C20.8587 16.0933 21.3635 15.5995 21.9012 15.1276C22.439 14.6447 22.9877 14.1838 23.5473 13.7449C24.107 13.2949 24.6557 12.845 25.1934 12.3951C25.6982 11.9671 26.1591 11.5501 26.5761 11.144C26.9931 10.727 27.3498 10.299 27.6461 9.86008C27.9424 9.42112 28.1728 8.96022 28.3374 8.47737C28.5021 7.98354 28.5844 7.4513 28.5844 6.88066C28.5844 6.25514 28.4856 5.71193 28.2881 5.25103C28.1015 4.77915 27.8326 4.38957 27.4815 4.0823C27.1413 3.76406 26.7353 3.52812 26.2634 3.37449C25.7915 3.20988 25.2757 3.12757 24.716 3.12757C23.7503 3.12757 22.7682 3.35254 21.7695 3.80247C20.7709 4.2524 19.8107 4.9273 18.8889 5.82716V2.15638C19.3717 1.79424 19.8601 1.48148 20.3539 1.21811C20.8477 0.943759 21.358 0.718793 21.8848 0.54321C22.4115 0.356653 22.9657 0.219479 23.5473 0.131687C24.1289 0.0438957 24.749 0 25.4074 0C26.4719 0 27.4376 0.142661 28.3045 0.427984C29.1715 0.702332 29.9122 1.11385 30.5267 1.66255C31.1413 2.20027 31.6132 2.87517 31.9424 3.68724C32.2826 4.49931 32.4527 5.4321 32.4527 6.4856C32.4527 7.44033 32.332 8.30178 32.0905 9.06996C31.8601 9.82716 31.5254 10.535 31.0864 11.1934C30.6584 11.8519 30.1372 12.4774 29.5226 13.07C28.9081 13.6626 28.2222 14.2716 27.465 14.8971C26.8285 15.4129 26.192 15.9177 25.5556 16.4115C24.93 16.8944 24.3649 17.3717 23.8601 17.8436C23.3553 18.3045 22.9438 18.7709 22.6255 19.2428C22.3182 19.7037 22.1646 20.1701 22.1646 20.642V20.7243H32.8148V24Z" fill="#0078D4"/>
</svg>
