<svg data-slug-id="advanced-functionality" xmlns="http://www.w3.org/2000/svg" viewBox="0 0 49 49">
    <path d="M45.9942 24.3037L42.7632 21.0712L29.5375 34.3029L32.7686 37.5354L45.9942 24.3037Z" fill="#0078D4"/>
    <path d="M32.3121 10.6155L29.0811 13.848L42.7639 27.5371L45.9949 24.3046L32.3121 10.6155Z" fill="#0078D4"/>
    <path d="M15.8115 37.5355L19.0425 34.303L5.81684 21.0713L2.58581 24.3038L15.8115 37.5355Z" fill="#0078D4"/>
    <path d="M2.58539 24.3035L5.81641 27.5359L19.4992 13.8469L16.2682 10.6144L2.58539 24.3035Z" fill="#0078D4"/>
    <path d="M20.1016 30.5895C21.3634 30.5895 22.3862 29.5661 22.3862 28.3038C22.3862 27.0414 21.3634 26.0181 20.1016 26.0181C18.8398 26.0181 17.8169 27.0414 17.8169 28.3038C17.8169 29.5661 18.8398 30.5895 20.1016 30.5895Z" fill="#50E6FF"/>
    <path d="M24.2891 26.3998C25.5509 26.3998 26.5737 25.3764 26.5737 24.1141C26.5737 22.8517 25.5509 21.8284 24.2891 21.8284C23.0273 21.8284 22.0044 22.8517 22.0044 24.1141C22.0044 25.3764 23.0273 26.3998 24.2891 26.3998Z" fill="#50E6FF"/>
    <path d="M28.4761 22.2109C29.7379 22.2109 30.7608 21.1875 30.7608 19.9252C30.7608 18.6628 29.7379 17.6395 28.4761 17.6395C27.2143 17.6395 26.1914 18.6628 26.1914 19.9252C26.1914 21.1875 27.2143 22.2109 28.4761 22.2109Z" fill="#50E6FF"/>
</svg>
