<svg data-slug-id="alert-blue" xmlns="http://www.w3.org/2000/svg" viewBox="0 0 48 48">
    <path d="M47.8821 0.311523H0.109467V40.4968H16.9095L16.8842 40.522L24.0337 47.6715L31.1831 40.522L31.1579 40.4968H47.8821V0.311523Z" fill="#0078D4"/>
    <path d="M38.8042 29.2126L25.4653 8.21893C24.7326 7.4863 23.5453 7.49472 22.8042 8.23578L9.22107 29.5579C8.02528 30.7621 8.85054 32.8 10.5263 32.7831L37.4484 32.4547C39.1242 32.4463 39.9748 30.4 38.8042 29.2126Z" fill="#50E6FF"/>
    <path d="M24.9431 26.6358C24.6821 26.3747 24.3537 26.24 24 26.24C23.6379 26.24 23.3095 26.3747 23.0484 26.6358C22.7874 26.8968 22.6526 27.2253 22.6526 27.5874C22.6526 27.9579 22.7874 28.2779 23.0484 28.5389C23.3095 28.8 23.6295 28.9263 24 28.9263C24.3621 28.9263 24.6821 28.7916 24.9431 28.5389C25.2126 28.2779 25.3474 27.9579 25.3474 27.5789C25.3474 27.2253 25.2042 26.8968 24.9431 26.6358Z" fill="#0078D4"/>
    <path d="M24.9347 24.3032L25.12 14.5264H22.8463L23.0147 24.3032H24.9347Z" fill="#0078D4"/>
</svg>
