<svg data-slug-id="apache-spark" xmlns="http://www.w3.org/2000/svg" viewBox="0 0 48 48">
  <g clip-path="url(#apache-spark:e1bcfd0f-68b5-4f87-9871-e6a7245a22e7)">
    <path d="M43.8232 20.338C43.7861 20.2452 43.7675 20.2081 43.7305 20.171C43.1187 19.0579 42.507 17.9262 41.8767 16.813C41.8211 16.7017 41.8211 16.6275 41.9138 16.5347C42.8963 15.4401 43.8602 14.3455 44.8427 13.2323C44.8798 13.1952 44.9169 13.1581 44.9169 13.0839C44.6388 13.1581 44.3422 13.2323 44.0642 13.3065C42.8777 13.6034 41.6913 13.9002 40.5234 14.2156C40.4122 14.2527 40.3566 14.2156 40.301 14.1229C39.6336 13.0468 38.9477 11.9707 38.2804 10.8947C38.2433 10.839 38.2062 10.7834 38.1321 10.7463C38.0764 11.0245 38.0208 11.3214 37.9652 11.5997C37.7798 12.6201 37.5945 13.6219 37.4091 14.6423C37.3906 14.7537 37.3535 14.865 37.3535 14.9763C37.3349 15.0876 37.2793 15.1247 37.1866 15.1432C35.7963 15.57 34.406 15.9781 33.0156 16.4048C32.96 16.4234 32.8859 16.4419 32.8303 16.4976C33.9611 16.9243 35.1104 17.3696 36.2597 17.8148C36.2227 17.852 36.1856 17.8705 36.1671 17.889C35.4626 18.3343 34.7396 18.7796 34.0352 19.2063C33.9425 19.262 33.8869 19.262 33.7942 19.2248C32.9415 18.8538 32.0887 18.5013 31.236 18.1302C30.8467 17.9633 30.513 17.7406 30.235 17.4438C29.6232 16.7388 29.753 15.9225 30.5501 15.4401C30.8096 15.2731 31.1062 15.1618 31.4214 15.069C32.7932 14.6423 34.165 14.2342 35.5182 13.826C35.6295 13.7889 35.6851 13.7333 35.7036 13.6219C35.889 12.6015 36.0744 11.5997 36.2597 10.5793C36.371 10.0413 36.408 9.48468 36.6861 8.98376C36.7973 8.79823 36.9271 8.6127 37.0754 8.44573C37.613 7.87059 38.3731 7.85204 38.9477 8.39007C39.1331 8.5756 39.2999 8.79823 39.4482 9.02086C40.0785 10.0042 40.7088 11.006 41.3206 12.0079C41.3947 12.1192 41.4689 12.1563 41.5986 12.1192C43.1187 11.7296 44.6574 11.34 46.1775 10.9503C46.4926 10.8761 46.8077 10.839 47.1414 10.8947C47.8459 11.0246 48.161 11.544 47.92 12.1934C47.8088 12.4902 47.6234 12.75 47.4195 12.9726C46.3443 14.1785 45.2876 15.3844 44.2125 16.5718C44.1198 16.6646 44.1198 16.7388 44.1754 16.8501C44.8057 18.0004 45.4545 19.1692 46.0848 20.3195C46.2331 20.5977 46.3443 20.876 46.3628 21.21C46.3628 21.9335 45.8252 22.5272 45.0652 22.62C44.6388 22.6757 44.2495 22.6014 43.8602 22.4716C42.8963 22.1933 41.9508 21.915 40.9869 21.6367C40.8942 21.6181 40.8571 21.581 40.8571 21.4883C40.7459 20.8389 40.6347 20.1896 40.5049 19.5402C40.5049 19.5217 40.5049 19.5031 40.5049 19.466C41.6172 19.7629 42.6924 20.0412 43.8232 20.338Z" fill="#50E6FF"/>
    <path d="M42.0804 30.4306C41.2462 30.4306 40.3935 30.4306 39.5593 30.4306C39.4481 30.4306 39.3925 30.3935 39.3183 30.3007C38.3173 28.7609 37.3162 27.221 36.3152 25.6997C36.2781 25.644 36.241 25.6069 36.1854 25.5141C35.963 27.1653 35.7591 28.798 35.5551 30.412H33.3677C33.3862 30.1894 33.4233 29.9853 33.4418 29.7813C33.6643 28.1115 33.8682 26.4603 34.0906 24.7906C34.2946 23.195 34.4985 21.6181 34.7024 20.0225C34.7024 19.9669 34.7395 19.9112 34.7765 19.8927C35.5366 19.3917 36.2966 18.8908 37.0567 18.3899C37.0752 18.3899 37.0752 18.3899 37.1308 18.3713C36.9084 20.1524 36.6674 21.9149 36.4449 23.6774L36.4635 23.696C37.6499 22.3602 38.8549 21.0058 40.0598 19.6515C40.0969 19.8556 40.134 20.0411 40.1525 20.2081C40.2452 20.709 40.3193 21.2285 40.412 21.7294C40.4306 21.8221 40.412 21.8964 40.3379 21.9706C39.5593 22.7869 38.7992 23.6032 38.0207 24.4381C37.9836 24.4752 37.9465 24.5123 37.9094 24.5494C37.928 24.5865 37.9465 24.6236 37.9836 24.6607C39.3183 26.5531 40.6345 28.4455 41.9692 30.3193C41.9877 30.3564 42.0248 30.3749 42.0619 30.412V30.4306" fill="#0078D4"/>
    <path d="M10.2884 29.7071C10.2328 30.1894 10.1586 30.6532 10.103 31.0985C10.0288 31.7108 9.95468 32.3044 9.862 32.9167C9.862 32.9909 9.82492 33.028 9.75077 33.0094C9.15756 33.0094 8.56435 33.0094 7.97114 33.0094C7.9526 33.0094 7.9526 33.0094 7.91553 32.9909C7.9526 32.7126 7.98968 32.4158 8.02675 32.1375C8.15652 31.1356 8.28628 30.1152 8.41605 29.1134C8.56435 27.9631 8.69411 26.8128 8.87949 25.6626C9.25025 23.6403 10.9372 21.8964 12.9393 21.4697C14.0886 21.2099 15.2009 21.3398 16.2019 21.9891C17.203 22.6385 17.7776 23.6032 17.9074 24.7906C18.0928 26.4789 17.481 27.8889 16.2946 29.0577C15.516 29.8184 14.5891 30.3007 13.5139 30.4677C12.4017 30.6347 11.3636 30.4492 10.4181 29.7813C10.3811 29.7627 10.3625 29.7442 10.2884 29.7071ZM15.9795 25.5141C15.9424 25.3472 15.9239 25.0874 15.8497 24.8648C15.4975 23.7331 14.3481 23.1208 13.1617 23.3991C11.8641 23.696 10.9372 24.7349 10.8074 26.0707C10.7147 27.054 11.2338 28.0188 12.2163 28.3713C13.0134 28.6681 13.7735 28.5382 14.4779 28.1115C15.4048 27.5549 15.9239 26.7015 15.9795 25.5141Z" fill="#0078D4"/>
    <path d="M9.36158 19.93C8.65715 20.431 7.97125 20.9133 7.30389 21.3957C7.19266 21.2287 7.09997 21.0618 6.98875 20.9133C6.6736 20.5237 6.30285 20.2269 5.76525 20.1898C5.32035 20.1527 4.94959 20.3011 4.63445 20.6165C4.35638 20.8948 4.33784 21.3029 4.57883 21.6183C4.8569 21.9708 5.15351 22.3048 5.46865 22.6202C5.98771 23.1582 6.5253 23.6777 7.02582 24.2157C7.48927 24.6981 7.86002 25.2547 7.97125 25.9226C8.13809 26.7203 7.97125 27.4624 7.58196 28.1674C6.85898 29.4661 5.70964 30.2082 4.20808 30.4494C3.54072 30.5607 2.87336 30.5236 2.22453 30.3567C1.35326 30.1155 0.760049 29.5774 0.370756 28.7982C0.240991 28.5199 0.129765 28.2417 0 27.9448C0.760049 27.5552 1.48302 27.1841 2.24307 26.7945C2.26161 26.8502 2.28015 26.9059 2.31722 26.943C2.44699 27.1841 2.53968 27.4439 2.70652 27.6665C3.16996 28.3344 3.93001 28.5385 4.69006 28.2045C4.89398 28.1118 5.07935 28.0005 5.24619 27.8706C5.74671 27.4439 5.8394 26.8688 5.46865 26.3307C5.26473 26.0339 5.0052 25.7556 4.74567 25.4773C4.13393 24.828 3.50364 24.1972 2.91043 23.5293C2.5026 23.0654 2.22453 22.546 2.13185 21.9337C2.03916 21.2658 2.16892 20.635 2.53968 20.0785C3.41095 18.7056 4.7086 17.982 6.43261 18.0562C7.41512 18.0933 8.21224 18.5386 8.80545 19.2621C9.00937 19.4848 9.17621 19.7074 9.36158 19.93Z" fill="#0078D4"/>
    <path d="M25.3227 27.7217C25.2115 28.5751 25.1003 29.41 24.989 30.2263C24.989 30.2634 24.952 30.3191 24.9149 30.3376C23.2465 31.1168 21.0776 31.0055 19.7058 29.4471C18.9643 28.6122 18.6677 27.6104 18.7047 26.4972C18.816 23.9369 20.9107 21.6921 23.4319 21.3767C24.8964 21.1911 26.194 21.5993 27.195 22.7496C27.8809 23.5288 28.1961 24.475 28.1405 25.5139C28.1034 26.2004 28.0107 26.8868 27.918 27.5547C27.8068 28.5195 27.6585 29.4842 27.5473 30.4489C27.5473 30.4861 27.5287 30.5232 27.5287 30.5603H25.5452C25.5637 30.3376 25.6008 30.115 25.6193 29.9109C25.7676 28.7978 25.9159 27.6846 26.0457 26.5714C26.1198 25.885 26.0828 25.18 25.7676 24.5492C25.4339 23.8627 24.8778 23.5102 24.1363 23.4175C22.6162 23.2505 21.1517 24.3266 20.818 25.8479C20.5956 26.8497 20.9478 27.8145 21.7264 28.3339C22.505 28.8534 23.3206 28.8534 24.1548 28.5195C24.6183 28.3525 24.989 28.0742 25.3227 27.7217Z" fill="#0078D4"/>
    <path d="M33.9243 21.3403C33.8316 22.0267 33.7389 22.7132 33.6462 23.3996C33.2013 23.3996 32.775 23.3996 32.3486 23.3996C31.9964 23.3996 31.6812 23.6223 31.5885 23.9191C31.5515 24.049 31.5329 24.1788 31.5144 24.2902C31.2919 25.8671 31.088 27.4441 30.8656 29.0211C30.8099 29.4107 30.7543 29.8189 30.6987 30.227H28.5483C28.5854 29.9302 28.6225 29.6333 28.6596 29.3365C28.8079 28.3161 28.9376 27.2957 29.0859 26.2753C29.2157 25.3848 29.3084 24.5128 29.4567 23.6223C29.6421 22.4349 30.8841 21.3959 32.1261 21.3403C32.7193 21.3217 33.3126 21.3403 33.9243 21.3403Z" fill="#0078D4"/>
    <path d="M42.7296 29.4475V30.2453H42.5627V29.4475H42.2661V29.3176H43.0447V29.4475H42.7296ZM44.1384 30.2453V29.466L43.8233 30.2453H43.7306L43.4155 29.466V30.2453H43.2486V29.3176H43.4896L43.7862 30.0226L44.0643 29.3176H44.3053V30.2453H44.1384Z" fill="#0078D4"/>
    <path d="M12.3833 18.6312H11.5862L11.3266 19.1135H10.752L12.0125 16.8872H12.5687L12.9765 19.1135H12.4574L12.3833 18.6312ZM11.8086 18.1859H12.2906L12.1794 17.4994L11.8086 18.1859Z" fill="#0078D4"/>
    <path d="M14.6451 16.8872H15.4793C15.9242 16.8872 16.2208 17.1098 16.2208 17.4994C16.2208 17.9818 15.813 18.2972 15.2569 18.2972H14.9046L14.7378 19.1135H14.2002L14.6451 16.8872ZM15.4237 17.3325H15.1085L14.9973 17.8519H15.3125C15.4978 17.8519 15.6647 17.7406 15.6647 17.5365C15.6647 17.4067 15.572 17.3325 15.4237 17.3325Z" fill="#0078D4"/>
    <path d="M18.5005 18.6312H17.7033L17.4438 19.1135H16.8691L18.1297 16.8872H18.6858L19.1122 19.1135H18.5932L18.5005 18.6312ZM17.9258 18.1859H18.4078L18.2965 17.4994L17.9258 18.1859Z" fill="#0078D4"/>
    <path d="M21.893 19.0022C21.7076 19.0764 21.5037 19.1135 21.3183 19.1135C20.6324 19.1135 20.2061 18.6868 20.2061 18.1488C20.2061 17.4623 20.892 16.8872 21.7076 16.8872C21.9115 16.8872 22.0969 16.9243 22.2452 16.9985L22.1711 17.518C22.0598 17.4067 21.8745 17.3325 21.652 17.3325C21.1886 17.3325 20.7622 17.685 20.7622 18.0931C20.7622 18.4085 21.0032 18.6497 21.3739 18.6497C21.5964 18.6497 21.8188 18.5755 21.9671 18.4827L21.893 19.0022Z" fill="#0078D4"/>
    <path d="M24.5255 18.223H23.5986L23.4317 19.1135H22.9868L23.3761 16.8872H23.821L23.6727 17.7592H24.5996L24.7664 16.8872H25.2114L24.8221 19.1135H24.3772L24.5255 18.223Z" fill="#0078D4"/>
    <path d="M26.5093 19.1135L27.0098 16.8872H28.5484L28.4557 17.3325H27.4918L27.3806 17.7592H28.2704L28.1777 18.223H27.2879L27.1952 18.6683H28.1591L28.0479 19.1135H26.5093Z" fill="#0078D4"/>
  </g>
  <defs>
    <clipPath id="apache-spark:e1bcfd0f-68b5-4f87-9871-e6a7245a22e7">
    <rect width="48" height="48" fill="white"/>
    </clipPath>
  </defs>
</svg>
