<svg data-slug-id="applications" xmlns="http://www.w3.org/2000/svg" viewBox="0 0 48 48">
<path d="M45.9917 2H36V12H46L45.9917 2Z" fill="#50E6FF"/>
<path d="M37.9912 30H30V38H38L37.9912 30Z" fill="#50E6FF"/>
<path d="M18.9883 27H5V41H19V27H18.9883Z" fill="#50E6FF"/>
<path d="M7.98668 0H0V8H8V0H7.98668Z" fill="#50E6FF"/>
<path d="M21.3708 10.1522C21.2136 10.1522 21.135 10.1522 20.9778 10.2308C20.5062 9.0518 19.5629 8.10856 18.4625 7.55835C18.4625 7.47974 18.4625 7.40114 18.4625 7.32254C18.4625 6.3007 17.6765 5.51468 16.6546 5.51468C16.183 5.51468 15.8686 5.67188 15.5542 5.90769V7.16533V8.02996V8.81599C15.8686 9.0518 16.2616 9.209 16.6546 9.209C17.2835 9.209 17.8337 8.89459 18.1481 8.42297C19.0913 8.89459 19.8773 9.68062 20.1918 10.7024C19.7201 11.0169 19.4843 11.4885 19.4843 12.1173C19.4843 12.6675 19.7201 13.2177 20.1918 13.5321C19.7987 14.554 19.0913 15.34 18.1481 15.8902C17.8337 15.4186 17.2835 15.1042 16.6546 15.1042C16.183 15.1042 15.8686 15.2614 15.5542 15.4972V16.2832V17.1479V18.4055C15.8686 18.6413 16.2616 18.7985 16.6546 18.7985C17.6765 18.7985 18.4625 18.0125 18.4625 16.9907C18.4625 16.9121 18.4625 16.8335 18.4625 16.7549C19.5629 16.2046 20.5062 15.2614 20.9778 14.0038C21.135 14.0038 21.2136 14.0824 21.3708 14.0824C22.3926 14.0824 23.1787 13.2963 23.1787 12.2745C23.2573 10.9383 22.3926 10.1522 21.3708 10.1522Z" fill="#0078D4"/>
<path d="M4 4.88646V19.0349L14.6114 21V3L4 4.88646ZM9.9738 15.4978C9.10917 16.1266 7.93013 15.8908 7.0655 15.4978C7.0655 15.0262 7.0655 14.3974 6.9869 13.9258C7.53712 14.3974 8.40175 15.0262 9.10917 14.3974C9.65939 13.5327 8.63755 12.9825 8.00873 12.5109C6.67249 11.7249 6.59389 9.52402 7.93013 8.65939C8.71616 8.18777 9.58079 8.34498 10.3668 8.50218C10.3668 8.9738 10.3668 9.52402 10.4454 9.99563C9.73799 9.83843 8.87336 9.36681 8.32314 10.0742C7.85153 11.0175 9.10917 11.4105 9.73799 11.8821C10.917 12.6681 11.0742 14.6332 9.9738 15.4978Z" fill="#0078D4"/>
<path d="M11.9955 46.7628V46.6599V35.3097L7.56881 34L0.0135926 36.9001L0 45.2589L2.70719 44.1761V37.3328L7.91769 36.2873V46.3465L0.289975 45.2589L7.69115 48L12 46.7581L11.9207 46.7628H11.9955Z" fill="#D83B01"/>
<path d="M43.6847 23.3339H36.8791C36.8226 23.3339 36.7661 23.2774 36.7661 23.2209V9.77906C36.7661 9.72259 36.8226 9.66611 36.8791 9.66611H43.6565C43.713 9.66611 43.7694 9.72259 43.7694 9.77906V23.2492C43.7694 23.3056 43.713 23.3339 43.6847 23.3339Z" fill="white"/>
<path d="M37.5002 8L27.1929 10.485V22.5997L37.5002 25V8Z" fill="#31752F"/>
<path d="M37.5002 8L27.1929 10.485V22.5997L37.5002 25V8Z" fill="#31752F"/>
<path d="M43.5436 9.21429H36.8792C36.5403 9.21429 36.2861 9.49669 36.2861 9.80732H43.5718V23.108H36.2861C36.2861 23.4469 36.5685 23.701 36.8792 23.701H43.5436C43.8825 23.701 44.1366 23.4186 44.1366 23.108V9.80732C44.1366 9.46845 43.8542 9.21429 43.5436 9.21429Z" fill="#31752F"/>
<path d="M42.3286 14.6644H41.7356V12.2359C41.7356 11.897 41.4532 11.6429 41.1425 11.6429H37.4714C37.1326 11.6429 36.8784 11.9252 36.8784 12.2359V12.8289H40.5213V14.6362H39.9283L39.4482 15.0598L41.1143 17.0648L42.7804 15.0598L42.3286 14.6644Z" fill="#31752F"/>
<path d="M38.6865 17.1777L36.9922 18.9003L38.7148 20.5947L40.4091 18.8721L38.6865 17.1777Z" fill="#31752F"/>
<path d="M30.8354 16.4435V14.2409C30.8354 14.2409 32.1344 13.902 32.7839 14.2973C32.9251 14.4103 33.038 14.5233 33.0945 14.6645C33.1792 14.8057 33.2075 15.0033 33.2075 15.201C33.2075 15.3987 33.151 15.5964 33.0945 15.7375C33.0098 15.8787 32.9251 16.0199 32.7839 16.1329C32.6427 16.2459 32.4733 16.3306 32.2756 16.387C32.0779 16.4435 31.852 16.4718 31.5978 16.4718L30.8354 16.4435ZM29.6211 13.0831V19.8605L30.8354 20.1146V17.6296L31.739 17.6013C31.9367 17.6013 32.1344 17.6013 32.3038 17.5449C32.5015 17.5166 32.6709 17.4601 32.8404 17.4037C33.0098 17.3472 33.151 17.2625 33.3204 17.1777C33.4899 17.0648 33.6028 16.9801 33.744 16.8671C33.857 16.7542 33.9699 16.613 34.0546 16.5C34.1676 16.3588 34.2241 16.2176 34.2806 16.0764C34.337 15.9352 34.3935 15.7658 34.4218 15.5964C34.4782 15.4269 34.4782 15.2292 34.4782 15.0598C34.4782 14.6362 34.4218 14.3256 34.3088 14.015C34.1958 13.7043 34.0264 13.4784 33.8005 13.2807C33.5746 13.0831 33.3204 12.9701 32.9816 12.8571C32.6709 12.7724 32.1344 12.7442 31.739 12.7724L29.6211 13.0831Z" fill="white"/>
<path fill-rule="evenodd" clip-rule="evenodd" d="M17 24V28.3574L23.6143 31.5044L26.5541 29.0837L17 24Z" fill="#06254D"/>
<path fill-rule="evenodd" clip-rule="evenodd" d="M17 39.7356L20.3316 31.1659L17 29.0838V39.7356Z" fill="#06254D"/>
<path fill-rule="evenodd" clip-rule="evenodd" d="M17.2451 40.0745L27.0933 34.6516V29.3741L17.2451 40.0745Z" fill="#06254D"/>
<path d="M41.8929 34.142L36 34.1955V45.7134C36 46.892 38.5714 47.8562 41.8393 47.9098H41.9464C45.2679 47.9098 48 46.9455 48 45.7134V34.142H41.8929Z" fill="#0078D4"/>
<path d="M47.9997 34.1964C47.9997 35.375 45.3211 36.3929 42.0532 36.3929C38.7854 36.3929 36.0532 35.4286 36.0532 34.1964C36.0532 32.9643 38.7318 32 41.9997 32C45.2675 32 47.9997 33.0179 47.9997 34.1964Z" fill="white"/>
<path d="M46.7676 34.0355C46.7676 34.8391 44.6248 35.4819 41.9998 35.4819C39.3748 35.4819 37.2319 34.8391 37.2319 34.0355C37.2319 33.2319 39.3748 32.5891 41.9998 32.5891C44.6248 32.5891 46.7676 33.2319 46.7676 34.0355Z" fill="#0078D4"/>
<path d="M40.0714 42.1787C40.0714 42.5537 39.9642 42.8215 39.6964 43.0358C39.4285 43.2501 39.1071 43.3037 38.6249 43.3037C38.2499 43.3037 37.9285 43.2501 37.6606 43.0894V42.2322C37.9285 42.5001 38.3035 42.6072 38.6785 42.6072C38.8392 42.6072 38.9999 42.5537 39.1071 42.5001C39.2142 42.4465 39.2142 42.3394 39.2142 42.2322C39.2142 42.1251 39.1606 42.018 39.1071 41.9644C38.9999 41.8572 38.8392 41.7501 38.5178 41.643C37.9285 41.3751 37.6606 41.0001 37.6606 40.5715C37.6606 40.1965 37.7678 39.9822 38.0356 39.768C38.3035 39.5537 38.6249 39.4465 39.0535 39.4465C39.4285 39.4465 39.7499 39.5001 39.9642 39.6072V40.4108C39.6964 40.2501 39.4285 40.143 39.1071 40.143C38.9464 40.143 38.8392 40.1965 38.7321 40.2501C38.6249 40.3037 38.6249 40.4108 38.6249 40.518C38.6249 40.6251 38.6785 40.7322 38.7321 40.7858C38.7856 40.8394 38.9464 40.9465 39.2142 41.0537C39.5892 41.2144 39.8035 41.3751 39.9642 41.5894C40.0178 41.7501 40.0714 41.9108 40.0714 42.1787Z" fill="white"/>
<path d="M43.2857 41.3751C43.2857 41.0001 43.1786 40.6787 43.0179 40.4644C42.8571 40.2501 42.6429 40.143 42.3214 40.143C42.0536 40.143 41.7857 40.2501 41.625 40.4644C41.4107 40.6787 41.3571 41.0001 41.3571 41.3751C41.3571 41.7501 41.4643 42.0715 41.625 42.2858C41.7857 42.5001 42.0536 42.6072 42.3214 42.6072C42.5893 42.6072 42.8571 42.5001 43.0179 42.2858C43.1786 42.0715 43.2857 41.7501 43.2857 41.3751ZM44.1429 41.3215C44.1429 41.7501 44.0357 42.1787 43.875 42.5001C43.6607 42.8215 43.3929 43.0358 43.0179 43.1965L44.0893 44.2144H43.0179L42.2143 43.3037C41.8929 43.3037 41.5714 43.1965 41.3036 43.0358C41.0357 42.8751 40.8214 42.6608 40.7143 42.3394C40.5536 42.0715 40.5 41.7501 40.5 41.3751C40.5 41.0001 40.5536 40.6251 40.7143 40.3037C40.875 39.9822 41.0893 39.768 41.4107 39.6072C41.6786 39.4465 42 39.3394 42.4286 39.3394C42.8036 39.3394 43.125 39.393 43.3393 39.5537C43.6071 39.7144 43.8214 39.9287 43.9821 40.2501C44.0893 40.6251 44.1429 40.9465 44.1429 41.3215Z" fill="white"/>
<path d="M47.036 43.2499H44.7324V39.4999H45.5896V42.607H46.9824V43.2499H47.036Z" fill="white"/>
</svg>
