<svg data-slug-id="area-graph" xmlns="http://www.w3.org/2000/svg" viewBox="0 0 48 48">
  <path d="M36.2449 30.2648L33.7259 21.2822H28.688C27.9883 21.2822 27.2886 20.8676 27.1487 20.1766L25.1895 11.4705L18.1924 37.8654C18.0525 38.4182 17.6327 38.8328 17.0729 38.971C16.9329 38.971 16.793 38.971 16.6531 38.971C16.2332 38.971 15.8134 38.8328 15.5335 38.4182L9.37609 31.7849L6.7172 34.5488C6.43732 34.8251 6.01749 34.9633 5.59767 34.9633H0V47.1244H47.8601V31.3703H37.7843C37.0845 31.3703 36.5248 30.9557 36.2449 30.2648Z" fill="#0078D4"/>
  <path d="M8.25656 28.606C8.53644 28.3297 8.95627 28.1915 9.37609 28.1915C9.79592 28.1915 10.2157 28.3297 10.4956 28.7442L15.9534 34.5484L23.7901 4.97496C23.93 4.1458 24.4898 3.73122 25.1895 3.73122C25.8892 3.73122 26.449 4.284 26.7289 4.83677L29.9475 18.2415H34.8455C35.5452 18.2415 36.105 18.6561 36.3848 19.3471L38.9038 28.3297H47.8601V0H0V31.9227H4.89796L8.25656 28.606Z" fill="#50E6FF"/>
  <path d="M38.9038 28.3304L36.3848 19.3478C36.2449 18.6568 35.5452 18.2422 34.8455 18.2422H29.9475L26.7289 4.83748C26.5889 4.14651 25.8892 3.73193 25.1895 3.73193C24.4898 3.73193 23.93 4.14651 23.6501 4.83748L15.8134 34.4109L10.3557 28.6068C10.0758 28.3304 9.65598 28.1922 9.23615 28.054C8.81633 28.054 8.3965 28.1922 8.11662 28.4686L4.75802 31.9234H0V34.9636H5.59767C6.01749 34.9636 6.43732 34.8255 6.7172 34.5491L9.37609 31.7852L15.5335 38.4185C15.8134 38.6949 16.2332 38.9713 16.6531 38.9713C16.793 38.9713 16.9329 38.9713 17.0729 38.9713C17.6327 38.8331 18.0525 38.4185 18.1924 37.8657L25.1895 11.4708L27.2886 20.177C27.4286 20.8679 28.1283 21.2825 28.828 21.2825H33.8659L36.3848 30.2651C36.5248 30.956 37.2245 31.3706 37.9242 31.3706H48V28.3304H38.9038Z" fill="white"/>
</svg>
