<svg data-slug-id="arrow10" viewBox="0 0 50 50" xmlns="http://www.w3.org/2000/svg">
<path d="M45.7277 36.7438H31.8702L15.011 10.7344H3.15757C2.44977 10.7344 1.87842 11.3057 1.87842 12.0135C1.87842 12.7213 2.44977 13.2927 3.15757 13.2927H13.621L30.4802 39.3021H45.7192C46.427 39.3021 46.9983 38.7307 46.9983 38.0229C47.0069 37.3151 46.427 36.7438 45.7277 36.7438Z" fill="#0078D4"/>
<path d="M47.732 38.8625L42.4704 43.0837C41.7285 43.6806 40.6284 43.1519 40.6284 42.1968V33.7629C40.6284 32.8163 41.7285 32.2876 42.4704 32.876L47.7234 37.0972C48.2948 37.5492 48.2948 38.4105 47.732 38.8625Z" fill="#0078D4"/>
<path d="M47.7317 12.9562L42.4787 17.1774C41.7368 17.7743 40.6367 17.2456 40.6367 16.2905V7.85665C40.6367 6.91008 41.7368 6.38137 42.4787 6.96978L47.7317 11.191C48.2946 11.6429 48.2946 12.5042 47.7317 12.9562Z" fill="#50E6FF"/>
<path d="M12.4702 36.4926H3.19212C2.50137 36.4926 1.91296 37.0213 1.87885 37.712C1.84474 38.4454 2.43315 39.0509 3.158 39.0509H13.9882C14.6277 39.0509 15.2247 38.7268 15.5658 38.1896L21.8848 28.3998L20.3669 26.0547L14.244 35.5289C13.8602 36.1344 13.1865 36.4926 12.4702 36.4926Z" fill="#50E6FF"/>
<path d="M33.0299 12.9567H45.6935C46.3842 12.9567 46.9726 12.428 47.0067 11.7373C47.0408 11.0039 46.4524 10.3984 45.7276 10.3984H31.5034C30.8638 10.3984 30.2669 10.7225 29.9258 11.2597L23.4106 21.3394L24.9371 23.6931L31.2476 13.9204C31.6398 13.3234 32.305 12.9567 33.0299 12.9567Z" fill="#50E6FF"/>
</svg>
