<svg data-slug-id="arrow15" viewBox="0 0 49 50" xmlns="http://www.w3.org/2000/svg">
<path d="M32.429 7.75671L25.2831 0.511719V5.86226C24.8617 5.83666 24.4404 5.81959 24.019 5.81959C13.5444 5.81959 5.05859 14.4129 5.05859 25.0201C5.05859 30.3109 7.17374 35.1068 10.595 38.5799L14.168 34.9617C11.5557 32.3078 10.1147 28.7749 10.1147 25.0201C10.1147 21.2568 11.5641 17.7239 14.1849 15.0614C16.8141 12.399 20.3028 10.9397 24.019 10.9397C24.4404 10.9397 24.8617 10.9568 25.2831 10.9995V14.9932L32.429 7.75671Z" fill="#0078D4"/>
<path d="M37.4099 11.4336L33.8369 15.0518C33.8454 15.0604 33.8454 15.0604 33.8538 15.0689C36.483 17.7314 37.924 21.2643 37.924 25.0276C37.924 28.7909 36.4745 32.3237 33.8538 34.9862C31.2246 37.6487 27.7359 39.1079 24.0196 39.1079V34.6278L16.8652 41.8728L24.0196 49.1178V44.2366C34.4942 44.2366 42.9801 35.6433 42.9801 25.0361C42.9801 19.7111 40.8481 14.9068 37.4099 11.4336Z" fill="#0078D4"/>
<path d="M30.3395 26.274V23.7139H28.9238C28.789 23.2531 28.6036 22.8179 28.3508 22.4168L29.3789 21.3757L27.5924 19.5666L26.5221 20.6503C26.1345 20.437 25.7216 20.2663 25.2834 20.1554V18.5938H22.7553V20.181C22.3256 20.3005 21.9211 20.4711 21.5503 20.6845L20.4464 19.5666L18.6599 21.3757L19.7469 22.4765C19.5194 22.8605 19.334 23.2787 19.2076 23.7224H17.6992V26.2825H19.1318C19.2413 26.7604 19.4099 27.2041 19.6374 27.6223L18.6515 28.6207L20.4379 30.4298L21.3818 29.474C21.8031 29.7386 22.2582 29.9434 22.7469 30.0799V31.3941H25.275V30.097C25.7722 29.969 26.2441 29.7727 26.6738 29.5082L27.5839 30.4298L29.3704 28.6207L28.435 27.6735C28.6794 27.2468 28.8648 26.7774 28.9744 26.274H30.3395V26.274ZM24.0194 26.274C23.3199 26.274 22.7553 25.7022 22.7553 24.9939C22.7553 24.2856 23.3199 23.7139 24.0194 23.7139C24.7188 23.7139 25.2834 24.2856 25.2834 24.9939C25.2834 25.7022 24.7188 26.274 24.0194 26.274Z" fill="#50E6FF"/>
</svg>
