<svg data-slug-id="arrow22" viewBox="0 0 49 49" xmlns="http://www.w3.org/2000/svg">
<path d="M45.114 36.2701H31.4298L14.7814 10.5859H3.07615C2.3772 10.5859 1.81299 11.1501 1.81299 11.8491C1.81299 12.548 2.3772 13.1123 3.07615 13.1123H13.4088L30.0572 38.7965H45.1056C45.8046 38.7965 46.3688 38.2323 46.3688 37.5333C46.3772 36.8344 45.8046 36.2701 45.114 36.2701Z" fill="#0078D4"/>
<path d="M47.0934 38.3587L41.8976 42.5272C41.1649 43.1166 40.0786 42.5945 40.0786 41.6514V33.3229C40.0786 32.3882 41.1649 31.8661 41.8976 32.4472L47.0849 36.6156C47.6491 37.0619 47.6491 37.9124 47.0934 38.3587Z" fill="#0078D4"/>
<path d="M47.0932 12.7767L41.9059 16.9451C41.1732 17.5346 40.0869 17.0125 40.0869 16.0693V7.74091C40.0869 6.80618 41.1732 6.28407 41.9059 6.86512L47.0932 11.0335C47.649 11.4799 47.649 12.3304 47.0932 12.7767Z" fill="#50E6FF"/>
<path d="M12.2724 36.0183H3.11025C2.42814 36.0183 1.84709 36.5404 1.81341 37.2225C1.77972 37.9467 2.36077 38.5446 3.07656 38.5446H13.7713C14.4029 38.5446 14.9924 38.2246 15.3292 37.6941L21.5692 28.0267L20.0702 25.7109L14.0239 35.0667C13.645 35.6646 12.9797 36.0183 12.2724 36.0183Z" fill="#50E6FF"/>
<path d="M32.5751 12.7763H45.0804C45.7625 12.7763 46.3435 12.2542 46.3772 11.5721C46.4109 10.8479 45.8299 10.25 45.1141 10.25H31.0677C30.4362 10.25 29.8467 10.57 29.5099 11.1005L23.0762 21.0542L24.5835 23.3784L30.8151 13.7279C31.2025 13.1384 31.8593 12.7763 32.5751 12.7763Z" fill="#50E6FF"/>
</svg>
