<svg data-slug-id="arrows-key-right" xmlns="http://www.w3.org/2000/svg" viewBox="0 0 48 48">
    <path d="M46.5629 22.6648H17.9571C17.6901 20.8425 16.8374 19.0875 15.4075 17.6786C13.6418 15.9491 11.3334 15.0885 9.02488 15.0885C6.71644 15.0885 4.408 15.9491 2.64221 17.6786C-0.880738 21.1292 -0.880738 26.723 2.64221 30.1737C4.408 31.9032 6.71644 32.7638 9.02488 32.7638C11.3334 32.7638 13.6418 31.9032 15.4075 30.1737C16.8374 28.7731 17.6901 27.0098 17.9571 25.1874H36.2008V28.6381H43.9529V25.1874H46.5629V22.6648ZM13.5814 28.385C12.367 29.5746 10.7476 30.2327 9.02488 30.2327C7.30217 30.2327 5.69143 29.5746 4.4683 28.385C1.96174 25.9299 1.96174 21.9223 4.4683 19.4673C5.68281 18.2776 7.30217 17.6196 9.02488 17.6196C10.7476 17.6196 12.3584 18.2776 13.5814 19.4673C14.796 20.6568 15.4679 22.2429 15.4679 23.9304C15.4679 25.6093 14.796 27.1955 13.5814 28.385Z" fill="#0078D4"/>
    <path d="M48.0002 6.27697L41.5831 0V4.2184H0.100098V8.68145H41.5831V12.5624L48.0002 6.27697Z" fill="#50E6FF"/>
    <path d="M48.0002 41.7145L41.5831 35.4374V39.6559H0.100098V44.119H41.5831V48L48.0002 41.7145Z" fill="#50E6FF"/>
</svg>
