<svg data-slug-id="arrow16" viewBox="0 0 49 49" xmlns="http://www.w3.org/2000/svg">
<path d="M23.9982 1.96875C11.5119 1.96875 1.3916 12.0891 1.3916 24.5753C1.3916 37.0615 11.5119 47.1819 23.9982 47.1819C36.4844 47.1819 46.6047 37.0615 46.6047 24.5753C46.6047 12.0891 36.4844 1.96875 23.9982 1.96875Z" fill="#50E6FF"/>
<path d="M35.306 24.5762C35.306 27.5988 34.1273 30.4362 31.9887 32.5748C29.8501 34.7133 27.0127 35.8921 23.9901 35.8921C20.9675 35.8921 18.1301 34.7133 15.9915 32.5748C13.8529 30.4362 12.6742 27.5988 12.6742 24.5762C12.6742 21.5535 13.8529 18.7161 15.9915 16.5776C18.1301 14.439 20.9675 13.2602 23.9901 13.2602C25.6993 13.2602 27.3495 13.6391 28.8482 14.3464L30.7173 12.4772C28.7219 11.3658 26.4318 10.7344 23.9901 10.7344C16.3451 10.7344 10.1567 16.9312 10.1567 24.5677C10.1567 32.2043 16.3535 38.4095 23.9985 38.4095C31.6435 38.4095 37.8319 32.2127 37.8319 24.5762C37.8319 22.1261 37.192 19.8359 36.0806 17.8405L34.2199 19.7096C34.9356 21.2083 35.306 22.867 35.306 24.5762Z" fill="#0078D4"/>
<path d="M43.6836 16.2553C44.795 18.8906 45.3591 21.6859 45.3591 24.5738C45.3591 27.4618 44.795 30.2571 43.6836 32.8924C42.6059 35.4351 41.0651 37.7168 39.1034 39.687C37.1416 41.6487 34.8515 43.1895 32.3088 44.2672C29.6734 45.3786 26.8781 45.9427 23.9902 45.9427C21.1023 45.9427 18.307 45.3786 15.6717 44.2672C13.129 43.1895 10.8473 41.6487 8.87708 39.687C6.91532 37.7252 5.37454 35.4351 4.29683 32.8924C3.18545 30.2571 2.62134 27.4618 2.62134 24.5738C2.62134 21.6859 3.18545 18.8906 4.29683 16.2553C5.37454 13.7126 6.91532 11.4309 8.87708 9.4607C10.8557 7.50736 13.1374 5.96657 15.6801 4.88887C18.3154 3.77748 21.1107 3.21337 23.9986 3.21337C26.8866 3.21337 29.6819 3.77748 32.3172 4.88887C33.8159 5.52034 35.2219 6.3202 36.527 7.26319V4.23214C32.8813 1.98411 28.5957 0.6875 23.9986 0.6875C10.8052 0.6875 0.112305 11.3804 0.112305 24.5738C0.112305 37.7673 10.8052 48.4602 23.9986 48.4602C37.1921 48.4602 47.885 37.7673 47.885 24.5738C47.885 19.9599 46.5799 15.6575 44.3151 12.0034H41.2756C42.2354 13.3253 43.0437 14.7482 43.6836 16.2553Z" fill="#0078D4"/>
<path d="M44.4158 4.11408L44.4326 0.527344L39.0525 5.90745L39.0441 7.72608L24.7055 22.073C24.4866 22.0141 24.2593 21.9804 24.0151 21.9804C22.6175 21.9804 21.4893 23.1086 21.4893 24.5063C21.4893 25.9039 22.6175 27.0322 24.0151 27.0322C25.4128 27.0322 26.541 25.9039 26.541 24.5063C26.541 24.2874 26.5157 24.0853 26.4652 23.8832L40.8459 9.48577L42.614 9.47735L47.9941 4.09724L44.4158 4.11408Z" fill="#0078D4"/>
</svg>
