<svg data-slug-id="arrow18" viewBox="0 0 49 49" xmlns="http://www.w3.org/2000/svg">
<path d="M39.7718 34.2422L38.0072 36.0068L42.1108 40.1105H35.9012C34.7192 41.0927 33.429 41.9334 32.0723 42.6076H42.194L38.0072 46.7945L39.7718 48.5592L46.9303 41.4007L39.7718 34.2422Z" fill="#0078D4"/>
<path d="M7.80867 24.7304C7.80867 21.4758 8.82418 18.4625 10.5555 15.9737L8.75759 14.1758C6.51848 17.2223 5.31152 20.8848 5.31152 24.7304C5.31152 29.5083 7.16774 33.9948 10.5472 37.3743C10.9301 37.7572 11.3296 38.1234 11.7375 38.4647H16.2657C11.2547 35.9259 7.80867 30.7235 7.80867 24.7304Z" fill="#0078D4"/>
<path d="M23.1824 40.1111C23.1824 40.1111 23.1741 40.1111 23.1824 40.1111H14.0595H10.4636H1.91504V42.6082H14.2926H23.1741C23.1741 42.6082 23.1741 42.6082 23.1824 42.6082H23.1907H23.1824C33.0045 42.5749 40.9538 34.5175 40.9538 24.687C40.9538 14.8566 32.9962 6.88239 23.1741 6.84909H23.1824C23.1824 6.84909 23.1824 6.84909 23.1741 6.84909H10.5968L14.6505 2.79539L12.8775 1.03906L5.71903 8.19755L10.089 12.5676L12.8775 15.356L14.6422 13.5914L11.9119 10.8612L10.4053 9.35456H14.0595H23.1741C31.6311 9.38786 38.4733 16.2217 38.4733 24.687C38.4733 33.1524 31.6311 40.0778 23.1824 40.1111Z" fill="#50E6FF"/>
</svg>
