<svg data-slug-id="arrow-on-target" xmlns="http://www.w3.org/2000/svg" viewBox="0 0 48 48">
    <path d="M23.9791 1.45654C11.4929 1.45654 1.37256 11.5769 1.37256 24.0631C1.37256 36.5493 11.4929 46.6697 23.9791 46.6697C36.4654 46.6697 46.5857 36.5493 46.5857 24.0631C46.5857 11.5769 36.4654 1.45654 23.9791 1.45654Z" fill="#50E6FF"/>
    <path d="M35.2865 24.063C35.2865 27.0856 34.1077 29.923 31.9692 32.0616C29.8306 34.2001 26.9932 35.3789 23.9706 35.3789C20.9479 35.3789 18.1105 34.2001 15.972 32.0616C13.8334 29.923 12.6547 27.0856 12.6547 24.063C12.6547 21.0403 13.8334 18.2029 15.972 16.0644C18.1105 13.9258 20.9479 12.7471 23.9706 12.7471C25.6797 12.7471 27.33 13.1259 28.8287 13.8332L30.6978 11.964C28.7024 10.8527 26.4122 10.2212 23.9706 10.2212C16.3256 10.2212 10.1372 16.418 10.1372 24.0546C10.1372 31.6911 16.334 37.8963 23.979 37.8963C31.624 37.8963 37.8124 31.6995 37.8124 24.063C37.8124 21.6129 37.1725 19.3228 36.0611 17.3273L34.2004 19.1965C34.916 20.6951 35.2865 22.3538 35.2865 24.063Z" fill="#0078D4"/>
    <path d="M43.6641 15.7446C44.7755 18.3799 45.3396 21.1752 45.3396 24.0631C45.3396 26.951 44.7755 29.7463 43.6641 32.3816C42.5864 34.9243 41.0456 37.2061 39.0838 39.1762C37.1221 41.138 34.8319 42.6788 32.2892 43.7565C29.6539 44.8679 26.8586 45.432 23.9707 45.432C21.0828 45.432 18.2875 44.8679 15.6521 43.7565C13.1094 42.6788 10.8277 41.138 8.85755 39.1762C6.89579 37.2145 5.35501 34.9243 4.2773 32.3816C3.16592 29.7463 2.60181 26.951 2.60181 24.0631C2.60181 21.1752 3.16592 18.3799 4.2773 15.7446C5.35501 13.2018 6.89579 10.9201 8.85755 8.94996C10.8362 6.99661 13.1179 5.45583 15.6606 4.37813C18.2959 3.26674 21.0912 2.70263 23.9791 2.70263C26.867 2.70263 29.6623 3.26674 32.2976 4.37813C33.7963 5.00959 35.2024 5.80945 36.5074 6.75245V3.7214C32.8618 1.47337 28.5762 0.176758 23.9791 0.176758C10.7856 0.176758 0.0927734 10.8696 0.0927734 24.0631C0.0927734 37.2566 10.7856 47.9494 23.9791 47.9494C37.1726 47.9494 47.8654 37.2566 47.8654 24.0631C47.8654 19.4492 46.5604 15.1468 44.2955 11.4927H41.2561C42.2159 12.8145 43.0242 14.2374 43.6641 15.7446Z" fill="#0078D4"/>
    <path d="M44.3962 3.60334L44.4131 0.0166016L39.033 5.39671L39.0245 7.21534L24.686 21.5623C24.4671 21.5034 24.2398 21.4697 23.9956 21.4697C22.5979 21.4697 21.4697 22.5979 21.4697 23.9956C21.4697 25.3932 22.5979 26.5214 23.9956 26.5214C25.3932 26.5214 26.5215 25.3932 26.5215 23.9956C26.5215 23.7766 26.4962 23.5746 26.4457 23.3725L40.8263 8.97503L42.5944 8.96661L47.9746 3.5865L44.3962 3.60334Z" fill="#0078D4"/>
</svg>
