<svg data-slug-id="arrow08" viewBox="0 0 50 50" xmlns="http://www.w3.org/2000/svg">
<path d="M20.3251 0.871094H15.2085V5.98769H20.3251V0.871094Z" fill="#0078D4"/>
<path d="M27.5736 0.871094H22.457V5.98769H27.5736V0.871094Z" fill="#50E6FF"/>
<path d="M27.5736 8.11719H22.457V13.2338H27.5736V8.11719Z" fill="#0078D4"/>
<path d="M34.8222 8.11719H29.7056V13.2338H34.8222V8.11719Z" fill="#50E6FF"/>
<path d="M34.8222 15.3672H29.7056V20.4838H34.8222V15.3672Z" fill="#0078D4"/>
<path d="M42.0707 15.3672H36.9541V20.4838H42.0707V15.3672Z" fill="#50E6FF"/>
<path d="M5.82802 22.6172H0.711426V27.7338H5.82802V22.6172Z" fill="#0078D4"/>
<path d="M13.0766 22.6172H7.95996V27.7338H13.0766V22.6172Z" fill="#0078D4"/>
<path d="M20.3251 22.6172H15.2085V27.7338H20.3251V22.6172Z" fill="#0078D4"/>
<path d="M25.0153 27.7338C23.5997 27.7338 22.457 26.5911 22.457 25.1755C22.457 23.7599 23.5997 22.6172 25.0153 22.6172C26.4309 22.6172 27.5736 23.7599 27.5736 25.1755C27.5736 26.5825 26.4224 27.7338 25.0153 27.7338Z" fill="#0078D4"/>
<path d="M34.8222 22.6172H29.7056V27.7338H34.8222V22.6172Z" fill="#0078D4"/>
<path d="M42.0707 22.6172H36.9541V27.7338H42.0707V22.6172Z" fill="#0078D4"/>
<path d="M49.3187 22.6172H44.2021V27.7338H49.3187V22.6172Z" fill="#50E6FF"/>
<path d="M34.8222 29.8672H29.7056V34.9838H34.8222V29.8672Z" fill="#0078D4"/>
<path d="M39.5124 34.9838C38.0968 34.9838 36.9541 33.8411 36.9541 32.4255C36.9541 31.0099 38.0968 29.8672 39.5124 29.8672C40.928 29.8672 42.0707 31.0099 42.0707 32.4255C42.0707 33.8325 40.9195 34.9838 39.5124 34.9838Z" fill="#50E6FF"/>
<path d="M25.0153 42.2299C23.5997 42.2299 22.457 41.0872 22.457 39.6716C22.457 38.256 23.5997 37.1133 25.0153 37.1133C26.4309 37.1133 27.5736 38.256 27.5736 39.6716C27.5736 41.0786 26.4224 42.2299 25.0153 42.2299Z" fill="#0078D4"/>
<path d="M34.8222 37.1133H29.7056V42.2299H34.8222V37.1133Z" fill="#50E6FF"/>
<path d="M20.3251 44.3633H15.2085V49.4799H20.3251V44.3633Z" fill="#0078D4"/>
<path d="M27.5736 44.3633H22.457V49.4799H27.5736V44.3633Z" fill="#50E6FF"/>
</svg>
