<svg data-slug-id="arrow21" viewBox="0 0 49 49" xmlns="http://www.w3.org/2000/svg">
<path d="M31.3488 18.418H18.8135V30.9533H31.3488V18.418Z" fill="#0078D4"/>
<path d="M48.7567 0.910673V0.902344H38.7951V3.36777H44.4756L32.8647 14.9786L34.6055 16.7194L46.2997 5.02527V10.8973H48.7651V0.910673H48.7567Z" fill="#50E6FF"/>
<path d="M48.7154 48.3842H48.7238V38.4225H46.2584V44.103L34.6475 32.4922L32.9067 34.233L44.6009 45.9271H38.7371V48.3925H48.7154V48.3842Z" fill="#50E6FF"/>
<path d="M1.23929 48.3868V48.3952H11.2093V45.9297H5.52047L17.1313 34.3189L15.3905 32.5781L3.69638 44.2722V38.4085H1.23096V48.3868H1.23929Z" fill="#50E6FF"/>
<path d="M1.28079 0.910673H1.27246V10.8807H3.73789V5.19185L15.3487 16.8027L17.0895 15.0619L5.39539 3.36777H11.2674V0.902344H1.28079V0.910673Z" fill="#50E6FF"/>
</svg>
