<svg data-slug-id="arrow01" viewBox="0 0 49 49" xmlns="http://www.w3.org/2000/svg">
<path d="M41.8694 3.31641L45.4694 6.90908L25.8695 26.5191L22.2695 22.9264L41.8694 3.31641Z" fill="#0078D4"/>
<path d="M26.1194 23.3765L8.51948 5.81228H15.2194V0.722656H0.0695309H0.0195312V15.8418H5.1195V9.65445L22.5194 27.019L26.1194 23.3765Z" fill="#50E6FF"/>
<path d="M26.1194 26.2177L22.5194 22.625L5.1195 39.9896V33.5028H0.0195312V48.622V48.6719H15.1694V43.5823H8.71948L26.1194 26.2177Z" fill="#50E6FF"/>
<path d="M48.0191 15.8917V0.772555V0.722656H32.8691V5.81228H42.9191V15.8917H48.0191Z" fill="#0078D4"/>
<path d="M42.9196 33.5537V40.1403L25.8697 23.125L22.2197 26.7177L39.1196 43.5833H32.8197V48.6729H47.9696H48.0196V33.5537H42.9196Z" fill="#50E6FF"/>
</svg>
