<svg data-slug-id="arrow-screen-cloud" xmlns="http://www.w3.org/2000/svg" viewBox="0 0 48 48">
<rect x="2.76685" y="17.2031" width="30.9051" height="22.4127" fill="white"/>
<path d="M12.559 31.1646L12.5674 35.4434L17.897 30.2567L12.5505 25.3474L12.559 29.3152H1.58032V31.1646H12.559Z" fill="#0078D4"/>
<path d="M41.0059 12.3609C41.0059 7.88874 37.3827 4.26562 32.9106 4.26562C29.0521 4.26562 25.8325 6.96405 25.0171 10.5788C24.2185 9.75494 23.092 9.23375 21.8563 9.23375C19.4269 9.23375 17.4514 11.2092 17.4514 13.6387C17.4514 13.6723 17.4598 13.7143 17.4598 13.7479C14.7614 14.2775 12.7271 16.6565 12.7271 19.5063C12.7271 22.7511 15.3582 25.3739 18.5947 25.3739H42.6787C45.6209 25.3739 47.9999 22.9949 47.9999 20.0527C47.9999 17.1105 45.6209 14.7315 42.6787 14.7315C41.8969 14.7315 41.1572 14.908 40.4847 15.2106C40.8209 14.328 41.0059 13.3697 41.0059 12.3609Z" fill="#50E6FF"/>
<path d="M32.8014 16.2695L29.7415 18.8755H32.1878V38.4538H6.79232L3.73242 41.0681H32.7846C33.7934 41.0681 34.8189 40.1687 34.8189 39.1515V18.1946C34.8105 17.1774 33.8018 16.2779 32.8014 16.2695Z" fill="#0078D4"/>
<path d="M3.74096 38.4538V18.8755H29.7417L32.8016 16.2695H32.7931C32.7847 16.2695 32.7847 16.2695 32.7763 16.2695H3.01802C2.58089 16.2695 2.18579 16.4461 1.87476 16.7151C1.46285 17.0765 1.19385 17.6145 1.19385 18.1946V39.1515C1.19385 40.1687 2.00926 41.0681 3.01802 41.0681H3.72415L6.78404 38.4538H3.74096Z" fill="#0078D4"/>
<path d="M0 43.7354H35.3317V41.0117H0V43.7354Z" fill="#50E6FF"/>
<path d="M18.3509 17.6823C18.3509 17.9513 18.1407 18.1614 17.8717 18.1614C17.6111 18.1614 17.3926 17.9429 17.3926 17.6823C17.3926 17.4133 17.6027 17.2031 17.8717 17.2031C18.1323 17.2031 18.3509 17.4217 18.3509 17.6823Z" fill="#0078D4"/>
</svg>
