<svg data-slug-id="arrow14" viewBox="0 0 50 50" xmlns="http://www.w3.org/2000/svg">
<path d="M17.493 0.984497L3.56006 4.91715L13.9901 14.8668L14.8559 11.4453C19.579 14.5128 22.5309 19.7432 22.5309 25.4062L29.8909 25.4062C29.8909 16.4005 24.7743 8.14192 16.7452 4.05196L17.493 0.984497Z" fill="#50E6FF"/>
<path d="M35.6765 4.05446C27.6474 8.18375 22.5308 16.403 22.5308 25.4087C22.5308 38.7011 33.4331 49.4766 46.8937 49.4766L46.8937 42.1225C37.5263 42.1225 29.8908 34.6111 29.8908 25.4087C29.8908 19.7457 32.8427 14.5153 37.5657 11.4478L38.3922 14.8692L48.8222 4.91964L34.8893 0.986996L35.6765 4.05446Z" fill="#0078D4"/>
</svg>
