<svg data-slug-id="auto-three-points" xmlns="http://www.w3.org/2000/svg" viewBox="0 0 48 48">
	<path d="M42.9472 27.7891H5.05261C3.71258 27.7891 2.42742 28.3214 1.47988 29.2689C0.532327 30.2165 0 31.5016 0 32.8417C0 34.1817 0.532327 35.4669 1.47988 36.4144C2.42742 37.362 3.71258 37.8943 5.05261 37.8943V47.9995H12.6315V42.9469H35.3683V47.9995H42.9472V37.8943C44.2872 37.8943 45.5724 37.362 46.5199 36.4144C47.4675 35.4669 47.9998 34.1817 47.9998 32.8417C47.9998 31.5016 47.4675 30.2165 46.5199 29.2689C45.5724 28.3214 44.2872 27.7891 42.9472 27.7891ZM2.52631 32.8417C2.52631 32.342 2.67447 31.8536 2.95206 31.4381C3.22966 31.0227 3.62421 30.6989 4.08584 30.5077C4.54746 30.3165 5.05541 30.2664 5.54547 30.3639C6.03552 30.4614 6.48567 30.702 6.83898 31.0553C7.19229 31.4086 7.4329 31.8588 7.53038 32.3488C7.62785 32.8389 7.57782 33.3468 7.38661 33.8084C7.1954 34.2701 6.8716 34.6646 6.45615 34.9422C6.0407 35.2198 5.55227 35.368 5.05261 35.368C4.38259 35.368 3.74002 35.1018 3.26624 34.628C2.79247 34.1543 2.52631 33.5117 2.52631 32.8417ZM42.9472 35.368C42.4475 35.368 41.9591 35.2198 41.5437 34.9422C41.1282 34.6646 40.8044 34.2701 40.6132 33.8084C40.422 33.3468 40.372 32.8389 40.4694 32.3488C40.5669 31.8588 40.8075 31.4086 41.1608 31.0553C41.5141 30.702 41.9643 30.4614 42.4543 30.3639C42.9444 30.2664 43.4524 30.3165 43.914 30.5077C44.3756 30.6989 44.7702 31.0227 45.0477 31.4381C45.3253 31.8536 45.4735 32.342 45.4735 32.8417C45.4735 33.5117 45.2073 34.1543 44.7336 34.628C44.2598 35.1018 43.6172 35.368 42.9472 35.368Z" fill="#0078D4"/>
	<path d="M15.1591 30.3125H12.6328V35.3651H15.1591V30.3125Z" fill="#50E6FF"/>
	<path d="M25.2646 30.3125H22.7383V35.3651H25.2646V30.3125Z" fill="#50E6FF"/>
	<path d="M20.2099 30.3125H17.6836V35.3651H20.2099V30.3125Z" fill="#50E6FF"/>
	<path d="M35.3681 30.3125H32.8418V35.3651H35.3681V30.3125Z" fill="#50E6FF"/>
	<path d="M30.3154 30.3125H27.7891V35.3651H30.3154V30.3125Z" fill="#50E6FF"/>
	<path d="M24.4467 23.5864L9.75538 8.89512C10.0676 8.36543 10.176 7.74004 10.0601 7.13619C9.94422 6.53234 9.61211 5.99147 9.126 5.61496C8.63989 5.23845 8.03315 5.05215 7.41951 5.09098C6.80587 5.12981 6.22745 5.3911 5.79268 5.82588C5.3579 6.26066 5.09661 6.83907 5.05778 7.45271C5.01895 8.06635 5.20525 8.67309 5.58176 9.1592C5.95827 9.64531 6.49914 9.97743 7.10299 10.0933C7.70684 10.2092 8.33222 10.1008 8.86191 9.78859L23.5541 24.4799L24.4467 23.5864Z" fill="#0078D4"/>
	<path d="M40.422 5.08594C39.9767 5.08604 39.5393 5.20384 39.1542 5.42742C38.7691 5.65099 38.4499 5.97239 38.229 6.35905C38.0081 6.74572 37.8933 7.1839 37.8963 7.6292C37.8993 8.0745 38.0199 8.5111 38.246 8.89477L23.5547 23.5861L24.4473 24.4795L39.1395 9.78824C39.4741 9.98563 39.8498 10.1032 40.2373 10.1317C40.6248 10.1603 41.0136 10.0991 41.3736 9.95285C41.7336 9.80664 42.055 9.57937 42.3128 9.28871C42.5707 8.99805 42.758 8.65184 42.8602 8.277C42.9624 7.90215 42.9768 7.50878 42.9023 7.12746C42.8277 6.74614 42.6662 6.38716 42.4303 6.07843C42.1944 5.7697 41.8905 5.51954 41.5422 5.3474C41.1939 5.17527 40.8105 5.08579 40.422 5.08594V5.08594Z" fill="#50E6FF"/>
	<path d="M24.6303 4.97266H23.3672V24.0319H24.6303V4.97266Z" fill="#0078D4"/>
	<path d="M39.9167 20.2117L35.3693 12.6328H12.6326L8.08522 20.2117H2.52734V25.2643H45.4745V20.2117H39.9167ZM9.51679 22.738L14.0641 15.1591H33.9377L38.4851 22.738H9.51679Z" fill="#0078D4"/>
	<path d="M24.0009 5.05261C25.3962 5.05261 26.5272 3.92155 26.5272 2.52631C26.5272 1.13107 25.3962 0 24.0009 0C22.6057 0 21.4746 1.13107 21.4746 2.52631C21.4746 3.92155 22.6057 5.05261 24.0009 5.05261Z" fill="#50E6FF"/>
</svg>
