<svg data-slug-id="availability-glyph" xmlns="http://www.w3.org/2000/svg" viewBox="0 0 49 48">
    <path d="M8.60229 41.8695C12.5433 45.3895 17.6633 47.6295 23.297 47.9242V43.0232C19.0191 42.7453 15.1286 41.0442 12.0886 38.3832L8.60229 41.8695Z" fill="#0078D4"/>
    <path d="M25.8232 0.0842285V5.21265C30.0927 5.49897 33.9748 7.1916 37.0064 9.83581L40.6106 6.2316C36.6611 2.65265 31.5075 0.378965 25.8232 0.0842285Z" fill="#50E6FF"/>
    <path d="M6.69902 8.03369C3.15376 12 0.905336 17.1453 0.627441 22.8211H5.64639C5.9327 18.5516 7.64218 14.6611 10.2948 11.6295L6.69902 8.03369Z" fill="#0078D4"/>
    <path d="M23.2971 0.0842285C17.6213 0.378965 12.4677 2.64423 8.50977 6.21475L12.114 9.81896C15.1456 7.17475 19.0277 5.48212 23.2971 5.20423V0.0842285Z" fill="#0078D4"/>
    <path d="M37.0317 38.3663C34.0001 41.0274 30.1011 42.7284 25.8232 43.0148V47.9158C31.4569 47.6211 36.5769 45.3811 40.518 41.8526L37.0317 38.3663Z" fill="#50E6FF"/>
    <path d="M0.635986 25.3474C0.947565 30.9979 3.22125 36.1264 6.78335 40.059L10.2781 36.5643C7.62546 33.5327 5.92441 29.6337 5.64651 25.3474H0.635986Z" fill="#0078D4"/>
    <path d="M48.4675 25.3474H43.457C43.1791 29.6253 41.4865 33.5158 38.8423 36.5558L42.337 40.0506C45.8907 36.1095 48.156 30.9895 48.4675 25.3474Z" fill="#50E6FF"/>
    <path d="M42.4212 8.05054L38.8254 11.6463C41.4696 14.6779 43.1707 18.5516 43.457 22.8211H48.476C48.1981 17.1537 45.9581 12.0084 42.4212 8.05054Z" fill="#50E6FF"/>
    <path d="M36.6876 26.6189C36.6959 26.5605 36.7126 26.5021 36.721 26.452C36.7878 26.1013 36.8212 25.7422 36.8212 25.3749C36.8212 22.2187 34.2662 19.6553 31.11 19.6553C30.6675 19.6553 30.2416 19.7054 29.8325 19.8056C28.5216 17.7433 26.2338 16.3906 23.6204 16.3906C19.5624 16.3906 16.2727 19.6804 16.2727 23.7467C16.2727 23.8469 16.2727 23.9471 16.281 24.0473C15.9136 23.922 15.5129 23.8552 15.0954 23.8552C13.0998 23.8552 11.48 25.475 11.48 27.4706C11.48 29.3493 12.9161 30.8856 14.7363 31.0693L31.1017 31.1027C33.2475 31.1027 35.1178 29.9171 36.1031 28.172C36.1282 28.1219 36.1616 28.0718 36.1866 28.0217C36.3369 27.7044 36.554 27.2285 36.6876 26.6189Z" fill="#50E6FF"/>
</svg>
