<svg data-slug-id="avere-vfxt-gray" xmlns="http://www.w3.org/2000/svg" viewBox="0 0 96 71">
<path d="M37.8561 50.3125H21.7891V54.3539H37.8561V50.3125Z" fill="#CDCDD0"/>
<path d="M74.1088 18.186C72.7792 18.186 71.4818 18.3254 70.2146 18.5538C66.3304 7.74124 56.0696 0 43.9832 0C28.565 0 16.0669 12.5746 16.0669 28.0872C16.0669 28.9622 16.1191 29.827 16.1975 30.6818C6.97305 32.464 0 40.6154 0 50.4156C0 61.4848 8.89305 70.4606 19.8828 70.5172V70.5212H37.8578V66.48H19.8888L19.8828 66.474C11.1264 66.4194 4.01673 59.2378 4.01673 50.4156C4.01673 42.729 9.45741 36.0972 16.9546 34.6504L20.5296 33.9594L20.1962 30.312C20.1198 29.4754 20.0836 28.748 20.0836 28.0872C20.0836 14.8276 30.8044 4.04134 43.9832 4.04134C53.999 4.04134 63.0226 10.4246 66.4368 19.9258L67.5876 23.1286L70.9214 22.5284C72.0582 22.3244 73.1006 22.2252 74.1088 22.2252C83.9638 22.2252 91.9832 30.2938 91.9832 40.2092C91.9832 50.2378 83.9638 58.3952 74.1088 58.3952H21.8912V62.4366H74.1088C86.1992 62.4366 96 52.3736 96 40.2092C96 28.0448 86.1992 18.186 74.1088 18.186Z" fill="#CDCDD0"/>
</svg>
