<svg data-slug-id="avere-vfxt-blue" xmlns="http://www.w3.org/2000/svg" viewBox="0 0 49 49">
    <path d="M18.9866 32.3945H10.9531V34.4152H18.9866V32.3945Z" fill="#0078D7"/>
    <path d="M37.113 16.3313C36.4482 16.3313 35.7995 16.401 35.1659 16.5152C33.2238 11.1089 28.0934 7.23828 22.0502 7.23828C14.3411 7.23828 8.09207 13.5256 8.09207 21.2819C8.09207 21.7194 8.11817 22.1518 8.15734 22.5792C3.54512 23.4703 0.0585938 27.546 0.0585938 32.4461C0.0585938 37.9807 4.50512 42.4686 10 42.4969V42.4989H18.9875V40.4783H10.003L10 40.4753C5.62177 40.448 2.06696 36.8572 2.06696 32.4461C2.06696 28.6028 4.7873 25.2869 8.53591 24.5635L10.3234 24.218L10.1567 22.3943C10.1185 21.976 10.1004 21.6123 10.1004 21.2819C10.1004 14.6521 15.4608 9.25895 22.0502 9.25895C27.0581 9.25895 31.5699 12.4506 33.277 17.2012L33.8524 18.8026L35.5193 18.5025C36.0877 18.4005 36.6089 18.3509 37.113 18.3509C42.0405 18.3509 46.0502 22.3852 46.0502 27.3429C46.0502 32.3572 42.0405 36.4359 37.113 36.4359H11.0042V38.4566H37.113C43.1582 38.4566 48.0586 33.4251 48.0586 27.3429C48.0586 21.2607 43.1582 16.3313 37.113 16.3313Z" fill="#0078D7"/>
</svg>
