<svg data-slug-id="award-winning" xmlns="http://www.w3.org/2000/svg" viewBox="0 0 48 48">
    <path d="M22.079 6.36899L24.0677 4.91112L26.0565 6.36899L25.3065 4.01786L27.3206 2.56H24.8346L24.0677 0.183594L23.3093 2.56843L20.8149 2.56L22.8374 4.01786L22.079 6.36899Z" fill="#50E6FF"/>
    <path d="M11.7813 9.13315L13.77 7.68371L15.7588 9.13315L15.0004 6.78202L17.0228 5.33259H14.5285L13.77 2.94775L13.0032 5.33259H10.5088L12.5313 6.78202L11.7813 9.13315Z" fill="#50E6FF"/>
    <path d="M6.22791 10.5068L5.46948 12.8917L2.9751 12.8832L4.99757 14.3411L4.23914 16.6922L6.22791 15.2344L8.21667 16.6922L7.46667 14.3411L9.48072 12.8832H6.99476L6.22791 10.5068Z" fill="#50E6FF"/>
    <path d="M3.46375 25.5234L5.45251 26.9813L4.69408 24.6302L6.71656 23.1723H4.2306L3.46375 20.7959L2.70532 23.1807L0.210938 23.1723L2.23341 24.6302L1.47498 26.9813L3.46375 25.5234Z" fill="#50E6FF"/>
    <path d="M6.99476 33.4957L6.22791 31.1108L5.46948 33.4957H2.9751L4.99757 34.9451L4.23914 37.2962L6.22791 35.8384L8.21667 37.2962L7.46667 34.9451L9.48072 33.4957H6.99476Z" fill="#50E6FF"/>
    <path d="M14.5451 41.0463L13.7782 38.6699L13.0198 41.0463H10.5254L12.5479 42.4958L11.7894 44.8469L13.7866 43.3974L15.7754 44.8469L15.017 42.4958L17.0394 41.0463H14.5451Z" fill="#50E6FF"/>
    <path d="M24.8346 43.7847L24.0677 41.3999L23.3093 43.7847H20.8149L22.8374 45.2342L22.079 47.5853L24.0762 46.1359L26.0649 47.5853L25.3065 45.2342L27.329 43.7847H24.8346Z" fill="#50E6FF"/>
    <path d="M35.1242 41.0463L34.3573 38.6699L33.5989 41.0463H31.1045L33.127 42.4958L32.3685 44.8469L34.3573 43.3974L36.3545 44.8469L35.5961 42.4958L37.6185 41.0463H35.1242Z" fill="#50E6FF"/>
    <path d="M42.6743 33.4957L41.9159 31.1108L41.149 33.4957H38.6631L40.6771 34.9451L39.9187 37.2962L41.9159 35.8384L43.9047 37.2962L43.1462 34.9451L45.1687 33.4957H42.6743Z" fill="#50E6FF"/>
    <path d="M47.8992 23.147H45.4132L44.6464 20.7622L43.8879 23.147H41.3936L43.416 24.5965L42.6576 26.9476L44.6464 25.4897L46.6351 26.9476L45.8851 24.5965L47.8992 23.147Z" fill="#50E6FF"/>
    <path d="M39.9187 16.6584L41.9159 15.2005L43.9047 16.6584L43.1462 14.3073L45.1687 12.8579H42.6743L41.9159 10.4814L41.149 12.8579H38.6631L40.6771 14.3073L39.9187 16.6584Z" fill="#50E6FF"/>
    <path d="M34.391 2.95605L33.6241 5.34089L31.1382 5.33246L33.1522 6.79032L32.4022 9.13302L34.391 7.68358L36.3798 9.13302L35.6213 6.79032L37.6438 5.33246H35.1494L34.391 2.95605Z" fill="#50E6FF"/>
    <path d="M21 26H27V36L24 34L21 36V26Z" fill="#50E6FF"/>
    <circle cx="24" cy="22" r="7" fill="#0078D4"/>
</svg>
