<svg data-slug-id="azure-boards" xmlns="http://www.w3.org/2000/svg" viewBox="0 0 49 49">
    <path d="M34.05 20.3656C37.6062 20.3656 40.8421 21.7026 43.3015 23.8991V2.32296C43.3015 1.23153 42.4226 0.351562 41.3326 0.351562H2.21492C1.12491 0.351562 0.246094 1.23153 0.246094 2.32296V34.3973C0.246094 35.4887 1.12491 36.3687 2.21492 36.3687H20.3295C20.2273 35.6866 20.1728 34.984 20.1728 34.2677C20.166 26.5936 26.3859 20.3656 34.05 20.3656Z" fill="#00947D"/>
    <path d="M13.3675 3.96484H3.78906V10.0359H13.3675V3.96484Z" fill="#1FC1A7"/>
    <path d="M26.5355 3.96484H16.957V10.0359H26.5355V3.96484Z" fill="#61DDC9"/>
    <path d="M13.3675 13.5859H3.78906V19.657H13.3675V13.5859Z" fill="#9BFDEC"/>
    <path d="M13.3675 23.2031H3.78906V29.1855H13.3675V23.2031Z" fill="#00B99D"/>
    <path d="M26.5355 13.5859H16.957V19.657H26.5355V13.5859Z" fill="#04BCA1"/>
    <path d="M39.7308 3.96484H30.1523V10.0359H39.7308V3.96484Z" fill="#1DC0A7"/>
    <path d="M43.2995 34.396V23.9046C40.847 21.7081 37.6042 20.3711 34.0481 20.3711C26.3839 20.3711 20.1641 26.5922 20.1641 34.2732C20.1641 34.9894 20.2186 35.6852 20.3208 36.3742H41.3307C42.4207 36.3673 43.2995 35.4874 43.2995 34.396Z" fill="#00BA9D"/>
    <path d="M43.303 23.9062V34.4044C43.303 35.489 42.4242 36.3758 41.3341 36.3758H20.3242C21.3325 43.054 27.0959 48.1769 34.0515 48.1769C41.7225 48.1701 47.9355 41.9489 47.9355 34.268C47.9355 30.1479 46.1438 26.4506 43.303 23.9062Z" fill="#27CFB2"/>
    <path d="M41.183 27.4258L32.4833 36.1299L28.0143 31.6551L25.3438 34.3359L29.8128 38.8107L32.6536 41.6553L35.3242 38.9745L44.0238 30.2703L41.183 27.4258Z" fill="#C5FDF4"/>
</svg>
