<svg data-slug-id="azure-arc" viewBox="0 0 36 36" xmlns="http://www.w3.org/2000/svg">
    <defs>
        <linearGradient id="azure-arc:83334ee1-4186-4717-a19c-479ca8f39bee" x1="6.80082" y1="22.2193" x2="29.6427" y2="22.2193" gradientUnits="userSpaceOnUse">
            <stop offset="0" stop-color="#035EA4"/>
            <stop offset="1" stop-color="#50E6FF"/>
        </linearGradient>
    </defs>
    <path d="M32.3625 9.0659L35.9458 7.03906L35.8742 29.841L32.3625 31.9402V9.0659Z" fill="#45CAF2"/>
    <path d="M32.3631 9.06748V31.9418L27.2032 28.9739L27.2749 6.09961L32.3631 9.06748Z" fill="#84ECFD"/>
    <path d="M27.275 6.09922L30.7866 4L35.9464 7.04025L32.3632 9.06709L27.275 6.09922Z" fill="#45CAF2"/>
    <path d="M3.58386 9.0659L0.000610352 7.03906L0.072277 29.841L3.58386 31.9402V9.0659Z" fill="#0078D4"/>
    <path d="M3.58337 9.06748V31.9418L8.74321 28.9739L8.67158 6.09961L3.58337 9.06748Z" fill="#1D4A79"/>
    <path d="M8.67172 6.09922L5.16011 4L0.000244141 7.04025L3.58348 9.06709L8.67172 6.09922Z" fill="#3EA2EF"/>
    <path fill-rule="evenodd" clip-rule="evenodd" d="M28.424 11.8974C29.03 11.2216 29.3583 10.6463 29.4293 10.2793L30.0097 10.3939C29.9066 10.9266 29.486 11.6028 28.8623 12.2983C28.2287 13.0049 27.3536 13.7666 26.2861 14.4684C24.1519 15.8715 21.2269 17.0487 17.8923 17.0487C14.558 17.0487 11.6121 15.8717 9.46726 14.4688C8.39443 13.7672 7.51609 13.0051 6.88567 12.2976C6.26658 11.6029 5.85142 10.9216 5.77197 10.3804L6.35695 10.2928C6.40959 10.6513 6.72244 11.2216 7.32522 11.898C7.91667 12.5618 8.75399 13.2906 9.78867 13.9674C11.8586 15.3213 14.6946 16.4513 17.8923 16.4513C21.0896 16.4513 23.9042 15.3216 25.9635 13.9678C26.9928 13.2911 27.828 12.562 28.424 11.8974ZM17.8923 17.6005C24.3652 17.6005 28.5452 15.312 29.5275 14.4653L29.9114 14.9197C28.806 15.8725 24.4834 18.1979 17.8923 18.1979C14.5922 18.1979 11.8019 17.6152 9.73256 16.9165C8.69803 16.5672 7.84127 16.1881 7.18934 15.8366C6.54659 15.49 6.07799 15.157 5.84363 14.8911L6.2853 14.4939C6.44749 14.6779 6.83915 14.9706 7.46782 15.3097C8.08736 15.6438 8.91321 16.0101 9.92003 16.35C11.9333 17.0298 14.6604 17.6005 17.8923 17.6005ZM17.8921 18.7489H17.8539H17.8157H17.7776H17.7396H17.7015H17.6636H17.6257H17.5879H17.5501H17.5123H17.4747H17.4371H17.3995H17.3621H17.3246H17.2873H17.25H17.2127H17.1755H17.1384H17.1013H17.0644H17.0274H16.9904H16.9536H16.9169H16.8802H16.8435H16.8069H16.7703H16.7339H16.6974H16.661H16.6248H16.5885H16.5523H16.5162H16.4801H16.4441H16.4081H16.3722H16.3364H16.3006H16.2649H16.2292H16.1936H16.1581H16.1226H16.0871H16.0518H16.0164H15.9812H15.946H15.9109H15.8758H15.8408H15.8058H15.771H15.7361H15.7013H15.6666H15.6319H15.5973H15.5628H15.5283H15.4939H15.4595H15.4251H15.3909H15.3567H15.3226H15.2885H15.2545H15.2205H15.1867H15.1528H15.119H15.0853H15.0516H15.0181H14.9845H14.951H14.9176H14.8842H14.8509H14.8177H14.7845H14.7513H14.7182H14.6852H14.6523H14.6194H14.5865H14.5538H14.521H14.4883H14.4557H14.4232H14.3908H14.3583H14.3259H14.2936H14.2614H14.2292H14.1971H14.165H14.133H14.101H14.0691H14.0373H14.0055H13.9738H13.9421H13.9105H13.879H13.8475H13.8161H13.7847H13.7534H13.7221H13.6909H13.6598H13.6288H13.5978H13.5668H13.5359H13.5051H13.4743H13.4436H13.4129H13.3823H13.3518H13.3213H13.2909H13.2606H13.2303H13.2H13.1699H13.1397H13.1096H13.0796H13.0497H13.0198H12.99H12.9602H12.9305H12.9009H12.8713H12.8417H12.8122H12.7828H12.7535H12.7242H12.695H12.6658H12.6367H12.6076H12.5786H12.5497H12.5208H12.4919H12.4632H12.4345H12.4059H12.3773H12.3487H12.3203H12.2919H12.2635H12.2353H12.207H12.1789H12.1507H12.1227H12.0947H12.0667H12.0389H12.0111H11.9833H11.9556H11.928H11.9004H11.8729H11.8454H11.8181H11.7907H11.7634H11.7361H11.709H11.6819H11.6549H11.6279H11.6009H11.5741H11.5473H11.5205H11.4938H11.4672H11.4407H11.4141H11.3877H11.3613H11.335H11.3087H11.2825H11.2564H11.2303H11.2042H11.1783H11.1523H11.1265H11.1007H11.075H11.0493H11.0237H10.9981H10.9726H10.9472H10.9218H10.8965H10.8712H10.846H10.8208H10.7958H10.7708H10.7458H10.7209H10.6961H10.6713H10.6465H10.6218H10.5973H10.5728H10.5482H10.5238H10.4994H10.4751H10.4509H10.4267H10.4026H10.3785H10.3545H10.3305H10.3066H10.2828H10.259H10.2353H10.2117H10.1881H10.1646H10.1411H10.1177H10.0943H10.0711H10.0478H10.0246H10.0015H9.97843H9.95544H9.93252H9.90961H9.88684H9.86407H9.84138H9.81868H9.79614H9.77359H9.75112H9.72872H9.7064H9.68415H9.66189H9.63972H9.61761H9.59559H9.57363H9.55168H9.52987H9.50806H9.48626H9.4646H9.44301H9.42143H9.39992H9.37848H9.35711H9.33575H9.31446H9.29332H9.2721H9.25104H9.23004H9.20905H9.18813H9.16728H9.14651H9.12581H9.10511H9.08449H9.06394H9.04346H9.02306H9.00266H8.9824H8.96215H8.94197H8.92179H8.90175H8.88172H8.86176H8.84188H8.82207H8.80226H8.78259H8.76293H8.74334H8.72382H8.70431H8.68494H8.66557H8.64628H8.62706H8.60784H8.58877H8.5697H8.5507H8.53178H8.51293H8.49408H8.47537H8.45667H8.43804H8.41949H8.40093H8.38253H8.36412H8.34579H8.32753H8.30927H8.29116H8.27305H8.25501H8.23705H8.21916H8.20127H8.18346H8.16579H8.14805H8.13045H8.11293H8.09541H8.07797H8.0606H8.0433H8.02608H8.00885H7.9917H7.97463H7.95762H7.9407H7.92377H7.90699H7.89021H7.8735H7.85687H7.84024H7.82375H7.80727H7.79086H7.77452H7.75818H7.74199H7.7258H7.70969H7.69365H7.67761H7.66171H7.64582H7.63H7.61426H7.59858H7.58299H7.56739H7.55187H7.53642H7.52104H7.50574H7.49044H7.47521H7.46013H7.44497H7.42997H7.41504H7.4001H7.38526H7.37047H7.35574H7.34108H7.32647H7.31193H7.29744H7.28302H7.26865H7.25434H7.2401H7.22591H7.2118H7.19773H7.18373H7.16979H7.1559H7.14208H7.12831H7.11461H7.10097H7.08739H7.07387H7.06041H7.04701H7.03367H7.02039H7.00717H6.99401H6.98091H6.96788H6.95489H6.94197H6.92912H6.91632H6.90358H6.89091H6.87829H6.86574H6.85324H6.8408H6.82843H6.81612H6.80386H6.79167H6.77954H6.76746H6.75545H6.7435H6.73161H6.71978H6.70801H6.6963H6.68465H6.67306H6.66153H6.65006H6.63866H6.62731H6.61602H6.60479H6.59363H6.58252H6.57148H6.56049H6.54956H6.53871H6.5279H6.51716H6.50648H6.49585H6.4853H6.47479H6.46436H6.45398H6.44366H6.4334H6.4232H6.41306H6.40299H6.39297H6.38301H6.37312H6.36328H6.35351H6.3438H6.33414H6.32455H6.31502H6.30555H6.29614H6.28679H6.2775H6.26827H6.2591H6.25H6.24095H6.23196H6.22304H6.21417H6.20536H6.19662H6.18794H6.17931H6.17075H6.16225H6.15381H6.14543H6.13711H6.12885H6.12065H6.11252H6.10444H6.09642H6.08847H6.08057H6.07275H6.06497V19.3462H6.07275H6.08057H6.08847H6.09642H6.10444H6.11252H6.12065H6.12885H6.13711H6.14543H6.15381H6.16225H6.17075H6.17931H6.18794H6.19662H6.20536H6.21417H6.22304H6.23196H6.24095H6.25H6.2591H6.26827H6.2775H6.28679H6.29614H6.30555H6.31502H6.32455H6.33414H6.3438H6.35351H6.36328H6.37312H6.38301H6.39297H6.40299H6.41306H6.4232H6.4334H6.44366H6.45398H6.46436H6.47479H6.4853H6.49585H6.50648H6.51716H6.5279H6.53871H6.54956H6.56049H6.57148H6.58252H6.59363H6.60479H6.61602H6.62731H6.63866H6.65006H6.66153H6.67306H6.68465H6.6963H6.70801H6.71978H6.73161H6.7435H6.75545H6.76746H6.77954H6.79167H6.80386H6.81612H6.82843H6.8408H6.85324H6.86574H6.87829H6.89091H6.90358H6.91632H6.92912H6.94197H6.95489H6.96788H6.98091H6.99401H7.00717H7.02039H7.03367H7.04701H7.06041H7.07387H7.08739H7.10097H7.11461H7.12831H7.14208H7.1559H7.16979H7.18373H7.19773H7.2118H7.22591H7.2401H7.25434H7.26865H7.28302H7.29744H7.31193H7.32647H7.34108H7.35574H7.37047H7.38526H7.4001H7.41504H7.42997H7.44497H7.46013H7.47521H7.49044H7.50574H7.52104H7.53642H7.55187H7.56739H7.58299H7.59858H7.61426H7.63H7.64582H7.66171H7.67761H7.69365H7.70969H7.7258H7.74199H7.75818H7.77452H7.79086H7.80727H7.82375H7.84024H7.85687H7.8735H7.89021H7.90699H7.92377H7.9407H7.95762H7.97463H7.9917H8.00885H8.02608H8.0433H8.0606H8.07797H8.09541H8.11293H8.13045H8.14805H8.16579H8.18346H8.20127H8.21916H8.23705H8.25501H8.27305H8.29116H8.30927H8.32753H8.34579H8.36412H8.38253H8.40093H8.41949H8.43804H8.45667H8.47537H8.49408H8.51293H8.53178H8.5507H8.5697H8.58877H8.60784H8.62706H8.64628H8.66557H8.68494H8.70431H8.72382H8.74334H8.76293H8.78259H8.80226H8.82207H8.84188H8.86176H8.88172H8.90175H8.92179H8.94197H8.96215H8.9824H9.00266H9.02306H9.04346H9.06394H9.08449H9.10511H9.12581H9.14651H9.16728H9.18813H9.20905H9.23004H9.25104H9.2721H9.29332H9.31446H9.33575H9.35711H9.37848H9.39992H9.42143H9.44301H9.4646H9.48626H9.50806H9.52987H9.55168H9.57363H9.59559H9.61761H9.63972H9.66189H9.68415H9.7064H9.72872H9.75112H9.77359H9.79614H9.81868H9.84138H9.86407H9.88684H9.90961H9.93252H9.95544H9.97843H10.0015H10.0246H10.0478H10.0711H10.0943H10.1177H10.1411H10.1646H10.1881H10.2117H10.2353H10.259H10.2828H10.3066H10.3305H10.3545H10.3785H10.4026H10.4267H10.4509H10.4751H10.4994H10.5238H10.5482H10.5728H10.5973H10.6218H10.6465H10.6713H10.6961H10.7209H10.7458H10.7708H10.7958H10.8208H10.846H10.8712H10.8965H10.9218H10.9472H10.9726H10.9981H11.0237H11.0493H11.075H11.1007H11.1265H11.1523H11.1783H11.2042H11.2303H11.2564H11.2825H11.3087H11.335H11.3613H11.3877H11.4141H11.4407H11.4672H11.4938H11.5205H11.5473H11.5741H11.6009H11.6279H11.6549H11.6819H11.709H11.7361H11.7634H11.7907H11.8181H11.8454H11.8729H11.9004H11.928H11.9556H11.9833H12.0111H12.0389H12.0667H12.0947H12.1227H12.1507H12.1789H12.207H12.2353H12.2635H12.2919H12.3203H12.3487H12.3773H12.4059H12.4345H12.4632H12.4919H12.5208H12.5497H12.5786H12.6076H12.6367H12.6658H12.695H12.7242H12.7535H12.7828H12.8122H12.8417H12.8713H12.9009H12.9305H12.9602H12.99H13.0198H13.0497H13.0796H13.1096H13.1397H13.1699H13.2H13.2303H13.2606H13.2909H13.3213H13.3518H13.3823H13.4129H13.4436H13.4743H13.5051H13.5359H13.5668H13.5978H13.6288H13.6598H13.6909H13.7221H13.7534H13.7847H13.8161H13.8475H13.879H13.9105H13.9421H13.9738H14.0055H14.0373H14.0691H14.101H14.133H14.165H14.1971H14.2292H14.2614H14.2936H14.3259H14.3583H14.3908H14.4232H14.4557H14.4883H14.521H14.5538H14.5865H14.6194H14.6523H14.6852H14.7182H14.7513H14.7845H14.8177H14.8509H14.8842H14.9176H14.951H14.9845H15.0181H15.0516H15.0853H15.119H15.1528H15.1867H15.2205H15.2545H15.2885H15.3226H15.3567H15.3909H15.4251H15.4595H15.4939H15.5283H15.5628H15.5973H15.6319H15.6666H15.7013H15.7361H15.771H15.8058H15.8408H15.8758H15.9109H15.946H15.9812H16.0164H16.0518H16.0871H16.1226H16.1581H16.1936H16.2292H16.2649H16.3006H16.3364H16.3722H16.4081H16.4441H16.4801H16.5162H16.5523H16.5885H16.6248H16.661H16.6974H16.7339H16.7703H16.8069H16.8435H16.8802H16.9169H16.9536H16.9904H17.0274H17.0644H17.1013H17.1384H17.1755H17.2127H17.25H17.2873H17.3246H17.3621H17.3995H17.4371H17.4747H17.5123H17.5501H17.5879H17.6257H17.6636H17.7015H17.7396H17.7776H17.8157H17.8539H17.8921H17.9304H17.9686H18.0066H18.0447H18.0827H18.1206H18.1584H18.1962H18.2339H18.2715H18.3091H18.3465H18.3839H18.4214H18.4586H18.4959H18.533H18.5701H18.6071H18.6441H18.681H18.7178H18.7545H18.7913H18.8278H18.8644H18.9009H18.9373H18.9736H19.0099H19.0461H19.0823H19.1184H19.1544H19.1904H19.2263H19.2621H19.2978H19.3336H19.3692H19.4047H19.4402H19.4756H19.511H19.5463H19.5815H19.6167H19.6518H19.6868H19.7218H19.7567H19.7915H19.8262H19.861H19.8956H19.9302H19.9647H19.9991H20.0335H20.0678H20.102H20.1363H20.1703H20.2044H20.2384H20.2723H20.3061H20.34H20.3737H20.4073H20.441H20.4745H20.5079H20.5414H20.5747H20.608H20.6412H20.6743H20.7075H20.7404H20.7734H20.8063H20.8391H20.8719H20.9046H20.9373H20.9698H21.0023H21.0348H21.0672H21.0995H21.1318H21.1639H21.1961H21.2282H21.2602H21.2921H21.324H21.3558H21.3875H21.4192H21.4508H21.4824H21.5139H21.5454H21.5767H21.6081H21.6392H21.6704H21.7016H21.7327H21.7637H21.7946H21.8255H21.8563H21.887H21.9177H21.9483H21.9789H22.0095H22.0398H22.0702H22.1005H22.1308H22.161H22.1912H22.2212H22.2513H22.2812H22.3111H22.3408H22.3706H22.4004H22.43H22.4596H22.4891H22.5186H22.5479H22.5772H22.6065H22.6358H22.6649H22.694H22.723H22.752H22.7809H22.8097H22.8386H22.8673H22.8959H22.9245H22.9531H22.9816H23.0101H23.0384H23.0667H23.0949H23.1232H23.1512H23.1793H23.2074H23.2353H23.2632H23.291H23.3188H23.3465H23.3741H23.4017H23.4293H23.4567H23.4841H23.5115H23.5387H23.566H23.5932H23.6203H23.6473H23.6744H23.7013H23.7282H23.755H23.7817H23.8085H23.8351H23.8617H23.8883H23.9147H23.9411H23.9675H23.9937H24.02H24.0461H24.0723H24.0983H24.1244H24.1503H24.1762H24.2021H24.2278H24.2535H24.2792H24.3048H24.3303H24.3558H24.3812H24.4066H24.4319H24.4572H24.4824H24.5075H24.5326H24.5576H24.5826H24.6075H24.6324H24.6571H24.6819H24.7066H24.7312H24.7557H24.7803H24.8047H24.8291H24.8535H24.8778H24.902H24.9262H24.9503H24.9743H24.9983H25.0223H25.0462H25.07H25.0938H25.1175H25.1412H25.1648H25.1884H25.2119H25.2353H25.2587H25.2821H25.3053H25.3285H25.3517H25.3748H25.3979H25.4209H25.4438H25.4667H25.4895H25.5123H25.5351H25.5577H25.5803H25.6029H25.6254H25.6479H25.6703H25.6926H25.7149H25.7371H25.7593H25.7814H25.8035H25.8255H25.8475H25.8694H25.8912H25.913H25.9348H25.9564H25.9781H25.9997H26.0212H26.0427H26.0641H26.0854H26.1068H26.128H26.1492H26.1704H26.1915H26.2125H26.2335H26.2545H26.2753H26.2962H26.317H26.3377H26.3584H26.379H26.3995H26.4201H26.4405H26.4609H26.4813H26.5015H26.5218H26.5421H26.5622H26.5823H26.6023H26.6223H26.6422H26.6621H26.6819H26.7017H26.7215H26.7411H26.7607H26.7803H26.7998H26.8193H26.8387H26.8581H26.8774H26.8967H26.9158H26.935H26.9541H26.9732H26.9922H27.0111H27.03H27.0489H27.0676H27.0864H27.105H27.1237H27.1423H27.1609H27.1793H27.1978H27.2161H27.2345H27.2528H27.271H27.2892H27.3074H27.3254H27.3434H27.3615H27.3794H27.3973H27.4151H27.4329H27.4506H27.4683H27.4859H27.5035H27.5211H27.5385H27.556H27.5733H27.5906H27.6079H27.6252H27.6424H27.6595H27.6766H27.6936H27.7106H27.7275H27.7445H27.7612H27.7781H27.7948H27.8115H27.8281H27.8447H27.8613H27.8777H27.8942H27.9106H27.927H27.9432H27.9595H27.9758H27.9919H28.008H28.024H28.0401H28.056H28.0719H28.0878H28.1037H28.1194H28.1351H28.1508H28.1664H28.182H28.1975H28.213H28.2284H28.2438H28.2592H28.2745H28.2897H28.3049H28.32H28.3352H28.3502H28.3652H28.3802H28.3951H28.41H28.4248H28.4396H28.4543H28.469H28.4836H28.4982H28.5127H28.5272H28.5416H28.5561H28.5704H28.5847H28.599H28.6132H28.6273H28.6415H28.6556H28.6696H28.6836H28.6975H28.7114H28.7253H28.739H28.7528H28.7665H28.7802H28.7938H28.8073H28.8208H28.8344H28.8478H28.8611H28.8745H28.8878H28.901H28.9143H28.9274H28.9405H28.9536H28.9666H28.9796H28.9926H29.0054H29.0183H29.0311H29.0439H29.0566H29.0692H29.0819H29.0944H29.107H29.1195H29.1319H29.1443H29.1567H29.169H29.1813H29.1935H29.2057H29.2178H29.2299H29.242H29.254H29.2659H29.2778H29.2897H29.3016H29.3133H29.3251H29.3367H29.3484H29.36H29.3716H29.3832H29.3946H29.4061H29.4175H29.4289H29.4402H29.4514H29.4626H29.4738H29.485H29.496H29.5071H29.5181H29.5291H29.54H29.5509H29.5618H29.5726H29.5833H29.5941H29.6047H29.6154H29.6259H29.6365H29.647H29.6575H29.6679H29.6783H29.6886H29.6989H29.7092H29.7194V18.7489H29.7092H29.6989H29.6886H29.6783H29.6679H29.6575H29.647H29.6365H29.6259H29.6154H29.6047H29.5941H29.5833H29.5726H29.5618H29.5509H29.54H29.5291H29.5181H29.5071H29.496H29.485H29.4738H29.4626H29.4514H29.4402H29.4289H29.4175H29.4061H29.3946H29.3832H29.3716H29.36H29.3484H29.3367H29.3251H29.3133H29.3016H29.2897H29.2778H29.2659H29.254H29.242H29.2299H29.2178H29.2057H29.1935H29.1813H29.169H29.1567H29.1443H29.1319H29.1195H29.107H29.0944H29.0819H29.0692H29.0566H29.0439H29.0311H29.0183H29.0054H28.9926H28.9796H28.9666H28.9536H28.9405H28.9274H28.9143H28.901H28.8878H28.8745H28.8611H28.8478H28.8344H28.8208H28.8073H28.7938H28.7802H28.7665H28.7528H28.739H28.7253H28.7114H28.6975H28.6836H28.6696H28.6556H28.6415H28.6273H28.6132H28.599H28.5847H28.5704H28.5561H28.5416H28.5272H28.5127H28.4982H28.4836H28.469H28.4543H28.4396H28.4248H28.41H28.3951H28.3802H28.3652H28.3502H28.3352H28.32H28.3049H28.2897H28.2745H28.2592H28.2438H28.2284H28.213H28.1975H28.182H28.1664H28.1508H28.1351H28.1194H28.1037H28.0878H28.0719H28.056H28.0401H28.024H28.008H27.9919H27.9758H27.9595H27.9432H27.927H27.9106H27.8942H27.8777H27.8613H27.8447H27.8281H27.8115H27.7948H27.7781H27.7612H27.7445H27.7275H27.7106H27.6936H27.6766H27.6595H27.6424H27.6252H27.6079H27.5906H27.5733H27.556H27.5385H27.5211H27.5035H27.4859H27.4683H27.4506H27.4329H27.4151H27.3973H27.3794H27.3615H27.3434H27.3254H27.3074H27.2892H27.271H27.2528H27.2345H27.2161H27.1978H27.1793H27.1609H27.1423H27.1237H27.105H27.0864H27.0676H27.0489H27.03H27.0111H26.9922H26.9732H26.9541H26.935H26.9158H26.8967H26.8774H26.8581H26.8387H26.8193H26.7998H26.7803H26.7607H26.7411H26.7215H26.7017H26.6819H26.6621H26.6422H26.6223H26.6023H26.5823H26.5622H26.5421H26.5218H26.5015H26.4813H26.4609H26.4405H26.4201H26.3995H26.379H26.3584H26.3377H26.317H26.2962H26.2753H26.2545H26.2335H26.2125H26.1915H26.1704H26.1492H26.128H26.1068H26.0854H26.0641H26.0427H26.0212H25.9997H25.9781H25.9564H25.9348H25.913H25.8912H25.8694H25.8475H25.8255H25.8035H25.7814H25.7593H25.7371H25.7149H25.6926H25.6703H25.6479H25.6254H25.6029H25.5803H25.5577H25.5351H25.5123H25.4895H25.4667H25.4438H25.4209H25.3979H25.3748H25.3517H25.3285H25.3053H25.2821H25.2587H25.2353H25.2119H25.1884H25.1648H25.1412H25.1175H25.0938H25.07H25.0462H25.0223H24.9983H24.9743H24.9503H24.9262H24.902H24.8778H24.8535H24.8291H24.8047H24.7803H24.7557H24.7312H24.7066H24.6819H24.6571H24.6324H24.6075H24.5826H24.5576H24.5326H24.5075H24.4824H24.4572H24.4319H24.4066H24.3812H24.3558H24.3303H24.3048H24.2792H24.2535H24.2278H24.2021H24.1762H24.1503H24.1244H24.0983H24.0723H24.0461H24.02H23.9937H23.9675H23.9411H23.9147H23.8883H23.8617H23.8351H23.8085H23.7817H23.755H23.7282H23.7013H23.6744H23.6473H23.6203H23.5932H23.566H23.5387H23.5115H23.4841H23.4567H23.4293H23.4017H23.3741H23.3465H23.3188H23.291H23.2632H23.2353H23.2074H23.1793H23.1512H23.1232H23.0949H23.0667H23.0384H23.0101H22.9816H22.9531H22.9245H22.8959H22.8673H22.8386H22.8097H22.7809H22.752H22.723H22.694H22.6649H22.6358H22.6065H22.5772H22.5479H22.5186H22.4891H22.4596H22.43H22.4004H22.3706H22.3408H22.3111H22.2812H22.2513H22.2212H22.1912H22.161H22.1308H22.1005H22.0702H22.0398H22.0095H21.9789H21.9483H21.9177H21.887H21.8563H21.8255H21.7946H21.7637H21.7327H21.7016H21.6704H21.6392H21.6081H21.5767H21.5454H21.5139H21.4824H21.4508H21.4192H21.3875H21.3558H21.324H21.2921H21.2602H21.2282H21.1961H21.1639H21.1318H21.0995H21.0672H21.0348H21.0023H20.9698H20.9373H20.9046H20.8719H20.8391H20.8063H20.7734H20.7404H20.7075H20.6743H20.6412H20.608H20.5747H20.5414H20.5079H20.4745H20.441H20.4073H20.3737H20.34H20.3061H20.2723H20.2384H20.2044H20.1703H20.1363H20.102H20.0678H20.0335H19.9991H19.9647H19.9302H19.8956H19.861H19.8262H19.7915H19.7567H19.7218H19.6868H19.6518H19.6167H19.5815H19.5463H19.511H19.4756H19.4402H19.4047H19.3692H19.3336H19.2978H19.2621H19.2263H19.1904H19.1544H19.1184H19.0823H19.0461H19.0099H18.9736H18.9373H18.9009H18.8644H18.8278H18.7913H18.7545H18.7178H18.681H18.6441H18.6071H18.5701H18.533H18.4959H18.4586H18.4214H18.3839H18.3465H18.3091H18.2715H18.2339H18.1962H18.1584H18.1206H18.0827H18.0447H18.0066H17.9686H17.9304H17.8921ZM9.46726 23.6194C11.6121 22.2165 14.558 21.0395 17.8923 21.0395C21.2269 21.0395 24.1519 22.2167 26.2861 23.6198C27.3536 24.3215 28.2287 25.0833 28.8623 25.7899C29.486 26.4854 29.9066 27.1616 30.0097 27.6944L29.4293 27.8089C29.3583 27.4419 29.03 26.8666 28.424 26.1909C27.828 25.5263 26.9928 24.7971 25.9635 24.1204C23.9042 22.7667 21.0896 21.6369 17.8923 21.6369C14.6946 21.6369 11.8586 22.7669 9.78867 24.1208C8.75399 24.7976 7.91667 25.5264 7.32522 26.1902C6.72245 26.8667 6.40959 27.4369 6.35695 27.7955L5.77197 27.7078C5.85142 27.1666 6.26658 26.4854 6.88567 25.7906C7.51609 25.0831 8.39443 24.3211 9.46726 23.6194ZM17.8923 19.8911C14.5922 19.8911 11.8019 20.4738 9.73256 21.1725C8.69803 21.5218 7.84127 21.9009 7.18934 22.2524C6.54659 22.599 6.07799 22.932 5.84363 23.1979L6.2853 23.5952C6.44749 23.4112 6.83915 23.1184 7.46782 22.7793C8.08736 22.4453 8.91321 22.079 9.92003 21.739C11.9334 21.0593 14.6604 20.4884 17.8923 20.4884C24.3652 20.4884 28.5452 22.777 29.5275 23.6238L29.9114 23.1693C28.806 22.2166 24.4834 19.8911 17.8923 19.8911Z" fill="url(#azure-arc:83334ee1-4186-4717-a19c-479ca8f39bee)"/>
</svg>
