<svg data-slug-id="azure-cyclecloud" xmlns="http://www.w3.org/2000/svg" viewBox="0 0 49 49">
<path d="M43.1251 25.8827C43.8056 24.619 44.1945 23.1608 44.1945 21.6053C44.1945 16.3558 39.9171 12.0784 34.6675 12.0784C32.9177 12.0784 31.3623 12.5645 30.0013 13.3422C27.7654 10.3286 24.1685 8.28711 20.1827 8.28711C13.5722 8.28711 8.12827 13.6338 8.12827 20.3416C8.12827 20.8276 8.12827 21.3137 8.22549 21.7998C6.47564 22.2858 5.01744 23.258 3.85088 24.4245C4.33695 25.105 6.37843 27.1465 12.3084 24.9106C16.8775 23.1608 20.4744 20.7304 22.3214 19.3694L20.6688 17.5224L28.057 16.3558L25.7239 23.3552L23.9741 21.3137C21.8354 22.7719 16.5858 26.2716 13.2806 27.7298C9.87811 29.3824 5.60072 29.6741 2.10104 26.8549C1.51776 28.0214 1.12891 29.2852 1.12891 30.6462C2.48989 31.8128 4.82302 33.4654 11.7252 32.2988C19.405 31.035 29.5152 24.7162 32.2372 22.9663L30.779 21.1193L37.8756 20.1471L35.2508 26.9521L33.7926 25.105C30.9734 26.8549 19.8911 33.5626 13.3778 35.118C8.22549 36.3818 4.92023 36.2846 1.61497 34.2431C2.29547 36.3818 3.75367 38.2288 5.60072 39.3954C7.25335 39.5898 9.19762 39.687 11.5307 39.4926C19.1134 39.0065 23.488 37.0623 26.3072 35.6041C27.9598 34.8264 29.7097 33.8542 30.9734 33.271L29.7097 31.5211L37.0007 31.035L34.2787 37.9372L32.7233 35.7013C31.3623 36.479 28.8347 37.7428 26.4044 38.7149C24.9462 39.2982 22.7103 40.1731 20.6688 41.048C27.9598 41.1452 36.709 41.3397 39.5282 41.3397C44 41.3397 47.6941 37.6456 47.6941 33.1737C47.6941 29.9657 45.8471 27.1465 43.1251 25.8827Z" fill="#0078D4"/>
</svg>
