<svg data-slug-id="azure-repos" xmlns="http://www.w3.org/2000/svg" viewBox="0 0 49 49">
    <path d="M36.7006 0.0195312H11.7882C10.8273 0.0195312 10.0547 0.792164 10.0547 1.753V7.42888H38.4341V1.753C38.4341 0.792164 37.6615 0.0195312 36.7006 0.0195312Z" fill="#BC3200"/>
    <path d="M39.6342 3.48828H8.85767C7.47089 3.48828 6.35156 4.60761 6.35156 5.99439V7.96559H42.1403V5.99439C42.1403 4.60761 41.021 3.48828 39.6342 3.48828Z" fill="#D13600"/>
    <path d="M43.24 7.04297H5.2522C3.86542 7.04297 2.74609 8.1623 2.74609 9.54907V45.2289C2.74609 46.6156 3.87533 47.7449 5.2621 47.7449H43.2301C44.6169 47.7449 45.7461 46.6156 45.7461 45.2289V9.54907C45.7461 8.1623 44.6268 7.04297 43.24 7.04297Z" fill="#E15815"/>
    <path d="M15.4346 10.7188C12.7998 10.7188 10.6602 12.8583 10.6602 15.4932C10.6602 18.1281 12.7998 20.2677 15.4346 20.2677C18.0695 20.2677 20.2091 18.1281 20.2091 15.4932C20.2091 12.8583 18.0695 10.7188 15.4346 10.7188ZM15.4346 18.5838C13.721 18.5838 12.3342 17.197 12.3342 15.4833C12.3342 13.7697 13.721 12.3829 15.4346 12.3829C17.1483 12.3829 18.5351 13.7697 18.5351 15.4833C18.5351 17.197 17.1483 18.5838 15.4346 18.5838Z" fill="#FFB290"/>
    <path d="M17.2277 19.75H13.6914V29.4277H17.2277V19.75Z" fill="#FFB290"/>
    <path d="M38.1103 15.5596C38.1103 12.9248 35.9707 10.7852 33.3358 10.7852C30.7009 10.7852 28.5613 12.9248 28.5613 15.5596C28.5613 17.5903 29.8292 19.3237 31.6221 20.0171V23.2959L13.6931 29.2194H13.6634V35.2915C11.9101 35.9948 10.6719 37.7183 10.6719 39.7193C10.6719 42.3541 12.8115 44.4937 15.4464 44.4937C18.0812 44.4937 20.2208 42.3541 20.2208 39.7193C20.2208 37.7382 19.0123 36.0344 17.2987 35.3113V31.5472L35.1287 25.6534L35.0891 25.584H35.1287V19.9775C36.8721 19.2742 38.1103 17.5606 38.1103 15.5596ZM18.5369 39.7292C18.5369 41.4428 17.1501 42.8296 15.4364 42.8296C13.7228 42.8296 12.336 41.4428 12.336 39.7292C12.336 38.0155 13.7228 36.6287 15.4364 36.6287C17.1501 36.6287 18.5369 38.0155 18.5369 39.7292ZM33.3358 18.6502C31.6221 18.6502 30.2353 17.2634 30.2353 15.5497C30.2353 13.8361 31.6221 12.4493 33.3358 12.4493C35.0494 12.4493 36.4362 13.8361 36.4362 15.5497C36.4362 17.2634 35.0395 18.6502 33.3358 18.6502Z" fill="#FFDBCA"/>
</svg>
