<svg data-slug-id="azure-hdinsight" xmlns="http://www.w3.org/2000/svg" viewBox="0 0 36 48">
    <rect width="36" height="48" rx="4" fill="#0078D4"/>
    <path d="M24.0162 24.4746C25.1039 24.4746 26.0984 24.7543 26.9996 25.2826V25.2515L24.327 20.59H22.2137C22.2137 21.4601 21.903 22.3303 21.3125 22.9829L22.307 24.6921C22.8353 24.5367 23.4257 24.4746 24.0162 24.4746Z" fill="white"/>
    <path d="M12.9523 26.713C13.1388 26.6819 13.3563 26.6819 13.5428 26.713L14.444 25.1592L15.7182 22.9216C15.1277 22.269 14.8169 21.4299 14.8169 20.5598H12.6726L10 25.2213L11.1499 27.2102C11.7092 26.8995 12.3308 26.713 12.9523 26.713Z" fill="white"/>
    <path d="M17.0238 23.9464L15.0659 27.3649C15.905 27.9553 16.4955 28.8566 16.6198 29.8821H18.0804C18.2358 27.9864 19.2924 26.3704 20.8152 25.407L19.9761 23.9464C19.0438 24.3815 17.9561 24.3815 17.0238 23.9464Z" fill="white"/>
    <path d="M18.1742 31.4678H16.496C16.2163 32.369 15.6259 33.1149 14.8179 33.581L15.8123 35.3213H20.6604C19.3862 34.4512 18.4539 33.0838 18.1742 31.4678Z" fill="white"/>
    <path d="M19.7806 21.8895C20.4966 21.1734 20.4966 20.0125 19.7806 19.2965C19.0646 18.5804 17.9036 18.5804 17.1876 19.2965C16.4716 20.0125 16.4716 21.1734 17.1876 21.8895C17.9036 22.6055 19.0646 22.6055 19.7806 21.8895Z" fill="white"/>
    <path d="M24.4391 32.1924C25.4246 31.9597 26.0349 30.9721 25.8022 29.9866C25.5695 29.0011 24.5819 28.3909 23.5964 28.6236C22.6109 28.8563 22.0007 29.8438 22.2334 30.8293C22.4661 31.8148 23.4536 32.4251 24.4391 32.1924Z" fill="white"/>
    <path d="M14.2547 31.714C14.9708 30.998 14.9708 29.8371 14.2547 29.121C13.5387 28.405 12.3778 28.405 11.6617 29.121C10.9457 29.8371 10.9457 30.998 11.6617 31.714C12.3778 32.4301 13.5387 32.4301 14.2547 31.714Z" fill="white"/>
    <path d="M22.2759 24.7238L22.5866 25.2521L23.4879 26.8059C23.6743 26.7749 23.8608 26.7749 24.0473 26.8059C24.6999 26.8059 25.3214 26.9924 25.8808 27.3032L26.9685 25.2832C26.0984 24.7859 25.0728 24.4752 23.9851 24.4752C23.4257 24.4752 22.8353 24.5373 22.2759 24.7238Z" fill="white"/>
    <path d="M20.6598 35.3213H21.126L22.1204 33.6121C21.3124 33.1459 20.722 32.369 20.4734 31.4678H18.1426C18.4533 33.0838 19.3857 34.4512 20.6598 35.3213Z" fill="white"/>
    <path d="M18.0815 29.8824H20.3502C20.5056 28.8568 21.0649 27.9556 21.9351 27.3651L20.7852 25.4073C19.2935 26.3707 18.268 27.9867 18.0815 29.8824Z" fill="white"/>
    <path d="M5 0H13V15L9 13L5 15V0Z" fill="#50E6FF"/>
</svg>
