<svg data-slug-id="azure-pipelines" xmlns="http://www.w3.org/2000/svg" viewBox="0 0 49 49">
    <path d="M16.7687 42.0936L23.2606 48.5855H33.7966C35.0806 48.5855 36.1126 47.5415 36.1126 46.2695V21.9336L16.7687 41.2896C16.5407 41.5056 16.5407 41.8656 16.7687 42.0936Z" fill="#235DC1"/>
    <path d="M0.246094 15.0389V25.5749L6.73808 32.0669C6.96608 32.2949 7.32608 32.2949 7.54208 32.0669L26.898 12.7109H2.56209C1.29009 12.7109 0.246094 13.7549 0.246094 15.0389Z" fill="#3B6EC6"/>
    <path d="M24.6056 3.24096L8.98161 27.1449C8.45362 27.9609 8.56161 29.0289 9.24561 29.7129L19.2536 39.7209C19.9376 40.4049 21.0176 40.5129 21.8216 39.9849L45.7255 24.3489C47.2495 23.3529 48.1615 21.6489 48.1615 19.8369V3.16896C48.1615 1.86097 47.0935 0.792969 45.7855 0.792969H29.1296C27.3056 0.792969 25.6136 1.71697 24.6056 3.24096Z" fill="#5D8DE4"/>
    <path d="M3.76209 45.2995V36.8516H0.246094V48.6355H12.2101V45.2995H3.76209Z" fill="#9FBBF0"/>
    <path d="M36.1707 18.5016C39.4579 18.5016 42.1227 15.8368 42.1227 12.5496C42.1227 9.26245 39.4579 6.59766 36.1707 6.59766C32.8835 6.59766 30.2188 9.26245 30.2188 12.5496C30.2188 15.8368 32.8835 18.5016 36.1707 18.5016Z" fill="#ADC5F2"/>
    <path d="M25.5168 20.5261L12.7891 33.2539L15.7249 36.1898L28.4527 23.462L25.5168 20.5261Z" fill="#6C9AEE"/>
    <path d="M13.1902 38.7239L15.7188 36.1953L12.7829 33.2594L10.2543 35.788L13.1902 38.7239Z" fill="#88ACEF"/>
</svg>
