<svg data-slug-id="azure-artifacts" xmlns="http://www.w3.org/2000/svg" viewBox="0 0 49 49">
    <path d="M18.4024 48.3047H2.33952C1.18863 48.3047 0.246094 47.3618 0.246094 46.2005V26.399C0.246094 25.2377 1.18863 24.3047 2.33952 24.3047H18.4024V48.3047Z" fill="#B41055"/>
    <path d="M46.1928 48.3047H39.3867V24.3047H46.1928C47.3239 24.3047 48.2466 25.2278 48.2466 26.3593V46.2501C48.2466 47.3816 47.3239 48.3047 46.1928 48.3047Z" fill="#E86299"/>
    <path d="M18.5505 48.3047H40.3182V24.3047H16.3281V46.0814C16.3281 47.3022 17.3203 48.3047 18.5505 48.3047Z" fill="#F173A7"/>
    <path d="M38.1363 0.304688H10.5944C9.40379 0.304688 8.44141 1.26747 8.44141 2.45853V24.3047H40.2893V2.45853C40.2893 1.26747 39.3269 0.304688 38.1363 0.304688Z" fill="#C12664"/>
    <path d="M32.3025 0.304688H10.5944C9.40379 0.304688 8.44141 1.26747 8.44141 2.45853V24.3047H32.3025V0.304688Z" fill="#CF3071"/>
    <path d="M22.4599 8.24366H18.2929C17.2015 8.24366 16.3086 7.35036 16.3086 6.25855C16.3086 5.16674 17.2015 4.27344 18.2929 4.27344H22.4599C23.5513 4.27344 24.4442 5.16674 24.4442 6.25855C24.4442 7.35036 23.5612 8.24366 22.4599 8.24366Z" fill="#B5205C"/>
    <path d="M32.251 38.2891H20.375V40.3238H32.251V38.2891Z" fill="#FE90BE"/>
    <path d="M27.1315 42.3281H20.375V44.3629H27.1315V42.3281Z" fill="#FE90BE"/>
    <path d="M30.3192 32.3634H26.3605C25.2196 32.3634 24.2969 31.4403 24.2969 30.2989C24.2969 29.1575 25.2196 28.2344 26.3605 28.2344H30.3192C31.4602 28.2344 32.3829 29.1575 32.3829 30.2989C32.3829 31.4403 31.4602 32.3634 30.3192 32.3634Z" fill="#CB2E6F"/>
    <path d="M14.2137 32.3634H10.2551C9.1141 32.3634 8.19141 31.4403 8.19141 30.2989C8.19141 29.1575 9.1141 28.2344 10.2551 28.2344H14.2137C15.3547 28.2344 16.2774 29.1575 16.2774 30.2989C16.2774 31.4403 15.3547 32.3634 14.2137 32.3634Z" fill="#900740"/>
</svg>
