<svg data-slug-id="bar-graph-human" xmlns="http://www.w3.org/2000/svg" viewBox="0 0 72 73">
<path d="M15.1578 18.9492H0V72.0016H15.1578V18.9492Z" fill="#50E6FF"/>
<path d="M34.1041 0H18.9462V71.9997H34.1041V0Z" fill="#50E6FF"/>
<path d="M53.0532 18.9492H37.8954V72.0016H53.0532V18.9492Z" fill="#50E6FF"/>
<path d="M71.9994 45.4744H56.8416V72.0006H71.9994V45.4744Z" fill="#50E6FF"/>
<path d="M18.9462 72.0016C18.9462 67.479 20.7428 63.1416 23.9408 59.9436C27.1388 56.7456 31.4762 54.949 35.9988 54.949C40.5214 54.949 44.8588 56.7456 48.0568 59.9436C51.2547 63.1416 53.0513 67.479 53.0513 72.0016H18.9462Z" fill="#0078D4"/>
<path d="M35.9997 53.0503C40.1854 53.0503 43.5786 49.6571 43.5786 45.4714C43.5786 41.2857 40.1854 37.8925 35.9997 37.8925C31.814 37.8925 28.4208 41.2857 28.4208 45.4714C28.4208 49.6571 31.814 53.0503 35.9997 53.0503Z" fill="#0078D4"/>
</svg>
