<svg data-slug-id="bar-with-search" xmlns="http://www.w3.org/2000/svg" viewBox="0 0 49 49">
  <path d="M10.5392 28.1592H0.545654V48.2216H10.5392V28.1592Z" fill="#50E6FF"/>
  <path d="M48.1989 13.1436H38.2053V48.213H48.1989V13.1436Z" fill="#0078D4"/>
  <path d="M23.1398 23.124H13.1462V48.2166H23.1398V23.124Z" fill="#50E6FF"/>
  <path d="M35.6652 10.6475H25.6716V48.2153H35.6652V10.6475V10.6475Z" fill="#0078D4"/>
  <path d="M9.37783 12.6201L11.3749 14.6172L4.84061 21.1514L2.84356 19.1544L9.37783 12.6201Z" fill="#0078D4"/>
  <path d="M13.4555 2.54199C17.3911 2.54199 20.5914 5.73393 20.5914 9.67788C20.5914 13.6218 17.3995 16.8138 13.4555 16.8138C9.51158 16.8138 6.31965 13.6218 6.31965 9.67788C6.31965 5.73393 9.51158 2.54199 13.4555 2.54199ZM13.4555 13.9728C15.8286 13.9728 17.7421 12.0509 17.7421 9.68624C17.7421 7.31318 15.8202 5.39969 13.4555 5.39969C11.0908 5.39969 9.16899 7.32154 9.16899 9.68624C9.16899 12.0509 11.0825 13.9728 13.4555 13.9728Z" fill="#0078D4"/>
</svg>
