<svg data-slug-id="blockchain" xmlns="http://www.w3.org/2000/svg" viewBox="0 0 60 61">
    <path fill-rule="evenodd" clip-rule="evenodd" d="M49.2816 32.6187H47.128V34.9401C47.128 35.4061 47.4869 35.7557 47.9655 35.7557H48.4441C48.9226 35.7557 49.2816 35.4061 49.2816 34.9401V32.6187ZM46.5298 32.6187V34.9401C46.5298 35.6974 47.1878 36.3382 47.9655 36.3382H48.4441C49.2217 36.3382 49.8798 35.6974 49.8798 34.9401V32.6187H53.4744L58.38 38.27L57.9599 57.9589L38.0955 58.5414L32.2119 52.0753V32.6187H46.5298Z" fill="#0078D4"/>
    <path fill-rule="evenodd" clip-rule="evenodd" d="M38.0955 27.8404L57.3774 26.8501L58.375 7.5L53.4744 1.85938H32.2119V15.82H34.8696C35.6985 15.82 36.4 16.42 36.4 17.26V17.74C36.4 18.52 35.6985 19.18 34.8696 19.18H32.2119V21.316L38.0955 27.8404ZM32.2119 18.58H34.8696C35.3797 18.58 35.7623 18.22 35.7623 17.74V17.26C35.7623 16.78 35.3797 16.42 34.8696 16.42H32.2119V18.58Z" fill="#0078D4"/>
    <path d="M48.4105 22.7139H47.9444C47.4784 22.7139 47.1289 23.0634 47.1289 23.5294V33.5H49.2843V23.5294C49.226 23.0634 48.8183 22.7139 48.4105 22.7139Z" fill="#0078D4"/>
    <path d="M23.4767 16.4806C23.0107 16.4806 22.6611 16.8301 22.6611 17.2962V17.7622C22.6611 18.2282 23.0107 18.5777 23.4767 18.5777H32.2147V16.4224H23.4767V16.4806Z" fill="#0078D4"/>
    <path d="M39.3771 39.3178L32.6779 32.6187H32.2119V33.2012L38.8528 39.8421L39.3771 39.3178Z" fill="#50E6FF"/>
    <path d="M58.3769 38.2681H37.9883V58.5985H58.3769V38.2681Z" fill="#50E6FF"/>
    <path d="M39.3771 8.55851L32.6779 1.85938H32.2119V2.44191L38.8528 9.08279L39.3771 8.55851Z" fill="#50E6FF"/>
    <path d="M58.3769 7.50879H37.9883V27.8392H58.3769V7.50879Z" fill="#50E6FF"/>
    <path d="M25.514 25.5102L7.39726 27.7821L1.51367 21.316V1.85938H22.7761L27.67 7.5L25.514 25.5102Z" fill="#0078D4"/>
    <path d="M8.67883 8.55851L1.9797 1.85938H1.51367V2.44191L8.15455 9.08279L8.67883 8.55851Z" fill="#50E6FF"/>
    <path d="M27.6689 7.50879H7.28027V27.8392H27.6689V7.50879Z" fill="#50E6FF"/>
    <path fill-rule="evenodd" clip-rule="evenodd" d="M16.6648 40.6559C14.1017 40.6559 12.0046 42.753 12.0046 45.3162C12.0046 46.8307 12.7036 48.1706 13.8687 49.0444L13.8675 49.0464C14.6826 49.6282 15.6141 49.9772 16.6619 49.9772C19.225 49.9772 21.3222 47.8801 21.3222 45.317C21.3222 43.4529 20.2736 41.88 18.7008 41.1227L18.7018 41.121C18.1197 40.8303 17.4213 40.6559 16.6648 40.6559ZM22.9533 34.1364L22.9562 34.1315V33.2577C22.9562 31.3354 20.5678 30.5198 19.3445 31.9762L16.1988 35.2966L12.8201 31.9179C11.5386 30.7528 9.44143 31.6849 9.44143 33.4325V38.5005H3.84911C1.92675 38.5005 0.994699 40.8307 2.33453 42.1705L5.88798 45.3162L2.91706 48.2871C1.46073 49.5687 2.33453 52.0153 4.31514 52.0153H9.44143V56.2638L9.43848 56.2686V56.9676C9.43848 59.0648 12.0016 60.1716 13.5162 58.657L16.2541 55.5113L18.8173 58.0162C20.2736 59.6473 23.0115 58.657 23.0115 56.4434V51.9578H27.9048C29.8271 51.9578 30.7592 49.453 29.1864 48.1714L26.0989 45.2005L29.3611 41.9965C30.5844 40.5984 29.6524 38.4431 27.7883 38.4431H22.9533V34.1364Z" fill="#0078D4"/>
    <path d="M23.4767 16.4806C23.0107 16.4806 22.6611 16.8301 22.6611 17.2962V17.7622C22.6611 18.2282 23.0107 18.5777 23.4767 18.5777H27.7292V16.4224H23.4767V16.4806Z" fill="#0078D4" fill-opacity="0.4"/>
    <path d="M49.226 23.5294C49.226 23.0634 48.8765 22.7139 48.4105 22.7139H47.9444C47.4784 22.7139 47.1289 23.0634 47.1289 23.5294V27.8402H49.2843V23.5294H49.226Z" fill="#0078D4" fill-opacity="0.4"/>
    <path d="M48.1788 23.7054C51.3961 23.7054 54.0042 21.0973 54.0042 17.88C54.0042 14.6628 51.3961 12.0547 48.1788 12.0547C44.9616 12.0547 42.3535 14.6628 42.3535 17.88C42.3535 21.0973 44.9616 23.7054 48.1788 23.7054Z" fill="#D9EBF3"/>
    <path d="M48.1717 22.4239C50.6811 22.4239 52.7155 20.3896 52.7155 17.8802C52.7155 15.3707 50.6811 13.3364 48.1717 13.3364C45.6622 13.3364 43.6279 15.3707 43.6279 17.8802C43.6279 20.3896 45.6622 22.4239 48.1717 22.4239Z" fill="#0078D4"/>
    <path d="M17.4757 23.7054C20.693 23.7054 23.3011 21.0973 23.3011 17.88C23.3011 14.6628 20.693 12.0547 17.4757 12.0547C14.2585 12.0547 11.6504 14.6628 11.6504 17.88C11.6504 21.0973 14.2585 23.7054 17.4757 23.7054Z" fill="#D9EBF3"/>
    <path d="M17.4783 22.4239C19.9878 22.4239 22.0221 20.3896 22.0221 17.8802C22.0221 15.3707 19.9878 13.3364 17.4783 13.3364C14.9689 13.3364 12.9346 15.3707 12.9346 17.8802C12.9346 20.3896 14.9689 22.4239 17.4783 22.4239Z" fill="#0078D4"/>
    <path d="M48.1788 54.4622C51.3961 54.4622 54.0042 51.8541 54.0042 48.6369C54.0042 45.4196 51.3961 42.8115 48.1788 42.8115C44.9616 42.8115 42.3535 45.4196 42.3535 48.6369C42.3535 51.8541 44.9616 54.4622 48.1788 54.4622Z" fill="#D9EBF3"/>
    <path d="M48.1717 53.1808C50.6811 53.1808 52.7155 51.1465 52.7155 48.637C52.7155 46.1276 50.6811 44.0933 48.1717 44.0933C45.6622 44.0933 43.6279 46.1276 43.6279 48.637C43.6279 51.1465 45.6622 53.1808 48.1717 53.1808Z" fill="#0078D4"/>
</svg>
