<svg data-slug-id="blockchain-tools" viewBox="0 0 48 48" xmlns="http://www.w3.org/2000/svg">
<path d="M37.5066 11.7126V32.8842L19.2534 43.5968V22.1896L37.5066 11.7126Z" fill="#773ADC"/>
<path d="M37.5064 11.7126L19.2532 22.1715L1 11.7126L19.2532 1L37.5064 11.7126Z" fill="#B796F9"/>
<path d="M19.2532 22.1896V43.3612L1 32.6485V11.7126L19.2532 22.1896Z" fill="#A67AF4"/>
<path d="M34.5338 35.2406L36.1108 36.4007L37.434 34.6968C37.2165 33.9899 37.3796 33.1742 37.8872 32.5579C38.3947 31.9235 39.156 31.561 39.9354 31.5247L45.7902 23.9479L41.458 20.7939L35.6214 28.2982C35.8389 29.0052 35.6757 29.8208 35.1682 30.4371C34.6607 31.0716 33.8994 31.4341 33.1199 31.4341L31.7967 33.138L33.3737 34.298L27.5733 41.7842L27.2833 41.5667L26.1051 42.7268L24.3831 46.352L25.0175 46.8596L28.1533 44.3038L29.0415 42.9262L28.7515 42.7086L34.5338 35.2406Z" fill="#3999C6"/>
<path d="M38.3039 34.0442C38.3039 34.2617 38.322 34.4792 38.3583 34.6967L38.4308 34.9868L38.2676 35.1861L36.9444 36.89L36.4731 37.5063L34.8961 36.3462L34.2617 37.1438L42.908 43.488C43.488 43.923 44.1406 44.0318 44.7931 43.9411C45.4456 43.8505 46.0257 43.5061 46.4788 42.9986C47.3308 41.911 47.1133 40.3884 46.0076 39.5727L38.3039 34.0442Z" fill="#59B4D9"/>
<path d="M28.842 33.3554L31.4522 35.2586L32.0866 34.4611L31.0171 33.6816L30.5277 33.3372L32.5579 30.7814H32.8479C32.9567 30.7633 32.9929 30.7633 33.1017 30.7452C33.2467 30.727 33.3917 30.7089 33.5367 30.6545L31.9597 29.4945L31.8328 29.4038C32.1047 27.5912 31.3615 25.7604 29.7846 24.5641C28.2619 23.4403 26.1955 23.2771 24.4917 23.9659L27.8813 26.4311L27.4825 29.4219L24.6729 30.5639L21.2833 28.0625C21.0114 29.8751 21.7909 31.7059 23.3497 32.8297C24.963 34.0442 27.1019 34.1892 28.842 33.3554Z" fill="#59B4D9"/>
</svg>