<svg data-slug-id="blue-lines-and-dots" xmlns="http://www.w3.org/2000/svg" viewBox="0 0 50 50">
    <path d="M3.00977 3.25L46.4989 46.75" stroke="#50E6FF" stroke-width="1.25"/>
    <path d="M3 46.75L46.5 3.25" stroke="#50E6FF" stroke-width="1.25"/>
    <path d="M3 24.9888H46.5" stroke="#50E6FF" stroke-width="1.25"/>
    <path d="M24.7461 3.19775L24.7498 46.7499" stroke="#50E6FF" stroke-width="1.25"/>
    <path d="M3 46.75L46.5 24.9888" stroke="#50E6FF" stroke-width="1.25"/>
    <path d="M46.5 46.75L3 24.9888" stroke="#50E6FF" stroke-width="1.25"/>
    <path d="M3.00977 3.25L46.4989 24.9888" stroke="#50E6FF" stroke-width="1.25"/>
    <path d="M46.5 3.25L3 24.9888" stroke="#50E6FF" stroke-width="1.25"/>
    <path d="M24.75 3.25L46.5 24.9888" stroke="#50E6FF" stroke-width="1.25"/>
    <path d="M24.7463 3.19775L3 24.9886" stroke="#50E6FF" stroke-width="1.25"/>
    <path d="M24.75 46.75L46.5 24.9888" stroke="#50E6FF" stroke-width="1.25"/>
    <path d="M24.75 46.7499L2.90625 24.9478" stroke="#50E6FF" stroke-width="1.25"/>
    <path fill-rule="evenodd" clip-rule="evenodd" d="M6 3.25C6 4.907 4.6565 6.25 3 6.25C1.343 6.25 0 4.907 0 3.25C0 1.5935 1.343 0.25 3 0.25C4.6565 0.25 6 1.5935 6 3.25Z" fill="#50E6FF"/>
    <path fill-rule="evenodd" clip-rule="evenodd" d="M6 24.9888C6 26.6453 4.6565 27.9888 3 27.9888C1.343 27.9888 0 26.6453 0 24.9888C0 23.3318 1.343 21.9888 3 21.9888C4.6565 21.9888 6 23.3318 6 24.9888Z" fill="#0078D4"/>
    <path fill-rule="evenodd" clip-rule="evenodd" d="M6 46.75C6 48.407 4.6565 49.75 3 49.75C1.343 49.75 0 48.407 0 46.75C0 45.0935 1.343 43.75 3 43.75C4.6565 43.75 6 45.0935 6 46.75Z" fill="#0078D4"/>
    <path fill-rule="evenodd" clip-rule="evenodd" d="M27.75 3.25C27.75 4.907 26.4065 6.25 24.75 6.25C23.093 6.25 21.75 4.907 21.75 3.25C21.75 1.5935 23.093 0.25 24.75 0.25C26.4065 0.25 27.75 1.5935 27.75 3.25Z" fill="#0078D4"/>
    <path fill-rule="evenodd" clip-rule="evenodd" d="M27.75 25C27.75 26.657 26.4065 28 24.75 28C23.093 28 21.75 26.657 21.75 25C21.75 23.3435 23.093 22 24.75 22C26.4065 22 27.75 23.3435 27.75 25Z" fill="#50E6FF"/>
    <path fill-rule="evenodd" clip-rule="evenodd" d="M27.75 46.75C27.75 48.407 26.4065 49.75 24.75 49.75C23.093 49.75 21.75 48.407 21.75 46.75C21.75 45.0935 23.093 43.75 24.75 43.75C26.4065 43.75 27.75 45.0935 27.75 46.75Z" fill="#0078D4"/>
    <path fill-rule="evenodd" clip-rule="evenodd" d="M49.5 3.25C49.5 4.907 48.1565 6.25 46.5 6.25C44.843 6.25 43.5 4.907 43.5 3.25C43.5 1.5935 44.843 0.25 46.5 0.25C48.1565 0.25 49.5 1.5935 49.5 3.25Z" fill="#0078D4"/>
    <path fill-rule="evenodd" clip-rule="evenodd" d="M49.5 24.9888C49.5 26.6453 48.1565 27.9888 46.5 27.9888C44.843 27.9888 43.5 26.6453 43.5 24.9888C43.5 23.3318 44.843 21.9888 46.5 21.9888C48.1565 21.9888 49.5 23.3318 49.5 24.9888Z" fill="#0078D4"/>
    <path fill-rule="evenodd" clip-rule="evenodd" d="M49.5 46.75C49.5 48.407 48.1565 49.75 46.5 49.75C44.843 49.75 43.5 48.407 43.5 46.75C43.5 45.0935 44.843 43.75 46.5 43.75C48.1565 43.75 49.5 45.0935 49.5 46.75Z" fill="#50E6FF"/>
</svg>
