<svg data-slug-id="blue-dial-partial" xmlns="http://www.w3.org/2000/svg" viewBox="0 0 48 48">
    <path d="M23.2419 2.91504C20.2204 2.99925 17.3766 3.60557 14.7787 4.71462C12.1808 5.82367 9.7564 7.46914 7.56104 9.61062L12.3956 14.595C15.2798 11.8708 19.0676 10.147 23.2419 9.95672V2.91504Z" fill="#0078D4"/>
    <path d="M6.49516 10.7122C4.41768 12.9757 2.82105 15.4768 1.74568 18.1538C0.670316 20.8309 0.0842105 23.7623 0 26.8772H6.83032C6.99704 22.7432 8.58643 18.7937 11.3297 15.6966L6.49516 10.7122Z" fill="#0078D4"/>
    <path d="M41.5048 44.5993C43.5822 42.3365 45.1789 39.8363 46.2542 37.1584C47.3296 34.4805 47.9157 31.55 47.9999 28.4351H41.2109C41.0523 32.5833 39.4615 36.5485 36.709 39.6561L41.5048 44.5993Z" fill="#50E6FF"/>
    <path d="M47.9999 26.8772C47.9157 23.7614 47.3262 20.8309 46.2542 18.1538C45.1822 15.4768 43.5822 12.9757 41.5047 10.7122L36.6904 15.6755C39.4446 18.7752 41.0412 22.7325 41.2092 26.8755L47.9999 26.8772Z" fill="#0078D4"/>
    <path d="M40.4361 9.61062C38.2408 7.46914 35.8155 5.82114 33.2176 4.71462C30.6197 3.60809 27.7768 3.00178 24.7578 2.91504V9.95504C28.938 10.1361 32.7325 11.854 35.621 14.5757L40.4361 9.61062Z" fill="#0078D4"/>
</svg>
