<svg data-slug-id="blue-arrows-circles-squares" xmlns="http://www.w3.org/2000/svg" viewBox="0 0 49 49">
  <path d="M41.3388 0.0158691L43.1465 1.82358L38.4226 6.54751L42.038 10.1629L46.762 5.43901L48.5697 7.24672V0.0158691H41.3388Z" fill="#0078D4"/>
  <path d="M43.1463 14.5886L38.4224 19.3126L42.0378 22.928L46.7617 18.2041L48.5694 20.0203V12.7809H41.3386L43.1463 14.5886Z" fill="#0078D4"/>
  <path d="M41.3386 25.546L43.1463 27.3537L38.4224 32.0776L42.0378 35.6931L46.7617 30.9777L48.5694 32.7854V25.546H41.3386Z" fill="#50E6FF"/>
  <path d="M41.3388 38.3902L43.1465 40.1979L38.4226 44.9218L42.038 48.5373L46.762 43.8219L48.5697 45.6296V38.3902H41.3388Z" fill="#50E6FF"/>
  <path d="M10.2147 0.0158081H2.97532L4.79156 1.82352L0.067627 6.54745L3.68305 10.1629L8.40699 5.43895L10.2147 7.24666V0.0158081Z" fill="#0078D4"/>
  <path d="M10.2153 12.7809H2.97593L4.79217 14.5886L0.0682373 19.3126L3.68367 22.928L8.4076 18.2041L10.2153 20.0203V12.7809Z" fill="#0078D4"/>
  <path d="M10.2153 25.546H2.97593L4.79217 27.3537L0.0682373 32.0776L3.68367 35.6931L8.4076 30.9777L10.2153 32.7854V25.546Z" fill="#50E6FF"/>
  <path d="M10.2156 38.3902H2.97617L4.79241 40.1979L0.0684814 44.9218L3.68391 48.5373L8.40784 43.8219L10.2156 45.6296V38.3902Z" fill="#50E6FF"/>
  <path d="M25.4656 25.5866V35.819H35.6979V25.5866H25.4656Z" fill="#50E6FF"/>
  <path d="M35.6938 17.8971C35.6938 20.7195 33.4 23.0133 30.5776 23.0133C27.7552 23.0133 25.4614 20.7195 25.4614 17.8971C25.4614 15.0747 27.7552 12.7809 30.5776 12.7809C33.4085 12.7809 35.6938 15.0747 35.6938 17.8971Z" fill="#0078D4"/>
  <path d="M22.9035 30.6978C22.9035 33.5202 20.6097 35.8139 17.7873 35.8139C14.9649 35.8139 12.6711 33.5202 12.6711 30.6978C12.6711 27.8754 14.9649 25.5816 17.7873 25.5816C20.6183 25.5816 22.9035 27.8754 22.9035 30.6978Z" fill="#50E6FF"/>
  <path d="M35.6938 3.05176e-05H25.4614V10.2324H35.6938V3.05176e-05Z" fill="#0078D4"/>
  <path d="M22.9035 5.1162C22.9035 7.93862 20.6097 10.2324 17.7873 10.2324C14.9649 10.2324 12.6711 7.93862 12.6711 5.1162C12.6711 2.29378 14.9649 3.05176e-05 17.7873 3.05176e-05C20.6183 3.05176e-05 22.9035 2.29378 22.9035 5.1162Z" fill="#0078D4"/>
  <path d="M22.9035 12.7809H12.6711V23.0133H22.9035V12.7809Z" fill="#0078D4"/>
  <path d="M35.6938 43.4866C35.6938 46.309 33.4 48.6027 30.5776 48.6027C27.7552 48.6027 25.4614 46.309 25.4614 43.4866C25.4614 40.6641 27.7552 38.3704 30.5776 38.3704C33.4085 38.3704 35.6938 40.6641 35.6938 43.4866Z" fill="#50E6FF"/>
  <path d="M12.675 38.3754L12.675 48.6078L22.9074 48.6078L22.9074 38.3754L12.675 38.3754Z" fill="#50E6FF"/>
</svg>
