<svg data-slug-id="blue-squares-and-arrows" xmlns="http://www.w3.org/2000/svg" viewBox="0 0 48 48">
    <path d="M5.05263 0.0253906H0V5.07536H5.05263V0.0253906Z" fill="#0078D4"/>
    <path d="M5.05263 7.1792H0V12.2292H5.05263V7.1792Z" fill="#0078D4"/>
    <path d="M40.5053 7.1792H35.4526V12.2292H40.5053V7.1792Z" fill="#0078D4"/>
    <path d="M48 7.1792H42.9474V12.2292H48V7.1792Z" fill="#50E6FF"/>
    <path d="M48 0H42.9474V5.04997H48V0Z" fill="#50E6FF"/>
    <path d="M5.05263 14.3335H0V19.3835H5.05263V14.3335Z" fill="#0078D4"/>
    <path d="M40.5053 14.3335H35.4526V19.3835H40.5053V14.3335Z" fill="#0078D4"/>
    <path d="M48 14.3335H42.9474V19.3835H48V14.3335Z" fill="#50E6FF"/>
    <path d="M5.05263 21.4878H0V26.5378H5.05263V21.4878Z" fill="#0078D4"/>
    <path d="M12.6316 21.4878H7.57898V26.5378H12.6316V21.4878Z" fill="#50E6FF"/>
    <path d="M40.5053 21.4878H35.4526V26.5378H40.5053V21.4878Z" fill="#0078D4"/>
    <path d="M48 21.4878H42.9474V26.5378H48V21.4878Z" fill="#50E6FF"/>
    <path d="M5.05263 28.6416H0V33.6916H5.05263V28.6416Z" fill="#0078D4"/>
    <path d="M12.6316 28.6416H7.57898V33.6916H12.6316V28.6416Z" fill="#50E6FF"/>
    <path d="M40.5053 28.6416H35.4526V33.6916H40.5053V28.6416Z" fill="#0078D4"/>
    <path d="M48 28.6416H42.9474V33.6916H48V28.6416Z" fill="#50E6FF"/>
    <path d="M5.05263 35.7959H0V40.8459H5.05263V35.7959Z" fill="#0078D4"/>
    <path d="M12.6316 35.7959H7.57898V40.8459H12.6316V35.7959Z" fill="#50E6FF"/>
    <path d="M40.5053 35.7959H35.4526V40.8459H40.5053V35.7959Z" fill="#0078D4"/>
    <path d="M48 35.7959H42.9474V40.8459H48V35.7959Z" fill="#50E6FF"/>
    <path d="M5.05263 42.95H0V47.9999H5.05263V42.95Z" fill="#0078D4"/>
    <path d="M12.6316 42.95H7.57898V47.9999H12.6316V42.95Z" fill="#50E6FF"/>
    <path d="M40.5053 42.95H35.4526V47.9999H40.5053V42.95Z" fill="#0078D4"/>
    <path d="M48 42.95H42.9474V47.9999H48V42.95Z" fill="#50E6FF"/>
    <path d="M30.3325 30.3417L25.2546 25.2749V27.8336H17.6757V32.9004H25.2546V35.4169L30.3325 30.3417Z" fill="#0078D4"/>
    <path d="M30.3325 17.6494L25.2546 12.5742V15.1413H17.6757V20.2081H25.2546V22.7247L30.3325 17.6494Z" fill="#0078D4"/>
    <path d="M30.3325 42.9247L25.2546 37.8579V40.4166H17.6757V45.4834H25.2546V47.9999L30.3325 42.9247Z" fill="#0078D4"/>
</svg>
