<svg data-slug-id="blue-partial-circles" xmlns="http://www.w3.org/2000/svg" viewBox="0 0 49 49">
    <path d="M24.1162 41.0528C14.7504 41.0528 7.17963 33.4821 7.17963 24.1162C7.17963 14.7504 14.7504 7.17966 24.1162 7.17966C24.1552 7.17966 24.1943 7.17966 24.1943 7.17966V0.155273C24.1552 0.155273 24.1162 0.155273 24.1162 0.155273C10.8479 0.155273 0.116211 10.887 0.116211 24.1553C0.116211 37.4236 10.8479 48.1553 24.1162 48.1553C37.3455 48.1553 48.0772 37.4236 48.1162 24.2333H41.0918C41.0528 33.4821 33.4821 41.0528 24.1162 41.0528Z" fill="#0078D4"/>
    <path d="M24.116 30.6726C20.4867 30.6726 17.5209 27.7067 17.5209 24.0774C17.5209 20.4482 20.4867 17.4823 24.116 17.4823C24.155 17.4823 24.1941 17.4823 24.1941 17.4823V10.3799C24.155 10.3799 24.116 10.3799 24.116 10.3799C16.5453 10.3799 10.4185 16.5067 10.4185 24.0774C10.4185 31.6482 16.5453 37.775 24.116 37.775C31.6477 37.775 37.7746 31.6482 37.8136 24.1165H30.7111C30.6721 27.7457 27.7453 30.6726 24.116 30.6726Z" fill="#50E6FF"/>
</svg>
