<svg data-slug-id="blue-dots" xmlns="http://www.w3.org/2000/svg" viewBox="0 0 96 96">
    <path fill-rule="evenodd" clip-rule="evenodd" d="M72 30.0314C72 33.3449 69.3135 36.0313 66 36.0313C62.6865 36.0313 60 33.3449 60 30.0314C60 26.7171 62.6865 24.0314 66 24.0314C69.3135 24.0314 72 26.7171 72 30.0314" fill="#0078D4"/>
    <path fill-rule="evenodd" clip-rule="evenodd" d="M72 66.0156C72 69.3291 69.3135 72.0156 66 72.0156C62.6865 72.0156 60 69.3291 60 66.0156C60 62.7021 62.6865 60.0156 66 60.0156C69.3135 60.0156 72 62.7021 72 66.0156" fill="#0078D4"/>
    <path fill-rule="evenodd" clip-rule="evenodd" d="M36 30.0314C36 33.3449 33.3135 36.0313 30 36.0313C26.6865 36.0313 24 33.3449 24 30.0314C24 26.7171 26.6865 24.0314 30 24.0314C33.3135 24.0314 36 26.7171 36 30.0314" fill="#0078D4"/>
    <path fill-rule="evenodd" clip-rule="evenodd" d="M36 66.0156C36 69.3291 33.3135 72.0156 30 72.0156C26.6865 72.0156 24 69.3291 24 66.0156C24 62.7021 26.6865 60.0156 30 60.0156C33.3135 60.0156 36 62.7021 36 66.0156" fill="#0078D4"/>
    <path fill-rule="evenodd" clip-rule="evenodd" d="M57 24.0002C57 28.9705 52.9702 33.0002 48 33.0002C43.0297 33.0002 39 28.9705 39 24.0002C39 19.0292 43.0297 15.0002 48 15.0002C52.9702 15.0002 57 19.0292 57 24.0002" fill="#0078D4"/>
    <path fill-rule="evenodd" clip-rule="evenodd" d="M57 72C57 76.9702 52.9702 81 48 81C43.0297 81 39 76.9702 39 72C39 67.029 43.0297 63 48 63C52.9702 63 57 67.029 57 72" fill="#0078D4"/>
    <path fill-rule="evenodd" clip-rule="evenodd" d="M52.5 4.50023C52.5 6.98498 50.4847 9.00022 48 9.00022C45.5152 9.00022 43.5 6.98498 43.5 4.50023C43.5 2.01474 45.5152 0.000244141 48 0.000244141C50.4847 0.000244141 52.5 2.01474 52.5 4.50023" fill="#50E6FF"/>
    <path fill-rule="evenodd" clip-rule="evenodd" d="M52.5 91.5001C52.5 93.9849 50.4847 96.0001 48 96.0001C45.5152 96.0001 43.5 93.9849 43.5 91.5001C43.5 89.0146 45.5152 87.0001 48 87.0001C50.4847 87.0001 52.5 89.0146 52.5 91.5001" fill="#0078D4"/>
    <path fill-rule="evenodd" clip-rule="evenodd" d="M52.5 4.50023C52.5 6.98498 50.4847 9.00022 48 9.00022C45.5152 9.00022 43.5 6.98498 43.5 4.50023C43.5 2.01474 45.5152 0.000244141 48 0.000244141C50.4847 0.000244141 52.5 2.01474 52.5 4.50023" fill="#50E6FF"/>
    <path fill-rule="evenodd" clip-rule="evenodd" d="M52.5 91.5001C52.5 93.9849 50.4847 96.0001 48 96.0001C45.5152 96.0001 43.5 93.9849 43.5 91.5001C43.5 89.0146 45.5152 87.0001 48 87.0001C50.4847 87.0001 52.5 89.0146 52.5 91.5001" fill="#50E6FF"/>
    <path fill-rule="evenodd" clip-rule="evenodd" d="M33 48C33 52.9702 28.9702 57 24 57C19.0297 57 15 52.9702 15 48C15 43.029 19.0297 39 24 39C28.9702 39 33 43.029 33 48" fill="#0078D4"/>
    <path fill-rule="evenodd" clip-rule="evenodd" d="M81 48C81 52.9702 76.9702 57 72 57C67.0297 57 63 52.9702 63 48C63 43.029 67.0297 39 72 39C76.9702 39 81 43.029 81 48" fill="#0078D4"/>
    <path fill-rule="evenodd" clip-rule="evenodd" d="M4.5 43.5001C6.98475 43.5001 8.99999 45.5146 8.99999 48.0001C8.99999 50.4849 6.98475 52.5001 4.5 52.5001C2.01525 52.5001 0 50.4849 0 48.0001C0 45.5146 2.01525 43.5001 4.5 43.5001" fill="#50E6FF"/>
    <path fill-rule="evenodd" clip-rule="evenodd" d="M91.5 43.5001C93.9847 43.5001 96 45.5146 96 48.0001C96 50.4849 93.9847 52.5001 91.5 52.5001C89.0152 52.5001 87 50.4849 87 48.0001C87 45.5146 89.0152 43.5001 91.5 43.5001" fill="#0078D4"/>
    <path fill-rule="evenodd" clip-rule="evenodd" d="M57 48C57 52.9702 52.9702 57 48 57C43.0297 57 39 52.9702 39 48C39 43.029 43.0297 39 48 39C52.9702 39 57 43.029 57 48" fill="#0078D4"/>
    <path fill-rule="evenodd" clip-rule="evenodd" d="M4.5 43.5001C6.98475 43.5001 8.99999 45.5146 8.99999 48.0001C8.99999 50.4849 6.98475 52.5001 4.5 52.5001C2.01525 52.5001 0 50.4849 0 48.0001C0 45.5146 2.01525 43.5001 4.5 43.5001" fill="#50E6FF"/>
    <path fill-rule="evenodd" clip-rule="evenodd" d="M91.5 43.5001C93.9847 43.5001 96 45.5146 96 48.0001C96 50.4849 93.9847 52.5001 91.5 52.5001C89.0152 52.5001 87 50.4849 87 48.0001C87 45.5146 89.0152 43.5001 91.5 43.5001" fill="#50E6FF"/>
    <path fill-rule="evenodd" clip-rule="evenodd" d="M82.6969 19.6818C80.9396 21.4398 78.0904 21.4398 76.3331 19.6818C74.5751 17.9245 74.5751 15.0753 76.3331 13.3181C78.0904 11.5608 80.9396 11.5608 82.6969 13.3181C84.4541 15.0753 84.4541 17.9245 82.6969 19.6818" fill="#50E6FF"/>
    <path fill-rule="evenodd" clip-rule="evenodd" d="M19.7032 82.6979C17.9459 84.4551 15.0967 84.4551 13.3394 82.6979C11.5822 80.9399 11.5822 78.0906 13.3394 76.3341C15.0967 74.5761 17.9459 74.5761 19.7032 76.3341C21.4604 78.0906 21.4604 80.9399 19.7032 82.6979" fill="#50E6FF"/>
    <path fill-rule="evenodd" clip-rule="evenodd" d="M19.7032 13.3181C21.4604 15.0761 21.4604 17.9253 19.7032 19.6818C17.9459 21.4398 15.0967 21.4398 13.3394 19.6818C11.5822 17.9253 11.5822 15.0761 13.3394 13.3181C15.0967 11.5608 17.9459 11.5608 19.7032 13.3181" fill="#50E6FF"/>
    <path fill-rule="evenodd" clip-rule="evenodd" d="M82.6822 76.3341C84.4395 78.0914 84.4395 80.9406 82.6822 82.6979C80.925 84.4551 78.0757 84.4551 76.3185 82.6979C74.5605 80.9406 74.5605 78.0914 76.3185 76.3341C78.0757 74.5761 80.925 74.5761 82.6822 76.3341" fill="#50E6FF"/>
</svg>
