<svg data-slug-id="blue-cube" xmlns="http://www.w3.org/2000/svg" viewBox="0 0 48 48">
    <path d="M33.4825 18.4315L33.3899 18.4903V13.2766L28.7415 10.594L24.0846 13.2766H24.0425L19.3857 10.594L14.7372 13.2766V18.5492L14.5351 18.4315L9.88672 21.114V26.4792L14.5351 29.1617L14.7372 34.4091L19.3857 37.0917L24.0425 34.4091H24.0846L28.7415 37.0917L33.3899 34.4091V29.1113L33.4825 29.1617L38.1394 26.4792V21.114L33.4825 18.4315Z" fill="#0078D7"/>
    <path d="M23.9414 0.226807L3.22559 12.168V36.0588L23.9414 48L44.6572 36.0588V12.1764L23.9414 0.226807ZM24.7161 3.59052L41.2214 13.1014L24.7161 22.8646V3.59052ZM23.453 23.016L6.67822 13.093L23.453 3.42234V23.016ZM22.7203 24.0503L5.7519 34.091V14.0096L22.7203 24.0503ZM23.453 25.0847V44.8129L6.56874 35.0749L23.453 25.0847ZM24.7161 25.2276L41.3309 35.0665L24.7161 44.6447V25.2276ZM25.1961 24.0503L42.1309 14.0349V34.0658L25.1961 24.0503Z" fill="#50E6FF"/>
    <path d="M16.3613 28.5578L23.9487 24.1177L31.5361 28.5578L23.9487 33.1156L16.3613 28.5578Z" fill="white"/>
    <path d="M23.9493 24.8419L30.2988 28.5588L23.9493 32.3766L17.5998 28.5672L23.9493 24.8419ZM23.9493 23.3871L15.124 28.5504L23.9493 33.8482L32.7745 28.5504L23.9493 23.3871Z" fill="#50E6FF"/>
    <path d="M16.3613 24.0422L23.9487 19.6021L31.5361 24.0422L23.9487 28.6L16.3613 24.0422Z" fill="white"/>
    <path d="M23.9493 20.3347L30.2988 24.0516L23.9493 27.8694L17.5998 24.0516L23.9493 20.3347ZM23.9493 18.8715L15.124 24.0348L23.9493 29.3326L32.7745 24.0348L23.9493 18.8715Z" fill="#50E6FF"/>
    <path d="M16.3623 19.5029L23.9497 15.0627L31.537 19.5029L23.9497 24.0607L16.3623 19.5029Z" fill="white"/>
    <path d="M23.9493 15.7916L30.2988 19.5085L23.9493 23.3263L17.5998 19.5085L23.9493 15.7916ZM23.9493 14.3284L15.124 19.4917L23.9493 24.7895L32.7745 19.4917L23.9493 14.3284Z" fill="#50E6FF"/>
</svg>
