<svg data-slug-id="blue-shapes" xmlns="http://www.w3.org/2000/svg" viewBox="0 0 48 48">
<path d="M7.23032 0.0078125H0.0336914V7.20444H7.23032V0.0078125Z" fill="#0078D4"/>
<path d="M13.82 0.00796509C11.8312 0.00796509 10.2216 1.61752 10.2216 3.60628C10.2216 5.59504 11.8312 7.20459 13.82 7.20459C15.8087 7.20459 17.4183 5.59504 17.4183 3.60628C17.4183 1.61752 15.8087 0.00796509 13.82 0.00796509Z" fill="#50E6FF"/>
<path d="M26.3931 0.00796509H21.5897V47.9574H26.3931V0.00796509Z" fill="#0078D4"/>
<path d="M44.3931 0.00796509C42.4043 0.00796509 40.7948 1.61752 40.7948 3.60628C40.7948 5.59504 42.4043 7.20459 44.3931 7.20459C46.3818 7.20459 47.9914 5.59504 47.9914 3.60628C47.9914 1.61752 46.3818 0.00796509 44.3931 0.00796509Z" fill="#50E6FF"/>
<path d="M3.63207 10.1877C1.6433 10.1877 0.0337524 11.7972 0.0337524 13.786C0.0337524 15.7747 1.6433 17.3843 3.63207 17.3843C5.62083 17.3843 7.23038 15.7747 7.23038 13.786C7.23038 11.8056 5.6124 10.1877 3.63207 10.1877Z" fill="#50E6FF"/>
<path d="M17.6458 10.1877H10.2132V17.6202H17.6458V10.1877Z" fill="#0078D4"/>
<path d="M7.23038 20.3946H0.0337524V27.5913H7.23038V20.3946Z" fill="#0078D4"/>
<path d="M13.82 20.3946C11.8312 20.3946 10.2216 22.0042 10.2216 23.9929C10.2216 25.9817 11.8312 27.5913 13.82 27.5913C15.8087 27.5913 17.4183 25.9817 17.4183 23.9929C17.4183 22.0042 15.8087 20.3946 13.82 20.3946Z" fill="#50E6FF"/>
<path d="M44.3931 20.3946C42.4043 20.3946 40.7948 22.0042 40.7948 23.9929C40.7948 25.9817 42.4043 27.5913 44.3931 27.5913C46.3818 27.5913 47.9914 25.9817 47.9914 23.9929C47.9914 22.0042 46.3818 20.3946 44.3931 20.3946Z" fill="#50E6FF"/>
<path d="M3.63207 30.5823C1.6433 30.5823 0.0337524 32.1918 0.0337524 34.1806C0.0337524 36.1694 1.6433 37.7789 3.63207 37.7789C5.62083 37.7789 7.23038 36.1694 7.23038 34.1806C7.23038 32.1918 5.6124 30.5823 3.63207 30.5823Z" fill="#50E6FF"/>
<path d="M17.629 30.3634H10.2216V37.7707H17.629V30.3634Z" fill="#0078D4"/>
<path d="M7.23038 40.7697H0.0337524V47.9663H7.23038V40.7697Z" fill="#0078D4"/>
<path d="M13.82 40.7697C11.8312 40.7697 10.2216 42.3792 10.2216 44.368C10.2216 46.3568 11.8312 47.9663 13.82 47.9663C15.8087 47.9663 17.4183 46.3568 17.4183 44.368C17.4183 42.3792 15.8087 40.7697 13.82 40.7697Z" fill="#50E6FF"/>
<path d="M44.3931 40.7697C42.4043 40.7697 40.7948 42.3792 40.7948 44.368C40.7948 46.3568 42.4043 47.9663 44.3931 47.9663C46.3818 47.9663 47.9914 46.3568 47.9914 44.368C47.9914 42.3792 46.3818 40.7697 44.3931 40.7697Z" fill="#50E6FF"/>
<path d="M34.2052 10.1877C32.2164 10.1877 30.6069 11.7972 30.6069 13.786C30.6069 15.7747 32.2164 17.3843 34.2052 17.3843C36.1939 17.3843 37.8035 15.7747 37.8035 13.786C37.8035 11.8056 36.1939 10.1877 34.2052 10.1877Z" fill="#50E6FF"/>
<path d="M34.2052 30.5823C32.2164 30.5823 30.6069 32.1918 30.6069 34.1806C30.6069 36.1694 32.2164 37.7789 34.2052 37.7789C36.1939 37.7789 37.8035 36.1694 37.8035 34.1806C37.8035 32.1918 36.1939 30.5823 34.2052 30.5823Z" fill="#50E6FF"/>
</svg>
