<svg data-slug-id="blue-partial-circles-alt" xmlns="http://www.w3.org/2000/svg" viewBox="0 0 48 48">
    <path d="M42.9529 23.9998C42.9529 34.4631 34.4715 42.9529 23.9998 42.9529C13.5282 42.9529 5.0467 34.4631 5.0467 23.9998C5.0467 13.5701 13.4694 5.11388 23.8738 5.0467V0.0585938C10.715 0.125774 0.0585938 10.8158 0.0585938 23.9998C0.0585938 37.2174 10.7738 47.941 23.9998 47.941C37.2258 47.941 47.941 37.2174 47.941 23.9998C47.941 23.9662 47.941 23.9326 47.941 23.899H42.9529C42.9529 23.9326 42.9529 23.9662 42.9529 23.9998Z" fill="#0078D4"/>
    <path d="M28.1569 24.0006C28.1569 26.2931 26.2927 28.1573 24.0002 28.1573C21.7076 28.1573 19.8434 26.2931 19.8434 24.0006C19.8434 21.75 21.6321 19.9194 23.8658 19.8522V15.1328C19.0289 15.2 15.124 19.1468 15.124 24.0006C15.124 28.8963 19.096 32.8683 23.9918 32.8683C28.8875 32.8683 32.8595 28.8963 32.8595 24.0006C32.8595 23.967 32.8595 23.9334 32.8595 23.8998H28.1401C28.1569 23.9334 28.1569 23.967 28.1569 24.0006Z" fill="#50E6FF"/>
    <path d="M24.0002 7.74219C19.4908 7.74219 15.4096 9.58124 12.4621 12.5455L15.9303 16.0137C17.9876 13.9311 20.8428 12.6463 24.0002 12.6463C30.2732 12.6463 35.362 17.7352 35.362 24.0081C35.362 30.281 30.2732 35.3699 24.0002 35.3699C20.7924 35.3699 17.8953 34.0431 15.8295 31.9017L12.3613 35.3699C15.3172 38.393 19.432 40.274 24.0002 40.274C32.9771 40.274 40.2578 32.9934 40.2578 24.0165C40.2578 15.0396 32.9855 7.74219 24.0002 7.74219Z" fill="#50E6FF"/>
</svg>
