<svg data-slug-id="bracket-gear" xmlns="http://www.w3.org/2000/svg" viewBox="0 0 48 48">
    <path d="M36.1033 38.3772L34.1641 36.7415L44.737 24.2124L34.4929 11.2365L36.4743 9.66821L48 24.263L36.1033 38.3772Z" fill="#0078D4"/>
    <path d="M11.5257 38.3258L0 23.7394L11.9051 9.62524L13.8359 11.2525L3.26295 23.79L13.5071 36.7575L11.5257 38.3258Z" fill="#0078D4"/>
    <path d="M24.1395 28.8226C26.6168 28.8226 28.625 26.8143 28.625 24.3371C28.625 21.8598 26.6168 19.8516 24.1395 19.8516C21.6623 19.8516 19.6541 21.8598 19.6541 24.3371C19.6541 26.8143 21.6623 28.8226 24.1395 28.8226Z" fill="#50E6FF"/>
    <path d="M35.6734 22.7541L32.284 22.3578L32.1828 22.0121C31.9973 21.3629 31.7275 20.7305 31.3818 20.1403L31.1963 19.8199L33.0091 17.535C33.1524 17.3495 33.1609 17.1135 33.0344 16.987L31.2807 15.2333C31.1458 15.0984 30.9097 15.1068 30.7326 15.2586L28.3887 17.1135L28.0767 16.9448C27.5203 16.6497 26.9048 16.4137 26.2555 16.245L25.893 16.1523L25.5136 12.8893C25.4883 12.6617 25.3281 12.4846 25.1426 12.4846H22.6638C22.4783 12.4846 22.3181 12.6617 22.2928 12.8893L21.8965 16.2703L21.5677 16.3799C20.9859 16.5654 20.4126 16.8268 19.8646 17.164L19.5442 17.358L17.0232 15.3682C16.8377 15.2248 16.6016 15.2164 16.4751 15.3429L14.7214 17.0966C14.5865 17.2315 14.6034 17.4676 14.7467 17.6446L16.8293 20.2837L16.6775 20.5956C16.4414 21.0594 16.2559 21.54 16.1126 22.029L16.0114 22.3747L12.622 22.7709C12.3943 22.7962 12.2173 22.9564 12.2173 23.1419V25.6207C12.2173 25.8062 12.3943 25.9664 12.622 25.9917L16.0198 26.388L16.121 26.7337C16.2644 27.2059 16.4498 27.6864 16.6859 28.1417L16.8461 28.4537L14.7467 31.1096C14.6034 31.2951 14.5949 31.5312 14.7214 31.6576L16.4751 33.4114C16.61 33.5463 16.8461 33.5294 17.0232 33.3861L19.5779 31.3625L19.8983 31.5565C20.421 31.8684 20.9775 32.1214 21.534 32.2984L21.8628 32.408L22.2422 35.6541C22.2675 35.8818 22.4277 36.0588 22.6132 36.0588H25.092C25.2775 36.0588 25.4377 35.8818 25.463 35.6541L25.8255 32.5514L26.1881 32.4586C26.8289 32.2984 27.4444 32.0623 28.0093 31.7672L28.3212 31.607L30.6314 33.4367C30.8169 33.58 31.053 33.5884 31.1795 33.462L32.9332 31.7082C33.0681 31.5733 33.0597 31.3372 32.9079 31.1602L31.1458 28.9343L31.3397 28.6139C31.7022 28.0068 31.9805 27.3745 32.1659 26.7337L32.2671 26.388L35.6734 25.9917C35.9011 25.9664 36.0781 25.8062 36.0781 25.6207V23.1419C36.0781 22.9396 35.9011 22.7794 35.6734 22.7541ZM24.1393 29.9123C21.0618 29.9123 18.5661 27.4082 18.5661 24.3392C18.5661 21.2617 21.0702 18.766 24.1393 18.766C27.2083 18.766 29.7124 21.2701 29.7124 24.3392C29.7124 27.4082 27.2083 29.9123 24.1393 29.9123Z" fill="#0078D7"/>
</svg>
