<svg data-slug-id="brochure" xmlns="http://www.w3.org/2000/svg" viewBox="0 0 49 49">
    <path d="M16.8531 40.4703L1.58789 47.228V8.59332L16.8531 1.84375V40.4703Z" fill="#0078D7"/>
    <path d="M47.5852 40.4703L32.3281 47.228V8.59332L47.5852 1.84375V40.4703Z" fill="#0078D7"/>
    <path d="M13.0568 16.4277L5.27148 19.9361V11.8053L13.0568 8.29688V16.4277Z" fill="#50E6FF"/>
    <path d="M44.147 16.5196L36.0493 20.1688V11.7117L44.147 8.0625V16.5196Z" fill="#50E6FF"/>
    <path d="M14.4097 23.319L3.93457 28.1978V25.8511L14.4097 20.9805V23.319Z" fill="#50E6FF"/>
    <path d="M14.4097 28.155L3.93457 33.0337V30.6871L14.4097 25.8164V28.155Z" fill="#50E6FF"/>
    <path d="M14.4097 32.9948L3.93457 37.8735V35.5269L14.4097 30.6562V32.9948Z" fill="#50E6FF"/>
    <path d="M46.0127 23.319L35.5376 28.1978V25.8511L46.0127 20.9805V23.319Z" fill="#50E6FF"/>
    <path d="M46.0127 28.155L35.5376 33.0337V30.6871L46.0127 25.8164V28.155Z" fill="#50E6FF"/>
    <path d="M46.0127 32.9948L35.5376 37.8735V35.5269L46.0127 30.6562V32.9948Z" fill="#50E6FF"/>
    <path d="M32.3361 47.2293L16.8516 40.4286L16.8631 1.83594L32.3361 8.59452V47.2293Z" fill="#50E6FF"/>
    <path d="M19.313 23.319L29.7881 28.1978V25.8511L19.313 20.9805V23.319Z" fill="#0078D7"/>
    <path d="M19.313 28.155L29.7881 33.0337V30.6871L19.313 25.8164V28.155Z" fill="#0078D7"/>
    <path d="M19.313 32.9948L29.7881 37.8735V35.5269L19.313 30.6562V32.9948Z" fill="#0078D7"/>
    <path d="M20.353 16.8704L28.782 20.6689V11.8611L20.353 8.0625V16.8704Z" fill="#0078D7"/>
</svg>
