<svg data-slug-id="browser-network" xmlns="http://www.w3.org/2000/svg" viewBox="0 0 48 49">
	<path d="M0 43.2412H48V6.28125H0V43.2412Z" fill="#0078D4"/>
	<path d="M0 10.2736H47.9832V5.27148H0V10.2736Z" fill="#50E6FF"/>
	<path d="M7.47789 9.09445C8.15226 9.09445 8.69894 8.54777 8.69894 7.8734C8.69894 7.19903 8.15226 6.65234 7.47789 6.65234C6.80352 6.65234 6.25684 7.19903 6.25684 7.8734C6.25684 8.54777 6.80352 9.09445 7.47789 9.09445Z" fill="white"/>
	<path d="M3.68834 9.09445C4.36271 9.09445 4.90939 8.54777 4.90939 7.8734C4.90939 7.19903 4.36271 6.65234 3.68834 6.65234C3.01397 6.65234 2.46729 7.19903 2.46729 7.8734C2.46729 8.54777 3.01397 9.09445 3.68834 9.09445Z" fill="white"/>
	<path d="M11.3514 9.09445C12.0258 9.09445 12.5725 8.54777 12.5725 7.8734C12.5725 7.19903 12.0258 6.65234 11.3514 6.65234C10.6771 6.65234 10.1304 7.19903 10.1304 7.8734C10.1304 8.54777 10.6771 9.09445 11.3514 9.09445Z" fill="white"/>
	<path d="M35.2503 17.8438L33.4482 19.6459L39.284 25.4816L33.3809 31.3848L35.183 33.1869L42.8882 25.4816L35.2503 17.8438Z" fill="#50E6FF"/>
	<path d="M12.5896 33.1869L14.4001 31.3848L8.56429 25.549L14.4674 19.6459L12.6653 17.8438L4.95166 25.549L12.5896 33.1869Z" fill="#50E6FF"/>
	<path d="M31.5539 28.0844C32.9584 28.0844 34.0971 26.9458 34.0971 25.5412C34.0971 24.1367 32.9584 22.998 31.5539 22.998C30.1494 22.998 29.0107 24.1367 29.0107 25.5412C29.0107 26.9458 30.1494 28.0844 31.5539 28.0844Z" fill="white"/>
	<path d="M23.8903 28.0844C25.2949 28.0844 26.4335 26.9458 26.4335 25.5412C26.4335 24.1367 25.2949 22.998 23.8903 22.998C22.4858 22.998 21.3472 24.1367 21.3472 25.5412C21.3472 26.9458 22.4858 28.0844 23.8903 28.0844Z" fill="white"/>
	<path d="M16.3957 28.0844C17.8002 28.0844 18.9389 26.9458 18.9389 25.5412C18.9389 24.1367 17.8002 22.998 16.3957 22.998C14.9911 22.998 13.8525 24.1367 13.8525 25.5412C13.8525 26.9458 14.9911 28.0844 16.3957 28.0844Z" fill="white"/>
</svg>
