<svg data-slug-id="browser-vm" xmlns="http://www.w3.org/2000/svg" viewBox="0 0 48 48">
    <path d="M0 42.9715H48V6.01147H0V42.9715Z" fill="#0078D4"/>
    <path d="M0 10.0059H47.9832V5.00378H0V10.0059Z" fill="#50E6FF"/>
    <path d="M7.47789 8.82492C8.15226 8.82492 8.69894 8.27823 8.69894 7.60387C8.69894 6.9295 8.15226 6.38281 7.47789 6.38281C6.80352 6.38281 6.25684 6.9295 6.25684 7.60387C6.25684 8.27823 6.80352 8.82492 7.47789 8.82492Z" fill="white"/>
    <path d="M3.68834 8.82492C4.36271 8.82492 4.90939 8.27823 4.90939 7.60387C4.90939 6.9295 4.36271 6.38281 3.68834 6.38281C3.01397 6.38281 2.46729 6.9295 2.46729 7.60387C2.46729 8.27823 3.01397 8.82492 3.68834 8.82492Z" fill="white"/>
    <path d="M11.3514 8.82492C12.0258 8.82492 12.5725 8.27823 12.5725 7.60387C12.5725 6.9295 12.0258 6.38281 11.3514 6.38281C10.6771 6.38281 10.1304 6.9295 10.1304 7.60387C10.1304 8.27823 10.6771 8.82492 11.3514 8.82492Z" fill="white"/>
    <path d="M16.3872 30.4274L23.2588 34.3684V26.4695L16.3872 22.5116V30.4274Z" fill="#50E6FF"/>
    <path d="M23.9496 17.7343L17.1538 21.6585L23.9496 25.5827L30.7454 21.6585L23.9496 17.7343Z" fill="#50E6FF"/>
    <path d="M24.6313 26.4702V34.3692L31.5029 30.4281V22.5039L24.6313 26.4702Z" fill="#50E6FF"/>
</svg>
