<svg data-slug-id="browser-settings" xmlns="http://www.w3.org/2000/svg" viewBox="0 0 48 48">
  <path d="M0 42.9465H47.9916V6.06226H0V42.9465Z" fill="#0078D4"/>
  <path d="M0 10.0526H47.9747V5.05054H0V10.0526Z" fill="#50E6FF"/>
  <path d="M7.46959 8.87545C8.14327 8.87545 8.69064 8.32809 8.69064 7.6544C8.69064 6.98072 8.14327 6.43335 7.46959 6.43335C6.7959 6.43335 6.24854 6.98072 6.24854 7.6544C6.24854 8.32809 6.7959 8.87545 7.46959 8.87545Z" fill="#0078D4"/>
  <path d="M3.68004 8.87545C4.35372 8.87545 4.90109 8.32809 4.90109 7.6544C4.90109 6.98072 4.35372 6.43335 3.68004 6.43335C3.00635 6.43335 2.45898 6.98072 2.45898 7.6544C2.45898 8.32809 3.00635 8.87545 3.68004 8.87545Z" fill="#0078D4"/>
  <path d="M11.3431 8.87545C12.0168 8.87545 12.5642 8.32809 12.5642 7.6544C12.5642 6.98072 12.0168 6.43335 11.3431 6.43335C10.6694 6.43335 10.1221 6.98072 10.1221 7.6544C10.1221 8.32809 10.6694 8.87545 11.3431 8.87545Z" fill="#0078D4"/>
  <path d="M35.3263 27.6631V25.2715H32.859C32.64 23.6884 32.0337 22.2484 31.1074 21.0357L32.8505 19.2926L31.1579 17.6084L29.4232 19.3515C28.219 18.4252 26.7621 17.8105 25.1874 17.5999V15.1326H22.7958V17.5999C21.2126 17.8189 19.7726 18.4252 18.56 19.3515L16.8169 17.6084L15.1242 19.301L16.8674 21.0441C15.9411 22.2484 15.3263 23.7052 15.1158 25.2799H12.6484V27.6715H15.1158C15.3348 29.2547 15.9411 30.6947 16.8674 31.9073L15.1242 33.6505L16.8169 35.3431L18.56 33.5999C19.7642 34.5263 21.2211 35.141 22.7958 35.3515V37.8105H25.1874V35.3431C26.7705 35.1241 28.2105 34.5178 29.4232 33.5915L31.1663 35.3347L32.859 33.642L31.1158 31.8989C32.0421 30.6947 32.6569 29.2378 32.8674 27.6631H35.3263V27.6631ZM24 31.4947C21.2211 31.4947 18.9726 29.2294 18.9726 26.4673C18.9726 23.6884 21.2379 21.4399 24 21.4399C26.779 21.4399 29.0274 23.7052 29.0274 26.4673C29.0274 29.2463 26.7705 31.4947 24 31.4947Z" fill="#50E6FF"/>
</svg>
