<svg data-slug-id="browser-person" xmlns="http://www.w3.org/2000/svg" viewBox="0 0 48 48">
    <path d="M0 42.9722H48V6.01221H0V42.9722Z" fill="#0078D4"/>
    <path d="M15.1494 35.3076C15.1494 30.4487 19.082 26.5161 23.941 26.5161C28.7999 26.5161 32.7326 30.4487 32.7326 35.3076H15.1494Z" fill="#50E6FF"/>
    <path d="M0 10.0026H47.9832V5.00049H0V10.0026Z" fill="#50E6FF"/>
    <path d="M7.47789 8.82541C8.15226 8.82541 8.69894 8.27872 8.69894 7.60435C8.69894 6.92998 8.15226 6.3833 7.47789 6.3833C6.80352 6.3833 6.25684 6.92998 6.25684 7.60435C6.25684 8.27872 6.80352 8.82541 7.47789 8.82541Z" fill="white"/>
    <path d="M3.68834 8.82541C4.36271 8.82541 4.90939 8.27872 4.90939 7.60435C4.90939 6.92998 4.36271 6.3833 3.68834 6.3833C3.01397 6.3833 2.46729 6.92998 2.46729 7.60435C2.46729 8.27872 3.01397 8.82541 3.68834 8.82541Z" fill="white"/>
    <path d="M11.3517 8.82541C12.026 8.82541 12.5727 8.27872 12.5727 7.60435C12.5727 6.92998 12.026 6.3833 11.3517 6.3833C10.6773 6.3833 10.1306 6.92998 10.1306 7.60435C10.1306 8.27872 10.6773 8.82541 11.3517 8.82541Z" fill="white"/>
    <path d="M28.9515 20.142C28.9515 22.8957 26.7199 25.1273 23.9662 25.1273C21.2125 25.1273 18.981 22.8957 18.981 20.142C18.981 17.3883 21.2125 15.1567 23.9662 15.1567C26.7199 15.1567 28.9515 17.3883 28.9515 20.142Z" fill="#50E6FF"/>
</svg>
