<svg data-slug-id="browser-chart" xmlns="http://www.w3.org/2000/svg" viewBox="0 0 48 48">
<path d="M0 42.6902H48V5.73022H0V42.6902Z" fill="#0078D4"/>
<path d="M0 10.006H47.9832V5.00391H0V10.006Z" fill="#50E6FF"/>
<path d="M7.47777 8.82467C8.15214 8.82467 8.69882 8.27799 8.69882 7.60362C8.69882 6.92925 8.15214 6.38257 7.47777 6.38257C6.8034 6.38257 6.25671 6.92925 6.25671 7.60362C6.25671 8.27799 6.8034 8.82467 7.47777 8.82467Z" fill="#0078D4"/>
<path d="M3.68834 8.82467C4.36271 8.82467 4.90939 8.27799 4.90939 7.60362C4.90939 6.92925 4.36271 6.38257 3.68834 6.38257C3.01397 6.38257 2.46729 6.92925 2.46729 7.60362C2.46729 8.27799 3.01397 8.82467 3.68834 8.82467Z" fill="#0078D4"/>
<path d="M11.3513 8.82467C12.0257 8.82467 12.5724 8.27799 12.5724 7.60362C12.5724 6.92925 12.0257 6.38257 11.3513 6.38257C10.677 6.38257 10.1303 6.92925 10.1303 7.60362C10.1303 8.27799 10.677 8.82467 11.3513 8.82467Z" fill="#0078D4"/>
<path d="M13.0825 36.1482H11.8883V37.3145H13.0825V36.1482Z" fill="white"/>
<path d="M15.471 34.926H14.2768V37.3144H15.471V34.926Z" fill="white"/>
<path d="M19.0529 33.7302H16.6645V37.3128H19.0529V33.7302Z" fill="white"/>
<path d="M22.636 31.3438H20.2476V37.3148H22.636V31.3438Z" fill="white"/>
<path d="M28.0099 26.5664H24.4273V37.3143H28.0099V26.5664Z" fill="white"/>
<path d="M34.5782 14.625H29.8014V37.3149H34.5782V14.625Z" fill="#50E6FF"/>
</svg>
