<svg data-slug-id="browser" xmlns="http://www.w3.org/2000/svg" viewBox="0 0 49 49">
    <path d="M0.901367 6.05469V43.0547H47.9014V6.05469H0.901367ZM45.9014 8.05469V15.0547H2.90137V8.05469H45.9014ZM2.90137 41.0547V17.0547H45.9014V41.0547H2.90137Z" fill="#0078D4"/>
    <path d="M32.4014 13.5547C31.3014 13.5547 30.4014 12.6547 30.4014 11.5547C30.4014 10.4547 31.3014 9.55469 32.4014 9.55469C33.5014 9.55469 34.4014 10.4547 34.4014 11.5547C34.4014 12.6547 33.5014 13.5547 32.4014 13.5547ZM32.4014 10.5547C31.8014 10.5547 31.4014 10.9547 31.4014 11.5547C31.4014 12.1547 31.8014 12.5547 32.4014 12.5547C33.0014 12.5547 33.4014 12.1547 33.4014 11.5547C33.4014 10.9547 33.0014 10.5547 32.4014 10.5547Z" fill="#0078D4"/>
    <path d="M37.4014 13.5547C36.3014 13.5547 35.4014 12.6547 35.4014 11.5547C35.4014 10.4547 36.3014 9.55469 37.4014 9.55469C38.5014 9.55469 39.4014 10.4547 39.4014 11.5547C39.4014 12.6547 38.5014 13.5547 37.4014 13.5547ZM37.4014 10.5547C36.8014 10.5547 36.4014 10.9547 36.4014 11.5547C36.4014 12.1547 36.8014 12.5547 37.4014 12.5547C38.0014 12.5547 38.4014 12.1547 38.4014 11.5547C38.4014 10.9547 38.0014 10.5547 37.4014 10.5547Z" fill="#0078D4"/>
    <path d="M42.4014 13.5547C41.3014 13.5547 40.4014 12.6547 40.4014 11.5547C40.4014 10.4547 41.3014 9.55469 42.4014 9.55469C43.5014 9.55469 44.4014 10.4547 44.4014 11.5547C44.4014 12.6547 43.5014 13.5547 42.4014 13.5547ZM42.4014 10.5547C41.8014 10.5547 41.4014 10.9547 41.4014 11.5547C41.4014 12.1547 41.8014 12.5547 42.4014 12.5547C43.0014 12.5547 43.4014 12.1547 43.4014 11.5547C43.4014 10.9547 43.0014 10.5547 42.4014 10.5547Z" fill="#0078D4"/>
</svg>
