<svg data-slug-id="build07" viewBox="0 0 49 49" xmlns="http://www.w3.org/2000/svg">
<path d="M18.5834 34.4616C27.3726 34.4616 34.4978 27.3365 34.4978 18.5472C34.4978 9.75794 27.3726 2.63281 18.5834 2.63281C9.79407 2.63281 2.66895 9.75794 2.66895 18.5472C2.66895 27.3365 9.79407 34.4616 18.5834 34.4616Z" fill="#F8F7F6"/>
<path d="M48.177 44.9337L32.4831 29.2425C34.7537 26.2879 36.106 22.5821 36.106 18.5675C36.106 8.87737 28.2424 1.02344 18.5505 1.02344C8.85872 1.02344 1.00342 8.87737 1.00342 18.5675C1.00342 28.2576 8.85872 36.1116 18.5505 36.1116C22.4406 36.1116 26.0302 34.8429 28.9436 32.7062L44.6709 48.4308L48.177 44.9337ZM6.04551 18.5675C6.04551 11.6567 11.6469 6.0563 18.5589 6.0563C25.4709 6.0563 31.0723 11.6567 31.0723 18.5675C31.0723 25.4783 25.4625 31.0787 18.5505 31.0787C11.6469 31.0787 6.04551 25.4783 6.04551 18.5675Z" fill="#0078D4"/>
<path d="M14.7856 11.0547H12.3647V26.0448H14.7856V11.0547Z" fill="#0078D4"/>
<path d="M19.7939 16.1445H17.373V26.0433H19.7939V16.1445Z" fill="#50E6FF"/>
<path d="M24.8696 21.1797H22.4487V26.0456H24.8696V21.1797Z" fill="#50E6FF"/>
</svg>
