<svg data-slug-id="buildings-half-circle" xmlns="http://www.w3.org/2000/svg" viewBox="0 0 48 48">
	<path d="M42.9471 25.2617V39.1564C42.6121 39.1564 42.2908 39.2895 42.0539 39.5264C41.817 39.7632 41.6839 40.0845 41.6839 40.4195C41.6839 40.7546 41.817 41.0758 42.0539 41.3127C42.2908 41.5496 42.6121 41.6827 42.9471 41.6827V47.9985H35.3682V25.2617H42.9471Z" fill="#50E6FF"/>
	<path d="M23.9999 0C10.7452 0 0 10.7452 0 23.9999H5.05261C5.05261 18.9748 7.04883 14.1554 10.6021 10.6021C14.1554 7.04883 18.9748 5.05261 23.9999 5.05261C29.025 5.05261 33.8443 7.04883 37.3976 10.6021C40.9509 14.1554 42.9472 18.9748 42.9472 23.9999H47.9998C47.9998 10.7452 37.2546 0 23.9999 0Z" fill="#50E6FF"/>
	<path d="M30.3163 22.7363H25.2637V25.2626H30.3163V22.7363Z" fill="#0078D4"/>
	<path d="M17.6834 30.3164H10.1045V32.8427H17.6834V30.3164Z" fill="#0078D4"/>
	<path d="M17.6834 35.3691H10.1045V37.8954H17.6834V35.3691Z" fill="#0078D4"/>
	<path d="M17.6834 40.4219H10.1045V42.9482H17.6834V40.4219Z" fill="#0078D4"/>
	<path d="M12.6316 12.6309V25.2624H5.05273V47.9991H35.3684V12.6309H12.6316ZM20.2106 45.4728H7.57904V27.7887H20.2106V45.4728ZM22.7369 22.7361H17.6843V17.6835H22.7369V22.7361ZM30.3158 45.4728H25.2632V40.4202H30.3158V45.4728ZM30.3158 37.8939H25.2632V32.8413H30.3158V37.8939ZM30.3158 30.315H25.2632V25.2624H30.3158V30.315ZM30.3158 22.7361H25.2632V17.6835H30.3158V22.7361Z" fill="#0078D4"/>
	<path d="M46.7361 40.4209C46.7362 39.7261 46.5453 39.0447 46.1843 38.4511C45.8233 37.8575 45.306 37.3746 44.6891 37.0552C44.0721 36.7357 43.3792 36.5921 42.6861 36.6398C41.993 36.6876 41.3264 36.925 40.7591 37.3261C40.1918 37.7272 39.7457 38.2765 39.4695 38.914C39.1933 39.5515 39.0977 40.2526 39.1931 40.9408C39.2886 41.629 39.5713 42.2777 40.0106 42.816C40.4498 43.3543 41.0285 43.7615 41.6835 43.993V47.9998H44.2098V43.993C44.9481 43.7311 45.5872 43.2472 46.0395 42.6076C46.4918 41.9681 46.7352 41.2042 46.7361 40.4209V40.4209ZM42.9467 41.684C42.6969 41.684 42.4526 41.6099 42.2449 41.4711C42.0372 41.3323 41.8753 41.1351 41.7797 40.9042C41.6841 40.6734 41.6591 40.4195 41.7078 40.1744C41.7565 39.9294 41.8768 39.7043 42.0535 39.5277C42.2302 39.351 42.4552 39.2307 42.7003 39.182C42.9453 39.1332 43.1993 39.1583 43.4301 39.2539C43.6609 39.3495 43.8582 39.5114 43.997 39.7191C44.1358 39.9268 44.2098 40.171 44.2098 40.4209C44.2098 40.7559 44.0768 41.0772 43.8399 41.314C43.603 41.5509 43.2817 41.684 42.9467 41.684Z" fill="#0078D4"/>
</svg>
