<svg data-slug-id="build10" viewBox="0 0 49 49" xmlns="http://www.w3.org/2000/svg">
<path d="M9.45068 34.7861C10.0907 35.3418 10.5875 36.0661 10.8823 36.8745L15.2612 34.3061C14.6633 33.7082 14.217 32.9587 13.9812 32.125L9.45068 34.7861Z" fill="#50E6FF"/>
<path d="M5.54375 37.079L8.28059 35.4706C7.66586 35.0411 6.9248 34.7969 6.1248 34.7969C4.03638 34.7969 2.34375 36.4895 2.34375 38.5779C2.34375 40.6663 4.03638 42.3674 6.1248 42.3674C8.21322 42.3674 9.90586 40.6748 9.90586 38.5863C9.90586 38.2242 9.85533 37.8706 9.75428 37.5337L6.81533 39.26L5.54375 37.079Z" fill="#0078D4"/>
<path d="M8.28079 35.4688L5.54395 37.0772L6.82395 39.2582L9.76289 37.5319C9.51868 36.6814 8.98816 35.9572 8.28079 35.4688Z" fill="#0078D4"/>
<path d="M22.5881 30.2879C22.3607 28.41 20.7692 26.9531 18.8323 26.9531C16.7439 26.9531 15.0513 28.6458 15.0513 30.7342C15.0513 30.9784 15.0765 31.2142 15.1186 31.45L18.6218 29.3952L22.5881 30.2879Z" fill="#0078D4"/>
<path d="M16.3984 33.6393C17.0553 34.1951 17.9058 34.5319 18.8321 34.5319C20.1879 34.5319 21.3669 33.8246 22.0405 32.7551L19.0426 32.0898L16.3984 33.6393Z" fill="#0078D4"/>
<path d="M16.3985 33.6426L19.0427 32.0848L22.0406 32.75C22.4027 32.169 22.6217 31.4784 22.6217 30.7374C22.6217 30.5858 22.6133 30.4342 22.5964 30.2826L18.6301 29.3984L15.127 31.4532C15.2785 32.329 15.7417 33.0953 16.3985 33.6426Z" fill="#0078D4"/>
<path d="M47.7921 18.5779C47.7921 16.4895 46.0995 14.7969 44.011 14.7969C41.9226 14.7969 40.23 16.4895 40.23 18.5779C40.23 19.4874 40.55 20.3295 41.0889 20.9779L42.9331 17.9211L45.0974 19.2263L43.2531 22.2832C43.4973 22.3337 43.7584 22.359 44.0195 22.359C46.0995 22.359 47.7921 20.6663 47.7921 18.5779Z" fill="#0078D4"/>
<path d="M42.9248 17.918L41.0806 20.9748C41.6195 21.6317 42.3774 22.1032 43.2448 22.2801L45.089 19.2232L42.9248 17.918Z" fill="#0078D4"/>
<path d="M37.114 13.7168V11.2073H34.5119C34.293 9.54837 33.6361 8.02416 32.6593 6.761L34.4951 4.92521L32.7182 3.15679L30.8825 4.98416C29.6109 4.01574 28.0782 3.3589 26.4193 3.13995V0.554688H23.9014V3.14837C22.234 3.36732 20.7098 4.02416 19.4382 4.99258L17.6025 3.15679L15.8256 4.92521L17.653 6.761C16.6846 8.02416 16.0277 9.55679 15.8003 11.2073H13.1982V13.7168H15.8003C16.0193 15.3757 16.6761 16.9 17.653 18.1631L15.8172 19.9989L17.594 21.7673L19.4298 19.9315C20.7014 20.9 22.234 21.5568 23.893 21.7757V24.3694H26.4109V21.7757C28.0782 21.5568 29.6025 20.9 30.874 19.9315L32.7098 21.7673L34.4867 19.9989L32.6509 18.1631C33.6193 16.9 34.2761 15.3673 34.5035 13.7168H37.114ZM25.1646 18.2221C21.9814 18.2221 19.3961 15.6452 19.3961 12.4705C19.3961 9.29574 21.9814 6.7189 25.1646 6.7189C28.3477 6.7189 30.933 9.29574 30.933 12.4705C30.933 15.6452 28.3477 18.2221 25.1646 18.2221Z" fill="#0078D4"/>
<path d="M44.0027 5.584C45.3669 6.94821 46.1164 8.75873 46.1164 10.6956H48.5164C48.5164 8.03452 47.4385 5.63452 45.6953 3.89137C43.9522 2.14821 41.5522 1.07031 38.8911 1.07031V3.47031C40.828 3.47031 42.6385 4.21979 44.0027 5.584Z" fill="#0078D4"/>
<path d="M40.5331 9.05085C40.971 9.48875 41.2152 10.0698 41.2152 10.6845H43.6152C43.6152 9.37928 43.0931 8.20875 42.2342 7.3498C41.3836 6.49928 40.2047 5.96875 38.8994 5.96875V8.36875C39.5142 8.37717 40.0952 8.61296 40.5331 9.05085Z" fill="#0078D4"/>
<path d="M42.5619 23.4068C41.7283 23.1626 40.9956 22.6995 40.3977 22.1016L37.063 27.6258C37.863 27.9289 38.5956 28.3752 39.2272 28.931L42.5619 23.4068Z" fill="#50E6FF"/>
<path d="M23.876 30.5742C23.876 30.6332 23.8844 30.6837 23.8844 30.7426C23.8844 31.5679 23.6823 32.3511 23.3286 33.0416L27.4802 33.9679C27.5139 33.1005 27.7076 32.2669 28.0276 31.5005L23.876 30.5742Z" fill="#50E6FF"/>
<path d="M34.5457 38.0269C36.6339 38.0269 38.3268 36.3341 38.3268 34.2459C38.3268 32.1577 36.6339 30.4648 34.5457 30.4648C32.4575 30.4648 30.7646 32.1577 30.7646 34.2459C30.7646 36.3341 32.4575 38.0269 34.5457 38.0269Z" fill="#50E6FF"/>
<path d="M48.6428 46.7183L41.1902 39.2657C42.2681 37.8594 42.9081 36.0994 42.9081 34.1962C42.9081 29.5899 39.1691 25.8594 34.5712 25.8594C29.9649 25.8594 26.2344 29.5899 26.2344 34.1962C26.2344 38.8025 29.9649 42.5331 34.5712 42.5331C36.4154 42.5331 38.1249 41.9267 39.506 40.9162L46.9754 48.3857L48.6428 46.7183ZM28.626 34.1962C28.626 30.912 31.287 28.251 34.5712 28.251C37.8554 28.251 40.5165 30.912 40.5165 34.1962C40.5165 37.4804 37.8554 40.1415 34.5712 40.1415C31.287 40.1331 28.626 37.472 28.626 34.1962Z" fill="#0078D4"/>
<path d="M13.1981 8.11785V6.96416H12.0023C11.9012 6.19785 11.5981 5.4989 11.1518 4.91785L11.9939 4.07574L11.177 3.2589L10.3265 4.101C9.73704 3.65469 9.03809 3.35153 8.27177 3.25048V2.05469H7.11809V3.25048C6.35177 3.35153 5.65283 3.65469 5.06335 4.101L4.22125 3.2589L3.40441 4.07574L4.24651 4.91785C3.8002 5.4989 3.49704 6.19785 3.39598 6.96416H2.2002V8.11785H3.39598C3.49704 8.88416 3.8002 9.58311 4.24651 10.1642L3.40441 11.0063L4.22125 11.8231L5.06335 10.981C5.65283 11.4273 6.35177 11.7305 7.11809 11.8315V13.0273H8.2802V11.8315C9.04651 11.7305 9.74546 11.4273 10.3349 10.981L11.177 11.8231L11.9939 11.0063L11.1518 10.1642C11.5981 9.58311 11.9012 8.88416 12.0023 8.11785H13.1981ZM7.69914 10.1894C6.23388 10.1894 5.04651 9.00206 5.04651 7.54521C5.04651 6.08837 6.23388 4.89258 7.69914 4.89258C9.16441 4.89258 10.3518 6.07995 10.3518 7.53679C10.3518 8.99364 9.16441 10.1894 7.69914 10.1894Z" fill="#50E6FF"/>
</svg>
