<svg data-slug-id="build13" viewBox="0 0 49 49" xmlns="http://www.w3.org/2000/svg">
<path d="M43.3871 9.8436L18.1155 32.8331H0.422852V0.0078125H43.3871V9.8436Z" fill="#50E6FF"/>
<path d="M27.614 33.2472C27.614 30.1398 28.8267 27.2093 31.0246 25.0114C33.2225 22.8135 36.153 21.6008 39.2604 21.6008C42.3677 21.6008 45.2983 22.8135 47.4962 25.0114C47.8246 25.3398 48.1277 25.685 48.414 26.0472V5.07031H5.4751V37.9293H28.5993C28.4898 37.6766 28.3888 37.424 28.2962 37.1629C27.8414 35.8998 27.614 34.5861 27.614 33.2472Z" fill="#0078D7"/>
<path d="M39.269 24.1172C34.2332 24.1172 30.149 28.2014 30.149 33.2372C30.149 35.3846 30.8984 37.3635 32.1363 38.9214L25.7026 45.3551L28.2542 47.9067L34.9068 41.254C36.2037 41.9614 37.6858 42.3656 39.269 42.3656C44.3047 42.3656 48.389 38.2814 48.389 33.2456C48.389 28.2014 44.3047 24.1172 39.269 24.1172ZM39.269 38.7277C36.2374 38.7277 33.7868 36.2772 33.7868 33.2456C33.7868 30.214 36.2374 27.7635 39.269 27.7635C42.3005 27.7635 44.7511 30.214 44.7511 33.2456C44.7426 36.2772 42.2921 38.7277 39.269 38.7277Z" fill="#0078D4"/>
</svg>
