<svg data-slug-id="buildings-cloud-alt" xmlns="http://www.w3.org/2000/svg" viewBox="0 0 48 48">
  <path fill-rule="evenodd" clip-rule="evenodd" d="M23.9991 48H47.9999V24H23.9991V48Z" fill="#0078D4"/>
  <path fill-rule="evenodd" clip-rule="evenodd" d="M32.9996 47.9997H38.9995V42H32.9996V47.9997Z" fill="white"/>
  <path fill-rule="evenodd" clip-rule="evenodd" d="M38.8636 12.022C38.8636 14.5186 36.8398 16.5424 34.3431 16.5424C31.8467 16.5424 29.8229 14.5186 29.8229 12.022C29.8229 9.52573 31.8467 7.50195 34.3431 7.50195C36.8398 7.50195 38.8636 9.52573 38.8636 12.022" fill="#50E6FF"/>
  <path fill-rule="evenodd" clip-rule="evenodd" d="M41.8044 16.5426H30.1954C29.2586 16.5426 28.5 15.7836 28.5 14.8473C28.5 13.9113 29.2586 13.1523 30.1954 13.1523H41.8044C42.7408 13.1523 43.4998 13.9113 43.4998 14.8473C43.4998 15.7836 42.7408 16.5426 41.8044 16.5426" fill="#50E6FF"/>
  <path fill-rule="evenodd" clip-rule="evenodd" d="M42.2791 12.0217C42.2791 13.6948 40.9228 15.0512 39.2496 15.0512C37.5763 15.0512 36.22 13.6948 36.22 12.0217C36.22 10.3489 37.5763 8.99219 39.2496 8.99219C40.9228 8.99219 42.2791 10.3489 42.2791 12.0217" fill="#50E6FF"/>
  <path fill-rule="evenodd" clip-rule="evenodd" d="M9 47.9978H0V0H23.9997V47.9978H14.9999V42H9V47.9978ZM5.99243 11.9993H10.4924V7.49951H5.99243V11.9993ZM17.9996 11.9993H13.4996V7.49951H17.9996V11.9993ZM5.99243 19.4988H10.4924V14.999H5.99243V19.4988ZM17.9996 19.4988H13.4996V14.999H17.9996V19.4988ZM5.99243 26.9988H10.4924V22.499H5.99243V26.9988ZM17.9996 26.9988H13.4996V22.499H17.9996V26.9988ZM5.99243 34.5008H10.4924V30.001H5.99243V34.5008ZM17.9996 34.5008H13.4996V30.001H17.9996V34.5008Z" fill="#50E6FF"/>
  <path fill-rule="evenodd" clip-rule="evenodd" d="M29.9984 34.5008H34.4983V30.001H29.9984V34.5008Z" fill="#50E6FF"/>
  <path fill-rule="evenodd" clip-rule="evenodd" d="M37.4984 34.5008H41.9983V30.001H37.4984V34.5008Z" fill="#50E6FF"/>
</svg>
