<svg data-slug-id="build-tool" xmlns="http://www.w3.org/2000/svg" viewBox="0 0 48 49">
    <path d="M37.7602 32.2386V26.7481H34.695C34.4087 25.7544 33.9877 24.8197 33.4571 23.9608L35.6887 21.7292L31.8066 17.8472L29.474 20.1798C28.6404 19.7166 27.7393 19.3545 26.7878 19.1187V15.7756H21.2973V19.1693C20.371 19.4135 19.4952 19.784 18.6784 20.2472L16.2784 17.8472L12.3964 21.7292L14.7458 24.0787C14.249 24.9039 13.8532 25.7966 13.5837 26.7481H10.3164V32.2386H13.4322C13.6679 33.2575 14.0385 34.2259 14.5353 35.1101L12.388 37.2575L16.27 41.1395L18.3163 39.0932C19.2258 39.6658 20.2279 40.1037 21.2889 40.3816V43.2195H26.7793V40.4321C27.8656 40.1627 28.893 39.7332 29.8193 39.169L31.7898 41.1395L35.6719 37.2575L33.6508 35.2364C34.1814 34.3101 34.5771 33.308 34.8213 32.2386H37.7602ZM24.0425 34.5459C21.2552 34.5459 18.99 32.2807 18.99 29.4933C18.99 26.706 21.2552 24.4408 24.0425 24.4408C26.8299 24.4408 29.0951 26.706 29.0951 29.4933C29.0951 32.2807 26.8299 34.5459 24.0425 34.5459Z" fill="#50E6FF"/>
    <path d="M23.9989 10.418C25.3942 10.418 26.5252 9.28699 26.5252 7.89176C26.5252 6.49653 25.3942 5.36548 23.9989 5.36548C22.6037 5.36548 21.4727 6.49653 21.4727 7.89176C21.4727 9.28699 22.6037 10.418 23.9989 10.418Z" fill="#0078D4"/>
    <path d="M9.68448 17.5782C11.0797 17.5782 12.2108 16.4471 12.2108 15.0519C12.2108 13.6567 11.0797 12.5256 9.68448 12.5256C8.28926 12.5256 7.1582 13.6567 7.1582 15.0519C7.1582 16.4471 8.28926 17.5782 9.68448 17.5782Z" fill="#0078D4"/>
    <path d="M38.3134 17.5782C39.7086 17.5782 40.8397 16.4471 40.8397 15.0519C40.8397 13.6567 39.7086 12.5256 38.3134 12.5256C36.9182 12.5256 35.7871 13.6567 35.7871 15.0519C35.7871 16.4471 36.9182 17.5782 38.3134 17.5782Z" fill="#0078D4"/>
    <path d="M2.52628 10.418C3.92151 10.418 5.05256 9.28699 5.05256 7.89176C5.05256 6.49653 3.92151 5.36548 2.52628 5.36548C1.13105 5.36548 0 6.49653 0 7.89176C0 9.28699 1.13105 10.418 2.52628 10.418Z" fill="#0078D4"/>
    <path d="M45.4735 10.418C46.8688 10.418 47.9998 9.28699 47.9998 7.89176C47.9998 6.49653 46.8688 5.36548 45.4735 5.36548C44.0783 5.36548 42.9473 6.49653 42.9473 7.89176C42.9473 9.28699 44.0783 10.418 45.4735 10.418Z" fill="#0078D4"/>
    <path d="M2.52628 24.7344C3.92151 24.7344 5.05256 23.6034 5.05256 22.2082C5.05256 20.8129 3.92151 19.6819 2.52628 19.6819C1.13105 19.6819 0 20.8129 0 22.2082C0 23.6034 1.13105 24.7344 2.52628 24.7344Z" fill="#0078D4"/>
    <path d="M45.4735 24.7344C46.8688 24.7344 47.9998 23.6034 47.9998 22.2082C47.9998 20.8129 46.8688 19.6819 45.4735 19.6819C44.0783 19.6819 42.9473 20.8129 42.9473 22.2082C42.9473 23.6034 44.0783 24.7344 45.4735 24.7344Z" fill="#0078D4"/>
    <path d="M23.9989 31.8907C25.3942 31.8907 26.5252 30.7596 26.5252 29.3644C26.5252 27.9692 25.3942 26.8381 23.9989 26.8381C22.6037 26.8381 21.4727 27.9692 21.4727 29.3644C21.4727 30.7596 22.6037 31.8907 23.9989 31.8907Z" fill="#0078D4"/>
</svg>
