<svg data-slug-id="build06" viewBox="0 0 49 49" xmlns="http://www.w3.org/2000/svg">
<path d="M48.2111 27.2753V22.2311H43.0069C42.5774 18.9806 41.2974 15.8985 39.3016 13.2879L42.9816 9.60796L39.4195 6.04586L35.7395 9.72585C33.129 7.73007 30.0469 6.45007 26.7964 6.0206V0.816406H21.7522V6.0206C18.5017 6.45007 15.4196 7.73007 12.8091 9.72585L9.12907 6.04586L5.56698 9.60796L9.24697 13.2879C7.25118 15.8985 5.97119 18.9806 5.54172 22.2311H0.329102V27.2753H5.5333C6.08908 31.3763 7.97539 35.191 10.9059 38.1215C13.8364 41.0521 17.6427 42.9384 21.7522 43.4942V48.6984H26.7964V43.4942C30.0469 43.0647 33.129 41.7847 35.7395 39.7889L39.4195 43.4689L42.9816 39.9068L39.3016 36.2268C41.2974 33.6163 42.5774 30.5342 43.0069 27.2837H48.2111V27.2753ZM10.4091 24.7574C10.4091 21.549 11.5206 18.4416 13.5585 15.9658C15.5964 13.49 18.4259 11.789 21.5669 11.1658C24.708 10.5427 27.9753 11.0227 30.8048 12.5385C33.6343 14.0458 35.849 16.4964 37.0785 19.4606C38.3079 22.4248 38.4679 25.7174 37.5332 28.7911C36.5985 31.8563 34.6364 34.5089 31.9669 36.2942C29.2974 38.0794 26.0974 38.8794 22.9059 38.5594C19.7143 38.2479 16.7333 36.8331 14.4596 34.5679C13.1712 33.2879 12.1438 31.7553 11.4449 30.071C10.7628 28.3784 10.4006 26.5763 10.4091 24.7574Z" fill="#50E6FF"/>
<path d="M29.087 25.5752L23.327 19.8153L28.5143 14.6279C26.5859 13.8279 24.4554 13.609 22.4007 14.0048C20.3459 14.4005 18.4512 15.3858 16.9523 16.8511C15.4533 18.3079 14.4175 20.1774 13.9712 22.2237C13.5249 24.27 13.6933 26.4005 14.4428 28.3458L2.9902 39.7984C2.18179 40.6068 1.72705 41.7099 1.72705 42.8552C1.72705 44.0004 2.18179 45.0952 2.9902 45.912C3.79862 46.7204 4.90178 47.1752 6.04704 47.1752C7.1923 47.1752 8.28703 46.7204 9.10387 45.912L20.5565 34.4594C22.5101 35.2173 24.6322 35.3773 26.6785 34.931C28.7249 34.4847 30.5859 33.4489 32.0512 31.95C33.508 30.451 34.5017 28.5563 34.8975 26.51C35.2933 24.4552 35.0743 22.3331 34.2743 20.3963L29.087 25.5752ZM7.58808 44.371C7.28493 44.6741 6.89756 44.8762 6.48493 44.9604C6.06388 45.0447 5.63441 45.0026 5.23862 44.8341C4.84283 44.6741 4.50599 44.3962 4.2702 44.0426C4.03441 43.6889 3.9081 43.2678 3.9081 42.8468C3.9081 42.4173 4.03441 42.0047 4.2702 41.651C4.50599 41.2973 4.84283 41.0194 5.23862 40.8594C5.63441 40.6994 6.06388 40.6573 6.48493 40.7331C6.90598 40.8173 7.28493 41.0194 7.58808 41.3226C7.99229 41.7268 8.21966 42.2741 8.21966 42.8468C8.21966 43.4194 7.99229 43.9668 7.58808 44.371Z" fill="#0078D4"/>
</svg>
