<svg data-slug-id="build05" viewBox="0 0 49 49" xmlns="http://www.w3.org/2000/svg">
<path d="M5.15809 8.36707C3.76239 8.36707 2.63574 7.23909 2.63574 5.84174C2.63574 4.44439 3.76239 3.31641 5.15809 3.31641C6.55379 3.31641 7.68044 4.44439 7.68044 5.84174C7.68044 7.23067 6.54539 8.36707 5.15809 8.36707Z" fill="#50E6FF"/>
<path d="M12.725 8.36707C11.3293 8.36707 10.2026 7.23909 10.2026 5.84174C10.2026 4.44439 11.3293 3.31641 12.725 3.31641C14.1207 3.31641 15.2473 4.44439 15.2473 5.84174C15.2473 7.23067 14.1123 8.36707 12.725 8.36707Z" fill="#50E6FF"/>
<path d="M20.3178 8.36707C18.9221 8.36707 17.7954 7.23909 17.7954 5.84174C17.7954 4.44439 18.9221 3.31641 20.3178 3.31641C21.7135 3.31641 22.8401 4.44439 22.8401 5.84174C22.8401 7.23067 21.7135 8.36707 20.3178 8.36707Z" fill="#50E6FF"/>
<path d="M27.8842 8.36707C26.4885 8.36707 25.3618 7.23909 25.3618 5.84174C25.3618 4.44439 26.4885 3.31641 27.8842 3.31641C29.2799 3.31641 30.4065 4.44439 30.4065 5.84174C30.4065 7.23067 29.2799 8.36707 27.8842 8.36707Z" fill="#50E6FF"/>
<path d="M35.4266 8.36707C34.0309 8.36707 32.9043 7.23909 32.9043 5.84174C32.9043 4.44439 34.0309 3.31641 35.4266 3.31641C36.8223 3.31641 37.949 4.44439 37.949 5.84174C37.949 7.23067 36.8139 8.36707 35.4266 8.36707Z" fill="#50E6FF"/>
<path d="M43.0184 8.36707C41.6227 8.36707 40.4961 7.23909 40.4961 5.84174C40.4961 4.44439 41.6227 3.31641 43.0184 3.31641C44.4141 3.31641 45.5408 4.44439 45.5408 5.84174C45.5408 7.23067 44.4141 8.36707 43.0184 8.36707Z" fill="#50E6FF"/>
<path d="M5.15809 15.9452C3.76239 15.9452 2.63574 14.8172 2.63574 13.4199C2.63574 12.0225 3.76239 10.8945 5.15809 10.8945C6.55379 10.8945 7.68044 12.0225 7.68044 13.4199C7.68044 14.8088 6.54539 15.9452 5.15809 15.9452Z" fill="#50E6FF"/>
<path d="M12.725 15.9452C11.3293 15.9452 10.2026 14.8172 10.2026 13.4199C10.2026 12.0225 11.3293 10.8945 12.725 10.8945C14.1207 10.8945 15.2473 12.0225 15.2473 13.4199C15.2473 14.8088 14.1123 15.9452 12.725 15.9452Z" fill="#50E6FF"/>
<path d="M20.3178 15.9452C18.9221 15.9452 17.7954 14.8172 17.7954 13.4199C17.7954 12.0225 18.9221 10.8945 20.3178 10.8945C21.7135 10.8945 22.8401 12.0225 22.8401 13.4199C22.8401 14.8088 21.7135 15.9452 20.3178 15.9452Z" fill="#50E6FF"/>
<path d="M27.8842 15.9452C26.4885 15.9452 25.3618 14.8172 25.3618 13.4199C25.3618 12.0225 26.4885 10.8945 27.8842 10.8945C29.2799 10.8945 30.4065 12.0225 30.4065 13.4199C30.4065 14.8088 29.2799 15.9452 27.8842 15.9452Z" fill="#50E6FF"/>
<path d="M35.4266 15.9452C34.0309 15.9452 32.9043 14.8172 32.9043 13.4199C32.9043 12.0225 34.0309 10.8945 35.4266 10.8945C36.8223 10.8945 37.949 12.0225 37.949 13.4199C37.949 14.8088 36.8139 15.9452 35.4266 15.9452Z" fill="#50E6FF"/>
<path d="M43.0184 15.9452C41.6227 15.9452 40.4961 14.8172 40.4961 13.4199C40.4961 12.0225 41.6227 10.8945 43.0184 10.8945C44.4141 10.8945 45.5408 12.0225 45.5408 13.4199C45.5408 14.8088 44.4141 15.9452 43.0184 15.9452Z" fill="#50E6FF"/>
<path d="M5.15809 23.5468C3.76239 23.5468 2.63574 22.4188 2.63574 21.0214C2.63574 19.6241 3.76239 18.4961 5.15809 18.4961C6.55379 18.4961 7.68044 19.6241 7.68044 21.0214C7.68044 22.4188 6.54539 23.5468 5.15809 23.5468Z" fill="#50E6FF"/>
<path d="M12.725 23.5468C11.3293 23.5468 10.2026 22.4188 10.2026 21.0214C10.2026 19.6241 11.3293 18.4961 12.725 18.4961C14.1207 18.4961 15.2473 19.6241 15.2473 21.0214C15.2473 22.4188 14.1123 23.5468 12.725 23.5468Z" fill="#50E6FF"/>
<path d="M20.3178 23.5468C18.9221 23.5468 17.7954 22.4188 17.7954 21.0214C17.7954 19.6241 18.9221 18.4961 20.3178 18.4961C21.7135 18.4961 22.8401 19.6241 22.8401 21.0214C22.8401 22.4188 21.7135 23.5468 20.3178 23.5468Z" fill="#50E6FF"/>
<path d="M27.8842 23.5468C26.4885 23.5468 25.3618 22.4188 25.3618 21.0214C25.3618 19.6241 26.4885 18.4961 27.8842 18.4961C29.2799 18.4961 30.4065 19.6241 30.4065 21.0214C30.4065 22.4188 29.2799 23.5468 27.8842 23.5468Z" fill="#50E6FF"/>
<path d="M35.4266 23.5468C34.0309 23.5468 32.9043 22.4188 32.9043 21.0214C32.9043 19.6241 34.0309 18.4961 35.4266 18.4961C36.8223 18.4961 37.949 19.6241 37.949 21.0214C37.949 22.4188 36.8139 23.5468 35.4266 23.5468Z" fill="#50E6FF"/>
<path d="M43.0184 23.5468C41.6227 23.5468 40.4961 22.4188 40.4961 21.0214C40.4961 19.6241 41.6227 18.4961 43.0184 18.4961C44.4141 18.4961 45.5408 19.6241 45.5408 21.0214C45.5408 22.4188 44.4141 23.5468 43.0184 23.5468Z" fill="#50E6FF"/>
<path d="M5.15809 31.121C3.76239 31.121 2.63574 29.993 2.63574 28.5956C2.63574 27.1983 3.76239 26.0703 5.15809 26.0703C6.55379 26.0703 7.68044 27.1983 7.68044 28.5956C7.68044 29.993 6.54539 31.121 5.15809 31.121Z" fill="#50E6FF"/>
<path d="M12.725 31.121C11.3293 31.121 10.2026 29.993 10.2026 28.5956C10.2026 27.1983 11.3293 26.0703 12.725 26.0703C14.1207 26.0703 15.2473 27.1983 15.2473 28.5956C15.2473 29.993 14.1123 31.121 12.725 31.121Z" fill="#50E6FF"/>
<path d="M20.3178 31.121C18.9221 31.121 17.7954 29.993 17.7954 28.5956C17.7954 27.1983 18.9221 26.0703 20.3178 26.0703C21.7135 26.0703 22.8401 27.1983 22.8401 28.5956C22.8401 29.993 21.7135 31.121 20.3178 31.121Z" fill="#50E6FF"/>
<path d="M5.15809 38.6991C3.76239 38.6991 2.63574 37.5711 2.63574 36.1738C2.63574 34.7764 3.76239 33.6484 5.15809 33.6484C6.55379 33.6484 7.68044 34.7764 7.68044 36.1738C7.68044 37.5711 6.54539 38.6991 5.15809 38.6991Z" fill="#50E6FF"/>
<path d="M12.725 38.6991C11.3293 38.6991 10.2026 37.5711 10.2026 36.1738C10.2026 34.7764 11.3293 33.6484 12.725 33.6484C14.1207 33.6484 15.2473 34.7764 15.2473 36.1738C15.2473 37.5711 14.1123 38.6991 12.725 38.6991Z" fill="#50E6FF"/>
<path d="M20.3178 38.6991C18.9221 38.6991 17.7954 37.5711 17.7954 36.1738C17.7954 34.7764 18.9221 33.6484 20.3178 33.6484C21.7135 33.6484 22.8401 34.7764 22.8401 36.1738C22.8401 37.5711 21.7135 38.6991 20.3178 38.6991Z" fill="#50E6FF"/>
<path d="M5.15809 46.2694C3.76239 46.2694 2.63574 45.1414 2.63574 43.7441C2.63574 42.3467 3.76239 41.2188 5.15809 41.2188C6.55379 41.2188 7.68044 42.3467 7.68044 43.7441C7.68044 45.1414 6.54539 46.2694 5.15809 46.2694Z" fill="#50E6FF"/>
<path d="M12.725 46.2694C11.3293 46.2694 10.2026 45.1414 10.2026 43.7441C10.2026 42.3467 11.3293 41.2188 12.725 41.2188C14.1207 41.2188 15.2473 42.3467 15.2473 43.7441C15.2473 45.1414 14.1123 46.2694 12.725 46.2694Z" fill="#50E6FF"/>
<path d="M20.3178 46.2694C18.9221 46.2694 17.7954 45.1414 17.7954 43.7441C17.7954 42.3467 18.9221 41.2188 20.3178 41.2188C21.7135 41.2188 22.8401 42.3467 22.8401 43.7441C22.8401 45.1414 21.7135 46.2694 20.3178 46.2694Z" fill="#50E6FF"/>
<path d="M48.1221 47.0159L40.8156 39.7766C41.9171 38.3287 42.5729 36.5273 42.5729 34.5744C42.5729 29.8352 38.7305 25.9883 33.9969 25.9883C29.2633 25.9883 25.4209 29.8352 25.4209 34.5744C25.4209 39.3136 29.2633 43.1605 33.9969 43.1605C35.8718 43.1605 37.6039 42.5629 39.008 41.5443L46.348 48.8173L48.1221 47.0159ZM33.9969 40.6352C30.659 40.6352 27.9432 37.9163 27.9432 34.5744C27.9432 31.2326 30.659 28.5136 33.9969 28.5136C37.3348 28.5136 40.0505 31.2326 40.0505 34.5744C40.0505 37.9163 37.3348 40.6352 33.9969 40.6352Z" fill="#0078D4"/>
</svg>
