<svg data-slug-id="build12" viewBox="0 0 49 49" xmlns="http://www.w3.org/2000/svg">
<path d="M0.608398 48.5117H48.6084V0.511719H0.608398V48.5117Z" fill="#0078D4"/>
<path d="M3.14795 38.4977H20.8495V33.3594H3.14795V38.4977Z" fill="#50E6FF"/>
<path d="M3.14795 46.0055H13.1124V40.8672H3.14795V46.0055Z" fill="white"/>
<path d="M30.612 23.418L27.0684 26.9616L38.6866 38.5799L42.2302 35.0362L30.612 23.418Z" fill="#50E6FF"/>
<path d="M23.3727 5.51562C16.3697 5.51562 10.6914 11.194 10.6914 18.1969C10.6914 25.1999 16.3697 30.8783 23.3727 30.8783C30.3757 30.8783 36.054 25.1999 36.054 18.1969C36.054 11.194 30.3757 5.51562 23.3727 5.51562ZM23.3727 25.8243C19.1625 25.8243 15.7538 22.4156 15.7538 18.2054C15.7538 13.9951 19.1625 10.5865 23.3727 10.5865C27.583 10.5865 30.9916 13.9951 30.9916 18.2054C30.9916 22.4156 27.583 25.8243 23.3727 25.8243Z" fill="#50E6FF"/>
</svg>
