<svg data-slug-id="buildings-cloud-blue" xmlns="http://www.w3.org/2000/svg" viewBox="0 0 48 48">
  <path d="M0 47.9995H23.9956V0H0V47.9995Z" fill="#0078D4"/>
  <path d="M23.9952 48.0003H47.9908V23.9963H23.9952V48.0003Z" fill="#50E6FF"/>
  <path d="M5.0199 10.0652H10.0734V5.01172H5.0199V10.0652V10.0652Z" fill="#50E6FF"/>
  <path d="M12.6001 10.0652H17.6536V5.01172H12.6001V10.0652Z" fill="#50E6FF"/>
  <path d="M5.0199 17.6274H10.0734V12.574H5.0199V17.6274V17.6274Z" fill="#50E6FF"/>
  <path d="M12.6001 17.6274H17.6536V12.574H12.6001V17.6274Z" fill="#50E6FF"/>
  <path d="M5.0199 25.1592H10.0734V20.1057H5.0199V25.1592V25.1592Z" fill="#50E6FF"/>
  <path d="M12.6001 25.1592H17.6536V20.1057H12.6001V25.1592Z" fill="#50E6FF"/>
  <path d="M5.0199 32.772H10.0734V27.7185H5.0199V32.772V32.772Z" fill="#50E6FF"/>
  <path d="M12.6001 32.772H17.6536V27.7185H12.6001V32.772Z" fill="#50E6FF"/>
  <path d="M30.2448 32.6785H35.2982V27.625H30.2448V32.6785Z" fill="#0078D4"/>
  <path d="M37.8254 32.6785H42.8789V27.625H37.8254V32.6785Z" fill="#0078D4"/>
  <path d="M43.4261 13.7015H43.3924C43.5609 13.2888 43.6535 12.8424 43.6535 12.3791C43.6535 10.4336 42.0701 8.85014 40.1245 8.85014C39.7118 8.85014 39.316 8.92594 38.9454 9.05227C37.9768 7.85629 36.4945 7.08984 34.8268 7.08984C31.9042 7.08984 29.5291 9.45655 29.5291 12.3791C29.5291 12.834 29.588 13.2803 29.6975 13.7015C28.6279 13.7267 27.7688 14.6027 27.7688 15.6807C27.7688 16.7757 28.6616 17.6684 29.7565 17.6684H43.4346C44.5295 17.6684 45.4223 16.7757 45.4223 15.6807C45.4054 14.5858 44.521 13.7015 43.4261 13.7015Z" fill="#0078D4"/>
  <path d="M40.3688 40.2261H32.7717V47.9916H40.3688V40.2261Z" fill="#0078D4"/>
  <path d="M14.9752 40.2261H7.37817V47.9916H14.9752V40.2261Z" fill="#50E6FF"/>
</svg>
