<svg data-slug-id="build16" viewBox="0 0 48 48" xmlns="http://www.w3.org/2000/svg">
    <path d="M47.8985 26.5429V21.5143H42.6927C42.2624 18.2659 40.9799 15.1863 38.9887 12.5791L42.6674 8.90045L39.1068 5.3399L35.4366 9.01858C32.8294 7.02736 29.7498 5.75333 26.5014 5.31459V0.117188H21.4643V5.32302C18.216 5.75333 15.1363 7.0358 12.5292 9.02701L8.85895 5.3399L5.29839 8.90045L8.97707 12.5791C6.98586 15.1863 5.71182 18.2659 5.27308 21.5143H0.0756836V26.5514H5.28152C5.83838 30.6519 7.71991 34.4571 10.6477 37.3849C13.5754 40.3127 17.3807 42.1942 21.4812 42.751V47.9569H26.5183V42.751C29.7667 42.3207 32.8463 41.0383 35.4534 39.047L39.1321 42.7257L42.6927 39.1652L39.014 35.4865C41.0052 32.8794 42.2792 29.7997 42.718 26.5514H47.8985V26.5429ZM10.1414 24.0286C10.1414 20.8224 11.2552 17.7259 13.2801 15.2453C15.3135 12.7732 18.14 11.0773 21.2787 10.4529C24.4174 9.82856 27.6826 10.3095 30.5092 11.8198C33.3357 13.3301 35.5462 15.7684 36.7697 18.7299C37.9931 21.6915 38.1534 24.982 37.2253 28.0448C36.2972 31.1075 34.3313 33.7568 31.6651 35.5371C28.9989 37.3174 25.8011 38.1189 22.6202 37.8068C19.4309 37.4946 16.4526 36.0855 14.1913 33.8159C12.9004 32.5334 11.8795 31.0063 11.1792 29.3272C10.4958 27.6482 10.1414 25.8511 10.1414 24.0286Z" fill="#50E6FF"/>
    <path d="M28.9572 25.1528L22.9076 19.1032L28.3666 13.6443C26.3332 12.8006 24.1057 12.5727 21.9458 12.9862C19.7858 13.3996 17.7946 14.4374 16.2252 15.973C14.6475 17.5086 13.559 19.4745 13.095 21.6176C12.6309 23.7691 12.7997 26.005 13.5928 28.0553L1.53584 40.1038C0.683672 40.9559 0.211182 42.1118 0.211182 43.31C0.211182 44.5081 0.683672 45.664 1.53584 46.5161C2.38801 47.3683 3.54393 47.8408 4.74203 47.8408C5.94013 47.8408 7.09605 47.3683 7.94822 46.5161L19.9967 34.4845C22.047 35.2776 24.2829 35.4464 26.4344 34.9823C28.5859 34.5183 30.5434 33.4214 32.079 31.8521C33.6146 30.2743 34.6524 28.2915 35.0658 26.1315C35.4792 23.9716 35.2514 21.7357 34.4077 19.7107L28.9572 25.1528ZM6.35356 44.9215C6.03294 45.2421 5.62795 45.453 5.18921 45.5458C4.75047 45.6302 4.29485 45.588 3.88142 45.4193C3.46799 45.2505 3.11362 44.9552 2.8605 44.584C2.60738 44.2127 2.48082 43.774 2.48082 43.3268C2.48082 42.8796 2.61582 42.4409 2.8605 42.0697C3.11362 41.6984 3.46799 41.4031 3.88142 41.2344C4.29485 41.0656 4.75047 41.015 5.18921 41.1078C5.62795 41.1922 6.03294 41.4116 6.35356 41.7322C6.77543 42.154 7.02011 42.7362 7.02011 43.3353C7.02011 43.9174 6.77543 44.4912 6.35356 44.9215Z" fill="#0078D4"/>
    <rect x="16" y="23" width="9" height="9" fill="#50E6FF"/>
    <path d="M20.9969 21.0167C13.6522 21.0167 13.7234 20.3619 13.7234 27.3352C13.7234 34.3085 12.6552 34 20 34C27.3447 34 25.9999 35.9733 25.9999 29C25.9999 22.0267 27.6464 21.0167 20.9969 21.0167ZM21.7253 23.0657V27.3352H17.2172L21.7253 23.0657ZM19.5863 31.6104V27.341H24.0954L19.5863 31.6104Z" fill="#0078D4"/>
</svg>
