<svg data-slug-id="build11" viewBox="0 0 49 49" xmlns="http://www.w3.org/2000/svg">
<path d="M34.555 18.2145C36.6443 18.2145 38.3381 16.5208 38.3381 14.4315C38.3381 12.3422 36.6443 10.6484 34.555 10.6484C32.4657 10.6484 30.772 12.3422 30.772 14.4315C30.772 16.5208 32.4657 18.2145 34.555 18.2145Z" fill="#0078D4"/>
<path d="M34.5547 16.546C35.7227 16.546 36.6695 15.5992 36.6695 14.4312C36.6695 13.2632 35.7227 12.3164 34.5547 12.3164C33.3868 12.3164 32.4399 13.2632 32.4399 14.4312C32.4399 15.5992 33.3868 16.546 34.5547 16.546Z" fill="#50E6FF"/>
<path d="M41.8343 2.18946L40.5115 0.934065C40.1829 0.622321 39.6942 0.571769 39.3067 0.807682C38.4641 1.32164 36.7369 2.56861 34.6726 5.18894C31.8417 8.77819 31.8164 11.7103 31.8164 11.8282V12.359L32.3304 12.2326C33.6532 11.904 35.2624 11.5839 35.6247 11.626C35.8775 11.8029 36.6189 12.5275 37.0908 13.0078L37.6805 13.6144L37.7985 12.7803C37.8069 12.7466 38.3125 9.19947 38.9612 7.36271C39.4583 5.95565 41.1518 4.14417 41.8512 3.42801C42.0112 3.2595 42.1039 3.04044 42.0955 2.80452C42.0955 2.56861 42.0028 2.34955 41.8343 2.18946Z" fill="#0078D4"/>
<path d="M31.5134 16.6875L31.5808 17.1846C31.7325 18.2968 31.8083 21.7681 31.0079 26.9582C30.376 31.0277 29.4745 33.3194 26.4329 38.619C24.3686 42.2251 22.2117 44.677 21.386 45.5616C21.0574 45.9071 21.0405 46.4547 21.3439 46.8255L22.2875 47.9882C22.4645 48.2072 22.7256 48.3336 23.0037 48.3421C23.0121 48.3421 23.029 48.3421 23.0374 48.3421C23.307 48.3421 23.5598 48.2325 23.7451 48.0387C25.3207 46.3452 29.1037 42.2336 30.1232 40.5822C31.9347 37.667 33.2154 35.1309 34.7741 30.1262C35.3976 28.1377 35.861 25.3742 36.1559 21.9029C36.3749 19.3247 36.4171 17.3026 36.4171 17.2857L36.4255 16.8813L31.5134 16.6875Z" fill="#0078D4"/>
<path d="M48.0442 9.67972L46.8141 8.09573C46.6708 7.91037 46.4518 7.79241 46.2243 7.77556C45.9884 7.75871 45.7609 7.84296 45.5924 8.00305C45.1542 8.42432 44.278 9.22474 43.3849 9.78925C42.7361 10.2021 41.3543 10.6824 39.5934 11.1036C39.307 11.171 39.071 11.3648 38.9362 11.626C38.8099 11.8872 38.8014 12.1989 38.9194 12.4686C39.1974 13.0836 39.3322 13.7408 39.3322 14.4233C39.3322 14.9794 39.2396 15.5186 39.0542 16.0325C38.9194 16.4033 39.0289 16.8161 39.3238 17.0773C39.5007 17.2374 39.7282 17.3132 39.9557 17.3132C40.1074 17.3132 40.2506 17.2795 40.3938 17.2121C42.0537 16.3696 44.2527 15.1394 45.3396 14.061C46.5613 12.8393 47.5555 11.626 48.0358 11.0194C48.3475 10.6318 48.3475 10.0757 48.0442 9.67972Z" fill="#0078D4"/>
<path d="M30.797 10.6541C30.637 10.3677 30.3421 10.1991 30.0135 10.216L29.5585 10.2497L29.4405 10.3677C29.4153 10.3929 27.2246 12.7015 24.8234 13.5356C23.8292 13.8811 22.7086 14.1591 21.5206 14.454C19.7344 14.9006 17.7123 15.4061 15.589 16.2655C15.2689 16.4003 14.9571 16.5267 14.6454 16.6446C11.5532 17.8916 9.32048 18.7931 6.86024 20.672C4.82969 22.2223 2.46213 24.4551 1.54375 25.3398C1.13933 25.7273 1.11405 26.3592 1.46792 26.7805L2.24307 27.6905C2.42843 27.9095 2.68119 28.0359 2.96766 28.0612C2.99294 28.0612 3.01821 28.0612 3.05192 28.0612C3.30468 28.0612 3.54902 27.9685 3.74281 27.8C5.34365 26.4014 11.0814 21.6999 17.746 19.7368C23.2899 18.1023 27.688 17.6136 29.3142 17.4788C29.6175 17.4535 29.8787 17.2934 30.0388 17.0406C30.1988 16.7879 30.2241 16.4761 30.1146 16.1981C29.8871 15.6336 29.7776 15.0354 29.7776 14.4287C29.7776 13.3756 30.1146 12.3813 30.7381 11.5472C30.9319 11.286 30.9571 10.9406 30.797 10.6541Z" fill="#0078D4"/>
</svg>
