<svg data-slug-id="build14" viewBox="0 0 49 49" xmlns="http://www.w3.org/2000/svg">
<path d="M48.2881 27.0546V22.026H43.0823C42.652 18.7776 41.3695 15.698 39.3783 13.0909L43.057 9.41217L39.4964 5.85162L35.8262 9.53029C33.2191 7.53908 30.1394 6.26505 26.8911 5.8263V0.628906H21.854V5.83474C18.6056 6.26505 15.526 7.54752 12.9188 9.53873L9.2486 5.85162L5.68804 9.41217L9.36672 13.0909C7.37551 15.698 6.10147 18.7776 5.66273 22.026H0.465332V27.0631H5.67117C6.22803 31.1636 8.10956 34.9689 11.0373 37.8966C13.9651 40.8244 17.7703 42.7059 21.8709 43.2628V48.4686H26.9079V43.2628C30.1563 42.8325 33.2359 41.55 35.8431 39.5588L39.5218 43.2374L43.0823 39.6769L39.4036 35.9982C41.3948 33.3911 42.6689 30.3115 43.1076 27.0631H48.2881V27.0546ZM10.5311 24.5403C10.5311 21.3341 11.6448 18.2376 13.6698 15.757C15.7032 13.2849 18.5297 11.589 21.6684 10.9646C24.807 10.3403 28.0723 10.8212 30.8988 12.3315C33.7253 13.8418 35.9359 16.2802 37.1593 19.2417C38.3827 22.2032 38.543 25.4937 37.6149 28.5565C36.6868 31.6192 34.7209 34.2686 32.0547 36.0488C29.3885 37.8291 26.1908 38.6307 23.0099 38.3185C19.8206 38.0063 16.8422 36.5973 14.581 34.3276C13.2901 33.0451 12.2692 31.518 11.5689 29.839C10.8854 28.1599 10.5311 26.3628 10.5311 24.5403Z" fill="#50E6FF"/>
<path d="M29.3471 25.6643L23.2975 19.6147L28.7565 14.1558C26.7231 13.312 24.4956 13.0842 22.3356 13.4976C20.1757 13.9111 18.1845 14.9489 16.6151 16.4845C15.0374 18.0201 13.9489 19.986 13.4849 22.129C13.0208 24.2806 13.1896 26.5165 13.9827 28.5667L1.92574 40.6152C1.07356 41.4674 0.601074 42.6233 0.601074 43.8214C0.601074 45.0195 1.07356 46.1754 1.92574 47.0276C2.77791 47.8798 3.93382 48.3523 5.13192 48.3523C6.33002 48.3523 7.48594 47.8798 8.33811 47.0276L20.3866 34.996C22.4369 35.7891 24.6728 35.9578 26.8243 35.4938C28.9758 35.0297 30.9333 33.9329 32.4689 32.3635C34.0045 30.7857 35.0423 28.803 35.4557 26.643C35.8691 24.4831 35.6413 22.2472 34.7976 20.2222L29.3471 25.6643ZM6.74345 45.433C6.42284 45.7536 6.01784 45.9645 5.5791 46.0573C5.14036 46.1417 4.68474 46.0995 4.27131 45.9308C3.85789 45.762 3.50352 45.4667 3.2504 45.0955C2.99728 44.7242 2.87072 44.2855 2.87072 43.8383C2.87072 43.3911 3.00571 42.9524 3.2504 42.5811C3.50352 42.2099 3.85789 41.9146 4.27131 41.7458C4.68474 41.5771 5.14036 41.5265 5.5791 41.6193C6.01784 41.7037 6.42284 41.923 6.74345 42.2436C7.16532 42.6655 7.41 43.2477 7.41 43.8467C7.41 44.4289 7.16532 45.0027 6.74345 45.433Z" fill="#0078D4"/>
<path d="M27.5077 32.1185H24.9765C24.9765 27.8661 21.5172 24.3984 17.2563 24.3984V21.8672C22.9094 21.8672 27.5077 26.4655 27.5077 32.1185Z" fill="#50E6FF"/>
<path d="M23.5415 32.1172H21.0103C21.0103 30.0501 19.3313 28.3711 17.2642 28.3711V25.8399C20.7235 25.8314 23.5415 28.6495 23.5415 32.1172Z" fill="#50E6FF"/>
</svg>
