<svg data-slug-id="build01" viewBox="0 0 49 49" xmlns="http://www.w3.org/2000/svg">
<path d="M17.9226 34.5681C26.731 34.5681 33.8805 27.4271 33.8805 18.6102C33.8805 9.80182 26.7395 2.65234 17.9226 2.65234C9.10578 2.65234 1.97314 9.80182 1.97314 18.6102C1.97314 27.4271 9.1142 34.5681 17.9226 34.5681Z" fill="#50E6FF"/>
<path d="M47.5139 45.0688L31.775 29.3299C34.0487 26.3657 35.4045 22.652 35.4045 18.6267C35.4045 8.90884 27.5224 1.03516 17.8045 1.03516C8.09499 1.04358 0.212891 8.91726 0.212891 18.6267C0.212891 28.3446 8.08657 36.2183 17.8045 36.2183C21.7034 36.2183 25.3076 34.9467 28.2213 32.8078L43.9939 48.572L47.5139 45.0688ZM5.27394 18.6267C5.27394 11.6962 10.8908 6.07937 17.8213 6.07937C24.7518 6.07937 30.3687 11.6962 30.3687 18.6267C30.3687 25.5573 24.7434 31.1741 17.8129 31.1741C10.8908 31.1741 5.27394 25.5573 5.27394 18.6267Z" fill="#0078D4"/>
<path d="M23.4048 14.5105C23.4048 11.42 20.8701 8.85156 17.7459 8.85156C14.9669 8.85156 12.6427 10.8979 12.1964 13.5758H14.4869C14.6638 13.02 14.9417 12.5316 15.3543 12.1189C16.0111 11.4621 16.8448 11.1084 17.7459 11.1084C18.6469 11.1084 19.4806 11.4537 20.1374 12.1189C20.7943 12.7758 21.148 13.6095 21.148 14.5105C21.148 14.6874 21.148 15.201 21.148 15.8663H12.1206V27.1842H23.4048C23.4048 27.1842 23.4048 14.7547 23.4048 14.5105Z" fill="#0078D4"/>
<path d="M17.7459 22.8717C18.4954 22.8717 19.1017 22.2654 19.1017 21.5159C19.1017 20.7665 18.4954 20.1602 17.7459 20.1602C16.9965 20.1602 16.3901 20.7665 16.3901 21.5159C16.3901 22.2654 16.9965 22.8717 17.7459 22.8717Z" fill="#50E6FF"/>
</svg>
