<svg data-slug-id="buildings-blue" xmlns="http://www.w3.org/2000/svg" viewBox="0 0 49 49">
  <path d="M43.3699 25.4768V39.3715C43.0349 39.3715 42.7136 39.5046 42.4767 39.7414C42.2399 39.9783 42.1068 40.2996 42.1068 40.6346C42.1068 40.9696 42.2399 41.2909 42.4767 41.5278C42.7136 41.7647 43.0349 41.8978 43.3699 41.8978V48.2135H35.791V25.4768H43.3699Z" fill="#50E6FF"/>
  <path d="M24.4227 0.215149C11.1681 0.215149 0.422852 10.9604 0.422852 24.215H5.47546C5.47546 19.1899 7.47168 14.3706 11.025 10.8173C14.5783 7.26398 19.3976 5.26776 24.4227 5.26776C29.4479 5.26776 34.2672 7.26398 37.8205 10.8173C41.3738 14.3706 43.37 19.1899 43.37 24.215H48.4226C48.4226 10.9604 37.6774 0.215149 24.4227 0.215149Z" fill="#50E6FF"/>
  <path d="M30.7391 22.9514H25.6865V25.4777H30.7391V22.9514Z" fill="#0078D4"/>
  <path d="M18.1063 30.5315H10.5273V33.0578H18.1063V30.5315Z" fill="#0078D4"/>
  <path d="M18.1063 35.5842H10.5273V38.1105H18.1063V35.5842Z" fill="#0078D4"/>
  <path d="M18.1063 40.637H10.5273V43.1633H18.1063V40.637Z" fill="#0078D4"/>
  <path d="M13.0545 12.846V25.4775H5.47559V48.2143H35.7912V12.846H13.0545ZM20.6334 45.688H8.00189V28.0038H20.6334V45.688ZM23.1597 22.9512H18.1071V17.8986H23.1597V22.9512ZM30.7386 45.688H25.686V40.6354H30.7386V45.688ZM30.7386 38.1091H25.686V33.0564H30.7386V38.1091ZM30.7386 30.5301H25.686V25.4775H30.7386V30.5301ZM30.7386 22.9512H25.686V17.8986H30.7386V22.9512Z" fill="#0078D4"/>
  <path d="M47.159 40.6359C47.1591 39.9412 46.9682 39.2598 46.6072 38.6662C46.2461 38.0726 45.7289 37.5897 45.1119 37.2703C44.495 36.9508 43.8021 36.8071 43.1089 36.8549C42.4158 36.9027 41.7492 37.1401 41.1819 37.5412C40.6146 37.9422 40.1685 38.4916 39.8923 39.1291C39.6162 39.7666 39.5206 40.4677 39.616 41.1559C39.7114 41.8441 39.9942 42.4927 40.4334 43.031C40.8726 43.5694 41.4514 43.9766 42.1064 44.2081V48.2149H44.6327V44.2081C45.3709 43.9462 46.0101 43.4623 46.4624 42.8227C46.9147 42.1831 47.158 41.4193 47.159 40.6359V40.6359ZM43.3695 41.8991C43.1197 41.8991 42.8755 41.825 42.6678 41.6862C42.46 41.5474 42.2981 41.3501 42.2025 41.1193C42.1069 40.8885 42.0819 40.6345 42.1307 40.3895C42.1794 40.1445 42.2997 39.9194 42.4764 39.7428C42.653 39.5661 42.8781 39.4458 43.1231 39.3971C43.3681 39.3483 43.6221 39.3733 43.8529 39.4689C44.0837 39.5645 44.281 39.7264 44.4198 39.9342C44.5586 40.1419 44.6327 40.3861 44.6327 40.6359C44.6327 40.971 44.4996 41.2922 44.2627 41.5291C44.0258 41.766 43.7045 41.8991 43.3695 41.8991Z" fill="#0078D4"/>
</svg>
