<svg data-slug-id="build03" viewBox="0 0 49 49" xmlns="http://www.w3.org/2000/svg">
<path d="M2.57942 5.5562C1.18994 5.5562 0.0615234 4.43601 0.0615234 3.03787C0.0615234 1.63973 1.18994 0.519531 2.57942 0.519531C3.97731 0.519531 5.09731 1.63973 5.09731 3.03787C5.09731 4.42758 3.96889 5.5562 2.57942 5.5562Z" fill="#50E6FF"/>
<path d="M10.1326 5.5562C8.73475 5.5562 7.61475 4.42758 7.61475 3.03787C7.61475 1.64815 8.74317 0.519531 10.1326 0.519531C11.5221 0.519531 12.6505 1.64815 12.6505 3.03787C12.659 4.42758 11.5221 5.5562 10.1326 5.5562Z" fill="#50E6FF"/>
<path d="M17.7039 5.5562C16.306 5.5562 15.186 4.42758 15.186 3.03787C15.186 1.64815 16.3145 0.519531 17.7039 0.519531C19.0934 0.519531 20.2218 1.64815 20.2218 3.03787C20.2218 4.42758 19.1018 5.5562 17.7039 5.5562Z" fill="#50E6FF"/>
<path d="M25.3333 5.5562C23.9354 5.5562 22.8154 4.42758 22.8154 3.03787C22.8154 1.64815 23.9354 0.519531 25.3333 0.519531C26.7312 0.519531 27.8512 1.64815 27.8512 3.03787C27.8512 4.42758 26.7228 5.5562 25.3333 5.5562Z" fill="#50E6FF"/>
<path d="M32.8616 5.5562C31.4637 5.5562 30.3438 4.42758 30.3438 3.03787C30.3438 1.64815 31.4722 0.519531 32.8616 0.519531C34.2595 0.519531 35.3795 1.64815 35.3795 3.03787C35.3795 4.42758 34.2511 5.5562 32.8616 5.5562Z" fill="#50E6FF"/>
<path d="M40.449 5.5562C39.0512 5.5562 37.9312 4.42758 37.9312 3.03787C37.9312 1.64815 39.0596 0.519531 40.449 0.519531C41.8385 0.519531 42.9669 1.63973 42.9669 3.03787C42.9669 4.42758 41.8385 5.5562 40.449 5.5562Z" fill="#50E6FF"/>
<path d="M2.57991 13.1109C1.18201 13.1109 0.0620117 11.9823 0.0620117 10.5926C0.0620117 9.20284 1.19043 8.07422 2.57991 8.07422C3.9778 8.07422 5.0978 9.20284 5.0978 10.5926C5.0978 11.9823 3.96938 13.1109 2.57991 13.1109Z" fill="#50E6FF"/>
<path d="M40.449 13.1109C39.0512 13.1109 37.9312 11.9823 37.9312 10.5926C37.9312 9.20284 39.0596 8.07422 40.449 8.07422C41.8469 8.07422 42.9669 9.20284 42.9669 10.5926C42.9669 11.9823 41.8385 13.1109 40.449 13.1109Z" fill="#50E6FF"/>
<path d="M2.55403 20.7828C1.15613 20.7828 0.0361328 19.6541 0.0361328 18.2644C0.0361328 16.8747 1.16455 15.7461 2.55403 15.7461C3.95192 15.7461 5.07192 16.8747 5.07192 18.2644C5.07192 19.6541 3.93508 20.7828 2.55403 20.7828Z" fill="#50E6FF"/>
<path d="M17.6956 20.7828C16.2977 20.7828 15.1777 19.6541 15.1777 18.2644C15.1777 16.8747 16.3062 15.7461 17.6956 15.7461C19.0851 15.7461 20.2135 16.8747 20.2135 18.2644C20.2135 19.6541 19.0851 20.7828 17.6956 20.7828Z" fill="#50E6FF"/>
<path d="M25.3333 20.7828C23.9354 20.7828 22.8154 19.6541 22.8154 18.2644C22.8154 16.8747 23.9439 15.7461 25.3333 15.7461C26.7312 15.7461 27.8512 16.8747 27.8512 18.2644C27.8512 19.6541 26.7228 20.7828 25.3333 20.7828Z" fill="#50E6FF"/>
<path d="M40.449 20.7007C39.0512 20.7007 37.9312 19.5721 37.9312 18.1824C37.9312 16.7927 39.0596 15.6641 40.449 15.6641C41.8469 15.6641 42.9669 16.7927 42.9669 18.1824C42.9669 19.5721 41.8385 20.7007 40.449 20.7007Z" fill="#50E6FF"/>
<path d="M2.6385 28.3414C1.24061 28.3414 0.120605 27.2127 0.120605 25.823C0.120605 24.4333 1.24903 23.3047 2.6385 23.3047C4.0364 23.3047 5.1564 24.4333 5.1564 25.823C5.1564 27.2127 4.01955 28.3414 2.6385 28.3414Z" fill="#50E6FF"/>
<path d="M17.7796 28.3414C16.3817 28.3414 15.2617 27.2127 15.2617 25.823C15.2617 24.4333 16.3901 23.3047 17.7796 23.3047C19.1691 23.3047 20.2975 24.4333 20.2975 25.823C20.2975 27.2127 19.1691 28.3414 17.7796 28.3414Z" fill="#50E6FF"/>
<path d="M2.63801 35.9039C1.24012 35.9039 0.120117 34.7752 0.120117 33.3855C0.120117 31.9874 1.24854 30.8672 2.63801 30.8672C4.03591 30.8672 5.15591 31.9958 5.15591 33.3855C5.15591 34.7752 4.01906 35.9039 2.63801 35.9039Z" fill="#50E6FF"/>
<path d="M2.63801 43.4585C1.24012 43.4585 0.120117 42.3299 0.120117 40.9402C0.120117 39.5421 1.24854 38.4219 2.63801 38.4219C4.03591 38.4219 5.15591 39.5505 5.15591 40.9402C5.15591 42.3299 4.01906 43.4585 2.63801 43.4585Z" fill="#50E6FF"/>
<path d="M10.1922 43.4585C8.79432 43.4585 7.67432 42.3299 7.67432 40.9402C7.67432 39.5421 8.80274 38.4219 10.1922 38.4219C11.5817 38.4219 12.7101 39.5505 12.7101 40.9402C12.7101 42.3299 11.5817 43.4585 10.1922 43.4585Z" fill="#50E6FF"/>
<path d="M17.7796 43.4585C16.3817 43.4585 15.2617 42.3299 15.2617 40.9402C15.2617 39.5421 16.3901 38.4219 17.7796 38.4219C19.1691 38.4219 20.2975 39.5505 20.2975 40.9402C20.2975 42.3299 19.1691 43.4585 17.7796 43.4585Z" fill="#50E6FF"/>
<path d="M45.543 44.1166L38.2504 36.8985C39.3535 35.4583 40.002 33.6558 40.002 31.7102C40.002 26.9852 36.162 23.1445 31.4377 23.1445C26.7135 23.1445 22.8735 26.9852 22.8735 31.7102C22.8735 36.4353 26.7135 40.276 31.4377 40.276C33.3072 40.276 35.042 39.678 36.4399 38.6673L43.7662 45.919L45.543 44.1166ZM31.4377 37.7492C28.103 37.7492 25.3914 35.0371 25.3914 31.7018C25.3914 28.3665 28.103 25.6544 31.4377 25.6544C34.7725 25.6544 37.4841 28.3665 37.4841 31.7018C37.4841 35.0371 34.7725 37.7492 31.4377 37.7492Z" fill="#0078D4"/>
<path d="M10.1503 18.1993H7.65771V8.05859H17.704V10.619H10.1503V18.1993Z" fill="#0078D4"/>
<path d="M17.7538 33.4027V35.8957H7.60645V25.8477H10.1664V33.4027H17.7538Z" fill="#0078D4"/>
<path d="M25.291 10.6199V8.10156H35.3794V18.2002H32.8194V10.6199H25.291Z" fill="#0078D4"/>
</svg>
