<svg data-slug-id="built-in-cloud" xmlns="http://www.w3.org/2000/svg" viewBox="0 0 48 48">
<path d="M41.8573 39.9673C45.3833 36.0178 47.6302 30.8809 47.9247 25.2388H43.0102C42.7325 29.5251 41.0242 33.4325 38.365 36.4726L41.8573 39.9673Z" fill="#0078D4"/>
<path d="M6.15996 7.88306C2.57506 11.8494 0.302949 17.0116 0 22.7042H5.1333C5.41942 18.4263 7.1193 14.5357 9.7701 11.4957L6.15996 7.88306Z" fill="#50E6FF"/>
<path d="M7.96948 41.8784C11.9415 45.4321 17.1 47.689 22.7803 47.9669V42.9311C18.497 42.6447 14.6091 40.9352 11.5712 38.2742L7.96948 41.8784Z" fill="#0078D4"/>
<path d="M0 25.2388C0.294534 30.9315 2.56665 36.0936 6.14313 40.06L9.75327 36.4473C7.11088 33.4073 5.41942 29.5167 5.1333 25.2388H0Z" fill="#0078D4"/>
<path d="M41.8403 7.97681L38.348 11.4716C41.0157 14.5116 42.7239 18.4106 43.0017 22.7054H47.9162C47.6216 17.0548 45.3748 11.9263 41.8403 7.97681Z" fill="#50E6FF"/>
<path d="M25.3127 47.9486C30.9678 47.637 36.1095 45.3549 40.0478 41.7927L36.5471 38.2896C33.5008 40.9506 29.5961 42.6517 25.3043 42.9296V47.9486H25.3127Z" fill="#0078D4"/>
<path d="M25.313 0.0078125V5.02681C29.5963 5.3047 33.4926 6.99735 36.5389 9.65001L40.0397 6.14682C36.0929 2.5931 30.9596 0.319394 25.313 0.0078125Z" fill="#50E6FF"/>
<path d="M22.7798 0C17.0995 0.277897 11.9494 2.52634 7.97742 6.07163L11.5791 9.67588C14.6086 7.02322 18.4965 5.32215 22.7714 5.02741V0H22.7798Z" fill="#50E6FF"/>
<path d="M36.7912 25.7197C36.7996 25.6607 36.8164 25.6018 36.8248 25.5513C36.8922 25.1976 36.9258 24.8355 36.9258 24.4649C36.9258 21.2733 34.3424 18.688 31.153 18.688C30.707 18.688 30.2778 18.7386 29.8654 18.8396C28.5442 16.7596 26.2301 15.387 23.5877 15.387C19.4894 15.387 16.1654 18.7133 16.1654 22.8144C16.1654 22.9155 16.1654 23.0165 16.1738 23.1176C15.8036 22.9912 15.3996 22.9239 14.9789 22.9239C12.9592 22.9239 11.3267 24.5576 11.3267 26.5786C11.3267 28.4734 12.7741 30.0313 14.617 30.2166L31.153 30.2503C33.3241 30.2503 35.2091 29.0545 36.2021 27.286C36.2274 27.2355 36.261 27.185 36.2863 27.1344C36.4377 26.8144 36.6565 26.3344 36.7912 25.7197Z" fill="#50E6FF"/>
</svg>
