<svg data-slug-id="build08" viewBox="0 0 49 49" xmlns="http://www.w3.org/2000/svg">
<path d="M15.5095 0.554688H2.86279V3.04012H4.14433V43.6159C4.14433 46.1267 6.39544 48.5026 9.17772 48.5026C11.96 48.5026 14.2111 46.1267 14.2111 43.6159V3.04012H15.5095V0.554688Z" fill="#0078D4"/>
<path d="M12.9719 5.53125H5.3501V42.8212C5.3501 44.9275 7.05319 46.6294 9.16097 46.6294C11.2688 46.6294 12.9719 44.9275 12.9719 42.8212V5.53125Z" fill="#50E6FF"/>
<path d="M30.6771 13.1641H18.022V15.6579H19.3119V43.6128C19.3119 46.1235 21.5631 48.4994 24.3453 48.4994C27.1276 48.4994 29.3787 46.1235 29.3787 43.6128V15.6579H30.6771V13.1641Z" fill="#0078D4"/>
<path d="M28.1388 20.6094H20.5171V42.8351C20.5171 44.9414 22.2202 46.6433 24.328 46.6433C26.4358 46.6433 28.1388 44.9414 28.1388 42.8351V20.6094Z" fill="#50E6FF"/>
<path d="M45.785 5.59375H33.1299V8.08761H34.5463V43.6252C34.5463 46.1359 36.7974 48.5118 39.5797 48.5118C42.362 48.5118 44.6131 46.1359 44.6131 43.6252V8.07919H45.7766V5.59375H45.785Z" fill="#0078D4"/>
<path d="M43.3737 13.1172H35.752V42.8329C35.752 44.9392 37.455 46.6411 39.5628 46.6411C41.6706 46.6411 43.3737 44.9392 43.3737 42.8329V13.1172V13.1172Z" fill="#50E6FF"/>
</svg>
