<svg data-slug-id="build04" viewBox="0 0 49 50" xmlns="http://www.w3.org/2000/svg">
<path d="M18.462 16.9029C18.7149 14.3154 19.7347 11.9554 21.3024 10.059L17.8215 6.57812C15.5458 9.19935 14.0371 12.4948 13.6157 16.1275C15.3267 16.3129 16.9281 16.8439 18.3693 17.6361L18.462 16.9029Z" fill="#0078D4"/>
<path d="M23.0903 8.26582C24.9951 6.70657 27.355 5.67831 29.9341 5.42546V0.511719C25.9981 0.789855 22.416 2.35753 19.6094 4.7849L23.0903 8.26582Z" fill="#0078D4"/>
<path d="M32.4619 0.511719V5.42546C35.0494 5.67831 37.4094 6.69814 39.3058 8.26582L42.7867 4.7849C39.98 2.35753 36.398 0.789855 32.4619 0.511719Z" fill="#0078D4"/>
<path d="M43.9331 16.9029H48.8469C48.5687 12.9668 47.0011 9.38477 44.5737 6.57812L41.0928 10.059C42.6605 11.9554 43.6803 14.3154 43.9331 16.9029Z" fill="#50E6FF"/>
<path d="M41.1016 26.2774L44.5825 29.7583C47.0183 26.9517 48.5775 23.3696 48.8557 19.4336H43.9419C43.6806 22.0211 42.6608 24.381 41.1016 26.2774Z" fill="#50E6FF"/>
<path d="M32.1584 47.2719L20.9487 36.0622C22.5417 34.1068 23.5025 31.612 23.5025 28.898C23.5025 22.6442 18.4286 17.5703 12.1748 17.5703C5.92092 17.5703 0.855469 22.6442 0.855469 28.898C0.855469 35.1519 5.92935 40.2258 12.1832 40.2258C14.8129 40.2258 17.2234 39.3324 19.145 37.8321L30.3716 49.0587L32.1584 47.2719Z" fill="#0078D4"/>
<path d="M12.1831 37.7968C17.0986 37.7968 21.0834 33.812 21.0834 28.8965C21.0834 23.9809 17.0986 19.9961 12.1831 19.9961C7.26754 19.9961 3.28271 23.9809 3.28271 28.8965C3.28271 33.812 7.26754 37.7968 12.1831 37.7968Z" fill="#50E6FF"/>
<path d="M13.4982 22.6289H10.9697V31.5461H13.4982V22.6289Z" fill="#0078D4"/>
<path d="M13.4979 32.7266H10.9609V35.2719H13.4979V32.7266Z" fill="#0078D4"/>
<path d="M39.1202 11.6892L37.3334 9.90234L32.5967 14.6391C32.1668 14.4705 31.6948 14.3694 31.1976 14.3694C29.0989 14.3694 27.4048 16.0719 27.4048 18.1621C27.4048 20.2524 29.1073 21.9549 31.1976 21.9549C33.2878 21.9549 34.9903 20.2524 34.9903 18.1621C34.9903 17.4879 34.8133 16.8473 34.5015 16.2995L39.1202 11.6892Z" fill="#0078D4"/>
</svg>
