<svg data-slug-id="build02" viewBox="0 0 49 49" xmlns="http://www.w3.org/2000/svg">
<path d="M43.173 3.03906H12.8579V48.5117H43.173V3.03906Z" fill="#0078D4"/>
<path d="M38.1202 0.511719H17.9102V5.56423H38.1202V0.511719Z" fill="#50E6FF"/>
<path d="M32.2257 23.2496L25.489 16.5129L31.5604 10.4415C29.3004 9.50212 26.8144 9.24707 24.4107 9.70798C22.0071 10.1689 19.7917 11.3255 18.0395 13.0342C16.2873 14.7429 15.0754 16.9285 14.5542 19.3198C14.033 21.7111 14.2255 24.2028 15.1078 26.4857L1.70598 39.8867C0.762165 40.8363 0.232422 42.1208 0.232422 43.4596C0.232422 44.7985 0.762165 46.083 1.70598 47.0326V47.0326C2.6556 47.9764 3.94008 48.5062 5.27895 48.5062C6.61781 48.5062 7.90229 47.9764 8.85191 47.0326L22.2529 33.6308C24.5357 34.513 27.0272 34.7054 29.4184 34.1842C31.8096 33.6631 33.9951 32.4513 35.7038 30.6992C37.4124 28.9471 38.569 26.7319 39.0301 24.3284C39.4911 21.9249 39.2362 19.439 38.2971 17.179L32.2257 23.2496ZM7.06501 45.2457C6.71174 45.5991 6.2616 45.8398 5.77154 45.9373C5.28147 46.0348 4.77348 45.9849 4.31183 45.7937C3.85017 45.6025 3.45558 45.2787 3.17795 44.8632C2.90033 44.4478 2.75215 43.9593 2.75215 43.4596C2.75215 42.96 2.90033 42.4715 3.17795 42.0561C3.45558 41.6406 3.85017 41.3168 4.31183 41.1256C4.77348 40.9344 5.28147 40.8844 5.77154 40.982C6.2616 41.0795 6.71174 41.3202 7.06501 41.6736C7.53861 42.1473 7.80466 42.7898 7.80466 43.4596C7.80466 44.1295 7.53861 44.772 7.06501 45.2457V45.2457Z" fill="#50E6FF"/>
</svg>
