<svg data-slug-id="calculator02" viewBox="0 0 49 49" xmlns="http://www.w3.org/2000/svg">
<path d="M43.857 43.8711H33.7549V48.8892H43.857V43.8711Z" fill="#0078D7"/>
<path d="M43.857 33.7852H33.7549V38.8032H43.857V33.7852Z" fill="#0078D7"/>
<path d="M43.8654 0.898438H5.95068V18.5544H43.8654V0.898438Z" fill="#0078D7"/>
<path d="M38.7681 5.94141H10.9893V13.5443H38.7681V5.94141Z" fill="#50E6FF"/>
<path d="M43.857 23.6719H33.7549V28.69H43.857V23.6719Z" fill="#0078D7"/>
<path d="M15.985 43.8711H5.88281V48.8892H15.985V43.8711Z" fill="#0078D7"/>
<path d="M15.985 33.7852H5.88281V38.8032H15.985V33.7852Z" fill="#0078D7"/>
<path d="M15.985 23.6719H5.88281V28.69H15.985V23.6719Z" fill="#0078D7"/>
<path d="M30.005 43.8711H19.9028V48.8892H30.005V43.8711Z" fill="#0078D7"/>
<path d="M30.005 33.7852H19.9028V38.8032H30.005V33.7852Z" fill="#0078D7"/>
<path d="M30.005 23.6719H19.9028V28.69H30.005V23.6719Z" fill="#0078D7"/>
</svg>
