<svg data-slug-id="calculator03" viewBox="0 0 49 49" xmlns="http://www.w3.org/2000/svg">
<path d="M36.7388 43.8398H33.6045V48.8544H36.7388V43.8398Z" fill="#0078D7"/>
<path d="M36.7388 38.0779C36.7472 36.4373 37.3285 34.9396 38.2975 33.7617H33.6045V38.7763H36.7388V38.0779Z" fill="#0078D7"/>
<path d="M43.7153 0.898438H5.80078V18.5419H43.7153V0.898438Z" fill="#0078D7"/>
<path d="M38.6181 5.9375H10.8394V13.535H38.6181V5.9375Z" fill="#50E6FF"/>
<path d="M43.7066 23.6562H33.6045V28.6708H43.7066V23.6562Z" fill="#0078D7"/>
<path d="M15.8355 43.8398H5.7334V48.8544H15.8355V43.8398Z" fill="#0078D7"/>
<path d="M15.8355 33.7617H5.7334V38.7763H15.8355V33.7617Z" fill="#0078D7"/>
<path d="M15.8355 23.6562H5.7334V28.6708H15.8355V23.6562Z" fill="#0078D7"/>
<path d="M29.8555 43.8398H19.7534V48.8544H29.8555V43.8398Z" fill="#0078D7"/>
<path d="M29.8555 33.7617H19.7534V38.7763H29.8555V33.7617Z" fill="#0078D7"/>
<path d="M29.8555 23.6562H19.7534V28.6708H29.8555V23.6562Z" fill="#0078D7"/>
<path d="M48.7114 37.5906C48.7114 34.8225 46.4449 32.5508 43.6645 32.5508C41.1706 32.5508 39.0895 34.385 38.6935 36.7576H40.7577C40.8925 36.2696 41.1622 35.8237 41.5329 35.4535C42.1058 34.8814 42.8641 34.5701 43.6645 34.5701C44.4649 34.5701 45.2232 34.8814 45.7962 35.4535C46.3691 36.0256 46.6808 36.7828 46.6808 37.5821C46.6808 37.742 46.6808 38.1963 46.6808 38.7937H38.6177V48.8985H48.7029V39.4668C48.7114 38.5497 48.7114 37.8093 48.7114 37.5906Z" fill="#0078D4"/>
<path d="M43.6648 44.9598C44.381 44.9598 44.9708 44.3793 44.9708 43.6557C44.9708 42.9405 44.3894 42.3516 43.6648 42.3516C42.9487 42.3516 42.3589 42.9321 42.3589 43.6557C42.3673 44.3708 42.9487 44.9598 43.6648 44.9598Z" fill="#50E6FF"/>
</svg>
