<svg data-slug-id="calculator-save" viewBox="0 0 81 81" xmlns="http://www.w3.org/2000/svg">
<path d="M73.2526 4.50781H7.45264C5.75264 4.50781 4.45264 5.80781 4.45264 7.50781V63.5078C4.45264 64.3078 4.75264 65.1078 5.35264 65.7078L15.4526 75.5078C16.0526 76.0078 16.7526 76.3078 17.5526 76.3078H73.1526C74.8526 76.3078 76.1526 75.0078 76.1526 73.3078V7.50781C76.2526 5.80781 74.8526 4.50781 73.2526 4.50781ZM18.1526 7.50781H61.9526V35.5078H18.1526V7.50781ZM52.0526 73.3078H33.7526V60.9078H30.7526V73.2078H23.6526V53.7078H52.0526V73.3078ZM73.2526 73.3078H55.0526V50.7078H20.6526V73.3078H17.5526L7.45264 63.5078V7.50781H15.1526V38.5078H64.9526V7.50781H73.2526V73.3078Z"/>
</svg>
