<svg data-slug-id="calculator-copy" viewBox="0 0 81 81" xmlns="http://www.w3.org/2000/svg">
<path d="M74.6491 16.457H61.1491V5.45703C61.1491 4.65703 60.4491 3.95703 59.6491 3.95703H5.34912C4.54912 3.95703 3.84912 4.65703 3.84912 5.45703V59.857C3.84912 60.657 4.54912 61.357 5.34912 61.357H17.3491V73.857C17.3491 75.557 18.6491 76.857 20.3491 76.857H74.6491C76.3491 76.857 77.6491 75.557 77.6491 73.857V19.457C77.6491 17.857 76.3491 16.457 74.6491 16.457ZM17.3491 19.457V58.257H6.84912V7.05703H58.1491V16.557H20.3491C18.7491 16.457 17.3491 17.857 17.3491 19.457ZM74.6491 73.857H20.3491V19.457H74.6491V73.857Z" />
<path d="M45.7493 60.7555H49.7493V48.0555H62.4493V44.0555H49.7493V31.3555H45.7493V44.0555H33.0493V48.0555H45.7493V60.7555Z"/>
</svg>
