<svg data-slug-id="calculator01" viewBox="0 0 49 49" xmlns="http://www.w3.org/2000/svg">
<path d="M39.8818 1.32031H7.56934V48.3203H39.8818V1.32031Z" fill="#0078D4"/>
<path d="M34.0068 7.19531H13.4443V16.0078H34.0068V7.19531Z" fill="#50E6FF"/>
<path d="M16.3818 21.8828H13.4443V24.8203H16.3818V21.8828Z" fill="#50E6FF"/>
<path d="M16.3818 30.6953H13.4443V33.6328H16.3818V30.6953Z" fill="#50E6FF"/>
<path d="M16.3818 39.5078H13.4443V42.4453H16.3818V39.5078Z" fill="#50E6FF"/>
<path d="M25.1943 21.8828H22.2568V24.8203H25.1943V21.8828Z" fill="#50E6FF"/>
<path d="M25.1943 30.6953H22.2568V33.6328H25.1943V30.6953Z" fill="#50E6FF"/>
<path d="M25.1943 39.5078H22.2568V42.4453H25.1943V39.5078Z" fill="#50E6FF"/>
<path d="M34.0068 21.8828H31.0693V24.8203H34.0068V21.8828Z" fill="#50E6FF"/>
<path d="M34.0068 30.6953H31.0693V33.6328H34.0068V30.6953Z" fill="#50E6FF"/>
<path d="M34.0068 39.5078H31.0693V42.4453H34.0068V39.5078Z" fill="#50E6FF"/>
</svg>
