<svg data-slug-id="calender03" viewBox="0 0 49 49" xmlns="http://www.w3.org/2000/svg">
<path d="M0.0195312 48.3633H48.0195V0.363281H0.0195312V48.3633Z" fill="#0078D4"/>
<path d="M0.0195312 5.39523H48.0195V0.371094H0.0195312V5.39523Z" fill="#50E6FF"/>
<path d="M19.5627 15.1094V36.5592H14.9491V20.3196C14.4599 20.751 13.8104 21.1316 12.9923 21.4784C12.1742 21.8167 11.3392 22.0451 10.4873 22.155V18.2643C12.8068 17.5792 14.8985 16.5303 16.7625 15.1178H19.5627V15.1094Z" fill="#50E6FF"/>
<path d="M28.612 32.7349H37.5103V36.5665H23.543V34.9848C23.543 33.8683 23.7454 32.8618 24.1502 31.9399C24.5551 31.0264 25.0949 30.1721 25.7865 29.394C26.4697 28.6158 27.5746 27.677 29.0928 26.5859C30.4423 25.6216 31.3954 24.7674 31.9689 24.0146C32.5424 23.2703 32.8292 22.4752 32.8292 21.6378C32.8292 19.8193 31.8002 18.9143 29.7422 18.9143C27.9373 18.9143 26.2082 19.6333 24.5635 21.0627V16.9943C26.3854 15.8102 28.4433 15.2266 30.7375 15.2266C32.8461 15.2266 34.5076 15.7594 35.7222 16.8252C36.9367 17.8909 37.544 19.3457 37.544 21.1896C37.544 22.2215 37.3669 23.1603 37.0042 23.9977C36.6415 24.835 36.127 25.6216 35.4523 26.349C34.7775 27.0764 33.698 27.9561 32.2051 28.988C30.7797 30.003 29.8266 30.7811 29.3458 31.314C28.8482 31.8553 28.612 32.3289 28.612 32.7349Z" fill="#50E6FF"/>
</svg>
