<svg data-slug-id="calender04" viewBox="0 0 49 49" xmlns="http://www.w3.org/2000/svg">
<path d="M0.0195312 43.2686H48.0195V6.30859H0.0195312V43.2686Z" fill="#0078D4"/>
<path d="M0.0195312 10.3029H48.0027V5.30078H0.0195312V10.3029Z" fill="#50E6FF"/>
<path d="M7.49742 9.12179C8.17179 9.12179 8.71847 8.57511 8.71847 7.90074C8.71847 7.22637 8.17179 6.67969 7.49742 6.67969C6.82305 6.67969 6.27637 7.22637 6.27637 7.90074C6.27637 8.57511 6.82305 9.12179 7.49742 9.12179Z" fill="white"/>
<path d="M3.70787 9.12179C4.38224 9.12179 4.92892 8.57511 4.92892 7.90074C4.92892 7.22637 4.38224 6.67969 3.70787 6.67969C3.0335 6.67969 2.48682 7.22637 2.48682 7.90074C2.48682 8.57511 3.0335 9.12179 3.70787 9.12179Z" fill="white"/>
<path d="M11.371 9.12179C12.0453 9.12179 12.592 8.57511 12.592 7.90074C12.592 7.22637 12.0453 6.67969 11.371 6.67969C10.6966 6.67969 10.1499 7.22637 10.1499 7.90074C10.1499 8.57511 10.6966 9.12179 11.371 9.12179Z" fill="white"/>
<path d="M16.4237 15.3398H6.24268V25.4535H16.4237V15.3398Z" fill="#50E6FF"/>
<path d="M29.0556 15.3398H18.8745V25.4535H29.0556V15.3398Z" fill="#50E6FF"/>
<path d="M41.6952 15.3398H31.5142V25.4535H41.6952V15.3398Z" fill="white"/>
<path d="M16.4237 27.9766H6.24268V38.0902H16.4237V27.9766Z" fill="white"/>
<path d="M29.0556 27.9766H18.8745V38.0902H29.0556V27.9766Z" fill="white"/>
<path d="M41.6952 27.9766H31.5142V38.0902H41.6952V27.9766Z" fill="#50E6FF"/>
</svg>
