<svg data-slug-id="calendar-12" xmlns="http://www.w3.org/2000/svg" viewBox="0 0 48 48">
  <path d="M0 47.8651H48V0H0V47.8651Z" fill="#0078D4"/>
  <path d="M0 5.01783H48V0.0078125H0V5.01783Z" fill="#50E6FF"/>
  <path d="M19.5429 14.7085V36.0981H14.9293V19.9041C14.4401 20.3343 13.7907 20.7138 12.9726 21.0596C12.1544 21.397 11.3194 21.6247 10.4676 21.7344V17.8545C12.787 17.1714 14.8787 16.1255 16.7427 14.717H19.5429V14.7085Z" fill="#50E6FF"/>
  <path d="M28.5926 32.2807H37.4908V36.1014H23.5235V34.5242C23.5235 33.4109 23.7259 32.4072 24.1308 31.4878C24.5356 30.5769 25.0754 29.725 25.7671 28.9491C26.4502 28.1731 27.5552 27.2369 29.0733 26.1489C30.4228 25.1873 31.3759 24.3355 31.9495 23.5848C32.523 22.8426 32.8098 22.0498 32.8098 21.2148C32.8098 19.4014 31.7808 18.4989 29.7228 18.4989C27.9178 18.4989 26.1888 19.2158 24.5441 20.6412V16.5843C26.3659 15.4035 28.4239 14.8215 30.718 14.8215C32.8266 14.8215 34.4882 15.3529 35.7028 16.4156C36.9173 17.4783 37.5246 18.929 37.5246 20.7677C37.5246 21.7967 37.3475 22.7329 36.9848 23.5679C36.6221 24.4029 36.1076 25.1873 35.4329 25.9127C34.7581 26.6381 33.6785 27.5152 32.1856 28.5442C30.7602 29.5563 29.8071 30.3323 29.3264 30.8637C28.8287 31.4035 28.5926 31.8758 28.5926 32.2807Z" fill="#50E6FF"/>
</svg>
