<svg data-slug-id="calender02" viewBox="0 0 49 49" xmlns="http://www.w3.org/2000/svg">
<path d="M0.0195312 48.2968H48.0195V4.79297H0.0195312V48.2968Z" fill="#0078D4"/>
<path d="M0.0195312 5.40011H48.0195V0.296875H0.0195312V5.40011Z" fill="#50E6FF"/>
<path d="M11.2783 35.5391H6.25098V40.5665H11.2783V35.5391Z" fill="#50E6FF"/>
<path d="M18.8828 35.5391H13.8555V40.5665H18.8828V35.5391Z" fill="#50E6FF"/>
<path d="M26.4531 35.5391H21.4258V40.5665H26.4531V35.5391Z" fill="#50E6FF"/>
<path d="M34.0152 35.5391H28.9878V40.5665H34.0152V35.5391Z" fill="white"/>
<path d="M41.6192 35.5391H36.5918V40.5665H41.6192V35.5391Z" fill="#50E6FF"/>
<path d="M11.2783 27.9766H6.25098V33.004H11.2783V27.9766Z" fill="#50E6FF"/>
<path d="M18.8828 27.9766H13.8555V33.004H18.8828V27.9766Z" fill="white"/>
<path d="M26.4531 27.9766H21.4258V33.004H26.4531V27.9766Z" fill="#50E6FF"/>
<path d="M34.0152 27.9766H28.9878V33.004H34.0152V27.9766Z" fill="#50E6FF"/>
<path d="M41.6192 27.9766H36.5918V33.004H41.6192V27.9766Z" fill="#50E6FF"/>
<path d="M11.2783 20.4141H6.25098V25.4415H11.2783V20.4141Z" fill="#50E6FF"/>
<path d="M18.8828 20.4141H13.8555V25.4415H18.8828V20.4141Z" fill="#50E6FF"/>
<path d="M26.4531 20.4141H21.4258V25.4415H26.4531V20.4141Z" fill="white"/>
<path d="M34.0152 20.4141H28.9878V25.4415H34.0152V20.4141Z" fill="#50E6FF"/>
<path d="M41.6192 20.4141H36.5918V25.4415H41.6192V20.4141Z" fill="#50E6FF"/>
<path d="M11.2783 12.8945H6.25098V17.922H11.2783V12.8945Z" fill="white"/>
<path d="M18.8828 12.8945H13.8555V17.922H18.8828V12.8945Z" fill="#50E6FF"/>
<path d="M26.4531 12.8945H21.4258V17.922H26.4531V12.8945Z" fill="#50E6FF"/>
<path d="M34.0152 12.8945H28.9878V17.922H34.0152V12.8945Z" fill="#50E6FF"/>
<path d="M41.6192 12.8945H36.5918V17.922H41.6192V12.8945Z" fill="#50E6FF"/>
</svg>
