<svg data-slug-id="case-studies-alt" viewBox="0 0 48 48" xmlns="http://www.w3.org/2000/svg">
<path d="M28.7567 39.9431C25.4536 39.9431 22.3606 38.6591 20.0267 36.3251C17.6928 33.9912 16.4087 30.8901 16.4087 27.5952C16.4087 24.3002 17.6928 21.1991 20.0267 18.8652C22.3606 16.5313 25.4617 15.2472 28.7567 15.2472C30.9694 15.2472 33.1015 15.8287 34.967 16.9108V0H13.1622L1 12.1218L1.04846 46H34.967V38.3845L34.9024 38.3199C33.0369 39.3859 30.9371 39.9431 28.7567 39.9431Z" fill="#0078D7"/>
<path d="M37.2851 34.1255C38.6741 32.3165 39.4978 30.0472 39.4978 27.5922C39.4978 23.9742 37.705 20.7762 34.9592 18.8299C33.2068 17.5862 31.0667 16.8594 28.7489 16.8594C22.8212 16.8594 18.0161 21.6645 18.0161 27.5922C18.0161 33.5198 22.8212 38.325 28.7489 38.325C31.0586 38.325 33.1987 37.5901 34.9592 36.3464C35.0077 36.3141 35.0561 36.2737 35.1046 36.2414L44.7229 45.8597L46.8711 43.7196L37.2851 34.1255ZM34.9673 32.0823C33.5702 34.0044 31.3089 35.2481 28.757 35.2481C24.5333 35.2481 21.1091 31.8239 21.1091 27.5922C21.1091 23.3604 24.5333 19.9363 28.765 19.9363C31.317 19.9363 33.5702 21.18 34.9592 23.102C35.8799 24.3618 36.4209 25.9205 36.4209 27.6002C36.429 29.2719 35.8879 30.8225 34.9673 32.0823Z" fill="#0078D7"/>
<path d="M32.4719 23.7734H24.8887V25.2836H32.4719V23.7734Z" fill="#0078D4"/>
<path d="M32.4719 26.8281H24.8887V28.3383H32.4719V26.8281Z" fill="#50E6FF"/>
<path d="M32.4719 29.8945H24.8887V31.4047H32.4719V29.8945Z" fill="#50E6FF"/>
<path d="M1 12.1218L13.1622 0V12.1218H1Z" fill="#50E6FF"/>
</svg>
