<svg data-slug-id="charts01" viewBox="0 0 49 49" xmlns="http://www.w3.org/2000/svg">
<path d="M0.0195312 48.7652H15.2378V33.5469H0.0195312V48.7652Z" fill="#0078D4"/>
<path d="M17.3193 20.8004V28.9335C17.3193 30.8794 18.916 32.4761 20.862 32.4761H28.995C30.941 32.4761 32.5376 30.8794 32.5376 28.9335V20.8004C32.5376 18.8545 30.941 17.2578 28.995 17.2578H20.9119C18.916 17.2578 17.3193 18.8046 17.3193 20.8004Z" fill="#0078D4"/>
<path d="M32.751 8.39847C32.751 12.5398 36.094 15.8829 40.2354 15.8829H40.3352C44.4766 15.8829 47.8196 12.5398 47.8196 8.39847C47.8196 4.2571 44.4766 0.914062 40.3352 0.914062H40.2354C36.094 0.914062 32.751 4.2571 32.751 8.39847Z" fill="#50E6FF"/>
</svg>
