<svg data-slug-id="charts16" viewBox="0 0 49 49" xmlns="http://www.w3.org/2000/svg">
<path d="M25.2866 0.519531H22.7607V48.5111H25.2866V0.519531Z" fill="#0078D4"/>
<path d="M19.3933 7.67578H0.0283203V27.0408H19.3933V7.67578Z" fill="#0078D4"/>
<path d="M38.3368 27.0408C32.9904 27.0408 28.6543 22.7047 28.6543 17.3583C28.6543 12.0119 32.9904 7.67578 38.3368 7.67578C43.6832 7.67578 48.0193 12.0119 48.0193 17.3583C48.0193 22.7047 43.6832 27.0408 38.3368 27.0408Z" fill="#0078D4"/>
<path d="M2.55419 36.3047C1.15654 36.3047 0.0283203 37.4329 0.0283203 38.8306C0.0283203 40.2282 1.15654 41.3564 2.55419 41.3564C3.95184 41.3564 5.08006 40.2282 5.08006 38.8306C5.08006 37.4329 3.95184 36.3047 2.55419 36.3047Z" fill="#0078D4"/>
<path d="M9.71044 41.3564C11.1054 41.3564 12.2363 40.2256 12.2363 38.8306C12.2363 37.4356 11.1054 36.3047 9.71044 36.3047C8.31544 36.3047 7.18457 37.4356 7.18457 38.8306C7.18457 40.2256 8.31544 41.3564 9.71044 41.3564Z" fill="#50E6FF"/>
<path d="M16.8677 36.3047C15.47 36.3047 14.3418 37.4329 14.3418 38.8306C14.3418 40.2282 15.47 41.3564 16.8677 41.3564C18.2653 41.3564 19.3935 40.2282 19.3935 38.8306C19.3935 37.4329 18.2653 36.3047 16.8677 36.3047Z" fill="#0078D4"/>
<path d="M31.1802 36.3047C29.7825 36.3047 28.6543 37.4329 28.6543 38.8306C28.6543 40.2282 29.7825 41.3564 31.1802 41.3564C32.5778 41.3564 33.706 40.2282 33.706 38.8306C33.706 37.4329 32.5778 36.3047 31.1802 36.3047Z" fill="#0078D4"/>
<path d="M38.3374 41.3564C39.7324 41.3564 40.8633 40.2256 40.8633 38.8306C40.8633 37.4356 39.7324 36.3047 38.3374 36.3047C36.9424 36.3047 35.8115 37.4356 35.8115 38.8306C35.8115 40.2256 36.9424 41.3564 38.3374 41.3564Z" fill="#50E6FF"/>
<path d="M45.4936 41.3564C46.8886 41.3564 48.0195 40.2256 48.0195 38.8306C48.0195 37.4356 46.8886 36.3047 45.4936 36.3047C44.0986 36.3047 42.9678 37.4356 42.9678 38.8306C42.9678 40.2256 44.0986 41.3564 45.4936 41.3564Z" fill="#50E6FF"/>
</svg>
