<svg data-slug-id="charts32" viewBox="0 0 49 49" xmlns="http://www.w3.org/2000/svg">
<path d="M8.09106 42.3769C12.0321 45.8969 17.1521 48.1369 22.7858 48.4317V43.5306C18.5079 43.2527 14.6174 41.5517 11.5774 38.8906L8.09106 42.3769Z" fill="#0078D4"/>
<path d="M25.3115 0.59375V5.72217C29.581 6.00849 33.4631 7.70112 36.4947 10.3453L40.0989 6.74112C36.1494 3.16217 30.9957 0.888487 25.3115 0.59375Z" fill="#50E6FF"/>
<path d="M6.18803 8.54297C2.64277 12.5093 0.39435 17.6545 0.116455 23.3303H5.1354C5.42172 19.0609 7.13119 15.1703 9.78382 12.1388L6.18803 8.54297Z" fill="#0078D4"/>
<path d="M22.7854 0.59375C17.1096 0.888487 11.9559 3.15375 7.99805 6.72428L11.6023 10.3285C14.6338 7.68428 18.5159 5.99164 22.7854 5.71375V0.59375Z" fill="#0078D4"/>
<path d="M36.5199 38.8711C33.4884 41.5321 29.5894 43.2332 25.3115 43.5195V48.4206C30.9452 48.1258 36.0652 45.8858 40.0063 42.3574L36.5199 38.8711Z" fill="#50E6FF"/>
<path d="M0.124268 25.8555C0.435847 31.506 2.70953 36.6344 6.27164 40.567L9.76637 37.0723C7.11374 34.0407 5.41269 30.1418 5.13479 25.8555H0.124268Z" fill="#0078D4"/>
<path d="M47.9566 25.8555H42.946C42.6681 30.1334 40.9755 34.0239 38.3313 37.0639L41.826 40.5586C45.3797 36.6176 47.645 31.4976 47.9566 25.8555Z" fill="#50E6FF"/>
<path d="M41.9093 8.55859L38.3135 12.1544C40.9577 15.186 42.6587 19.0596 42.9451 23.3291H47.964C47.6861 17.6618 45.4461 12.5165 41.9093 8.55859Z" fill="#50E6FF"/>
<path d="M13.8898 34.6914H12.6956V35.8577H13.8898V34.6914Z" fill="#0078D4"/>
<path d="M16.2784 33.4688H15.0842V35.8572H16.2784V33.4688Z" fill="#0078D4"/>
<path d="M19.8603 32.2734H17.4719V35.8561H19.8603V32.2734Z" fill="#0078D4"/>
<path d="M23.4433 29.8867H21.0549V35.8578H23.4433V29.8867Z" fill="#0078D4"/>
<path d="M28.817 25.1094H25.2344V35.8572H28.817V25.1094Z" fill="#0078D4"/>
<path d="M35.3852 13.168H30.6084V35.8579H35.3852V13.168Z" fill="#50E6FF"/>
</svg>
