<svg data-slug-id="charts25" viewBox="0 0 50 50" xmlns="http://www.w3.org/2000/svg">
<path d="M0.411621 43.7405H49.0194V6.3125H0.411621V43.7405Z" fill="#0078D4"/>
<path d="M0.411621 10.6436H49.0023V5.57812H0.411621V10.6436Z" fill="#50E6FF"/>
<path d="M7.98407 9.44959C8.66698 9.44959 9.22058 8.89598 9.22058 8.21308C9.22058 7.53017 8.66698 6.97656 7.98407 6.97656C7.30116 6.97656 6.74756 7.53017 6.74756 8.21308C6.74756 8.89598 7.30116 9.44959 7.98407 9.44959Z" fill="#0078D4"/>
<path d="M4.14667 9.44959C4.82958 9.44959 5.38318 8.89598 5.38318 8.21308C5.38318 7.53017 4.82958 6.97656 4.14667 6.97656C3.46376 6.97656 2.91016 7.53017 2.91016 8.21308C2.91016 8.89598 3.46376 9.44959 4.14667 9.44959Z" fill="#0078D4"/>
<path d="M11.9069 9.44959C12.5898 9.44959 13.1434 8.89598 13.1434 8.21308C13.1434 7.53017 12.5898 6.97656 11.9069 6.97656C11.224 6.97656 10.6704 7.53017 10.6704 8.21308C10.6704 8.89598 11.224 9.44959 11.9069 9.44959Z" fill="#0078D4"/>
<path d="M13.6595 37.1172H12.4502V38.2983H13.6595V37.1172Z" fill="white"/>
<path d="M16.0785 35.8789H14.8691V38.2976H16.0785V35.8789Z" fill="white"/>
<path d="M19.7058 34.668H17.2871V38.296H19.7058V34.668Z" fill="white"/>
<path d="M23.3342 32.2539H20.9155V38.3005H23.3342V32.2539Z" fill="white"/>
<path d="M28.7759 27.4141H25.1479V38.298H28.7759V27.4141Z" fill="white"/>
<path d="M35.4276 15.3203H30.5903V38.2975H35.4276V15.3203Z" fill="#50E6FF"/>
</svg>
