<svg data-slug-id="charts15" viewBox="0 0 49 49" xmlns="http://www.w3.org/2000/svg">
<path d="M44.9069 43.8118H3.08985C1.44106 43.8118 0.103516 42.4757 0.103516 40.8286V8.97147C0.103516 7.32442 1.44106 5.98828 3.08985 5.98828H44.9069C46.5557 5.98828 47.8932 7.32442 47.8932 8.97147V40.8286C47.8932 42.4757 46.5557 43.8118 44.9069 43.8118Z" fill="#0078D4"/>
<path d="M15.1365 25.2761L19.5276 29.3265L26.392 22.4525L30.3205 26.108L42.9893 12.4609V36.2509H5.0166L15.1365 25.2761Z" fill="#50E6FF"/>
<path d="M29.7231 39.3855H18.2994C17.9545 39.3855 17.6685 39.0998 17.6685 38.7553C17.6685 38.4107 17.9545 38.125 18.2994 38.125H29.7231C30.068 38.125 30.3541 38.4107 30.3541 38.7553C30.3541 39.0998 30.068 39.3855 29.7231 39.3855Z" fill="white"/>
</svg>
