<svg data-slug-id="charts05" viewBox="0 0 49 49" xmlns="http://www.w3.org/2000/svg">
<path d="M23.5705 24.4666L4.62305 43.4141L5.51623 44.3072L24.4637 25.3598L23.5705 24.4666Z" fill="#50E6FF"/>
<path d="M23.4196 24.7139L17.1016 43.6641L18.2999 44.0636L24.618 25.1134L23.4196 24.7139Z" fill="#50E6FF"/>
<path d="M23.8232 24.3148L4.87305 30.6328L5.27259 31.8312L24.2227 25.5131L23.8232 24.3148Z" fill="#50E6FF"/>
<path d="M5.27637 18.0048L4.87695 19.2031L23.8271 25.5192L24.2265 24.3208L5.27637 18.0048Z" fill="#50E6FF"/>
<path d="M24.4635 24.4662L23.5703 25.3594L42.5177 44.3068L43.4109 43.4136L24.4635 24.4662Z" fill="#50E6FF"/>
<path d="M24.6202 24.7256L23.4219 25.125L29.7379 44.0752L30.9363 43.6757L24.6202 24.7256Z" fill="#50E6FF"/>
<path d="M24.2217 24.3173L23.8223 25.5156L42.7724 31.8317L43.1718 30.6333L24.2217 24.3173Z" fill="#50E6FF"/>
<path d="M42.7685 17.9984L23.8184 24.3164L24.2179 25.5148L43.1681 19.1967L42.7685 17.9984Z" fill="#50E6FF"/>
<path d="M18.3058 5.77246L17.1074 6.17188L23.4235 25.122L24.6218 24.7226L18.3058 5.77246Z" fill="#50E6FF"/>
<path d="M42.5177 5.52132L23.5703 24.4688L24.4635 25.3619L43.4109 6.41451L42.5177 5.52132Z" fill="#50E6FF"/>
<path d="M24.0189 36.2839C17.7367 36.2839 12.6504 31.1975 12.6504 24.9154C12.6504 18.6332 17.7367 13.5469 24.0189 13.5469C30.301 13.5469 35.3874 18.6332 35.3874 24.9154C35.3874 31.1975 30.301 36.2839 24.0189 36.2839Z" fill="#0078D4"/>
<path d="M10.1249 38.8086H0.0195312V48.9139H10.1249V38.8086Z" fill="#0078D4"/>
<path d="M20.2304 41.3359H15.1777V46.3886H20.2304V41.3359Z" fill="#0078D4"/>
<path d="M35.3885 38.8086H25.2832V48.9139H35.3885V38.8086Z" fill="#0078D4"/>
<path d="M45.4941 41.3359H40.4414V46.3886H45.4941V41.3359Z" fill="#0078D4"/>
<path d="M10.1249 13.5469H0.0195312V23.6522H10.1249V13.5469Z" fill="#0078D4"/>
<path d="M7.59759 28.7031H2.54492V33.7558H7.59759V28.7031Z" fill="#0078D4"/>
<path d="M45.4941 16.0703H40.4414V21.123H45.4941V16.0703Z" fill="#0078D4"/>
<path d="M48.0213 26.1797H37.916V36.285H48.0213V26.1797Z" fill="#0078D4"/>
<path d="M20.2304 3.4375H15.1777V8.49017H20.2304V3.4375Z" fill="#0078D4"/>
<path d="M48.0213 0.914062H37.916V11.0194H48.0213V0.914062Z" fill="#0078D4"/>
</svg>
