<svg data-slug-id="charts27" viewBox="0 0 49 49" xmlns="http://www.w3.org/2000/svg">
<path d="M7.48513 0.527344H4.9375V48.4767H7.48513V0.527344Z" fill="#0078D4"/>
<path d="M42.9754 0.527344H40.4277V48.4767H42.9754V0.527344Z" fill="#0078D4"/>
<path d="M25.2595 0.527344H22.7119V48.4767H25.2595V0.527344Z" fill="#0078D4"/>
<path d="M23.9856 44.6138C27.4472 44.6138 30.2535 41.8076 30.2535 38.346C30.2535 34.8843 27.4472 32.0781 23.9856 32.0781C20.524 32.0781 17.7178 34.8843 17.7178 38.346C17.7178 41.8076 20.524 44.6138 23.9856 44.6138Z" fill="#50E6FF"/>
<path d="M6.33815 18.0865C9.79978 18.0865 12.606 15.2803 12.606 11.8186C12.606 8.35699 9.79978 5.55078 6.33815 5.55078C2.87652 5.55078 0.0703125 8.35699 0.0703125 11.8186C0.0703125 15.2803 2.87652 18.0865 6.33815 18.0865Z" fill="#50E6FF"/>
<path d="M41.6673 18.0865C45.1289 18.0865 47.9351 15.2803 47.9351 11.8186C47.9351 8.35699 45.1289 5.55078 41.6673 5.55078C38.2056 5.55078 35.3994 8.35699 35.3994 11.8186C35.3994 15.2803 38.2056 18.0865 41.6673 18.0865Z" fill="#50E6FF"/>
</svg>
