<svg data-slug-id="charts02" viewBox="0 0 49 49" xmlns="http://www.w3.org/2000/svg">
<path d="M36.2644 31.1771L33.7455 22.1945H28.7076C28.0079 22.1945 27.3082 21.78 27.1682 21.089L25.209 12.3828L18.212 38.7778C18.072 39.3305 17.6522 39.7451 17.0924 39.8833C16.9525 39.8833 16.8125 39.8833 16.6726 39.8833C16.2528 39.8833 15.8329 39.7451 15.5531 39.3305L9.39562 32.6972L6.73673 35.4611C6.45685 35.7375 6.03702 35.8757 5.6172 35.8757H0.0195312V48.0367H47.8796V32.2827H37.8038C37.1041 32.2827 36.5443 31.8681 36.2644 31.1771Z" fill="#0078D4"/>
<path d="M8.27609 29.5201C8.55597 29.2437 8.9758 29.1055 9.39562 29.1055C9.81545 29.1055 10.2353 29.2437 10.5152 29.6583L15.9729 35.4624L23.8096 5.88903C23.9496 5.05987 24.5093 4.64529 25.209 4.64529C25.9087 4.64529 26.4685 5.19806 26.7484 5.75083L29.9671 19.1556H34.865C35.5647 19.1556 36.1245 19.5702 36.4044 20.2611L38.9233 29.2437H47.8796V0.914062H0.0195312V32.8367H4.91749L8.27609 29.5201Z" fill="#50E6FF"/>
<path d="M38.9233 29.243L36.4044 20.2604C36.2644 19.5694 35.5647 19.1548 34.865 19.1548H29.9671L26.7484 5.75008C26.6085 5.05911 25.9087 4.64453 25.209 4.64453C24.5093 4.64453 23.9496 5.05911 23.6697 5.75008L15.8329 35.3235L10.3752 29.5194C10.0953 29.243 9.67551 29.1048 9.25568 28.9666C8.83586 28.9666 8.41603 29.1048 8.13615 29.3812L4.77755 32.836H0.0195312V35.8762H5.6172C6.03702 35.8762 6.45685 35.7381 6.73673 35.4617L9.39562 32.6978L15.5531 39.3311C15.8329 39.6075 16.2528 39.8839 16.6726 39.8839C16.8125 39.8839 16.9525 39.8839 17.0924 39.8839C17.6522 39.7457 18.072 39.3311 18.212 38.7783L25.209 12.3834L27.3082 21.0896C27.4481 21.7805 28.1478 22.1951 28.8475 22.1951H33.8854L36.4044 31.1777C36.5443 31.8686 37.244 32.2832 37.9437 32.2832H48.0195V29.243H38.9233Z" fill="white"/>
</svg>
