<svg data-slug-id="charts21" viewBox="0 0 49 48" xmlns="http://www.w3.org/2000/svg">
<path d="M24.7773 10.5863C28.9516 10.7743 32.7393 12.4765 35.6235 15.1666L40.4579 10.2446C38.2626 8.1299 35.8382 6.50253 33.2404 5.40986C30.6425 4.31719 27.7988 3.71597 24.7773 3.63281V10.5863Z" fill="#50E6FF"/>
<path d="M11.3103 39.9126L6.51036 44.7939C6.48426 44.7656 6.45731 44.7373 6.43205 44.7107C4.3984 42.4963 2.82706 40.0573 1.76518 37.4462C0.693204 34.8018 0.10374 31.908 0.0195312 28.832H6.80846C6.96736 32.9238 8.55564 36.8352 11.3035 39.9018L11.3103 39.9126Z" fill="#0078D4"/>
<path d="M6.81015 27.293C6.97777 23.2018 8.57438 19.2939 11.3288 16.2333L6.51457 11.332C4.43714 13.5673 2.83717 16.037 1.76518 18.6805C0.693203 21.3241 0.10374 24.2179 0.0195312 27.2947L6.81015 27.293Z" fill="#0078D4"/>
<path d="M12.3991 15.1474C15.2874 12.4598 19.0819 10.7635 23.262 10.5847V3.63281C20.2431 3.71597 17.4002 4.31719 14.8024 5.40986C12.2045 6.50253 9.77931 8.1299 7.58398 10.2446L12.3991 15.1474Z" fill="#0078D4"/>
<path d="M42.9671 26.3137V30.2703H48.0196V22.7862V17.7969H42.9671H35.3883V22.7862H39.3941L29.3976 32.6585L24.02 27.3482L24.0184 27.3465L12.9727 38.255L12.9735 38.2566L16.5448 41.7833L24.0184 34.4032L29.3976 39.7143L42.9671 26.3137Z" fill="#0078D4"/>
</svg>
