<svg data-slug-id="charts08" viewBox="0 0 49 49" xmlns="http://www.w3.org/2000/svg">
<path d="M48.0156 0.910156H0.0195312V13.1197H48.0156V0.910156Z" fill="#0078D4"/>
<path d="M12.2291 15.2266H0.0195312V34.5934H12.2291V15.2266Z" fill="#0078D4"/>
<path d="M41.9104 48.908C38.5423 48.908 35.8057 46.1714 35.8057 42.8033V21.3313C35.8057 17.9632 38.5423 15.2266 41.9104 15.2266C45.2786 15.2266 48.0152 17.9632 48.0152 21.3313V42.8033C48.0152 46.1714 45.2786 48.908 41.9104 48.908Z" fill="#0078D4"/>
<path d="M33.701 36.6953H0.0195312V48.9048H33.701V36.6953Z" fill="#0078D4"/>
<path d="M33.7018 15.2266H14.335V20.2788H33.7018V15.2266Z" fill="#0078D4"/>
<path d="M16.8611 34.5923C15.4633 34.5923 14.335 33.464 14.335 32.0662V24.9089C14.335 23.5111 15.4633 22.3828 16.8611 22.3828C18.2589 22.3828 19.3872 23.5111 19.3872 24.9089V32.0662C19.3872 33.464 18.2504 34.5923 16.8611 34.5923Z" fill="#50E6FF"/>
<path d="M33.7003 29.5391H21.4907V34.5913H33.7003V29.5391Z" fill="#0078D4"/>
<path d="M26.5429 22.3828H21.4907V27.435H26.5429V22.3828Z" fill="#0078D4"/>
<path d="M31.1741 27.435C29.7763 27.435 28.6479 26.3067 28.6479 24.9089C28.6479 23.5111 29.7763 22.3828 31.1741 22.3828C32.5718 22.3828 33.7002 23.5111 33.7002 24.9089C33.7002 26.3067 32.5634 27.435 31.1741 27.435Z" fill="#50E6FF"/>
</svg>
