<svg data-slug-id="charts12" viewBox="0 0 49 49" xmlns="http://www.w3.org/2000/svg">
<path d="M41.6854 13.708C38.1859 13.708 35.3511 10.8722 35.3511 7.3716C35.3511 3.87099 38.1859 1.03516 41.6854 1.03516C45.1848 1.03516 48.0197 3.87099 48.0197 7.3716C48.0281 10.8722 45.1932 13.708 41.6854 13.708Z" fill="#50E6FF"/>
<path d="M41.6854 31.2979C38.1859 31.2979 35.3511 28.4621 35.3511 24.9614C35.3511 21.4608 38.1859 18.625 41.6854 18.625C45.1848 18.625 48.0197 21.4608 48.0197 24.9614C48.0281 28.4536 45.1932 31.2979 41.6854 31.2979Z" fill="#50E6FF"/>
<path d="M12.6293 18.625H0.0195312V31.239H12.6293V18.625Z" fill="#0078D4"/>
<path d="M12.6293 0.910156H0.0195312V13.5241H12.6293V0.910156Z" fill="#0078D4"/>
<path d="M12.6293 36.2969H0.0195312V48.9109H12.6293V36.2969Z" fill="#0078D4"/>
<path d="M41.6854 48.876C38.1859 48.876 35.3511 46.0402 35.3511 42.5396C35.3511 39.039 38.1859 36.2031 41.6854 36.2031C45.1848 36.2031 48.0197 39.039 48.0197 42.5396C48.0281 46.0402 45.1932 48.876 41.6854 48.876Z" fill="#50E6FF"/>
<path d="M31.624 42.723L26.4927 37.5898V40.1564H19.0396V45.2811H26.4927V47.8476L31.624 42.723Z" fill="#0078D4"/>
<path d="M31.624 25.055L26.4927 19.9219V22.4884H19.0396V27.6131H26.4927V30.1797L31.624 25.055Z" fill="#0078D4"/>
<path d="M31.624 7.32061L26.4927 2.1875V4.75405H19.0396V9.88716H26.4927V12.4537L31.624 7.32061Z" fill="#0078D4"/>
</svg>
