<svg data-slug-id="charts26" viewBox="0 0 49 49" xmlns="http://www.w3.org/2000/svg">
<path d="M5.84348 48.4531C8.63401 48.4531 10.8962 46.1909 10.8962 43.4004C10.8962 40.6098 8.63401 38.3477 5.84348 38.3477C3.05295 38.3477 0.790771 40.6098 0.790771 43.4004C0.790771 46.1909 3.05295 48.4531 5.84348 48.4531Z" fill="#0078D4"/>
<path d="M18.4763 48.4531C21.2668 48.4531 23.529 46.1909 23.529 43.4004C23.529 40.6098 21.2668 38.3477 18.4763 38.3477C15.6858 38.3477 13.4236 40.6098 13.4236 43.4004C13.4236 46.1909 15.6858 48.4531 18.4763 48.4531Z" fill="#0078D4"/>
<path d="M31.1072 48.4531C33.8977 48.4531 36.1599 46.1909 36.1599 43.4004C36.1599 40.6098 33.8977 38.3477 31.1072 38.3477C28.3166 38.3477 26.0544 40.6098 26.0544 43.4004C26.0544 46.1909 28.3166 48.4531 31.1072 48.4531Z" fill="#0078D4"/>
<path d="M43.74 48.4531C46.5305 48.4531 48.7927 46.1909 48.7927 43.4004C48.7927 40.6098 46.5305 38.3477 43.74 38.3477C40.9494 38.3477 38.6873 40.6098 38.6873 43.4004C38.6873 46.1909 40.9494 48.4531 43.74 48.4531Z" fill="#50E6FF"/>
<path d="M10.8962 13.082H0.790771V35.8192H10.8962V13.082Z" fill="#0078D4"/>
<path d="M23.529 5.50391H13.4236V35.8201H23.529V5.50391Z" fill="#0078D4"/>
<path d="M36.1599 0.453125H26.0544V35.8221H36.1599V0.453125Z" fill="#0078D4"/>
<path d="M48.7927 28.2461H38.6873V35.8252H48.7927V28.2461Z" fill="#50E6FF"/>
<path d="M48.7915 21.9258H0.790771V24.4521H48.7915V21.9258Z" fill="#50E6FF"/>
</svg>
