<svg data-slug-id="charts07" viewBox="0 0 49 49" xmlns="http://www.w3.org/2000/svg">
<path d="M35.3886 11.0193C38.1791 11.0193 40.4412 8.75719 40.4412 5.96669C40.4412 3.1762 38.1791 0.914062 35.3886 0.914062C32.5981 0.914062 30.3359 3.1762 30.3359 5.96669C30.3359 8.75719 32.5981 11.0193 35.3886 11.0193Z" fill="#50E6FF"/>
<path d="M30.3363 25.411C32.4292 25.411 34.1258 23.7144 34.1258 21.6215C34.1258 19.5286 32.4292 17.832 30.3363 17.832C28.2435 17.832 26.5469 19.5286 26.5469 21.6215C26.5469 23.7144 28.2435 25.411 30.3363 25.411Z" fill="#0078D4"/>
<path d="M17.1565 38.1762C18.2029 38.1762 19.0512 37.3279 19.0512 36.2815C19.0512 35.235 18.2029 34.3867 17.1565 34.3867C16.11 34.3867 15.2617 35.235 15.2617 36.2815C15.2617 37.3279 16.11 38.1762 17.1565 38.1762Z" fill="#0078D4"/>
<path d="M23.5986 34.0097C24.9938 34.0097 26.1249 32.8786 26.1249 31.4833C26.1249 30.0881 24.9938 28.957 23.5986 28.957C22.2033 28.957 21.0723 30.0881 21.0723 31.4833C21.0723 32.8786 22.2033 34.0097 23.5986 34.0097Z" fill="#0078D4"/>
<path d="M11.1107 40.7722C11.8082 40.7722 12.3737 40.2067 12.3737 39.5091C12.3737 38.8116 11.8082 38.2461 11.1107 38.2461C10.4131 38.2461 9.84766 38.8116 9.84766 39.5091C9.84766 40.2067 10.4131 40.7722 11.1107 40.7722Z" fill="#0078D4"/>
<path d="M5.40756 42.2643C6.10511 42.2643 6.67059 41.6989 6.67059 41.0013C6.67059 40.3038 6.10511 39.7383 5.40756 39.7383C4.71001 39.7383 4.14453 40.3038 4.14453 41.0013C4.14453 41.6989 4.71001 42.2643 5.40756 42.2643Z" fill="#0078D4"/>
<path d="M42.9669 0.914062C42.9669 24.6362 23.7416 43.8614 0.0195312 43.8614V48.9141H48.0195V0.914062H42.9669Z" fill="#0078D4"/>
</svg>
