<svg data-slug-id="charts19" viewBox="0 0 49 49" xmlns="http://www.w3.org/2000/svg">
<path d="M10.1731 28.4492H0.169922V48.5117H10.1731V28.4492Z" fill="#50E6FF"/>
<path d="M47.8689 13.4336H37.8657V48.5032H47.8689V13.4336Z" fill="#0078D4"/>
<path d="M22.7859 23.4102H12.7827V48.5029H22.7859V23.4102Z" fill="#50E6FF"/>
<path d="M35.3235 10.9375H25.3203V48.5055H35.3235V10.9375V10.9375Z" fill="#0078D4"/>
<path d="M18.1604 38.8509L17.2822 37.9652L29.8029 25.5066L42.4072 13.0312L43.2937 13.9253L30.6894 26.3923L18.1604 38.8509Z" fill="#50E6FF"/>
<path d="M42.7752 16.3096C44.3735 16.3096 45.6691 15.0152 45.6691 13.4185C45.6691 11.8217 44.3735 10.5273 42.7752 10.5273C41.177 10.5273 39.8813 11.8217 39.8813 13.4185C39.8813 15.0152 41.177 16.3096 42.7752 16.3096Z" fill="#50E6FF"/>
<path d="M30.2464 28.8409C31.8447 28.8409 33.1403 27.5465 33.1403 25.9497C33.1403 24.353 31.8447 23.0586 30.2464 23.0586C28.6482 23.0586 27.3525 24.353 27.3525 25.9497C27.3525 27.5465 28.6482 28.8409 30.2464 28.8409Z" fill="#50E6FF"/>
<path d="M17.7254 41.4424C19.3237 41.4424 20.6193 40.148 20.6193 38.5513C20.6193 36.9546 19.3237 35.6602 17.7254 35.6602C16.1272 35.6602 14.8315 36.9546 14.8315 38.5513C14.8315 40.148 16.1272 41.4424 17.7254 41.4424Z" fill="#0078D4"/>
<path d="M5.23861 31.9424C6.83686 31.9424 8.1325 30.648 8.1325 29.0513C8.1325 27.4546 6.83686 26.1602 5.23861 26.1602C3.64036 26.1602 2.34473 27.4546 2.34473 29.0513C2.34473 30.648 3.64036 31.9424 5.23861 31.9424Z" fill="#0078D4"/>
<path d="M13.6943 12.9062L11.6953 14.9033L18.2358 21.4376L20.2348 19.4405L13.6943 12.9062Z" fill="#0078D4"/>
<path d="M9.61293 2.82812C5.67356 2.82812 2.47021 6.02007 2.47021 9.96404C2.47021 13.908 5.6652 17.1 9.61293 17.1C13.5607 17.1 16.7556 13.908 16.7556 9.96404C16.7556 6.02007 13.5607 2.82812 9.61293 2.82812ZM9.61293 14.259C7.2376 14.259 5.32228 12.3371 5.32228 9.9724C5.32228 7.59933 7.24596 5.68583 9.61293 5.68583C11.9799 5.68583 13.9036 7.60769 13.9036 9.9724C13.9036 12.3371 11.9883 14.259 9.61293 14.259Z" fill="#0078D4"/>
<path d="M5.61278 28.3591L4.82666 29.3359L17.2971 39.352L18.0832 38.3751L5.61278 28.3591Z" fill="#0078D4"/>
<path d="M17.2822 37.9654L18.1604 38.8512L25.2613 31.7988V30.0273L17.2822 37.9654Z" fill="#0078D4"/>
</svg>
