<svg data-slug-id="charts18" viewBox="0 0 49 49" xmlns="http://www.w3.org/2000/svg">
<path d="M5.07215 0.9375H0.0195312V5.98731H5.07215V0.9375Z" fill="#0078D4"/>
<path d="M5.07215 8.09375H0.0195312V13.1436H5.07215V8.09375Z" fill="#0078D4"/>
<path d="M40.5258 8.09375H35.4731V13.1436H40.5258V8.09375Z" fill="#0078D4"/>
<path d="M48.0194 8.09375H42.9668V13.1436H48.0194V8.09375Z" fill="#50E6FF"/>
<path d="M48.0194 0.914062H42.9668V5.96387H48.0194V0.914062Z" fill="#50E6FF"/>
<path d="M5.07215 15.25H0.0195312V20.2998H5.07215V15.25Z" fill="#0078D4"/>
<path d="M40.5258 15.25H35.4731V20.2998H40.5258V15.25Z" fill="#0078D4"/>
<path d="M48.0194 15.25H42.9668V20.2998H48.0194V15.25Z" fill="#50E6FF"/>
<path d="M5.07215 22.4023H0.0195312V27.4521H5.07215V22.4023Z" fill="#0078D4"/>
<path d="M12.6503 22.4023H7.59766V27.4521H12.6503V22.4023Z" fill="#50E6FF"/>
<path d="M40.5258 22.4023H35.4731V27.4521H40.5258V22.4023Z" fill="#0078D4"/>
<path d="M48.0194 22.4023H42.9668V27.4521H48.0194V22.4023Z" fill="#50E6FF"/>
<path d="M5.07215 29.5547H0.0195312V34.6045H5.07215V29.5547Z" fill="#0078D4"/>
<path d="M12.6503 29.5547H7.59766V34.6045H12.6503V29.5547Z" fill="#50E6FF"/>
<path d="M40.5258 29.5547H35.4731V34.6045H40.5258V29.5547Z" fill="#0078D4"/>
<path d="M48.0194 29.5547H42.9668V34.6045H48.0194V29.5547Z" fill="#50E6FF"/>
<path d="M5.07215 36.7109H0.0195312V41.7607H5.07215V36.7109Z" fill="#0078D4"/>
<path d="M12.6503 36.7109H7.59766V41.7607H12.6503V36.7109Z" fill="#50E6FF"/>
<path d="M40.5258 36.7109H35.4731V41.7607H40.5258V36.7109Z" fill="#0078D4"/>
<path d="M48.0194 36.7109H42.9668V41.7607H48.0194V36.7109Z" fill="#50E6FF"/>
<path d="M5.07215 43.8633H0.0195312V48.9131H5.07215V43.8633Z" fill="#0078D4"/>
<path d="M12.6503 43.8633H7.59766V48.9131H12.6503V43.8633Z" fill="#50E6FF"/>
<path d="M40.5258 43.8633H35.4731V48.9131H40.5258V43.8633Z" fill="#0078D4"/>
<path d="M48.0194 43.8633H42.9668V48.9131H48.0194V43.8633Z" fill="#50E6FF"/>
<path d="M30.3526 31.2541L25.2747 26.1875V28.7461H17.6958V33.8127H25.2747V36.3292L30.3526 31.2541Z" fill="#0078D4"/>
<path d="M30.3526 18.5633L25.2747 13.4883V16.0553H17.6958V21.1219H25.2747V23.6384L30.3526 18.5633Z" fill="#0078D4"/>
<path d="M30.3526 43.8401L25.2747 38.7734V41.332H17.6958V46.3986H25.2747V48.9151L30.3526 43.8401Z" fill="#0078D4"/>
</svg>
