<svg data-slug-id="charts10" viewBox="0 0 49 49" xmlns="http://www.w3.org/2000/svg">
<path d="M6.78933 42.3752H5.52637V24.2227H19.0148V25.4821H6.78933V42.3752Z" fill="#0078D4"/>
<path d="M41.5622 6.42969H6.15723V7.68911H41.5622V6.42969Z" fill="#0078D4"/>
<path d="M42.2018 25.4837H21.1104V24.2243H40.9388V7.0625H42.2018V25.4837Z" fill="#50E6FF"/>
<path d="M42.8507 41.7617H6.58691V43.0211H42.8507V41.7617Z" fill="#50E6FF"/>
<path d="M12.8678 1.08984H0.137207V13.7849H12.8678V1.08984Z" fill="#50E6FF"/>
<path d="M30.4059 0.914062H17.6753V13.6091H30.4059V0.914062Z" fill="#50E6FF"/>
<path d="M47.9357 1.00781H35.2051V13.7028H47.9357V1.00781Z" fill="#0078D4"/>
<path d="M12.7756 18.5195H0.0449219V31.2145H12.7756V18.5195Z" fill="#50E6FF"/>
<path d="M30.4059 18.5195H17.6753V31.2145H30.4059V18.5195Z" fill="#0078D4"/>
<path d="M47.9362 18.5195H35.2056V31.2145H47.9362V18.5195Z" fill="#0078D4"/>
<path d="M12.9523 36.043H0.22168V48.738H12.9523V36.043Z" fill="#0078D4"/>
<path d="M30.4059 36.2188H17.6753V48.9138H30.4059V36.2188Z" fill="#0078D4"/>
<path d="M48.0202 36.1367H35.2896V48.8317H48.0202V36.1367Z" fill="#0078D4"/>
</svg>
