<svg data-slug-id="charts22" viewBox="0 0 49 49" xmlns="http://www.w3.org/2000/svg">
<path d="M31.0291 38.418H29.8924H18.6861H18.1052C19.6628 43.9124 17.5747 44.6961 8.43115 44.6961V47.5697H20.0585H28.5453H39.5159V44.6961C30.3724 44.7045 29.4799 43.9208 31.0291 38.418Z" fill="#50E6FF"/>
<path d="M8.42285 47.5767H39.516V44.7031H8.42285V47.5767Z" fill="#0078D4"/>
<path d="M48.0196 3.03125H0.0200195V38.4919H48.0196V3.03125Z" fill="#0078D4"/>
<path d="M45.4351 5.56641H2.56299V35.8951H45.4351V5.56641Z" fill="#50E6FF"/>
<path d="M15.0824 19.793H10.1401V30.8239H15.0824V19.793Z" fill="#0078D4"/>
<path d="M22.7696 15.6797H17.7095V30.8229H22.7696V15.6797Z" fill="#0078D4"/>
<path d="M30.3477 10.5508H25.2876V30.8261H30.3477V10.5508Z" fill="#0078D4"/>
<path d="M37.9075 15.7305H32.7969V30.8316H37.9075V15.7305Z" fill="#0078D4"/>
</svg>
