<svg data-slug-id="charts06" viewBox="0 0 49 49" xmlns="http://www.w3.org/2000/svg">
<path d="M2.45068 21.0981H20.1784V3.33594H2.45068V21.0981V21.0981Z" fill="#0078D4"/>
<path d="M27.8945 21.0981H45.6223V3.33594H27.8945V21.0981V21.0981Z" fill="#0078D4"/>
<path d="M2.45068 46.4613H20.1784V28.6992H2.45068V46.4613V46.4613Z" fill="#0078D4"/>
<path d="M27.8945 46.4613H45.6223V28.6992H27.8945V46.4613V46.4613Z" fill="#0078D4"/>
<path d="M37.3407 38.2668H10.6562V11.5391H37.3407V38.2668ZM11.9225 36.9981H36.0745V12.8078H11.9225V36.9981Z" fill="#50E6FF"/>
<path d="M39.1812 37.7152C39.1812 39.1277 38.0331 40.278 36.6233 40.278C35.2135 40.278 34.0654 39.1277 34.0654 37.7152C34.0654 36.3027 35.2135 35.1523 36.6233 35.1523C38.0331 35.1523 39.1812 36.3027 39.1812 37.7152Z" fill="#50E6FF"/>
<path d="M13.9736 37.6331C13.9736 39.0456 12.8256 40.196 11.4158 40.196C10.006 40.196 8.85791 39.0456 8.85791 37.6331C8.85791 36.2206 10.006 35.0703 11.4158 35.0703C12.8256 35.0703 13.9736 36.2206 13.9736 37.6331Z" fill="#50E6FF"/>
<path d="M13.9736 12.1214C13.9736 13.5339 12.8256 14.6842 11.4158 14.6842C10.006 14.6842 8.85791 13.5339 8.85791 12.1214C8.85791 10.7089 10.006 9.55859 11.4158 9.55859C12.8256 9.55859 13.9736 10.7089 13.9736 12.1214Z" fill="#50E6FF"/>
<path d="M39.1812 12.1214C39.1812 13.5339 38.0331 14.6842 36.6233 14.6842C35.2135 14.6842 34.0654 13.5339 34.0654 12.1214C34.0654 10.7089 35.2135 9.55859 36.6233 9.55859C38.0331 9.55859 39.1812 10.7089 39.1812 12.1214Z" fill="#50E6FF"/>
</svg>
