<svg data-slug-id="charts20" viewBox="0 0 49 49" xmlns="http://www.w3.org/2000/svg">
<path d="M10.1731 28.4492H0.169922V48.5117H10.1731V28.4492Z" fill="#50E6FF"/>
<path d="M47.8689 13.4336H37.8657V48.5032H47.8689V13.4336Z" fill="#0078D4"/>
<path d="M22.7859 23.4141H12.7827V48.5068H22.7859V23.4141Z" fill="#50E6FF"/>
<path d="M35.323 10.9375H25.3198V48.5055H35.323V10.9375V10.9375Z" fill="#0078D4"/>
<path d="M13.6943 12.9102L11.6953 14.9072L18.2358 21.4415L20.2348 19.4445L13.6943 12.9102Z" fill="#0078D4"/>
<path d="M9.61293 2.83203C5.67356 2.83203 2.47021 6.02398 2.47021 9.96795C2.47021 13.9119 5.6652 17.1039 9.61293 17.1039C13.5607 17.1039 16.7556 13.9119 16.7556 9.96795C16.7556 6.02398 13.5607 2.83203 9.61293 2.83203ZM9.61293 14.2629C7.2376 14.2629 5.32228 12.341 5.32228 9.97631C5.32228 7.60324 7.24596 5.68974 9.61293 5.68974C11.9799 5.68974 13.9036 7.61159 13.9036 9.97631C13.9036 12.341 11.9883 14.2629 9.61293 14.2629Z" fill="#0078D4"/>
</svg>
