<svg data-slug-id="charts34" viewBox="0 0 49 49" xmlns="http://www.w3.org/2000/svg">
<path d="M11.3587 23.8389L10.6006 22.8281L20.7178 15.2465L33.9014 9.91406L41.7863 17.7652L40.9017 18.6582L33.5981 11.3967L21.3412 16.3584L11.3587 23.8389Z" fill="#50E6FF"/>
<path d="M33.7499 13.1833C35.1456 13.1833 36.2771 12.0518 36.2771 10.6561C36.2771 9.26037 35.1456 8.12891 33.7499 8.12891C32.3541 8.12891 31.2227 9.26037 31.2227 10.6561C31.2227 12.0518 32.3541 13.1833 33.7499 13.1833Z" fill="#0078D4"/>
<path d="M41.3402 20.738C42.7359 20.738 43.8674 19.6065 43.8674 18.2108C43.8674 16.8151 42.7359 15.6836 41.3402 15.6836C39.9445 15.6836 38.813 16.8151 38.813 18.2108C38.813 19.6065 39.9445 20.738 41.3402 20.738Z" fill="#0078D4"/>
<path d="M21.1224 18.2966C22.5182 18.2966 23.6496 17.1651 23.6496 15.7694C23.6496 14.3737 22.5182 13.2422 21.1224 13.2422C19.7267 13.2422 18.5952 14.3737 18.5952 15.7694C18.5952 17.1651 19.7267 18.2966 21.1224 18.2966Z" fill="#0078D4"/>
<path d="M10.9798 25.8591C12.3756 25.8591 13.507 24.7276 13.507 23.3319C13.507 21.9362 12.3756 20.8047 10.9798 20.8047C9.5841 20.8047 8.45264 21.9362 8.45264 23.3319C8.45264 24.7276 9.5841 25.8591 10.9798 25.8591Z" fill="#0078D4"/>
<path d="M11.3587 36.4757L10.6006 35.4648L20.7178 27.8832L33.9014 22.5508L41.7863 30.402L40.9017 31.2949L33.5981 24.0334L21.3412 28.9951L11.3587 36.4757Z" fill="#50E6FF"/>
<path d="M33.7499 25.82C35.1456 25.82 36.2771 24.6886 36.2771 23.2928C36.2771 21.8971 35.1456 20.7656 33.7499 20.7656C32.3541 20.7656 31.2227 21.8971 31.2227 23.2928C31.2227 24.6886 32.3541 25.82 33.7499 25.82Z" fill="#0078D4"/>
<path d="M41.3402 33.3747C42.7359 33.3747 43.8674 32.2433 43.8674 30.8475C43.8674 29.4518 42.7359 28.3203 41.3402 28.3203C39.9445 28.3203 38.813 29.4518 38.813 30.8475C38.813 32.2433 39.9445 33.3747 41.3402 33.3747Z" fill="#0078D4"/>
<path d="M21.1224 30.9294C22.5182 30.9294 23.6496 29.7979 23.6496 28.4022C23.6496 27.0065 22.5182 25.875 21.1224 25.875C19.7267 25.875 18.5952 27.0065 18.5952 28.4022C18.5952 29.7979 19.7267 30.9294 21.1224 30.9294Z" fill="#0078D4"/>
<path d="M10.9798 38.4958C12.3756 38.4958 13.507 37.3643 13.507 35.9686C13.507 34.5729 12.3756 33.4414 10.9798 33.4414C9.5841 33.4414 8.45264 34.5729 8.45264 35.9686C8.45264 37.3643 9.5841 38.4958 10.9798 38.4958Z" fill="#0078D4"/>
<path d="M5.94249 3.08203H3.39844V46.0866H5.94249V3.08203Z" fill="#0078D4"/>
<path d="M46.4463 46.1026V43.5586L3.40803 43.5586V46.1026L46.4463 46.1026Z" fill="#0078D4"/>
</svg>
