<svg data-slug-id="charts04" viewBox="0 0 49 49" xmlns="http://www.w3.org/2000/svg">
<path d="M48.0199 0.914062C48.0199 14.1689 37.2745 24.9142 24.0197 24.9142C10.7649 24.9142 0.0195312 14.1689 0.0195312 0.914062" fill="#0078D4"/>
<path d="M5.0722 48.9139C7.86271 48.9139 10.1249 46.6518 10.1249 43.8613C10.1249 41.0707 7.86271 38.8086 5.0722 38.8086C2.28169 38.8086 0.0195312 41.0707 0.0195312 43.8613C0.0195312 46.6518 2.28169 48.9139 5.0722 48.9139Z" fill="#0078D4"/>
<path d="M17.747 33.7128C19.1423 33.7128 20.2734 32.5817 20.2734 31.1865C20.2734 29.7912 19.1423 28.6602 17.747 28.6602C16.3518 28.6602 15.2207 29.7912 15.2207 31.1865C15.2207 32.5817 16.3518 33.7128 17.747 33.7128Z" fill="#0078D4"/>
<path d="M17.746 18.6678C20.5365 18.6678 22.7987 16.4057 22.7987 13.6152C22.7987 10.8247 20.5365 8.5625 17.746 8.5625C14.9555 8.5625 12.6934 10.8247 12.6934 13.6152C12.6934 16.4057 14.9555 18.6678 17.746 18.6678Z" fill="#50E6FF"/>
<path d="M30.3359 48.9139C33.1264 48.9139 35.3885 46.6518 35.3885 43.8613C35.3885 41.0707 33.1264 38.8086 30.3359 38.8086C27.5454 38.8086 25.2832 41.0707 25.2832 43.8613C25.2832 46.6518 27.5454 48.9139 30.3359 48.9139Z" fill="#0078D4"/>
<path d="M42.9667 48.9139C45.7572 48.9139 48.0194 46.6518 48.0194 43.8613C48.0194 41.0707 45.7572 38.8086 42.9667 38.8086C40.1762 38.8086 37.9141 41.0707 37.9141 43.8613C37.9141 46.6518 40.1762 48.9139 42.9667 48.9139Z" fill="#0078D4"/>
</svg>
