<svg data-slug-id="charts03" viewBox="0 0 49 49" xmlns="http://www.w3.org/2000/svg">
<path d="M24.0336 0.511719C10.7709 0.511719 0.0195312 11.263 0.0195312 24.5258C0.0195312 37.7886 10.7709 48.5399 24.0336 48.5399C37.2964 48.5399 48.0477 37.7886 48.0477 24.5258C48.0195 11.263 37.2964 0.511719 24.0336 0.511719ZM24.0336 35.7286C17.8537 35.7286 12.8308 30.7057 12.8308 24.5258C12.8308 18.3459 17.8537 13.323 24.0336 13.323C30.2135 13.323 35.2365 18.3459 35.2365 24.5258C35.2365 30.7057 30.2135 35.7286 24.0336 35.7286Z" fill="#0078D4"/>
<path d="M24.0055 13.323L23.949 0.511719C15.5116 0.539937 8.09012 4.91383 3.8291 11.5452L14.3547 18.9103C16.2735 15.5805 19.8855 13.323 24.0055 13.323Z" fill="#50E6FF"/>
<path d="M12.8308 24.5275C12.8308 22.4957 13.367 20.5769 14.3264 18.9402L3.82905 11.5469L3.77262 11.6315C1.40225 15.3564 0.0195312 19.7585 0.0195312 24.5275C0.0195312 28.0548 0.781436 31.4128 2.16415 34.4322L13.8749 29.2682C13.1977 27.8291 12.8308 26.2206 12.8308 24.5275Z" fill="#3BCAF4"/>
</svg>
