<svg data-slug-id="charts14" viewBox="0 0 49 49" xmlns="http://www.w3.org/2000/svg">
<path d="M5.07219 26.1758L0.0195312 31.2284V36.2811L7.59851 28.7021L5.07219 26.1758Z" fill="#50E6FF"/>
<path d="M22.7577 38.8083V18.5977L12.6523 28.703L22.7577 38.8083Z" fill="#50E6FF"/>
<path d="M30.3339 26.1789L25.2812 21.1263V36.2842L42.9655 18.5999L48.0182 23.6526V8.46094L30.3339 26.1789Z" fill="#50E6FF"/>
<path d="M25.2812 36.2819V48.9136H48.0182V23.6503L42.9655 18.5977L25.2812 36.2819Z" fill="#0078D4"/>
<path d="M22.7565 38.8074L10.1248 26.1758L0.0195312 36.2811V48.9127H22.7565V38.8074Z" fill="#0078D4"/>
<path d="M24.0185 16.8847C25.4138 16.8847 26.5448 15.7536 26.5448 14.3584C26.5448 12.9631 25.4138 11.832 24.0185 11.832C22.6233 11.832 21.4922 12.9631 21.4922 14.3584C21.4922 15.7536 22.6233 16.8847 24.0185 16.8847Z" fill="#50E6FF"/>
</svg>
