<svg data-slug-id="charts28" viewBox="0 0 50 50" xmlns="http://www.w3.org/2000/svg">
<path d="M10.6453 13.3047H0.412109V49.1209H10.6453V13.3047Z" fill="#50E6FF"/>
<path d="M23.4363 0.511719H13.2031V49.1194H23.4363V0.511719Z" fill="#50E6FF"/>
<path d="M36.2288 13.3047H25.9956V49.1209H36.2288V13.3047Z" fill="#50E6FF"/>
<path d="M49.0198 31.2109H38.7866V49.119H49.0198V31.2109Z" fill="#50E6FF"/>
<path d="M13.2031 49.1217C13.2031 46.0685 14.416 43.1403 16.575 40.9813C18.734 38.8223 21.6622 37.6094 24.7155 37.6094C27.7687 37.6094 30.697 38.8223 32.8559 40.9813C35.0149 43.1403 36.2278 46.0685 36.2278 49.1217H13.2031Z" fill="#0078D4"/>
<path d="M24.7157 36.327C27.5415 36.327 29.8323 34.0362 29.8323 31.2104C29.8323 28.3845 27.5415 26.0938 24.7157 26.0938C21.8899 26.0938 19.5991 28.3845 19.5991 31.2104C19.5991 34.0362 21.8899 36.327 24.7157 36.327Z" fill="#0078D4"/>
</svg>
