<svg data-slug-id="checkmark06" viewBox="0 0 49 49" xmlns="http://www.w3.org/2000/svg">
<path d="M23.4393 33.9336C23.0609 32.3022 23.9102 30.6876 25.4575 30.099C25.9957 29.8972 26.5255 29.7878 27.0385 29.7878C27.5346 29.7878 27.9887 29.8803 28.4092 30.0653C28.3924 27.0464 28.3671 23.7668 28.3671 23.3716C28.3671 21.4795 30.0154 20.3527 31.6047 20.3527C31.6888 20.3527 31.7813 20.3527 31.8654 20.3611C32.8661 20.4283 34.59 20.9077 34.9179 23.3968C34.9852 23.9266 35.002 25.5075 34.9936 27.1978C35.1618 27.1978 35.33 27.2146 35.5066 27.2398C36.81 27.4248 37.7266 28.1901 38.0798 29.3337C38.1135 29.3337 38.1555 29.3337 38.1891 29.3337C38.5592 29.3337 38.9292 29.401 39.2908 29.5272C39.6271 29.6449 40.056 29.8467 40.4512 30.1747V0.355469H5.16602V43.1586H26.7526C26.5339 42.8726 26.0462 42.1999 25.9285 42.0233C25.1632 40.8124 23.4561 34.0009 23.4393 33.9336Z" fill="#50E6FF"/>
<path d="M31.7224 48.1699H40.9474C41.0063 48.1699 42.6713 40.324 42.8563 39.6092C43.0413 38.8945 42.8395 35.783 42.8395 34.7235C42.8395 33.6639 42.5367 32.7221 41.4435 32.6464C41.3847 32.638 41.3258 32.638 41.2754 32.638C40.5101 32.638 40.1653 33.0248 40.0644 33.1762C40.0476 33.193 40.0392 33.2014 40.0392 33.2014C40.0308 33.2014 40.0224 33.1846 40.0224 33.1593C40.0224 33.0584 40.0224 32.8734 40.0056 32.7389C39.9887 32.5287 40.1401 31.5111 38.761 31.0234C38.5508 30.9477 38.3657 30.9225 38.1892 30.9225C37.4996 30.9225 37.0371 31.4102 36.8269 31.7045C36.81 31.7298 36.7848 31.7382 36.7596 31.7382C36.7175 31.7382 36.6755 31.7045 36.6755 31.6541C36.6671 31.2925 36.6587 30.6786 36.6587 30.5104C36.6587 30.2666 36.7344 29.0136 35.2796 28.8118C35.145 28.7949 35.0273 28.7865 34.9095 28.7865C34.1527 28.7865 33.7407 29.1481 33.5388 29.4088C33.522 29.4341 33.4968 29.4425 33.48 29.4425C33.4379 29.4425 33.3959 29.4088 33.3959 29.3584C33.4127 28.2568 33.4547 24.3549 33.3538 23.6148C33.2361 22.7487 32.9418 22.0255 31.7645 21.9498C31.7056 21.9498 31.6552 21.9414 31.6047 21.9414C30.5367 21.9414 29.9481 22.6646 29.9481 23.3794C29.9481 24.0017 29.9985 32.0746 30.0154 34.9589C30.0154 35.0682 29.9313 35.1271 29.8472 35.1271C29.7799 35.1271 29.721 35.0935 29.6874 35.0178C29.4267 34.2946 29.0567 33.2939 28.7372 32.5707C28.3587 31.7045 27.7196 31.385 27.0385 31.385C26.7021 31.385 26.3573 31.4607 26.021 31.5868C25.096 31.94 24.81 32.8566 24.9782 33.5882C25.1296 34.2273 26.7358 40.3493 27.2655 41.1818C27.7953 42.0143 30.2508 44.9239 30.7806 45.605C31.3104 46.2778 31.7224 48.1699 31.7224 48.1699Z" fill="#0078D4"/>
<path d="M28.0894 5.30859L17.704 15.694L14.5926 12.5826L12.5239 14.6597L17.704 19.8398L30.1665 7.38568L28.0894 5.30859Z" fill="#0078D4"/>
</svg>
