<svg data-slug-id="checkmark01" viewBox="0 0 49 49" xmlns="http://www.w3.org/2000/svg">
<path d="M24.1877 39.3607C32.6984 39.3607 39.5976 32.4663 39.5976 23.9616C39.5976 15.4569 32.6984 8.5625 24.1877 8.5625C15.6771 8.5625 8.77783 15.4569 8.77783 23.9616C8.77783 32.4663 15.6771 39.3607 24.1877 39.3607Z" fill="#0078D4"/>
<path d="M32.7952 18.753L30.6624 16.6133L19.9564 27.3118L16.753 24.1022L14.6118 26.2419L19.9564 31.5827L32.7952 18.753Z" fill="#50E6FF"/>
<path d="M41.8572 40.2038C45.3809 36.2614 47.6232 31.1396 47.9183 25.5039H43.0121C42.7339 29.7833 41.031 33.6752 38.3672 36.7163L41.8572 40.2038Z" fill="#0078D4"/>
<path d="M6.19047 8.18359C2.60775 12.1429 0.331668 17.2984 0.0366211 22.9762H5.17045C5.45706 18.7052 7.15148 14.8217 9.79848 11.7891L6.19047 8.18359Z" fill="#50E6FF"/>
<path d="M7.99414 42.1049C11.9646 45.6514 17.1153 47.9006 22.7971 48.1786V43.1579C18.5231 42.8714 14.6369 41.1614 11.6021 38.5078L7.99414 42.1049Z" fill="#0078D4"/>
<path d="M0.0366211 25.5039C0.331668 31.1817 2.60775 36.3372 6.18204 40.2965L9.79005 36.691C7.14305 33.6583 5.44863 29.7749 5.17045 25.5039H0.0366211V25.5039Z" fill="#0078D4"/>
<path d="M41.8489 8.27344L38.3589 11.761C41.0227 14.7936 42.7256 18.6855 43.0122 22.9733H47.9184C47.6234 17.3377 45.381 12.2159 41.8489 8.27344Z" fill="#50E6FF"/>
<path d="M25.3257 48.1611C30.9822 47.8494 36.1076 45.5749 40.0528 42.0116L36.5543 38.5156C33.5111 41.1692 29.6081 42.8708 25.3257 43.1488V48.1611Z" fill="#0078D4"/>
<path d="M25.3257 0.332031V5.34432C29.6081 5.62231 33.5027 7.31553 36.5375 9.96067L40.0359 6.46471C36.0991 2.90978 30.9737 0.64372 25.3257 0.332031Z" fill="#50E6FF"/>
<path d="M22.7968 0.324219C17.1319 0.593787 11.9812 2.843 8.01074 6.38108L11.6103 9.97813C14.6451 7.33299 18.5229 5.63134 22.7884 5.34493V0.324219H22.7968Z" fill="#50E6FF"/>
</svg>
