<svg data-slug-id="circle-user" xmlns="http://www.w3.org/2000/svg" viewBox="0 0 49 49">
  <path d="M47.6247 24.2396C47.6247 11.2375 37.09 0.694332 24.0879 0.67749V5.46907C34.4458 5.48591 42.8332 13.8817 42.8332 24.2396C42.8332 34.5975 34.4374 43.0017 24.0879 43.0101V47.8017C37.0816 47.7849 47.6247 37.2417 47.6247 24.2396Z" fill="#0078D4"/>
  <path d="M3.6499 12.4247L7.80148 14.8332C11.052 9.23316 17.1067 5.46895 24.0541 5.46895C24.0625 5.46895 24.071 5.46895 24.0794 5.46895V0.668945C24.071 0.668945 24.0625 0.668945 24.0541 0.668945C15.3467 0.668945 7.73411 5.40158 3.6499 12.4247Z" fill="#fff"/>
  <path d="M3.6499 12.4247L7.80148 14.8332C8.34043 13.9068 8.94674 13.0395 9.62885 12.2226C13.0731 8.09631 18.252 5.46895 24.0541 5.46895C24.0625 5.46895 24.071 5.46895 24.0794 5.46895V0.668945C24.071 0.668945 24.0625 0.668945 24.0541 0.668945C16.871 0.668945 10.4373 3.88579 6.10885 8.95526C5.19096 10.0416 4.36569 11.1953 3.6499 12.4247Z" fill="#fff"/>
  <path d="M5.27535 24.2398C5.27535 20.804 6.20166 17.5956 7.80166 14.8335L3.65008 12.4335C1.64587 15.9029 0.492188 19.9366 0.492188 24.2398C0.492188 28.5514 1.64587 32.585 3.66692 36.0545L7.8185 33.6629C6.20166 30.8924 5.27535 27.6672 5.27535 24.2398Z" fill="#50E6FF"/>
  <path d="M7.80148 14.8335L3.6499 12.4335L7.80148 14.8335Z" fill="#50E6FF"/>
  <path d="M24.0542 43.0185C17.1153 43.0185 11.0606 39.2627 7.81003 33.6627L3.65845 36.0627C7.74266 43.0859 15.3469 47.8017 24.0542 47.8017C24.0627 47.8017 24.0711 47.8017 24.0795 47.8017V43.0101C24.0711 43.0185 24.0627 43.0185 24.0542 43.0185Z" fill="#0078D4"/>
  <path d="M3.65845 36.0543L7.81003 33.6627L3.65845 36.0543Z" fill="#0078D4"/>
  <path d="M14.4458 35.5322C14.4458 30.0922 18.8584 25.688 24.3069 25.688C29.7553 25.688 34.1679 30.0922 34.1679 35.5322H14.4458Z" fill="#0078D4"/>
  <path d="M29.9153 18.2691C29.9153 21.3512 27.4143 23.8438 24.3238 23.8438C21.2332 23.8438 18.7322 21.3512 18.7322 18.2691C18.7322 15.187 21.2332 12.6943 24.3238 12.6943C27.4143 12.6943 29.9153 15.187 29.9153 18.2691Z" fill="#0078D4"/>
  <path d="M9.91529 11.8944L6.17634 8.88806C6.1595 8.91332 6.13424 8.93859 6.1174 8.96385C5.86477 9.25859 5.62056 9.56175 5.38477 9.87332L9.12371 12.8796C9.29213 12.6607 9.46056 12.4417 9.6374 12.2312C9.72161 12.1133 9.81424 12.0039 9.91529 11.8944Z" fill="#50E6FF"/>
  <path d="M18.8162 6.21009L17.292 1.66272C16.8878 1.78061 16.4836 1.91535 16.0962 2.05851L17.6204 6.60588C18.0078 6.4543 18.412 6.32798 18.8162 6.21009Z" fill="#0078D4"/>
  <path d="M22.7657 5.51131L22.2521 0.744995C21.831 0.778679 21.4099 0.820785 20.9973 0.871311L21.511 5.63763C21.9236 5.5871 22.3447 5.53657 22.7657 5.51131Z" fill="#50E6FF"/>
  <path d="M15.5574 7.4985L13.2079 3.32166C12.8374 3.51534 12.4668 3.71744 12.1047 3.93639L14.4542 8.10481C14.8163 7.88587 15.1784 7.68376 15.5574 7.4985Z" fill="#50E6FF"/>
  <path d="M12.5763 9.38496L9.48575 5.71338C9.15733 5.97443 8.82891 6.24391 8.51733 6.5218L11.6079 10.185C11.9194 9.90706 12.2479 9.63759 12.5763 9.38496Z" fill="#0078D4"/>
</svg>
