<svg data-slug-id="circle-inside-circles" xmlns="http://www.w3.org/2000/svg" viewBox="0 0 48 48">
	<path d="M5.05267 10.1053C7.84318 10.1053 10.1053 7.84317 10.1053 5.05266C10.1053 2.26216 7.84318 0 5.05267 0C2.26216 0 0 2.26216 0 5.05266C0 7.84317 2.26216 10.1053 5.05267 10.1053Z" fill="#0078D4"/>
	<path d="M17.6845 10.1053C20.475 10.1053 22.7372 7.84317 22.7372 5.05266C22.7372 2.26216 20.475 0 17.6845 0C14.894 0 12.6318 2.26216 12.6318 5.05266C12.6318 7.84317 14.894 10.1053 17.6845 10.1053Z" fill="#0078D4"/>
	<path d="M30.3154 10.1053C33.1059 10.1053 35.368 7.84317 35.368 5.05266C35.368 2.26216 33.1059 0 30.3154 0C27.5249 0 25.2627 2.26216 25.2627 5.05266C25.2627 7.84317 27.5249 10.1053 30.3154 10.1053Z" fill="#0078D4"/>
	<path d="M42.9482 10.1053C45.7387 10.1053 48.0008 7.84317 48.0008 5.05266C48.0008 2.26216 45.7387 0 42.9482 0C40.1577 0 37.8955 2.26216 37.8955 5.05266C37.8955 7.84317 40.1577 10.1053 42.9482 10.1053Z" fill="#0078D4"/>
	<path d="M5.05267 22.7362C7.84318 22.7362 10.1053 20.474 10.1053 17.6835C10.1053 14.893 7.84318 12.6309 5.05267 12.6309C2.26216 12.6309 0 14.893 0 17.6835C0 20.474 2.26216 22.7362 5.05267 22.7362Z" fill="#0078D4"/>
	<path d="M5.05267 35.369C7.84318 35.369 10.1053 33.1068 10.1053 30.3163C10.1053 27.5258 7.84318 25.2637 5.05267 25.2637C2.26216 25.2637 0 27.5258 0 30.3163C0 33.1068 2.26216 35.369 5.05267 35.369Z" fill="#0078D4"/>
	<path d="M5.05267 47.9999C7.84318 47.9999 10.1053 45.7377 10.1053 42.9472C10.1053 40.1567 7.84318 37.8945 5.05267 37.8945C2.26216 37.8945 0 40.1567 0 42.9472C0 45.7377 2.26216 47.9999 5.05267 47.9999Z" fill="#0078D4"/>
	<path d="M17.6845 47.9999C20.475 47.9999 22.7372 45.7377 22.7372 42.9472C22.7372 40.1567 20.475 37.8945 17.6845 37.8945C14.894 37.8945 12.6318 40.1567 12.6318 42.9472C12.6318 45.7377 14.894 47.9999 17.6845 47.9999Z" fill="#0078D4"/>
	<path d="M30.3154 47.9999C33.1059 47.9999 35.368 45.7377 35.368 42.9472C35.368 40.1567 33.1059 37.8945 30.3154 37.8945C27.5249 37.8945 25.2627 40.1567 25.2627 42.9472C25.2627 45.7377 27.5249 47.9999 30.3154 47.9999Z" fill="#0078D4"/>
	<path d="M42.9482 47.9999C45.7387 47.9999 48.0008 45.7377 48.0008 42.9472C48.0008 40.1567 45.7387 37.8945 42.9482 37.8945C40.1577 37.8945 37.8955 40.1567 37.8955 42.9472C37.8955 45.7377 40.1577 47.9999 42.9482 47.9999Z" fill="#0078D4"/>
	<path d="M42.9482 35.369C45.7387 35.369 48.0008 33.1068 48.0008 30.3163C48.0008 27.5258 45.7387 25.2637 42.9482 25.2637C40.1577 25.2637 37.8955 27.5258 37.8955 30.3163C37.8955 33.1068 40.1577 35.369 42.9482 35.369Z" fill="#0078D4"/>
	<path d="M42.9482 22.7362C45.7387 22.7362 48.0008 20.474 48.0008 17.6835C48.0008 14.893 45.7387 12.6309 42.9482 12.6309C40.1577 12.6309 37.8955 14.893 37.8955 17.6835C37.8955 20.474 40.1577 22.7362 42.9482 22.7362Z" fill="#0078D4"/>
	<path d="M24.0003 35.3679C30.279 35.3679 35.3688 30.278 35.3688 23.9994C35.3688 17.7207 30.279 12.6309 24.0003 12.6309C17.7217 12.6309 12.6318 17.7207 12.6318 23.9994C12.6318 30.278 17.7217 35.3679 24.0003 35.3679Z" fill="#50E6FF"/>
</svg>
