<svg data-slug-id="circle-cloud-alt" xmlns="http://www.w3.org/2000/svg" viewBox="0 0 49 49">
    <path d="M41.9425 40.9212C45.4684 36.9717 47.7153 31.8349 48.0098 26.1927H43.0954C42.8177 30.4791 41.1094 34.3864 38.4502 37.4264L41.9425 40.9212Z" fill="#1EACE9"/>
    <path d="M6.24535 8.83691C2.66049 12.8032 0.388395 17.9653 0.0854492 23.658H5.2187C5.50482 19.3801 7.20468 15.4895 9.85546 12.4495L6.24535 8.83691Z" fill="#1EACE9"/>
    <path d="M8.05493 42.8327C12.0269 46.3864 17.1854 48.6433 22.8656 48.9211V43.8854C18.5823 43.599 14.6945 41.8896 11.6566 39.2285L8.05493 42.8327Z" fill="#1EACE9"/>
    <path d="M0.0854492 26.1927C0.37998 31.8854 2.65208 37.0475 6.22852 41.0138L9.83863 37.4012C7.19627 34.3612 5.50482 30.4706 5.2187 26.1927H0.0854492Z" fill="#1EACE9"/>
    <path d="M41.9254 8.9314L38.4331 12.4261C41.1007 15.4661 42.809 19.3651 43.0867 23.6598H48.0012C47.7066 18.0093 45.4598 12.8809 41.9254 8.9314Z" fill="#1EACE9"/>
    <path d="M25.3981 48.9028C31.0531 48.5913 36.1947 46.3092 40.133 42.7471L36.6323 39.2439C33.586 41.9049 29.6814 43.606 25.3896 43.8839V48.9028H25.3981Z" fill="#1EACE9"/>
    <path d="M25.3982 0.963257V5.9822C29.6815 6.2601 33.5777 7.95273 36.624 10.6054L40.1247 7.1022C36.178 3.54852 31.0448 1.27484 25.3982 0.963257Z" fill="#1EACE9"/>
    <path d="M22.865 0.954834C17.1848 1.23273 12.0347 3.48115 8.06274 7.02641L11.6644 10.6306C14.6939 7.97799 18.5817 6.27694 22.8566 5.9822V0.954834H22.865Z" fill="#1EACE9"/>
    <path d="M36.8764 26.6742C36.8848 26.6152 36.9016 26.5563 36.9101 26.5058C36.9774 26.1521 37.011 25.79 37.011 25.4194C37.011 22.2279 34.4276 19.6426 31.2382 19.6426C30.7922 19.6426 30.3631 19.6931 29.9507 19.7942C28.6295 17.7142 26.3154 16.3416 23.673 16.3416C19.5748 16.3416 16.2508 19.6679 16.2508 23.7689C16.2508 23.87 16.2508 23.971 16.2592 24.0721C15.889 23.9458 15.485 23.8784 15.0643 23.8784C13.0447 23.8784 11.4121 25.5121 11.4121 27.5331C11.4121 29.4279 12.8595 30.9858 14.7024 31.171L31.2382 31.2047C33.4094 31.2047 35.2944 30.0089 36.2873 28.2405C36.3126 28.19 36.3463 28.1394 36.3715 28.0889C36.523 27.7689 36.7418 27.2889 36.8764 26.6742Z" fill="#1EACE9"/>
</svg>
