<svg data-slug-id="circle-money-two-alt" xmlns="http://www.w3.org/2000/svg" viewBox="0 0 48 48">
<path d="M24.006 4.91441C24.0225 4.91441 24.039 4.91441 24.0473 4.91441V0.499634C15.4244 0.499634 8.04994 4.7656 3.73438 12.2476L7.48776 14.4136C10.7947 8.73393 16.9539 4.91441 24.006 4.91441Z" fill="#0078D4"/>
<path d="M7.48689 14.4208L3.7335 12.2465C-0.582066 19.7285 -0.582066 28.2604 3.7335 35.7424L7.47862 33.5763C5.84168 30.7654 4.90747 27.4915 4.90747 24.0027C4.90747 20.5139 5.84995 17.2317 7.48689 14.4208Z" fill="#50E6FF"/>
<path d="M24.0062 43.1029C16.9542 43.1029 10.795 39.2751 7.48804 33.5872L3.74292 35.7532C8.05849 43.2352 15.4247 47.5011 24.0558 47.5011V43.1029C24.031 43.1029 24.0145 43.1029 24.0062 43.1029Z" fill="#50E6FF"/>
<path d="M47.5012 23.9955C47.5012 11.0157 37.0016 0.499634 24.0466 0.499634V4.91441C34.571 4.93921 43.0947 13.4794 43.0947 24.0038C43.0947 34.5281 34.571 43.0766 24.0466 43.1014V47.4996C37.0016 47.4996 47.5012 36.9753 47.5012 23.9955Z" fill="#50E6FF"/>
<path d="M26.618 27.9249C26.618 27.1312 26.031 26.4781 24.8653 25.9655V29.6776C26.0393 29.4874 26.618 28.9087 26.618 27.9249ZM23.0796 21.8319V17.9462C21.9469 18.1529 21.3765 18.7399 21.3765 19.7237C21.3848 20.5835 21.9469 21.2862 23.0796 21.8319ZM29.8753 27.7513C29.8753 29.1071 29.4454 30.1984 28.5939 31.0169C27.7424 31.8436 26.5023 32.3479 24.8653 32.5381V35.1919H23.0796V32.6125C21.4013 32.596 19.8553 32.2239 18.4498 31.4881V28.0985C18.888 28.454 19.5907 28.8095 20.558 29.1485C21.5253 29.4874 22.3603 29.6776 23.0713 29.7272V25.2711C21.269 24.6014 19.9876 23.8656 19.2435 23.072C18.4912 22.2783 18.1191 21.2283 18.1191 19.9304C18.1191 18.6324 18.5821 17.5411 19.4998 16.6482C20.4257 15.7553 21.6162 15.2345 23.0713 15.0857V12.8121H24.857V15.0361C26.5767 15.1187 27.8664 15.3916 28.7096 15.8711V19.178C27.577 18.4918 26.2873 18.0702 24.857 17.9049V22.5428C26.6593 23.196 27.949 23.9318 28.7096 24.742C29.495 25.5604 29.8753 26.5608 29.8753 27.7513Z" fill="#0078D4"/>
</svg>
