<svg data-slug-id="circle-money" xmlns="http://www.w3.org/2000/svg" viewBox="0 0 49 48">
  <path fill-rule="evenodd" clip-rule="evenodd" d="M24.0459 43.5C24.0306 43.5001 24.0153 43.5001 24 43.5001C16.7974 43.5001 10.5069 39.5951 7.13009 33.7869L3.30469 36.0001C7.70719 43.6463 15.2372 48.0001 24.0459 48.0001V43.5Z" fill="#0078D4"/>
  <path fill-rule="evenodd" clip-rule="evenodd" d="M24.0459 4.50005C24.0306 4.50002 24.0153 4.5 24 4.5C16.7974 4.5 10.5069 8.40494 7.13009 14.2132L3.30469 12C7.70719 4.35 15.2372 0 24.0459 0V4.50005Z" fill="#50E6FF"/>
  <path fill-rule="evenodd" clip-rule="evenodd" d="M7.13009 14.2132C5.45774 17.0897 4.5 20.433 4.5 24C4.5 27.567 5.45774 30.9103 7.13009 33.7868L3.30469 36C-1.10156 28.35 -1.10156 19.6388 3.30469 12L7.13009 14.2132Z" fill="#50E6FF"/>
  <path fill-rule="evenodd" clip-rule="evenodd" d="M24.0449 4.50005C34.7938 4.52429 43.5 13.2454 43.5 24C43.5 34.7546 34.7938 43.4757 24.0449 43.5V48C30.4101 48 36.5146 45.4714 41.0155 40.9706C45.5164 36.4697 48.0449 30.3652 48.0449 24C48.0449 17.6348 45.5164 11.5303 41.0155 7.02944C36.5146 2.52856 30.4101 0 24.0449 0V4.50005Z" fill="#0078D4"/>
  <path d="M30.0002 27.825C30.027 28.4415 29.9248 29.0568 29.7 29.6315C29.4753 30.2062 29.1331 30.7277 28.6952 31.1625C27.8152 32.0025 26.5452 32.5188 24.8852 32.7113V35.4263H23.059V32.8013C21.4147 32.8032 19.7942 32.4096 18.334 31.6538V28.1737C18.9887 28.6485 19.7172 29.0121 20.4902 29.25C21.3173 29.5583 22.1806 29.7587 23.059 29.8462V25.2863C21.2165 24.6038 19.9127 23.8538 19.1477 23.0363C18.3618 22.161 17.9499 21.0127 18.0002 19.8375C17.9911 19.2139 18.1118 18.5951 18.3545 18.0206C18.5972 17.446 18.9567 16.9282 19.4102 16.5C20.4064 15.564 21.6954 15.001 23.059 14.9062V12.5625H24.8852V14.8387C26.6352 14.9212 27.9477 15.2038 28.8227 15.6863V19.0613C27.62 18.3479 26.2764 17.9051 24.8852 17.7637V22.5C26.7252 23.1675 28.0377 23.9175 28.8227 24.75C29.6065 25.5789 30.0299 26.6846 30.0002 27.825ZM23.059 21.7762V17.8125C21.904 18.0188 21.3227 18.6263 21.3227 19.6238C21.3227 20.5013 21.904 21.2175 23.059 21.7762ZM26.674 28.0012C26.674 27.1912 26.0777 26.5238 24.8852 25.9988V29.7863C26.0777 29.5938 26.674 28.9987 26.674 28.0012Z" fill="#50E6FF"/>
</svg>
