<svg data-slug-id="circle-money-two" xmlns="http://www.w3.org/2000/svg" viewBox="0 0 49 48">
    <path d="M24.7652 4.91478C24.7818 4.91478 24.7983 4.91478 24.8066 4.91478V0.5C16.1837 0.5 8.80922 4.76596 4.49365 12.2479L8.24704 14.414C11.554 8.7343 17.7132 4.91478 24.7652 4.91478Z" fill="#50E6FF"/>
    <path d="M8.24641 14.4204L4.49302 12.2461C0.177456 19.7281 0.177456 28.26 4.49302 35.742L8.23814 33.5759C6.6012 30.765 5.66699 27.4911 5.66699 24.0023C5.66699 20.5135 6.60947 17.2313 8.24641 14.4204Z" fill="#0078D4"/>
    <path d="M24.7658 43.1017C17.7137 43.1017 11.5545 39.2739 8.24756 33.5859L4.50244 35.752C8.81801 43.234 16.1842 47.4999 24.8154 47.4999V43.1017C24.7906 43.1017 24.774 43.1017 24.7658 43.1017Z" fill="#0078D4"/>
    <path d="M48.2607 23.9959C48.2607 11.0161 37.7611 0.5 24.8062 0.5V4.91478C35.3305 4.93958 43.8542 13.4798 43.8542 24.0041C43.8542 34.5285 35.3305 43.077 24.8062 43.1018V47.5C37.7611 47.5 48.2607 36.9756 48.2607 23.9959Z" fill="#0078D4"/>
    <path d="M27.3773 27.9253C27.3773 27.1316 26.7903 26.4785 25.6246 25.9659V29.6779C26.7986 29.4878 27.3773 28.9091 27.3773 27.9253ZM23.8388 21.8322V17.9465C22.7062 18.1532 22.1358 18.7402 22.1358 19.724C22.144 20.5838 22.7062 21.2866 23.8388 21.8322ZM30.6346 27.7516C30.6346 29.1075 30.2047 30.1988 29.3532 31.0172C28.5016 31.844 27.2615 32.3483 25.6246 32.5384V35.1923H23.8388V32.6129C22.1606 32.5963 20.6146 32.2243 19.2091 31.4885V28.0989C19.6473 28.4544 20.35 28.8099 21.3173 29.1488C22.2846 29.4878 23.1196 29.6779 23.8306 29.7275V25.2714C22.0283 24.6018 20.7468 23.866 20.0028 23.0723C19.2504 22.2786 18.8784 21.2287 18.8784 19.9307C18.8784 18.6327 19.3414 17.5414 20.2591 16.6486C21.185 15.7557 22.3755 15.2348 23.8306 15.086V12.8125H25.6163V15.0364C27.3359 15.1191 28.6256 15.3919 29.4689 15.8714V19.1784C28.3363 18.4922 27.0466 18.0705 25.6163 17.9052V22.5432C27.4186 23.1963 28.7083 23.9321 29.4689 24.7423C30.2543 25.5608 30.6346 26.5611 30.6346 27.7516Z" fill="#0078D4"/>
</svg>
