<svg data-slug-id="circle-bar" xmlns="http://www.w3.org/2000/svg" viewBox="0 0 48 48">
  <path d="M8.05078 41.8652C11.9918 45.3852 17.1118 47.6252 22.7455 47.92V43.0189C18.4676 42.741 14.5771 41.04 11.5371 38.3789L8.05078 41.8652Z" fill="#0078D4"/>
  <path d="M25.2715 0.0820312V5.21045C29.541 5.49677 33.4231 7.1894 36.4546 9.83361L40.0589 6.2294C36.1094 2.65045 30.9557 0.376768 25.2715 0.0820312Z" fill="#50E6FF"/>
  <path d="M6.14775 8.03125C2.60249 11.9976 0.354067 17.1428 0.0761719 22.8186H5.09512C5.38143 18.5491 7.09091 14.6586 9.74354 11.627L6.14775 8.03125Z" fill="#0078D4"/>
  <path d="M22.7454 0.0820312C17.0696 0.376768 11.9159 2.64203 7.95801 6.21256L11.5622 9.81677C14.5938 7.17256 18.4759 5.47993 22.7454 5.20203V0.0820312Z" fill="#0078D4"/>
  <path d="M36.4799 38.3594C33.4483 41.0204 29.5494 42.7215 25.2715 43.0078V47.9088C30.9052 47.6141 36.0252 45.3741 39.9662 41.8457L36.4799 38.3594Z" fill="#50E6FF"/>
  <path d="M0.0839844 25.3438C0.395563 30.9943 2.66925 36.1227 6.23135 40.0553L9.72609 36.5606C7.07346 33.529 5.37241 29.6301 5.09451 25.3438H0.0839844Z" fill="#0078D4"/>
  <path d="M47.9163 25.3438H42.9058C42.6279 29.6216 40.9352 33.5122 38.291 36.5522L41.7858 40.0469C45.3394 36.1059 47.6047 30.9859 47.9163 25.3438Z" fill="#50E6FF"/>
  <path d="M41.8692 8.04688L38.2734 11.6427C40.9176 14.6742 42.6187 18.5479 42.905 22.8174H47.924C47.6461 17.15 45.4061 12.0048 41.8692 8.04688Z" fill="#50E6FF"/>
  <path d="M13.8495 34.1797H12.6553V35.346H13.8495V34.1797Z" fill="#0078D4"/>
  <path d="M16.2382 32.957H15.0439V35.3454H16.2382V32.957Z" fill="#0078D4"/>
  <path d="M19.8201 31.7617H17.4316V35.3443H19.8201V31.7617Z" fill="#0078D4"/>
  <path d="M23.4031 29.375H21.0146V35.346H23.4031V29.375Z" fill="#0078D4"/>
  <path d="M28.777 24.5977H25.1943V35.3455H28.777V24.5977Z" fill="#0078D4"/>
  <path d="M35.3452 12.6562H30.5684V35.3462H35.3452V12.6562Z" fill="#50E6FF"/>
</svg>
