<svg data-slug-id="circle-money-alt" xmlns="http://www.w3.org/2000/svg" viewBox="0 0 48 48">
    <mask mask-type="alpha" maskUnits="userSpaceOnUse" x="3" y="0" width="22" height="24">
    <path fill-rule="evenodd" clip-rule="evenodd" d="M3.30215 0H24.0464V23.9943H3.30215V0Z" fill="white"/>
    </mask>
    <path fill-rule="evenodd" clip-rule="evenodd" d="M24.0464 23.9943L3.30215 11.9938C7.70743 4.34844 15.2358 -0.0065918 24.0464 -0.0065918V23.9943Z" fill="#F4F4F4"/>
    <mask mask-type="alpha" maskUnits="userSpaceOnUse" x="0" y="11" width="25" height="25">
    <path fill-rule="evenodd" clip-rule="evenodd" d="M0 11.9939H24.0464V35.9948H0V11.9939Z" fill="white"/>
    </mask>
    <path fill-rule="evenodd" clip-rule="evenodd" d="M24.0464 23.9943L3.30215 35.9948C-1.10314 28.3494 -1.10314 19.6393 3.30215 11.9939L24.0464 23.9943Z" fill="#50E6FF"/>
    <path fill-rule="evenodd" clip-rule="evenodd" d="M24.0464 23.9944V47.9952C15.2358 47.9952 7.70743 43.6402 3.30215 35.9948L24.0464 23.9944Z" fill="#0078D4"/>
    <mask mask-type="alpha" maskUnits="userSpaceOnUse" x="24" y="0" width="24" height="48">
    <path fill-rule="evenodd" clip-rule="evenodd" d="M24.0464 0H48V47.9951H24.0464V0Z" fill="white"/>
    </mask>
    <path fill-rule="evenodd" clip-rule="evenodd" d="M24.0464 23.9943V-0.0065918C37.2754 -0.0065918 48 10.7387 48 23.9943C48 37.2495 37.2754 47.9951 24.0464 47.9951V23.9943Z" fill="#0078D4"/>
    <path fill-rule="evenodd" clip-rule="evenodd" d="M43.5015 24.0009C43.5015 34.771 34.7708 43.5016 24.0008 43.5016C13.2308 43.5016 4.50008 34.771 4.50008 24.0009C4.50008 13.2309 13.2308 4.50024 24.0008 4.50024C34.7708 4.50024 43.5015 13.2309 43.5015 24.0009Z" fill="white"/>
    <path fill-rule="evenodd" clip-rule="evenodd" d="M26.6738 28.0006C26.6738 27.1924 26.0779 26.5256 24.8862 26.0006V29.7883C26.0779 29.5966 26.6738 29.0007 26.6738 28.0006ZM23.0613 21.7754V17.8126C21.9029 18.0211 21.3235 18.6252 21.3235 19.625C21.3235 20.5003 21.9029 21.2173 23.0613 21.7754ZM29.9991 27.8259C29.9991 29.2093 29.5637 30.3216 28.6925 31.1635C27.8218 32.0055 26.5531 32.5218 24.8862 32.7135V35.4259H23.0613V32.7885C21.3445 32.772 19.7695 32.3883 18.3362 31.6383V28.1758C18.7862 28.5426 19.5047 28.8988 20.4925 29.2446C21.4799 29.5904 22.3364 29.7884 23.0613 29.8382V25.2882C21.2196 24.6049 19.9154 23.8568 19.1488 23.0441C18.3819 22.2318 17.9987 21.1631 17.9987 19.8378C17.9987 18.5128 18.4693 17.3938 19.411 16.4814C20.353 15.569 21.5695 15.0376 23.0613 14.8876V12.5625H24.8862V14.8373C26.6446 14.921 27.9571 15.2045 28.8238 15.6875V19.0626C27.6658 18.3628 26.3532 17.9297 24.8862 17.7628V22.5004C26.7282 23.1675 28.0408 23.9175 28.8238 24.7504C29.6072 25.5841 29.9991 26.609 29.9991 27.8259Z" fill="#0078D4"/>
</svg>
