<svg data-slug-id="circles-two-blue" xmlns="http://www.w3.org/2000/svg" viewBox="0 0 48 48">
<path d="M12.5697 17.7618C12.5689 16.2575 12.7604 14.7594 13.1395 13.3037C5.57926 15.278 0 22.1528 0 30.3314C0 40.052 7.877 47.929 17.5975 47.929C25.7762 47.929 32.651 42.3497 34.6253 34.7895C33.1696 35.1686 31.6714 35.3601 30.1672 35.3593C20.4467 35.3593 12.5697 27.4823 12.5697 17.7618Z" fill="#0078D4"/>
<path d="M47.7647 17.7619C47.7647 8.0413 39.8877 0.164307 30.1671 0.164307C21.9885 0.164307 15.1137 5.74357 13.1394 13.3038C14.5951 12.9247 16.0932 12.7332 17.5974 12.734C27.318 12.734 35.195 20.611 35.195 30.3315C35.1958 31.8358 35.0043 33.3339 34.6252 34.7896C42.1854 32.8153 47.7647 25.9405 47.7647 17.7619Z" fill="#50E6FF"/>
<path d="M17.5977 12.7339C16.0935 12.7331 14.5953 12.9246 13.1397 13.3037C12.7605 14.7594 12.569 16.2575 12.5698 17.7618C12.5698 27.4823 20.4468 35.3593 30.1674 35.3593C31.6716 35.3601 33.1698 35.1686 34.6254 34.7895C35.0046 33.3338 35.196 31.8357 35.1952 30.3314C35.1952 20.6109 27.3182 12.7339 17.5977 12.7339Z" fill="#0078D4"/>
<path opacity="0.75" d="M17.5977 12.7339C16.0935 12.7331 14.5953 12.9246 13.1397 13.3037C12.7605 14.7594 12.569 16.2575 12.5698 17.7618C12.5698 27.4823 20.4468 35.3593 30.1674 35.3593C31.6713 35.3601 33.1692 35.1686 34.6246 34.7895C35.0044 33.3339 35.1962 31.8357 35.1952 30.3314C35.1952 20.6109 27.3182 12.7339 17.5977 12.7339Z" fill="#50E6FF"/>
</svg>
