<svg data-slug-id="circle-meter" xmlns="http://www.w3.org/2000/svg" viewBox="0 0 48 48">
<path d="M47.9165 26.6513C47.9165 33.1692 45.3014 39.0723 41.0666 43.3839C40.687 43.7713 39.894 44.5039 39.894 44.5039L8.31019 44.6892C8.31019 44.6892 7.72811 44.1755 7.44973 43.906C2.89437 39.5523 0.0683594 33.4302 0.0683594 26.6513C0.0683594 13.4639 10.7819 2.76917 23.9924 2.76917C37.203 2.76917 47.9165 13.4639 47.9165 26.6513Z" fill="#50E6FF"/>
<path d="M24.0168 2.74573C10.8063 2.74573 0.0927734 13.4405 0.0927734 26.6278C0.0927734 32.9184 2.53074 38.6447 6.51246 42.9057C7.09453 43.5289 7.71878 44.1268 8.36835 44.691L11.11 41.9541L13.9529 39.1163C13.2864 38.5773 12.6622 37.9794 12.0801 37.3478L9.24567 40.1773C7.67661 38.4763 6.4281 36.5478 5.52546 34.4173C4.69031 32.4468 4.18416 30.3836 4.01545 28.2531H7.26325C7.21263 27.7141 7.18733 27.1752 7.18733 26.6278C7.18733 26.3078 7.19576 25.9963 7.21263 25.6847H3.97327C4.08293 23.3099 4.60595 21.011 5.52546 18.8384C6.36061 16.8594 7.49945 15.0489 8.91668 13.4405L11.2197 15.7394C11.7764 15.091 12.3838 14.4763 13.0334 13.9205L10.7304 11.6215C12.3585 10.1815 14.1891 9.02783 16.1968 8.17731C18.3648 7.25941 20.6425 6.74573 23.0045 6.62783V9.86152C23.3335 9.84467 23.671 9.82783 24.0084 9.82783C24.5399 9.82783 25.0629 9.8531 25.5775 9.90362V6.66152C27.7286 6.82994 29.8207 7.3352 31.8116 8.16889C33.9374 9.06994 35.8777 10.3163 37.5817 11.8826L35.2871 14.1731C35.9283 14.7457 36.5188 15.3689 37.0587 16.0426L39.3617 13.7436C40.6524 15.2763 41.7068 16.9857 42.4914 18.8384C43.4109 21.0194 43.9339 23.3184 44.0436 25.6847H40.8042C40.8211 25.9963 40.8295 26.3078 40.8295 26.6278C40.8295 27.1752 40.8042 27.7226 40.7536 28.2531H44.0014C43.8327 30.3836 43.3265 32.4552 42.4914 34.4173C41.6393 36.4215 40.4836 38.2489 39.0411 39.8741L36.2235 37.0531C35.6583 37.7015 35.0509 38.3078 34.4014 38.8636L37.2274 41.6847L39.9606 44.4131C40.6017 43.8405 41.2091 43.2341 41.7828 42.6026C45.6042 38.3668 47.9325 32.7668 47.9325 26.6194C47.9409 13.4405 37.2274 2.74573 24.0168 2.74573Z" fill="#0078D4"/>
<path d="M27.3911 25.5055C28.6902 26.8023 28.6902 28.9076 27.3911 30.2044C26.0919 31.5012 23.983 31.5012 22.6838 30.2044C21.3847 28.9076 15.0747 17.9097 15.0747 17.9097C15.0747 17.9097 26.0919 24.2086 27.3911 25.5055Z" fill="#0078D4"/>
</svg>
