<svg data-slug-id="circle-user-alt" xmlns="http://www.w3.org/2000/svg" viewBox="0 0 48 48">
<path d="M47.5705 23.9836C47.5705 10.9815 37.0358 0.438351 24.0337 0.421509V5.21309C34.3916 5.22993 42.779 13.6257 42.779 23.9836C42.779 34.3415 34.3832 42.7457 24.0337 42.7541V47.5457C37.0274 47.5289 47.5705 36.9857 47.5705 23.9836Z" fill="#0078D4"/>
<path d="M3.5957 12.1688L7.74728 14.5772C10.9978 8.97718 17.0525 5.21296 23.9999 5.21296C24.0083 5.21296 24.0168 5.21296 24.0252 5.21296V0.412964C24.0168 0.412964 24.0083 0.412964 23.9999 0.412964C15.2925 0.412964 7.67991 5.1456 3.5957 12.1688Z" fill="white"/>
<path d="M3.5957 12.1688L7.74728 14.5772C8.28623 13.6509 8.89254 12.7835 9.57465 11.9666C13.0189 7.84033 18.1978 5.21296 23.9999 5.21296C24.0083 5.21296 24.0168 5.21296 24.0252 5.21296V0.412964C24.0168 0.412964 24.0083 0.412964 23.9999 0.412964C16.8168 0.412964 10.3831 3.62981 6.05465 8.69928C5.13676 9.7856 4.31149 10.9393 3.5957 12.1688Z" fill="#0078D4"/>
<path d="M5.2209 23.9838C5.2209 20.548 6.14722 17.3396 7.74722 14.5775L3.59564 12.1775C1.59143 15.647 0.437744 19.6806 0.437744 23.9838C0.437744 28.2954 1.59143 32.3291 3.61248 35.7985L7.76406 33.407C6.14722 30.6364 5.2209 27.4112 5.2209 23.9838Z" fill="#50E6FF"/>
<path d="M7.74728 14.5775L3.5957 12.1775L7.74728 14.5775Z" fill="#50E6FF"/>
<path d="M23.9995 42.7625C17.0606 42.7625 11.0059 39.0067 7.75534 33.4067L3.60376 35.8067C7.68797 42.8299 15.2922 47.5457 23.9995 47.5457C24.008 47.5457 24.0164 47.5457 24.0248 47.5457V42.7541C24.0164 42.7625 24.008 42.7625 23.9995 42.7625Z" fill="#0078D4"/>
<path d="M3.60376 35.7983L7.75534 33.4067L3.60376 35.7983Z" fill="#0078D4"/>
<path d="M14.3916 35.2763C14.3916 29.8363 18.8042 25.4321 24.2527 25.4321C29.7011 25.4321 34.1137 29.8363 34.1137 35.2763H14.3916Z" fill="#0078D4"/>
<path d="M29.8606 18.0131C29.8606 21.0952 27.3596 23.5878 24.2691 23.5878C21.1785 23.5878 18.6775 21.0952 18.6775 18.0131C18.6775 14.931 21.1785 12.4384 24.2691 12.4384C27.3596 12.4384 29.8606 14.931 29.8606 18.0131Z" fill="#0078D4"/>
<path d="M9.86109 11.6384L6.12215 8.63208C6.1053 8.65734 6.08004 8.68261 6.0632 8.70787C5.81057 9.00261 5.56636 9.30576 5.33057 9.61734L9.06951 12.6237C9.23793 12.4047 9.40636 12.1858 9.5832 11.9752C9.66741 11.8573 9.76004 11.7479 9.86109 11.6384Z" fill="#50E6FF"/>
<path d="M18.762 5.95411L17.2378 1.40674C16.8336 1.52463 16.4294 1.65937 16.042 1.80253L17.5662 6.3499C17.9536 6.19832 18.3578 6.072 18.762 5.95411Z" fill="#50E6FF"/>
<path d="M22.7118 5.25533L22.1981 0.489014C21.777 0.522698 21.356 0.564803 20.9434 0.615329L21.457 5.38165C21.8697 5.33112 22.2907 5.28059 22.7118 5.25533Z" fill="#50E6FF"/>
<path d="M15.5027 7.24252L13.1532 3.06567C12.7827 3.25936 12.4122 3.46146 12.05 3.68041L14.3995 7.84883C14.7616 7.62988 15.1237 7.42778 15.5027 7.24252Z" fill="#50E6FF"/>
<path d="M12.5221 9.12898L9.43156 5.4574C9.10313 5.71845 8.77471 5.98792 8.46313 6.26582L11.5537 9.92898C11.8652 9.65108 12.1937 9.38161 12.5221 9.12898Z" fill="#50E6FF"/>
</svg>
