<svg data-slug-id="circle-money-blue" xmlns="http://www.w3.org/2000/svg" viewBox="0 0 49 49">
  <path d="m5.27208 24.4026c0-10.7 8.68202-19.40004 19.40982-19.40004h.0499v-4.499997c-8.7818 0-16.26633 4.349997-20.65724 11.950037-4.390916 7.6-4.390916 16.3 0 23.9l3.79215-2.2c-1.64659-2.85-2.59463-6.2-2.59463-9.75z" fill="#50e6ff"/>
  <g fill="#0078d4">
    <path d="m24.7321.502563v4.499997c10.6779 0 19.3599 8.70004 19.3599 19.45004s-8.682 19.45-19.4098 19.45c-7.1851 0-13.4222-3.9-16.76529-9.7l-3.79215 2.2c4.34101 7.6 11.82554 11.95 20.60734 11.95 13.1727 0 23.8007-10.7 23.8007-23.9 0-13.25-10.6779-23.950037-23.8007-23.950037z"/>
    <path d="m7.91712 34.151-3.84205 2.2z"/>
    <path d="m27.3263 28.4026c0-.8-.5987-1.45-1.7962-2v3.75c1.1975-.15 1.7962-.75 1.7962-1.75zm-3.5925-6.2v-3.95c-1.1476.2-1.7464.8-1.7464 1.8 0 .9.5988 1.6 1.7464 2.15zm6.8857 6.05c0 1.4-.449 2.5-1.2973 3.35-.8482.85-2.1455 1.35-3.7921 1.55v2.7h-1.7963v-2.65c-1.6965 0-3.2932-.4-4.6903-1.15v-3.45c.4491.35 1.1476.7 2.1456 1.05.9979.35 1.8461.55 2.5447.6v-4.55c-1.8462-.7-3.1435-1.45-3.892-2.25-.7484-.8-1.1476-1.85-1.1476-3.2 0-1.3.4491-2.45 1.3971-3.35.9481-.9 2.1456-1.45 3.6425-1.6v-2.3h1.7963v2.25c1.7464.1 3.0437.35 3.8919.85v3.4c-1.1476-.7-2.4449-1.15-3.8919-1.3v4.7c1.8461.65 3.1435 1.4 3.8919 2.25.8483.85 1.1975 1.85 1.1975 3.1z"/>
  </g>
</svg>
