<svg data-slug-id="clock-blue" xmlns="http://www.w3.org/2000/svg" viewBox="0 0 49 49">
    <path d="M21.5339 12.658V25.9805L30.6175 35.064L32.1792 33.4704L23.765 25.0562V12.658H21.5339Z" fill="#0078D4"/>
    <path d="M35.5258 18.108H47.0316V6.57036H44.8005V14.1559C41.0078 6.21977 32.976 1.08838 24.0519 1.08838C11.3668 1.08838 1.04028 11.4149 1.04028 24.1C1.04028 36.785 11.3668 47.1115 24.0519 47.1115C34.219 47.1115 43.3026 40.2909 46.1392 30.57L44.0037 29.9325C41.4221 38.7292 33.231 44.8805 24.0519 44.8805C12.5779 44.8805 3.27132 35.542 3.27132 24.1C3.27132 12.626 12.5779 3.31942 24.0519 3.31942C32.4023 3.31942 39.8604 8.29145 43.1432 15.877H35.5258V18.108V18.108Z" fill="#0078D4"/>
</svg>
