<svg data-slug-id="clock-blue-alt" xmlns="http://www.w3.org/2000/svg" viewBox="0 0 48 48">
    <path fill-rule="evenodd" clip-rule="evenodd" d="M24.0005 0C10.7457 0 0.000488281 10.7449 0.000488281 24C0.000488281 37.2548 10.7457 48 24.0005 48C37.2552 48 48.0005 37.2548 48.0005 24C48.0005 10.7449 37.2552 0 24.0005 0M24.0002 4.49967C34.7525 4.49967 43.5002 13.2473 43.5002 23.9997C43.5002 34.752 34.7525 43.4997 24.0002 43.4997C13.2478 43.4997 4.50016 34.752 4.50016 23.9997C4.50016 13.2473 13.2478 4.49967 24.0002 4.49967" fill="#0078D4"/>
    <path fill-rule="evenodd" clip-rule="evenodd" d="M21 25.877H25.5V10.877H21V25.877Z" fill="#50E6FF"/>
    <path fill-rule="evenodd" clip-rule="evenodd" d="M33.1852 31.7231L30.0146 34.8937L21 25.8791L24.1706 22.7085L33.1852 31.7231Z" fill="#50E6FF"/>
</svg>
