<svg data-slug-id="clock-two-tone-arrow" xmlns="http://www.w3.org/2000/svg" viewBox="0 0 44 44">
<path d="M43.9692 16.176V4.56647H39.3299V8.72267C35.3391 3.56031 29.0942 0.23999 22.0851 0.23999C10.0276 0.23999 0.262695 10.0307 0.262695 22.12C0.262695 34.2094 10.0353 44.0001 22.0851 44.0001C34.1349 44.0001 43.9075 34.2017 43.9075 22.12C43.9075 21.6866 43.892 21.2609 43.8689 20.8353H39.6001C39.631 21.2609 39.6464 21.6866 39.6464 22.12C39.6464 31.8411 31.7882 39.7278 22.0851 39.7278C12.382 39.7278 4.52373 31.8411 4.52373 22.12C4.52373 12.399 12.382 4.51229 22.0851 4.51229C27.7896 4.51229 32.8535 7.23665 36.057 11.4625H32.3826V16.1141H39.3299V16.176H43.9692Z" fill="#0078D4"/>
<path d="M24.2236 21.0108V9.18457H19.6152V22.9225L26.1071 29.4238L29.3647 26.1577L24.2236 21.0108Z" fill="#50E6FF"/>
</svg>
