<svg data-slug-id="cloud01" viewBox="0 0 49 49" xmlns="http://www.w3.org/2000/svg">
<path d="M48.0195 0.515625H0.0195312V48.5156H48.0195V0.515625Z" fill="white"/>
<path d="M0.0195312 48.5156H48.0195V0.515625H0.0195312V48.5156Z" fill="black"/>
<path d="M0.0195312 48.5156H48.0195V0.515625H0.0195312V48.5156Z" fill="#0078D4"/>
<path d="M38.7073 27.1718H38.6231C38.9767 26.2701 39.1787 25.2926 39.1787 24.2561C39.1787 19.9667 35.7857 16.4864 31.6011 16.4864C30.7171 16.4864 29.8667 16.6465 29.0753 16.9415C26.9956 14.2954 23.8046 12.6016 20.2347 12.6016C13.9621 12.6016 8.86828 17.8179 8.86828 24.2561C8.86828 25.2673 9.00299 26.2448 9.24716 27.1802C6.9402 27.2392 5.08789 29.1606 5.08789 31.537C5.08789 33.9471 6.99913 35.9106 9.3482 35.9106H38.7073C41.0647 35.9106 42.9676 33.9555 42.9676 31.537C42.9676 29.1268 41.0647 27.1718 38.7073 27.1718Z" fill="#50E6FF"/>
</svg>
