<svg data-slug-id="cloud05" viewBox="0 0 49 49" xmlns="http://www.w3.org/2000/svg">
<path d="M41.8766 40.4825C45.4026 36.533 47.6495 31.3961 47.944 25.7539H43.0295C42.7518 30.0403 41.0435 33.9477 38.3843 36.9877L41.8766 40.4825Z" fill="#0078D4"/>
<path d="M6.17949 8.39844C2.5946 12.3648 0.32248 17.5269 0.0195312 23.2196H5.15283C5.43895 18.9417 7.13883 15.0511 9.78963 12.0111L6.17949 8.39844Z" fill="#50E6FF"/>
<path d="M7.98877 42.3933C11.9608 45.947 17.1193 48.2039 22.7996 48.4818V43.4459C18.5162 43.1596 14.6284 41.4501 11.5905 38.7891L7.98877 42.3933Z" fill="#0078D4"/>
<path d="M0.0195312 25.7539C0.314065 31.4466 2.58618 36.6087 6.16266 40.5751L9.7728 36.9624C7.13041 33.9224 5.43895 30.0318 5.15283 25.7539H0.0195312Z" fill="#0078D4"/>
<path d="M41.86 8.49219L38.3677 11.987C41.0353 15.027 42.7436 18.926 43.0213 23.2207H47.9358C47.6413 17.5702 45.3944 12.4417 41.86 8.49219Z" fill="#50E6FF"/>
<path d="M25.3321 48.4637C30.9872 48.1521 36.1289 45.87 40.0672 42.3079L36.5665 38.8047C33.5202 41.4658 29.6155 43.1668 25.3237 43.4447V48.4637H25.3321Z" fill="#0078D4"/>
<path d="M25.3325 0.523438V5.54243C29.6159 5.82033 33.5121 7.51297 36.5585 10.1656L40.0592 6.66244C36.1124 3.10872 30.9791 0.835019 25.3325 0.523438Z" fill="#50E6FF"/>
<path d="M22.7995 0.515625C17.1192 0.793522 11.9691 3.04196 7.99707 6.58726L11.5988 10.1915C14.6283 7.53885 18.5161 5.83778 22.7911 5.54304V0.515625H22.7995Z" fill="#50E6FF"/>
<path d="M36.8107 26.2351C36.8191 26.1761 36.836 26.1172 36.8444 26.0666C36.9117 25.713 36.9454 25.3509 36.9454 24.9803C36.9454 21.7887 34.3619 19.2034 31.1725 19.2034C30.7265 19.2034 30.2973 19.254 29.885 19.355C28.5638 17.275 26.2496 15.9023 23.6072 15.9023C19.509 15.9023 16.185 19.2287 16.185 23.3298C16.185 23.4308 16.185 23.5319 16.1934 23.6329C15.8231 23.5066 15.4192 23.4393 14.9984 23.4393C12.9787 23.4393 11.3462 25.073 11.3462 27.094C11.3462 28.9888 12.7936 30.5467 14.6366 30.732L31.1725 30.7656C33.3436 30.7656 35.2287 29.5698 36.2217 27.8014C36.2469 27.7509 36.2806 27.7003 36.3058 27.6498C36.4573 27.3298 36.6761 26.8498 36.8107 26.2351Z" fill="#50E6FF"/>
</svg>
