<svg data-slug-id="cloud-connected-services" xmlns="http://www.w3.org/2000/svg" viewBox="0 0 48 48">
<path d="M39.1588 8.99657C39.1588 6.70805 37.3074 4.85704 35.0185 4.85704C34.7997 4.85704 34.5893 4.87387 34.3874 4.90752C33.832 3.24162 32.2668 2.04688 30.4238 2.04688C28.2275 2.04688 26.4266 3.75485 26.2752 5.90875C25.9806 5.83303 25.6693 5.79096 25.3495 5.79096C23.313 5.79096 21.6637 7.44004 21.6637 9.47615C21.6637 11.3103 23.0101 12.8332 24.7689 13.1109L24.9876 13.1361C25.1055 13.1445 35.0522 13.1277 35.0522 13.1277C37.3158 13.1193 39.1588 11.2683 39.1588 8.99657Z" fill="#50E6FF"/>
<path d="M30.3651 6.94531H17.6666V17.0417H30.3651V6.94531Z" fill="#0078D4"/>
<path d="M29.0356 8.26562H18.9879V15.7201H29.0356V8.26562Z" fill="#50E6FF"/>
<path d="M30.3737 17.0558V6.92578H17.65V17.0558H23.1114V18.3431H17.6668V19.6809H30.3653V18.3431H24.9543V17.0558H30.3737ZM18.988 8.26355H29.0357V15.7181H18.988V8.26355Z" fill="#0078D4"/>
<path d="M10.1114 41.2301V40.1662H9.01511C8.92235 39.4654 8.64407 38.8153 8.23085 38.2749L9.00668 37.4981L8.25615 36.7467L7.48033 37.5235C6.94062 37.1098 6.29972 36.8311 5.59136 36.7383V35.6406H4.52882V36.7383C3.82889 36.8311 3.17955 37.1098 2.63985 37.5235L1.86402 36.7467L1.1135 37.4981L1.88932 38.2749C1.47611 38.8153 1.19783 39.457 1.10506 40.1662H0.00878906V41.2301H1.10506C1.19783 41.9309 1.47611 42.581 1.88932 43.1214L1.1135 43.8981L1.86402 44.6496L2.63985 43.8728C3.17955 44.2865 3.82045 44.5652 4.52882 44.658V45.7557H5.59136V44.658C6.29129 44.5652 6.94062 44.2865 7.48033 43.8728L8.25615 44.6496L9.00668 43.8981L8.23085 43.1214C8.64407 42.581 8.92235 41.9393 9.01511 41.2301H10.1114ZM5.06009 42.6148C4.00598 42.6148 3.14582 41.7536 3.14582 40.6981C3.14582 39.6427 4.00598 38.7815 5.06009 38.7815C6.1142 38.7815 6.97435 39.6427 6.97435 40.6981C6.97435 41.7536 6.1142 42.6148 5.06009 42.6148Z" fill="#0078D4"/>
<path d="M20.3994 45.8046L12.3291 45.8383V38.2478L13.8723 37.4288L14.8758 35.7148H20.3994V45.8046Z" fill="#0078D4"/>
<path d="M14.867 35.707V38.2569H12.3203L14.867 35.707Z" fill="#50E6FF"/>
<path d="M35.4685 37.8164H25.3574V45.8628H35.4685V37.8164Z" fill="#0078D4"/>
<path d="M34.3975 36.8139V35.75H32.8037V36.8139H28.0138V35.75H26.42V36.8139H25.3574V37.8777H35.4685V36.8139H34.3975Z" fill="#50E6FF"/>
<path d="M47.9919 44.793H37.8809V45.8568H47.9919V44.793Z" fill="#50E6FF"/>
<path d="M43.6822 43.6758H42.2148V45.2209H43.6822V43.6758Z" fill="#50E6FF"/>
<path d="M28.545 39.4727H26.4199V41.6004H28.545V39.4727Z" fill="#50E6FF"/>
<path d="M34.3975 39.4727H32.2725V41.6004H34.3975V39.4727Z" fill="#50E6FF"/>
<path d="M31.4802 39.4727H29.3467V41.6004H31.4718V39.4727H31.4802Z" fill="#50E6FF"/>
<path d="M28.545 42.6719H26.4199V44.7996H28.545V42.6719Z" fill="#50E6FF"/>
<path d="M34.3975 42.6719H32.2725V44.7996H34.3975V42.6719Z" fill="#50E6FF"/>
<path d="M31.4802 42.6719H29.3467V44.7996H31.4718V42.6719H31.4802Z" fill="#50E6FF"/>
<path d="M47.9919 35.707H37.8809V43.7535H47.9919V35.707Z" fill="#0078D4"/>
<path d="M46.9374 36.7539H38.9346V42.698H46.9374V36.7539Z" fill="#0078D4"/>
<path d="M37.8721 35.6914V43.7632H48V35.6914H37.8721V35.6914ZM46.9374 42.6993H38.9346V36.7553H46.9374V42.6993Z" fill="#50E6FF"/>
<path d="M24.7 25.6256V20.4414H23.435V25.6256H4.79834V33.3596H6.06327V26.8921H42.2994V33.3596H43.5643V25.6256H24.7Z" fill="#0078D4"/>
</svg>
