<svg data-slug-id="cloud06" viewBox="0 0 49 49" xmlns="http://www.w3.org/2000/svg">
<path d="M6.17947 8.39453C2.59459 12.3609 0.322479 17.523 0.0195312 23.2157H5.15282C5.43893 18.9377 7.13881 15.0472 9.7896 12.0072L6.17947 8.39453Z" fill="#50E6FF"/>
<path d="M7.98877 42.3894C11.9608 45.9431 17.1193 48.1999 22.7996 48.4778V43.442C18.5162 43.1557 14.6284 41.4462 11.5905 38.7852L7.98877 42.3894Z" fill="#0078D4"/>
<path d="M0.0195312 25.75C0.314064 31.4427 2.58617 36.6048 6.16264 40.5711L9.77277 36.9585C7.13039 33.9185 5.43893 30.0279 5.15282 25.75H0.0195312Z" fill="#0078D4"/>
<path d="M41.86 8.48828L38.3677 11.983C41.0353 15.023 42.7436 18.922 43.0213 23.2168H47.9358C47.6413 17.5662 45.3944 12.4378 41.86 8.48828Z" fill="#50E6FF"/>
<path d="M25.3325 0.519531V5.5385C29.6159 5.8164 33.5121 7.50904 36.5584 10.1617L40.0592 6.65851C36.1124 3.10481 30.9791 0.831112 25.3325 0.519531Z" fill="#50E6FF"/>
<path d="M22.7994 0.511719C17.1192 0.789615 11.9691 3.03805 7.99707 6.58333L11.5988 10.1876C14.6283 7.53491 18.5161 5.83385 22.791 5.53911V0.511719H22.7994Z" fill="#50E6FF"/>
<path d="M36.8111 26.2311C36.8196 26.1722 36.8364 26.1132 36.8448 26.0627C36.9121 25.709 36.9458 25.3469 36.9458 24.9764C36.9458 21.7848 34.3623 19.1995 31.1729 19.1995C30.7269 19.1995 30.2978 19.25 29.8854 19.3511C28.5642 17.2711 26.25 15.8984 23.6077 15.8984C19.5094 15.8984 16.1854 19.2248 16.1854 23.3258C16.1854 23.4269 16.1854 23.5279 16.1938 23.629C15.8236 23.5027 15.4196 23.4353 14.9989 23.4353C12.9792 23.4353 11.3467 25.069 11.3467 27.0901C11.3467 28.9848 12.7941 30.5427 14.637 30.728L31.1729 30.7617C33.3441 30.7617 35.2291 29.5659 36.2221 27.7974C36.2473 27.7469 36.281 27.6964 36.3062 27.6459C36.4577 27.3259 36.6765 26.8459 36.8111 26.2311Z" fill="#50E6FF"/>
<path d="M47.9357 25.75H43.0212C42.9455 26.9037 42.7688 28.0237 42.4995 29.11C43.4252 30.0363 43.9301 31.2742 43.9217 32.5795C43.9217 34.4995 42.8109 36.209 41.1362 37.0174V37.2111H44.3256C46.4294 33.8595 47.7254 29.9521 47.9357 25.75Z" fill="#0078D4"/>
<path d="M29.0858 44.3024V42.8203C27.874 43.1487 26.6202 43.3593 25.3242 43.4435V48.4624C28.3789 48.294 31.2822 47.553 33.9246 46.3403H31.1307C30.0031 46.3403 29.0858 45.4309 29.0858 44.3024Z" fill="#0078D4"/>
<path d="M47.2123 38.4733H40.4969V44.2754H37.5179V42.8607H35.7928V39.9385H37.5179V38.4648H31.1308C30.6932 38.4648 30.3481 38.8101 30.3481 39.248V44.3007C30.3481 44.7301 30.6932 45.0838 31.1308 45.0838H34.1518H47.2123C47.6498 45.0838 47.9949 44.7386 47.9949 44.3007V39.248C48.0033 38.8185 47.6498 38.4733 47.2123 38.4733ZM42.3483 40.8564H41.2879V39.7954H42.3483V40.8564ZM44.4689 40.8564H43.4086V39.7954H44.4689V40.8564ZM46.5895 40.8564H45.5292V39.7954H46.5895V40.8564Z" fill="#50E6FF"/>
<path d="M38.9986 28.9141C36.9706 28.9141 35.3296 30.5562 35.3296 32.5772C35.3296 34.2951 36.5161 35.7351 38.115 36.1309V40.5015H36.3562V42.2615H38.115V43.6762H39.8738V36.1309C41.4727 35.7351 42.6592 34.3036 42.6592 32.5772C42.6677 30.5562 41.0267 28.9141 38.9986 28.9141ZM38.9986 34.4972C37.9383 34.4972 37.0715 33.6383 37.0715 32.5772C37.0715 31.5162 37.9299 30.6572 38.9986 30.6572C40.0674 30.6572 40.9257 31.5162 40.9257 32.5772C40.9257 33.6383 40.0589 34.4972 38.9986 34.4972Z" fill="#0078D4"/>
</svg>
