<svg data-slug-id="cloud08" viewBox="0 0 48 44" xmlns="http://www.w3.org/2000/svg">
<rect x="-0.000976562" y="0.300781" width="48" height="43" rx="5" fill="#0078D4"/>
<path d="M10.1139 30.3008C7.29109 30.3008 4.99902 27.9959 4.99902 25.1573C4.99902 22.5613 6.90505 20.4263 9.39013 20.0866C9.19712 19.286 9.07648 18.4369 9.07648 17.5634C9.10061 11.8862 13.6606 7.30078 19.3063 7.30078C23.1908 7.30078 26.5685 9.50859 28.3057 12.7354C29.1501 12.3229 30.1152 12.0803 31.1285 12.0803C34.6511 12.0803 37.5222 14.9674 37.5222 18.5096C37.5222 19.0434 37.4498 19.5772 37.3292 20.0866C37.5222 20.0624 37.7152 20.0624 37.9082 20.0624C40.707 20.0381 42.999 22.3187 42.999 25.1573C42.999 27.9959 40.707 30.3008 37.8841 30.3008H10.1139Z" fill="#50E6FF"/>
<rect x="15.999" y="34.3008" width="16" height="1" fill="white"/>
</svg>
