<svg data-slug-id="cloud-arrow" xmlns="http://www.w3.org/2000/svg" viewBox="0 0 193 148">
    <path d="M173.355 69.1726C174.134 65.9894 174.527 62.7241 174.525 59.447C174.513 48.5304 170.17 38.0647 162.451 30.3455C154.732 22.6263 144.266 18.284 133.35 18.2712C129.757 18.2745 126.18 18.7539 122.713 19.6966C114.674 10.7547 104.112 4.46165 92.4213 1.64886C80.7306 -1.16394 68.4616 -0.364186 57.2349 3.94247C46.0083 8.24913 36.3522 15.8601 29.542 25.77C22.7318 35.6799 19.0881 47.4226 19.092 59.447C19.0979 62.7445 19.3862 66.0355 19.9537 69.2839C13.9765 70.754 8.74513 74.3635 5.2491 79.4297C1.75307 84.4959 0.234736 90.6676 0.981267 96.7776C1.7278 102.888 4.68743 108.512 9.30042 112.588C13.9134 116.663 19.8599 118.907 26.0153 118.894H45.4306L50.1594 114.255H26.0153C20.5704 114.318 15.3235 112.215 11.4288 108.41C7.53411 104.604 5.31067 99.4076 5.2476 93.9627C5.18454 88.5179 7.28703 83.2709 11.0925 79.3762C14.8981 75.4815 20.0949 73.2581 25.5397 73.195C22.3838 61.0757 23.4773 48.2407 28.6379 36.8298C33.7986 25.419 42.7146 16.1218 53.8995 10.4882C65.0845 4.85468 77.8624 3.22513 90.1033 5.87127C102.344 8.51742 113.308 15.2794 121.167 25.0298C127.798 22.6729 134.969 22.2834 141.816 23.9081C148.663 25.5329 154.895 29.1026 159.76 34.1873C164.625 39.272 167.916 45.6549 169.237 52.567C170.558 59.4792 169.853 66.6259 167.205 73.1463H167.602C173.053 73.1463 178.281 75.3117 182.135 79.1662C185.99 83.0206 188.155 88.2484 188.155 93.6994V93.6994C188.155 99.1505 185.99 104.378 182.135 108.233C178.281 112.087 173.053 114.253 167.602 114.253H109.326V118.892H167.602C173.782 118.892 179.747 116.62 184.361 112.509C188.976 108.397 191.918 102.733 192.628 96.594C193.339 90.4546 191.768 84.2684 188.214 79.2119C184.66 74.1555 179.372 70.5817 173.355 69.1703V69.1726Z" fill="#0078D4"/>
  <path d="M97.1171 86.5649V118.93H101.893L101.895 78.1082L61.0749 78.1105V82.8881H94.0411L31.3413 144.404L34.7189 147.781L97.1171 86.5649Z" fill="#999999"/>
</svg>