<svg data-slug-id="cloud-unlocked" xmlns="http://www.w3.org/2000/svg" viewBox="0 0 49 49">
  <path d="m37.2767 10.6782c-.8222 0-1.6112.0916-2.3754.283-2.4335-3.84511-6.7026-6.38356-11.5863-6.38356-7.5664 0-13.6959 6.15056-13.6959 13.73256 0 .1831 0 .3746.01661.5577-.68106-.2331-1.42856-.3579-2.20929-.3579-3.72091.0083-6.735838 3.0295-6.735838 6.7664 0 3.5039 2.674398 6.3836 6.071388 6.7248l16.09623.0333v-6.8496c0-6.1506 4.9751-11.1443 11.1212-11.1443 6.1462 0 11.1212 4.9854 11.1212 11.1443v3.4539c.5731-.6242 1.0797-1.315 1.495-2.0557.0499-.0916.108-.1831.1578-.283.2824-.5909.6811-1.4814.9303-2.6133.0166-.1082.0498-.2164.0581-.308.1246-.6575.1827-1.3233.1827-2.0058.0083-5.9092-4.7591-10.6948-10.6478-10.6948z" fill="#50e6ff"/>
  <path d="m42.7745 24.8106c0-4.8023-3.9202-8.7389-8.7126-8.7389-4.3023 0-7.8903 3.1709-8.5796 7.299h3.5714c.2408-.8489.6976-1.6146 1.3289-2.2554.9883-.9904 2.2923-1.5314 3.6876-1.5314 1.3871 0 2.6911.5493 3.6877 1.5314.9884.9904 1.5283 2.2971 1.5283 3.6953v2.1056h-13.9368v17.5112h17.4085v-16.3876c.0166-1.5813.0166-2.863.0166-3.2292z" fill="#0078d4"/>
  <path d="m34.0203 37.8188c1.1711 0 2.1345-.9571 2.1345-2.1389 0-1.1736-.9468-2.139-2.1345-2.139-1.1711 0-2.1346.9488-2.1346 2.139 0 1.1818.9552 2.1389 2.1346 2.1389z" fill="#50e6ff"/>
</svg>
