<svg data-slug-id="cloud-workload" xmlns="http://www.w3.org/2000/svg" viewBox="0 0 48 49">
    <path d="M10.1162 48.0742H37.884V0.0742188H10.1162V48.0742Z" fill="#0078D4"/>
    <path d="M15.168 10.0005H32.8322V4.98242H15.168V10.0005Z" fill="#50E6FF"/>
    <path d="M15.168 42.8624H32.8322V37.8359H15.168V42.8624Z" fill="#50E6FF"/>
    <path d="M15.168 35.3351H32.8322V30.3086H15.168V35.3351Z" fill="#50E6FF"/>
    <path d="M30.6768 21.0383H30.0706C30.0706 19.2112 28.5888 17.7294 26.7617 17.7294C26.4923 17.7294 26.2313 17.763 25.9871 17.822C25.1031 16.4412 23.5623 15.5234 21.7942 15.5234C19.0494 15.5234 16.8266 17.7462 16.8266 20.491C16.8266 20.6931 16.8435 20.8951 16.8603 21.0972C15.8921 21.3077 15.168 22.1665 15.168 23.2021V23.3115C15.168 24.4987 16.1362 25.467 17.3234 25.467H30.6768C31.864 25.467 32.8322 24.4987 32.8322 23.3115V23.2021C32.8322 21.9981 31.864 21.0383 30.6768 21.0383Z" fill="white"/>
</svg>
