<svg data-slug-id="cloud11" viewBox="0 0 49 49" xmlns="http://www.w3.org/2000/svg">
<path d="M38.5908 12.9244H48.7094V2.8125H38.5908V12.9244Z" fill="#50E6FF"/>
<path d="M23.2868 41.7687C23.2952 41.7181 23.3037 41.6676 23.3205 41.6171C23.3794 41.3056 23.4131 40.9856 23.4131 40.6573C23.4131 37.8283 21.1234 35.5466 18.3033 35.5466C17.9077 35.5466 17.5204 35.5887 17.1585 35.6813C15.9968 33.8458 13.9427 32.625 11.6025 32.625C7.97431 32.625 5.02798 35.5718 5.02798 39.2007C5.02798 39.2933 5.02798 39.3775 5.02798 39.4701C4.69967 39.3607 4.34611 39.2933 3.97571 39.2933C2.19108 39.2849 0.743164 40.7331 0.743164 42.518C0.743164 44.1935 2.02271 45.5743 3.65583 45.7343L18.2949 45.7595C20.2226 45.7595 21.8894 44.6987 22.7649 43.1326C22.7902 43.0905 22.8154 43.0484 22.8407 42.9979C22.9669 42.7369 23.1606 42.3159 23.2868 41.7687Z" fill="#0078D4"/>
<path d="M36.0487 15.4258H24.036V18.9115H30.1728L18.4717 30.5979L20.9213 33.048L32.6141 21.3532V27.4826H36.0992V15.4258H36.0487Z" fill="#0078D4"/>
</svg>
