<svg data-slug-id="cloud-lightning-blue" xmlns="http://www.w3.org/2000/svg" viewBox="0 0 49 49">
<path d="M48.3276 28.3133C48.3276 22.0756 43.2737 17.0133 37.0276 17.0133C36.44 17.0133 35.8607 17.0553 35.2982 17.1476C33.8122 12.631 29.5475 9.36523 24.5271 9.36523C18.5329 9.36523 13.6217 14.0162 13.2103 19.9096C12.4044 19.6998 11.5481 19.5906 10.675 19.5906C5.13412 19.5822 0.634277 24.0821 0.634277 29.6313C0.634277 34.6349 4.303 38.7905 9.09667 39.5461L9.68434 39.6217C10.0118 39.6552 37.12 39.6049 37.12 39.6049C43.324 39.5629 48.3276 34.5258 48.3276 28.3133Z" fill="#0078D4"/>
<path d="M32.4535 24.7611H26.5192V14.957L16.6504 24.8259H22.5847V34.63L32.4535 24.7611Z" fill="#50E6FF"/>
</svg>
