<svg data-slug-id="cloud04" viewBox="0 0 49 49" xmlns="http://www.w3.org/2000/svg">
<path d="M35.348 10.768C34.7834 5.01155 29.9135 0.515625 23.9903 0.515625C17.7301 0.515625 12.641 5.54938 12.582 11.7849V20.054L17.6542 20.0708V11.7512L17.6458 11.7428C17.7469 8.34778 20.5358 5.61661 23.965 5.61661C27.3942 5.61661 30.1831 8.33938 30.2842 11.7428V20.0624H35.3227V11.7596C35.3395 11.3647 35.3648 10.9529 35.348 10.768Z" fill="#50E6FF"/>
<path d="M40.4032 48.4254H7.57715V18.1641H40.4032V48.4254Z" fill="#0078D4"/>
<path d="M32.8201 33.5923H32.7274C32.778 33.3318 32.8117 33.0629 32.8117 32.7856C32.8117 30.5334 30.9833 28.7098 28.7253 28.7098C27.9164 28.7098 27.1665 28.9451 26.5346 29.3401C25.5235 27.0459 23.2234 25.4492 20.5525 25.4492C16.9463 25.4492 14.0142 28.3653 14.0142 31.9704C14.0142 32.5587 14.09 33.1301 14.2417 33.6679C13.1801 33.9369 12.3965 34.8949 12.3965 36.0378C12.3965 37.3907 13.4918 38.4832 14.8483 38.4832H20.2407C20.3418 38.4916 20.4429 38.4916 20.544 38.4916C20.6451 38.4916 20.7462 38.4916 20.8473 38.4832H32.8117C34.1682 38.4832 35.2635 37.3907 35.2635 36.0378C35.2719 34.6848 34.1682 33.5923 32.8201 33.5923Z" fill="white"/>
</svg>
