<svg data-slug-id="cloud-link" xmlns="http://www.w3.org/2000/svg" viewBox="0 0 72 72" >
<path d="M71.6089 36.7326C71.6341 36.5682 71.6846 36.4037 71.7098 36.2519C71.8991 35.2527 72 34.2281 72 33.1782C72 24.1845 64.7457 16.8858 55.7757 16.8858C54.5141 16.8858 53.303 17.025 52.1423 17.3159C48.4205 11.4466 41.9232 7.58856 34.4924 7.58856C22.9613 7.58856 13.6128 16.9617 13.6128 28.5485C13.6128 28.8394 13.6128 29.1177 13.638 29.4087C12.5909 29.0545 11.4554 28.8647 10.2695 28.8647C4.60487 28.8647 0 33.4817 0 39.1613C0 44.512 4.075 48.8886 9.24759 49.4073L55.7379 49.5084C61.8314 49.5084 67.1428 46.1311 69.9436 41.1599C70.0193 41.0207 70.1076 40.869 70.1833 40.7298C70.6248 39.8317 71.2304 38.4656 71.6089 36.7326Z" fill="#50E6FF"/>
<path d="M0.11499 64.3596C0.11499 57.0104 6.04455 51.0652 13.3745 51.0652C20.7044 51.0652 26.634 57.0104 26.634 64.3596H0.11499V64.3596Z" fill="#0078D7"/>
<path d="M20.9297 41.4245C20.9297 45.5861 17.5612 48.9635 13.4105 48.9635C9.25985 48.9635 5.89136 45.5861 5.89136 41.4245C5.89136 37.2629 9.25985 33.8855 13.4105 33.8855C17.5612 33.8855 20.9297 37.2502 20.9297 41.4245Z" fill="#0078D7"/>
<path d="M64.5312 30.2564V22.7174H57.0121V30.2564H59.8254V38.0231H57.0121V40.8439H49.1775V38.0231H46.3641V30.2564H49.1775V22.7174H41.6583V25.5382H34.076V22.7174H26.5568V30.2564H29.3702V38.0231H26.5568V45.5621H34.076V38.0231H31.2626V30.2564H34.076V27.4356H41.6583V30.2564H44.4717V38.0231H41.6583V45.5621H49.1775V42.7413H57.0121V45.5621H64.5312V38.0231H61.7179V30.2564H64.5312Z" fill="#0078D4"/>
</svg>
