<svg data-slug-id="cloud-secure" xmlns="http://www.w3.org/2000/svg" viewBox="0 0 48 48">
    <path d="M6.16208 7.88281C2.57595 11.8491 0.303053 17.0112 0 22.7037H5.13506C5.42128 18.4259 7.12174 14.5354 9.77346 11.4954L6.16208 7.88281Z" fill="#50E6FF"/>
    <path d="M7.97192 41.8771C11.9453 45.4308 17.1056 47.6876 22.7878 47.9655V42.9298C18.503 42.6434 14.6138 40.934 11.5749 38.2729L7.97192 41.8771Z" fill="#0078D4"/>
    <path d="M0 25.2383C0.294635 30.9309 2.56753 36.0929 6.14524 40.0592L9.75662 36.4466C7.11333 33.4066 5.42128 29.5161 5.13506 25.2383H0Z" fill="#0078D4"/>
    <path d="M41.8549 7.97656L38.3613 11.4713C41.0299 14.5112 42.7388 18.4102 43.0166 22.7049H47.9328C47.6381 17.0544 45.3905 11.926 41.8549 7.97656Z" fill="#50E6FF"/>
    <path d="M25.3215 0.0078125V5.02672C29.6064 5.30461 33.504 6.99723 36.5513 9.64984L40.0533 6.14671C36.1052 2.59306 30.9701 0.319389 25.3215 0.0078125Z" fill="#50E6FF"/>
    <path d="M22.7877 0C17.1055 0.277893 11.9536 2.5263 7.98022 6.07153L11.5832 9.67571C14.6137 7.0231 18.5029 5.32206 22.7793 5.02733V0H22.7877Z" fill="#50E6FF"/>
    <path d="M47.0996 30.4003C47.5542 28.7414 47.8404 27.0151 47.933 25.2383H43.0168C43 25.4909 42.9747 25.7435 42.9495 25.9962C44.8099 26.9225 46.2915 28.4888 47.0996 30.4003Z" fill="#0078D4"/>
    <path d="M25.3215 42.9292V47.9481C27.0557 47.8555 28.7477 47.5692 30.364 47.1229V41.9019C28.7646 42.4661 27.0725 42.8113 25.3215 42.9292Z" fill="#0078D4"/>
    <path d="M37.7217 25.1865C37.7638 24.9002 37.7806 24.6139 37.7806 24.3107C37.7806 20.8834 35.0026 18.1044 31.5764 18.1044C31.0966 18.1044 30.6336 18.155 30.1875 18.2644C28.7732 16.0329 26.2814 14.5508 23.4445 14.5508C19.0334 14.5508 15.4641 18.1297 15.4641 22.5339C15.4641 22.6433 15.4641 22.7528 15.4725 22.8623C15.0685 22.7276 14.6392 22.6518 14.193 22.6518C12.0211 22.6518 10.2617 24.4118 10.2617 26.5844C10.2617 28.6222 11.8107 30.298 13.8058 30.4917L30.9956 30.5254C32.132 27.738 34.6659 25.6665 37.7217 25.1865Z" fill="#50E6FF"/>
    <path d="M45.4076 33.7349C45.4076 30.2571 42.5623 27.4023 39.0771 27.4023C35.954 27.4023 33.3444 29.7013 32.8477 32.6907H35.4405C35.6173 32.076 35.9456 31.5202 36.4086 31.0571C37.1241 30.3413 38.0754 29.9455 39.0856 29.9455C40.0957 29.9455 41.0386 30.3413 41.7625 31.0571C42.4781 31.7728 42.8737 32.7244 42.8737 33.7349C42.8737 33.937 42.8737 34.5097 42.8737 35.2591H32.7551V47.9496H45.3992V36.076C45.4076 34.9307 45.4076 34.0044 45.4076 33.7349Z" fill="#0078D4"/>
    <path d="M39.0519 43.1648C39.9021 43.1648 40.6008 42.4743 40.6008 41.6154C40.6008 40.7649 39.9105 40.0659 39.0519 40.0659C38.2016 40.0659 37.5029 40.7564 37.5029 41.6154C37.5029 42.4743 38.1932 43.1648 39.0519 43.1648Z" fill="#50E6FF"/>
</svg>
