<svg data-slug-id="cloud03" viewBox="0 0 49 49" xmlns="http://www.w3.org/2000/svg">
<path d="M29.2051 40.1582H0.519531V11.4727H29.2051V40.1582Z" fill="#0078D7"/>
<path d="M47.5101 28.7401H30.2427V11.4727H47.5194V28.7401H47.5101Z" fill="#0078D7"/>
<path d="M40.4368 40.2556H30.1772V29.9961H40.4368V40.2556Z" fill="#0078D7"/>
<path d="M47.5195 35.9668H41.5488V29.9961H47.5195V35.9668Z" fill="#0078D7"/>
<path d="M47.5194 40.057H44.2397V36.7773H47.5194V40.057Z" fill="#0078D7"/>
<path d="M21.0856 23.2343C21.0856 20.6273 18.9739 18.5156 16.3669 18.5156C14.1151 18.5156 12.2369 20.0854 11.7698 22.1971C11.3026 21.7112 10.6485 21.4122 9.92902 21.4122C8.50875 21.4122 7.35946 22.5615 7.35946 23.9818C7.35946 24.0005 7.35946 24.0285 7.35946 24.0472C5.78969 24.3555 4.60303 25.7384 4.60303 27.4016C4.60303 29.2891 6.13542 30.8215 8.02287 30.8215H22.0573C23.7672 30.8215 25.1595 29.4292 25.1595 27.7193C25.1595 26.0094 23.7672 24.6172 22.0573 24.6172C21.5995 24.6172 21.1697 24.7199 20.7772 24.8975C20.9734 24.3836 21.0856 23.8229 21.0856 23.2343Z" fill="#50E6FF"/>
</svg>
