<svg data-slug-id="cloud-locked" xmlns="http://www.w3.org/2000/svg" viewBox="0 0 50 49">
  <path d="M4.10841 19.075C5.82655 19.075 7.21938 17.6821 7.21938 15.964C7.21938 14.2459 5.82655 12.853 4.10841 12.853C2.39027 12.853 0.997437 14.2459 0.997437 15.964C0.997437 17.6821 2.39027 19.075 4.10841 19.075Z" fill="#50E6FF"/>
  <path d="M40.1126 28.549C40.2453 27.9351 40.32 27.3046 40.32 26.6492C40.32 21.8293 36.4126 17.9302 31.601 17.9302C30.929 17.9302 30.2736 18.0048 29.6514 18.1542C27.6604 15.0183 24.1595 12.936 20.1692 12.936C13.9721 12.936 8.95311 17.9634 8.95311 24.1521C8.95311 24.3097 8.95311 24.4591 8.96141 24.6084C8.39729 24.4176 7.79168 24.3097 7.16119 24.3097C4.10829 24.3097 1.63611 26.7819 1.63611 29.8348C1.63611 32.6969 3.81794 35.053 6.61366 35.3267L31.601 35.3765C34.9774 35.3765 37.8976 33.4601 39.3494 30.6644C39.3079 30.4985 39.283 30.3326 39.283 30.1501C39.2747 29.4864 39.6065 28.8974 40.1126 28.549Z" fill="#50E6FF"/>
  <path d="M41.2326 14.5371C36.9436 14.5371 33.4261 18.0463 33.4261 22.3436V37.9482H49.0308V22.3436C49.0308 18.0463 45.5216 14.5371 41.2326 14.5371ZM41.2326 32.0996C40.1541 32.0996 39.2831 31.2285 39.2831 30.15C39.2831 29.0716 40.1541 28.2005 41.2326 28.2005C42.3111 28.2005 43.1822 29.0716 43.1822 30.15C43.1822 31.2202 42.3028 32.0996 41.2326 32.0996ZM35.9149 22.3436C35.9149 20.9333 36.4708 19.5976 37.4746 18.5938C38.4867 17.5817 39.814 17.0342 41.2243 17.0342C42.6346 17.0342 43.9703 17.59 44.9741 18.5938C45.9862 19.6059 46.5337 20.9333 46.5337 22.3436H35.9149Z" fill="#0078D4"/>
</svg>
