<svg data-slug-id="cloud07" viewBox="0 0 49 49" xmlns="http://www.w3.org/2000/svg">
<path d="M41.5479 29.3551C44.9715 29.3551 47.7514 26.577 47.7514 23.1556C47.7514 20.0266 45.4397 17.4532 42.4258 17.0438C42.6599 16.0788 42.8062 15.0553 42.8062 14.0026C42.7769 7.15972 37.2465 1.63281 30.3993 1.63281C25.6882 1.63281 21.5916 4.29392 19.4848 8.18322C18.4606 7.6861 17.2902 7.39367 16.0612 7.39367C11.789 7.39367 8.30691 10.8736 8.30691 15.143C8.30691 15.7864 8.39469 16.4297 8.541 17.0438C8.30691 17.0146 8.07281 17.0146 7.83872 17.0146C4.44439 16.9853 1.66455 19.7342 1.66455 23.1556C1.66455 26.577 4.44439 29.3551 7.86798 29.3551H41.5479Z" fill="#0078D4"/>
<path d="M31.1306 34.1221C29.4042 36.6954 24.7516 41.7252 24.7516 41.7252C24.7516 41.7252 19.0749 36.1983 17.7581 33.4202C16.9681 31.7826 16.3829 30.5252 16.0025 29.3555H11.1743C11.8181 31.7241 13.0178 34.8824 14.5686 37.1048C16.734 40.2338 18.3726 41.8129 19.9528 43.4213C21.5329 45.0297 24.7516 47.72 24.7516 47.72C24.7516 47.72 29.7261 43.3336 31.5988 41.0234C33.4716 38.7132 36.4855 34.6484 37.3048 32.1043C37.656 30.9931 37.9193 30.145 38.1241 29.3555H33.296C32.8863 30.9346 32.2133 32.5722 31.1306 34.1221Z" fill="#0078D4"/>
<path d="M38.6219 18.3894C38.6219 18.3894 37.4807 18.4479 36.8955 18.3017C35.8128 18.0678 33.9108 17.0735 32.0088 15.5821C30.1068 14.0907 27.1807 12.4531 24.752 12.4531C22.3233 12.4531 19.719 13.9738 18.2267 15.1435C16.7343 16.3132 14.4227 18.1555 12.7255 18.214C11.7014 18.2432 10.6479 18.214 10.6479 18.214C10.6479 18.214 10.6479 24.9106 10.6479 26.5482C10.6479 27.1038 10.8235 28.1273 11.1747 29.3555H16.0613C15.798 28.566 15.6517 27.8057 15.5639 26.9868C15.3883 24.9691 15.4761 22.074 15.4761 22.074C15.4761 22.074 16.6758 22.074 17.6122 21.4599C18.5485 20.8458 20.5383 19.3837 21.7966 18.4772C22.6159 17.8631 23.6693 17.3074 24.4886 17.3074C25.3079 17.3074 25.9224 17.0735 28.2048 18.7988C30.4872 20.5242 30.9847 20.7874 31.6284 21.109C32.3014 21.4307 33.6475 22.0156 33.6475 22.0156C33.6475 22.0156 33.823 24.6182 33.7353 26.3435C33.6767 27.3085 33.5304 28.3028 33.2671 29.3263H38.0952C38.3586 28.2443 38.5049 27.2793 38.5634 25.9341C38.7097 23.5947 38.6219 18.3894 38.6219 18.3894Z" fill="#50E6FF"/>
</svg>
