<svg data-slug-id="cloud-two-gears" xmlns="http://www.w3.org/2000/svg" viewBox="0 0 97 56">
  <path d="M95.4946 38.7504C95.5451 38.5314 95.5788 38.3292 95.6293 38.1102C95.8821 36.7961 96.0169 35.4314 96.0169 34.033C96.0169 22.0709 86.3124 12.4001 74.384 12.4001C72.716 12.4001 71.0818 12.5855 69.5486 12.9561C64.5953 5.17234 55.9017 0 45.9951 0C30.6129 0 18.1622 12.4844 18.1622 27.8329C18.1622 28.2204 18.1622 28.5911 18.179 28.9617C16.7806 28.49 15.2812 28.2204 13.7143 28.2204C6.13268 28.2204 0 34.37 0 41.9347C0 49.0446 5.40821 54.8908 12.3496 55.5648L74.3672 55.6827C82.5216 55.6827 89.5978 51.1843 93.2875 44.563C93.3886 44.3777 93.4897 44.1923 93.5907 43.9902C94.1636 42.8445 94.9891 41.0586 95.4946 38.7504Z" fill="#0078D4"/>
  <path d="M65.842 29.6694V25.946H61.9838C61.6469 23.4694 60.6865 21.2117 59.2376 19.3248L61.967 16.5954L59.3218 13.9502L56.6093 16.6796C54.7223 15.2307 52.4479 14.2704 49.988 13.9334V10.0752H46.2478V13.9334C43.7711 14.2704 41.5135 15.2307 39.6265 16.6796L36.8971 13.9502L34.252 16.5954L36.9814 19.3248C35.5324 21.2117 34.5721 23.4862 34.2351 25.946H30.377V29.6863H34.2351C34.5721 32.1629 35.5324 34.4206 36.9814 36.3076L34.252 39.0369L36.8971 41.6821L39.6265 38.9527C41.5135 40.4016 43.788 41.362 46.2478 41.6989V45.5571H49.988V41.6989C52.4647 41.362 54.7223 40.4016 56.6093 38.9527L59.3387 41.6821L61.9838 39.0369L59.2544 36.3076C60.7034 34.4206 61.6637 32.1461 62.0007 29.6863H65.842V29.6694ZM48.1179 35.6673C43.7711 35.6673 40.2499 32.1293 40.2499 27.7993C40.2499 23.4694 43.788 19.9313 48.1179 19.9313C52.4647 19.9313 55.9859 23.4694 55.9859 27.7993C55.9859 32.1293 52.4479 35.6673 48.1179 35.6673Z" fill="#50E6FF"/>
  <path d="M84.6614 36.4758V34.8079H82.9429C82.7912 33.6959 82.3532 32.685 81.713 31.8426L82.9429 30.6127L81.7635 29.4333L80.5336 30.6632C79.6912 30.023 78.6803 29.585 77.5683 29.4333V27.7148H75.9004V29.4333C74.7884 29.585 73.7775 30.023 72.9351 30.6632L71.7052 29.4333L70.5259 30.6127L71.7558 31.8426C71.1156 32.685 70.6775 33.6959 70.5259 34.8079H68.8074V36.4758H70.5259C70.6775 37.5878 71.1156 38.5987 71.7558 39.4411L70.5259 40.671L71.7052 41.8503L72.9351 40.6204C73.7775 41.2607 74.7884 41.6987 75.9004 41.8503V43.5688H77.5683V41.8503C78.6803 41.6987 79.6912 41.2607 80.5336 40.6204L81.7635 41.8503L82.9429 40.671L81.713 39.4411C82.3532 38.5987 82.7912 37.5878 82.9429 36.4758H84.6614ZM76.7259 38.6492C75.058 38.6492 73.7102 37.3014 73.7102 35.6334C73.7102 33.9655 75.058 32.6176 76.7259 32.6176C78.3939 32.6176 79.7417 33.9655 79.7417 35.6334C79.7417 37.3014 78.3771 38.6492 76.7259 38.6492Z" fill="#50E6FF"/>
</svg>
