<svg data-slug-id="cloud10" viewBox="0 0 49 49" xmlns="http://www.w3.org/2000/svg">
<path d="M48.1729 27.5677C48.3329 26.8182 48.4256 26.0435 48.4256 25.2435C48.4256 19.3487 43.6424 14.574 37.7561 14.574C36.9308 14.574 36.1308 14.6666 35.3729 14.8519C32.9392 11.0119 28.6529 8.46875 23.7687 8.46875C16.1898 8.46875 10.0508 14.6161 10.0508 22.1866C10.0508 22.3803 10.0508 22.5656 10.0592 22.7424C9.36871 22.5066 8.62766 22.3803 7.85292 22.3803C4.11398 22.3803 1.09082 25.4035 1.09082 29.1424C1.09082 32.6456 3.76029 35.5256 7.17924 35.8624L37.7477 35.9214C41.8824 35.9214 45.4529 33.5803 47.2298 30.153C47.8192 28.9235 47.8782 28.654 48.1729 27.5677Z" fill="#50E6FF"/>
<path d="M24.6697 19.3859L15.6592 28.3964L18.2697 31.0069L22.8676 26.409L22.8592 43.9416H26.5308V26.409L31.1287 31.0069L33.7392 28.3964L24.7118 19.3438L24.6697 19.3859Z" fill="#0078D4"/>
</svg>
