<svg data-slug-id="cloud02" viewBox="0 0 49 49" xmlns="http://www.w3.org/2000/svg">
<path d="M47.7333 29.97C47.7585 29.8605 47.7754 29.7595 47.8006 29.65C47.9269 28.9931 47.9943 28.311 47.9943 27.6121C47.9943 21.6331 43.1446 16.7995 37.1835 16.7995C36.35 16.7995 35.5333 16.8921 34.7671 17.0774C32.3002 13.1868 27.9557 10.6016 23.005 10.6016C15.3179 10.6016 9.09583 16.8416 9.09583 24.5131C9.09583 24.7068 9.09583 24.8921 9.10425 25.0774C8.40543 24.8416 7.65609 24.7068 6.87307 24.7068C3.08426 24.7068 0.0195312 27.7721 0.0195312 31.5616C0.0195312 35.1152 2.72221 38.0374 6.19108 38.3742L37.1835 38.4331C41.2586 38.4331 44.7948 36.1847 46.6387 32.8752C46.6892 32.7826 46.7398 32.69 46.7903 32.5889C47.0681 32.0163 47.4807 31.1237 47.7333 29.97Z" fill="#0078D4"/>
<path d="M29.7084 20.5699C29.7084 17.0914 26.8558 14.1992 23.3388 14.1992C20.2126 14.1992 17.5945 16.5052 17.0865 19.5147H19.6656C19.8609 18.8893 20.1736 18.3421 20.6425 17.8731C21.3849 17.1305 22.3228 16.7397 23.3388 16.7397C24.3548 16.7397 25.2927 17.1305 26.0351 17.8731C26.7776 18.6157 27.1684 19.5537 27.1684 20.5699C27.1684 20.7653 27.1684 21.3516 27.1684 22.0942H17.0083V34.8356H29.7084C29.7084 34.8356 29.7084 20.8435 29.7084 20.5699Z" fill="#50E6FF"/>
<path d="M23.339 29.6697C24.1806 29.6697 24.863 28.9872 24.863 28.1454C24.863 27.3035 24.1806 26.6211 23.339 26.6211C22.4973 26.6211 21.8149 27.3035 21.8149 28.1454C21.8149 28.9872 22.4973 29.6697 23.339 29.6697Z" fill="#0078D4"/>
</svg>
