<svg data-slug-id="cloud-policy" xmlns="http://www.w3.org/2000/svg" viewBox="0 0 48 48">
  <path d="M29.1856 39.6426H0.5V10.957H29.1856V39.6426Z" fill="#0078D7"/>
  <path d="M47.4906 28.2244H30.2231V10.957H47.4999V28.2244H47.4906Z" fill="#0078D7"/>
  <path d="M40.4175 39.7408H30.158V29.4813H40.4175V39.7408Z" fill="#0078D7"/>
  <path d="M47.5 35.452H41.5293V29.4813H47.5V35.452Z" fill="#0078D7"/>
  <path d="M47.5 39.5406H44.2203V36.2609H47.5V39.5406Z" fill="#0078D7"/>
  <path d="M21.0657 22.7182C21.0657 20.1112 18.954 17.9995 16.3471 17.9995C14.0952 17.9995 12.2171 19.5693 11.7499 21.681C11.2827 21.1951 10.6286 20.8961 9.90915 20.8961C8.48889 20.8961 7.33959 22.0454 7.33959 23.4657C7.33959 23.4843 7.33959 23.5124 7.33959 23.5311C5.76983 23.8394 4.58316 25.2223 4.58316 26.8855C4.58316 28.773 6.11555 30.3054 8.00301 30.3054H22.0375C23.7474 30.3054 25.1396 28.9131 25.1396 27.2032C25.1396 25.4933 23.7474 24.101 22.0375 24.101C21.5796 24.101 21.1498 24.2038 20.7573 24.3814C20.9536 23.8674 21.0657 23.3068 21.0657 22.7182Z" fill="#50E6FF"/>
</svg>
