<svg data-slug-id="cloud09" viewBox="0 0 49 49" xmlns="http://www.w3.org/2000/svg">
<path d="M47.9541 32.5366C47.9794 32.4272 47.9962 32.3261 48.0214 32.2166C48.1477 31.5598 48.215 30.8777 48.215 30.1872C48.215 24.2251 43.3763 19.3998 37.4352 19.3998C36.6021 19.3998 35.7858 19.4924 35.0285 19.6777C32.5712 15.7956 28.2374 13.2188 23.2977 13.2188C15.6315 13.2188 9.42958 19.4419 9.42958 27.0966C9.42958 27.2903 9.42958 27.4756 9.438 27.6609C8.73954 27.4251 7.99059 27.2903 7.2164 27.2903C3.438 27.2903 0.383301 30.3472 0.383301 34.1282C0.383301 37.6735 3.07615 40.5872 6.53477 40.924L37.4352 40.983C41.4997 40.983 45.0257 38.743 46.8602 35.4335C46.9106 35.3409 46.9611 35.2482 47.0116 35.1472C47.2893 34.583 47.7017 33.6903 47.9541 32.5366Z" fill="#0078D4"/>
<path d="M38.2007 13.2012H48.1221V3.28125H38.2007V13.2012Z" fill="#50E6FF"/>
<path d="M35.525 15.6016H17.8616V20.7216H26.8826L12.2739 35.3321L15.8756 38.9363L30.4843 24.3258V33.3447H35.6091V15.6016H35.525Z" fill="#50E6FF"/>
</svg>
