<svg data-slug-id="code08" viewBox="0 0 49 49" xmlns="http://www.w3.org/2000/svg">
<path d="M0.0195312 43.4834H48.0195V6.52344H0.0195312V43.4834Z" fill="#0078D4"/>
<path d="M0.0195312 10.5177H48.0027V5.51562H0.0195312V10.5177Z" fill="#50E6FF"/>
<path d="M7.49742 9.33664C8.17179 9.33664 8.71847 8.78995 8.71847 8.11558C8.71847 7.44122 8.17179 6.89453 7.49742 6.89453C6.82305 6.89453 6.27637 7.44122 6.27637 8.11558C6.27637 8.78995 6.82305 9.33664 7.49742 9.33664Z" fill="white"/>
<path d="M3.70787 9.33664C4.38224 9.33664 4.92892 8.78995 4.92892 8.11558C4.92892 7.44122 4.38224 6.89453 3.70787 6.89453C3.0335 6.89453 2.48682 7.44122 2.48682 8.11558C2.48682 8.78995 3.0335 9.33664 3.70787 9.33664Z" fill="white"/>
<path d="M11.371 9.33664C12.0453 9.33664 12.592 8.78995 12.592 8.11558C12.592 7.44122 12.0453 6.89453 11.371 6.89453C10.6966 6.89453 10.1499 7.44122 10.1499 8.11558C10.1499 8.78995 10.6966 9.33664 11.371 9.33664Z" fill="white"/>
<path d="M15.0426 20.7109H2.41943V33.3341H15.0426V20.7109Z" fill="#50E6FF"/>
<path d="M17.6113 20.7109V33.3341H30.2429L17.6113 20.7109Z" fill="#50E6FF"/>
<path d="M39.1351 20.7109C35.6488 20.7109 32.8193 23.5404 32.8193 27.0267C32.8193 30.513 35.6488 33.3425 39.1351 33.3425C42.6214 33.3425 45.4509 30.513 45.4509 27.0267C45.4509 23.532 42.6214 20.7109 39.1351 20.7109Z" fill="#50E6FF"/>
</svg>
