<svg data-slug-id="code10" viewBox="0 0 49 49" xmlns="http://www.w3.org/2000/svg">
<path d="M13.9281 48.5112C10.6006 48.5112 8.15944 47.8024 6.60446 46.3849C5.04947 44.9674 4.27323 42.6575 4.27573 39.455V31.7376C4.27573 28.3201 2.857 26.6114 0.0195312 26.6114V22.4115C2.8545 22.4115 4.27323 20.6115 4.27573 17.0115V9.78536C4.27573 6.6204 5.06572 4.28418 6.6457 2.77669C8.22569 1.26921 10.6531 0.514219 13.9281 0.511719V4.82042C11.0181 4.82042 9.56317 6.4754 9.56317 9.78536V17.0678C9.56317 20.9927 8.20944 23.4464 5.50197 24.4289V24.5377C8.20944 25.4127 9.56317 27.8126 9.56317 31.7376V38.9938C9.56317 40.7937 9.89567 42.1112 10.5606 42.9462C11.2256 43.7812 12.3506 44.2 13.9356 44.2025L13.9281 48.5112Z" fill="#50E6FF"/>
<path d="M34.1108 44.2025C35.6933 44.2025 36.8183 43.7837 37.4858 42.9462C38.1533 42.1087 38.4858 40.7912 38.4833 38.9938V31.7376C38.4833 27.8126 39.837 25.4127 42.5445 24.5377V24.4289C39.837 23.4464 38.4833 20.9927 38.4833 17.0678V9.78536C38.4833 6.4754 37.0283 4.82042 34.1183 4.82042V0.511719C37.3858 0.511719 39.8108 1.26171 41.3932 2.76169C42.9757 4.26168 43.7657 6.5979 43.7632 9.77037V17.0115C43.7632 20.6115 45.182 22.4115 48.0194 22.4115V26.6114C45.1845 26.6114 43.7657 28.3201 43.7632 31.7376V39.455C43.7632 42.6575 42.987 44.9674 41.4345 46.3849C39.882 47.8024 37.4408 48.5112 34.1108 48.5112V44.2025Z" fill="#0078D4"/>
<path d="M29.0195 5.51172H20.0195V14.5117H29.0195V5.51172Z" fill="#0078D4"/>
<path d="M30.0195 26.0117C30.0195 22.9742 27.5571 20.5117 24.5195 20.5117C21.482 20.5117 19.0195 22.9742 19.0195 26.0117C19.0195 29.0493 21.482 31.5117 24.5195 31.5117C27.5571 31.5117 30.0195 29.0493 30.0195 26.0117Z" fill="#50E6FF"/>
<path d="M29.0195 36.5117H20.0195V45.5117H29.0195V36.5117Z" fill="#0078D4"/>
</svg>
