<svg data-slug-id="code07" viewBox="0 0 49 49" xmlns="http://www.w3.org/2000/svg">
<path d="M0.0195312 43.2764H48.0195V6.31641H0.0195312V43.2764Z" fill="#0078D4"/>
<path d="M0.0195312 10.5919H48.0027V5.58984H0.0195312V10.5919Z" fill="#50E6FF"/>
<path d="M7.49742 9.41086C8.17179 9.41086 8.71847 8.86417 8.71847 8.1898C8.71847 7.51543 8.17179 6.96875 7.49742 6.96875C6.82305 6.96875 6.27637 7.51543 6.27637 8.1898C6.27637 8.86417 6.82305 9.41086 7.49742 9.41086Z" fill="#0078D4"/>
<path d="M3.70787 9.41086C4.38224 9.41086 4.92892 8.86417 4.92892 8.1898C4.92892 7.51543 4.38224 6.96875 3.70787 6.96875C3.0335 6.96875 2.48682 7.51543 2.48682 8.1898C2.48682 8.86417 3.0335 9.41086 3.70787 9.41086Z" fill="#0078D4"/>
<path d="M11.371 9.41086C12.0453 9.41086 12.592 8.86417 12.592 8.1898C12.592 7.51543 12.0453 6.96875 11.371 6.96875C10.6966 6.96875 10.1499 7.51543 10.1499 8.1898C10.1499 8.86417 10.6966 9.41086 11.371 9.41086Z" fill="#0078D4"/>
<path d="M26.5374 24.4844H21.4258V29.596H26.5374V24.4844Z" fill="white"/>
<path d="M31.6493 19.4258L29.8472 21.2279L35.6829 27.0637L29.7798 32.9668L31.5819 34.7689L39.2872 27.0637L31.6493 19.4258Z" fill="#50E6FF"/>
<path d="M16.1457 34.7689L17.9562 32.9668L12.1204 27.131L18.0236 21.2279L16.2215 19.4258L8.50781 27.131L16.1457 34.7689Z" fill="#50E6FF"/>
</svg>
