<svg data-slug-id="code05" viewBox="0 0 49 49" xmlns="http://www.w3.org/2000/svg">
<path d="M12.5723 43.4999H45.4361V0.585938H12.5723V43.4999Z" fill="#50E6FF"/>
<path d="M2.55225 48.5858H35.4161V5.67188H2.55225V48.5858Z" fill="#0078D4"/>
<path d="M13.4167 38.3707C11.9984 38.3707 10.9517 38.0671 10.2848 37.4598C9.61786 36.8526 9.28863 35.8573 9.28863 34.4825V31.0919C9.28863 29.5737 8.66393 28.8146 7.41455 28.8146V26.9506C8.66393 26.9506 9.28863 26.1494 9.28863 24.5553V21.3755C9.28863 20.0176 9.6263 19.0139 10.3016 18.3645C10.977 17.715 12.0153 17.3945 13.4082 17.3945V19.2585C12.1588 19.2585 11.5341 19.9754 11.5341 21.4008V24.4288C11.5341 26.2506 10.9094 27.3892 9.66006 27.8447V27.8953C10.9094 28.3001 11.5341 29.4135 11.5341 31.2353V34.2463C11.5341 35.0223 11.6777 35.5958 11.9647 35.9585C12.2517 36.3212 12.7329 36.4983 13.4082 36.4983V38.3707H13.4167Z" fill="#50E6FF"/>
<path d="M24.3569 36.5061C25.0323 36.5061 25.5219 36.329 25.8005 35.9663C26.0875 35.6037 26.231 35.0386 26.231 34.2542V31.2431C26.231 29.4213 26.8557 28.3079 28.1051 27.9031V27.8525C26.8557 27.397 26.231 26.2584 26.231 24.4366V21.4087C26.231 19.9748 25.6063 19.2663 24.3569 19.2663V17.4023C25.7583 17.4023 26.7882 17.7228 27.472 18.3723C28.1557 19.0217 28.485 20.0254 28.485 21.3834V24.5631C28.485 26.1572 29.1097 26.9585 30.359 26.9585V28.8224C29.1097 28.8224 28.485 29.5815 28.485 31.0997V34.4903C28.485 35.8651 28.1557 36.8604 27.4888 37.4676C26.8219 38.0749 25.7836 38.3785 24.3569 38.3785V36.5061Z" fill="#50E6FF"/>
</svg>
