<svg data-slug-id="code03" viewBox="0 0 49 49" xmlns="http://www.w3.org/2000/svg">
<g opacity="0.8">
<path d="M43.1821 5.64844H15.5046V20.7536H17.9366V8.18981H40.6491V30.8518H28.1189V30.9275H28.1358V33.4016H28.2031H43.1821H43.1905V33.3427V5.65685V5.64844H43.1821Z" fill="#50E6FF"/>
<path d="M5.31372 25.8594V43.5059V43.5312H22.9771V25.8594H5.31372ZM20.6125 28.2914V40.9562H7.7457V28.2914H20.6125Z" fill="#50E6FF"/>
<path d="M48.2315 10.7094H48.2399V5.66027H48.2315H45.7322V3.09365H43.1824V0.602768V0.585938H38.1165V0.602768V3.10207H35.6424V0.602768V0.585938H30.5681V0.602768V3.10207H28.094V0.602768V0.585938H22.9692V0.602768V3.10207H20.4951V0.602768V0.585938H15.404V0.602768V3.10207H12.871V5.66869H10.397V10.7178H12.871V13.1918H10.397V18.2914H12.871V20.757H10.397H10.3465V20.7655V21.0011V23.3657H7.82192V21.0011V20.7655H5.31421V21.0011V23.3657H2.64661V25.8482H0.281952H0.265121H0.248291V28.3728H0.265121H0.281952H2.64661V30.8973H0.281952H0.265121H0.248291V33.4387H0.265121H0.281952H2.64661V35.9632H0.281952H0.265121H0.248291V38.4878H0.265121H0.281952H2.64661V41.0123H0.281952H0.265121H0.248291V43.5032H0.265121H0.281952H2.64661V46.1876H5.31421V48.5523V48.5691H7.82192V48.5523V46.1876H10.3465V48.5523V48.5691H12.8878V48.5523V46.1876H15.4124V48.5523V48.5691H17.9369V48.5523V46.1876H20.4615V48.5523V48.5691H22.9944V48.5523V46.1876H25.5274V43.5116H27.892H28.1193V40.9955H27.892H25.5274V38.4878V38.4709H27.892H28.1193H28.2034V38.4541H28.2118V35.98H28.2034V35.9548H30.5681V38.4878H35.6424V35.9548H38.1165V38.4878H43.1908V35.9548H45.7406V33.3461H48.2399H48.2483V28.3307H48.2399H45.7406V25.8566H48.2399H48.2483V20.757H48.2399H45.7406V18.283H48.2399H48.2483V13.1834H48.2399H45.7406V10.7094H48.2315V10.7094ZM15.505 20.7991V20.9927V23.3489H12.9299V20.9927V20.7739H15.505V20.7991ZM25.5274 35.938V33.4639H27.892H28.1193H28.1361V35.938H28.1193H27.892H25.5274ZM25.5274 30.7963V28.3391V28.2213H27.892H28.1193H28.1277V28.3391V30.7963H28.1193H27.892H25.5274ZM28.1193 25.8145H27.892H25.5274V23.3489H22.9776V20.9843V20.7655H28.1193H28.1445V25.8061H28.1193V25.8145ZM17.9453 20.7739H20.5793V20.7907V20.9843V23.3405H20.5288H17.9453V20.9843V20.7907V20.7739ZM5.31421 43.5368V43.5116V25.8566H22.9776V43.5284H5.31421V43.5368ZM43.1908 33.3461V33.3966H43.1824H28.2034H28.1361V30.931H28.1193V30.8552H40.6578V8.19323H17.9369V20.7486H15.5134V5.65186H43.1908H43.1992V5.66869V33.3461H43.1908Z" fill="#0078D4"/>
<path d="M20.6037 28.2891H7.74536V40.9539H20.6037V28.2891Z" fill="#0078D4"/>
</g>
</svg>
