<svg data-slug-id="code02" viewBox="0 0 49 49" xmlns="http://www.w3.org/2000/svg">
<path d="M0.0195312 43.5577H48.0195V6.59766H0.0195312V43.5577Z" fill="#0078D4"/>
<path d="M0.0195312 10.588H48.0027V5.58594H0.0195312V10.588Z" fill="#50E6FF"/>
<path d="M7.49742 9.41086C8.17179 9.41086 8.71847 8.86417 8.71847 8.1898C8.71847 7.51543 8.17179 6.96875 7.49742 6.96875C6.82305 6.96875 6.27637 7.51543 6.27637 8.1898C6.27637 8.86417 6.82305 9.41086 7.49742 9.41086Z" fill="#0078D4"/>
<path d="M3.70787 9.41086C4.38224 9.41086 4.92892 8.86417 4.92892 8.1898C4.92892 7.51543 4.38224 6.96875 3.70787 6.96875C3.0335 6.96875 2.48682 7.51543 2.48682 8.1898C2.48682 8.86417 3.0335 9.41086 3.70787 9.41086Z" fill="#0078D4"/>
<path d="M11.371 9.41086C12.0453 9.41086 12.592 8.86417 12.592 8.1898C12.592 7.51543 12.0453 6.96875 11.371 6.96875C10.6966 6.96875 10.1499 7.51543 10.1499 8.1898C10.1499 8.86417 10.6966 9.41086 11.371 9.41086Z" fill="#0078D4"/>
<path d="M35.2699 18.1602L33.4678 19.9623L39.3035 25.7981L33.4004 31.7012L35.2025 33.5033L42.9078 25.7981L35.2699 18.1602Z" fill="#50E6FF"/>
<path d="M12.6091 33.5033L14.4196 31.7012L8.58382 25.8654L14.487 19.9623L12.6849 18.1602L4.97119 25.8654L12.6091 33.5033Z" fill="#50E6FF"/>
<path d="M31.5734 28.3988C32.978 28.3988 34.1166 27.2602 34.1166 25.8557C34.1166 24.4511 32.978 23.3125 31.5734 23.3125C30.1689 23.3125 29.0303 24.4511 29.0303 25.8557C29.0303 27.2602 30.1689 28.3988 31.5734 28.3988Z" fill="white"/>
<path d="M23.9099 28.3988C25.3144 28.3988 26.453 27.2602 26.453 25.8557C26.453 24.4511 25.3144 23.3125 23.9099 23.3125C22.5053 23.3125 21.3667 24.4511 21.3667 25.8557C21.3667 27.2602 22.5053 28.3988 23.9099 28.3988Z" fill="white"/>
<path d="M16.4152 28.3988C17.8198 28.3988 18.9584 27.2602 18.9584 25.8557C18.9584 24.4511 17.8198 23.3125 16.4152 23.3125C15.0107 23.3125 13.8721 24.4511 13.8721 25.8557C13.8721 27.2602 15.0107 28.3988 16.4152 28.3988Z" fill="white"/>
</svg>
