<svg data-slug-id="code-samples-alt" viewBox="0 0 48 48" xmlns="http://www.w3.org/2000/svg">
<path d="M0 43H48V10H0V43Z" fill="#0078D4"/>
<path d="M0 10.0021H47.9832V5H0V10.0021Z" fill="#50E6FF"/>
<path d="M7.47789 8.82102C8.15226 8.82102 8.69894 8.27433 8.69894 7.59997C8.69894 6.9256 8.15226 6.37891 7.47789 6.37891C6.80352 6.37891 6.25684 6.9256 6.25684 7.59997C6.25684 8.27433 6.80352 8.82102 7.47789 8.82102Z" fill="#0078D4"/>
<path d="M3.68834 8.82102C4.36271 8.82102 4.90939 8.27433 4.90939 7.59997C4.90939 6.9256 4.36271 6.37891 3.68834 6.37891C3.01397 6.37891 2.46729 6.9256 2.46729 7.59997C2.46729 8.27433 3.01397 8.82102 3.68834 8.82102Z" fill="#0078D4"/>
<path d="M11.3515 8.82102C12.0258 8.82102 12.5725 8.27433 12.5725 7.59997C12.5725 6.9256 12.0258 6.37891 11.3515 6.37891C10.6771 6.37891 10.1304 6.9256 10.1304 7.59997C10.1304 8.27433 10.6771 8.82102 11.3515 8.82102Z" fill="#0078D4"/>
<path d="M26.5178 23.8945H21.4062V29.0061H26.5178V23.8945Z" fill="white"/>
<path d="M31.6298 18.8359L29.8277 20.638L35.6635 26.4738L29.7603 32.377L31.5624 34.1791L39.2677 26.4738L31.6298 18.8359Z" fill="#50E6FF"/>
<path d="M16.1262 34.1791L17.9367 32.377L12.101 26.5412L18.0041 20.638L16.202 18.8359L8.48828 26.5412L16.1262 34.1791Z" fill="#50E6FF"/>
</svg>
