<svg data-slug-id="code11" viewBox="0 0 49 47" xmlns="http://www.w3.org/2000/svg">
<path d="M0.154297 38.1774H48.1543V1.27734H0.154297V38.1774Z" fill="#0078D4"/>
<path d="M0.154297 5.27734H48.1543V0.277344H0.154297V5.27734Z" fill="#50E6FF"/>
<path d="M7.6541 4.07969C8.3541 4.07969 8.85413 3.57969 8.85413 2.87969C8.85413 2.17969 8.2541 1.67969 7.6541 1.67969C6.9541 1.67969 6.4541 2.17969 6.4541 2.87969C6.4541 3.57969 6.9541 4.07969 7.6541 4.07969Z" fill="#0078D4"/>
<path d="M3.8543 4.07969C4.5543 4.07969 5.0543 3.57969 5.0543 2.87969C5.0543 2.17969 4.5543 1.67969 3.8543 1.67969C3.1543 1.67969 2.6543 2.17969 2.6543 2.87969C2.6543 3.57969 3.1543 4.07969 3.8543 4.07969Z" fill="#0078D4"/>
<path d="M11.4544 4.07969C12.1544 4.07969 12.6544 3.57969 12.6544 2.87969C12.6544 2.17969 12.1544 1.67969 11.4544 1.67969C10.7544 1.67969 10.2544 2.17969 10.2544 2.87969C10.2544 3.57969 10.8544 4.07969 11.4544 4.07969Z" fill="#0078D4"/>
<path d="M20.8541 14.3773L11.9541 23.2773L15.5541 26.8773L21.9541 20.4773V46.5773H27.0541V20.4773L33.4541 26.8773L37.0541 23.2773L28.1541 14.3773L24.5541 10.7773L20.8541 14.3773Z" fill="#50E6FF"/>
</svg>
