<svg data-slug-id="code-alt" xmlns="http://www.w3.org/2000/svg" viewBox="0 0 49 49">
  <path d="M0.5 43.2516H48.5V6.29163H0.5V43.2516Z" fill="#0078D4"/>
  <path d="M0.5 10.284H48.4832V5.28186H0.5V10.284Z" fill="#50E6FF"/>
  <path d="M7.97789 9.10483C8.65226 9.10483 9.19894 8.55814 9.19894 7.88377C9.19894 7.2094 8.65226 6.66272 7.97789 6.66272C7.30352 6.66272 6.75684 7.2094 6.75684 7.88377C6.75684 8.55814 7.30352 9.10483 7.97789 9.10483Z" fill="#0078D4"/>
  <path d="M4.18834 9.10483C4.86271 9.10483 5.40939 8.55814 5.40939 7.88377C5.40939 7.2094 4.86271 6.66272 4.18834 6.66272C3.51397 6.66272 2.96729 7.2094 2.96729 7.88377C2.96729 8.55814 3.51397 9.10483 4.18834 9.10483Z" fill="#0078D4"/>
  <path d="M11.8514 9.10483C12.5258 9.10483 13.0725 8.55814 13.0725 7.88377C13.0725 7.2094 12.5258 6.66272 11.8514 6.66272C11.1771 6.66272 10.6304 7.2094 10.6304 7.88377C10.6304 8.55814 11.1771 9.10483 11.8514 9.10483Z" fill="#0078D4"/>
  <path d="M27.0178 24.1783H21.9062V29.2899H27.0178V24.1783Z" fill="#50E6FF"/>
  <path d="M32.1297 19.1178L30.3276 20.9199L36.1634 26.7557L30.2603 32.6589L32.0624 34.461L39.7676 26.7557L32.1297 19.1178Z" fill="#50E6FF"/>
  <path d="M16.6262 34.461L18.4367 32.6589L12.6009 26.8231L18.5041 20.9199L16.702 19.1178L8.98828 26.8231L16.6262 34.461Z" fill="#50E6FF"/>
</svg>
