<svg data-slug-id="code09" viewBox="0 0 49 49" xmlns="http://www.w3.org/2000/svg">
<path d="M38.0287 5.67969H27.9287V15.7916H38.0371L38.0287 5.67969Z" fill="#50E6FF"/>
<path d="M40.5034 38.4258H32.8779V46.0623H40.5118L40.5034 38.4258Z" fill="#50E6FF"/>
<path d="M25.269 18.2773H17.6436V25.9139H25.2774L25.269 18.2773Z" fill="#50E6FF"/>
<path d="M17.7113 33.2539H7.61133V43.3658H17.7197V33.2539H17.7113Z" fill="#50E6FF"/>
<path d="M10.2038 13.1836H0.112305V23.2955H10.2207V13.1836H10.2038Z" fill="#50E6FF"/>
<path d="M15.2453 26.4023H0.154297V41.5071H15.2537V26.4023H15.2453Z" fill="#0078D4"/>
<path d="M47.9773 10.7266H32.8105V25.8986H47.9773V10.7266Z" fill="#0078D4"/>
<path d="M22.7948 5.67969H7.2998V21.1801H22.7948V5.67969Z" fill="#0078D4"/>
<path d="M35.4198 30.8984H20.2783V46.0453H35.4198V30.8984Z" fill="#0078D4"/>
<path d="M37.3809 17.8479C37.6923 17.8479 37.8943 17.9068 37.9953 18.0163C38.0963 18.1257 38.1215 18.3278 38.071 18.5972C38.0121 18.8835 37.9027 19.0856 37.7428 19.2119C37.5829 19.3382 37.3388 19.3971 37.0105 19.3971H36.5224L36.8254 17.8479H37.3809ZM35.3945 20.98H36.2109L36.4045 19.9949H37.1031C37.4061 19.9949 37.6586 19.9612 37.8606 19.9023C38.0626 19.8349 38.2394 19.7339 38.3993 19.5823C38.5339 19.456 38.6433 19.3213 38.7275 19.1698C38.8117 19.0182 38.8706 18.8498 38.9043 18.673C38.9884 18.2352 38.9211 17.89 38.7107 17.6458C38.4919 17.4017 38.1552 17.2754 37.6839 17.2754H36.1184L35.3945 20.98ZM39.5103 16.2734H40.3183L40.1247 17.2585H40.8401C41.2946 17.2585 41.606 17.3343 41.7743 17.4943C41.9427 17.6542 42.0016 17.9068 41.9258 18.252L41.5892 19.9781H40.7728L41.0926 18.3362C41.1263 18.151 41.1178 18.0247 41.0505 17.9574C40.9832 17.89 40.8485 17.8563 40.6465 17.8563H40.0068L39.5944 19.9781H38.7864L39.5103 16.2734ZM43.7354 17.8479C44.0468 17.8479 44.2488 17.9068 44.3498 18.0163C44.4508 18.1257 44.4761 18.3278 44.4256 18.5972C44.3667 18.8835 44.2572 19.0856 44.0973 19.2119C43.9374 19.3382 43.6933 19.3971 43.3651 19.3971H42.8685L43.1715 17.8479H43.7354ZM41.7491 20.98H42.5655L42.7507 19.9949H43.4492C43.7607 19.9949 44.0047 19.9612 44.2067 19.9023C44.4087 19.8349 44.5855 19.7339 44.7454 19.5823C44.8801 19.456 44.9895 19.3213 45.0737 19.1698C45.1578 19.0182 45.2167 18.8498 45.2504 18.673C45.3346 18.2352 45.2672 17.89 45.0568 17.6458C44.838 17.4017 44.5013 17.2754 44.03 17.2754H42.4645L41.7491 20.98Z" fill="white"/>
<path d="M29.9067 37.4668C29.6206 37.6015 28.9725 37.7278 28.1982 37.7783C27.1629 37.8625 26.3128 37.7783 26.296 37.6184C26.296 37.5342 26.7 37.3574 27.1629 37.2227C26.296 37.29 25.6563 37.4668 25.6732 37.6605C25.69 37.8878 26.6327 38.0394 27.8194 38.0141C28.9977 37.9888 29.9488 37.7531 29.9404 37.5258C29.932 37.5089 29.9152 37.4837 29.9067 37.4668Z" fill="white"/>
<path d="M28.3749 38.5778C27.4491 38.6705 26.6748 38.5778 26.6664 38.3758C26.6495 38.3084 26.7505 38.2242 26.9104 38.1484C26.5569 38.2411 26.3297 38.3758 26.3381 38.5021C26.3549 38.7631 27.1629 38.923 28.1561 38.8978C28.7705 38.8725 29.2924 38.7715 29.6206 38.6536L29.326 38.4263C29.0483 38.4852 28.72 38.5357 28.3749 38.5778Z" fill="white"/>
<path d="M30.8243 39.8718C30.799 39.9391 30.7569 40.0233 30.698 40.0738C30.6559 40.1159 30.5718 40.158 30.496 40.1833C30.2267 40.318 29.4271 40.4275 28.434 40.4527C28.3077 40.4527 28.2067 40.4527 28.0805 40.4527C26.7001 40.4527 25.4881 40.318 25.4881 40.1159C25.4881 40.0065 25.8585 39.8886 26.3046 39.8213L26.212 39.7539C25.4966 39.8213 24.9663 40.0402 24.9663 40.2422V40.2591C24.9916 40.5201 25.7827 40.6548 26.8011 40.7222C27.1378 40.7474 27.5165 40.739 27.9037 40.739C29.5702 40.739 30.9421 40.4275 30.9421 40.0318C30.9084 39.9644 30.8832 39.9223 30.8243 39.8718Z" fill="white"/>
<path d="M31.2873 40.2188C31.161 40.6229 29.8733 40.9933 28.2405 40.9933C27.7355 40.9933 26.9107 40.9428 26.0942 40.8586C26.6497 41.0775 27.18 41.1702 28.2489 41.1702C29.9575 41.1702 31.2957 40.7744 31.2957 40.3282C31.3125 40.2945 31.3041 40.2524 31.2873 40.2188Z" fill="white"/>
<path d="M31.2451 37.4888C31.0684 37.1352 30.6055 37.0005 30.2099 37.1942C30.1594 37.2194 30.1173 37.2447 30.0752 37.2784C30.4456 37.1521 30.7907 37.2615 30.9169 37.5394C31.0684 37.8509 30.8917 38.154 30.5382 38.4234C30.454 38.4908 30.0668 38.777 29.9658 38.7939C30.1931 38.7939 30.4961 38.7097 30.8243 38.4992C31.2115 38.255 31.4219 37.8593 31.2451 37.4888Z" fill="white"/>
<path d="M28.2993 39.4789C27.5418 39.5294 26.9189 39.4368 26.9021 39.26C26.9021 39.2347 26.9189 39.2095 26.9442 39.1758C26.7169 39.2431 26.5654 39.3526 26.5654 39.4452C26.5654 39.6725 27.2472 39.8662 28.0888 39.8662C28.7369 39.8662 29.284 39.7567 29.5028 39.5968C29.3766 39.5126 29.2335 39.4031 29.1241 39.3358C28.8884 39.3947 28.6023 39.4536 28.2993 39.4789Z" fill="white"/>
<path d="M28.4427 37.4837C28.4427 37.4837 28.6867 37.349 28.6699 36.9701C28.6531 36.5997 28.1144 36.2376 28.1312 35.7325C28.1481 35.2273 28.7709 34.7979 29.015 34.6463C29.2591 34.4948 30.0587 34.2422 30.0587 34.2422C30.0587 34.2422 29.419 34.6379 29.0992 34.8905C28.7709 35.1515 28.6615 35.5051 28.7036 35.7577C28.7457 36.0019 29.2422 36.3976 29.1497 36.6923C29.0487 36.9954 28.7204 37.4416 28.4427 37.4837Z" fill="white"/>
<path d="M29.0231 32.4648C29.0231 32.4648 29.3934 32.9532 29.1494 33.551C28.9053 34.1488 28.4339 34.5529 28.1057 34.7971C27.7774 35.0412 27.3987 35.4117 27.4913 35.9253C27.5839 36.4389 27.9289 36.7925 28.0047 36.8767C28.072 36.9609 28.1562 37.2135 28.1562 37.2135C28.1562 37.2135 27.5754 36.7083 27.3566 36.422C27.1378 36.1358 26.8684 35.6474 27.1294 35.2096C27.3734 34.7886 27.9289 34.4771 28.5265 33.9635C29.1157 33.4499 29.0736 32.709 29.0231 32.4648Z" fill="white"/>
<path d="M27.4663 44.362H27.138V44.0758H27.1212C26.9865 44.3199 26.8266 44.4462 26.5488 44.4462C26.3553 44.4462 26.1953 44.3957 26.0859 44.2862C25.9597 44.1768 25.9092 44.0421 25.9092 43.8653C25.9092 43.4864 26.0859 43.2843 26.532 43.217L27.0623 43.1749C27.0623 42.8381 26.9781 42.6613 26.7088 42.6613C26.4647 42.6613 26.2038 42.7034 26.0186 42.8633V42.535C26.0691 42.4929 26.3468 42.375 26.734 42.375C27.1548 42.375 27.441 42.535 27.441 43.0401V44.362H27.4663ZM27.0791 43.419L26.6583 43.4611C26.4983 43.4864 26.4815 43.5032 26.4142 43.5537C26.3468 43.6043 26.3216 43.7053 26.3216 43.8232C26.3216 43.9158 26.3384 43.9747 26.4058 44.0252C26.4731 44.0758 26.532 44.0926 26.633 44.0926C26.7929 44.0926 26.835 44.0673 26.9444 43.9579C27.0538 43.8484 27.0707 43.6885 27.0707 43.5201V43.4106H27.0791V43.419Z" fill="white"/>
<path d="M31.1694 44.362H30.8411V44.0758H30.8243C30.6896 44.3199 30.5297 44.4462 30.252 44.4462C30.0584 44.4462 29.8985 44.3957 29.7891 44.2862C29.6628 44.1768 29.6123 44.0421 29.6123 43.8653C29.6123 43.4864 29.7891 43.2843 30.2351 43.217L30.7654 43.1749C30.7654 42.8381 30.6812 42.6613 30.4119 42.6613C30.1678 42.6613 29.9069 42.7034 29.7217 42.8633V42.535C29.7722 42.4929 30.05 42.375 30.4371 42.375C30.858 42.375 31.1441 42.535 31.1441 43.0401V44.362H31.1694ZM30.7906 43.419L30.3698 43.4611C30.2099 43.4864 30.1931 43.5032 30.1257 43.5537C30.0584 43.6043 30.0331 43.7053 30.0331 43.8232C30.0331 43.9158 30.05 43.9747 30.1173 44.0252C30.1846 44.0758 30.2436 44.0926 30.3445 44.0926C30.5045 44.0926 30.5465 44.0673 30.656 43.9579C30.7654 43.8484 30.7822 43.6885 30.7822 43.5201V43.4106H30.7906V43.419Z" fill="white"/>
<path d="M29.4693 42.3672L28.8969 44.3374H28.3583L27.6934 42.3672H28.1563L28.6192 43.8911L29.0232 42.3672H29.4693Z" fill="white"/>
<path d="M25.6063 43.501V41.6992H25.1602V43.501C25.1602 44.0062 25.2275 44.4945 24.9834 44.6713C24.8908 44.7387 24.7898 44.7976 24.6973 44.8229L24.9582 45.1176C25.1602 45.0081 25.3622 44.8481 25.4884 44.6797C25.6231 44.4945 25.6063 43.8294 25.6063 43.501Z" fill="white"/>
<path d="M10.3639 12.4266C10.2882 12.4014 10.2208 12.393 10.1367 12.393C9.79158 12.393 9.58958 12.6034 9.58958 12.9739C9.58958 13.3359 9.78316 13.538 10.1282 13.538C10.204 13.538 10.2629 13.5296 10.3639 13.5212V12.4266ZM10.3639 10.8438H11.0457V13.9927C10.6922 14.06 10.4397 14.0853 10.1619 14.0853C9.32866 14.0853 8.89941 13.7064 8.89941 12.9907C8.89941 12.3003 9.36233 11.8457 10.0693 11.8457C10.1787 11.8457 10.2629 11.8541 10.3639 11.8794V10.8438Z" fill="white"/>
<path d="M11.4491 11.5504H12.1308V10.8516H11.4491V11.5504ZM12.1308 11.8956V13.47C12.1308 14.0173 12.0888 14.2699 11.9709 14.4972C11.8615 14.7161 11.71 14.8509 11.4154 15.0024L10.7842 14.6993C11.0872 14.5562 11.2303 14.4383 11.3228 14.2447C11.4238 14.051 11.4491 13.8237 11.4491 13.2343V11.8956H12.1308V11.8956Z" fill="white"/>
<path d="M13.6124 13.1319C13.1579 13.174 13.0148 13.2498 13.0148 13.4266C13.0148 13.5613 13.099 13.6203 13.2841 13.6203C13.3851 13.6203 13.4777 13.6119 13.6124 13.5866V13.1319ZM12.5435 12.0458C12.8465 11.9027 13.1326 11.8438 13.4441 11.8438C13.7976 11.8438 14.0248 11.9364 14.1258 12.1132C14.1847 12.2142 14.2015 12.3489 14.2015 12.6268V14.0076C13.8985 14.0497 13.5114 14.0834 13.2252 14.0834C12.6529 14.0834 12.4004 13.8813 12.4004 13.4435C12.4004 12.9636 12.7371 12.7446 13.5787 12.6773V12.5257C13.5787 12.3994 13.5198 12.3573 13.3431 12.3573C13.0906 12.3573 12.8044 12.4247 12.5435 12.5678V12.0458V12.0458Z" fill="white"/>
<path d="M14.5381 12.0031C14.9421 11.8937 15.2703 11.8516 15.607 11.8516C15.9605 11.8516 16.213 11.9273 16.3561 12.0873C16.4992 12.2304 16.5412 12.3904 16.5412 12.7356V14.0659H15.8595V12.7609C15.8595 12.4999 15.7669 12.4073 15.5312 12.4073C15.4387 12.4073 15.3545 12.4157 15.2198 12.4578V14.0743H14.5381V12.0031Z" fill="white"/>
<path d="M18.1658 12.3994H18.1406H18.0901C17.9554 12.391 17.8039 12.4331 17.6945 12.4921C17.5346 12.5847 17.4504 12.7531 17.4504 12.9888C17.4504 13.3256 17.6188 13.5192 17.9217 13.5192C18.0143 13.5192 18.0901 13.5024 18.1742 13.4771V13.4266V13.2414C18.1742 13.1656 18.1742 13.073 18.1742 12.9804L18.1658 12.6689L18.1574 12.4415V12.3994H18.1658ZM16.8108 14.4286C17.0464 14.5549 17.2905 14.6138 17.543 14.6138C17.9891 14.6138 18.1827 14.4286 18.1827 13.9992V13.9823C18.048 14.0497 17.9133 14.0749 17.7366 14.0749C17.139 14.0749 16.7603 13.6792 16.7603 13.0562C16.7603 12.2816 17.3242 11.8438 18.3173 11.8438C18.6119 11.8438 18.8812 11.8774 19.2095 11.9448L18.9738 12.4331C18.7887 12.3994 18.957 12.4247 18.8223 12.4163V12.4836L18.8307 12.7699L18.8392 13.1404C18.8476 13.233 18.8476 13.3256 18.8476 13.4182V13.6034C18.8476 14.1844 18.7971 14.4622 18.654 14.6811C18.4436 15.0095 18.0732 15.1779 17.5514 15.1779C17.2821 15.1779 17.0548 15.1358 16.8192 15.0432V14.4286H16.8108Z" fill="white"/>
<path d="M20.2528 13.5704C20.5137 13.5704 20.6652 13.3515 20.6652 12.981C20.6652 12.6105 20.5137 12.3916 20.2528 12.3916C19.9835 12.3916 19.832 12.6105 19.832 12.981C19.832 13.3515 19.9835 13.5704 20.2528 13.5704ZM20.2612 11.8359C20.943 11.8359 21.3554 12.2653 21.3554 12.9557C21.3554 13.663 20.9177 14.1092 20.2276 14.1092C19.5458 14.1092 19.125 13.6798 19.125 12.9894C19.1334 12.2822 19.5711 11.8359 20.2612 11.8359Z" fill="white"/>
<path d="M48.0111 26.0156H37.9111V36.1275H48.0195V26.0156H48.0111Z" fill="#50E6FF"/>
<path d="M44.0214 28.0872C43.7773 27.9356 43.55 27.8767 43.3228 27.7251C43.1797 27.6325 42.9861 27.3968 42.8178 27.2031C42.7841 27.5231 42.6916 27.6494 42.5821 27.742C42.3465 27.9272 42.2034 27.9777 42.0014 28.0872C41.8331 28.1714 40.9072 28.7271 40.9072 29.9058C40.9072 31.0846 41.9004 31.9602 43.0114 31.9602C44.114 31.9602 45.0735 31.1603 45.0735 29.9479C45.0735 28.7271 44.1729 28.1714 44.0214 28.0872Z" fill="#0078D4"/>
<path d="M43.6514 30.9219C43.7272 30.9219 43.8029 30.9303 43.8618 30.964C43.9207 30.9977 43.946 31.0819 43.9712 31.1324C43.9881 31.1745 43.9712 31.2082 43.9376 31.225C43.9039 31.2419 43.9039 31.2335 43.8702 31.1745C43.8366 31.1156 43.8113 31.0566 43.6514 31.0566C43.4915 31.0566 43.441 31.1156 43.3652 31.1745C43.2895 31.2419 43.2558 31.2587 43.2306 31.225C43.2053 31.1913 43.2137 31.1492 43.2642 31.1071C43.3147 31.065 43.3989 30.9892 43.4747 30.9556C43.5336 30.9219 43.5757 30.9219 43.6514 30.9219Z" fill="white"/>
<path d="M42.8937 31.4471C42.9863 31.5229 43.121 31.5819 43.4155 31.5819C43.7101 31.5819 43.9121 31.4977 44.0047 31.4303C44.0468 31.3966 44.0636 31.4219 44.072 31.4471C44.0805 31.464 44.0889 31.4892 44.0552 31.5229C44.03 31.5482 43.8195 31.6914 43.5755 31.7166C43.323 31.7419 42.9947 31.7503 42.7927 31.5735C42.759 31.5398 42.7675 31.4977 42.7927 31.4808C42.818 31.464 42.8348 31.4471 42.86 31.4471C42.8769 31.4387 42.8769 31.4387 42.8937 31.4471Z" fill="white"/>
<path d="M41.7661 31.0981C42.1112 31.0897 42.1785 31.0307 42.4899 30.896C44.148 30.1551 44.4594 29.4731 44.5183 29.3216C44.5773 29.17 44.6614 28.9174 44.5773 28.6312C44.5604 28.5806 44.5436 28.5301 44.5352 28.4964C44.3163 28.2523 44.0975 28.1176 44.0302 28.0755C43.7945 27.9239 43.5588 27.865 43.3316 27.7134C43.1885 27.6208 42.9949 27.3851 42.8266 27.1914C42.7929 27.5114 42.7003 27.6376 42.5909 27.7303C42.3553 27.9155 42.2122 27.966 42.0102 28.0755C41.8418 28.1681 40.916 28.7069 40.916 29.8941C40.916 30.273 41.017 30.6182 41.1938 30.9129H41.2358C41.32 30.9971 41.4715 31.0981 41.7661 31.0981Z" fill="#0078D4"/>
<path d="M44.5853 28.6176C44.8883 28.9965 45.0398 29.4343 45.0398 29.9395C45.0398 30.2258 44.9809 30.5036 44.8715 30.7562C44.7705 30.9919 44.619 31.2024 44.4254 31.3792C44.0466 31.7329 43.5416 31.9265 43.003 31.9265C42.7336 31.9265 42.4727 31.876 42.2202 31.775C41.9761 31.6739 41.7489 31.5308 41.5637 31.354C41.1597 30.9751 40.9409 30.4615 40.9409 29.9142C40.9409 29.4259 41.1008 28.9881 41.4122 28.6176C41.6563 28.3398 41.9088 28.1798 42.0098 28.1293C42.0603 28.104 42.1024 28.0788 42.1445 28.0535C42.2791 27.9861 42.4138 27.9188 42.5906 27.7757C42.6831 27.6999 42.7926 27.5904 42.8346 27.2957C42.9861 27.4726 43.1629 27.6746 43.2976 27.7672C43.4154 27.843 43.5416 27.9019 43.6595 27.9525C43.7689 28.003 43.8867 28.0535 44.0045 28.1293H44.013C44.3412 28.3229 44.5264 28.5418 44.5853 28.6176ZM44.0214 28.0872C43.7857 27.9356 43.55 27.8767 43.3228 27.7251C43.1797 27.6325 42.9861 27.3968 42.8178 27.2031C42.7841 27.5231 42.6916 27.6494 42.5821 27.742C42.3465 27.9272 42.2034 27.9777 42.0014 28.0872C41.8331 28.1798 40.9072 28.7186 40.9072 29.9058C40.9072 30.2847 41.0082 30.6299 41.185 30.9246C41.5553 31.556 42.2623 31.9602 43.0114 31.9602C44.114 31.9602 45.0735 31.1603 45.0735 29.9479C45.0735 29.2828 44.8041 28.8197 44.5348 28.5166C44.3075 28.2556 44.0887 28.1209 44.0214 28.0872Z" fill="#0078D4"/>
<path d="M42.843 27.2852C42.9103 27.4704 42.9019 27.5714 42.9019 27.6135C42.9019 27.6556 42.8767 27.7651 42.8093 27.8156C42.7757 27.8408 42.7673 27.8577 42.7673 27.8577C42.7673 27.8745 42.8093 27.8914 42.8093 27.9335C42.8093 27.984 42.7841 28.085 42.54 28.3292C42.2959 28.5734 41.9508 28.7838 41.6731 28.9186C41.4038 29.0533 41.2775 29.0448 41.2354 28.9775C41.2018 28.9101 41.2523 28.7754 41.4206 28.5818C41.5889 28.3965 42.1276 28.1271 42.1276 28.1271L42.8009 27.664L42.8346 27.4872" fill="#50E6FF"/>
<path d="M42.8433 27.2852C42.8012 27.5883 42.7086 27.6809 42.5824 27.7735C42.372 27.925 42.17 28.0261 42.1279 28.0513C42.0101 28.1103 41.5808 28.346 41.3536 28.6912C41.2862 28.7923 41.3536 28.8344 41.3704 28.8428C41.3872 28.8512 41.5387 28.868 41.8754 28.666C42.2121 28.4639 42.3551 28.346 42.5487 28.1524C42.6497 28.0513 42.6666 27.984 42.6666 27.9587C42.6666 27.925 42.6413 27.9166 42.6076 27.8998C42.5908 27.8914 42.5824 27.8829 42.6076 27.8745C42.6329 27.8577 42.7255 27.8156 42.7507 27.7988C42.776 27.7819 42.8854 27.7061 42.8854 27.5883C42.877 27.4704 42.8685 27.3862 42.8433 27.2852Z" fill="white"/>
<path d="M41.8083 30.613C41.8167 30.2594 42.145 29.9226 42.5742 29.9142C43.1129 29.9057 43.4832 30.4446 43.7526 30.4362C43.9798 30.4278 44.4259 29.9815 44.6363 29.9815C44.8636 29.9815 44.9309 30.2173 44.9309 30.3604C44.9309 30.5035 44.8888 30.7561 44.771 30.9161C44.6616 31.0761 44.5942 31.135 44.468 31.1266C44.2996 31.1097 43.9714 30.6046 43.761 30.5877C43.4916 30.5793 42.9193 31.1434 42.4648 31.1434C42.1871 31.1434 42.1029 31.1013 42.0187 31.0424C41.8672 30.9582 41.7999 30.8151 41.8083 30.613Z" fill="white"/>
<path d="M42.9861 32.8516H42.7336V33.3231C42.7336 33.4578 42.6747 33.5756 42.5316 33.5756C42.3886 33.5756 42.3296 33.4662 42.3296 33.3231V32.8516H42.0771V33.3231C42.0771 33.6009 42.2539 33.8198 42.5316 33.8198C42.8094 33.8198 42.9861 33.6009 42.9861 33.3231V32.8516Z" fill="#0078D4"/>
<path d="M45.2754 33.8041H45.5279V32.5664H45.2754V33.8041Z" fill="#0078D4"/>
<path d="M41.8676 32.8435C41.6487 32.793 41.5141 33.0119 41.5057 33.0203C41.5057 33.0287 41.5057 33.0287 41.4972 33.0287C41.4888 33.0287 41.4888 33.0203 41.4888 33.0203L41.4636 32.8519H41.2363V33.7949H41.4888V33.2813C41.4888 33.2392 41.5982 33.0371 41.8171 33.0877C41.9265 33.1129 41.977 33.1634 41.977 33.1634V32.8772C41.9349 32.8603 41.9097 32.8519 41.8676 32.8435Z" fill="#0078D4"/>
<path d="M43.5753 33.0873C43.7184 33.0873 43.8278 33.1968 43.8278 33.3399C43.8278 33.483 43.7184 33.5925 43.5753 33.5925C43.4322 33.5925 43.3228 33.483 43.3228 33.3399C43.3228 33.1968 43.4322 33.0873 43.5753 33.0873ZM43.3228 34.1145V33.7777V33.6514C43.3228 33.6514 43.3228 33.643 43.3312 33.643C43.3396 33.643 43.3396 33.6514 43.3396 33.6514C43.3565 33.7019 43.4659 33.8788 43.7016 33.8282C43.912 33.7693 44.0635 33.5756 44.0635 33.3483C44.0635 33.0705 43.8362 32.8516 43.5669 32.8516C43.2976 32.8516 43.0703 33.0789 43.0703 33.3483V34.1229H43.3228V34.1145Z" fill="#0078D4"/>
<path d="M44.9219 33.3405C44.9219 33.4836 44.8125 33.5931 44.6694 33.5931C44.5264 33.5931 44.4169 33.4836 44.4169 33.3405C44.4169 33.1974 44.5264 33.0879 44.6694 33.0879C44.8125 33.0879 44.9219 33.1974 44.9219 33.3405ZM44.9135 33.8036H45.166V33.3405C45.166 33.0627 44.9388 32.8438 44.6694 32.8438C44.4001 32.8438 44.1729 33.0711 44.1729 33.3405C44.1729 33.5678 44.3244 33.7615 44.5348 33.8204C44.7704 33.8794 44.8714 33.6941 44.8967 33.652C44.8967 33.6436 44.8967 33.6436 44.9051 33.6436C44.9135 33.6436 44.9135 33.652 44.9135 33.652" fill="#0078D4"/>
<path d="M40.5118 32.7763H40.4108V33.5846H40.5118C40.7307 33.5846 40.8653 33.5677 40.8653 33.1804C40.8653 32.81 40.7391 32.7763 40.5118 32.7763ZM40.4361 33.8035H40.1499V32.5742H40.4613C40.8401 32.5742 41.1178 32.6416 41.1178 33.1888C41.1178 33.7277 40.8148 33.8035 40.4361 33.8035Z" fill="#0078D4"/>
<path d="M12.4759 33.6517C12.4759 36.3375 10.296 38.5182 7.60272 38.5182C4.9094 38.5182 2.72949 36.3375 2.72949 33.6517C2.72949 30.9658 4.9094 28.7852 7.60272 28.7852C10.296 28.7936 12.4759 30.9658 12.4759 33.6517Z" fill="white"/>
<path d="M7.60271 38.4933C4.97672 38.4933 2.85573 36.3715 2.85573 33.7615C2.85573 31.143 4.98514 29.0212 7.60271 29.0212C10.2203 29.0212 12.3497 31.143 12.3497 33.7615C12.3497 36.38 10.2203 38.4933 7.60271 38.4933ZM7.60271 28.7266C4.81681 28.7266 2.55273 30.983 2.55273 33.7615C2.55273 36.5399 4.81681 38.7964 7.60271 38.7964C10.3886 38.7964 12.6527 36.5399 12.6527 33.7615C12.6527 30.983 10.3886 28.7266 7.60271 28.7266Z" fill="#0078D7"/>
<path d="M7.60278 29.4336C8.73902 29.4336 9.76585 29.863 10.5402 30.5787C10.1614 30.5702 9.78269 30.7891 9.76585 31.3112C9.73219 32.3552 11.0115 32.5741 10.3214 34.6622L9.74902 36.3882L8.20036 31.8248C8.17511 31.7574 8.20036 31.7153 8.29294 31.7153H8.73061C8.75586 31.7153 8.77269 31.6985 8.77269 31.6732V31.4122C8.77269 31.3869 8.75586 31.3701 8.73061 31.3701C7.89736 31.4038 7.07253 31.4038 6.25612 31.3701C6.23087 31.3701 6.21404 31.3869 6.21404 31.4122V31.6732C6.21404 31.6985 6.23087 31.7153 6.25612 31.7153H6.69378C6.79478 31.7153 6.82003 31.749 6.84528 31.8079L7.48495 33.5508L6.52545 36.4387L4.95154 31.8079C4.93471 31.749 4.95154 31.7153 5.01046 31.7153H5.51546C5.54071 31.7153 5.55754 31.6985 5.55754 31.6732V31.4122C5.55754 31.3869 5.54071 31.3701 5.51546 31.3701C4.98521 31.3954 4.45496 31.4038 3.9668 31.4122C4.73271 30.2166 6.07095 29.4336 7.60278 29.4336Z" fill="#0078D4"/>
<path d="M11.4155 31.6992C11.7521 32.3138 11.9373 33.0127 11.9373 33.762C11.9373 35.4038 11.0283 36.8267 9.68164 37.5592L11.0367 33.7368C11.2471 33.1474 11.4407 32.3475 11.4155 31.6992Z" fill="#0078D7"/>
<path d="M9.0506 37.8456C8.5961 38.0056 8.10794 38.0982 7.59453 38.0982C7.15686 38.0982 6.72761 38.0308 6.33203 37.9129L7.67869 34.082L9.0506 37.8456Z" fill="#0078D7"/>
<path d="M5.74267 37.6772C4.27818 36.9868 3.25977 35.4881 3.25977 33.7621C3.25977 33.1222 3.40285 32.516 3.64693 31.9688L5.74267 37.6772Z" fill="#0078D7"/>
</svg>
