<svg data-slug-id="code12" viewBox="0 0 50 49" xmlns="http://www.w3.org/2000/svg">
<path d="M18.5672 33.193C26.6858 33.193 33.2672 26.6116 33.2672 18.493C33.2672 10.3744 26.6858 3.79297 18.5672 3.79297C10.4486 3.79297 3.86719 10.3744 3.86719 18.493C3.86719 26.6116 10.4486 33.193 18.5672 33.193Z" fill="#50E6FF"/>
<path d="M48.7674 44.8922L33.0674 29.1922C35.3674 26.1922 36.6674 22.4922 36.6674 18.4922C36.6674 8.89219 28.7674 0.992188 19.0674 0.992188C9.46738 0.992188 1.56738 8.89219 1.56738 18.4922C1.56738 28.1922 9.46738 35.9922 19.0674 35.9922C22.9674 35.9922 26.5674 34.6922 29.4674 32.5922L45.1674 48.2922L48.7674 44.8922ZM6.56738 18.4922C6.56738 11.5922 12.1674 5.99219 19.1674 5.99219C26.1674 5.99219 31.6674 11.5922 31.6674 18.4922C31.6674 25.3922 26.0674 30.9922 19.1674 30.9922C12.1674 31.0922 6.56738 25.4922 6.56738 18.4922Z" fill="#0078D4"/>
<path d="M20.5674 16.5938H17.0674V20.0938H20.5674V16.5938Z" fill="#0078D4"/>
<path d="M24.0672 13.1953L22.8672 14.3953L26.8672 18.3953L22.8672 22.3953L24.0672 23.5953L29.2672 18.3953L24.0672 13.1953Z" fill="#0078D4"/>
<path d="M13.5672 23.5953L14.7672 22.3953L10.7672 18.3953L14.7672 14.3953L13.5672 13.1953L8.36719 18.3953L13.5672 23.5953Z" fill="#0078D4"/>
</svg>
