<svg data-slug-id="code06" viewBox="0 0 49 49" xmlns="http://www.w3.org/2000/svg">
<path d="M48.0113 10.5664H0.0449219V41.0254H48.0113V10.5664Z" fill="#0078D4"/>
<path d="M48.0199 5.65625H0.0283203V10.7005H48.0199V5.65625Z" fill="#50E6FF"/>
<path d="M12.597 30.5798C15.8521 30.5798 18.4908 27.9368 18.4908 24.6766C18.4908 21.4164 15.8521 18.7734 12.597 18.7734C9.34189 18.7734 6.70312 21.4164 6.70312 24.6766C6.70312 27.9368 9.34189 30.5798 12.597 30.5798Z" fill="#0078D4"/>
<path d="M21.4175 25.6122V23.7427H19.5005C19.3323 22.5132 18.8531 21.3848 18.1384 20.4416L19.4921 19.0859L18.1805 17.7722L16.8268 19.128C15.8851 18.4122 14.7585 17.9238 13.531 17.7638V15.8438H11.6728V17.7638C10.4453 17.9322 9.31866 18.4122 8.37699 19.128L7.02334 17.7722L5.71173 19.0859L7.06538 20.4416C6.34231 21.3848 5.85466 22.5132 5.69491 23.7427H3.76953V25.6038H5.6865C5.85466 26.8332 6.3339 27.9616 7.04856 28.9048L5.69491 30.2606L7.00652 31.5743L8.36018 30.2185C9.30185 30.9343 10.4285 31.4227 11.656 31.5827V33.5111H13.5141V31.5911C14.7417 31.4227 15.8683 30.9427 16.81 30.2269L18.1636 31.5827L19.4753 30.269L18.1216 28.9132C18.8363 27.9701 19.3239 26.8416 19.4837 25.6122H21.4175ZM7.49418 24.6774C7.49418 23.3132 8.02387 22.0248 8.99076 21.0648C9.95765 20.0964 11.2356 19.5659 12.5977 19.5659C13.9598 19.5659 15.2461 20.0964 16.2046 21.0648C17.1715 22.0332 17.7012 23.3132 17.7012 24.6774C17.7012 26.0416 17.1715 27.3301 16.2046 28.2901C15.2377 29.2585 13.9598 29.789 12.5977 29.789C11.2356 29.789 9.94925 29.2585 8.99076 28.2901C8.02387 27.3301 7.49418 26.0416 7.49418 24.6774Z" fill="#50E6FF"/>
<path d="M13.2031 23.3738H13.1022L14.9015 19.0117H12.0176L10.0586 24.9317H12.4632H12.6146L10.6219 30.178L15.7086 23.3738H13.2031Z" fill="#50E6FF"/>
<path d="M42.9078 15.7031H25.3271V18.2126H42.9078V15.7031Z" fill="#50E6FF"/>
<path d="M40.4359 23.3125H25.3271V25.822H40.4359V23.3125Z" fill="#50E6FF"/>
<path d="M37.8631 30.8945H25.3271V33.404H37.8631V30.8945Z" fill="#50E6FF"/>
</svg>
