<svg data-slug-id="code-window" xmlns="http://www.w3.org/2000/svg" viewBox="0 0 48 48">
    <path d="M0 42.9712H48V6.01123H0V42.9712Z" fill="#0078D4"/>
    <path d="M0 10.0019H47.9832V4.99976H0V10.0019Z" fill="#50E6FF"/>
    <path d="M7.47789 8.82467C8.15226 8.82467 8.69894 8.27799 8.69894 7.60362C8.69894 6.92925 8.15226 6.38257 7.47789 6.38257C6.80352 6.38257 6.25684 6.92925 6.25684 7.60362C6.25684 8.27799 6.80352 8.82467 7.47789 8.82467Z" fill="#0078D4"/>
    <path d="M3.68834 8.82467C4.36271 8.82467 4.90939 8.27799 4.90939 7.60362C4.90939 6.92925 4.36271 6.38257 3.68834 6.38257C3.01397 6.38257 2.46729 6.92925 2.46729 7.60362C2.46729 8.27799 3.01397 8.82467 3.68834 8.82467Z" fill="#0078D4"/>
    <path d="M11.3514 8.82467C12.0258 8.82467 12.5725 8.27799 12.5725 7.60362C12.5725 6.92925 12.0258 6.38257 11.3514 6.38257C10.6771 6.38257 10.1304 6.92925 10.1304 7.60362C10.1304 8.27799 10.6771 8.82467 11.3514 8.82467Z" fill="#0078D4"/>
    <path d="M35.2503 17.574L33.4482 19.3761L39.284 25.2119L33.3809 31.115L35.183 32.9171L42.8882 25.2119L35.2503 17.574Z" fill="#50E6FF"/>
    <path d="M12.5896 32.9171L14.4001 31.115L8.56429 25.2792L14.4674 19.3761L12.6653 17.574L4.95166 25.2792L12.5896 32.9171Z" fill="#50E6FF"/>
    <path d="M31.5537 27.8126C32.9582 27.8126 34.0968 26.674 34.0968 25.2695C34.0968 23.8649 32.9582 22.7263 31.5537 22.7263C30.1491 22.7263 29.0105 23.8649 29.0105 25.2695C29.0105 26.674 30.1491 27.8126 31.5537 27.8126Z" fill="white"/>
    <path d="M23.8903 27.8126C25.2949 27.8126 26.4335 26.674 26.4335 25.2695C26.4335 23.8649 25.2949 22.7263 23.8903 22.7263C22.4858 22.7263 21.3472 23.8649 21.3472 25.2695C21.3472 26.674 22.4858 27.8126 23.8903 27.8126Z" fill="white"/>
    <path d="M16.3957 27.8126C17.8002 27.8126 18.9389 26.674 18.9389 25.2695C18.9389 23.8649 17.8002 22.7263 16.3957 22.7263C14.9911 22.7263 13.8525 23.8649 13.8525 25.2695C13.8525 26.674 14.9911 27.8126 16.3957 27.8126Z" fill="white"/>
</svg>
