<svg data-slug-id="code04" viewBox="0 0 49 49" xmlns="http://www.w3.org/2000/svg">
<path d="M15.0285 15.5845L13.2681 13.8242L2.55469 24.5377L13.2766 35.2596L15.0453 33.4908L6.08373 24.5293L15.0285 15.5845Z" fill="#0078D4"/>
<path d="M33.1034 33.6196L34.8637 35.3799L45.6277 24.6159L34.8047 13.793L33.0444 15.5617L42.0987 24.6159L33.1034 33.6196Z" fill="#0078D4"/>
<path d="M16.4944 26.982C17.8853 26.982 19.0127 25.8545 19.0127 24.4636C19.0127 23.0728 17.8853 21.9453 16.4944 21.9453C15.1036 21.9453 13.9761 23.0728 13.9761 24.4636C13.9761 25.8545 15.1036 26.982 16.4944 26.982Z" fill="#50E6FF"/>
<path d="M24.0403 26.982C25.4311 26.982 26.5586 25.8545 26.5586 24.4636C26.5586 23.0728 25.4311 21.9453 24.0403 21.9453C22.6495 21.9453 21.522 23.0728 21.522 24.4636C21.522 25.8545 22.6495 26.982 24.0403 26.982Z" fill="#50E6FF"/>
<path d="M31.6375 26.982C33.0283 26.982 34.1558 25.8545 34.1558 24.4636C34.1558 23.0728 33.0283 21.9453 31.6375 21.9453C30.2466 21.9453 29.1191 23.0728 29.1191 24.4636C29.1191 25.8545 30.2466 26.982 31.6375 26.982Z" fill="#0078D4"/>
</svg>
