<svg data-slug-id="computer07" viewBox="0 0 48 48" xmlns="http://www.w3.org/2000/svg">
    <path d="M31.0474 36.002H29.9046H18.6665H18.095C19.6188 41.6147 17.5236 42.3888 8.38074 42.3888V45.292H19.9998H28.3807H39.4284V42.3888C30.476 42.3888 29.5236 41.4211 31.0474 36.002Z" fill="#0078D4"/>
    <path d="M8.38074 45.2935H39.4284V42.3904H8.38074V45.2935Z" fill="#0078D4"/>
    <path d="M48 0H0V35.9989H48V0Z" fill="#0078D4"/>
    <path d="M45.5237 2.51758H2.6665V33.2908H45.5237V2.51758Z" fill="#50E6FF"/>
    <path d="M7.80973 48C6.85735 48 5.90497 47.2258 5.90497 46.0646V22.8395C5.90497 21.8718 6.66687 20.9041 7.80973 20.9041H18.6669C19.6193 20.9041 20.5716 21.6782 20.5716 22.8395V46.0646C20.5716 47.0323 19.8097 48 18.6669 48H7.80973Z" fill="#0078D4"/>
    <path d="M11.4286 46.4547H14.6667V45.2935H11.4286V46.4547Z" fill="#50E6FF"/>
    <path d="M13.7145 23.0345C13.7145 23.4215 13.524 23.6151 13.143 23.6151C12.7621 23.6151 12.5716 23.4215 12.5716 23.0345C12.5716 22.6474 12.7621 22.4539 13.143 22.4539C13.3335 22.4539 13.7145 22.6474 13.7145 23.0345Z" fill="#50E6FF"/>
    <path d="M6.8573 43.9386H19.2382V24.9714H6.8573V43.9386Z" fill="white"/>
    <path d="M7.80969 27.6765H18.2859V26.1282H7.80969V27.6765Z" fill="#50E6FF"/>
    <path d="M7.80969 41.8067H18.2859V41.2261H7.80969V41.8067Z" fill="#0078D4"/>
    <path d="M7.80969 42.971H18.2859V42.3904H7.80969V42.971Z" fill="#0078D4"/>
    <path d="M7.80969 40.6424H18.2859V32.3201H7.80969V40.6424Z" fill="#3BCAF4"/>
    <path d="M7.80969 31.5505H18.2859V28.2603H7.80969V31.5505Z" fill="#50E6FF"/>
</svg>
