<svg data-slug-id="computer03" viewBox="0 0 49 49" xmlns="http://www.w3.org/2000/svg">
<path d="M47.9473 0.308594H0.0195312V43.2883H47.9473V0.308594Z" fill="#0078D4"/>
<path d="M8.80217 2.83681C9.50085 2.83681 10.0672 2.27085 10.0672 1.5727C10.0672 0.874554 9.50085 0.308594 8.80217 0.308594C8.1035 0.308594 7.53711 0.874554 7.53711 1.5727C7.53711 2.27085 8.1035 2.83681 8.80217 2.83681Z" fill="#50E6FF"/>
<path d="M3.77873 2.83681C4.47741 2.83681 5.0438 2.27085 5.0438 1.5727C5.0438 0.874554 4.47741 0.308594 3.77873 0.308594C3.08006 0.308594 2.51367 0.874554 2.51367 1.5727C2.51367 2.27085 3.08006 2.83681 3.77873 2.83681Z" fill="#50E6FF"/>
<path d="M3.77873 2.83681C4.47741 2.83681 5.0438 2.27085 5.0438 1.5727C5.0438 0.874554 4.47741 0.308594 3.77873 0.308594C3.08006 0.308594 2.51367 0.874554 2.51367 1.5727C2.51367 2.27085 3.08006 2.83681 3.77873 2.83681Z" fill="#50E6FF"/>
<path d="M8.83879 2.83681C9.53747 2.83681 10.1039 2.27085 10.1039 1.5727C10.1039 0.874554 9.53747 0.308594 8.83879 0.308594C8.14012 0.308594 7.57373 0.874554 7.57373 1.5727C7.57373 2.27085 8.14012 2.83681 8.83879 2.83681Z" fill="#50E6FF"/>
<path d="M29.0434 2.83681C29.7421 2.83681 30.3084 2.27085 30.3084 1.5727C30.3084 0.874554 29.7421 0.308594 29.0434 0.308594C28.3447 0.308594 27.7783 0.874554 27.7783 1.5727C27.7783 2.27085 28.3447 2.83681 29.0434 2.83681Z" fill="#50E6FF"/>
<path d="M34.1401 2.83681C34.8387 2.83681 35.4051 2.27085 35.4051 1.5727C35.4051 0.874554 34.8387 0.308594 34.1401 0.308594C33.4414 0.308594 32.875 0.874554 32.875 1.5727C32.875 2.27085 33.4414 2.83681 34.1401 2.83681Z" fill="#50E6FF"/>
<path d="M34.1039 2.83681C34.8026 2.83681 35.369 2.27085 35.369 1.5727C35.369 0.874554 34.8026 0.308594 34.1039 0.308594C33.4053 0.308594 32.8389 0.874554 32.8389 1.5727C32.8389 2.27085 33.4053 2.83681 34.1039 2.83681Z" fill="#50E6FF"/>
<path d="M29.0795 2.83681C29.7782 2.83681 30.3446 2.27085 30.3446 1.5727C30.3446 0.874554 29.7782 0.308594 29.0795 0.308594C28.3808 0.308594 27.8145 0.874554 27.8145 1.5727C27.8145 2.27085 28.3808 2.83681 29.0795 2.83681Z" fill="#50E6FF"/>
<path d="M48.0194 0.308594H37.8989V33.1754H48.0194V0.308594Z" fill="#50E6FF"/>
<path d="M48.0196 0.308594H40.4292V2.83681H48.0196V0.308594Z" fill="#0078D4"/>
<path d="M48.0196 0.308594H40.4292V2.83681H48.0196V0.308594Z" fill="#0078D4"/>
<path d="M48.0196 0.308594H40.4292V2.83681H48.0196V0.308594Z" fill="#0078D4"/>
<path d="M48.0196 0.308594H40.4292V2.83681H48.0196V0.308594Z" fill="#0078D4"/>
<path d="M48.0196 0.308594H40.4292V2.83681H48.0196V0.308594Z" fill="#0078D4"/>
<path d="M48.0196 0.308594H40.4292V2.83681H48.0196V0.308594Z" fill="#0078D4"/>
</svg>
