<svg data-slug-id="computer-bar" xmlns="http://www.w3.org/2000/svg" viewBox="0 0 48 48">
  <path d="M31.0093 37.9062H29.8726H18.6662H18.0852C19.6428 43.4006 17.5548 44.1843 8.41113 44.1843V47.0579H20.0386H28.5255H39.4962V44.1843C30.3525 44.1928 29.4601 43.4091 31.0093 37.9062Z" fill="#50E6FF"/>
  <path d="M8.40283 47.065H39.4963V44.1914H8.40283V47.065Z" fill="#0078D4"/>
  <path d="M48 2.51953H0V37.9802H48V2.51953Z" fill="#0078D4"/>
  <path d="M45.4155 5.05469H2.54297V35.3833H45.4155V5.05469Z" fill="#50E6FF"/>
  <path d="M15.0624 19.2812H10.1201V30.3122H15.0624V19.2812Z" fill="#0078D4"/>
  <path d="M22.7496 15.168H17.6895V30.3112H22.7496V15.168Z" fill="#0078D4"/>
  <path d="M30.3277 10.0391H25.2676V30.3143H30.3277V10.0391Z" fill="#0078D4"/>
  <path d="M37.888 15.2188H32.7773V30.3199H37.888V15.2188Z" fill="#0078D4"/>
</svg>
