<svg data-slug-id="computer06" viewBox="0 0 49 49" xmlns="http://www.w3.org/2000/svg">
<path d="M31.0298 38.8633H29.8931H18.6867H18.1057C19.6634 44.3577 17.5753 45.1414 8.43164 45.1414V48.015H20.0591H28.546H39.5167V45.1414C30.3731 45.1498 29.4806 44.3661 31.0298 38.8633Z" fill="#50E6FF"/>
<path d="M8.42334 48.022H39.5168V45.1484H8.42334V48.022Z" fill="#50E6FF"/>
<path d="M48.0205 3.47656H0.0205078V38.9372H48.0205V3.47656Z" fill="#0078D4"/>
<path d="M45.436 6.01172H2.56348V36.3404H45.436V6.01172Z" fill="#0078D4"/>
<path d="M44.643 9.05069L42.8375 7.24219L35.5323 14.5473L33.122 12.134L31.3135 13.9425L35.5294 18.1555L35.5353 18.1495L35.5383 18.1555L44.643 9.05069Z" fill="#50E6FF"/>
<path d="M44.643 22.7343L42.8375 20.9258L35.5323 28.2309L33.122 25.8176L31.3135 27.6261L35.5294 31.839L35.5353 31.8331L35.5383 31.839L44.643 22.7343Z" fill="#50E6FF"/>
<path d="M9.36489 23.9023H4.38965V35.0583H9.36489V23.9023Z" fill="#50E6FF"/>
<path d="M15.5749 20.2344H10.6079V35.0979H15.5749V20.2344Z" fill="#50E6FF"/>
<path d="M21.7809 17.6953H16.8306V35.1066H21.7851V17.6953H21.7809Z" fill="#50E6FF"/>
<path d="M27.9982 14.5H23.0479V35.1122H27.9941V14.5H27.9982Z" fill="#50E6FF"/>
</svg>
