<svg data-slug-id="computer04" viewBox="0 0 49 49" xmlns="http://www.w3.org/2000/svg">
<path d="M24.0854 18.3541C31.1041 18.3541 37.5131 20.9655 42.3899 25.2738L47.5962 20.43C41.4096 14.7377 33.1553 11.2695 24.0854 11.2695C14.9579 11.2695 6.64596 14.7871 0.442871 20.5453L5.67389 25.3645C10.5672 21.0066 17.0174 18.3541 24.0854 18.3541Z" fill="#0078D7"/>
<path d="M9.40576 28.7994L13.0963 32.1934C16.1114 29.7962 19.9337 28.3546 24.0938 28.3546C28.221 28.3546 32.0186 29.7715 35.0254 32.1357L38.6912 28.717C34.7453 25.3889 29.6543 23.3789 24.0938 23.3789C18.4838 23.3871 13.3599 25.4301 9.40576 28.7994Z" fill="#0078D7"/>
<path d="M16.8198 35.6256L18.6898 37.3473C20.255 36.3753 22.1085 35.8069 24.0856 35.8069C26.0544 35.8069 27.8915 36.3588 29.4484 37.3226L31.3019 35.5927C29.2589 34.1758 26.7711 33.3438 24.0856 33.3438C21.3836 33.3438 18.8793 34.184 16.8198 35.6256Z" fill="#50E6FF"/>
</svg>
