<svg data-slug-id="configuration-blue" xmlns="http://www.w3.org/2000/svg" viewBox="0 0 48 48">
<path d="M10.1053 0H0V10.1053H10.1053V0Z" fill="#0078D4"/>
<path d="M22.7371 0H12.6318V10.1053H22.7371V0Z" fill="#0078D4"/>
<path d="M35.368 0H25.2627V10.1053H35.368V0Z" fill="#0078D4"/>
<path d="M47.9998 0H37.8945V10.1053H47.9998V0Z" fill="#0078D4"/>
<path d="M10.1053 12.6316H0V22.7368H10.1053V12.6316Z" fill="#50E6FF"/>
<path d="M22.7371 12.6316H12.6318V22.7368H22.7371V12.6316Z" fill="#50E6FF"/>
<path d="M35.368 12.6316H25.2627V22.7368H35.368V12.6316Z" fill="#50E6FF"/>
<path d="M47.9998 12.6316H37.8945V22.7368H47.9998V12.6316Z" fill="#50E6FF"/>
<path d="M10.1053 25.2632H0V35.3684H10.1053V25.2632Z" fill="#50E6FF"/>
<path d="M22.7371 25.2632H12.6318V35.3684H22.7371V25.2632Z" fill="#50E6FF"/>
<path d="M35.368 25.2632H25.2627V35.3684H35.368V25.2632Z" fill="#50E6FF"/>
<path d="M47.9998 25.2632H37.8945V35.3684H47.9998V25.2632Z" fill="#0078D4"/>
<path d="M10.1053 37.8948H0V48H10.1053V37.8948Z" fill="#50E6FF"/>
<path d="M22.7371 37.8948H12.6318V48H22.7371V37.8948Z" fill="#0078D4"/>
<path d="M35.368 37.8948H25.2627V48H35.368V37.8948Z" fill="#0078D4"/>
<path d="M47.9998 37.8948H37.8945V48H47.9998V37.8948Z" fill="#0078D4"/>
</svg>
