<svg data-slug-id="connected-circles" xmlns="http://www.w3.org/2000/svg" viewBox="0 0 48 48">
<path d="M24.61 23.3694V6.28906H23.3484V23.3694H4.54199V43.5055H5.8036V24.6321H23.3484V44.0442H24.61V24.6321H42.3313V43.5055H43.5929V23.3694H24.61Z" fill="#50E6FF"/>
<path d="M29.0254 5.02509C29.0254 7.79465 26.7798 10.0423 24.0127 10.0423C21.2455 10.0423 18.9999 7.79465 18.9999 5.02509C18.9999 2.25554 21.2455 0.00790405 24.0127 0.00790405C26.7798 0.00790405 29.0254 2.25554 29.0254 5.02509Z" fill="#0078D4"/>
<path d="M29.0256 42.8492C29.0256 45.6188 26.7799 47.8664 24.0128 47.8664C21.2457 47.8664 19 45.6272 19 42.8492C19 40.0797 21.2457 37.832 24.0128 37.832C26.7799 37.832 29.0256 40.0797 29.0256 42.8492Z" fill="#0078D4"/>
<path d="M48.0001 42.8492C48.0001 45.6188 45.7544 47.8664 42.9873 47.8664C40.2202 47.8664 37.9829 45.6272 37.9829 42.8492C37.9829 40.0797 40.2286 37.832 42.9957 37.832C45.7628 37.832 48.0001 40.0797 48.0001 42.8492Z" fill="#50E6FF"/>
<path d="M10.1265 42.8492C10.1265 45.6188 7.88088 47.8664 5.11375 47.8664C2.34663 47.8664 0.109375 45.6272 0.109375 42.8492C0.109375 40.0797 2.35504 37.832 5.12216 37.832C7.88929 37.832 10.1265 40.0797 10.1265 42.8492Z" fill="#0078D4"/>
</svg>
