<?xml version="1.0" encoding="UTF-8" standalone="no"?>
<!DOCTYPE svg PUBLIC "-//W3C//DTD SVG 1.1//EN" "http://www.w3.org/Graphics/SVG/1.1/DTD/svg11.dtd">
<svg viewBox="0 0 18 18" focusable="false" xmlns:svg="http://www.w3.org/2000/svg" xmlns:xlink="http://www.w3.org/1999/xlink" id="FxSymbol0-06c" data-type="1" width="1.64755in" height="1.70971in">
	<style type="text/css">
	<![CDATA[
		.msportalfx-svg-c01{fill:#fff}
	]]>
	</style>
    	<defs id="Patterns_And_Gradients">
        <linearGradient id="f749f3d5-a6e9-4b3c-8369-e70719f12239" x1="5.764" x2="5.764" y1="3.777" y2="13.78" gradientUnits="userSpaceOnUse"><stop offset="0" stop-color="#a67af4"></stop><stop offset=".999" stop-color="#773adc"></stop></linearGradient>
		<linearGradient id="f749f3d5-a6e9-4b3c-8369-e70719f12238" x1="8.798" x2="14.683" y1="8.703" y2="8.703" gradientUnits="userSpaceOnUse"><stop offset=".001" stop-color="#773adc"></stop><stop offset="1" stop-color="#552f99"></stop></linearGradient>
	</defs>
<g><title></title><defs></defs><path fill="#32bedd" d="M16.932 11.578a8.448 8.448 0 0 1-7.95 5.59 8.15 8.15 0 0 1-2.33-.33 2.133 2.133 0 0 0 .18-.83c.01 0 .03.01.04.01a7.422 7.422 0 0 0 2.11.3 7.646 7.646 0 0 0 6.85-4.28l.01-.01zm-13.35 2.49a2.025 2.025 0 0 0-.64.56 8.6 8.6 0 0 1-1.67-2.44l1.04.23v.26a.6.6 0 0 0 .47.59l.14.03a6.136 6.136 0 0 0 .62.73zm8.77-13.11a2.28 2.28 0 0 0-.27.81c-.02-.01-.05-.02-.07-.03a7.479 7.479 0 0 0-3.03-.63 7.643 7.643 0 0 0-5.9 2.8l-.29.06a.6.6 0 0 0-.48.58v.46l-1.02.19a8.454 8.454 0 0 1 7.69-4.93 8.6 8.6 0 0 1 3.37.69zm4.52 4.742l-1.09-.38a6.6 6.6 0 0 0-.72-1.16c-.02-.03-.04-.05-.05-.07a2.083 2.083 0 0 0 .72-.45 7.81 7.81 0 0 1 1.14 2.06z"></path><path d="M10.072 11.908l2.54.56-3.94 1.632c-.02 0-.03.01-.05.01a.154.154 0 0 1-.15-.15V3.448a.154.154 0 0 1 .15-.15.09.09 0 0 1 .05.01l4.46 1.56-3.05.57a.565.565 0 0 0-.44.54v5.4a.537.537 0 0 0 .43.53z" class="msportalfx-svg-c01"></path><path fill="#a67af4" d="M1.1 5.668l1.21-.23v6.55l-1.23-.27-.99-.22a.111.111 0 0 1-.09-.12v-5.4a.12.12 0 0 1 .09-.12z"></path><path fill="url(#f749f3d5-a6e9-4b3c-8369-e70719f12238)" d="M10.072 11.908l2.54.56-3.94 1.632c-.02 0-.03.01-.05.01a.154.154 0 0 1-.15-.15V3.448a.154.154 0 0 1 .15-.15.09.09 0 0 1 .05.01l4.46 1.56-3.05.57a.565.565 0 0 0-.44.54v5.4a.537.537 0 0 0 .43.53z"></path><path fill="url(#f749f3d5-a6e9-4b3c-8369-e70719f12239)" d="M8.586 3.3L2.878 4.378a.177.177 0 0 0-.14.175v8.127a.177.177 0 0 0 .137.174L8.581 14.1a.176.176 0 0 0 .21-.174V3.478a.175.175 0 0 0-.172-.178z"></path><path fill="#b796f9" d="M5.948 4.921v7.562l1.986.331v-8.25l-1.986.357zm-2.439.408v6.625l1.729.363V5.031l-1.729.298z" opacity=".5"></path><path fill="#32bedd" d="M16 2.048a1.755 1.755 0 1 1-1.76-1.76A1.756 1.756 0 0 1 16 2.048z"></path><circle cx="4.65" cy="15.973" r="1.759" fill="#32bedd"></circle><path fill="#773adc" d="M18 6.689v3.844a.222.222 0 0 1-.133.2l-.766.316-3.07 1.268h-.011a.126.126 0 0 1-.038 0 .1.1 0 0 1-.1-.1V5.234a.1.1 0 0 1 .054-.088h.019a.031.031 0 0 1 .019 0 .055.055 0 0 1 .034.008h.023L17.05 6.2l.8.282a.213.213 0 0 1 .15.207z"></path><path fill="#a67af4" d="M13.959 5.14l-3.8.715a.118.118 0 0 0-.093.117v5.409a.118.118 0 0 0 .091.116l3.8.831a.115.115 0 0 0 .137-.09.109.109 0 0 0 0-.026V5.256a.117.117 0 0 0-.115-.118.082.082 0 0 0-.02.002z"></path></g></svg>