<svg data-slug-id="cosmosdb-solution" xmlns="http://www.w3.org/2000/svg" viewBox="0 0 138 114">
<path opacity="0.03" d="M27.3728 55.5308L34.1404 51.8449L39.8808 55.1079L33.2341 59.0959L27.3728 55.5308Z"/>
<path d="M11.2998 33.0527V46.3463L22.9014 39.6391L22.841 26.3455L11.2998 33.0527Z" fill="#2195DC"/>
<path d="M11.2995 33.0527L0 26.3455L0.0604252 39.6391L11.2995 46.3463V33.0527Z" fill="#0078D4"/>
<path d="M22.8407 26.3454L11.6016 19.6382L0 26.3454L11.2995 33.0526L22.8407 26.3454Z" fill="#45CAF2"/>
<path d="M24.835 54.8056L24.8954 66.1656L34.7447 60.4252V49.0652L24.835 54.8056Z" fill="#50E6FF"/>
<path d="M24.8349 54.8056L15.2273 49.0652V60.4252L24.8953 66.1656L24.8349 54.8056Z" fill="#45CAF2"/>
<path d="M34.7446 49.0652L25.0766 43.3853L15.2273 49.0652L24.8349 54.8056L34.7446 49.0652Z" fill="#84ECFD"/>
<path d="M32.1462 27.6144V34.4425L38.0679 30.9982L38.0075 24.2306L32.1462 27.6144Z" fill="#243A5E"/>
<path d="M32.1464 27.6144L26.406 24.2306V30.9982L32.1464 34.4425V27.6144Z" fill="#1D4A79"/>
<path d="M38.0077 24.2306L32.2673 20.8467L26.406 24.2306L32.1464 27.6144L38.0077 24.2306Z" fill="#156AB3"/>
<path d="M100.245 33.0525L100.185 45.3188L89.6101 39.1554V26.9495L100.245 33.0525Z" fill="#243A5E"/>
<path d="M100.245 33.0525L110.578 26.9495V39.1554L100.185 45.3188L100.245 33.0525Z" fill="#1D4A79"/>
<path d="M89.6104 26.9496L100.003 20.7862L110.578 26.9496L100.245 33.0525L89.6104 26.9496Z" fill="#156AB3"/>
<path d="M112.633 12.2663V24.4722L101.998 18.3693V6.16339L112.633 12.2663Z" fill="#0078D4"/>
<path d="M112.632 12.2663L123.025 6.16339L122.965 18.3693L112.632 24.4722V12.2663Z" fill="#2195DC"/>
<path d="M101.998 6.16337L112.391 0L123.026 6.16337L112.632 12.2663L101.998 6.16337Z" fill="#45CAF2"/>
<path d="M131.425 15.9521V23.2031L125.08 19.5776V12.2662L131.425 15.9521Z" fill="#45CAF2"/>
<path d="M131.425 15.9521L137.649 12.2662L137.588 19.5776L131.425 23.2031V15.9521Z" fill="#50E6FF"/>
<path d="M125.08 12.2663L131.304 8.58038L137.649 12.2663L131.425 15.9523L125.08 12.2663Z" fill="#50E6FF"/>
<path opacity="0.15" d="M4.10864 81.9971L50.6361 56.4373L97.7677 88.1605C98.6137 88.7043 98.5533 89.9733 97.7073 90.5171L59.7603 113.237C58.0079 114.264 55.7722 114.264 54.0199 113.177L4.10864 81.9971Z"/>
<path d="M100.004 29.0042L95.7138 78.0695L41.8145 48.4611L44.4127 2.35669C44.5336 1.32946 45.6817 0.78563 46.5276 1.26903L100.004 29.0042Z" fill="#0078D4"/>
<path opacity="0.5" d="M100.004 29.0041L95.7138 78.0694L41.8145 48.461L44.4732 1.994C44.594 1.14805 45.5004 0.664645 46.2255 1.08762L100.004 29.0041Z" fill="#50E6FF"/>
<path d="M40.7871 47.2526L4.53198 67.6763L8.03665 69.912L58.4917 98.6744L59.5794 99.3391L95.4115 79.2779L96.6805 78.6737L95.8949 77.5256L42.5395 47.313C41.9956 46.9504 41.3309 46.89 40.7871 47.2526Z" fill="#0078D4"/>
<path d="M50.2138 80.2446L41.8147 85.0182C41.573 85.1391 41.2708 85.1391 41.0291 85.0182L28.5211 77.8276C28.2794 77.7068 28.2794 77.3442 28.5211 77.2234L36.7994 72.4498C37.0411 72.3289 37.3432 72.3289 37.5849 72.4498L50.2138 79.6404C50.4555 79.7612 50.4555 80.1238 50.2138 80.2446Z" fill="#50E6FF"/>
<path d="M4.59253 67.3137C4.71338 67.6158 4.95508 67.9784 5.31763 68.2201C11.6019 72.8124 55.954 97.768 57.4042 98.5535C58.9752 99.3995 58.9148 99.7016 61.0901 98.4931C63.0237 97.4054 89.9734 82.42 95.6534 78.9757C96.3785 78.5528 96.3785 77.7068 96.3785 77.7068C96.741 77.4651 96.9223 79.7009 96.741 80.7281C96.6806 81.0906 96.318 81.6345 96.0159 81.8157C92.0278 84.2327 62.782 100.668 61.3318 101.696C58.8544 103.448 58.2501 102.965 56.6187 101.696C54.3829 99.9433 8.88272 73.9604 4.71338 71.06C4.47168 70.8788 4.35083 70.6371 4.35083 70.3954L4.41126 67.4345C4.41126 67.4345 4.47168 67.072 4.59253 67.3137Z" fill="#0078D4"/>
<path opacity="0.5" d="M4.59253 67.3137C4.71338 67.6158 4.95508 67.9784 5.31763 68.2201C11.6019 72.8124 55.954 97.768 57.4042 98.5535C58.9752 99.3995 58.9148 99.7016 61.0901 98.4931C63.0237 97.4054 89.9734 82.42 95.6534 78.9757C96.3785 78.5528 96.3785 77.7068 96.3785 77.7068C96.741 77.4651 96.8619 79.7008 96.741 80.7281C96.6806 81.0906 96.318 81.6344 96.0159 81.8157C92.0278 84.2327 62.782 100.668 61.3318 101.696C58.8544 103.448 58.1293 102.904 56.6187 101.696C54.3829 99.8829 8.88272 73.9604 4.71338 71.06C4.47168 70.8788 4.35083 70.6371 4.35083 70.3954L4.41126 67.4345C4.41126 67.4345 4.47168 67.072 4.59253 67.3137Z" fill="#50E6FF"/>
<path d="M57.8271 99.46L4.77373 68.764C4.41118 68.4619 4.41118 68.0389 4.47161 67.8576C4.47161 67.6159 4.59246 67.3138 4.83416 67.1325L40.3642 46.9505C40.7872 46.6483 41.3914 46.7088 41.8144 46.9505L96.1971 77.3444C96.5597 77.5256 96.6805 78.1903 96.6805 78.5529C96.6805 78.9154 96.4992 79.278 96.1367 79.5197L60.2441 99.46C59.8815 99.7017 59.4586 99.7621 59.0356 99.7621C58.6126 99.8225 58.1896 99.7017 57.8271 99.46ZM5.92181 67.7367C5.86139 67.7972 5.74054 67.8576 5.74054 67.918C5.74054 68.0389 5.80096 68.1597 5.92181 68.2202L58.1896 98.3723C58.7939 98.7349 59.519 98.7349 60.0628 98.3723L95.3512 78.6737C95.5324 78.5529 95.6533 78.3716 95.6533 78.1903C95.6533 77.9486 95.5324 77.7673 95.3512 77.6465L41.1497 47.6152L5.92181 67.7367Z" fill="#0078D4"/>
<path d="M42.4793 47.313C42.4793 47.313 42.6605 47.9172 43.2044 48.5215C43.5669 48.884 41.9958 47.8568 41.9958 47.8568L42.4793 47.313Z" fill="#0078D4"/>
<path d="M44.8359 45.9232L92.9344 72.1478L96.6808 31.3003L47.1925 6.04257C47.1321 5.98215 47.0112 5.98215 46.9508 6.04257C46.8904 6.103 46.83 6.16342 46.83 6.22385C46.7695 6.22385 44.7151 45.8628 44.8359 45.9232Z" fill="#9B9BA0"/>
<path d="M44.8359 45.9232L92.9344 72.1478L96.6808 31.3003L47.1925 6.04257C47.1321 5.98215 47.0112 5.98215 46.9508 6.04257C46.8904 6.103 46.83 6.16342 46.83 6.22385C46.7695 6.22385 44.7151 45.8628 44.8359 45.9232Z" fill="#E1E1E1"/>
<path d="M41.8142 46.5878C42.1767 43.2644 43.929 4.04846 43.9895 2.65868C44.0499 1.20848 45.3792 -0.362578 46.9503 0.42295C47.6754 0.785501 98.2513 27.0705 98.9764 27.5539C100.91 28.7624 100.608 29.2458 100.608 31.7836C100.547 33.7172 96.8615 75.3502 96.5594 76.6192C96.1364 78.5528 96.9824 78.0089 95.7134 77.8881V77.8277H95.653C95.3509 77.7672 95.1696 77.5255 95.2301 77.2234C95.2301 77.1026 99.1577 32.8713 99.1577 32.8713C99.3994 30.0313 99.0368 29.6688 98.1305 29.0041C97.3449 28.4603 46.6482 1.87316 46.6482 1.87316C46.6482 1.87316 45.7418 1.5106 45.2584 2.11486C45.0167 2.41698 44.8958 2.90038 44.775 3.62549C44.5937 5.01527 42.9622 44.1708 42.5997 47.4942C42.5393 48.0984 42.5997 47.8567 42.6601 48.1589C42.781 48.4006 42.4184 47.9172 42.1767 47.9776C41.935 48.0984 42.2976 48.4006 42.1767 48.0984C41.9954 47.5546 41.7537 47.2525 41.8142 46.5878Z" fill="#0078D4"/>
<path d="M41.7538 57.2831L39.3972 58.6729L42.6602 60.546L45.0168 59.1563L41.7538 57.2831Z" fill="#50E6FF"/>
<path d="M45.8629 59.6397L43.5063 61.0295L46.2255 62.6005L48.5821 61.2108L45.8629 59.6397Z" fill="#50E6FF"/>
<path d="M49.4281 61.6942L47.0715 63.0839L49.7907 64.655L52.1473 63.2652L49.4281 61.6942Z" fill="#50E6FF"/>
<path d="M39.0954 59.3981L33.355 56.1351L30.938 57.5249L36.6784 60.8483L39.0954 59.3981Z" fill="#50E6FF"/>
<path d="M64.2323 80.3655L66.5285 79.0361L63.6281 77.3442L61.3923 78.6736L64.2323 80.3655Z" fill="#50E6FF"/>
<path d="M67.4953 82.2387L69.7914 80.9093L67.4348 79.5195L65.1387 80.8489L67.4953 82.2387Z" fill="#50E6FF"/>
<path d="M60.5464 68.1596L58.2502 69.489L61.0902 71.1809L63.4468 69.7911L60.5464 68.1596Z" fill="#50E6FF"/>
<path d="M61.9364 72.5706L59.459 74.0208L62.299 75.5919L64.716 74.2021L61.9364 72.5706Z" fill="#50E6FF"/>
<path d="M65.5615 74.6855L63.1445 76.1358L66.0449 77.8277L68.5224 76.3775L65.5615 74.6855Z" fill="#50E6FF"/>
<path d="M64.897 73.3562L67.1932 71.9664L64.2927 70.335L61.9966 71.6643L64.897 73.3562Z" fill="#50E6FF"/>
<path d="M58.4317 70.5767L56.0146 71.9664L58.6129 73.4771L61.0299 72.0873L58.4317 70.5767Z" fill="#50E6FF"/>
<path d="M68.5227 75.4711L70.8793 74.0813L68.0997 72.4498L65.7432 73.8396L68.5227 75.4711Z" fill="#50E6FF"/>
<path d="M56.6791 65.9239L54.3225 67.2532L57.3438 69.0056L59.7004 67.6158L56.6791 65.9239Z" fill="#50E6FF"/>
<path d="M52.9931 63.7486L50.6365 65.1384L53.4765 66.7699L55.833 65.3801L52.9931 63.7486Z" fill="#50E6FF"/>
<path d="M50.2741 72.2685L52.5702 70.9392L49.8511 69.3681L47.5549 70.7579L50.2741 72.2685Z" fill="#50E6FF"/>
<path d="M53.5974 74.2021L55.8936 72.8728L53.4766 71.4225L51.1804 72.8123L53.5974 74.2021Z" fill="#50E6FF"/>
<path d="M40.0016 59.8813L37.5242 61.3316L40.5454 63.0839L43.0229 61.6337L40.0016 59.8813Z" fill="#50E6FF"/>
<path d="M46.7089 70.214L49.005 68.8847L46.3463 67.374L44.1106 68.7034L46.7089 70.214Z" fill="#50E6FF"/>
<path d="M69.9124 80.0634L72.3898 78.6132L69.3686 76.8608L66.8911 78.3111L69.9124 80.0634Z" fill="#50E6FF"/>
<path d="M75.8342 79.6405L78.1304 78.3111L75.3508 76.6796L73.0547 78.0694L75.8342 79.6405Z" fill="#50E6FF"/>
<path d="M60.4857 78.1901L62.7819 76.8607L60.3045 75.4105L58.0083 76.7399L60.4857 78.1901Z" fill="#50E6FF"/>
<path d="M54.9871 68.5826L52.5701 70.0328L55.1079 71.4831L57.5854 70.0328L54.9871 68.5826Z" fill="#50E6FF"/>
<path d="M51.3012 66.4073L48.8237 67.8576L51.7241 69.489L54.1411 68.0993L51.3012 66.4073Z" fill="#50E6FF"/>
<path d="M47.676 64.3529L45.259 65.8031L47.9782 67.3742L50.3952 65.924L47.676 64.3529Z" fill="#50E6FF"/>
<path d="M57.1022 76.2566L59.3984 74.8668L56.8001 73.3562L54.5039 74.6856L57.1022 76.2566Z" fill="#50E6FF"/>
<path d="M43.8689 62.1776L41.4519 63.5673L44.3523 65.2592L46.8298 63.8695L43.8689 62.1776Z" fill="#50E6FF"/>
<path d="M75.0482 72.9936L72.8125 74.2625L75.5316 75.8336L77.7674 74.5646L75.0482 72.9936Z" fill="#50E6FF"/>
<path d="M43.2044 68.2201L45.5005 66.8908L42.9627 65.3801L40.6665 66.7699L43.2044 68.2201Z" fill="#50E6FF"/>
<path d="M71.8458 71.1205L69.6101 72.4498L71.9667 73.7792L74.2024 72.5103L71.8458 71.1205Z" fill="#50E6FF"/>
<path d="M78.6139 75.048L76.3782 76.3774L79.5203 78.1297L81.6956 76.8004L78.6139 75.048Z" fill="#50E6FF"/>
<path d="M71.7252 74.5648L69.3687 75.9546L72.1482 77.5861L74.5048 76.1963L71.7252 74.5648Z" fill="#50E6FF"/>
<path d="M86.3476 78.5528L88.4624 77.3443L84.2931 74.9272L82.1782 76.1962L86.3476 78.5528Z" fill="#50E6FF"/>
<path d="M68.4015 69.1265L66.1658 70.4559L68.7641 71.9665L70.9998 70.6372L68.4015 69.1265Z" fill="#50E6FF"/>
<path d="M54.0204 60.8482L51.7847 62.1776L54.6247 63.809L56.8604 62.4797L54.0204 60.8482Z" fill="#50E6FF"/>
<path d="M81.3327 75.6524L83.4475 74.4439L80.7888 72.9332L78.7344 74.1417L81.3327 75.6524Z" fill="#50E6FF"/>
<path d="M50.1532 58.6124L47.9175 59.8814L50.9387 61.6941L53.1745 60.3648L50.1532 58.6124Z" fill="#50E6FF"/>
<path d="M46.7089 56.6185L44.4731 57.9478L47.011 59.398L49.2467 58.0687L46.7089 56.6185Z" fill="#50E6FF"/>
<path d="M64.9577 67.1324L62.7219 68.4618L65.3202 69.9724L67.5559 68.6431L64.9577 67.1324Z" fill="#50E6FF"/>
<path d="M61.3925 65.0779L59.1567 66.4072L61.8154 67.9783L64.0512 66.6489L61.3925 65.0779Z" fill="#50E6FF"/>
<path d="M40.9081 56.7996L36.4971 54.2618L34.2009 55.6516L38.5515 58.1894L40.9081 56.7996Z" fill="#50E6FF"/>
<path d="M57.7064 62.963L55.4707 64.2924L58.2503 65.8634L60.486 64.5945L57.7064 62.963Z" fill="#50E6FF"/>
<path d="M49.3071 57.2227L51.422 56.0142L49.1259 54.6848L47.011 55.8933L49.3071 57.2227Z" fill="#50E6FF"/>
<path d="M77.828 73.6583L79.9429 72.4498L76.9821 70.6975L74.8672 71.9664L77.828 73.6583Z" fill="#50E6FF"/>
<path d="M52.6913 59.1563L54.7458 57.9478L52.2683 56.4976L50.2139 57.7061L52.6913 59.1563Z" fill="#50E6FF"/>
<path d="M56.2562 61.2107L58.3711 60.0022L55.652 58.4312L53.5371 59.6397L56.2562 61.2107Z" fill="#50E6FF"/>
<path d="M44.836 52.2073L42.419 50.8176L40.3645 52.0261L42.7211 53.4159L44.836 52.2073Z" fill="#50E6FF"/>
<path d="M42.298 54.0806L39.5184 52.5096L37.2827 53.7785L40.0623 55.41L42.298 54.0806Z" fill="#50E6FF"/>
<path d="M46.1652 55.4099L48.2801 54.2014L45.6818 52.6907L43.5669 53.8992L46.1652 55.4099Z" fill="#50E6FF"/>
<path d="M73.961 71.4226L76.0758 70.2141L73.7193 68.8847L71.6648 70.0932L73.961 71.4226Z" fill="#50E6FF"/>
<path d="M60.0026 63.386L62.1175 62.1775L59.2171 60.4856L57.1626 61.6941L60.0026 63.386Z" fill="#50E6FF"/>
<path d="M70.7582 69.6098L72.8731 68.3409L70.2748 66.8303L68.1599 68.0992L70.7582 69.6098Z" fill="#50E6FF"/>
<path d="M67.3141 67.5553L69.3686 66.3468L66.7099 64.7758L64.595 66.0447L67.3141 67.5553Z" fill="#50E6FF"/>
<path d="M63.7488 65.5009L65.8033 64.2924L62.9633 62.6609L60.8484 63.8695L63.7488 65.5009Z" fill="#50E6FF"/>
<path d="M43.2041 54.5639L40.908 55.8933L43.6271 57.4039L45.8628 56.135L43.2041 54.5639Z" fill="#50E6FF"/>
<path d="M54.9269 75.894L52.4495 77.3442L55.2894 78.9757L57.7669 77.5255L54.9269 75.894Z" fill="#50E6FF"/>
<path d="M50.9385 73.5979L51.4219 73.9L49.0049 75.3502L51.6032 76.8609L54.0806 75.4107L50.9385 73.5979Z" fill="#50E6FF"/>
<path d="M34.5636 60.5461L30.1526 58.0082L27.8564 59.3376L32.2675 61.8755L34.5636 60.5461Z" fill="#50E6FF"/>
<path d="M27.0709 59.821L24.5935 61.2712L27.2522 62.8422L29.7901 61.392L27.0709 59.821Z" fill="#50E6FF"/>
<path d="M30.6359 61.8755L28.1584 63.3257L30.6963 64.8363L33.1737 63.3257L30.6359 61.8755Z" fill="#50E6FF"/>
<path d="M40.9079 67.7971L38.4304 69.2473L40.9079 70.6975L43.3853 69.2473L40.9079 67.7971Z" fill="#50E6FF"/>
<path d="M37.4039 65.803L34.9265 67.2532L37.5248 68.7639L40.0627 67.3137L37.4039 65.803Z" fill="#50E6FF"/>
<path d="M34.0803 63.8694L31.5425 65.3196L34.0199 66.7698L36.5578 65.2592L34.0803 63.8694Z" fill="#50E6FF"/>
<path d="M82.6015 77.3442L80.3657 78.6132L83.3266 80.3655L85.5623 79.0361L82.6015 77.3442Z" fill="#50E6FF"/>
<path d="M44.2918 69.7307L41.7539 71.1809L44.6543 72.8728L47.1318 71.4226L44.2918 69.7307Z" fill="#50E6FF"/>
<path d="M48.0386 71.9061L45.5007 73.3563L48.099 74.8669L50.6369 73.4167L48.0386 71.9061Z" fill="#50E6FF"/>
<path d="M76.6797 80.1843L80.1843 82.1783L82.5409 80.7885L79.0363 78.7945L76.6797 80.1843Z" fill="#50E6FF"/>
<path d="M68.4019 82.7221L73.8401 85.9247L76.1363 84.5349L70.6376 81.3928L68.4019 82.7221Z" fill="#50E6FF"/>
<path d="M65.5619 82.0574L63.0845 83.5076L65.5015 84.8974L67.9789 83.4472L65.5619 82.0574Z" fill="#50E6FF"/>
<path d="M66.3474 85.3808L70.5772 87.7978L73.0546 86.3476L68.8248 83.9306L66.3474 85.3808Z" fill="#50E6FF"/>
<path d="M39.8205 66.2261L42.1166 64.8967L39.1558 63.2048L36.8596 64.5342L39.8205 66.2261Z" fill="#50E6FF"/>
<path d="M58.6734 78.0089L56.1355 79.5195L58.7338 80.9697L61.2112 79.5195L58.6734 78.0089Z" fill="#50E6FF"/>
<path d="M62.1172 80.003L59.5793 81.5136L62.2381 83.0243L64.7155 81.5136L62.1172 80.003Z" fill="#50E6FF"/>
<path d="M36.0139 64.0507L38.3101 62.7214L35.4097 61.0295L33.1135 62.3588L36.0139 64.0507Z" fill="#50E6FF"/>
<path d="M70.8186 80.5468L76.9216 84.1119L79.399 82.6617L73.2356 79.0966L70.8186 80.5468Z" fill="#50E6FF"/>
<path d="M72.0271 34.3216C71.8459 34.4425 71.5437 34.6237 71.3625 34.7446C71.1208 34.8654 70.8186 35.1071 70.5769 35.2884C70.0935 35.5905 69.6101 35.9531 69.1267 36.3156C68.6433 36.6782 68.1599 37.1012 67.6765 37.4637C67.1931 37.8263 66.7701 38.3097 66.2867 38.7326C65.8638 39.1556 65.4408 39.5786 65.0178 40.062C64.8365 40.2433 64.5948 40.485 64.4136 40.7267C64.2323 40.908 63.9906 41.2101 63.8093 41.4518C63.6885 41.6331 63.4468 41.8748 63.3259 42.056C63.1446 42.2977 62.9634 42.5394 62.7821 42.7811C62.6612 42.9624 62.48 43.2041 62.3591 43.3854C62.2383 43.6271 62.057 43.8688 61.9361 44.1105C61.8757 44.2313 61.7549 44.473 61.6944 44.5939C61.634 44.7147 61.5131 44.9564 61.4527 45.0773C61.3923 45.1981 61.3319 45.3794 61.2715 45.5003C61.211 45.6815 61.0902 45.9232 61.0297 46.1649C61.0297 46.2858 60.9693 46.4066 60.9089 46.5275C60.8485 46.7088 60.8485 46.8901 60.8485 47.0713C60.8485 47.1922 60.8485 47.3735 60.8485 47.5547C60.8485 47.6152 60.8485 47.736 60.9089 47.7964C60.9693 47.9173 60.9693 48.0381 61.0297 48.159C61.0902 48.2194 61.1506 48.3403 61.211 48.4007C61.3923 48.582 61.211 49.0049 60.8485 49.3071C60.0629 48.4007 60.3046 46.7088 61.5736 44.4126C64.1719 39.8807 70.0935 34.7446 74.8067 32.9318C74.6859 33.1131 74.6254 33.1735 74.5046 33.2339C74.2025 33.3548 73.719 33.5361 73.4169 33.7174C73.2356 33.8382 72.9335 33.9591 72.7522 34.0799C72.571 34.0195 72.2688 34.1403 72.0271 34.3216Z" fill="#185A97"/>
<path d="M61.2713 48.2798C60.5462 47.4339 60.7274 45.8628 61.9964 43.6875C64.4134 39.4577 69.9121 34.6842 74.3231 32.9922C74.3835 33.0527 74.5044 33.1131 74.6252 33.0527C74.3231 33.1735 73.8397 33.3548 73.5376 33.5361C73.2959 33.6569 72.9938 33.7778 72.8125 33.8986C72.6312 34.0195 72.3291 34.1403 72.0874 34.2612C71.8457 34.382 71.5436 34.5633 71.3019 34.7446C71.1206 34.8654 70.8185 35.0467 70.6372 35.1676C70.1538 35.4697 69.6704 35.8322 69.187 36.1948C68.7036 36.5573 68.2202 36.9803 67.7368 37.3429C67.2534 37.7054 66.8304 38.1888 66.347 38.6118C65.924 39.0348 65.501 39.4577 65.0781 39.9411C64.8968 40.1224 64.6551 40.4246 64.4738 40.6058C64.2925 40.7871 64.1113 41.0288 63.93 41.2705C63.7487 41.5122 63.507 41.7539 63.3862 41.9956C63.2653 42.1769 63.084 42.4186 62.9632 42.5999C62.8423 42.8416 62.6006 43.0833 62.4798 43.325C62.3589 43.5062 62.2381 43.7479 62.1172 43.9292C62.0568 44.1105 61.936 44.2918 61.8151 44.4126C61.7547 44.5335 61.6338 44.7147 61.5734 44.896C61.513 45.0773 61.3921 45.3794 61.2713 45.5607C61.2108 45.6815 61.2108 45.8628 61.1504 45.9232C61.09 46.1045 61.0296 46.3462 61.0296 46.5275C61.0296 46.6483 61.0296 46.7692 60.9691 46.8296C60.9691 46.8901 60.9691 47.0109 60.9691 47.1318C60.9691 47.2526 60.9691 47.4339 61.0296 47.5547C61.0296 47.6756 61.09 47.7964 61.1504 47.8569C61.1504 48.0381 61.2108 48.159 61.2713 48.2798Z" fill="#185A97"/>
<path d="M78.6137 33.0527C78.5533 32.9923 78.5532 32.9923 78.4928 32.9318C78.4324 32.8714 78.372 32.8714 78.372 32.811C78.3115 32.811 78.2511 32.7506 78.1907 32.6901C78.1303 32.6297 78.0094 32.6297 77.8886 32.5693C77.8281 32.5693 77.7073 32.5089 77.6469 32.5089C77.526 32.5089 77.2843 32.4484 77.1635 32.4484C77.103 32.4484 76.9822 32.4484 76.8613 32.4484C76.6801 32.4484 76.4384 32.5089 76.2571 32.5089C76.0154 32.5693 75.6528 32.6297 75.3507 32.7506C75.109 32.811 74.8069 32.9318 74.5652 32.9923C74.686 32.9318 74.8069 32.811 74.8673 32.6901C77.1635 31.7837 78.795 31.9046 79.5201 32.7506C79.2179 33.1131 78.795 33.234 78.6137 33.0527Z" fill="#185A97"/>
<path d="M77.1633 32.5088C76.9821 32.5088 76.7404 32.5088 76.5591 32.5692C76.4382 32.5692 76.3174 32.6296 76.1965 32.6296C76.0153 32.69 75.7131 32.7505 75.5319 32.8109C75.2297 32.8713 74.8068 33.0526 74.5651 33.113C74.4442 33.1734 74.3234 33.113 74.2629 33.0526C76.4382 32.2066 77.8885 32.3275 78.5531 33.113C78.4927 33.0526 78.4927 33.0526 78.4323 32.9922C78.3719 32.9317 78.3719 32.9317 78.3114 32.8713C78.251 32.8109 78.1302 32.7505 78.0697 32.7505C78.0093 32.7505 77.9489 32.69 77.8884 32.69C77.7676 32.6296 77.5863 32.6296 77.4051 32.5692C77.4051 32.5088 77.2842 32.5088 77.1633 32.5088Z" fill="#185A97"/>
<path d="M77.8882 31.1192C78.009 31.1192 78.1299 31.1192 78.2507 31.1192C78.432 31.1192 78.6737 31.1796 78.855 31.2401C78.9154 31.2401 79.0363 31.3005 79.0967 31.3609C79.2175 31.4213 79.3384 31.4818 79.4592 31.5422C79.5197 31.6026 79.5801 31.663 79.6405 31.7235C79.701 31.7839 79.7614 31.8443 79.8218 31.9047C79.8822 32.0256 80.0031 32.2069 80.1239 32.3277C80.1844 32.509 80.2448 32.6298 80.3052 32.8715C80.3656 33.0528 80.3656 33.2945 80.3656 33.4758C80.3656 33.5966 80.3656 33.7779 80.3656 33.8988C80.3656 34.0196 80.3656 34.2009 80.3052 34.3217C80.2448 34.5634 80.1844 34.8051 80.1239 35.0468C80.0635 35.1677 80.0031 35.4094 79.9427 35.5302C79.8218 35.7719 79.7009 36.1345 79.5801 36.3762C79.5197 36.5575 79.3988 36.7387 79.3384 36.92C79.2176 37.1013 79.0967 37.343 79.0363 37.5243C78.9154 37.7055 78.7341 38.0077 78.6133 38.189C78.432 38.4307 78.2507 38.7328 78.0695 39.0349C77.9486 39.2162 77.7069 39.5183 77.5861 39.6996C77.4048 39.9413 77.1631 40.2434 76.9214 40.4851C76.7401 40.7268 76.4984 40.9685 76.3171 41.2102C76.1359 41.4519 75.8337 41.754 75.6525 41.9957C75.2295 42.4791 74.7461 42.9625 74.2627 43.4459C73.7793 43.9293 73.2959 44.3523 72.752 44.7753C72.2686 45.1983 71.7248 45.6213 71.181 46.0442C70.6372 46.4672 70.0933 46.8298 69.6099 47.1923C69.3682 47.3132 69.0661 47.5549 68.8848 47.6757C68.6431 47.857 68.2806 48.0383 67.9785 48.2195C67.7368 48.3404 67.4346 48.5217 67.1929 48.6425C66.9512 48.7634 66.5887 48.9446 66.347 49.0655C65.9844 49.2468 65.4406 49.428 65.078 49.6093C64.7155 49.7302 64.2321 49.9114 63.8695 50.0323C63.5674 50.0927 63.1444 50.2136 62.8423 50.274C62.7215 50.274 62.5402 50.3344 62.4193 50.3344C62.1776 50.3344 61.8755 50.3344 61.6942 50.3344C61.5734 50.3344 61.4525 50.3344 61.3921 50.274C61.2713 50.274 61.0296 50.2136 60.9087 50.1531C60.8483 50.1531 60.7274 50.0927 60.667 50.0323C60.5462 49.9719 60.3649 49.9114 60.3045 49.851C60.244 49.7906 60.1836 49.7906 60.1232 49.7302C60.0628 49.6697 59.9419 49.6093 59.8815 49.4885C59.7606 49.3676 59.6398 49.1863 59.5793 49.0655C59.5189 48.9446 59.4585 48.7634 59.3981 48.5821C59.3377 48.4008 59.3376 48.1591 59.3376 47.9778C59.3376 47.857 59.3376 47.6757 59.3376 47.5549C59.3376 47.434 59.3377 47.2527 59.3981 47.1319C59.4585 46.8902 59.5189 46.6485 59.5793 46.4068C59.6398 46.2859 59.7002 46.0442 59.7606 45.9234C59.8815 45.6817 60.0023 45.3191 60.1232 45.0774C60.1836 44.8962 60.3045 44.7149 60.3649 44.5336C60.4857 44.3523 60.6066 44.1106 60.667 43.9293C60.7879 43.7481 60.9691 43.4459 61.09 43.2647C61.2713 43.023 61.4525 42.6604 61.6338 42.4187C61.7547 42.2374 61.9964 41.9353 62.1172 41.754C62.2985 41.5123 62.5402 41.2102 62.7819 40.9081C62.9632 40.6664 63.2049 40.4247 63.3861 40.183C63.5674 39.9413 63.8695 39.6392 64.0508 39.3975C64.4738 38.9141 64.9572 38.4307 65.4406 37.9473C65.924 37.4638 66.4074 37.0409 66.9512 36.6179C67.4346 36.1949 67.9785 35.7719 68.5223 35.349C69.0661 34.926 69.6099 34.5634 70.0933 34.2009C70.335 34.08 70.6372 33.8383 70.8184 33.7175C71.0601 33.5362 71.4227 33.3549 71.7248 33.1737C71.9665 33.0528 72.2686 32.8715 72.5103 32.7507C72.752 32.6298 73.1146 32.4486 73.3563 32.3277C73.7189 32.1464 74.2627 31.9652 74.6252 31.7839C74.7461 31.7235 74.8669 31.7839 74.9274 31.8443C75.1086 32.0256 75.0482 32.4486 74.8669 32.7507C70.1538 34.5634 64.2321 39.6996 61.6338 44.2315C60.3045 46.5276 60.1232 48.28 60.9087 49.1259C61.6338 49.9719 63.2049 50.0323 65.5614 49.1863C70.2746 47.3736 76.1963 42.2374 78.7946 37.7056C80.1239 35.4094 80.3052 33.6571 79.5197 32.8111C78.7946 31.9652 77.2235 31.9047 74.8669 32.7507C75.0482 32.4486 75.0482 32.0256 74.9274 31.8443C74.8669 31.7839 74.7461 31.7235 74.6252 31.7839C74.9878 31.663 75.4712 31.4818 75.8337 31.4213C76.0754 31.3609 76.438 31.3005 76.6797 31.2401C76.8005 31.2401 76.9818 31.1796 77.1027 31.1796C77.3444 31.1192 77.6465 31.1192 77.8882 31.1192Z" fill="#185A97"/>
<path d="M61.9967 43.6875C60.7882 45.8628 60.6069 47.4338 61.2716 48.2798C61.0903 48.0985 60.6673 48.2194 60.3048 48.5215C59.5192 47.6151 59.7609 45.9232 61.0299 43.627C63.6282 39.0951 69.5498 33.959 74.263 32.1462C74.0817 32.4484 74.0817 32.8713 74.2026 33.0526C69.9124 34.6841 64.4137 39.4577 61.9967 43.6875Z" fill="#185A97"/>
<path d="M78.9756 32.1463C78.613 32.4484 78.4318 32.8714 78.613 33.0527C77.9484 32.2672 76.4377 32.2067 74.3228 32.9923C74.1416 32.811 74.202 32.388 74.3833 32.0859C76.619 31.2399 78.2505 31.3004 78.9756 32.1463Z" fill="#185A97"/>
<path d="M65.6216 48.2798C70.0327 46.5879 75.5314 41.8143 77.9484 37.5845C79.1569 35.4092 79.3381 33.8381 78.6735 32.9922C78.8547 33.1735 79.2777 33.0526 79.6403 32.7505C80.4258 33.6569 80.1841 35.3488 78.9152 37.6449C76.3169 42.1768 70.3952 47.313 65.682 49.1257C63.3859 50.0321 61.7544 49.9113 61.0293 49.0653C61.3918 48.7632 61.5731 48.3402 61.3918 48.1589C61.9357 49.0653 63.4463 49.1257 65.6216 48.2798Z" fill="#185A97"/>
<path d="M65.622 48.2799C63.4467 49.1258 61.9965 49.005 61.3318 48.2195C61.3318 48.2195 61.3922 48.2799 61.4526 48.3403C61.5131 48.4007 61.5735 48.4007 61.5735 48.4612C61.6339 48.4612 61.6943 48.5216 61.7548 48.582C61.8152 48.6424 61.936 48.6424 62.0569 48.7029C62.1173 48.7029 62.1777 48.7633 62.2382 48.7633C62.359 48.7633 62.4799 48.8237 62.6007 48.8237C62.6611 48.8237 62.782 48.8237 62.9028 48.8237C63.0841 48.8237 63.3258 48.8237 63.5071 48.7633C63.8092 48.7029 64.1718 48.6424 64.4135 48.582C64.7156 48.5216 65.0781 48.3403 65.3803 48.2799C65.6824 48.159 66.1658 47.9778 66.4679 47.7965C66.6492 47.6756 66.9513 47.5548 67.1326 47.4339C67.3743 47.3131 67.6764 47.1318 67.8577 47.011C68.039 46.8901 68.3411 46.7088 68.5224 46.588C68.7641 46.4671 69.0662 46.2254 69.3079 46.0442C69.7913 45.742 70.2747 45.3795 70.7581 44.9565C71.2415 44.5335 71.7249 44.171 72.2083 43.8084C72.6917 43.3855 73.1147 42.9625 73.5981 42.5395C74.0211 42.1165 74.5045 41.6935 74.867 41.2101C75.0483 41.0289 75.29 40.7872 75.4713 40.5455C75.6526 40.3642 75.8943 40.0621 76.0755 39.8204C76.1964 39.6391 76.4381 39.3974 76.5589 39.2161C76.7402 38.9744 76.9215 38.7327 77.1028 38.491C77.2236 38.3097 77.4049 38.068 77.5257 37.8868C77.6466 37.6451 77.8279 37.4034 77.9487 37.1617C78.0091 37.0408 78.13 36.7991 78.1904 36.6783C78.2508 36.5574 78.3717 36.3157 78.4321 36.1948C78.4926 36.074 78.553 35.8927 78.6134 35.7719C78.6738 35.5906 78.7947 35.3489 78.8551 35.1072C78.8551 34.9863 78.9155 34.8655 78.976 34.7446C79.0364 34.5634 79.0364 34.3821 79.0364 34.2008C79.0364 34.08 79.0364 33.8987 79.0364 33.7174C79.0364 33.657 79.0364 33.5361 78.976 33.4757C78.976 33.3549 78.9155 33.234 78.8551 33.1132C78.7947 32.9923 78.7342 32.9319 78.6738 32.811C79.3989 33.657 79.2177 35.228 77.9487 37.4034C75.5317 41.8748 69.9726 46.6484 65.622 48.2799Z" fill="#185A97"/>
<path d="M78.9155 33.6569C78.9155 33.5965 78.8551 33.5361 78.8551 33.4757C78.8551 33.4152 78.7947 33.3548 78.7947 33.2944C78.7343 33.234 78.6738 33.1131 78.6134 32.9923C78.4321 32.811 78.6134 32.388 78.976 32.0859C79.7615 32.9923 79.5198 34.6842 78.2509 36.9803C75.6526 41.5122 69.7309 46.6484 65.0177 48.4611C62.7216 49.3675 61.0901 49.2466 60.365 48.4007C60.7275 48.0986 61.1505 47.9777 61.3318 48.159C61.3922 48.2194 61.3922 48.2798 61.4526 48.2798C61.4526 48.2798 61.5131 48.3403 61.5735 48.3403C61.6339 48.4007 61.7548 48.4611 61.8152 48.4611C61.8756 48.4611 61.936 48.5215 61.9965 48.5215C62.1173 48.5215 62.2382 48.582 62.2986 48.582C62.359 48.582 62.4799 48.582 62.5403 48.582C62.7216 48.582 62.9028 48.582 63.0841 48.582C63.205 48.582 63.3258 48.582 63.3863 48.5215C63.628 48.4611 63.9905 48.4007 64.2322 48.3403C64.5343 48.2798 64.9573 48.0986 65.2594 47.9777C65.5616 47.8569 66.045 47.6756 66.3471 47.4943C66.5888 47.3735 66.8909 47.2526 67.0722 47.1318C67.2535 47.0109 67.5556 46.8901 67.7973 46.7692C68.039 46.6484 68.3411 46.4671 68.5828 46.2858C68.7641 46.165 69.0662 45.9837 69.2475 45.8628C69.7309 45.5607 70.2143 45.1982 70.6977 44.7752C71.1811 44.3522 71.6645 43.9896 72.1479 43.6271C72.6313 43.2041 73.0543 42.7811 73.5377 42.3582C73.9607 41.9352 74.4441 41.5122 74.8066 41.0288C74.9879 40.8475 75.2296 40.5454 75.4109 40.3641C75.5921 40.1829 75.7734 39.9412 75.9547 39.6995C76.136 39.4578 76.3777 39.2161 76.4985 38.9744C76.6194 38.7931 76.8007 38.5514 76.9215 38.3701C77.0424 38.1284 77.2841 37.8867 77.4049 37.645C77.5258 37.4637 77.6466 37.222 77.7675 37.0407C77.8279 36.8595 77.9487 36.6782 78.0696 36.5573C78.13 36.4365 78.2509 36.2552 78.3113 36.0739C78.3717 35.8927 78.4926 35.5905 78.6134 35.4093C78.6738 35.2884 78.6738 35.1071 78.7343 35.0467C78.7947 34.8654 78.8551 34.6237 78.8551 34.4425C78.8551 34.3216 78.8551 34.2008 78.9155 34.1403C78.9155 34.0799 78.9155 33.9591 78.9155 33.8382C78.976 33.9591 78.9155 33.7778 78.9155 33.6569Z" fill="#185A97"/>
<path d="M78.9765 32.1462C78.2513 31.3003 76.6803 31.2399 74.3237 32.0858C74.4446 31.9045 74.505 31.8441 74.6258 31.7837C74.928 31.6628 75.2905 31.542 75.5322 31.4816C75.8948 31.3607 76.3177 31.3003 76.6199 31.2399C76.8616 31.1794 77.2241 31.1794 77.4658 31.119C77.5867 31.119 77.7679 31.119 77.8888 31.119C78.0701 31.119 78.3722 31.1794 78.5535 31.1794C78.6743 31.1794 78.7952 31.2399 78.8556 31.2399C78.9765 31.3003 79.1577 31.3607 79.2786 31.4211C79.339 31.4816 79.4599 31.542 79.5203 31.542C79.5807 31.6024 79.6411 31.6628 79.7016 31.7233C79.762 31.7837 79.8224 31.8441 79.8828 31.9045C79.9433 31.965 80.0037 32.0254 80.0641 32.1462C80.1245 32.2067 80.1245 32.3275 80.185 32.3879C80.2454 32.5088 80.3058 32.7505 80.3662 32.8714C80.3662 32.9922 80.4267 33.1131 80.4267 33.2339C80.4267 33.4152 80.4267 33.6569 80.4267 33.8986C80.4267 34.0799 80.3662 34.382 80.3058 34.5633C80.3058 34.6841 80.2454 34.8654 80.185 35.0467C80.1245 35.2884 80.0037 35.5905 79.9433 35.8322C79.8828 36.0135 79.762 36.1947 79.7016 36.376C79.6411 36.5573 79.5203 36.799 79.3994 36.9803C79.339 37.1615 79.1577 37.4032 79.0973 37.5845C78.9764 37.8262 78.7348 38.1283 78.6139 38.37C78.4931 38.5513 78.3118 38.8534 78.1305 39.0347C77.9492 39.2764 77.7075 39.5786 77.5263 39.8807C77.345 40.062 77.1637 40.3641 76.9824 40.5454C76.8011 40.7871 76.5594 41.0892 76.3177 41.3309C76.1365 41.5726 75.8948 41.8143 75.7135 42.056C75.2905 42.5394 74.8071 43.0228 74.3237 43.5062C73.8403 43.9896 73.3569 44.4126 72.8131 44.8355C72.3297 45.2585 71.7859 45.6815 71.242 46.1045C70.6982 46.5275 70.1544 46.89 69.671 47.2526C69.4293 47.4338 69.0667 47.6755 68.7646 47.7964C68.5229 47.9172 68.2208 48.0985 68.0395 48.2194C67.7978 48.3402 67.4352 48.5215 67.1935 48.7028C66.9518 48.8236 66.6497 48.9445 66.408 49.0653C66.0455 49.2466 65.5016 49.4279 65.1391 49.6091C64.7765 49.73 64.3535 49.9113 63.991 49.9717C63.6284 50.0925 63.2055 50.153 62.9033 50.2134C62.6616 50.2134 62.3595 50.2738 62.1178 50.2738C61.997 50.2738 61.8761 50.2738 61.7553 50.2738C61.574 50.2738 61.3927 50.2134 61.2719 50.2134C61.151 50.2134 61.0906 50.153 60.9697 50.153C60.8489 50.0925 60.6676 50.0321 60.5468 49.9717C60.4863 49.9113 60.3655 49.8508 60.3051 49.8508C60.2446 49.7904 60.1238 49.73 60.0634 49.6696C60.0029 49.6091 59.9425 49.5487 59.8821 49.4883C59.8217 49.3674 59.7008 49.2466 59.6404 49.1257C59.58 49.0049 59.5195 48.7632 59.4591 48.5819C59.4591 48.4611 59.3987 48.3402 59.3987 48.2194C59.3987 48.0381 59.3987 47.7964 59.3987 47.5547C59.3987 47.3734 59.4591 47.0713 59.5195 46.89C59.5195 46.7692 59.58 46.5879 59.6404 46.4066C59.7008 46.1649 59.8217 45.8628 59.8821 45.6211C59.9425 45.4398 60.0634 45.2585 60.1238 45.0772C60.1842 44.896 60.3051 44.6543 60.4259 44.473C60.4863 44.2917 60.6676 44.05 60.728 43.8687C60.8489 43.627 61.0906 43.3249 61.2114 43.0832C61.3323 42.9019 61.5136 42.5998 61.6948 42.4185C61.8761 42.1768 62.1178 41.8143 62.2991 41.5726C62.4804 41.3913 62.6616 41.0892 62.8429 40.9079C63.0242 40.6662 63.2659 40.3641 63.5076 40.1224C63.6889 39.8807 63.9306 39.639 64.1118 39.3973C64.5348 38.9139 65.0182 38.4305 65.5016 37.9471C65.985 37.4637 66.4684 37.0407 67.0123 36.6177C67.4957 36.1947 68.0395 35.7718 68.5833 35.3488C69.1271 34.9258 69.671 34.5633 70.1544 34.2007C70.3961 34.0194 70.7586 33.7777 71.0607 33.6569C71.3024 33.536 71.6046 33.3548 71.7859 33.2339C72.0276 33.1131 72.3901 32.9318 72.6318 32.7505C72.8735 32.6296 73.1756 32.5088 73.4173 32.3879C73.7799 32.2067 74.3237 32.0254 74.6863 31.8441C74.5654 31.9045 74.4446 32.0254 74.3841 32.1462C69.671 33.959 63.7493 39.0951 61.151 43.627C59.8217 45.9232 59.6404 47.6755 60.4259 48.5215C61.151 49.3674 62.7221 49.4279 65.0786 48.5819C69.7918 46.7692 75.7135 41.633 78.3118 37.1011C79.5203 34.7445 79.7016 33.0526 78.9765 32.1462ZM72.8131 44.6543L72.9944 44.473L73.1756 44.2917L73.3569 44.1104L73.5382 43.9292L73.7195 43.7479L73.9007 43.5666L74.082 43.3853L74.2633 43.2041L74.4446 43.0228L74.5654 42.8415L74.6863 42.6602L74.8071 42.5394L74.928 42.4185L74.9884 42.2977L75.0488 42.1768V42.056V41.9956V41.9351V41.8747V41.8143H74.9884H74.928H74.8675L74.7467 41.8747L74.6258 41.9351L74.4446 42.056L74.3237 42.2977L74.082 42.479L73.8403 42.7207L73.5382 42.9624L73.4778 43.0228L73.4173 43.0832L73.3569 43.1436L73.2965 43.2041L73.2361 43.2645L73.1756 43.3249L73.1152 43.3853L73.0548 43.4458L72.9944 43.5062L72.9339 43.5666L72.8735 43.627L72.8131 43.6875L72.6922 43.7479L72.5714 43.8687L72.4505 43.9896L72.2693 44.1104L72.1484 44.2313L72.0276 44.3521L71.9067 44.473L71.7254 44.5938L71.5442 44.7751L71.3629 44.9564L71.1816 45.1377L71.0003 45.3189L70.819 45.5002L70.6982 45.6211L70.5773 45.7419L70.4565 45.8628L70.3961 45.9836L70.3356 46.1045V46.2253V46.2857L70.3961 46.3462H70.4565H70.5773L70.6982 46.2857L70.8795 46.2253L71.0607 46.1045L71.242 45.9836L71.4233 45.8628L71.6046 45.7419L71.7859 45.6211L71.9671 45.5002L72.1484 45.3794L72.3297 45.2585L72.511 45.1377L72.6922 45.0168L72.8131 44.6543Z" fill="#243A5E"/>
<path d="M70.0932 48.3403C74.4649 48.3403 78.0089 44.7963 78.0089 40.4246C78.0089 36.0528 74.4649 32.5089 70.0932 32.5089C65.7215 32.5089 62.1775 36.0528 62.1775 40.4246C62.1775 44.7963 65.7215 48.3403 70.0932 48.3403Z"/>
<path d="M74.5641 33.0526C74.3828 33.113 74.2015 33.2338 74.0203 33.2943C74.2015 33.2338 74.4432 33.113 74.5641 33.0526Z" fill="#185A97"/>
<path d="M61.0896 47.9776C61.0292 47.8568 61.0292 47.7359 60.9688 47.6151C61.0292 47.7359 61.0292 47.8568 61.0896 47.9776Z" fill="#185A97"/>
<path d="M60.9688 46.9504C60.9688 46.8295 61.0292 46.6483 61.0292 46.5274C61.0292 46.5878 61.0292 46.5878 61.0292 46.6483C60.9687 46.7087 60.9688 46.8295 60.9688 46.9504Z" fill="#185A97"/>
<path d="M62.2375 43.627C62.298 43.5061 62.3584 43.4457 62.4188 43.3248C62.4188 43.3248 62.4188 43.3853 62.3584 43.3853C62.3584 43.4457 62.298 43.5061 62.2375 43.627Z" fill="#185A97"/>
<path d="M61.1501 46.044C61.2106 45.9232 61.271 45.6815 61.3314 45.5606C61.3314 45.621 61.271 45.621 61.271 45.6815C61.2106 45.7419 61.1501 45.9232 61.1501 46.044Z" fill="#185A97"/>
<path d="M61.9961 43.9896C61.9357 44.1104 61.8148 44.2917 61.7544 44.473C61.8752 44.2917 61.9357 44.1104 61.9961 43.9896Z" fill="#185A97"/>
<path d="M62.4189 43.3248C62.4794 43.2039 62.5398 43.1435 62.6002 43.0226C62.5398 43.0831 62.4794 43.2039 62.4189 43.3248C62.4189 43.2643 62.4189 43.3248 62.4189 43.3248Z" fill="#185A97"/>
<path d="M60.9686 47.615C60.9686 47.4941 60.9082 47.3733 60.9082 47.2524C60.9082 47.3129 60.9082 47.3129 60.9082 47.3129C60.9686 47.4337 60.9686 47.5546 60.9686 47.615Z" fill="#185A97"/>
<path d="M61.0896 47.9777C61.15 48.0381 61.2105 48.1589 61.2709 48.2194C61.2105 48.1589 61.15 48.0985 61.0896 47.9777Z" fill="#185A97"/>
<path d="M61.0291 46.4669C61.0895 46.2856 61.0895 46.1043 61.1499 45.9835C61.1499 46.1043 61.0895 46.2252 61.0291 46.346C61.0291 46.4064 61.0291 46.4669 61.0291 46.4669Z" fill="#185A97"/>
<path d="M61.2708 45.5001C61.3312 45.3189 61.452 45.1376 61.5125 44.9563C61.452 45.0771 61.3916 45.2584 61.3312 45.3793C61.3312 45.4397 61.3312 45.4397 61.2708 45.5001Z" fill="#185A97"/>
<path d="M62.2376 43.627C62.1771 43.7478 62.0563 43.8687 61.9958 43.9895C62.1167 43.8687 62.1771 43.7478 62.2376 43.627Z" fill="#185A97"/>
<path d="M61.7545 44.5333C61.6941 44.6542 61.5732 44.8355 61.5732 44.9563C61.5732 44.8355 61.6941 44.6542 61.7545 44.5333Z" fill="#185A97"/>
<path d="M73.7788 33.4151C73.8392 33.3547 73.9601 33.3547 74.0205 33.2943C73.8997 33.3547 73.8392 33.4151 73.7788 33.4151Z" fill="#185A97"/>
<path d="M74.0208 33.2943C74.202 33.2339 74.4437 33.113 74.5646 33.0526C74.4437 33.113 74.3229 33.0526 74.2625 32.9922C74.0208 33.113 73.7791 33.1735 73.5374 33.2943C73.5978 33.2943 73.6582 33.3547 73.7186 33.3547C73.8395 33.4152 73.8999 33.3547 74.0208 33.2943Z" fill="#185A97"/>
<path d="M61.0894 47.9776C61.029 47.8568 60.9686 47.7359 60.9686 47.6151C60.9686 47.5547 60.9082 47.4338 60.9082 47.3734V47.313C60.9082 47.2525 60.9082 47.2525 60.9082 47.1921C60.9082 47.1317 60.9082 47.0108 60.9082 46.89C60.9082 46.7691 60.9082 46.6483 60.9686 46.5879C60.9686 46.5274 60.9686 46.5274 60.9686 46.467C60.9686 46.4066 60.9686 46.4066 60.9686 46.3462C60.9686 46.2253 61.029 46.1045 61.0894 45.9836C61.1498 45.8628 61.1499 45.7419 61.2103 45.6211C61.2103 45.5606 61.2707 45.5606 61.2707 45.5002C61.2707 45.4398 61.3311 45.4398 61.3311 45.3793C61.3916 45.2585 61.452 45.0772 61.5124 44.9564C61.5728 44.8355 61.6333 44.6542 61.6937 44.5334C61.6937 44.5334 61.6937 44.5334 61.6937 44.473C61.7541 44.3521 61.875 44.1708 61.9354 43.9896C61.9958 43.8687 62.0562 43.7479 62.1771 43.627C62.2375 43.5666 62.2979 43.4457 62.2979 43.3853C62.2979 43.3853 62.2979 43.3249 62.3584 43.3249C62.3584 43.3249 62.3584 43.2645 62.4188 43.2645C62.4792 43.204 62.5396 43.0832 62.6001 43.0228C62.6001 42.9623 62.5396 42.9019 62.5396 42.8415C62.2375 43.2645 61.9958 43.6874 61.6937 44.1104C60.6664 46.044 60.606 47.4942 61.2103 48.2193C61.2103 48.1589 61.1498 48.0985 61.0894 47.9776Z" fill="#185A97"/>
<path d="M75.4707 32.7504C75.7124 32.69 76.0145 32.6296 76.2562 32.5692C76.075 32.6296 75.7728 32.69 75.5916 32.7504C75.5311 32.7504 75.5311 32.7504 75.4707 32.7504Z" fill="#185A97"/>
<path d="M76.2563 32.5691C76.4376 32.5691 76.6189 32.5087 76.8002 32.5087C76.7398 32.5087 76.6793 32.5087 76.6189 32.5087C76.4981 32.5691 76.3772 32.5691 76.2563 32.5691Z" fill="#185A97"/>
<path d="M77.9482 32.6296C78.0087 32.6296 78.1295 32.69 78.1899 32.7504H78.1295C78.0691 32.69 77.9482 32.6296 77.9482 32.6296Z" fill="#185A97"/>
<path d="M77.1628 32.5087C77.2837 32.5087 77.4045 32.5087 77.5254 32.5691C77.465 32.5691 77.465 32.5691 77.4045 32.5691C77.4045 32.5087 77.2837 32.5087 77.1628 32.5087Z" fill="#185A97"/>
<path d="M77.5857 32.5692C77.7065 32.5692 77.8274 32.6296 77.9482 32.6296C77.8878 32.6296 77.767 32.5692 77.7066 32.5692C77.6461 32.5692 77.5857 32.5692 77.5857 32.5692Z" fill="#185A97"/>
<path d="M75.35 32.8108C75.1083 32.8712 74.8062 32.9921 74.5645 33.0525C74.8062 32.9316 75.1687 32.8712 75.4708 32.7504C75.4104 32.8108 75.4104 32.8108 75.35 32.8108Z" fill="#185A97"/>
<path d="M78.1294 32.69C78.1898 32.7504 78.2502 32.7504 78.3107 32.8109C78.3107 32.8109 78.2502 32.7504 78.1294 32.69C78.1898 32.7504 78.1898 32.7504 78.1294 32.69Z" fill="#185A97"/>
<path d="M78.4319 32.8717L78.3711 32.8109C78.3711 32.8717 78.4319 32.8717 78.4319 32.8717Z" fill="#185A97"/>
<path d="M74.5643 33.0525C74.6852 32.9921 74.7456 32.9316 74.8665 32.7504C74.6852 32.8108 74.5039 32.8712 74.3226 32.9316C74.3226 32.9316 74.2622 32.9316 74.2622 32.9921C74.3831 33.1129 74.5039 33.1129 74.5643 33.0525Z" fill="#185A97"/>
<path d="M75.4706 32.7505C75.531 32.7505 75.531 32.7505 75.5914 32.69C75.7727 32.6296 76.0748 32.5692 76.2561 32.5088C76.377 32.5088 76.4978 32.4483 76.6187 32.4483C76.6791 32.4483 76.7395 32.4483 76.7999 32.4483C76.8604 32.4483 76.8604 32.4483 76.9208 32.4483C76.9812 32.4483 77.0416 32.4483 77.1021 32.4483C77.1625 32.4483 77.1625 32.4483 77.2229 32.4483C77.2833 32.4483 77.4042 32.4483 77.525 32.4483C77.5855 32.4483 77.5855 32.4483 77.6459 32.4483C77.7063 32.4483 77.7063 32.4483 77.7667 32.4483C77.8272 32.4483 77.948 32.5088 78.0085 32.5088C78.0689 32.5088 78.1293 32.5692 78.1897 32.5692H78.2501H78.3106C78.371 32.5692 78.4314 32.6296 78.4918 32.69L78.5523 32.7505C78.5523 32.7505 78.5523 32.7505 78.6127 32.7505C77.948 32.1462 76.7395 32.0858 74.9872 32.6296C74.9268 32.7505 74.8059 32.8713 74.6851 32.9317C74.9268 32.8713 75.2289 32.7505 75.4706 32.69C75.4102 32.8109 75.4102 32.8109 75.4706 32.7505Z" fill="#185A97"/>
<path d="M72.5701 32.7504C72.5096 32.7504 72.5096 32.8108 72.4492 32.8108C72.5096 32.8108 72.5096 32.7504 72.5701 32.7504Z" fill="#185A97"/>
<path d="M76.4375 41.1495C76.4979 41.0891 76.4979 41.0891 76.5583 41.0287C76.4979 41.0891 76.4979 41.1495 76.4375 41.1495C76.4375 41.21 76.4375 41.21 76.4375 41.1495Z" fill="#185A97"/>
<path d="M72.7515 32.6296C72.9327 32.5087 73.1744 32.3879 73.3557 32.3275C73.1744 32.3879 72.9932 32.5087 72.7515 32.6296Z" fill="#185A97"/>
<path d="M61.4521 42.781C61.573 42.6602 61.6334 42.4789 61.6939 42.358C61.6334 42.4789 61.5126 42.5997 61.4521 42.781Z" fill="#185A97"/>
<path d="M77.3439 40.0619C77.223 40.1827 77.1022 40.364 77.0417 40.4849C77.1626 40.364 77.2834 40.1827 77.3439 40.0619Z" fill="#185A97"/>
<path d="M62.6002 50.2134C62.7211 50.2134 62.9023 50.153 63.0232 50.153C62.8419 50.153 62.6002 50.2134 62.4189 50.2134C62.4794 50.2134 62.5398 50.2134 62.6002 50.2134Z" fill="#185A97"/>
<path d="M69.0052 47.6151C69.1261 47.5546 69.1865 47.4942 69.3074 47.4338C69.1865 47.4942 69.0657 47.6151 68.9448 47.6755C68.9448 47.6151 69.0052 47.6151 69.0052 47.6151Z" fill="#185A97"/>
<path d="M79.1567 31.3607C79.0963 31.3002 78.9755 31.3002 78.915 31.2398C79.0359 31.3002 79.1567 31.3002 79.2776 31.3607C79.2172 31.3607 79.1567 31.3607 79.1567 31.3607Z" fill="#185A97"/>
<path d="M67.3734 48.5819C67.4339 48.5819 67.4339 48.5215 67.4943 48.5215C67.4339 48.5215 67.3734 48.5819 67.3734 48.5819C67.313 48.5819 67.313 48.5819 67.3734 48.5819Z" fill="#185A97"/>
<path d="M67.1318 48.6423C66.9506 48.7632 66.7089 48.884 66.5276 48.9445C66.7089 48.884 66.9506 48.7632 67.1318 48.6423Z" fill="#185A97"/>
<path d="M65.9235 49.2465C65.6818 49.3674 65.4401 49.4278 65.2588 49.4882C65.4401 49.4278 65.6818 49.3674 65.9235 49.2465Z" fill="#185A97"/>
<path d="M61.5127 50.153C61.6335 50.153 61.7544 50.153 61.8148 50.2134C61.694 50.2134 61.5127 50.153 61.3918 50.153C61.4523 50.153 61.4523 50.153 61.5127 50.153Z" fill="#185A97"/>
<path d="M68.5822 47.8568C68.4009 47.9776 68.28 48.038 68.1592 48.0985C68.2196 48.038 68.4009 47.9776 68.5822 47.8568Z" fill="#185A97"/>
<path d="M60.7268 49.9716C60.7872 50.032 60.9081 50.032 60.9685 50.0924C60.8477 50.032 60.7268 50.032 60.606 49.9716C60.7268 49.9111 60.7268 49.9716 60.7268 49.9716Z" fill="#185A97"/>
<path d="M64.0502 49.9112C63.7481 49.9716 63.3251 50.0925 63.0229 50.1529C63.3251 50.0925 63.6876 50.032 64.0502 49.9112Z" fill="#185A97"/>
<path d="M80.2444 32.3878C80.3048 32.5087 80.3652 32.6899 80.3652 32.8108C80.3048 32.6899 80.3048 32.5691 80.2444 32.3878Z" fill="#185A97"/>
<path d="M59.8209 45.8627C59.7605 45.9835 59.7001 46.2252 59.6396 46.3461C59.7001 46.1648 59.7605 45.9231 59.8814 45.6814C59.8814 45.7418 59.8209 45.8022 59.8209 45.8627Z" fill="#185A97"/>
<path d="M59.5187 47.0712C59.5187 47.1921 59.4583 47.3734 59.4583 47.4942C59.4583 47.3129 59.5187 47.1317 59.5187 46.9504C59.5187 46.9504 59.5187 47.0108 59.5187 47.0712Z" fill="#185A97"/>
<path d="M74.0203 32.0857C74.262 31.9648 74.5037 31.9044 74.6849 31.844C74.4432 31.844 74.2015 31.9648 74.0203 32.0857Z" fill="#185A97"/>
<path d="M59.6998 48.9443C59.6394 48.8235 59.579 48.6422 59.5186 48.4609C59.579 48.6422 59.6394 48.8235 59.6998 48.9443Z" fill="#185A97"/>
<path d="M79.761 31.7231C79.8214 31.7836 79.8818 31.844 79.9423 31.9044C79.8818 31.844 79.8214 31.7836 79.761 31.7231Z" fill="#185A97"/>
<path d="M60.0631 49.4888C60.0018 49.4275 60.0018 49.4275 60.0631 49.4888C60.0018 49.4275 60.0018 49.4275 60.0631 49.4888Z" fill="#185A97"/>
<path d="M75.8333 31.4211C75.7728 31.4211 75.7124 31.4211 75.7124 31.4815C76.0145 31.4211 76.3771 31.3002 76.6792 31.2398C76.4375 31.2398 76.075 31.3002 75.8333 31.4211Z" fill="#185A97"/>
<path d="M61.15 43.1435C61.0896 43.2039 61.0292 43.3248 60.9688 43.3852C61.0292 43.2643 61.0896 43.1435 61.15 43.0226C61.2104 43.1435 61.15 43.1435 61.15 43.1435Z" fill="#185A97"/>
<path d="M77.1024 31.1189C76.9816 31.1189 76.8003 31.1793 76.6794 31.1793C76.8607 31.1189 77.1628 31.1189 77.3441 31.1189C77.2837 31.1189 77.1628 31.1189 77.1024 31.1189Z" fill="#185A97"/>
<path d="M60.1833 49.609C60.2438 49.609 60.2438 49.6694 60.3042 49.6694C60.2438 49.6694 60.1833 49.609 60.1833 49.609Z" fill="#185A97"/>
<path d="M78.2503 31.1189C78.1294 31.1189 78.0085 31.1189 77.8877 31.1189C78.069 31.1189 78.2503 31.1189 78.4315 31.1793C78.3711 31.1189 78.3107 31.1189 78.2503 31.1189Z" fill="#185A97"/>
<path d="M62.1771 41.6933C62.1167 41.7537 62.0563 41.8746 61.9958 41.9954C62.0563 41.8746 62.1771 41.7537 62.2376 41.6329C62.2376 41.6329 62.2376 41.6329 62.1771 41.6933Z" fill="#185A97"/>
<path d="M60.4854 44.4125C60.5458 44.2312 60.6666 44.0499 60.7875 43.8687C60.6666 43.9895 60.5458 44.2312 60.4854 44.4125Z" fill="#185A97"/>
<path d="M80.0634 35.4695C80.1238 35.3487 80.1842 35.107 80.2446 34.9861C80.1842 35.1674 80.1238 35.4091 80.0029 35.6508C80.0029 35.5904 80.0634 35.53 80.0634 35.4695Z" fill="#185A97"/>
<path d="M78.7336 38.1282C78.7941 38.0678 78.8545 37.947 78.9149 37.8865C78.8545 38.0074 78.7941 38.1282 78.7336 38.2491C78.6732 38.1887 78.7336 38.1887 78.7336 38.1282Z" fill="#185A97"/>
<path d="M80.3652 34.2611C80.3652 34.1402 80.4257 33.9589 80.4257 33.8381C80.4257 34.0193 80.3652 34.2006 80.3652 34.3819C80.3652 34.3215 80.3652 34.3215 80.3652 34.2611Z" fill="#185A97"/>
<path d="M79.3983 36.9198C79.3379 37.1011 79.217 37.2824 79.0962 37.4636C79.217 37.3428 79.3379 37.1011 79.3983 36.9198Z" fill="#185A97"/>
<path d="M78.4316 38.5513C78.3108 38.6721 78.2504 38.8534 78.1899 38.9742C78.2504 38.8534 78.3712 38.7325 78.4316 38.5513Z" fill="#185A97"/>
<path d="M77.7067 39.6389C77.7671 39.5785 77.8275 39.4576 77.8879 39.3972C77.8275 39.5181 77.7067 39.6389 77.6462 39.7598C77.6462 39.6993 77.7067 39.6993 77.7067 39.6389Z" fill="#185A97"/>
<path d="M62.5399 42.7811C62.3586 43.0832 62.1774 43.3853 61.9961 43.6874C61.9357 43.8083 61.8148 43.9896 61.7544 44.1104C61.9961 43.6874 62.2982 43.2645 62.6003 42.8415C62.5399 42.8415 62.5399 42.7811 62.5399 42.7811Z" fill="#185A97"/>
<path d="M73.5978 33.3547C73.8395 33.2338 74.0812 33.113 74.3229 33.0526C74.0208 33.113 73.7791 33.2338 73.5978 33.3547C73.5374 33.2943 73.5374 33.3547 73.5978 33.3547Z" fill="#185A97"/>
<path d="M61.754 44.1105C61.754 44.1709 61.6936 44.1709 61.6936 44.2313C60.7268 45.9837 60.3643 47.3734 60.5455 48.3402C60.8477 48.159 61.1498 48.0985 61.2706 48.2194C60.606 47.4943 60.7268 46.0441 61.754 44.1105Z" fill="#185A97"/>
<path d="M74.2621 32.9921C74.0808 32.8108 74.1412 32.3878 74.3225 32.0857C73.7183 32.3274 73.114 32.5691 72.5098 32.8712C72.8723 32.9921 73.1744 33.1129 73.537 33.2942C73.7787 33.2338 74.0204 33.1129 74.2621 32.9921Z" fill="#185A97"/>
<path d="M61.6937 44.2312C61.6937 44.1708 61.7542 44.1708 61.7542 44.1104C61.8146 43.9895 61.9354 43.8082 61.9959 43.6874C62.1771 43.3853 62.3584 43.0831 62.5397 42.781C62.4188 42.4789 62.3584 42.1163 62.298 41.7538C61.8146 42.358 61.452 43.0227 61.0895 43.627C59.7601 45.9231 59.5789 47.6755 60.3644 48.5214C60.4248 48.461 60.4852 48.4006 60.5457 48.4006C60.3644 47.3733 60.6665 45.9835 61.6937 44.2312Z" fill="#185A97"/>
<path d="M74.9271 32.7504C74.7459 32.8108 74.5646 32.8712 74.3833 32.9921C74.5646 32.9316 74.7459 32.8712 74.9271 32.7504C74.8667 32.8108 74.9271 32.7504 74.9271 32.7504Z" fill="#185A97"/>
<path d="M78.492 32.9317C78.5524 32.9922 78.6128 32.9922 78.6128 33.0526C78.492 32.8713 78.5524 32.5692 78.7941 32.3275C77.9481 32.0253 76.6188 32.1462 74.8665 32.7505C74.8665 32.7505 74.8665 32.7505 74.8665 32.8109C76.6188 32.267 77.8273 32.3275 78.492 32.9317Z" fill="#185A97"/>
<path d="M78.4922 32.9316C78.5526 32.9921 78.5526 32.9921 78.613 33.0525C78.5526 32.9921 78.5526 32.9921 78.4922 32.9316Z" fill="#185A97"/>
<path d="M78.613 33.0525C78.613 32.9921 78.5526 32.9921 78.4922 32.9316C78.5526 32.9921 78.5526 32.9921 78.613 33.0525Z" fill="#185A97"/>
<path d="M74.927 32.7506C76.6189 32.0859 77.9483 31.965 78.8546 32.3276C78.9151 32.2672 78.9755 32.2067 79.0359 32.1463C78.3712 31.3608 76.9815 31.2399 75.0479 31.8442C75.1083 32.0859 75.1083 32.4484 74.927 32.7506Z" fill="#185A97"/>
<path d="M74.2623 32.9921H74.3227C74.504 32.9316 74.6852 32.8108 74.8665 32.7504C75.0478 32.4482 75.0478 32.0857 74.9269 31.844C74.7457 31.9044 74.504 31.9648 74.2623 32.0857C74.1414 32.3878 74.1414 32.8108 74.2623 32.9921Z" fill="#185A97"/>
<path d="M71.0595 45.1375L70.8782 45.3188L70.7573 45.4397L70.6365 45.5605L70.5156 45.6814L70.4552 45.8022L70.3948 45.9231V46.0439V46.1043L70.4552 46.1648H70.5156H70.6365L70.7573 46.1043L70.9386 46.0439L71.1199 45.9231L71.3012 45.8022L71.4824 45.6814L71.6637 45.5605L71.845 45.4397L72.0263 45.3188L72.2075 45.198L72.3888 45.0771L72.5701 44.9563L72.7514 44.8354L72.8722 44.7146L73.0535 44.5333L73.2348 44.352L73.416 44.1707L73.5973 43.9895L73.7786 43.8082L73.9599 43.6269L74.1411 43.4456L74.3224 43.2644L74.5037 43.0831L74.6245 42.9018L74.7454 42.7205L74.8662 42.5997L74.9871 42.4788L75.0475 42.358L75.1079 42.2371V42.1163V42.0558V41.9954V41.935V41.8746H75.0475H74.9871H74.9267L74.8058 41.935L74.685 41.9954L74.5037 42.1163L74.3224 42.2975L74.0807 42.4788L73.8994 42.5997C72.9931 43.5061 72.0263 44.352 71.0595 45.1375Z" fill="#185A97"/>
<path d="M68.8843 46.3462C68.7634 46.4066 68.6426 46.467 68.5217 46.5879C68.5217 46.5879 68.5822 46.5879 68.5822 46.5275C68.703 46.467 68.8239 46.4066 68.8843 46.3462Z" fill="#185A97"/>
<path d="M63.386 48.7631C63.2651 48.7631 63.0839 48.7631 62.9026 48.8236C62.963 48.8236 63.0234 48.8236 63.0234 48.8236C63.1443 48.8236 63.3256 48.7631 63.386 48.7631Z" fill="#185A97"/>
<path d="M64.2924 48.5818C63.9902 48.6423 63.6881 48.7027 63.386 48.7631C63.6881 48.7027 63.9902 48.6423 64.2924 48.5818Z" fill="#185A97"/>
<path d="M61.9355 48.7027C61.8751 48.7027 61.7543 48.6423 61.6938 48.5818H61.7543C61.8147 48.6423 61.8751 48.6423 61.9355 48.7027Z" fill="#185A97"/>
<path d="M62.5397 48.8236C62.4792 48.8236 62.3584 48.8235 62.2375 48.7631H62.298C62.3584 48.7631 62.4188 48.7631 62.5397 48.8236Z" fill="#185A97"/>
<path d="M61.3918 48.4006L61.4526 48.4614C61.4526 48.4006 61.4526 48.4006 61.3918 48.4006Z" fill="#185A97"/>
<path d="M73.4767 42.9623L73.3559 43.0227L73.2954 43.0831L73.235 43.1436L73.1746 43.204L73.1142 43.2644L73.0537 43.3248L72.9933 43.3853L72.9329 43.4457L72.8724 43.5061L72.812 43.5665L72.7516 43.627L72.6307 43.6874L72.5099 43.8082L72.389 43.9291L72.2078 44.0499L72.0869 44.1708L71.9661 44.2916L71.8452 44.4125L71.6639 44.5333L71.4827 44.7146L71.3014 44.8959L71.1201 45.0772L70.9993 45.198C71.9661 44.4125 72.9329 43.5665 73.8393 42.7206L73.7184 42.8414L73.4767 42.9623Z" fill="#185A97"/>
<path d="M75.5916 40.4849C75.5311 40.5453 75.5311 40.6058 75.4707 40.6058C75.5311 40.6058 75.5311 40.5453 75.5916 40.4849Z" fill="#185A97"/>
<path d="M67.2531 47.3129C67.1926 47.3129 67.1322 47.3733 67.0718 47.3733C67.1926 47.3733 67.1926 47.3733 67.2531 47.3129Z" fill="#185A97"/>
<path d="M76.8003 39.0346C76.7399 39.1555 76.6794 39.2159 76.5586 39.3367L76.619 39.2763C76.6794 39.1555 76.7399 39.095 76.8003 39.0346Z" fill="#185A97"/>
<path d="M67.8569 47.0107C67.9778 46.9503 68.0986 46.8295 68.2799 46.769C68.0986 46.8899 67.9778 46.9503 67.8569 47.0107Z" fill="#185A97"/>
<path d="M66.407 47.7964C66.5883 47.736 66.7695 47.6151 66.9508 47.4943C66.7695 47.6151 66.5883 47.6755 66.407 47.7964Z" fill="#185A97"/>
<path d="M65.3193 48.2194C65.5006 48.1589 65.6819 48.0381 65.8632 47.9777C65.6819 48.0985 65.4402 48.1589 65.3193 48.2194Z" fill="#185A97"/>
<path d="M74.8665 41.3308C74.9873 41.1495 75.1686 40.9683 75.3499 40.787C75.1686 40.9683 74.9873 41.1495 74.8665 41.3308Z" fill="#185A97"/>
<path d="M77.0417 38.6118C77.1022 38.4909 77.223 38.3701 77.2834 38.2492C77.223 38.4305 77.1022 38.5513 77.0417 38.6118Z" fill="#185A97"/>
<path d="M76.0144 40.0015C76.0748 39.8806 76.1957 39.7598 76.3165 39.6389C76.1957 39.7598 76.1353 39.8806 76.0144 40.0015Z" fill="#185A97"/>
<path d="M77.6461 37.7054C77.5857 37.8262 77.5253 37.8867 77.4648 38.0075C77.4648 38.0075 77.4648 37.9471 77.5253 37.9471C77.5857 37.8262 77.5857 37.7658 77.6461 37.7054Z" fill="#185A97"/>
<path d="M78.7938 35.2883C78.7334 35.4696 78.673 35.6509 78.6125 35.7717C78.6125 35.7113 78.673 35.7113 78.673 35.6509C78.673 35.53 78.7334 35.4092 78.7938 35.2883Z" fill="#185A97"/>
<path d="M78.7939 33.3547C78.8544 33.4755 78.8544 33.5964 78.9148 33.6568C78.9148 33.5964 78.8544 33.536 78.8544 33.4755C78.8544 33.4151 78.7939 33.4151 78.7939 33.3547Z" fill="#185A97"/>
<path d="M77.8877 37.3427C77.9481 37.2218 78.069 37.0405 78.1294 36.8593C78.069 36.9801 77.9481 37.1614 77.8877 37.3427Z" fill="#185A97"/>
<path d="M78.9755 34.382C78.9755 34.5028 78.915 34.6841 78.915 34.8049C78.915 34.7445 78.915 34.7445 78.915 34.6841C78.915 34.6237 78.915 34.5028 78.9755 34.382Z" fill="#185A97"/>
<path d="M61.3916 48.4005C61.3312 48.34 61.3312 48.34 61.2708 48.2796C61.2708 48.2796 61.2708 48.2796 61.3312 48.34C61.3312 48.34 61.3916 48.34 61.3916 48.4005Z" fill="#185A97"/>
<path d="M61.7545 48.5818C61.6941 48.5214 61.6337 48.5214 61.5732 48.4609C61.5732 48.5214 61.6337 48.5214 61.7545 48.5818C61.6941 48.5818 61.6941 48.5818 61.7545 48.5818Z" fill="#185A97"/>
<path d="M62.2376 48.763C62.1771 48.763 62.0563 48.7026 61.9958 48.7026C62.0563 48.7026 62.1167 48.763 62.1771 48.763C62.1771 48.763 62.1771 48.763 62.2376 48.763Z" fill="#185A97"/>
<path d="M78.6125 33.0526C78.673 33.113 78.7334 33.2338 78.7938 33.2943C78.7334 33.2338 78.673 33.113 78.6125 33.0526Z" fill="#185A97"/>
<path d="M78.915 33.6567C78.915 33.7776 78.9755 33.838 78.9755 33.9589V33.8984C78.915 33.838 78.915 33.7172 78.915 33.6567Z" fill="#185A97"/>
<path d="M78.6128 35.7717C78.5524 35.9529 78.4315 36.1342 78.3711 36.3155C78.4315 36.1946 78.4919 36.0134 78.5524 35.8925C78.5524 35.8925 78.6128 35.8321 78.6128 35.7717Z" fill="#185A97"/>
<path d="M68.8845 46.3461C69.0054 46.2856 69.1866 46.1648 69.2471 46.1044C69.1866 46.1648 69.0658 46.2856 68.8845 46.3461Z" fill="#185A97"/>
<path d="M75.5918 40.4848C75.7126 40.3035 75.8939 40.1223 76.0148 39.941C75.8939 40.1223 75.7126 40.364 75.5918 40.4848Z" fill="#185A97"/>
<path d="M77.465 38.0075C77.4045 38.1284 77.3441 38.1888 77.2837 38.3096C77.3441 38.1888 77.4045 38.1284 77.465 38.0075Z" fill="#185A97"/>
<path d="M77.0421 38.6118C76.9817 38.7326 76.8608 38.8535 76.74 38.9743C76.8608 38.9139 76.9817 38.7326 77.0421 38.6118Z" fill="#185A97"/>
<path d="M78.9148 34.8048C78.8544 34.9861 78.8544 35.1674 78.7939 35.2882C78.7939 35.1674 78.8544 35.0465 78.9148 34.9257C78.8544 34.8652 78.8544 34.8652 78.9148 34.8048Z" fill="#185A97"/>
<path d="M67.2529 47.3129C67.4342 47.1921 67.6759 47.0712 67.7968 47.0108C67.6759 47.1317 67.4342 47.2525 67.2529 47.3129Z" fill="#185A97"/>
<path d="M77.6462 37.7053C77.7067 37.5845 77.8275 37.4636 77.8879 37.3428C77.8275 37.4032 77.7067 37.5845 77.6462 37.7053Z" fill="#185A97"/>
<path d="M65.863 48.038C66.0443 47.9776 66.2256 47.8568 66.4069 47.7963C66.2256 47.8568 66.0443 47.9172 65.863 48.038Z" fill="#185A97"/>
<path d="M67.1321 47.4338C67.0717 47.4338 67.0112 47.4942 67.0112 47.4942C67.0112 47.4942 67.0717 47.4338 67.1321 47.4338C67.0717 47.4338 67.0717 47.4338 67.1321 47.4338Z" fill="#185A97"/>
<path d="M75.471 40.6663C75.4105 40.7267 75.4105 40.7871 75.3501 40.7871C75.4105 40.7267 75.4105 40.7267 75.471 40.6663Z" fill="#185A97"/>
<path d="M68.5823 46.5878C68.4614 46.6482 68.3406 46.7086 68.2197 46.769C68.3406 46.7086 68.401 46.6482 68.4614 46.5878C68.5219 46.5878 68.5219 46.5878 68.5823 46.5878Z" fill="#185A97"/>
<path d="M78.1899 36.7988C78.2504 36.678 78.3108 36.4967 78.3712 36.3759C78.3108 36.4967 78.2504 36.678 78.1899 36.7988Z" fill="#185A97"/>
<path d="M76.5581 39.3369C76.4977 39.4577 76.3768 39.5181 76.3164 39.639C76.3768 39.5181 76.4373 39.4577 76.5581 39.3369Z" fill="#185A97"/>
<path d="M65.3192 48.2194C65.0171 48.3402 64.5941 48.4611 64.292 48.5215C64.292 48.5215 64.292 48.5215 64.3524 48.5215C64.5941 48.4611 65.0171 48.3402 65.3192 48.2194Z" fill="#185A97"/>
<path d="M61.271 48.2798C61.1502 48.1589 60.848 48.1589 60.5459 48.4006C60.6063 48.5819 60.6063 48.7027 60.7272 48.884C60.848 48.9444 60.9689 49.0049 61.0897 49.0653C61.3314 48.7027 61.4523 48.4006 61.271 48.2798Z" fill="#185A97"/>
<path d="M78.6129 33.0526C78.7338 33.1735 79.0359 33.1735 79.338 32.9318C79.2776 32.7505 79.2776 32.6296 79.1567 32.4484C79.0359 32.3879 78.915 32.3275 78.7942 32.2671C78.5525 32.5692 78.4921 32.8713 78.6129 33.0526Z" fill="#185A97"/>
<path d="M79.2169 32.5087C79.1565 32.3878 79.0961 32.267 78.9752 32.1461C78.9148 32.2065 78.8544 32.267 78.7939 32.3274C78.9752 32.3878 79.0961 32.4482 79.2169 32.5087Z" fill="#185A97"/>
<path d="M60.3645 48.5214C60.4854 48.6423 60.6062 48.7631 60.7271 48.8236C60.6666 48.7027 60.6062 48.5214 60.5458 48.3401C60.4853 48.4006 60.4249 48.461 60.3645 48.5214Z" fill="#185A97"/>
<path d="M61.3916 48.4006C61.3916 48.3402 61.3916 48.3402 61.3916 48.4006C61.3312 48.3402 61.3312 48.3402 61.2708 48.2798C61.2708 48.2798 61.2708 48.2798 61.2103 48.2194C61.3312 48.4006 61.2708 48.7028 61.0291 48.9445C61.875 49.2466 63.2044 49.1257 64.9567 48.5215C65.138 48.4611 65.3192 48.4006 65.5005 48.2798C63.5669 49.0653 62.1167 49.0653 61.3916 48.4006Z" fill="#185A97"/>
<path d="M78.1294 37.1614C78.1294 37.101 78.1898 37.101 78.1898 37.0406C79.1566 35.2882 79.5192 33.8984 79.3379 32.9316C79.0358 33.1129 78.7336 33.1733 78.6128 33.0525C79.2775 33.838 79.1566 35.2278 78.1294 37.1614Z" fill="#185A97"/>
<path d="M78.7942 33.3546C78.7942 33.4151 78.8546 33.4755 78.8546 33.5359C78.8546 33.5963 78.915 33.6568 78.915 33.7172C78.915 33.7776 78.9755 33.8985 78.9755 33.9589V34.0193C78.9755 34.0798 78.9755 34.0798 78.9755 34.1402C78.9755 34.2006 78.9755 34.3215 78.9755 34.4423C78.9755 34.5632 78.9755 34.684 78.915 34.7444C78.915 34.8049 78.915 34.8049 78.915 34.8653C78.915 34.9257 78.915 34.9257 78.915 34.9861C78.915 35.107 78.8546 35.2278 78.7942 35.3487C78.7338 35.4695 78.7338 35.5904 78.6733 35.7112C78.6733 35.7717 78.6129 35.7717 78.6129 35.8321C78.6129 35.8925 78.5525 35.8925 78.5525 35.9529C78.4921 36.0738 78.4316 36.2551 78.3712 36.3759C78.3108 36.4968 78.2504 36.678 78.1899 36.7989C78.1899 36.7989 78.1899 36.7989 78.1899 36.8593C78.1295 36.9802 78.0087 37.1614 77.9482 37.3427C77.8878 37.4636 77.8274 37.5844 77.7065 37.7053C77.6461 37.7657 77.5857 37.8865 77.5857 37.947C77.5857 37.947 77.5857 38.0074 77.5253 38.0074C77.5253 38.0074 77.5253 38.0678 77.4648 38.0678C77.4044 38.1282 77.344 38.2491 77.2836 38.3095C77.2231 38.4304 77.1023 38.5512 77.0419 38.6721C76.9814 38.7929 76.8606 38.9138 76.7397 39.0346C76.6793 39.095 76.6189 39.2159 76.5585 39.2763L76.498 39.3367C76.498 39.3367 76.498 39.3972 76.4376 39.3972C76.3772 39.4576 76.3168 39.5784 76.2563 39.6389C76.1355 39.7597 76.0751 39.8806 75.9542 40.0014C75.8334 40.1827 75.6521 40.364 75.5312 40.5452C75.4708 40.6057 75.4708 40.6057 75.4104 40.6661C75.35 40.7265 75.35 40.7265 75.2895 40.787C75.1083 40.9682 74.9874 41.1495 74.8061 41.3308C74.3832 41.7538 73.9602 42.2372 73.5372 42.6601C73.1142 43.0831 72.6308 43.5061 72.1474 43.9291C71.664 44.352 71.1806 44.7146 70.6972 45.0771C70.2138 45.4397 69.7304 45.8022 69.247 46.1648C69.1262 46.2252 69.0053 46.3461 68.8845 46.4065C68.7636 46.4669 68.7032 46.5273 68.5823 46.5878C68.5823 46.5878 68.5219 46.5878 68.5219 46.6482C68.5219 46.6482 68.4615 46.6482 68.4615 46.7086C68.4011 46.769 68.2802 46.8295 68.2198 46.8899C68.0989 46.9503 67.9176 47.0712 67.7968 47.1316C67.6155 47.2524 67.4342 47.3733 67.253 47.4337C67.1925 47.4337 67.1925 47.4941 67.1321 47.4941C67.0717 47.4941 67.0717 47.5546 67.0113 47.5546C66.83 47.6754 66.5883 47.7358 66.4674 47.8567C66.2862 47.9171 66.1049 48.038 65.9236 48.0984C65.7423 48.1588 65.5006 48.2797 65.3798 48.3401C65.0777 48.461 64.7151 48.5818 64.413 48.6422C64.413 48.6422 64.413 48.6422 64.3526 48.6422C64.3526 48.6422 64.3526 48.6422 64.2921 48.6422C64.0504 48.7027 63.6879 48.7631 63.4462 48.8235C63.3253 48.8235 63.2045 48.8839 63.1441 48.8839C63.0836 48.8839 63.0836 48.8839 63.0232 48.8839C62.9628 48.8839 62.9024 48.8839 62.9024 48.8839C62.8419 48.8839 62.7211 48.8839 62.6002 48.8839C62.5398 48.8839 62.419 48.8839 62.3585 48.8839H62.2981H62.2377C62.1773 48.8839 62.1168 48.8235 62.0564 48.8235C61.996 48.8235 61.9356 48.7631 61.8751 48.7631H61.8147H61.7543C61.6938 48.7631 61.6334 48.7027 61.573 48.6422C61.573 48.6422 61.573 48.6422 61.5126 48.6422L61.4521 48.5818C62.1773 49.2465 63.567 49.2465 65.5611 48.5214C70.1534 46.5878 75.6521 41.6933 78.1899 37.4031C79.2172 35.4695 79.2776 34.0193 78.6733 33.2942C78.6733 33.1129 78.7338 33.2338 78.7942 33.3546C78.7942 33.2942 78.7942 33.2942 78.7942 33.3546Z" fill="#185A97"/>
<path d="M61.3921 48.3404L61.3313 48.2796C61.3313 48.3404 61.3921 48.3404 61.3921 48.3404Z" fill="#185A97"/>
<path d="M79.7004 36.3156C79.64 36.4969 79.5192 36.6782 79.4587 36.8594C79.5796 36.6782 79.64 36.4969 79.7004 36.3156Z" fill="#243A5E"/>
<path d="M79.9421 35.7717C79.9421 35.7112 80.0026 35.6508 80.0026 35.5904C79.9421 35.8321 79.8213 36.0738 79.7004 36.2551C79.8213 36.1342 79.8817 35.9529 79.9421 35.7717Z" fill="#243A5E"/>
<path d="M60.1833 45.0167C60.2438 44.8355 60.3646 44.6542 60.4251 44.4729C60.3042 44.6542 60.2438 44.8355 60.1833 45.0167Z" fill="#243A5E"/>
<path d="M79.1567 37.4637C79.0963 37.5845 78.9755 37.7054 78.915 37.8867C78.9755 37.7658 79.0359 37.5845 79.1567 37.4637Z" fill="#243A5E"/>
<path d="M60.7271 43.8687C60.7875 43.7479 60.9083 43.627 60.9688 43.4457C60.9083 43.5666 60.8479 43.7479 60.7271 43.8687Z" fill="#243A5E"/>
<path d="M61.2704 43.0227C61.2704 43.0227 61.2704 43.0831 61.21 43.0831C61.2704 42.9623 61.3308 42.8414 61.4517 42.7206C61.3912 42.8414 61.2704 42.9623 61.2704 43.0227Z" fill="#243A5E"/>
<path d="M80.3049 34.5632C80.3049 34.5027 80.3049 34.5027 80.3049 34.4423C80.2445 34.6236 80.1841 34.8653 80.1841 35.0466C80.2445 34.8653 80.3049 34.684 80.3049 34.5632Z" fill="#243A5E"/>
<path d="M78.6129 38.3096C78.6129 38.3096 78.6129 38.2492 78.6733 38.2492C78.6129 38.3701 78.5525 38.4909 78.4316 38.6118C78.5525 38.4909 78.6129 38.3701 78.6129 38.3096Z" fill="#243A5E"/>
<path d="M66.5278 49.0048C66.3466 49.0652 66.1049 49.186 65.9236 49.2465C66.1049 49.186 66.3466 49.0652 66.5278 49.0048Z" fill="#243A5E"/>
<path d="M64.1108 49.9113C64.4734 49.7904 64.8964 49.6696 65.2589 49.5487C64.8964 49.6696 64.413 49.7904 64.1108 49.9113Z" fill="#243A5E"/>
<path d="M67.2532 48.5818C67.3136 48.5818 67.3136 48.5818 67.2532 48.5818C67.2532 48.5818 67.1927 48.6423 67.1323 48.6423C67.1927 48.6423 67.2532 48.6423 67.2532 48.5818Z" fill="#243A5E"/>
<path d="M68.0991 48.1588C67.9178 48.2797 67.6761 48.4005 67.4949 48.5214C67.6761 48.4005 67.9178 48.2192 68.0991 48.1588Z" fill="#243A5E"/>
<path d="M77.5856 39.7598L77.646 39.6993C77.5856 39.8202 77.4647 39.941 77.4043 40.0619C77.4647 39.941 77.5251 39.8806 77.5856 39.7598Z" fill="#243A5E"/>
<path d="M61.3313 50.1529C61.3313 50.1529 61.3917 50.1529 61.4522 50.1529C61.3313 50.1529 61.15 50.0925 61.0896 50.0925C61.0896 50.0925 61.2105 50.0925 61.3313 50.1529Z" fill="#243A5E"/>
<path d="M68.8239 47.6755L68.8843 47.6151C68.7634 47.6755 68.6426 47.7359 68.5217 47.8567C68.6426 47.7963 68.7634 47.7359 68.8239 47.6755Z" fill="#243A5E"/>
<path d="M69.7306 47.1315C69.6097 47.192 69.4285 47.3128 69.3076 47.4337C69.4285 47.3128 69.6097 47.192 69.7306 47.1315Z" fill="#243A5E"/>
<path d="M77.042 40.4849C76.9211 40.6662 76.7399 40.9079 76.5586 41.0892C76.7399 40.8475 76.9211 40.6662 77.042 40.4849Z" fill="#243A5E"/>
<path d="M59.6997 49.0048C59.7601 49.1256 59.881 49.3069 59.9414 49.3673C59.881 49.3069 59.7601 49.1256 59.6997 49.0048Z" fill="#243A5E"/>
<path d="M78.1898 38.9742C78.1294 39.0951 78.0085 39.2159 77.8877 39.3972C78.0085 39.2159 78.1294 39.0951 78.1898 38.9742Z" fill="#243A5E"/>
<path d="M59.5791 46.7691C59.5791 46.8295 59.5791 46.8295 59.5791 46.89C59.6395 46.7087 59.6395 46.467 59.7 46.2857C59.6395 46.467 59.5791 46.6483 59.5791 46.7691Z" fill="#243A5E"/>
<path d="M60.1228 49.5486C60.1228 49.5486 60.1832 49.6091 60.1228 49.5486C60.1228 49.5486 60.0624 49.4882 60.002 49.4278C60.0624 49.4882 60.1228 49.5486 60.1228 49.5486Z" fill="#243A5E"/>
<path d="M76.4375 41.21C76.2562 41.3913 76.0145 41.6934 75.8333 41.9351C76.0145 41.7539 76.2562 41.4517 76.4375 41.21Z" fill="#243A5E"/>
<path d="M60.3645 49.7303L60.3037 49.6695C60.3037 49.7303 60.3645 49.7303 60.3645 49.7303Z" fill="#243A5E"/>
<path d="M59.9418 45.5605C59.9418 45.6209 59.8813 45.6813 59.8813 45.7418C59.9418 45.5001 60.0626 45.2584 60.1835 45.0771C60.123 45.1979 60.0022 45.3792 59.9418 45.5605Z" fill="#243A5E"/>
<path d="M60.6062 49.9113C60.6062 49.9113 60.6666 49.9113 60.6666 49.9717C60.5458 49.9113 60.4249 49.8508 60.3645 49.7904C60.4249 49.7904 60.5458 49.8508 60.6062 49.9113Z" fill="#243A5E"/>
<path d="M80.3652 32.8109C80.3652 32.9318 80.4257 33.113 80.4257 33.2943C80.4257 33.2339 80.4257 33.2339 80.4257 33.1735C80.4257 33.0526 80.3652 32.9318 80.3652 32.8109Z" fill="#243A5E"/>
<path d="M80.0634 32.1462C80.0029 32.0858 79.9425 31.965 79.8821 31.9045C79.9425 32.0254 80.0634 32.2067 80.1238 32.3275C80.1238 32.2671 80.1238 32.2067 80.0634 32.1462Z" fill="#243A5E"/>
<path d="M72.4497 32.8109C72.4497 32.8109 72.3889 32.8109 72.3889 32.8717C72.3889 32.8717 72.3889 32.8109 72.4497 32.8109Z" fill="#243A5E"/>
<path d="M80.1841 32.3275C80.1841 32.3275 80.1841 32.3882 80.2449 32.3882C80.2449 32.3882 80.1841 32.3882 80.1841 32.3275Z" fill="#243A5E"/>
<path d="M72.6309 32.69C72.6309 32.69 72.6913 32.6296 72.7517 32.6296C72.6913 32.69 72.6913 32.69 72.6309 32.69Z" fill="#243A5E"/>
<path d="M59.4583 48.038C59.4583 48.0985 59.4583 48.0984 59.4583 48.1589C59.4583 48.2797 59.5187 48.4006 59.5187 48.5214C59.5187 48.3402 59.4583 48.1589 59.4583 48.038Z" fill="#243A5E"/>
<path d="M61.996 41.9351C61.8751 42.0559 61.8147 42.2372 61.6938 42.358C61.8147 42.2372 61.8751 42.1163 61.996 41.9351Z" fill="#243A5E"/>
<path d="M78.5524 31.1794C78.4919 31.1794 78.4315 31.1794 78.3711 31.1794C78.5524 31.1794 78.7336 31.2399 78.8545 31.3003C78.7941 31.2399 78.6732 31.1794 78.5524 31.1794Z" fill="#243A5E"/>
<path d="M75.5914 31.4815C75.3497 31.5419 74.9268 31.6628 74.6851 31.7836C74.9872 31.6628 75.4102 31.5419 75.7123 31.4211C75.6519 31.4211 75.5914 31.4815 75.5914 31.4815Z" fill="#243A5E"/>
<path d="M73.4165 32.3274C73.5978 32.267 73.8395 32.1461 74.0208 32.0857C73.7791 32.1461 73.5978 32.267 73.4165 32.3274Z" fill="#243A5E"/>
<path d="M79.5193 31.5419C79.5797 31.6023 79.6401 31.6627 79.7006 31.6627C79.6401 31.6627 79.5797 31.6023 79.5193 31.5419Z" fill="#243A5E"/>
<path d="M79.2775 31.421C79.2775 31.421 79.217 31.421 79.217 31.3606C79.3379 31.421 79.4587 31.4814 79.5192 31.5419C79.4587 31.5419 79.3983 31.4814 79.2775 31.421Z" fill="#243A5E"/>
<path d="M60.7271 48.8235C60.7875 48.9444 60.8479 49.0652 60.9688 49.1861C61.0292 49.1257 61.0896 49.0652 61.15 49.0048C60.9687 48.9444 60.8479 48.884 60.7271 48.8235Z" fill="#243A5E"/>
<path d="M79.5796 32.8108C79.4587 32.6899 79.3379 32.5691 79.217 32.5087C79.2775 32.6295 79.3379 32.8108 79.3983 32.9921C79.3983 32.9316 79.4587 32.8712 79.5796 32.8108Z" fill="#243A5E"/>
<path d="M80.2445 32.3878C80.2445 32.3878 80.2445 32.3274 80.1841 32.3274C80.1237 32.2066 80.0028 32.0253 79.9424 31.9044C79.882 31.844 79.8216 31.7836 79.7611 31.7231C79.7007 31.6627 79.6403 31.6023 79.5798 31.6023C79.5194 31.5419 79.3986 31.4814 79.2777 31.421C79.1569 31.3606 79.036 31.3002 78.9152 31.3002C78.7943 31.2397 78.613 31.2397 78.4318 31.1793C78.2505 31.1793 78.0692 31.1189 77.8879 31.1189C77.8275 31.1189 77.7671 31.1189 77.7067 31.1189C77.5858 31.1189 77.465 31.1189 77.2837 31.1189C77.042 31.1189 76.8003 31.1793 76.619 31.1793C76.3169 31.2397 75.9543 31.3002 75.6522 31.421C75.2897 31.5419 74.9271 31.6627 74.625 31.7836C74.7458 31.7231 74.8667 31.7836 74.9271 31.844C76.9211 31.1793 78.2505 31.3606 78.9152 32.1461C78.9756 32.267 79.0964 32.3878 79.1569 32.5087C79.2777 32.5691 79.3986 32.69 79.5194 32.8108C80.305 33.7172 80.0632 35.4091 78.7943 37.7052C76.196 42.2371 70.2744 47.3733 65.5612 49.186C63.265 50.0924 61.6336 49.9716 60.9085 49.1256C60.848 49.0048 60.7272 48.8839 60.6668 48.7631C60.5459 48.7026 60.4251 48.5818 60.3042 48.4609C59.5187 47.5546 59.7604 45.8626 61.0293 43.5665C61.3919 42.9622 61.7544 42.358 62.2378 41.6933C62.2378 41.6329 62.2378 41.5725 62.2378 41.512C62.2378 41.512 62.2378 41.512 62.1774 41.5725C62.117 41.6933 61.9961 41.8142 61.9357 41.935C61.8148 42.0559 61.7544 42.2371 61.6336 42.358C61.5731 42.4788 61.4523 42.5997 61.3919 42.781C61.3314 42.9018 61.2106 43.0227 61.1502 43.1435C61.0897 43.2644 61.0293 43.3852 60.9689 43.5061C60.9085 43.6269 60.7876 43.8082 60.7272 43.929C60.6668 44.1103 60.5459 44.2916 60.4251 44.4729V44.5333C60.4251 44.5333 60.4251 44.5333 60.4251 44.5937C60.3646 44.775 60.2438 44.9563 60.1834 45.1375C60.1229 45.3188 60.0021 45.621 59.8812 45.8022C59.8208 45.9835 59.7 46.2252 59.6395 46.4669C59.5791 46.6482 59.5187 46.8899 59.5187 47.0712C59.4583 47.2524 59.4583 47.4941 59.4583 47.615C59.4583 47.7963 59.4583 47.9775 59.4583 48.1588C59.4583 48.3401 59.5187 48.5214 59.5187 48.6422C59.5791 48.7631 59.6395 49.0048 59.7 49.1256C59.7604 49.2465 59.8812 49.4277 60.0021 49.5486L60.0625 49.609C60.1229 49.6694 60.1229 49.6694 60.1834 49.7299C60.2438 49.7903 60.3042 49.7903 60.3042 49.8507L60.3646 49.9111C60.4251 49.9716 60.5459 50.032 60.6668 50.0924C60.7876 50.1528 60.9085 50.2133 61.0293 50.2133C61.1502 50.2737 61.271 50.2737 61.3919 50.2737C61.5127 50.2737 61.694 50.3341 61.8148 50.3341C61.9961 50.3341 62.1774 50.3341 62.3587 50.3341C62.5399 50.3341 62.7816 50.2737 62.9629 50.2737C63.265 50.2133 63.688 50.1528 64.0506 50.032C64.4131 49.9111 64.8965 49.7903 65.2591 49.609C65.4403 49.5486 65.682 49.4277 65.9237 49.3673C66.1654 49.2465 66.3467 49.186 66.528 49.1256C66.7093 49.0048 66.951 48.9443 67.1323 48.8235C67.1927 48.8235 67.2531 48.7631 67.3135 48.7631C67.374 48.7631 67.4344 48.7026 67.4948 48.7026C67.6761 48.5818 67.9178 48.4609 68.0991 48.3401C68.2199 48.2797 68.4012 48.1588 68.522 48.0984C68.6429 48.038 68.7637 47.9171 68.8846 47.8567C69.0054 47.7963 69.1263 47.6754 69.2471 47.615C69.368 47.4941 69.5493 47.4337 69.6701 47.3129C70.2139 46.9503 70.7578 46.5878 71.2412 46.1648C71.785 45.7418 72.2684 45.3188 72.8122 44.8958C73.2956 44.4729 73.8395 43.9895 74.3229 43.5665C74.8063 43.0831 75.2897 42.5997 75.7126 42.1163C75.8939 41.8746 76.196 41.6329 76.3773 41.3912C76.4377 41.3308 76.4377 41.2703 76.4982 41.2099C76.6794 41.0286 76.8607 40.7869 76.9816 40.6057C77.1024 40.4848 77.1628 40.364 77.2837 40.1827C77.4045 40.0618 77.465 39.941 77.5254 39.8201C77.5858 39.6993 77.7067 39.5784 77.7671 39.4576C77.8879 39.3367 77.9484 39.1554 78.0692 39.0346C78.1296 38.9137 78.2505 38.7929 78.3109 38.6116C78.3713 38.4908 78.4922 38.3699 78.5526 38.2491C78.613 38.1282 78.6735 38.0074 78.7339 37.8865C78.7943 37.7657 78.9152 37.5844 78.9756 37.4635C79.036 37.2823 79.1569 37.101 79.2777 36.9197V36.8593C79.2777 36.8593 79.2777 36.8593 79.2777 36.7989C79.3381 36.6176 79.459 36.4363 79.5194 36.255C79.5799 36.0738 79.7007 35.7716 79.8216 35.5904C79.882 35.4091 80.0028 35.1674 80.0633 34.9257C80.1237 34.7444 80.1841 34.5027 80.1841 34.3214C80.2445 34.1402 80.2445 33.8985 80.2445 33.7776C80.2445 33.5963 80.2445 33.4151 80.2445 33.2338C80.2445 33.0525 80.1841 32.8712 80.1841 32.7504C80.305 32.69 80.305 32.5691 80.2445 32.3878Z" fill="#243A5E"/>
<path d="M72.5101 32.9316C73.1144 32.6295 73.7186 32.3274 74.3229 32.1461C74.4437 31.9648 74.5042 31.9044 74.625 31.844C74.4437 31.9044 74.202 32.0253 73.9603 32.0857C73.7186 32.2065 73.5374 32.267 73.3561 32.3274C73.1748 32.4482 72.9331 32.5087 72.7518 32.6295C72.6914 32.6295 72.631 32.6899 72.5706 32.6899C72.5101 32.6899 72.4497 32.7504 72.3893 32.7504C72.3893 32.7504 72.3289 32.7504 72.3289 32.8108C72.3893 32.8712 72.4497 32.8712 72.5101 32.9316Z" fill="#243A5E"/>
<path d="M74.3228 32.0858C74.5645 32.0253 74.7457 31.9045 74.9874 31.8441C74.927 31.7836 74.8062 31.7232 74.6853 31.7836C74.5645 31.8441 74.4436 31.9649 74.3228 32.0858Z" fill="#243A5E"/>
<path d="M78.1898 37.0406C78.1898 37.101 78.1294 37.101 78.1294 37.1614C78.069 37.2823 77.9481 37.4635 77.8877 37.5844C76.9209 39.2159 75.5311 40.9682 73.8996 42.5997L74.0809 42.4788L74.3226 42.2976L74.5039 42.1767L74.6852 42.0559L74.806 41.9954L74.9269 41.935H74.9873H75.0477H75.1081V41.9954V42.0559V42.1163V42.1767V42.2976L75.0477 42.4184L74.9873 42.5393L74.8664 42.6601L74.7456 42.781L74.6247 42.9622L74.5039 43.1435L74.3226 43.3248L74.1413 43.5061L73.9601 43.6873L73.7788 43.8686L73.5975 44.0499L73.4162 44.2312L73.2349 44.4124L73.0537 44.5937L72.8724 44.775L72.7515 44.8958L72.5703 45.0167L72.389 45.1375L72.2077 45.2584L72.0264 45.3792L71.8452 45.5001L71.6639 45.6209L71.4826 45.7418L71.3013 45.8626L71.1201 45.9835L70.9388 46.1043L70.7575 46.1648L70.6367 46.2252H70.5158H70.4554L70.395 46.1648V46.1043V45.9835L70.4554 45.8626L70.5158 45.7418L70.6367 45.6209L70.7575 45.5001L70.8784 45.3792L71.0596 45.198C69.2469 46.5877 67.3133 47.7358 65.6214 48.4005H65.5609C65.3797 48.4609 65.1984 48.5818 65.0171 48.6422C63.3252 49.3069 61.9959 49.4277 61.0895 49.0652C61.0291 49.1256 60.9686 49.186 60.9082 49.2465C61.6333 50.0924 63.2044 50.1528 65.5609 49.3069C70.2741 47.4941 76.1958 42.358 78.7941 37.8261C80.1234 35.5299 80.3047 33.7776 79.5192 32.9316C79.4587 32.9921 79.3983 33.0525 79.3379 33.0525C79.5796 33.8984 79.217 35.3486 78.1898 37.0406Z" fill="#243A5E"/>
<path d="M65.5005 48.3402H65.5609C67.3132 47.6756 69.1864 46.5275 70.9992 45.1377L71.12 45.0168L71.3013 44.8356L71.4826 44.6543L71.6639 44.473L71.8451 44.3522L71.966 44.2313L72.0868 44.1105L72.2077 43.9896L72.389 43.8688L72.5098 43.7479L72.6307 43.6271L72.7515 43.5666L72.8119 43.5062L72.8724 43.4458L72.9328 43.3854L72.9932 43.3249L73.0536 43.2645L73.1141 43.2041L73.1745 43.1437L73.2349 43.0832L73.2953 43.0228L73.3558 42.9624L73.4162 42.902L73.4766 42.8415L73.7787 42.5998L73.8996 42.479C75.5311 40.8475 76.9813 39.1556 77.8877 37.4637C77.9481 37.3428 78.0689 37.1616 78.1294 37.0407C75.6519 41.5122 70.0928 46.4066 65.5005 48.3402Z" fill="#243A5E"/>
<path d="M61.1502 35.4092C61.0293 35.4092 60.9085 35.2883 60.9085 35.1675C60.9085 33.5964 59.5791 32.3275 58.0081 32.3275C57.8872 32.3275 57.7664 32.2066 57.7664 32.0858C57.7664 31.9649 57.8872 31.8441 58.0081 31.8441C59.5791 31.8441 60.9085 30.5751 60.9085 28.9437C60.9085 28.8228 61.0293 28.702 61.1502 28.702C61.271 28.702 61.3919 28.8228 61.3919 28.9437C61.3919 30.5147 62.7212 31.7837 64.2923 31.7837C64.4131 31.7837 64.534 31.9045 64.534 32.0254C64.534 32.1462 64.4131 32.2671 64.2923 32.2671C62.7212 32.2671 61.3919 33.536 61.3919 35.1675C61.3919 35.2883 61.3314 35.4092 61.1502 35.4092Z" fill="#156AB3"/>
<path d="M80.3654 50.1529C80.3049 50.1529 80.1841 50.0925 80.1841 49.9716C80.1841 48.9444 79.3381 48.1589 78.3109 48.1589C78.2505 48.1589 78.1296 48.0985 78.1296 47.9776C78.1296 47.9172 78.1901 47.7963 78.3109 47.7963C79.3381 47.7963 80.1237 46.9504 80.1237 45.9836C80.1237 45.9232 80.1841 45.8023 80.3049 45.8023C80.3654 45.8023 80.4862 45.8627 80.4862 45.9836C80.4862 47.0108 81.3322 47.7963 82.3594 47.7963C82.4198 47.7963 82.5407 47.8568 82.5407 47.9776C82.5407 48.038 82.4803 48.1589 82.3594 48.1589C81.3322 48.1589 80.5466 49.0048 80.5466 49.9716C80.5466 50.0925 80.4862 50.1529 80.3654 50.1529Z" fill="#1D4A79"/>
<path d="M121.757 65.6217L121.697 83.145L101.938 71.7247V54.2014L121.757 65.6217Z" fill="#0078D4"/>
<path d="M121.757 65.6822L124.658 64.0507L124.597 81.574L121.697 83.1451L121.757 65.6822Z" fill="#156AB3"/>
<path d="M101.998 54.2015L104.898 52.6304L124.657 64.0508L121.757 65.6219L101.998 54.2015Z" fill="#0078D4"/>
<path d="M121.757 63.507L121.697 65.8636L101.938 54.4432V52.0866L121.757 63.507Z" fill="#45CAF2"/>
<path d="M121.757 63.507L124.597 61.9359V64.2925L121.697 65.8636L121.757 63.507Z" fill="#32B0E7"/>
<path d="M101.938 52.0866L104.838 50.5155L124.597 61.9359L121.757 63.5069L101.938 52.0866Z" fill="#50E6FF"/>
<path d="M107.617 61.5734L108.282 62.8424L105.08 64.6551L108.524 70.5164L107.497 71.0602L103.388 63.9904L107.617 61.5734Z" fill="#45CAF2"/>
<path d="M112.754 67.8576V70.9997L110.035 69.4287V66.2261L112.754 67.8576Z" fill="#E6E6E6"/>
<path d="M115.654 66.1053L119.762 73.2355L115.593 75.5921L114.928 74.3836L118.131 72.5708L114.687 66.6492L115.654 66.1053Z" fill="#45CAF2"/>
<path d="M103.146 53.416C103.448 53.5973 103.629 53.9598 103.629 54.262C103.629 54.5641 103.388 54.6849 103.146 54.5641C102.844 54.3828 102.663 54.0203 102.663 53.7181C102.602 53.416 102.844 53.2951 103.146 53.416Z" fill="#0078D4"/>
<path d="M104.656 54.2015C104.958 54.3828 105.14 54.7453 105.14 55.0474C105.14 55.3496 104.898 55.4704 104.656 55.3496C104.354 55.1683 104.173 54.8057 104.173 54.5036C104.173 54.2015 104.415 54.0202 104.656 54.2015Z" fill="#0078D4"/>
<path d="M106.167 55.2287C106.469 55.41 106.651 55.7725 106.651 56.0746C106.651 56.3768 106.409 56.4976 106.167 56.3768C105.865 56.1955 105.684 55.8329 105.684 55.5308C105.684 55.2287 105.865 55.1078 106.167 55.2287Z" fill="#0078D4"/>
<path opacity="0.06" d="M101.696 81.9366L103.146 81.1511C103.75 80.849 104.475 80.849 105.019 81.1511L121.334 90.3357C122.059 90.7587 122.059 91.7859 121.334 92.1485L120.669 92.5715C120.065 92.934 119.279 92.934 118.675 92.5715L101.635 82.7826C101.333 82.6013 101.333 82.1179 101.696 81.9366Z"/>
</svg>
