<svg data-slug-id="curly-brackets-blockchain" xmlns="http://www.w3.org/2000/svg" viewBox="0 0 48 48">
    <path d="M13.5 48C10.2975 48 7.94749 47.3025 6.44999 45.9075C4.95249 44.5125 4.2025 42.2412 4.2 39.0937V31.3312C4.20499 27.8662 2.805 26.1325 0 26.13V21.87C2.8175 21.87 4.22624 20.0438 4.22624 16.3913V9.11626C4.22624 6.00377 4.98749 3.70502 6.50999 2.22002C8.03249 0.735024 10.3625 -0.00497483 13.5 2.51678e-05V4.26377C10.685 4.26377 9.27749 5.90002 9.27749 9.17251V16.095C9.27749 20.2675 7.86874 22.875 5.05124 23.9175V24.0337C7.86624 24.9587 9.27499 27.5087 9.27749 31.6837V38.58C9.27749 40.3625 9.59874 41.6662 10.2412 42.4912C10.8837 43.3162 11.97 43.73 13.5 43.7325V48Z" fill="#0078D4"/>
    <path d="M34.5 43.7324C36.03 43.7324 37.115 43.3187 37.755 42.4912C38.3949 41.6637 38.7162 40.36 38.7187 38.58V31.6837C38.7187 27.5112 40.1237 24.9612 42.9337 24.0337V23.9175C40.1212 22.875 38.7162 20.2675 38.7187 16.095V9.17249C38.7187 5.89999 37.3125 4.26374 34.5 4.26374V0C37.6475 0 39.9799 0.742499 41.4974 2.2275C43.0149 3.7125 43.7749 6.01124 43.7774 9.12374V16.3987C43.7774 20.0512 45.1824 21.8775 47.9924 21.8775V26.13C45.1824 26.13 43.7774 27.8637 43.7774 31.3312V39.1012C43.7774 42.2462 43.0274 44.5174 41.5274 45.9149C40.0274 47.3124 37.685 48.0074 34.5 47.9999V43.7324Z" fill="#0078D4"/>
    <path fill-rule="evenodd" clip-rule="evenodd" d="M25.0234 13.4926V22.9873L32.4773 23.0022V31.6636C33.6421 32.0756 34.4766 33.1867 34.4766 34.4926C34.4766 36.1495 33.1335 37.4926 31.4766 37.4926C29.8198 37.4926 28.4766 36.1495 28.4766 34.4926C28.4766 33.1861 29.3118 32.0747 30.4773 31.663V24.9982L17.4579 24.9722L17.5032 31.6562C18.679 32.0623 19.5234 33.1789 19.5234 34.4926C19.5234 36.1495 18.1803 37.4926 16.5234 37.4926C14.8666 37.4926 13.5234 36.1495 13.5234 34.4926C13.5234 33.194 14.3486 32.0881 15.5032 31.6705L15.4443 22.9682L23.0234 22.9833V13.4926H25.0234Z" fill="#50E6FF"/>
    <path d="M24.0234 16.4927C25.6803 16.4927 27.0234 15.1495 27.0234 13.4927C27.0234 11.8358 25.6803 10.4927 24.0234 10.4927C22.3665 10.4927 21.0234 11.8358 21.0234 13.4927C21.0234 15.1495 22.3665 16.4927 24.0234 16.4927Z" fill="#0078D4"/>
    <clipPath>
        <rect width="48" height="48" fill="white"/>
    </clipPath>
</svg>
