<svg data-slug-id="curly-bracket-shapes" xmlns="http://www.w3.org/2000/svg" viewBox="0 0 48 48">
<path d="M13.9086 48C10.5811 48 8.13993 47.2912 6.58494 45.8737C5.02995 44.4562 4.25371 42.1462 4.25621 38.9437V31.2262C4.25621 27.8087 2.83748 26.1 0 26.1V21.9C2.83498 21.9 4.25371 20.1 4.25621 16.5V9.27374C4.25621 6.10874 5.0462 3.7725 6.62618 2.26499C8.20618 0.757499 10.6336 0.0025 13.9086 0V4.30874C10.9986 4.30874 9.54366 5.96374 9.54366 9.27374V16.5563C9.54366 20.4812 8.18993 22.9349 5.48245 23.9174V24.0262C8.18993 24.9013 9.54366 27.3012 9.54366 31.2262V38.4825C9.54366 40.2824 9.87616 41.5999 10.5411 42.4349C11.2061 43.27 12.3311 43.6888 13.9161 43.6913L13.9086 48Z" fill="#50E6FF"/>
<path d="M34.0913 43.6913C35.6738 43.6913 36.7988 43.2725 37.4663 42.4349C38.1338 41.5974 38.4663 40.2799 38.4638 38.4825V31.2262C38.4638 27.3012 39.8175 24.9013 42.525 24.0262V23.9174C39.8175 22.9349 38.4638 20.4812 38.4638 16.5563V9.27374C38.4638 5.96374 37.0088 4.30874 34.0988 4.30874V0C37.3663 0 39.7913 0.749999 41.3737 2.24999C42.9562 3.75 43.7462 6.08624 43.7437 9.25875V16.5C43.7437 20.1 45.1625 21.9 47.9999 21.9V26.1C45.165 26.1 43.7462 27.8087 43.7437 31.2262V38.9437C43.7437 42.1462 42.9675 44.4562 41.415 45.8737C39.8625 47.2912 37.4213 48 34.0913 48V43.6913Z" fill="#0078D4"/>
<path d="M29 5H20V14H29V5Z" fill="#0078D4"/>
<path d="M30.0001 25.5003C30.0001 22.4627 27.5376 20.0002 24.5 20.0002C21.4625 20.0002 19 22.4627 19 25.5003C19 28.5379 21.4625 31.0004 24.5 31.0004C27.5376 31.0004 30.0001 28.5379 30.0001 25.5003Z" fill="#50E6FF"/>
<path d="M29 36.0004H20V45.0004H29V36.0004Z" fill="#0078D4"/>
</svg>
