<svg data-slug-id="currency-variation-graph-alt" xmlns="http://www.w3.org/2000/svg" viewBox="0 0 60 60">
    <path d="M12.6398 15.7666H0V44.114H12.6398V15.7666Z" fill="#50E6FF"/>
    <path d="M28.4159 6.45016H15.7971V44.2187H28.4159V6.45016Z" fill="#50E6FF"/>
    <path d="M44.1818 0H31.6051V44.2422H44.1923V0H44.1818Z" fill="#50E6FF"/>
    <path d="M59.979 31.6211H47.4023V44.2422H59.9685V31.6211H59.979Z" fill="#50E6FF"/>
    <path d="M59.9786 47.3242H9.82971V50.4716H59.9697V47.3242H59.9786Z" fill="#50E6FF"/>
    <path d="M14.2408 59.9906C22.0604 59.9906 28.3961 53.6538 28.3961 45.8327C28.3961 38.0116 22.0604 31.6748 14.2408 31.6748C6.42115 31.6748 0.0854492 38.0116 0.0854492 45.8327C0.0854492 53.6538 6.42115 59.9906 14.2408 59.9906Z" fill="#0078D4"/>
    <path d="M17.944 46.0641C17.3547 45.443 16.3759 44.8851 14.9972 44.3799V40.843C16.0917 40.9904 17.0705 41.2957 17.944 41.8325V39.3062C17.2915 38.9378 16.3128 38.7167 14.9972 38.6535V36.9483H13.6185V38.6851C12.524 38.7693 11.5978 39.1588 10.9032 39.8641C10.1981 40.5693 9.82971 41.4009 9.82971 42.3904C9.82971 43.3799 10.1139 44.1483 10.7032 44.7693C11.261 45.3799 12.2398 45.9483 13.6185 46.443V49.843C13.0607 49.8115 12.4082 49.643 11.6925 49.3904C10.9348 49.1167 10.398 48.8641 10.0612 48.5799V51.1588C11.1347 51.7273 12.3029 52.0325 13.5975 52.0325V53.9904H14.9762V51.9799C16.2391 51.8325 17.1863 51.443 17.8388 50.822C18.4808 50.2115 18.8176 49.3588 18.8176 48.3272C18.8176 47.4115 18.5334 46.6536 17.944 46.0641ZM13.6185 43.822C12.7555 43.3904 12.324 42.8641 12.324 42.1904C12.324 41.4641 12.7555 41.0114 13.6185 40.843V43.822ZM14.9762 49.822V46.9904C15.8707 47.3904 16.3233 47.8536 16.3233 48.4746C16.3233 49.2009 15.8707 49.6536 14.9762 49.822Z" fill="#50E6FF"/>
</svg>
