<svg data-slug-id="currency-variation-graph" xmlns="http://www.w3.org/2000/svg" viewBox="0 0 48 48">
    <path d="M10.1119 12.6133H0V35.2912H10.1119V12.6133Z" fill="#0078D4"/>
    <path d="M22.7327 5.16016H12.6377V35.375H22.7327V5.16016Z" fill="#0078D4"/>
    <path d="M35.3455 0H25.2842V35.3938H35.3539V0H35.3455Z" fill="#0078D4"/>
    <path d="M47.9832 25.2969H37.9219V35.3937H47.9748V25.2969H47.9832Z" fill="#0078D4"/>
    <path d="M47.9828 37.8594H7.86377V40.3773H47.9758V37.8594H47.9828Z" fill="#0078D7"/>
    <path d="M11.3926 47.9925C17.6483 47.9925 22.7169 42.923 22.7169 36.6662C22.7169 30.4093 17.6483 25.3398 11.3926 25.3398C5.13692 25.3398 0.0683594 30.4093 0.0683594 36.6662C0.0683594 42.923 5.13692 47.9925 11.3926 47.9925Z" fill="#50E6FF"/>
    <path d="M14.3552 36.8512C13.8837 36.3544 13.1007 35.9081 11.9978 35.5039V32.6744C12.8734 32.7923 13.6564 33.0365 14.3552 33.466V31.4449C13.8332 31.1502 13.0502 30.9733 11.9978 30.9228V29.5586H10.8948V30.9481C10.0192 31.0154 9.27825 31.327 8.72256 31.8912C8.15845 32.4554 7.86377 33.1207 7.86377 33.9123C7.86377 34.7039 8.0911 35.3186 8.56259 35.8155C9.00883 36.3039 9.79184 36.7586 10.8948 37.1544V39.8744C10.4486 39.8491 9.92655 39.7144 9.35403 39.5123C8.74782 39.2934 8.31842 39.0912 8.049 38.8639V40.927C8.90779 41.3818 9.84236 41.626 10.878 41.626V43.1923H11.9809V41.5839C12.9913 41.466 13.749 41.1544 14.271 40.6576C14.7846 40.1691 15.054 39.487 15.054 38.6618C15.054 37.9291 14.8267 37.3228 14.3552 36.8512ZM10.8948 35.0576C10.2044 34.7123 9.8592 34.2912 9.8592 33.7523C9.8592 33.1712 10.2044 32.8091 10.8948 32.6744V35.0576ZM11.9809 39.8576V37.5923C12.6966 37.9123 13.0586 38.2828 13.0586 38.7797C13.0586 39.3607 12.6966 39.7228 11.9809 39.8576Z" fill="#0078D4"/>
</svg>
