<svg data-slug-id="currency-graph-alt" xmlns="http://www.w3.org/2000/svg" viewBox="0 0 75 74">
	<path d="M16.4059 0H0.989746V54.7272H16.4059V0Z" fill="#0078D4"/>
	<path d="M36.0415 7.95787H20.4761V54.5374H36.0415V7.95787Z" fill="#0078D4"/>
	<path d="M55.704 21.5826H40.3008V54.7272H55.7169V21.5826H55.704Z" fill="#0078D4"/>
	<path d="M74.974 38.9979H59.4604V54.5634H74.961V38.9979H74.974Z" fill="#0078D4"/>
	<path d="M74.9746 58.367H13.1152V62.2486H74.9637V58.367H74.9746Z" fill="#0078D7"/>
	<path d="M18.5546 73.9845C28.2002 73.9845 36.0154 66.1693 36.0154 56.5236C36.0154 46.878 28.2002 39.0628 18.5546 39.0628C8.90893 39.0628 1.09375 46.878 1.09375 56.5236C1.09375 66.1693 8.90893 73.9845 18.5546 73.9845Z" fill="#50E6FF"/>
	<path d="M23.1244 56.8092C22.3974 56.0433 21.1901 55.3553 19.4894 54.7321V50.3702C20.8395 50.5519 22.0469 50.9284 23.1244 51.5905V48.4748C22.3195 48.0204 21.1122 47.7478 19.4894 47.6699V45.5668H17.7888V47.7088C16.4386 47.8127 15.2962 48.293 14.4394 49.1628C13.5696 50.0326 13.1152 51.0582 13.1152 52.2785C13.1152 53.4988 13.4657 54.4465 14.1927 55.2124C14.8808 55.9654 16.0881 56.6664 17.7888 57.2766V61.4698C17.1007 61.4308 16.2958 61.2231 15.4131 60.9116C14.4783 60.574 13.8163 60.2625 13.4008 59.9119V63.0925C14.725 63.7936 16.166 64.17 17.7628 64.17V66.5847H19.4634V64.1051C21.0213 63.9234 22.1897 63.443 22.9946 62.6771C23.7865 61.9242 24.2019 60.8726 24.2019 59.6004C24.2019 58.4709 23.8514 57.5362 23.1244 56.8092ZM17.7888 54.0441C16.7242 53.5118 16.192 52.8627 16.192 52.0318C16.192 51.1361 16.7242 50.5779 17.7888 50.3702V54.0441ZM19.4634 61.4438V57.9517C20.5669 58.445 21.1251 59.0162 21.1251 59.7821C21.1251 60.6779 20.5669 61.2361 19.4634 61.4438Z" fill="#0078D4"/>
</svg>
