<svg data-slug-id="customize" xmlns="http://www.w3.org/2000/svg" viewBox="0 0 48 48">
    <path d="M43.6465 43.6563H4.24414V4.25391H43.6465V43.6563ZM5.51818 42.3907H42.3893V5.51951H5.51818V42.3907V42.3907Z" fill="#50E6FF"/>
    <path d="M35.4705 12.6052H12.4956V35.4029H35.4705V12.6052Z" fill="#50E6FF"/>
    <path d="M18.2754 30.4015C18.2754 27.229 20.8403 24.6641 24.0128 24.6641C27.1852 24.6641 29.7502 27.229 29.7502 30.4015H18.2754Z" fill="#0078D4"/>
    <path d="M27.2861 20.4944C27.2861 22.2915 25.8264 23.7512 24.0293 23.7512C22.2321 23.7512 20.7725 22.2915 20.7725 20.4944C20.7725 18.6972 22.2321 17.2375 24.0293 17.2375C25.8264 17.2375 27.2861 18.6972 27.2861 20.4944Z" fill="#0078D4"/>
    <path d="M39.1779 8.87891L46.7715 8.87891V1.28531L39.1779 1.28531V8.87891Z" fill="#0078D4"/>
    <path d="M26.5319 8.87891L34.1255 8.87891V1.28531L26.5319 1.28531V8.87891Z" fill="#0078D4"/>
    <path d="M13.8761 8.87891L21.4697 8.87891V1.28531L13.8761 1.28531V8.87891Z" fill="#0078D4"/>
    <path d="M1.21988 8.87891L8.81348 8.87891L8.81348 1.28531L1.21988 1.28531L1.21988 8.87891Z" fill="#0078D4"/>
    <path d="M39.2628 46.933H46.8564V39.3394H39.2628V46.933Z" fill="#0078D4"/>
    <path d="M26.6164 46.933H34.21V39.3394H26.6164V46.933Z" fill="#0078D4"/>
    <path d="M13.9601 46.933H21.5537V39.3394H13.9601V46.933Z" fill="#0078D4"/>
    <path d="M1.30386 46.933H8.89746L8.89746 39.3394H1.30386L1.30386 46.933Z" fill="#0078D4"/>
    <path d="M39.2628 34.3633H46.8564V26.7697H39.2628V34.3633Z" fill="#0078D4"/>
    <path d="M1.30386 34.3633H8.89746L8.89746 26.7697H1.30386L1.30386 34.3633Z" fill="#0078D4"/>
    <path d="M39.2628 21.5352H46.8564V13.9416H39.2628V21.5352Z" fill="#0078D4"/>
    <path d="M1.30386 21.5352H8.89746L8.89746 13.9416H1.30386L1.30386 21.5352Z" fill="#0078D4"/>
</svg>
