<svg data-slug-id="dark-visibility-eye" xmlns="http://www.w3.org/2000/svg" viewBox="0 0 48 48">
<path d="M47.7813 23.815C45.4419 20.6005 42.5219 17.9665 38.2806 15.341C33.4587 12.4209 28.7799 11.125 23.8066 11.125C18.3956 11.125 14.6004 12.564 9.62705 15.341C5.83182 17.5373 2.3227 20.794 0.134766 23.8655C0.134766 24.0086 0.134766 24.3031 0.277823 24.5976C2.76029 28.1068 5.0997 29.815 9.77852 32.7351C14.7519 35.6552 19.4223 37.1194 24.1011 37.1194C29.2175 37.1194 34.1909 35.6552 39.0127 32.592C42.5219 30.2526 45.5934 27.6187 47.7813 24.5556C47.9328 24.4041 47.9328 23.9665 47.7813 23.815Z" fill="#0078D4"/>
<path d="M23.9999 35.4099C30.3252 35.4099 35.4529 30.2822 35.4529 23.9569C35.4529 17.6316 30.3252 12.5039 23.9999 12.5039C17.6746 12.5039 12.5469 17.6316 12.5469 23.9569C12.5469 30.2822 17.6746 35.4099 23.9999 35.4099Z" fill="#50E6FF"/>
<path d="M24 27.9141C26.1844 27.9141 27.9552 26.1434 27.9552 23.959C27.9552 21.7747 26.1844 20.0039 24 20.0039C21.8157 20.0039 20.0449 21.7747 20.0449 23.959C20.0449 26.1434 21.8157 27.9141 24 27.9141Z" fill="#0078D4"/>
</svg>
