<svg data-slug-id="datacenters-swiss" xmlns="http://www.w3.org/2000/svg" viewBox="0 0 96 101">
  <path d="M93.3057 52.2203L92.4148 52.5328L91.9033 51.0054L92.7447 50.311L92.2169 49.4606L93.0913 48.8531L93.0253 48.2976L92.7447 47.7075L93.0913 47.5339L93.6191 46.0064L93.4542 44.9302C93.4873 44.878 93.5202 44.8607 93.5366 44.8261C93.6358 44.7045 93.6852 44.6004 93.6687 44.4441C93.6522 44.2879 93.6687 44.2184 93.7347 44.097C93.8007 43.9929 93.8337 43.9581 93.8501 43.6456C93.8668 43.4721 93.8832 43.3507 93.9492 43.2291L93.2398 42.7432L92.4148 42.4654L92.5138 41.962L91.6725 41.3024L91.4415 41.5454L91.062 41.5628L90.7485 41.9447L90.4844 42.8646L90.0885 43.0036L90.402 43.7151L89.9235 43.7672L88.7852 43.4721L88.6367 44.4095L88.7028 45.5551L87.9767 45.6592L87.3664 46.1104L86.2444 46.3188L86.063 46.0758L85.8649 45.8155L85.0896 45.7982L84.446 44.6872L83.8357 44.4963L83.5716 44.3052H82.4827L81.5094 43.6283L81.4598 42.6389L81.8723 41.7017L81.4763 41.4065L81.5919 40.9726L81.2784 40.938L80.9318 41.2851L80.5194 41.3024L79.4801 40.5387H78.8861L77.3518 39.9486L76.4114 40.1916L75.8999 39.8792L75.009 40.313L74.6295 39.7229L73.4582 40.2784C73.4582 40.1741 73.5242 40.0527 73.6396 39.8965C73.7056 39.827 73.7716 39.7402 73.8541 39.6361C74.3325 39.1155 74.3161 38.8725 74.1347 38.2129C74.0191 37.7788 73.8706 37.3622 73.7056 36.9283C73.4913 36.3728 73.5242 36.0778 73.6891 35.5918C73.8376 35.1058 74.2665 33.9948 74.4646 33.5782C74.5966 33.3005 74.712 33.0402 74.877 32.7799C74.9595 32.6583 75.0419 32.5369 75.1575 32.4326C75.471 32.1028 75.5864 31.7905 75.6524 31.4259C75.7185 31.0614 75.867 30.8184 76.164 30.4886L76.7578 30.4192L77.0877 29.829L76.6589 29.4125C76.6753 29.2041 76.6753 28.9959 76.6589 28.7529C76.626 28.3882 76.626 28.2841 76.7249 28.1452C76.7743 28.076 76.8074 27.9892 76.8238 27.8676L75.2894 27.3296L75.009 26.6525C74.9595 26.6179 74.9266 26.5832 74.877 26.5484C74.8605 26.5311 74.8441 26.4962 74.811 26.4789L74.7945 26.4616C74.7781 26.4443 74.7616 26.4443 74.7616 26.427C74.7616 26.427 74.7451 26.427 74.7451 26.4095C74.7285 26.4095 74.712 26.4095 74.712 26.3921H74.6956C74.6791 26.3921 74.646 26.3921 74.6295 26.4095C74.5635 26.427 74.481 26.4962 74.349 26.5832C74.1015 26.7568 73.9201 26.8436 73.6231 26.9998C73.3592 27.1385 73.1611 27.0517 73.0126 26.8087C72.8477 26.5657 72.6498 26.4095 72.4353 26.3748C72.2207 26.3227 72.2207 26.2534 72.2538 26.1491C72.2868 26.045 72.2703 25.9929 72.0722 25.8366C71.8908 25.6979 71.5444 25.4201 71.3134 25.264C71.0824 25.1078 71.0329 24.9516 71.0989 24.7085C71.1649 24.4828 71.1485 24.3961 70.8183 24.153C70.4884 23.91 69.482 23.1983 69.1027 22.9901C68.7232 22.7817 67.6507 22.2089 67.3044 22.0702C67.2712 22.0529 67.2383 22.0353 67.2052 22.018L66.7432 21.7923L66.5123 21.532C66.2979 21.5493 66.1823 21.5841 66.0174 21.532L65.4069 21.2543L64.0705 20.994L63.4602 21.1502L61.9754 22.0353L61.3484 22.1221L60.7215 21.9834C60.738 21.9486 60.8369 21.9486 60.9854 21.9834C61.035 22.0007 61.0679 22.0007 61.1175 22.0007L61.1339 21.9312L60.7048 21.1849L60.4739 21.1154L60.507 20.7337L60.9029 20.6988L60.804 20.3691H60.3585L59.6986 19.9525L59.517 19.345L58.824 19.9178V20.3517L59.4676 20.5079L59.2695 21.3065C59.0881 21.2717 58.9396 21.1676 58.6755 21.0286C58.5106 20.9419 58.2302 20.8897 57.9496 20.8897L58.1806 20.074L57.7351 19.9351L57.6526 19.6574L57.8836 19.1887L58.2467 19.0673L57.6857 18.5639L57.3063 18.6854L56.6133 17.5051L56.2998 17.6439L56.4483 18.3729L56.1349 18.6854L55.8049 18.5812L55.7389 17.4356L54.6171 17.3835L54.7985 18.3209L54.5179 18.0431L53.1651 18.4597C53.1322 18.5118 53.1158 18.5465 53.0662 18.5986C52.7856 19.0152 52.6042 19.2235 52.4228 19.3797L52.3732 19.6921L52.2578 20.1608L51.9277 20.4038C51.8619 20.5079 51.7627 20.6469 51.6638 20.7683L51.9773 21.2195L51.6638 21.532L51.8123 21.775L52.8848 22.1048V22.5735L54.254 22.2959L54.0562 21.9139L54.9139 21.6188L55.343 21.48L55.7554 21.8272C55.7554 21.9486 55.8214 22.0353 55.9203 22.1048C56.2834 22.3305 55.706 23.0074 55.706 22.4173C55.706 21.9834 55.2109 22.2784 55.4584 22.9206C55.6729 23.4588 55.5739 23.7018 55.244 24.0141L54.8645 23.8754L55.0295 23.3894L54.5179 23.0942L53.8252 22.8165L53.5611 23.2331L53.1651 23.2853L52.6538 23.6324L53.1322 24.535C53.0497 24.5696 52.9506 24.6044 52.8352 24.6564C52.4888 24.8126 52.2907 24.8648 52.1422 24.8473C52.0268 24.8299 51.9444 24.778 51.8452 24.7259C51.5978 24.5869 51.4988 24.6218 51.3339 24.7953C51.1689 24.9689 51.0039 24.9342 50.6409 24.8994C50.2779 24.8821 50.146 24.7953 49.915 24.5869C49.6676 24.3961 49.5024 24.1704 49.5191 23.9622C49.5355 23.7538 49.4695 23.7018 49.3046 23.6497C49.1231 23.5975 48.7601 23.5108 48.5291 23.5281C48.3971 23.6151 48.2486 23.667 48.1496 23.6324C48.1002 23.6151 48.0671 23.5802 48.0342 23.5108C47.9351 23.2853 47.8032 23.2331 47.5391 23.5281C47.2257 23.8754 47.0113 24.0316 46.7308 24.1704C46.5987 24.2398 46.4669 24.292 46.3019 24.3614C45.906 24.5175 45.8068 24.5175 45.7243 24.7605C45.6419 25.0035 45.5429 25.1946 45.279 25.1251C45.0149 25.0556 44.8995 25.1251 44.685 25.2292C44.3551 25.4028 44.2726 25.4201 43.8271 25.2987C43.5632 25.2292 43.233 25.2119 42.9362 25.316C42.8702 25.3333 42.8206 25.3681 42.7546 25.3854C42.2268 25.6631 41.7977 25.4201 41.7648 24.8648C41.7317 24.4655 41.4514 24.1704 40.9894 24.3093C40.6924 24.3961 40.6924 24.4482 40.3954 24.3961C40.0984 24.3439 40.049 24.3787 39.9665 24.778C39.884 25.1771 39.587 25.3333 39.1746 25.4376C38.762 25.5417 38.3992 25.6285 38.0361 25.7674C37.9865 25.7847 37.9865 25.7847 37.9372 25.802C37.6073 26.0624 37.3763 26.1318 37.1617 25.9929C37.0461 25.9236 36.9143 25.7847 36.7493 25.5763C36.6502 25.4549 36.5677 25.3508 36.4688 25.2987L37.4256 24.8994L37.4092 24.0316L36.7493 24.0141C36.6502 24.2225 36.4523 24.4828 36.2213 24.6391L35.5779 24.2571L34.786 25.0383L33.664 25.8542L34.258 26.2881L33.7631 26.5484L34.0106 27.0171L33.3012 27.5551L32.4432 27.0171L32.2287 27.5551L32.8886 27.8503L32.6411 28.1452L32.1133 28.7702L31.3543 29.0827L30.4468 28.857L29.5064 28.9264L28.6816 29.4125L28.4342 28.7529L27.8072 28.9264L27.1636 28.7875L27.5927 27.451L27.7081 27.1734L26.9822 27.2428L26.3553 26.8782L25.217 27.2948L24.2766 26.826L23.5176 27.1907L23.699 28.475L22.6265 29.0478L22.5441 29.8812L22.0987 29.8985L21.9338 30.4886L21.5047 30.6795L21.3727 31.4953L21.8678 31.4086L22.5441 31.4432L23.2701 31.3045L24.1114 31.0614L24.7383 31.2004L24.8539 32.0508L24.689 32.2938L24.0125 32.3979L23.9631 33.127C23.93 33.1443 23.8971 33.1791 23.864 33.2138C23.7486 33.3179 23.6001 33.3527 23.402 33.3873C23.2041 33.4046 23.0556 33.4914 22.8246 33.4914C22.5936 33.5089 22.5772 33.5609 22.6432 33.6998C22.7092 33.8387 22.7092 34.0123 22.6926 34.3073C22.6761 34.6024 22.6761 34.6544 22.7586 34.8106C22.8411 34.9495 22.8575 35.0017 22.6926 35.1058C22.1648 35.4183 21.5707 36.043 21.4222 36.2166C21.3562 36.286 21.2737 36.3728 21.2408 36.4596C21.2244 36.5464 21.1748 36.6331 21.0923 36.7199C21.0098 36.8069 20.9109 36.8588 20.7624 36.9629C20.6139 37.0672 20.6303 37.1192 20.6799 37.2235C20.7293 37.2927 20.7128 37.2927 20.7457 37.3795C20.7624 37.449 20.7128 37.5184 20.6799 37.5533C20.5643 37.6747 20.3993 37.7788 20.2179 37.9523C20.0363 38.1434 19.8053 38.4037 19.5414 38.4905C19.2775 38.5773 19.0135 38.7162 18.7825 38.8376C18.568 38.9592 18.5185 39.0979 18.5845 39.2715C18.6175 39.3758 18.568 39.4626 18.4855 39.5145C18.4196 39.5494 18.337 39.584 18.2381 39.6013C18.0071 39.6361 17.9246 39.6881 17.8091 39.9138C17.7101 40.1049 17.6441 40.1568 17.4956 40.2784L18.1061 40.7991L17.6441 41.2503L17.2647 41.2678L16.7367 41.6495L16.4892 42.3264L15.9613 42.6911L15.6478 42.6043L13.833 43.3853L13.6515 43.0903L13.338 43.3158L12.7771 44.1665L12.2491 44.4963L12.9256 45.7287L12.8596 46.8743L12.1667 48.1414L12.2657 48.4712L12.7276 48.8356L12.5956 49.4432L12.1337 49.9118L11.4572 50.1028L11.2098 50.6756L10.0219 51.3699L8.96596 51.9254L8.28954 52.8107L5.6828 55.2928L6.55721 56.23C6.50772 56.2995 6.45821 56.3516 6.40872 56.3863C6.30974 56.4904 6.21074 56.612 6.06226 56.7682C5.94676 56.8896 5.81477 57.0632 5.6993 57.1848L5.33632 58.2436L4.84137 58.7295L5.05584 59.4239L4.5279 60.1876L5.28683 60.4133L6.77168 61.6803L5.81477 63.2774L5.6993 63.8848L5.30333 64.3014L5.74879 65.2734L5.35282 65.742L5.03935 65.4297L3.98346 65.8114L3.38952 65.985L3.14203 66.3323L2.77908 66.2801L2.43261 66.9051L3.10904 67.3042L2.86158 67.7902C2.71309 67.9118 2.63059 68.1721 2.46561 68.5541C2.39962 68.7101 2.31712 68.8144 2.23462 68.8839L2.28413 69.1094L3.05955 68.606L3.83498 68.8664L4.11546 68.6755L4.18144 68.3803L5.02285 68.363L5.12185 68.6582L5.81477 68.7101L7.06865 67.9118L6.93668 67.5993L7.91008 66.7489L8.14105 66.8356L9.14746 66.2455L9.49392 65.4297L9.19695 65.0131L8.68551 65.5338L8.04207 64.5617L8.38853 64.18L8.15755 63.6418L7.7451 63.3641L7.94307 62.9822L8.15755 62.5483L8.38853 62.0969L10.1044 60.7604L11.9027 60.4479L13.8495 59.1982L17.1492 59.3198L19.9209 60.1529L19.5909 61.177L19.657 61.5589L18.9805 62.0449L18.8815 62.3572L19.2115 63.0168L19.822 63.555L20.3169 64.2841L20.6303 64.6312V65.4297L20.2673 65.5684L19.888 66.1066L19.4589 67.0092L19.5084 67.825L19.228 68.2416L19.393 69.1094L19.7395 69.2656H20.1684L21.4553 69.5435L21.1912 70.0988L21.1252 70.9668L20.8118 71.7131L21.2244 71.9735L22.0656 71.2271L22.4287 71.7653L22.6926 72.1992L23.2041 73.258L23.5011 73.3967L23.8804 73.9176L23.5836 74.2647L23.864 74.6986L24.2599 74.7334L24.1445 75.1846L24.3591 75.7228L24.7383 76.2954L25.0189 76.9377L25.3488 77.3543L25.4478 77.7884H25.8439L26.3057 77.2502L26.6523 77.198L27.0811 77.6321L27.4113 77.7016L27.5596 77.2848L28.1207 76.6947L28.5331 76.7468L28.7476 76.8682L29.49 75.8269L30.0509 76.174L30.6118 76.0872L31.3212 76.6252L31.6842 76.2435L32.0473 76.1394L32.8227 75.3755L33.1856 75.3409L33.2187 74.9938L33.4826 74.7681L33.895 74.5945L34.324 74.7681L34.6211 74.5424V73.9522L34.9345 73.796H35.2313L35.3963 74.1952L35.8583 74.3342L36.4359 74.3167L36.9637 74.1431L37.3927 74.6465L38.0032 74.9243L37.9536 75.4103L38.1186 75.7053H38.5477L38.7455 75.3236L39.0755 75.2887L39.8509 75.9832L40.1975 75.6707L41.1708 75.9137L41.4347 75.7228L41.2533 75.2714L41.5007 74.2126L41.9958 73.5703L42.3257 73.4316L43.695 73.4835L44.157 72.9282L44.289 72.2165L44.5694 71.9388L44.388 71.1749L44.6685 70.2377L46.1203 69.9252L46.3348 69.2483L47.0938 68.8317L46.9453 68.3284L47.2917 67.7034L47.0113 67.2522L46.6483 66.2801L46.1038 65.69L45.5429 65.204L46.7803 63.9716L47.1103 64.2841L48.1496 63.798L48.5456 62.8608L49.156 62.5135L49.3046 62.1142L49.8326 61.9755L50.3935 61.3332L50.2119 60.8472L49.9315 60.6736L49.9811 60.2397L50.5913 60.0486L51.3339 59.3198L51.6638 59.2155L52.9341 58.7989L53.1982 59.3023L53.1322 60.1703L53.3136 60.5347L53.1816 62.9649L52.5878 63.8675L53.1158 64.7874L52.9177 65.447L53.4292 65.6032L53.4457 65.9677L53.8416 66.0718L54.4025 66.4016L54.7656 66.4885L56.1844 68.7623L56.4483 69.4392L57.1577 69.2829L58.2962 69.9425L58.5106 70.0815L58.7582 69.6476L59.0881 69.3872L59.22 69.8906L60.2264 70.2377L60.4905 69.9774L61.3814 70.6543L61.3153 71.1576L60.738 72.2165L60.2429 72.4768L60.045 73.3273C60.1275 73.31 60.21 73.2926 60.2924 73.2926C60.4245 73.2926 60.5895 73.3273 60.9029 73.4835C61.1999 73.6397 61.3318 73.8828 61.4638 74.0912C61.5959 74.282 61.6948 74.3688 61.8762 74.4036C61.8762 74.4036 61.9587 74.3861 62.0412 74.3688L62.2557 74.3515L62.3547 74.5772L62.2888 75.1673L62.4538 75.4623L62.7673 75.5839L62.8002 75.7053L62.8662 75.8964L63.2786 77.1288L62.7013 77.8057V78.2396L63.6252 77.8057L64.747 78.5347L65.1594 78.448L65.5885 76.9725L66.3308 75.9483L65.6379 75.306L64.978 75.0805L64.747 74.1779L64.3346 73.7787L65.0276 73.1537L64.978 72.9628L64.846 72.5809L64.516 72.0602L64.7799 71.4874L65.8853 70.9319L66.1823 70.3072L65.8853 69.3005L66.8093 68.7623L67.3044 68.12L67.5683 67.8077L68.2941 67.3736L68.3931 66.6446L68.7892 66.1587V65.7941L69.3501 65.7768L69.4162 64.7701L69.9275 63.798L70.2905 62.93L70.2245 62.0969L69.7955 61.6109L69.8121 60.0835L69.2016 59.4758L69.1685 59.0941L69.482 59.0419L69.713 58.7816L69.7955 57.5665L70.4555 57.2367L71.4784 57.1326L71.5444 57.5319L71.9733 58.122L72.5013 58.3304L72.9468 57.3062L73.4913 56.9937L73.5242 57.6533L73.4913 58.4864L73.4086 59.7189L73.6067 60.2397L73.5737 61.0902L74.2996 61.4373L74.7781 62.5135L75.339 63.3641L75.5535 63.2598L76.1804 63.5723L76.5433 63.5896L76.7413 63.8153H77.1702L78.0612 63.3466L78.4407 63.6418L78.8202 63.555L79.0841 62.9127L78.8696 62.5829L79.051 62.1142L79.3645 61.7498L79.9914 62.2531L81.2453 61.42L81.9714 61.2811L82.6148 60.7082L83.0437 61.0729L83.5716 60.8299L83.8357 61.2986L84.4296 61.663L84.2317 62.0449V62.4615L84.5945 62.8433L84.5121 63.6764L85.304 63.8502L85.832 64.1624L85.8815 64.6833L85.6339 65.2386L86.2115 65.5859L86.4589 65.2386L87.5147 65.2734L88.2077 64.3535L88.1583 63.9889L87.8613 63.7807L87.7788 63.2252L87.3004 62.7913L86.8549 62.149L86.7724 61.5935L87.1354 61.2291L87.1519 60.6736L87.4818 60.396L87.7788 60.3611L87.8613 59.528L87.2012 58.99L86.2939 59.4239L85.436 58.4691L85.4525 58.0874L85.37 57.7228L85.3204 56.8202L85.4689 56.2473L85.3371 55.6572L85.799 55.1539L86.2939 54.4248L86.4093 53.4181L87.0198 53.557L88.0923 52.8799L88.2077 52.9321C88.2902 52.9147 88.4057 52.9321 88.5707 53.0362C88.6203 53.071 88.6696 53.0883 88.7028 53.1229L88.8513 52.6023L89.1481 52.6196L89.544 53.3835L89.2637 53.8347L89.1976 54.2861L89.5276 54.5289L89.8575 54.4943L90.1545 54.7546L90.237 55.1192L91.2434 55.2406L91.458 55.0498H91.8868L92.5138 55.2928L92.7779 54.9976L93.5698 55.5704L93.9161 55.206L94.1802 54.3034L94.2627 53.366L94.4277 53.1751L93.3057 52.2203ZM57.3063 21.0113C57.1082 21.0635 56.9928 21.0981 56.8278 21.0459L56.7122 20.3344L57.5043 20.2129L57.6693 20.9419C57.5537 20.9592 57.4216 20.9767 57.3063 21.0113ZM64.0045 74.525L63.7571 74.421L63.6417 74.3861L63.8395 73.7092L63.9716 73.7614L64.0705 73.8481L64.1366 74.0738L64.0045 74.525Z" fill="#0078D7"/>
  <path d="M58.3113 37.4374C62.5118 37.4374 65.9171 33.8549 65.9171 29.4355C65.9171 25.0162 62.5118 21.4336 58.3113 21.4336C54.1106 21.4336 50.7056 25.0162 50.7056 29.4355C50.7056 33.8549 54.1106 37.4374 58.3113 37.4374Z" fill="#50E6FF"/>
  <path d="M58.3113 35.4045C61.4456 35.4045 63.9867 32.7311 63.9867 29.4336C63.9867 26.1358 61.4456 23.4624 58.3113 23.4624C55.1768 23.4624 52.6357 26.1358 52.6357 29.4336C52.6357 32.7311 55.1768 35.4045 58.3113 35.4045Z" fill="#0078D7"/>
  <path d="M58.3107 32.976C60.1696 32.976 61.6764 31.3907 61.6764 29.435C61.6764 27.4793 60.1696 25.894 58.3107 25.894C56.4521 25.894 54.9451 27.4793 54.9451 29.435C54.9451 31.3907 56.4521 32.976 58.3107 32.976Z" fill="#50E6FF"/>
  <path d="M8.96415 55.3633C4.75708 55.3633 1.3584 58.9389 1.3584 63.3652C1.3584 67.7912 4.75708 71.367 8.96415 71.367C13.1712 71.367 16.5699 67.7912 16.5699 63.3652C16.5534 58.9389 13.1547 55.3633 8.96415 55.3633ZM8.96415 69.3361C5.82945 69.3361 3.28871 66.6631 3.28871 63.3652C3.28871 60.0672 5.82945 57.394 8.96415 57.394C12.0988 57.394 14.6396 60.0672 14.6396 63.3652C14.6396 66.6631 12.0988 69.3361 8.96415 69.3361Z" fill="#50E6FF"/>
  <path d="M8.96383 66.8896C10.8226 66.8896 12.3295 65.3043 12.3295 63.3486C12.3295 61.3931 10.8226 59.8076 8.96383 59.8076C7.10501 59.8076 5.59814 61.3931 5.59814 63.3486C5.59814 65.3043 7.10501 66.8896 8.96383 66.8896Z" fill="#50E6FF"/>
</svg>
