<svg data-slug-id="database04" viewBox="0 0 49 49" xmlns="http://www.w3.org/2000/svg">
<path d="M25.7039 38.9237C25.181 38.9405 24.6498 38.949 24.1186 38.949H23.9921C13.6033 38.949 5.13721 36.0592 5.13721 32.3438V41.6113C5.13721 45.3183 13.6033 48.2165 23.9921 48.2165H24.1186C27.1374 48.2165 29.9706 47.9721 32.4835 47.5256C28.9419 46.0428 26.3278 42.816 25.7039 38.9237Z" fill="#0078D4"/>
<path d="M23.9926 35.5742H24.119C24.6419 35.5742 25.1647 35.5657 25.679 35.5489C26.4464 30.0726 31.1517 25.8517 36.852 25.8517C39.1119 25.8517 41.2115 26.5173 42.9823 27.6547V6.84489L42.8137 6.66797L5.1377 6.71852V28.969C5.1377 32.676 13.5954 35.5742 23.9926 35.5742Z" fill="#0078D4"/>
<path d="M23.9927 38.944H24.1192C24.6588 38.944 25.1817 38.9355 25.7045 38.9187C25.6117 38.3374 25.5611 37.7308 25.5611 37.1242C25.5611 36.5934 25.6033 36.0626 25.6707 35.5487C25.1564 35.5655 24.642 35.574 24.1107 35.574H23.9843C13.5955 35.574 5.12939 32.6842 5.12939 28.9688V32.3388C5.13783 36.0458 13.5955 38.944 23.9927 38.944Z" fill="#50E6FF"/>
<path d="M24.1107 22.938H23.9843C13.5955 22.938 5.12939 20.0482 5.12939 16.3328V19.7028C5.12939 23.4098 13.5955 26.308 23.9843 26.308H24.1107C34.626 26.308 42.9656 23.3003 42.9656 19.5848V16.2148C42.9656 19.9218 34.626 22.938 24.1107 22.938Z" fill="#50E6FF"/>
<path d="M42.9656 6.81945C42.9656 10.4085 34.5079 13.4247 24.1107 13.4247C13.722 13.4247 5.12939 10.4169 5.12939 6.81945C5.13783 3.2304 13.5955 0.222674 23.9927 0.222674C34.4995 0.214249 42.9656 3.22198 42.9656 6.81945Z" fill="#50E6FF"/>
<path d="M39.2217 6.46817C39.2217 8.90299 32.4589 10.866 24.2373 10.866C16.0157 10.866 9.12646 8.90299 9.12646 6.46817C9.12646 4.03334 15.8977 2.07031 24.1109 2.07031C32.3324 2.07031 39.2217 4.04176 39.2217 6.46817Z" fill="#0078D4"/>
<path d="M30.6376 39.3593C30.0136 37.708 30.0642 35.905 30.8062 34.2958C31.5314 32.6866 32.8553 31.4566 34.5081 30.8247C35.4778 30.454 36.4812 30.3276 37.5016 30.4372L37.2149 32.0548L40.8239 30.1002L38.1256 26.9492L37.8136 28.7185C36.4897 28.5584 35.1489 28.7269 33.9009 29.1987C31.8097 29.9906 30.1485 31.5493 29.2209 33.5797C28.2934 35.6186 28.2259 37.8933 29.0186 39.9827C29.5835 41.4824 30.5617 42.7882 31.8519 43.7318L32.1639 43.9677L33.201 42.5608L32.889 42.3249C31.8603 41.575 31.0845 40.5388 30.6376 39.3593Z" fill="#0078D7"/>
<path d="M44.6865 34.0612C44.1889 32.73 43.3541 31.559 42.2748 30.6406L41.1364 31.9549C41.9881 32.6795 42.6458 33.6062 43.0506 34.6762C44.3407 38.0968 42.6121 41.9301 39.1885 43.2192C38.6067 43.4382 37.9996 43.573 37.3671 43.6151L37.4599 41.8375L34.0869 44.1712L37.131 47.3137L37.2491 45.376C38.1176 45.3254 38.9693 45.1569 39.7872 44.8536C44.1215 43.2192 46.3139 38.3832 44.6865 34.0612Z" fill="#0078D7"/>
</svg>
