<svg data-slug-id="database06" viewBox="0 0 49 49" xmlns="http://www.w3.org/2000/svg">
<path d="M19.3873 39.0196C30.0792 39.0196 38.7467 30.3521 38.7467 19.6602C38.7467 8.96829 30.0792 0.300781 19.3873 0.300781C8.69534 0.300781 0.027832 8.96829 0.027832 19.6602C0.027832 30.3521 8.69534 39.0196 19.3873 39.0196Z" fill="#50E6FF"/>
<path d="M29.8794 27.4496V44.9059C29.8794 46.7585 33.9382 48.2153 38.9233 48.2153H38.9823C44.0179 48.2153 48.0178 46.7079 48.0178 44.8469V27.3906L29.8794 27.4496Z" fill="#0078D4"/>
<path d="M48.0182 27.4494C48.0182 29.2514 43.9509 30.7588 38.949 30.7588C33.947 30.7588 29.8208 29.2514 29.8208 27.4494C29.8208 25.6473 33.888 24.1484 38.89 24.1484C43.9509 24.1484 48.0182 25.6558 48.0182 27.4494Z" fill="#50E6FF"/>
<path d="M46.2161 27.2805C46.2161 28.5015 42.9572 29.4867 39.0079 29.4867C35.0501 29.4867 31.7407 28.5015 31.7407 27.2805C31.7407 26.0595 34.9996 25.0742 38.9489 25.0742C42.8983 25.0742 46.2161 26.0595 46.2161 27.2805Z" fill="#0078D4"/>
<path d="M45.8284 39.1208V35.9967H43.9758V37.9419C43.9758 38.0682 44.0011 38.1693 43.8916 38.1693H42.3843C42.1485 38.1693 42.1738 37.883 42.1738 37.883V35.9883H39.917L40.3128 36.2577V38.2703C40.3128 38.2703 40.2117 39.6261 41.4243 39.6261H43.7906C43.9758 39.6261 44.2116 39.4913 44.22 39.424C44.2284 39.3566 44.2453 39.9713 43.6306 40.0134H40.557V41.4618H44.1863C44.5484 41.4618 45.0621 41.4029 45.4158 40.8892C45.7358 40.4345 45.8284 40.0724 45.8284 39.8029C45.8284 39.5924 45.8284 39.1208 45.8284 39.1208Z" fill="#50E6FF"/>
<path d="M33.2983 36.9286V39.8253H31.6899V35.1855C31.6899 35.1855 31.8331 34.175 32.7594 34.175C33.6857 34.175 33.8878 34.3602 34.3172 35.1855C34.7551 36.0191 35.5972 37.5601 35.5972 37.5601C35.5972 37.5601 36.7424 34.9834 36.894 34.596C37.054 34.2086 37.5424 34.0992 38.0729 34.1413C38.595 34.175 39.1339 34.4613 39.1592 35.2023V39.8253H37.5508V36.9286C37.5508 36.9286 36.5656 39.1853 36.3803 39.4464C36.1951 39.7158 35.8919 39.8337 35.5551 39.8337C35.2183 39.8337 34.7467 39.7916 34.5278 39.3959C34.3088 38.9917 33.2983 36.9286 33.2983 36.9286Z" fill="#50E6FF"/>
<path d="M24.7599 19.5827C23.9179 19.9785 21.9305 20.349 19.598 20.5174C16.4739 20.7448 13.9055 20.5174 13.8718 20.0037C13.855 19.7511 15.1013 19.2206 16.4907 18.8164C13.8466 19.0522 11.9266 19.5911 11.9435 20.1637C11.9687 20.8542 14.8655 21.3342 18.4275 21.2163C21.9895 21.1069 24.861 20.45 24.8357 19.7595C24.8357 19.7006 24.8105 19.6416 24.7599 19.5827Z" fill="#0078D4"/>
<path d="M20.1286 22.9531C17.3413 23.2309 15.0256 22.9531 14.9666 22.3299C14.9413 22.111 15.2108 21.8752 15.6824 21.6562C14.5961 21.951 13.9224 22.3383 13.9393 22.7341C13.9645 23.492 16.4234 24.0225 19.4212 23.913C21.2569 23.8457 22.8737 23.5594 23.8506 23.1636L22.9664 22.4815C22.1664 22.6836 21.1896 22.852 20.1286 22.9531Z" fill="#0078D4"/>
<path d="M27.5468 26.8426C27.4626 27.0615 27.3447 27.3141 27.1763 27.4741C27.0416 27.6089 26.789 27.7183 26.5447 27.8025C25.7448 28.232 23.3112 28.552 20.3049 28.6194C19.9513 28.6278 19.5976 28.6278 19.2355 28.6278C15.0419 28.6278 11.3873 28.232 11.3873 27.6089C11.3873 27.2973 12.4736 26.9099 13.8293 26.6994L13.5346 26.4805C11.362 26.6826 9.77051 27.3225 9.77051 27.9541C9.77051 27.971 9.77051 27.9878 9.77893 28.0046C9.87998 28.7709 12.2462 29.1835 15.2946 29.3856C16.3135 29.4783 17.4587 29.4446 18.6124 29.4446C23.6648 29.4446 27.7573 28.493 27.7573 27.3141C27.7658 27.1457 27.69 26.9941 27.5468 26.8426Z" fill="#0078D4"/>
<path d="M28.9197 27.8945C28.566 29.1577 24.6672 30.2439 19.7494 30.2439C18.2337 30.2439 15.7327 30.1008 13.2822 29.8229C14.958 30.4713 16.5748 30.7492 19.8083 30.7492C24.9535 30.7492 29.0039 29.5618 29.0039 28.2145C29.0039 28.1135 28.9702 28.004 28.9197 27.8945Z" fill="#0078D4"/>
<path d="M28.8018 19.6836C28.2797 18.6057 26.8819 18.2099 25.6693 18.791C25.5261 18.8583 25.3914 18.9426 25.2651 19.0352C26.3598 18.6731 27.4208 18.9847 27.825 19.8183C28.2797 20.753 27.7239 21.6709 26.6713 22.4793C26.4187 22.673 25.2482 23.5319 24.9619 23.574C25.6608 23.5908 26.545 23.3214 27.5471 22.6898C28.6923 21.9825 29.3239 20.7614 28.8018 19.6836Z" fill="#0078D4"/>
<path d="M19.9012 25.6483C17.6276 25.842 15.7413 25.5473 15.6992 24.9999C15.6908 24.9157 15.7329 24.8231 15.8171 24.7305C15.1098 24.9494 14.6719 25.2441 14.6719 25.5641C14.6719 26.2631 16.7181 26.8272 19.2444 26.8272C21.198 26.8272 22.8653 26.4904 23.5137 26.0104C23.1432 25.7578 22.6885 25.4547 22.3601 25.2357C21.6864 25.421 20.8359 25.5725 19.9012 25.6483Z" fill="#0078D4"/>
<path d="M20.3388 19.6254C20.3388 19.6254 21.0967 19.2044 21.0377 18.0844C20.9788 16.9645 19.3536 15.8697 19.3872 14.354C19.4209 12.8383 21.324 11.5246 22.0482 11.0699C22.7808 10.6236 25.1892 9.83203 25.1892 9.83203C25.1892 9.83203 23.2861 11.0109 22.2756 11.7941C21.2651 12.5772 20.9619 13.6467 21.0967 14.4045C21.2398 15.1624 22.7471 16.3076 22.444 17.2339C22.1324 18.1686 21.1809 19.5075 20.3388 19.6254Z" fill="#0078D4"/>
<path d="M22.0737 4.50781C22.0737 4.50781 23.1936 5.98987 22.4358 7.79193C21.6779 9.59398 20.2464 10.8234 19.2696 11.5729C18.2843 12.3307 17.1391 13.4254 17.417 14.9664C17.6949 16.5075 18.7306 17.5769 18.958 17.8295C19.1853 18.0821 19.4043 18.84 19.4043 18.84C19.4043 18.84 17.6359 17.3243 16.9959 16.4569C16.356 15.5896 15.5391 14.0991 16.297 12.8107C17.0549 11.5223 18.7054 10.5961 20.5327 9.02978C22.36 7.46351 22.2421 5.26568 22.0737 4.50781Z" fill="#0078D4"/>
</svg>
