<svg data-slug-id="data01" viewBox="0 0 49 49" xmlns="http://www.w3.org/2000/svg">
<path d="M30.7734 10.3724C30.6134 8.42716 28.9965 6.89453 27.1018 6.89453C25.1312 6.89453 23.5312 8.49453 23.5312 10.4651V13.3619C23.5312 15.2566 25.0555 16.8735 27.1018 17.0419C29.0976 17.0419 30.7818 15.3577 30.7818 13.3619L30.7734 10.3724ZM28.5418 13.3619C28.5418 14.2124 27.7755 14.8103 27.186 14.8103C26.3944 14.743 25.7544 14.0945 25.7544 13.3619V10.4651C25.7544 9.74085 26.3691 9.12611 27.0934 9.12611C27.826 9.12611 28.4828 9.76611 28.5418 10.4651V13.3619V13.3619Z" fill="#0078D4"/>
<path d="M18.5624 17.083C17.8718 17.083 17.3076 16.5188 17.3076 15.8283V8.21567C17.3076 7.52515 17.8718 6.96094 18.5624 6.96094C19.2529 6.96094 19.8171 7.52515 19.8171 8.21567V15.8199C19.8171 16.5188 19.2529 17.083 18.5624 17.083Z" fill="#50E6FF"/>
<path d="M13.5859 10.3724C13.4259 8.42716 11.809 6.89453 9.91428 6.89453C7.94375 6.89453 6.34375 8.49453 6.34375 10.4651V13.3619C6.34375 15.2566 7.86796 16.8735 9.91428 17.0419C11.9101 17.0419 13.5943 15.3577 13.5943 13.3619L13.5859 10.3724ZM11.3627 13.3619C11.3627 14.2124 10.5964 14.8103 10.0069 14.8103C9.21533 14.743 8.57533 14.0945 8.57533 13.3619V10.4651C8.57533 9.74085 9.19007 9.12611 9.91428 9.12611C10.6469 9.12611 11.3037 9.76611 11.3627 10.4651V13.3619Z" fill="#0078D4"/>
<path d="M1.37495 17.083C0.684421 17.083 0.12021 16.5188 0.12021 15.8283V8.21567C0.111789 7.52515 0.676 6.96094 1.37495 6.96094C2.06547 6.96094 2.62968 7.52515 2.62968 8.21567V15.8199C2.62968 16.5188 2.06547 17.083 1.37495 17.083Z" fill="#50E6FF"/>
<path d="M47.9609 10.3724C47.8009 8.42716 46.184 6.89453 44.2893 6.89453C42.3188 6.89453 40.7188 8.49453 40.7188 10.4651V13.3619C40.7188 15.2566 42.243 16.8735 44.2893 17.0419C46.2851 17.0419 47.9693 15.3577 47.9693 13.3619L47.9609 10.3724ZM45.7293 13.3619C45.7293 14.2124 44.963 14.8103 44.3735 14.8103C43.5819 14.743 42.9419 14.0945 42.9419 13.3619V10.4651C42.9419 9.74085 43.5566 9.12611 44.2809 9.12611C45.0135 9.12611 45.6703 9.76611 45.7293 10.4651V13.3619Z" fill="#0078D4"/>
<path d="M35.7416 17.083C35.051 17.083 34.4868 16.5188 34.4868 15.8283V8.21567C34.4868 7.52515 35.051 6.96094 35.7416 6.96094C36.4321 6.96094 36.9963 7.52515 36.9963 8.21567V15.8199C37.0047 16.5188 36.4405 17.083 35.7416 17.083Z" fill="#50E6FF"/>
<path d="M30.7734 35.6381C30.6134 33.6928 28.9965 32.1602 27.1018 32.1602C25.1312 32.1602 23.5312 33.7602 23.5312 35.7307V38.6275C23.5312 40.5223 25.0555 42.1391 27.1018 42.3075C29.0976 42.3075 30.7818 40.6233 30.7818 38.6275L30.7734 35.6381ZM28.5418 38.6275C28.5418 39.4781 27.7755 40.0759 27.186 40.0759C26.3944 40.0086 25.7544 39.3602 25.7544 38.6275V35.7307C25.7544 35.0065 26.3691 34.3917 27.0934 34.3917C27.826 34.3917 28.4828 35.0317 28.5418 35.7307V38.6275V38.6275Z" fill="#0078D4"/>
<path d="M18.5624 42.3481C17.8718 42.3481 17.3076 41.7838 17.3076 41.0933V33.4891C17.3076 32.7986 17.8718 32.2344 18.5624 32.2344C19.2529 32.2344 19.8171 32.7986 19.8171 33.4891V41.0933C19.8171 41.7838 19.2529 42.3481 18.5624 42.3481Z" fill="#50E6FF"/>
<path d="M13.5859 35.6381C13.4259 33.6928 11.809 32.1602 9.91428 32.1602C7.94375 32.1602 6.34375 33.7602 6.34375 35.7307V38.6275C6.34375 40.5223 7.86796 42.1391 9.91428 42.3075C11.9101 42.3075 13.5943 40.6233 13.5943 38.6275L13.5859 35.6381ZM11.3627 38.6275C11.3627 39.4781 10.5964 40.0759 10.0069 40.0759C9.21533 40.0086 8.57533 39.3602 8.57533 38.6275V35.7307C8.57533 35.0065 9.19007 34.3917 9.91428 34.3917C10.6469 34.3917 11.3037 35.0317 11.3627 35.7307V38.6275Z" fill="#0078D4"/>
<path d="M1.37534 42.3481C0.684816 42.3481 0.120605 41.7838 0.120605 41.0933V33.4891C0.120605 32.7986 0.684816 32.2344 1.37534 32.2344C2.06587 32.2344 2.63008 32.7986 2.63008 33.4891V41.0933C2.63008 41.7838 2.06587 42.3481 1.37534 42.3481Z" fill="#50E6FF"/>
<path d="M47.9609 35.6381C47.8009 33.6928 46.184 32.1602 44.2893 32.1602C42.3188 32.1602 40.7188 33.7602 40.7188 35.7307V38.6275C40.7188 40.5223 42.243 42.1391 44.2893 42.3075C46.2851 42.3075 47.9693 40.6233 47.9693 38.6275L47.9609 35.6381ZM45.7293 38.6275C45.7293 39.4781 44.963 40.0759 44.3735 40.0759C43.5819 40.0086 42.9419 39.3602 42.9419 38.6275V35.7307C42.9419 35.0065 43.5566 34.3917 44.2809 34.3917C45.0135 34.3917 45.6703 35.0317 45.7293 35.7307V38.6275Z" fill="#0078D4"/>
<path d="M35.7416 42.3481C35.051 42.3481 34.4868 41.7838 34.4868 41.0933V33.4891C34.4868 32.7986 35.051 32.2344 35.7416 32.2344C36.4321 32.2344 36.9963 32.7986 36.9963 33.4891V41.0933C37.0047 41.7838 36.4405 42.3481 35.7416 42.3481Z" fill="#50E6FF"/>
<path d="M17.3082 26.3218C17.4682 28.2671 19.0851 29.7997 20.9798 29.7997C22.9503 29.7997 24.5503 28.1997 24.5503 26.2292V23.3323C24.5503 21.4376 23.0261 19.8208 20.9798 19.6523C18.984 19.6523 17.2998 21.3366 17.2998 23.3323L17.3082 26.3218ZM19.5314 23.3323C19.5314 22.4818 20.2977 21.8839 20.8872 21.8839C21.6788 21.9513 22.3188 22.5997 22.3188 23.3323V26.2292C22.3188 26.9534 21.704 27.5681 20.9798 27.5681C20.2472 27.5681 19.5903 26.9281 19.5314 26.2292V23.3323V23.3323Z" fill="#50E6FF"/>
<path d="M29.5184 19.6094C30.2089 19.6094 30.7731 20.1736 30.7731 20.8641V28.4683C30.7731 29.1588 30.2089 29.7231 29.5184 29.7231C28.8279 29.7231 28.2637 29.1588 28.2637 28.4683V20.8641C28.2637 20.1736 28.8279 19.6094 29.5184 19.6094Z" fill="#0078D4"/>
<path d="M34.4952 26.3218C34.6552 28.2671 36.2721 29.7997 38.1668 29.7997C40.1373 29.7997 41.7373 28.1997 41.7373 26.2292V23.3323C41.7373 21.4376 40.2131 19.8208 38.1668 19.6523C36.171 19.6523 34.4868 21.3366 34.4868 23.3323L34.4952 26.3218ZM36.7184 23.3323C36.7184 22.4818 37.4847 21.8839 38.0742 21.8839C38.8658 21.9513 39.5058 22.5997 39.5058 23.3323V26.2292C39.5058 26.9534 38.891 27.5681 38.1668 27.5681C37.4342 27.5681 36.7773 26.9281 36.7184 26.2292V23.3323V23.3323Z" fill="#50E6FF"/>
<path d="M46.7059 19.6094C47.3964 19.6094 47.9606 20.1736 47.9606 20.8641V28.4683C47.9606 29.1588 47.3964 29.7231 46.7059 29.7231C46.0154 29.7231 45.4512 29.1588 45.4512 28.4683V20.8641C45.4512 20.1736 46.0154 19.6094 46.7059 19.6094Z" fill="#0078D4"/>
<path d="M0.120726 26.3218C0.280726 28.2671 1.89757 29.7997 3.7923 29.7997C5.76283 29.7997 7.36283 28.1997 7.36283 26.2292V23.3323C7.36283 21.4376 5.83862 19.8208 3.7923 19.6523C1.79652 19.6523 0.112305 21.3366 0.112305 23.3323L0.120726 26.3218ZM2.34388 23.3323C2.34388 22.4818 3.1102 21.8839 3.69967 21.8839C4.49125 21.9513 5.13125 22.5997 5.13125 23.3323V26.2292C5.13125 26.9534 4.51652 27.5681 3.7923 27.5681C3.05967 27.5681 2.40283 26.9281 2.34388 26.2292V23.3323V23.3323Z" fill="#50E6FF"/>
<path d="M12.3309 19.6094C13.0214 19.6094 13.5856 20.1736 13.5856 20.8641V28.4683C13.5856 29.1588 13.0214 29.7231 12.3309 29.7231C11.6404 29.7231 11.0762 29.1588 11.0762 28.4683V20.8641C11.0762 20.1736 11.6404 19.6094 12.3309 19.6094Z" fill="#0078D4"/>
</svg>
