<svg data-slug-id="databox-edge-new" xmlns="http://www.w3.org/2000/svg" viewBox="0 0 49 49">
    <path d="M25.3466 26.8757C25.3466 29.7141 25.3466 38.3747 25.3466 38.3747C25.3466 38.3747 17.3124 38.4232 13.7686 38.4232C7.3849 38.4232 2.21484 33.256 2.21484 26.8757C2.21484 20.4954 7.3849 15.3281 13.7686 15.3281C20.1523 15.3281 25.3466 20.4954 25.3466 26.8757Z" fill="#50E6FF"/>
    <path d="M23.1365 30.0752C23.1122 29.8326 22.8937 29.6385 22.651 29.6385C22.6267 29.6385 22.6267 29.6385 22.6025 29.6385L21.9714 29.687C21.8257 29.2261 21.6073 28.7894 21.316 28.4255L21.7286 27.9404C21.8015 27.8433 21.85 27.722 21.85 27.5765C21.85 27.4552 21.7772 27.3339 21.6801 27.2368L21.1218 26.7516C21.0005 26.7031 20.9034 26.6546 20.782 26.6546C20.6364 26.6546 20.515 26.7031 20.4179 26.8244L20.0053 27.3096C19.5927 27.0913 19.1315 26.9457 18.646 26.8729L18.5975 26.2422C18.5975 26.1209 18.5247 25.9996 18.4276 25.9025C18.3305 25.8298 18.2334 25.7812 18.112 25.7812C18.0878 25.7812 18.0878 25.7812 18.0635 25.7812L17.311 25.854C17.044 25.8783 16.8499 26.1209 16.8741 26.3877L16.9227 27.0185C16.4615 27.164 16.0246 27.3824 15.6605 27.6735L15.175 27.2611C15.078 27.1883 14.9809 27.1398 14.8595 27.1398C14.8352 27.1398 14.8352 27.1398 14.811 27.1398C14.6896 27.1398 14.5682 27.2126 14.4711 27.3096L13.9857 27.8676C13.8643 28.1102 13.8886 28.4255 14.0828 28.5954L14.5682 29.0078C14.3498 29.4202 14.2041 29.8811 14.1313 30.3663L13.5002 30.4148C13.3789 30.4148 13.2575 30.4876 13.1604 30.5846C13.0876 30.6817 13.0391 30.803 13.0391 30.9485L13.1119 31.7006C13.1362 31.9432 13.3546 32.1373 13.5973 32.1373C13.6216 32.1373 13.6216 32.1373 13.6459 32.1373L14.277 32.0887C14.4226 32.5497 14.6411 32.9863 14.9323 33.3502L14.5197 33.8354C14.3498 34.0295 14.3741 34.3449 14.5682 34.5147L15.1265 34.9999C15.2236 35.0727 15.3207 35.1212 15.442 35.1212C15.4663 35.1212 15.4663 35.1212 15.4906 35.1212C15.612 35.1212 15.7333 35.0484 15.8304 34.9514L16.243 34.4662C16.6557 34.6845 17.1169 34.8301 17.6023 34.9029L17.6509 35.5336C17.6751 35.7762 17.8936 35.9703 18.1363 35.9703C18.1606 35.9703 18.1606 35.9703 18.1848 35.9703L18.9373 35.8975C19.0587 35.8975 19.18 35.8247 19.2771 35.7277C19.3499 35.6306 19.3985 35.5093 19.3985 35.3638L19.3499 34.733C19.8111 34.5875 20.248 34.3691 20.6121 34.078L21.0976 34.4904C21.1946 34.5632 21.2917 34.6117 21.4131 34.6117C21.5587 34.6117 21.6801 34.5632 21.7772 34.4419L22.2626 33.884C22.3355 33.7869 22.384 33.6656 22.384 33.5201C22.384 33.3988 22.3112 33.2775 22.2141 33.1804L21.7286 32.768C21.9471 32.3556 22.0927 31.8947 22.1655 31.4095L22.7966 31.361C22.918 31.361 23.0394 31.2882 23.1365 31.1911C23.2093 31.0941 23.2578 30.9728 23.2578 30.8272L23.1365 30.0752ZM22.1655 30.9L22.0199 30.9243L21.6801 30.9485C21.6801 31.1184 21.6558 31.2882 21.6316 31.4337C21.583 31.7976 21.4616 32.113 21.316 32.4284C21.2432 32.5739 21.1704 32.7195 21.0733 32.865L21.316 33.0834L21.4374 33.1804L21.85 33.5443L21.3646 34.1023L20.9519 33.7384L20.8306 33.6414L20.5878 33.423C20.4665 33.5443 20.3451 33.6414 20.1995 33.7384C19.9082 33.9325 19.6169 34.1023 19.2771 34.2236C19.1315 34.2721 18.9616 34.3206 18.7917 34.3449L18.8159 34.6845L18.8402 34.8301L18.8888 35.388L18.1363 35.4608L18.0878 34.9029L18.0635 34.7573V34.4177C17.8936 34.4177 17.7237 34.3934 17.578 34.3691C17.2139 34.3206 16.8984 34.1993 16.5829 34.0538C16.4372 33.981 16.2916 33.9082 16.146 33.8112L15.9275 34.0538L15.8304 34.1751L15.4663 34.5875L14.9081 34.1023L15.2721 33.6899L15.3692 33.5686L15.5877 33.326C15.4663 33.2047 15.3692 33.0834 15.2721 32.9378C15.078 32.6467 14.9081 32.3556 14.7867 32.016C14.7381 31.8704 14.6896 31.7006 14.6653 31.5308L14.3255 31.555L14.1799 31.5793L13.6216 31.6278L13.5488 30.8758L14.1071 30.8272L14.2527 30.803L14.5925 30.7787C14.5925 30.6089 14.6168 30.4391 14.6411 30.2935C14.6896 29.9296 14.811 29.6143 14.9566 29.2989C15.0294 29.1533 15.1022 29.0078 15.1993 28.8622L14.9566 28.6439L14.8352 28.5711L14.4226 28.2072L14.9081 27.6492L15.3207 28.0131L15.442 28.1102L15.6848 28.3285C15.8061 28.2072 15.9275 28.1102 16.0731 28.0131C16.3644 27.8191 16.6557 27.6492 16.9955 27.5279C17.1411 27.4794 17.311 27.4309 17.4809 27.4066L17.4567 27.067L17.4324 26.9214L17.3839 26.3635L18.1363 26.2907L18.1848 26.8487L18.2091 26.9942L18.2334 27.3339C18.4033 27.3339 18.5732 27.3581 18.7188 27.3824C19.0829 27.4309 19.3985 27.5522 19.714 27.6978C19.8597 27.7705 20.0053 27.8433 20.1509 27.9404L20.3694 27.6978L20.4665 27.5765L20.8306 27.164L21.3888 27.6492L21.0247 28.0617L20.9034 28.1587L20.6849 28.4013C20.8063 28.5226 20.9034 28.6439 21.0005 28.7894C21.1946 29.0806 21.3646 29.3717 21.4859 29.7113C21.5345 29.8569 21.583 30.0267 21.6073 30.1965L21.9471 30.1722L22.0927 30.148L22.651 30.0995L22.7238 30.8515L22.1655 30.9Z" fill="#0078D4"/>
    <path d="M18.1315 29.4657C18.9083 29.4657 19.5394 30.0964 19.5394 30.8727C19.5394 31.649 18.9083 32.2798 18.1315 32.2798C17.3548 32.2798 16.7237 31.649 16.7237 30.8727C16.6995 30.0964 17.3548 29.4657 18.1315 29.4657ZM18.1315 28.9805C17.0878 28.9805 16.2383 29.8296 16.2383 30.8727C16.2383 31.9159 17.0878 32.765 18.1315 32.765C19.1753 32.765 20.0248 31.9159 20.0248 30.8727C20.0248 29.8296 19.1753 28.9805 18.1315 28.9805Z" fill="#0078D4"/>
    <path d="M11.8488 30.5817C11.6546 30.5817 11.4362 30.5331 11.242 30.4846L11.1206 30.9213L11.0721 31.1396L10.8536 31.8917L9.85847 31.6006L10.0769 30.8485L10.1497 30.6302L10.2711 30.1935C10.0526 30.0965 9.85847 29.9994 9.64001 29.9024C9.20311 29.6598 8.81475 29.3444 8.4992 28.9805C8.35357 28.8107 8.20793 28.6409 8.0623 28.4468L7.64966 28.6652L7.45548 28.7622L6.77585 29.1261L6.26613 28.2285L6.94576 27.8646L7.13994 27.7675L7.55257 27.5492C7.45548 27.3309 7.38267 27.1125 7.33412 26.8942C7.21276 26.4333 7.13994 25.9481 7.16421 25.4386C7.16421 25.2203 7.18848 24.9777 7.23703 24.7594L6.80012 24.6381L6.58167 24.5895L5.82922 24.3712L6.12049 23.3766L6.87294 23.5949L7.09139 23.6677L7.5283 23.789C7.62539 23.5706 7.72248 23.3766 7.81957 23.1582C8.0623 22.7216 8.37784 22.3334 8.74193 22.018C8.91184 21.8725 9.08175 21.7269 9.27593 21.5814L9.05747 21.1689L8.96038 20.9749L8.59629 20.2956L9.49438 19.7861L9.85847 20.4654L9.95556 20.6595L10.174 21.0719C10.3925 20.9749 10.6109 20.9021 10.8294 20.8536C11.2905 20.7323 11.776 20.6595 12.2857 20.6838C12.5042 20.6838 12.7469 20.708 12.9654 20.7565L13.0867 20.3199L13.1353 20.1015L13.3537 19.3495L14.3489 19.6406L14.1304 20.3926L14.0819 20.5867L13.9605 21.0234C14.179 21.1204 14.3732 21.2175 14.5916 21.3145C15.0285 21.5571 15.4169 21.8725 15.7324 22.2364C15.8781 22.4062 16.0237 22.576 16.1693 22.7701L16.582 22.5517L16.7762 22.4547L17.4558 22.0908L17.9655 22.9884L17.2859 23.3523L17.0917 23.4493L16.6791 23.6677C16.7519 23.8375 16.8247 24.0316 16.8732 24.2256L17.5043 23.9831L18.2811 23.5464C18.4267 23.4493 18.548 23.3038 18.5966 23.134C18.6451 22.9642 18.6209 22.7701 18.548 22.6245L18.0383 21.7269C17.9655 21.5814 17.8199 21.4843 17.6985 21.4115C17.5286 21.3388 17.3101 21.3388 17.116 21.4601L16.3392 21.8725C15.9023 21.3873 15.3926 20.9506 14.7858 20.6352L15.0285 19.7861C15.0771 19.6163 15.0528 19.4223 14.98 19.2767C14.9072 19.1311 14.7858 19.0341 14.6402 18.9613C14.6159 18.9613 14.5916 18.9371 14.5916 18.9371L13.5964 18.6459C13.2324 18.5489 12.8683 18.743 12.7469 19.1069L12.5042 19.956C11.8245 19.9074 11.1692 20.0045 10.5138 20.1743L10.0769 19.398C10.0041 19.2524 9.88274 19.1554 9.7371 19.0826C9.71283 19.0826 9.68856 19.0584 9.68856 19.0584C9.51865 19.0098 9.32447 19.0341 9.17884 19.1069L8.28075 19.6163C7.94093 19.7861 7.84384 20.1986 8.01375 20.5382L8.42639 21.3145C7.94093 21.7512 7.50403 22.2606 7.18848 22.8671L6.33894 22.6245C6.16904 22.576 5.97486 22.6003 5.82922 22.673C5.68359 22.7701 5.56222 22.9156 5.51368 23.0854L5.22241 24.0801C5.12532 24.4197 5.29522 24.7836 5.63504 24.9049C5.65931 24.9049 5.68359 24.9292 5.68359 24.9292L6.53313 25.1718C6.48458 25.851 6.58167 26.506 6.75158 27.1611L5.97486 27.5977C5.63504 27.7675 5.53795 28.18 5.70786 28.5196L6.21758 29.4172C6.2904 29.5628 6.41176 29.6598 6.5574 29.7326C6.58167 29.7326 6.60594 29.7568 6.60594 29.7568C6.77585 29.8054 6.97003 29.7811 7.11567 29.7083L7.89239 29.2959C8.3293 29.7811 8.83902 30.2178 9.44583 30.5331L9.20311 31.3822C9.08175 31.7461 9.25165 32.0858 9.59147 32.2313C9.61574 32.2313 9.64001 32.2556 9.64001 32.2556L10.6352 32.5467C10.8051 32.5952 10.9993 32.5709 11.1449 32.4982C11.2905 32.4011 11.4119 32.2556 11.4605 32.0858L11.6789 31.2609L11.8488 30.5817Z" fill="#0078D4"/>
    <path d="M12.7257 27.6219C12.1917 27.7918 11.5849 27.7432 11.0266 27.4279C10.2014 26.9669 9.78874 25.9723 10.0315 25.0747C10.347 23.8374 11.682 23.1824 12.8471 23.6191C13.7937 23.983 14.3277 24.9291 14.1821 25.8995C14.1821 25.948 14.2063 25.9723 14.2549 25.948C14.4005 25.851 14.5704 25.8025 14.7403 25.7782C14.7646 25.7782 14.8132 25.7782 14.8374 25.7782C14.8617 25.7782 14.886 25.7782 14.9345 25.7782C15.0316 24.4439 14.1578 23.1582 12.75 22.8185C11.4878 22.5274 10.1771 23.1339 9.57028 24.2741C8.76929 25.8267 9.49747 27.6705 11.0752 28.2769C11.6092 28.471 12.1674 28.5195 12.7014 28.3982C12.6529 28.1556 12.6772 27.9131 12.7743 27.6947C12.7985 27.6462 12.75 27.6219 12.7257 27.6219Z" fill="#0078D4"/>
    <path d="M35.3418 16.9243C32.9146 12.9457 29.031 10.3984 24.0794 10.3984C20.9725 10.3984 17.72 11.4659 15.4141 13.1398C20.3171 13.9161 24.3949 17.1911 26.1911 21.6064C26.8464 23.2075 27.2105 24.9542 27.2105 26.7979C27.2105 28.5203 27.2105 38.3697 27.2105 38.3697C27.2105 38.3697 32.769 38.3212 35.2448 38.3212C41.3129 38.3212 45.9975 33.3965 45.9975 27.4529C46.0218 21.5336 41.3857 16.9728 35.3418 16.9243Z" fill="#0078D4"/>
</svg>
