<svg data-slug-id="databox-disk" xmlns="http://www.w3.org/2000/svg" viewBox="0 0 49 49">
    <path d="M48.1739 2.70312H0.246094V45.6828H48.1739V2.70312Z" fill="#0078D4"/>
    <path d="M9.03069 7.75869C9.72936 7.75869 10.2957 7.19272 10.2957 6.49458C10.2957 5.79643 9.72936 5.23047 9.03069 5.23047C8.33201 5.23047 7.76562 5.79643 7.76562 6.49458C7.76562 7.19272 8.33201 7.75869 9.03069 7.75869Z" fill="#50E6FF"/>
    <path d="M4.00725 12.8173C4.70592 12.8173 5.27231 12.2513 5.27231 11.5532C5.27231 10.855 4.70592 10.2891 4.00725 10.2891C3.30857 10.2891 2.74219 10.855 2.74219 11.5532C2.74219 12.2513 3.30857 12.8173 4.00725 12.8173Z" fill="#50E6FF"/>
    <path d="M4.00725 38.1337C4.70592 38.1337 5.27231 37.5677 5.27231 36.8696C5.27231 36.1714 4.70592 35.6055 4.00725 35.6055C3.30857 35.6055 2.74219 36.1714 2.74219 36.8696C2.74219 37.5677 3.30857 38.1337 4.00725 38.1337Z" fill="#50E6FF"/>
    <path d="M9.06584 43.1923C9.76452 43.1923 10.3309 42.6263 10.3309 41.9282C10.3309 41.23 9.76452 40.6641 9.06584 40.6641C8.36717 40.6641 7.80078 41.23 7.80078 41.9282C7.80078 42.6263 8.36717 43.1923 9.06584 43.1923Z" fill="#50E6FF"/>
    <path d="M29.2729 43.1923C29.9715 43.1923 30.5379 42.6263 30.5379 41.9282C30.5379 41.23 29.9715 40.6641 29.2729 40.6641C28.5742 40.6641 28.0078 41.23 28.0078 41.9282C28.0078 42.6263 28.5742 43.1923 29.2729 43.1923Z" fill="#50E6FF"/>
    <path d="M34.3666 38.0985C35.0653 38.0985 35.6317 37.5326 35.6317 36.8344C35.6317 36.1363 35.0653 35.5703 34.3666 35.5703C33.668 35.5703 33.1016 36.1363 33.1016 36.8344C33.1016 37.5326 33.668 38.0985 34.3666 38.0985Z" fill="#50E6FF"/>
    <path d="M34.3276 12.8173C35.0262 12.8173 35.5926 12.2513 35.5926 11.5532C35.5926 10.855 35.0262 10.2891 34.3276 10.2891C33.6289 10.2891 33.0625 10.855 33.0625 11.5532C33.0625 12.2513 33.6289 12.8173 34.3276 12.8173Z" fill="#50E6FF"/>
    <path d="M29.3041 7.75869C30.0028 7.75869 30.5692 7.19272 30.5692 6.49458C30.5692 5.79643 30.0028 5.23047 29.3041 5.23047C28.6055 5.23047 28.0391 5.79643 28.0391 6.49458C28.0391 7.19272 28.6055 7.75869 29.3041 7.75869Z" fill="#50E6FF"/>
    <path d="M48.2455 7.75781H38.125V40.6246H48.2455V7.75781Z" fill="#50E6FF"/>
    <path d="M48.2466 10.25H40.6562V12.7782H48.2466V10.25Z" fill="#0078D4"/>
    <path d="M48.2466 15.3086H40.6562V17.8368H48.2466V15.3086Z" fill="#0078D4"/>
    <path d="M48.2466 20.3672H40.6562V22.8954H48.2466V20.3672Z" fill="#0078D4"/>
    <path d="M48.2466 25.4219H40.6562V27.9501H48.2466V25.4219Z" fill="#0078D4"/>
    <path d="M48.2466 30.4414H40.6562V32.9696H48.2466V30.4414Z" fill="#0078D4"/>
    <path d="M48.2466 35.4609H40.6562V37.9892H48.2466V35.4609Z" fill="#0078D4"/>
</svg>
