<svg data-slug-id="database08" viewBox="0 0 49 49" xmlns="http://www.w3.org/2000/svg">
<path d="M3.15647 10.1953L1.92334 10.4609L4.39918 21.9537L5.63231 21.6881L3.15647 10.1953Z" fill="#0078D4"/>
<path d="M30.7383 10.0608L23.4814 21.4609L24.5456 22.1383L31.8024 10.7382L30.7383 10.0608Z" fill="#0078D4"/>
<path d="M17.4003 9.99326L16.3296 10.6602L23.4743 22.1306L24.5449 21.4637L17.4003 9.99326Z" fill="#0078D4"/>
<path d="M16.5122 9.8573L4.61865 21.2695L5.49204 22.1797L17.3855 10.7675L16.5122 9.8573Z" fill="#0078D4"/>
<path d="M44.9802 10.1925L42.2817 23.2617L43.517 23.5168L46.2155 10.4475L44.9802 10.1925Z" fill="#0078D4"/>
<path d="M17.208 9.79366L16.7021 10.9492L42.6328 22.2997L43.1387 21.1442L17.208 9.79366Z" fill="#0078D4"/>
<path d="M10.1193 33.1016H0.0366211V35.6832H10.1193V33.1016Z" fill="#50E6FF"/>
<path d="M28.9977 33.1016H18.915V35.6832H28.9977V33.1016Z" fill="#50E6FF"/>
<path d="M48.0026 33.1016H37.9199V35.6832H48.0026V33.1016Z" fill="#50E6FF"/>
<path d="M10.1191 21.7344H0.0869141V31.7077H10.1191V21.7344Z" fill="#0078D4"/>
<path d="M47.9777 21.7695H37.8613V31.827H47.9777V21.7695Z" fill="#0078D4"/>
<path d="M28.981 21.7344H18.9487V31.7077H28.981V21.7344Z" fill="#0078D4"/>
<path d="M5.04002 39.8047H5.00639H1.70996V46.2378C1.70996 46.8937 3.17317 47.4487 5.00639 47.4571H5.05684C6.89847 47.4571 8.38691 46.9189 8.38691 46.2378V39.8047H5.04002V39.8047Z" fill="#0078D4"/>
<path d="M8.38669 39.8053C8.38669 40.4696 6.89825 41.0246 5.05663 41.0246C3.215 41.0246 1.72656 40.4864 1.72656 39.8053C1.72656 39.1241 3.215 38.5859 5.05663 38.5859C6.89825 38.5943 8.38669 39.1494 8.38669 39.8053Z" fill="white"/>
<path d="M7.70554 39.737C7.70554 40.1827 6.51984 40.5443 5.05663 40.5443C3.59342 40.5443 2.40771 40.1827 2.40771 39.737C2.40771 39.2913 3.59342 38.9297 5.05663 38.9297C6.51984 38.9297 7.70554 39.2913 7.70554 39.737Z" fill="#0078D4"/>
<path d="M23.9609 39.7037H23.9273H20.6309V46.1284C20.6309 46.7843 22.0941 47.3393 23.9273 47.3477H23.9777C25.8194 47.3477 27.3078 46.8095 27.3078 46.1284V39.6953H23.9609V39.7037Z" fill="#0078D4"/>
<path d="M27.3076 39.7037C27.3076 40.368 25.8191 40.9231 23.9775 40.9231C22.1359 40.9231 20.6475 40.3849 20.6475 39.7037C20.6475 39.0226 22.1359 38.4844 23.9775 38.4844C25.8191 38.4844 27.3076 39.0394 27.3076 39.7037Z" fill="white"/>
<path d="M26.6264 39.6276C26.6264 40.0733 25.4407 40.4349 23.9775 40.4349C22.5059 40.4349 21.3286 40.0733 21.3286 39.6276C21.3286 39.1819 22.5143 38.8203 23.9775 38.8203C25.4407 38.8203 26.6264 39.1819 26.6264 39.6276Z" fill="#0078D4"/>
<path d="M42.9658 39.7037H42.9322H39.6357V46.1284C39.6357 46.7843 41.099 47.3393 42.9322 47.3477H42.9826C44.8242 47.3477 46.3127 46.8095 46.3127 46.1284V39.6953H42.9658V39.7037Z" fill="#0078D4"/>
<path d="M46.3125 39.7037C46.3125 40.368 44.824 40.9231 42.9824 40.9231C41.1408 40.9231 39.6523 40.3849 39.6523 39.7037C39.6523 39.0226 41.1408 38.4844 42.9824 38.4844C44.8324 38.4844 46.3125 39.0394 46.3125 39.7037Z" fill="white"/>
<path d="M45.6396 39.6276C45.6396 40.0733 44.4539 40.4349 42.9907 40.4349C41.5191 40.4349 40.3418 40.0733 40.3418 39.6276C40.3418 39.1819 41.5275 38.8203 42.9907 38.8203C44.4539 38.8203 45.6396 39.1819 45.6396 39.6276Z" fill="#0078D4"/>
<path d="M5.11559 0.324219H0.0532227V5.38659H5.11559V0.324219Z" fill="#50E6FF"/>
<path d="M5.11559 5.28516H0.0532227V10.3475H5.11559V5.28516Z" fill="#0078D4"/>
<path d="M33.7069 0.324219H28.6445V5.38659H33.7069V0.324219Z" fill="#50E6FF"/>
<path d="M33.7069 5.28516H28.6445V10.3475H33.7069V5.28516Z" fill="#0078D4"/>
<path d="M19.411 0.324219H14.3486V5.38659H19.411V0.324219Z" fill="#50E6FF"/>
<path d="M19.411 5.28516H14.3486V10.3475H19.411V5.28516Z" fill="#0078D4"/>
<path d="M48.0111 0.324219H42.9487V5.38659H48.0111V0.324219Z" fill="#50E6FF"/>
<path d="M48.0111 5.28516H42.9487V10.3475H48.0111V5.28516Z" fill="#0078D4"/>
<path d="M36.7024 28.0312L34.886 26.2148V27.1735H31.9849V26.2148L30.1685 28.0312L31.9849 29.8476V28.8553H34.886V29.8392L36.7024 28.0312Z" fill="#0078D4"/>
<path d="M17.825 28.0312L16.0086 26.2148V27.1735H13.1074V26.2148L11.291 28.0312L13.1074 29.8476V28.8553H16.0086V29.8392L17.825 28.0312Z" fill="#0078D4"/>
<path d="M23.9694 23.0111C24.666 23.0111 25.2308 22.4463 25.2308 21.7497C25.2308 21.053 24.666 20.4883 23.9694 20.4883C23.2728 20.4883 22.708 21.053 22.708 21.7497C22.708 22.4463 23.2728 23.0111 23.9694 23.0111Z" fill="#50E6FF"/>
<path d="M5.09049 23.0462C5.78713 23.0462 6.35188 22.4815 6.35188 21.7848C6.35188 21.0882 5.78713 20.5234 5.09049 20.5234C4.39384 20.5234 3.8291 21.0882 3.8291 21.7848C3.8291 22.4815 4.39384 23.0462 5.09049 23.0462Z" fill="#50E6FF"/>
<path d="M2.60953 11.6243C3.30618 11.6243 3.87092 11.0596 3.87092 10.363C3.87092 9.6663 3.30618 9.10156 2.60953 9.10156C1.91289 9.10156 1.34814 9.6663 1.34814 10.363C1.34814 11.0596 1.91289 11.6243 2.60953 11.6243Z" fill="#50E6FF"/>
<path d="M16.9137 11.6243C17.6104 11.6243 18.1751 11.0596 18.1751 10.363C18.1751 9.6663 17.6104 9.10156 16.9137 9.10156C16.2171 9.10156 15.6523 9.6663 15.6523 10.363C15.6523 11.0596 16.2171 11.6243 16.9137 11.6243Z" fill="#50E6FF"/>
<path d="M31.1925 11.6243C31.8892 11.6243 32.4539 11.0596 32.4539 10.363C32.4539 9.6663 31.8892 9.10156 31.1925 9.10156C30.4959 9.10156 29.9312 9.6663 29.9312 10.363C29.9312 11.0596 30.4959 11.6243 31.1925 11.6243Z" fill="#50E6FF"/>
<path d="M45.4967 11.6243C46.1934 11.6243 46.7581 11.0596 46.7581 10.363C46.7581 9.6663 46.1934 9.10156 45.4967 9.10156C44.8001 9.10156 44.2354 9.6663 44.2354 10.363C44.2354 11.0596 44.8001 11.6243 45.4967 11.6243Z" fill="#50E6FF"/>
<path d="M42.9572 23.0111C43.6538 23.0111 44.2186 22.4463 44.2186 21.7497C44.2186 21.053 43.6538 20.4883 42.9572 20.4883C42.2605 20.4883 41.6958 21.053 41.6958 21.7497C41.6958 22.4463 42.2605 23.0111 42.9572 23.0111Z" fill="#50E6FF"/>
</svg>
