<svg data-slug-id="database05" viewBox="0 0 49 49" xmlns="http://www.w3.org/2000/svg">
<path d="M26.538 35.5909C32.8026 35.5909 37.8811 33.9056 37.8811 31.8267C37.8811 29.7478 32.8026 28.0625 26.538 28.0625C20.2733 28.0625 15.1948 29.7478 15.1948 31.8267C15.1948 33.9056 20.2733 35.5909 26.538 35.5909Z" fill="#0078D4"/>
<path d="M26.538 32.9972C32.8026 32.9972 37.8811 31.3119 37.8811 29.233C37.8811 27.154 32.8026 25.4688 26.538 25.4688C20.2733 25.4688 15.1948 27.154 15.1948 29.233C15.1948 31.3119 20.2733 32.9972 26.538 32.9972Z" fill="#50E6FF"/>
<path d="M26.538 30.3722C32.8026 30.3722 37.8811 28.6869 37.8811 26.608C37.8811 24.529 32.8026 22.8438 26.538 22.8438C20.2733 22.8438 15.1948 24.529 15.1948 26.608C15.1948 28.6869 20.2733 30.3722 26.538 30.3722Z" fill="#0078D4"/>
<path d="M26.538 27.6925C32.8026 27.6925 37.8811 26.0072 37.8811 23.9283C37.8811 21.8494 32.8026 20.1641 26.538 20.1641C20.2733 20.1641 15.1948 21.8494 15.1948 23.9283C15.1948 26.0072 20.2733 27.6925 26.538 27.6925Z" fill="#50E6FF"/>
<path d="M26.538 25.2237C32.8026 25.2237 37.8811 23.5384 37.8811 21.4595C37.8811 19.3806 32.8026 17.6953 26.538 17.6953C20.2733 17.6953 15.1948 19.3806 15.1948 21.4595C15.1948 23.5384 20.2733 25.2237 26.538 25.2237Z" fill="#0078D4"/>
<path d="M26.538 22.6222C32.8026 22.6222 37.8811 20.9369 37.8811 18.858C37.8811 16.779 32.8026 15.0938 26.538 15.0938C20.2733 15.0938 15.1948 16.779 15.1948 18.858C15.1948 20.9369 20.2733 22.6222 26.538 22.6222Z" fill="#50E6FF"/>
<path d="M26.538 20.3683C32.8026 20.3683 37.8811 18.683 37.8811 16.6041C37.8811 14.5251 32.8026 12.8398 26.538 12.8398C20.2733 12.8398 15.1948 14.5251 15.1948 16.6041C15.1948 18.683 20.2733 20.3683 26.538 20.3683Z" fill="#0078D4"/>
<path d="M24.0196 0.214844C14.8744 0.214844 6.93334 5.32642 2.88281 12.8464H5.36702C9.20702 6.56431 16.1207 2.37063 24.0196 2.37063C36.0786 2.37063 45.8639 12.1475 45.8639 24.2148C45.8639 36.2822 36.0786 46.059 24.0196 46.059C16.1207 46.059 9.20702 41.8653 5.36702 35.5832H2.88281C6.93334 43.1032 14.8828 48.2148 24.0196 48.2148C37.2744 48.2148 48.0196 37.4696 48.0196 24.2148C48.0196 10.9601 37.2744 0.214844 24.0196 0.214844Z" fill="#0078D4"/>
<path d="M5.07216 16.6367C2.29321 16.6367 0.0195312 18.9104 0.0195312 21.6893V31.7946H10.1248V21.6893C10.1248 18.9104 7.85111 16.6367 5.07216 16.6367ZM3.2869 19.9041C3.7669 19.4241 4.39848 19.163 5.07216 19.163C5.73742 19.163 6.37742 19.4241 6.85742 19.9041C7.33742 20.3841 7.59848 21.0157 7.59848 21.6893H2.54585C2.54585 21.0241 2.8069 20.3841 3.2869 19.9041ZM5.07216 28.0051C4.37321 28.0051 3.809 27.4409 3.809 26.742C3.809 26.043 4.37321 25.4788 5.07216 25.4788C5.77111 25.4788 6.33532 26.043 6.33532 26.742C6.33532 27.4409 5.77111 28.0051 5.07216 28.0051Z" fill="#0078D4"/>
</svg>
