<svg data-slug-id="databox-heavy" xmlns="http://www.w3.org/2000/svg" viewBox="0 0 49 49">
    <path d="M1.82225 8.20703L0.25 10.1105L16.2207 23.5174L17.793 21.6139L1.82225 8.20703Z" fill="#0078D4"/>
    <path d="M15.0633 41.6423C16.3047 41.6423 17.3806 40.5664 17.3806 39.3251C17.3806 38.0837 16.3047 37.0078 15.0633 37.0078C13.822 37.0078 12.7461 38.0837 12.7461 39.3251C12.7461 40.6492 13.822 41.6423 15.0633 41.6423Z" fill="#0078D4"/>
    <path d="M41.6258 41.6423C42.8672 41.6423 43.9431 40.5664 43.9431 39.3251C43.9431 38.0837 42.8672 37.0078 41.6258 37.0078C40.3845 37.0078 39.3086 38.0837 39.3086 39.3251C39.3086 40.6492 40.3845 41.6423 41.6258 41.6423Z" fill="#0078D4"/>
    <path d="M48.1642 18.3047H8.11328V34.3599H48.1642V18.3047Z" fill="#50E6FF"/>
    <path d="M48.2469 31.875H8.11328V36.344H48.2469V31.875Z" fill="#0078D4"/>
    <path d="M8.11328 15.4883V30.2193H48.2469V15.4883H8.11328ZM27.8077 26.5779H24.4977V23.2676H27.8077V26.5779ZM27.8077 22.5228H24.4977V19.2124H27.8077V22.5228ZM31.8625 26.5779H28.5525V23.2676H31.8625V26.5779ZM31.8625 22.5228H28.5525V19.2124H31.8625V22.5228Z" fill="#0078D4"/>
</svg>
