<svg data-slug-id="database-blue" xmlns="http://www.w3.org/2000/svg" viewBox="0 0 48 48">
    <path d="M6.18774 6.90234V41.0981C6.18774 44.6224 14.0937 47.5753 23.9048 47.5753V6.90234H6.18774Z" fill="#50E6FF"/>
    <path d="M23.7144 47.5753H24.0002C33.8112 47.5753 41.7172 44.7177 41.7172 41.0981V6.90234H23.7144V47.5753Z" fill="#0072C5"/>
    <path d="M23.5234 47.577H23.8092C33.7155 47.577 41.812 44.7194 41.812 41.0998V6.80884H23.6187L23.5234 47.577Z" fill="#3BCAF4"/>
    <path d="M41.7154 6.90346C41.7154 10.4278 33.8094 13.3806 23.9983 13.3806C14.1873 13.3806 6.28131 10.5231 6.28131 6.90346C6.28131 3.28385 14.1873 0.42627 23.9983 0.42627C33.8094 0.42627 41.7154 3.37911 41.7154 6.90346Z" fill="white"/>
    <path d="M38.0978 6.52075C38.0978 8.90207 31.8111 10.8071 24.0004 10.8071C16.1896 10.8071 9.90295 8.90207 9.90295 6.52075C9.90295 4.13943 16.1896 2.23438 24.0004 2.23438C31.8111 2.23437 38.0978 4.13943 38.0978 6.52075Z" fill="#0078D4"/>
    <path d="M35.1449 9.09258C36.9547 8.33055 38.0978 7.47328 38.0978 6.52075C38.0978 4.13943 31.8111 2.23438 24.0004 2.23438C16.1896 2.23438 9.90295 4.13943 9.90295 6.52075C9.90295 7.47328 11.046 8.42581 12.8558 9.09258C15.4276 8.0448 19.5235 7.47328 24.0004 7.47328C28.4772 7.47328 32.5731 8.14005 35.1449 9.09258Z" fill="#3BCAF4"/>
</svg>
