<svg data-slug-id="data-alt" xmlns="http://www.w3.org/2000/svg" viewBox="0 0 48 48">
    <path d="M30.7537 9.80968C30.5937 7.86442 28.9769 6.33179 27.0822 6.33179C25.1116 6.33179 23.5116 7.93179 23.5116 9.90231V12.7992C23.5116 14.6939 25.0359 16.3107 27.0822 16.4792C29.078 16.4792 30.7622 14.7949 30.7622 12.7992L30.7537 9.80968ZM28.5222 12.7992C28.5222 13.6497 27.7559 14.2476 27.1664 14.2476C26.3748 14.1802 25.7348 13.5318 25.7348 12.7992V9.90231C25.7348 9.1781 26.3495 8.56337 27.0737 8.56337C27.8064 8.56337 28.4632 9.20337 28.5222 9.90231V12.7992Z" fill="#0078D4"/>
    <path d="M18.5429 16.5203C17.8524 16.5203 17.2882 15.9561 17.2882 15.2656V7.65293C17.2882 6.9624 17.8524 6.39819 18.5429 6.39819C19.2335 6.39819 19.7977 6.9624 19.7977 7.65293V15.2571C19.7977 15.9561 19.2335 16.5203 18.5429 16.5203Z" fill="#50E6FF"/>
    <path d="M13.5663 9.80968C13.4063 7.86442 11.7895 6.33179 9.89475 6.33179C7.92423 6.33179 6.32423 7.93179 6.32423 9.90231V12.7992C6.32423 14.6939 7.84844 16.3107 9.89475 16.4792C11.8905 16.4792 13.5748 14.7949 13.5748 12.7992L13.5663 9.80968ZM11.3432 12.7992C11.3432 13.6497 10.5769 14.2476 9.98738 14.2476C9.19581 14.1802 8.55581 13.5318 8.55581 12.7992V9.90231C8.55581 9.1781 9.17054 8.56337 9.89475 8.56337C10.6274 8.56337 11.2842 9.20337 11.3432 9.90231V12.7992Z" fill="#0078D4"/>
    <path d="M1.35536 16.5203C0.664836 16.5203 0.100626 15.9561 0.100626 15.2656V7.65293C0.0922045 6.9624 0.656415 6.39819 1.35536 6.39819C2.04589 6.39819 2.6101 6.9624 2.6101 7.65293V15.2571C2.6101 15.9561 2.04589 16.5203 1.35536 16.5203Z" fill="#50E6FF"/>
    <path d="M47.9414 9.80968C47.7814 7.86442 46.1646 6.33179 44.2698 6.33179C42.2993 6.33179 40.6993 7.93179 40.6993 9.90231V12.7992C40.6993 14.6939 42.2235 16.3107 44.2698 16.4792C46.2656 16.4792 47.9498 14.7949 47.9498 12.7992L47.9414 9.80968ZM45.7098 12.7992C45.7098 13.6497 44.9435 14.2476 44.354 14.2476C43.5625 14.1802 42.9225 13.5318 42.9225 12.7992V9.90231C42.9225 9.1781 43.5372 8.56337 44.2614 8.56337C44.994 8.56337 45.6509 9.20337 45.7098 9.90231V12.7992Z" fill="#0078D4"/>
    <path d="M35.7221 16.5203C35.0316 16.5203 34.4674 15.9561 34.4674 15.2656V7.65293C34.4674 6.9624 35.0316 6.39819 35.7221 6.39819C36.4127 6.39819 36.9769 6.9624 36.9769 7.65293V15.2571C36.9853 15.9561 36.4211 16.5203 35.7221 16.5203Z" fill="#50E6FF"/>
    <path d="M30.7537 35.0753C30.5937 33.13 28.9769 31.5974 27.0822 31.5974C25.1116 31.5974 23.5116 33.1974 23.5116 35.1679V38.0648C23.5116 39.9595 25.0359 41.5764 27.0822 41.7448C29.078 41.7448 30.7622 40.0606 30.7622 38.0648L30.7537 35.0753ZM28.5222 38.0648C28.5222 38.9153 27.7559 39.5132 27.1664 39.5132C26.3748 39.4458 25.7348 38.7974 25.7348 38.0648V35.1679C25.7348 34.4437 26.3495 33.829 27.0737 33.829C27.8064 33.829 28.4632 34.469 28.5222 35.1679V38.0648Z" fill="#0078D4"/>
    <path d="M18.5429 41.7853C17.8524 41.7853 17.2882 41.2211 17.2882 40.5306V32.9264C17.2882 32.2358 17.8524 31.6716 18.5429 31.6716C19.2335 31.6716 19.7977 32.2358 19.7977 32.9264V40.5306C19.7977 41.2211 19.2335 41.7853 18.5429 41.7853Z" fill="#50E6FF"/>
    <path d="M13.5663 35.0753C13.4063 33.13 11.7895 31.5974 9.89475 31.5974C7.92423 31.5974 6.32423 33.1974 6.32423 35.1679V38.0648C6.32423 39.9595 7.84844 41.5764 9.89475 41.7448C11.8905 41.7448 13.5748 40.0606 13.5748 38.0648L13.5663 35.0753ZM11.3432 38.0648C11.3432 38.9153 10.5769 39.5132 9.98738 39.5132C9.19581 39.4458 8.55581 38.7974 8.55581 38.0648V35.1679C8.55581 34.4437 9.17054 33.829 9.89475 33.829C10.6274 33.829 11.2842 34.469 11.3432 35.1679V38.0648Z" fill="#0078D4"/>
    <path d="M1.35575 41.7853C0.665224 41.7853 0.101013 41.2211 0.101013 40.5306V32.9264C0.101013 32.2358 0.665224 31.6716 1.35575 31.6716C2.04628 31.6716 2.61049 32.2358 2.61049 32.9264V40.5306C2.61049 41.2211 2.04628 41.7853 1.35575 41.7853Z" fill="#50E6FF"/>
    <path d="M47.9414 35.0753C47.7814 33.13 46.1646 31.5974 44.2698 31.5974C42.2993 31.5974 40.6993 33.1974 40.6993 35.1679V38.0648C40.6993 39.9595 42.2235 41.5764 44.2698 41.7448C46.2656 41.7448 47.9498 40.0606 47.9498 38.0648L47.9414 35.0753ZM45.7098 38.0648C45.7098 38.9153 44.9435 39.5132 44.354 39.5132C43.5625 39.4458 42.9225 38.7974 42.9225 38.0648V35.1679C42.9225 34.4437 43.5372 33.829 44.2614 33.829C44.994 33.829 45.6509 34.469 45.7098 35.1679V38.0648Z" fill="#0078D4"/>
    <path d="M35.7221 41.7853C35.0316 41.7853 34.4674 41.2211 34.4674 40.5306V32.9264C34.4674 32.2358 35.0316 31.6716 35.7221 31.6716C36.4127 31.6716 36.9769 32.2358 36.9769 32.9264V40.5306C36.9853 41.2211 36.4211 41.7853 35.7221 41.7853Z" fill="#50E6FF"/>
    <path d="M17.2887 25.7591C17.4487 27.7043 19.0655 29.237 20.9602 29.237C22.9308 29.237 24.5308 27.637 24.5308 25.6664V22.7696C24.5308 20.8749 23.0066 19.258 20.9602 19.0896C18.9644 19.0896 17.2802 20.7738 17.2802 22.7696L17.2887 25.7591ZM19.5118 22.7696C19.5118 21.9191 20.2781 21.3212 20.8676 21.3212C21.6592 21.3885 22.2992 22.037 22.2992 22.7696V25.6664C22.2992 26.3907 21.6844 27.0054 20.9602 27.0054C20.2276 27.0054 19.5708 26.3654 19.5118 25.6664V22.7696Z" fill="#50E6FF"/>
    <path d="M29.4989 19.0466C30.1895 19.0466 30.7537 19.6108 30.7537 20.3014V27.9056C30.7537 28.5961 30.1895 29.1603 29.4989 29.1603C28.8084 29.1603 28.2442 28.5961 28.2442 27.9056V20.3014C28.2442 19.6108 28.8084 19.0466 29.4989 19.0466Z" fill="#0078D4"/>
    <path d="M34.4758 25.7591C34.6358 27.7043 36.2527 29.237 38.1474 29.237C40.1179 29.237 41.7179 27.637 41.7179 25.6664V22.7696C41.7179 20.8749 40.1937 19.258 38.1474 19.0896C36.1516 19.0896 34.4674 20.7738 34.4674 22.7696L34.4758 25.7591ZM36.699 22.7696C36.699 21.9191 37.4653 21.3212 38.0548 21.3212C38.8464 21.3885 39.4864 22.037 39.4864 22.7696V25.6664C39.4864 26.3907 38.8716 27.0054 38.1474 27.0054C37.4148 27.0054 36.7579 26.3654 36.699 25.6664V22.7696Z" fill="#50E6FF"/>
    <path d="M46.6863 19.0466C47.3769 19.0466 47.9411 19.6108 47.9411 20.3014V27.9056C47.9411 28.5961 47.3769 29.1603 46.6863 29.1603C45.9958 29.1603 45.4316 28.5961 45.4316 27.9056V20.3014C45.4316 19.6108 45.9958 19.0466 46.6863 19.0466Z" fill="#0078D4"/>
    <path d="M0.10124 25.7591C0.26124 27.7043 1.87808 29.237 3.77282 29.237C5.74335 29.237 7.34335 27.637 7.34335 25.6664V22.7696C7.34335 20.8749 5.81913 19.258 3.77282 19.0896C1.77703 19.0896 0.0928192 20.7738 0.0928192 22.7696L0.10124 25.7591ZM2.3244 22.7696C2.3244 21.9191 3.09071 21.3212 3.68019 21.3212C4.47177 21.3885 5.11177 22.037 5.11177 22.7696V25.6664C5.11177 26.3907 4.49703 27.0054 3.77282 27.0054C3.04019 27.0054 2.38335 26.3654 2.3244 25.6664V22.7696Z" fill="#50E6FF"/>
    <path d="M12.3113 19.0466C13.0018 19.0466 13.566 19.6108 13.566 20.3014V27.9056C13.566 28.5961 13.0018 29.1603 12.3113 29.1603C11.6208 29.1603 11.0565 28.5961 11.0565 27.9056V20.3014C11.0565 19.6108 11.6208 19.0466 12.3113 19.0466Z" fill="#0078D4"/>
</svg>
