<svg data-slug-id="data02" viewBox="0 0 49 49" xmlns="http://www.w3.org/2000/svg">
<path d="M14.3589 38.7517C7.21123 38.7517 1.39746 32.9379 1.39746 25.7986V15.7734H13.1424C20.2901 15.7734 26.1039 21.5872 26.1039 28.7349V38.7517H14.3589V38.7517Z" fill="#50E6FF"/>
<path d="M31.0205 38.765V31.4327C31.0205 27.6492 34.0994 24.5703 37.8829 24.5703H46.6413V31.9025C46.6413 35.6861 43.5625 38.765 39.7789 38.765H31.0205V38.765Z" fill="#50E6FF"/>
<path d="M30.6003 21.0541C32.3239 21.0541 33.7211 19.6569 33.7211 17.9333C33.7211 16.2097 32.3239 14.8125 30.6003 14.8125C28.8767 14.8125 27.4795 16.2097 27.4795 17.9333C27.4795 19.6569 28.8767 21.0541 30.6003 21.0541Z" fill="#0078D4"/>
<path d="M47.664 17.1968C47.4543 12.7756 45.5751 8.64808 42.3704 5.586C39.1573 2.50713 34.9291 0.8125 30.4828 0.8125C26.2546 0.8125 22.1858 2.36452 19.0315 5.18331L18.4106 5.737L20.81 8.13634L21.3637 7.64976C23.8805 5.4266 27.1187 4.21016 30.4912 4.21016C34.1825 4.21016 37.6473 5.64472 40.2563 8.25379C42.6724 10.6699 44.107 13.8746 44.2832 17.2806L44.3251 18.0273H47.706L47.664 17.1968Z" fill="#0078D4"/>
<path d="M38.1512 10.3436C36.1042 8.29661 33.3777 7.16406 30.4834 7.16406C27.9498 7.16406 25.4918 8.05333 23.5539 9.66407L22.8911 10.2178L25.2904 12.6171L25.8357 12.1808C27.1696 11.1238 28.772 10.5617 30.475 10.5617C32.3458 10.5617 34.1327 11.258 35.5086 12.5164C36.876 13.7664 37.7233 15.4694 37.8995 17.3067L37.9666 18.0198H41.3559L41.2888 17.1725C41.0958 14.6053 39.9801 12.1808 38.1512 10.3436Z" fill="#0078D4"/>
<path d="M27.3624 38.2321V28.7354C27.3624 20.8831 20.9949 14.5156 13.1425 14.5156H0.13916V25.7908C0.13916 33.6432 6.50662 40.0106 14.359 40.0106H24.8624V48.3076H27.3791V38.2321H27.3624ZM6.08716 34.071C3.87239 31.8563 2.65594 28.92 2.65594 25.7992V17.0324H13.1425C16.2717 17.0324 19.208 18.2489 21.4144 20.4636C23.6207 22.6784 24.8456 25.6146 24.8456 28.7354V34.7506C23.9647 33.4586 22.2449 31.2606 19.1744 28.2992C15.9949 25.2371 13.1341 23.6599 11.3808 22.9049C10.9362 22.7119 10.5502 23.2656 10.8774 23.618C12.7315 25.5895 16.0704 29.1549 17.1274 30.3462C18.26 31.6214 21.8003 35.665 23.4026 37.5022H14.359C11.2298 37.5022 8.29353 36.2774 6.08716 34.071Z" fill="#0078D4"/>
<path d="M37.883 23.3125C33.3948 23.3125 29.7622 26.9451 29.7622 31.4333V38.2286V48.3125H32.279V40.0323H39.779C44.2673 40.0323 47.8998 36.3998 47.8998 31.9115V23.3125H37.883ZM45.383 31.9031C45.383 34.9904 42.8663 37.5072 39.779 37.5072H33.1095C34.0995 36.2068 35.8864 33.8746 36.5743 33.1028C37.1196 32.4904 38.5961 30.9132 39.7958 29.6296C40.2069 29.1934 39.6783 28.5138 39.1498 28.8075C38.0676 29.4115 36.7001 30.3427 35.232 31.7605C33.8813 33.0608 32.9334 34.1347 32.279 34.9568V31.4333C32.279 28.3461 34.7958 25.8293 37.883 25.8293H45.383V31.9031V31.9031Z" fill="#0078D4"/>
</svg>
