<svg data-slug-id="databox-gateway-new" xmlns="http://www.w3.org/2000/svg" viewBox="0 0 49 49">
    <path d="M25.3134 27.1388C25.3134 29.953 25.3134 38.5651 25.3134 38.5651C25.3134 38.5651 17.352 38.6136 13.8325 38.6136C7.49735 38.6136 2.35156 33.4706 2.35156 27.1388C2.35156 20.8071 7.49735 15.6641 13.8325 15.6641C20.1676 15.6641 25.3134 20.7828 25.3134 27.1388Z" fill="#50E6FF"/>
    <path d="M22.0574 29.2473C22.0574 28.8349 21.7418 28.5195 21.3292 28.5195H7.76083H6.71711C6.15884 28.5195 5.86757 29.1988 6.28021 29.587L6.66857 29.9751L9.84827 33.1531C10.2124 33.517 10.7706 33.517 11.1347 33.1531C11.4988 32.7892 11.4988 32.2312 11.1347 31.8674L10.2124 30.9455C9.84827 30.5816 10.1153 29.9751 10.625 29.9751H21.3535C21.7176 29.9751 22.0574 29.6597 22.0574 29.2473Z" fill="#0078D4"/>
    <path d="M6.10938 25.292C6.10938 25.7044 6.42492 26.0198 6.83755 26.0198H20.3816H21.4254C21.9836 26.0198 22.2749 25.3405 21.8623 24.9524L21.4739 24.5642L18.2942 21.3862C17.9301 21.0223 17.3718 21.0223 17.0078 21.3862C16.6437 21.7501 16.6437 22.3081 17.0078 22.672L17.9301 23.5938C18.2942 23.9577 18.0272 24.5642 17.5175 24.5642H6.83755C6.42492 24.5642 6.10938 24.8796 6.10938 25.292Z" fill="#0078D4"/>
    <path d="M35.3349 17.3842C33.0048 13.5754 28.8056 11.0039 23.9996 11.0039C21.0141 11.0039 18.2713 11.9985 16.0625 13.6725C20.8199 14.4488 24.7521 17.6753 26.4997 22.0178C27.1308 23.5946 27.4949 25.3171 27.4949 27.1365C27.4949 28.8347 27.4949 38.5628 27.4949 38.5628C27.4949 38.5628 32.8591 38.5143 35.2621 38.5143C41.1361 38.5143 45.8935 33.8807 45.8935 28.0099C45.8692 22.1633 41.1603 17.4327 35.3349 17.3842Z" fill="#0078D4"/>
</svg>
