<svg data-slug-id="database09" viewBox="0 0 49 49" xmlns="http://www.w3.org/2000/svg">
<path d="M6.20752 7.11719V41.3129C6.20752 44.8373 14.1135 47.7901 23.9245 47.7901V7.11719H6.20752Z" fill="#50E6FF"/>
<path d="M23.7339 47.7901H24.0196C33.8307 47.7901 41.7367 44.9325 41.7367 41.3129V7.11719H23.7339V47.7901Z" fill="#0072C5"/>
<path d="M23.543 47.7916H23.8287C33.735 47.7916 41.8315 44.934 41.8315 41.3144V7.02344H23.6382L23.543 47.7916Z" fill="#3BCAF4"/>
<path d="M41.7348 7.11782C41.7348 10.6422 33.8288 13.595 24.0178 13.595C14.2068 13.595 6.30078 10.7374 6.30078 7.11782C6.30078 3.49821 14.2068 0.640625 24.0178 0.640625C33.8288 0.640625 41.7348 3.59346 41.7348 7.11782Z" fill="white"/>
<path d="M38.1172 6.73559C38.1172 9.11691 31.8305 11.022 24.0198 11.022C16.209 11.022 9.92236 9.11691 9.92236 6.73559C9.92236 4.35427 16.209 2.44922 24.0198 2.44922C31.8305 2.44922 38.1172 4.35427 38.1172 6.73559Z" fill="#0078D4"/>
<path d="M35.1644 9.30742C36.9742 8.5454 38.1172 7.68812 38.1172 6.73559C38.1172 4.35427 31.8305 2.44922 24.0198 2.44922C16.209 2.44922 9.92236 4.35427 9.92236 6.73559C9.92236 7.68812 11.0654 8.64065 12.8752 9.30742C15.447 8.25964 19.5429 7.68812 24.0198 7.68812C28.4967 7.68812 32.5925 8.35489 35.1644 9.30742Z" fill="#3BCAF4"/>
</svg>
