<svg data-slug-id="data04" viewBox="0 0 49 49" xmlns="http://www.w3.org/2000/svg">
<path d="M48.0112 7.79429L48.0112 0.597656L40.8146 0.597656L40.8146 7.79428L48.0112 7.79429V7.79429Z" fill="#0078D4"/>
<path d="M48.0112 17.9818L48.0112 10.7852L40.8146 10.7852L40.8146 17.9818L48.0112 17.9818Z" fill="#50E6FF"/>
<path d="M48.0112 25.9446L48.0112 20.9727L0.0617952 20.9727L0.061795 25.9446L48.0112 25.9446Z" fill="#0078D4"/>
<path d="M48.0112 38.3646L48.0112 31.168L40.8146 31.168L40.8146 38.3646L48.0112 38.3646Z" fill="#0078D4"/>
<path d="M37.8315 7.79429L37.8315 0.597656L30.6349 0.597656L30.6349 7.79428L37.8315 7.79429V7.79429Z" fill="#50E6FF"/>
<path d="M37.8315 17.9818L37.8315 10.7852L30.6349 10.7852L30.6349 17.9818L37.8315 17.9818Z" fill="#0078D4"/>
<path d="M37.8315 48.556L37.8315 41.3594L30.6349 41.3594L30.6349 48.556L37.8315 48.556Z" fill="#0078D4"/>
<path d="M27.6265 7.79429L27.6265 0.597656L20.4298 0.597656L20.4298 7.79428L27.6265 7.79429V7.79429Z" fill="#0078D4"/>
<path d="M27.6265 17.9818L27.6265 10.7852L20.4298 10.7852L20.4298 17.9818L27.6265 17.9818Z" fill="#50E6FF"/>
<path d="M27.6265 38.3646L27.6265 31.168L20.4298 31.168L20.4298 38.3646L27.6265 38.3646Z" fill="#0078D4"/>
<path d="M17.438 7.79429L17.438 0.597656L10.2414 0.597656L10.2414 7.79428L17.438 7.79429V7.79429Z" fill="#50E6FF"/>
<path d="M17.438 17.9818L17.438 10.7852L10.2414 10.7852L10.2414 17.9818L17.438 17.9818Z" fill="#0078D4"/>
<path d="M17.438 48.556L17.438 41.3594L10.2414 41.3594L10.2414 48.556L17.438 48.556Z" fill="#0078D4"/>
<path d="M7.25 7.79429L7.25 0.597656L0.0533692 0.597656L0.0533689 7.79428L7.25 7.79429V7.79429Z" fill="#0078D4"/>
<path d="M7.25 17.9818L7.25 10.7852L0.0533692 10.7852L0.0533689 17.9818L7.25 17.9818Z" fill="#50E6FF"/>
<path d="M7.25 38.3646L7.25 31.168L0.0533692 31.168L0.0533689 38.3646L7.25 38.3646Z" fill="#0078D4"/>
</svg>
