<svg data-slug-id="data05" viewBox="0 0 49 49" xmlns="http://www.w3.org/2000/svg">
<path d="M7.24985 0.570312H0.0532227V7.76694H7.24985V0.570312V0.570312Z" fill="#0078D4"/>
<path d="M13.8395 0.570312C11.8508 0.570312 10.2412 2.17986 10.2412 4.16863C10.2412 6.15739 11.8508 7.76694 13.8395 7.76694C15.8283 7.76694 17.4378 6.15739 17.4378 4.16863C17.4378 2.17986 15.8283 0.570312 13.8395 0.570312Z" fill="#50E6FF"/>
<path d="M26.4127 0.570312H21.6094V48.5198H26.4127V0.570312Z" fill="#0078D4"/>
<path d="M44.4128 0.570312C42.424 0.570312 40.8145 2.17986 40.8145 4.16863C40.8145 6.15739 42.424 7.76694 44.4128 7.76694C46.4015 7.76694 48.0111 6.15739 48.0111 4.16863C48.0111 2.17986 46.4015 0.570312 44.4128 0.570312Z" fill="#50E6FF"/>
<path d="M3.65154 10.75C1.66277 10.75 0.0532227 12.3596 0.0532227 14.3483C0.0532227 16.3371 1.66277 17.9466 3.65154 17.9466C5.6403 17.9466 7.24985 16.3371 7.24985 14.3483C7.24985 12.368 5.63187 10.75 3.65154 10.75Z" fill="#50E6FF"/>
<path d="M17.6655 10.75H10.2329V18.1826H17.6655V10.75Z" fill="#0078D4"/>
<path d="M7.24985 20.957H0.0532227V28.1537H7.24985V20.957V20.957Z" fill="#0078D4"/>
<path d="M13.8395 20.957C11.8508 20.957 10.2412 22.5666 10.2412 24.5553C10.2412 26.5441 11.8508 28.1537 13.8395 28.1537C15.8283 28.1537 17.4378 26.5441 17.4378 24.5553C17.4378 22.5666 15.8283 20.957 13.8395 20.957Z" fill="#50E6FF"/>
<path d="M44.4128 20.957C42.424 20.957 40.8145 22.5666 40.8145 24.5553C40.8145 26.5441 42.424 28.1537 44.4128 28.1537C46.4015 28.1537 48.0111 26.5441 48.0111 24.5553C48.0111 22.5666 46.4015 20.957 44.4128 20.957Z" fill="#50E6FF"/>
<path d="M3.65154 31.1445C1.66277 31.1445 0.0532227 32.7541 0.0532227 34.7428C0.0532227 36.7316 1.66277 38.3412 3.65154 38.3412C5.6403 38.3412 7.24985 36.7316 7.24985 34.7428C7.24985 32.7541 5.63187 31.1445 3.65154 31.1445Z" fill="#50E6FF"/>
<path d="M17.6485 30.9258H10.2412V38.3331H17.6485V30.9258Z" fill="#0078D4"/>
<path d="M7.24985 41.332H0.0532227V48.5287H7.24985V41.332V41.332Z" fill="#0078D4"/>
<path d="M13.8395 41.332C11.8508 41.332 10.2412 42.9416 10.2412 44.9303C10.2412 46.9191 11.8508 48.5287 13.8395 48.5287C15.8283 48.5287 17.4378 46.9191 17.4378 44.9303C17.4378 42.9416 15.8283 41.332 13.8395 41.332Z" fill="#50E6FF"/>
<path d="M44.4128 41.332C42.424 41.332 40.8145 42.9416 40.8145 44.9303C40.8145 46.9191 42.424 48.5287 44.4128 48.5287C46.4015 48.5287 48.0111 46.9191 48.0111 44.9303C48.0111 42.9416 46.4015 41.332 44.4128 41.332Z" fill="#50E6FF"/>
<path d="M34.2248 10.75C32.236 10.75 30.6265 12.3596 30.6265 14.3483C30.6265 16.3371 32.236 17.9466 34.2248 17.9466C36.2135 17.9466 37.8231 16.3371 37.8231 14.3483C37.8231 12.368 36.2135 10.75 34.2248 10.75Z" fill="#50E6FF"/>
<path d="M34.2248 31.1445C32.236 31.1445 30.6265 32.7541 30.6265 34.7428C30.6265 36.7316 32.236 38.3412 34.2248 38.3412C36.2135 38.3412 37.8231 36.7316 37.8231 34.7428C37.8231 32.7541 36.2135 31.1445 34.2248 31.1445Z" fill="#50E6FF"/>
</svg>
