<svg data-slug-id="database02" viewBox="0 0 49 49" xmlns="http://www.w3.org/2000/svg">
<path d="M6.00342 6.85887V41.5255C6.00342 45.2126 14.0647 48.0868 23.961 48.0868H24.0784C34.0921 48.0868 42.036 45.0953 42.036 41.4082V6.98457L41.8768 6.80859L6.00342 6.85887Z" fill="#0078D4"/>
<path d="M42.036 6.95973C42.036 10.5295 33.9831 13.521 24.0784 13.521C14.182 13.521 6.00342 10.5295 6.00342 6.95973C6.00342 3.39 14.0647 0.398455 23.961 0.398455C33.9747 0.390075 42.036 3.38162 42.036 6.95973Z" fill="#50E6FF"/>
<path d="M37.804 30.1312V23.9219H34.117V27.7933C34.117 28.0447 34.1673 28.2458 33.941 28.2458H30.9495C30.4718 28.2458 30.5305 27.676 30.5305 27.676V23.9219H26.0474L26.8434 24.4498V28.4385C26.8434 28.4385 26.6507 31.1284 29.0473 31.1284H33.7399C34.1002 31.1284 34.5779 30.8602 34.603 30.7178C34.6281 30.5837 34.6449 31.8071 33.4215 31.8909H27.3211V34.7652H34.5276C35.2566 34.7652 36.2622 34.6478 36.9744 33.6339C37.6029 32.7373 37.7957 32.0166 37.7957 31.472C37.804 31.0781 37.804 30.1312 37.804 30.1312Z" fill="#50E6FF"/>
<path d="M12.9168 25.7827V31.5395H9.72412V22.3219C9.72412 22.3219 10.0007 20.3191 11.8442 20.3191C13.6877 20.3191 14.0815 20.6795 14.9447 22.3303C15.8078 23.9811 17.4837 27.048 17.4837 27.048C17.4837 27.048 19.7462 21.9364 20.0646 21.1655C20.3831 20.3946 21.3551 20.1851 22.4109 20.2605C23.45 20.3359 24.5226 20.8973 24.5729 22.3638V31.5395H21.3802V25.7827C21.3802 25.7827 19.4278 30.2574 19.0591 30.7853C18.6987 31.3133 18.0954 31.5563 17.4083 31.5563C16.7211 31.5563 15.8078 31.4809 15.372 30.6764C14.9279 29.872 12.9168 25.7827 12.9168 25.7827Z" fill="#50E6FF"/>
<path d="M38.4661 6.60856C38.4661 9.03028 32.0221 10.9827 24.1955 10.9827C16.3689 10.9827 9.80762 9.0219 9.80762 6.60856C9.80762 4.18684 16.2516 2.23438 24.0782 2.23438C31.9048 2.23438 38.4661 4.19522 38.4661 6.60856Z" fill="#0078D4"/>
</svg>
