<svg data-slug-id="database-sync" xmlns="http://www.w3.org/2000/svg" viewBox="0 0 49 49">
  <path d="M26.3806 39.1253C25.8577 39.1421 25.3264 39.1506 24.7952 39.1506H24.6687C14.2794 39.1506 5.81274 36.2606 5.81274 32.545V41.813C5.81274 45.5202 14.2794 48.4186 24.6687 48.4186H24.7952C27.8141 48.4186 30.6476 48.1743 33.1606 47.7277C29.6188 46.2448 27.0046 43.0179 26.3806 39.1253Z" fill="#0078D4"/>
  <path d="M24.6687 35.779H24.7952C25.318 35.779 25.8409 35.7706 26.3553 35.7537C27.1227 30.2772 31.8282 26.056 37.5288 26.056C39.7888 26.056 41.8886 26.7216 43.6595 27.859V7.04809L43.4909 6.87115L5.81274 6.92171V29.1734C5.81274 32.8806 14.2709 35.779 24.6687 35.779Z" fill="#0078D4"/>
  <path d="M24.6688 39.1497H24.7953C25.335 39.1497 25.8578 39.1412 26.3807 39.1244C26.2879 38.543 26.2373 37.9364 26.2373 37.3298C26.2373 36.799 26.2795 36.2681 26.347 35.7542C25.8326 35.771 25.3181 35.7795 24.7869 35.7795H24.6604C14.2711 35.7795 5.80444 32.8895 5.80444 29.1739V32.5441C5.81288 36.2513 14.2711 39.1497 24.6688 39.1497Z" fill="#50E6FF"/>
  <path d="M24.7869 23.1416H24.6604C14.2711 23.1416 5.80444 20.2516 5.80444 16.536V19.9062C5.80444 23.6134 14.2711 26.5118 24.6604 26.5118H24.7869C35.3027 26.5118 43.6428 23.5039 43.6428 19.7882V16.418C43.6428 20.1252 35.3027 23.1416 24.7869 23.1416Z" fill="#50E6FF"/>
  <path d="M43.6428 7.02302C43.6428 10.6123 35.1846 13.6286 24.7869 13.6286C14.3976 13.6286 5.80444 10.6207 5.80444 7.02302C5.81288 3.43376 14.2711 0.42586 24.6688 0.42586C35.1762 0.417434 43.6428 3.42533 43.6428 7.02302Z" fill="#50E6FF"/>
  <path d="M39.8985 6.66965C39.8985 9.10461 33.1353 11.0678 24.9132 11.0678C16.6912 11.0678 9.80151 9.10461 9.80151 6.66965C9.80151 4.23468 16.5731 2.27155 24.7868 2.27155C33.0088 2.27155 39.8985 4.24311 39.8985 6.66965Z" fill="#0078D4"/>
  <path d="M31.3137 39.5631C30.6897 37.9118 30.7403 36.1087 31.4824 34.4994C32.2076 32.8902 33.5316 31.66 35.1844 31.0281C36.1542 30.6574 37.1577 30.531 38.1781 30.6406L37.8914 32.2583L41.5007 30.3035L38.8021 27.1524L38.4901 28.9218C37.1662 28.7617 35.8253 28.9302 34.5773 29.402C32.4859 30.194 30.8246 31.7527 29.897 33.7833C28.9694 35.8222 28.9019 38.0971 29.6946 40.1866C30.2596 41.6864 31.2378 42.9923 32.5281 43.936L32.8401 44.1719L33.8773 42.7648L33.5653 42.5289C32.5365 41.779 31.7607 40.7427 31.3137 39.5631Z" fill="#0078D7"/>
  <path d="M45.3631 34.2626C44.8655 32.9314 44.0307 31.7602 42.9513 30.8419L41.8128 32.1562C42.6646 32.8808 43.3223 33.8076 43.7271 34.8777C45.0173 38.2984 43.2886 42.132 39.8648 43.4211C39.283 43.6402 38.6758 43.775 38.0433 43.8171L38.1361 42.0393L34.7629 44.3732L37.8072 47.5159L37.9253 45.578C38.7939 45.5275 39.6456 45.359 40.4636 45.0557C44.7981 43.4211 46.9906 38.5849 45.3631 34.2626Z" fill="#0078D7"/>
</svg>
