<svg data-slug-id="data03" viewBox="0 0 49 49" xmlns="http://www.w3.org/2000/svg">
<path d="M36.0973 3.77734H12.0454L0.0195312 24.6154L12.0454 45.3497H36.0973L48.0195 24.6154L36.0973 3.77734Z" fill="#137BD3"/>
<path d="M31.1217 11.9648H15.0525C13.3938 11.9648 11.9424 13.3126 11.9424 15.075V34.1506C11.9424 35.8093 13.2901 37.2607 15.0525 37.2607H33.0914C34.7502 37.2607 36.2016 35.913 36.2016 34.1506V16.6301L31.1217 11.9648ZM34.4391 34.1506C34.4391 34.8763 33.9208 35.3947 33.1951 35.3947H14.8452C14.1195 35.3947 13.6011 34.8763 13.6011 34.1506V14.9713C13.6011 14.2456 14.1195 13.7273 14.8452 13.7273H30.0849V17.6668H34.4391V34.1506Z" fill="#50E6FF"/>
<path d="M26.7666 15.6992C25.3152 15.6992 24.1748 16.8396 24.1748 18.291V20.8828C24.1748 22.3342 25.3152 23.4746 26.7666 23.4746C28.218 23.4746 29.3584 22.3342 29.3584 20.8828V18.291C29.2547 16.8396 28.1143 15.6992 26.7666 15.6992ZM28.0107 20.8828C28.0107 21.6085 27.3886 22.1269 26.7666 22.1269C26.1446 22.1269 25.5225 21.5048 25.5225 20.8828V18.3947C25.5225 17.669 26.1446 17.1506 26.7666 17.1506C27.3886 17.1506 28.0107 17.7727 28.0107 18.3947V20.8828Z" fill="#50E6FF"/>
<path d="M21.2725 25.3438C19.8211 25.3438 18.6807 26.4841 18.6807 27.9355V30.5273C18.6807 31.9787 19.8211 33.1191 21.2725 33.1191C22.7239 33.1191 23.8642 31.9787 23.8642 30.5273V27.9355C23.7606 26.4841 22.6202 25.3438 21.2725 25.3438ZM22.5165 30.4237C22.5165 31.1494 21.8945 31.6677 21.2725 31.6677C20.6504 31.6677 20.0284 31.0457 20.0284 30.4237V27.9355C20.0284 27.2098 20.6504 26.6915 21.2725 26.6915C21.8945 26.6915 22.5165 27.3135 22.5165 27.9355V30.4237Z" fill="#50E6FF"/>
<path d="M21.7915 22.0247V16.0117H20.5474L18.8887 17.4631L19.6144 17.8778L20.7548 17.0484V22.0247H19.1997V23.0614H23.4502V22.0247H21.7915Z" fill="#50E6FF"/>
<path d="M27.597 31.5598V25.5469H26.3529L24.7979 26.9983L25.5236 27.5166L26.6639 26.6873V31.5598H25.0052V32.5966H29.2557V31.5598H27.597Z" fill="#50E6FF"/>
</svg>
