<svg data-slug-id="database07" viewBox="0 0 49 49" xmlns="http://www.w3.org/2000/svg">
<path d="M5.05664 7.26562V19.8543" stroke="#0078D4" stroke-width="1.51899" stroke-miterlimit="10"/>
<path d="M23.9941 7.26562V19.8543" stroke="#0078D4" stroke-width="1.51899" stroke-miterlimit="10"/>
<path d="M15.3244 7.26562L5.04834 19.8543" stroke="#0078D4" stroke-width="1.51899" stroke-miterlimit="10"/>
<path d="M42.8896 7.26562V19.8543" stroke="#0078D4" stroke-width="1.51899" stroke-miterlimit="10"/>
<path d="M23.9893 10.3789L43.0018 18.277" stroke="#0078D4" stroke-width="1.51899" stroke-miterlimit="10"/>
<path d="M10.1022 29.5742H0.0195312V32.1559H10.1022V29.5742Z" fill="#50E6FF"/>
<path d="M28.9806 29.5742H18.8979V32.1559H28.9806V29.5742Z" fill="#50E6FF"/>
<path d="M47.9943 29.5742H37.9116V32.1559H47.9943V29.5742Z" fill="#50E6FF"/>
<path d="M10.1025 18.2031H0.0703125V28.1765H10.1025V18.2031Z" fill="#0078D4"/>
<path d="M47.877 18.0625H37.8447V28.0359H47.877V18.0625Z" fill="#0078D4"/>
<path d="M28.9644 18.2031H18.9321V28.1765H28.9644V18.2031Z" fill="#0078D4"/>
<path d="M5.02342 40.0586H4.98979H1.69336V46.4917C1.69336 47.1476 3.15657 47.7026 4.98979 47.711H5.04024C6.88187 47.711 8.3703 47.1728 8.3703 46.4917V40.0586H5.02342V40.0586Z" fill="#0078D4"/>
<path d="M8.37009 40.0592C8.37009 40.7235 6.88165 41.2785 5.04002 41.2785C3.1984 41.2785 1.70996 40.7403 1.70996 40.0592C1.70996 39.378 3.1984 38.8398 5.04002 38.8398C6.88165 38.8398 8.37009 39.3949 8.37009 40.0592Z" fill="white"/>
<path d="M7.68894 39.9948C7.68894 40.4405 6.50324 40.8021 5.04003 40.8021C3.57682 40.8021 2.39111 40.4405 2.39111 39.9948C2.39111 39.5491 3.57682 39.1875 5.04003 39.1875C6.50324 39.1875 7.68894 39.5407 7.68894 39.9948Z" fill="#50E6FF"/>
<path d="M23.9438 39.9492H23.9102H20.6138V46.3823C20.6138 47.0382 22.077 47.5932 23.9102 47.6016H23.9607C25.8023 47.6016 27.2907 47.0634 27.2907 46.3823V39.9492H23.9438Z" fill="#0078D4"/>
<path d="M27.291 39.9498C27.291 40.6141 25.8025 41.1692 23.9609 41.1692C22.1193 41.1692 20.6309 40.631 20.6309 39.9498C20.6309 39.2687 22.1193 38.7305 23.9609 38.7305C25.8025 38.7305 27.291 39.2939 27.291 39.9498Z" fill="white"/>
<path d="M26.6094 39.8854C26.6094 40.3311 25.4236 40.6927 23.9604 40.6927C22.4888 40.6927 21.3115 40.3311 21.3115 39.8854C21.3115 39.4397 22.4972 39.0781 23.9604 39.0781C25.4321 39.0781 26.6094 39.4397 26.6094 39.8854Z" fill="#50E6FF"/>
<path d="M42.957 39.9492H42.9234H39.627V46.3823C39.627 47.0382 41.0902 47.5932 42.9234 47.6016H42.9738C44.8155 47.6016 46.3039 47.0634 46.3039 46.3823V39.9492H42.957Z" fill="#0078D4"/>
<path d="M46.3042 39.9498C46.3042 40.6141 44.8157 41.1692 42.9741 41.1692C41.1325 41.1692 39.644 40.631 39.644 39.9498C39.644 39.2687 41.1325 38.7305 42.9741 38.7305C44.8157 38.7305 46.3042 39.2939 46.3042 39.9498Z" fill="white"/>
<path d="M45.6225 39.8854C45.6225 40.3311 44.4368 40.6927 42.9736 40.6927C41.502 40.6927 40.3247 40.3311 40.3247 39.8854C40.3247 39.4397 41.5104 39.0781 42.9736 39.0781C44.4368 39.0781 45.6225 39.4397 45.6225 39.8854Z" fill="#50E6FF"/>
<path d="M7.57946 0.570312H2.51709V5.63268H7.57946V0.570312Z" fill="#0078D4"/>
<path d="M7.57946 5.53125H2.51709V10.5936H7.57946V5.53125Z" fill="#50E6FF"/>
<path d="M26.5253 0.570312H21.4629V5.63268H26.5253V0.570312Z" fill="#0078D4"/>
<path d="M26.5253 5.53125H21.4629V10.5936H26.5253V5.53125Z" fill="#50E6FF"/>
<path d="M17.6786 0.570312H12.6162V5.63268H17.6786V0.570312Z" fill="#0078D4"/>
<path d="M17.6786 5.53125H12.6162V10.5936H17.6786V5.53125Z" fill="#50E6FF"/>
<path d="M45.4462 0.570312H40.3838V5.63268H45.4462V0.570312Z" fill="#0078D4"/>
<path d="M45.4462 5.53125H40.3838V10.5936H45.4462V5.53125Z" fill="#50E6FF"/>
<path d="M35.3296 22.6797L37.146 24.4961L35.3296 26.3125V22.6797Z" fill="#0078D4"/>
<path d="M32.4292 26.3125L30.6128 24.4961L32.4292 22.6797V26.3125Z" fill="#0078D4"/>
<path d="M35.7256 23.6445H31.4453V25.3264H35.7256V23.6445Z" fill="#0078D4"/>
<path d="M15.8037 22.6797L17.6201 24.4961L15.8037 26.3125V22.6797Z" fill="#0078D4"/>
<path d="M12.9028 26.3125L11.0864 24.4961L12.9028 22.6797V26.3125Z" fill="#0078D4"/>
<path d="M16.1988 23.6445H11.9185V25.3264H16.1988V23.6445Z" fill="#0078D4"/>
</svg>
