<svg data-slug-id="database03" viewBox="0 0 49 49" xmlns="http://www.w3.org/2000/svg">
<path d="M19.4206 39.0297C30.0582 39.0297 38.6816 30.4063 38.6816 19.7688C38.6816 9.13124 30.0582 0.507812 19.4206 0.507812C8.78309 0.507812 0.159668 9.13124 0.159668 19.7688C0.159668 30.4063 8.78309 39.0297 19.4206 39.0297Z" fill="#50E6FF"/>
<path d="M10.6435 17.4641C11.5599 17.4641 12.1652 17.6322 12.4679 17.9685C12.7706 18.3048 12.8462 18.8849 12.6865 19.7088C12.5183 20.5663 12.1989 21.1717 11.7281 21.5416C11.2573 21.9031 10.5342 22.088 9.559 22.088H8.09614L8.99571 17.4641H10.6435ZM4.78369 26.7625H7.18816L7.75985 23.8283H9.81962C10.7276 23.8283 11.4758 23.7359 12.0643 23.5425C12.6529 23.3491 13.1825 23.0297 13.6701 22.5841C14.0737 22.2142 14.4016 21.8022 14.6454 21.3566C14.8976 20.911 15.0741 20.415 15.175 19.8769C15.4272 18.5654 15.2339 17.5481 14.6033 16.8167C13.9644 16.0853 12.9471 15.7238 11.5599 15.7238H6.93594L4.78369 26.7625ZM16.9405 12.7812H19.3282L18.7565 15.7154H20.8835C22.2203 15.7154 23.1451 15.9508 23.6495 16.4132C24.1539 16.884 24.3137 17.6322 24.1035 18.6831L23.103 23.8199H20.6818L21.6318 18.9353C21.7411 18.3805 21.699 18.0021 21.5141 17.8004C21.3291 17.5986 20.9256 17.4977 20.3202 17.4977H18.4118L17.1843 23.8283H14.7967L16.9405 12.7812ZM29.4253 17.4641C30.3417 17.4641 30.947 17.6322 31.2496 17.9685C31.5523 18.3048 31.628 18.8849 31.4682 19.7088C31.3001 20.5663 30.9806 21.1717 30.5098 21.5416C30.039 21.9031 29.316 22.088 28.3407 22.088H26.8779L27.7775 17.4641H29.4253ZM23.5654 26.7625H25.9699L26.5416 23.8283H28.6014C29.5093 23.8283 30.2576 23.7359 30.8461 23.5425C31.4346 23.3491 31.9642 23.0297 32.4519 22.5841C32.8554 22.2142 33.1833 21.8022 33.4271 21.3566C33.6793 20.911 33.8559 20.415 33.9568 19.8769C34.209 18.5654 34.0156 17.5481 33.3851 16.8167C32.7461 16.0853 31.7288 15.7238 30.3417 15.7238H25.7177L23.5654 26.7625Z" fill="#0078D4"/>
<path d="M29.9297 27.5198V44.8891C29.9297 46.7387 33.9652 48.1763 38.9254 48.1763H38.9843C44.0034 48.1763 47.98 46.6799 47.98 44.8303V27.4609L29.9297 27.5198Z" fill="#0078D4"/>
<path d="M47.9885 27.5177C47.9885 29.3084 43.953 30.8049 38.9844 30.8049C34.0241 30.8049 29.9214 29.3084 29.9214 27.5177C29.9214 25.727 33.9569 24.2305 38.9255 24.2305C43.953 24.2305 47.9885 25.727 47.9885 27.5177Z" fill="#50E6FF"/>
<path d="M46.2062 27.3427C46.2062 28.5534 42.9778 29.537 39.0517 29.537C35.1339 29.537 31.8467 28.5534 31.8467 27.3427C31.8467 26.1321 35.0751 25.1484 39.0012 25.1484C42.9274 25.1484 46.2062 26.1321 46.2062 27.3427Z" fill="#0078D4"/>
<path d="M45.8025 39.1302V36.0195H43.9529V37.9616C43.9529 38.0877 43.9782 38.1886 43.8689 38.1886H42.3724C42.137 38.1886 42.1622 37.9027 42.1622 37.9027V36.0195H39.9175L40.3126 36.2802V38.2811C40.3126 38.2811 40.2117 39.6262 41.4224 39.6262H43.7764C43.9614 39.6262 44.1968 39.4917 44.2052 39.4245C44.2136 39.3572 44.2304 39.9709 43.6167 40.013H40.5564V41.4506H44.1631C44.5246 41.4506 45.0375 41.3917 45.3906 40.8789C45.7101 40.4249 45.8025 40.0718 45.8025 39.7944C45.8025 39.601 45.8025 39.1302 45.8025 39.1302Z" fill="#50E6FF"/>
<path d="M33.3347 36.9418V39.8255H31.7373V35.2099C31.7373 35.2099 31.8802 34.2094 32.805 34.2094C33.7298 34.2094 33.9232 34.3944 34.3604 35.2183C34.7807 36.0422 35.6214 37.5807 35.6214 37.5807C35.6214 37.5807 36.7564 35.0165 36.9162 34.6382C37.0759 34.2515 37.5635 34.1422 38.0932 34.1842C38.6144 34.2179 39.1525 34.5037 39.1777 35.2351V39.8339H37.5803V36.9502C37.5803 36.9502 36.5967 39.1949 36.4201 39.4556C36.2352 39.7246 35.9325 39.8423 35.5962 39.8423C35.2515 39.8423 34.7975 39.8003 34.5705 39.4051C34.3435 39.0016 33.3347 36.9418 33.3347 36.9418Z" fill="#50E6FF"/>
</svg>
