<svg data-slug-id="data-search" xmlns="http://www.w3.org/2000/svg" viewBox="0 0 48 48">
	<path d="M35.7908 0.00500488H48V12.2142H42.9479V5.0571H35.7908V0.00500488Z" fill="#0078D4"/>
	<path d="M19.3663 12.2092H14.3142V0H26.5234V5.0521H19.3663V12.2092Z" fill="#0078D4"/>
	<path d="M42.9479 21.4428H48V33.652H35.7908V28.5999H42.9479V21.4428Z" fill="#0078D4"/>
	<path d="M14.3142 33.6582V21.449H19.3663V28.6061H26.5234V33.6582H14.3142Z" fill="#0078D4"/>
	<path d="M24.0026 19.3714C22.6049 19.3714 21.4766 18.2431 21.4766 16.8453C21.4766 15.4476 22.6049 14.3193 24.0026 14.3193C25.4004 14.3193 26.5287 15.4476 26.5287 16.8453C26.5287 18.2346 25.3919 19.3714 24.0026 19.3714Z" fill="#50E6FF"/>
	<path d="M31.1598 12.2143C29.7621 12.2143 28.6338 11.086 28.6338 9.68828C28.6338 8.29053 29.7621 7.16223 31.1598 7.16223C32.5576 7.16223 33.6859 8.29053 33.6859 9.68828C33.6859 11.0776 32.5492 12.2143 31.1598 12.2143Z" fill="#50E6FF"/>
	<path d="M38.3168 19.3714C36.9191 19.3714 35.7908 18.2431 35.7908 16.8453C35.7908 15.4476 36.9191 14.3193 38.3168 14.3193C39.7146 14.3193 40.8429 15.4476 40.8429 16.8453C40.8429 18.2346 39.7061 19.3714 38.3168 19.3714Z" fill="#50E6FF"/>
	<path d="M31.1598 26.5285C29.7621 26.5285 28.6338 25.4002 28.6338 24.0024C28.6338 22.6047 29.7621 21.4764 31.1598 21.4764C32.5576 21.4764 33.6859 22.6047 33.6859 24.0024C33.6859 25.3918 32.5492 26.5285 31.1598 26.5285Z" fill="#50E6FF"/>
	<path d="M31.1598 19.3714C29.7621 19.3714 28.6338 18.2431 28.6338 16.8453C28.6338 15.4476 29.7621 14.3193 31.1598 14.3193C32.5576 14.3193 33.6859 15.4476 33.6859 16.8453C33.6859 18.2346 32.5492 19.3714 31.1598 19.3714Z" fill="#50E6FF"/>
	<path d="M2.53069 5.05661C1.13294 5.05661 0.00463867 3.92831 0.00463867 2.53056C0.00463867 1.13282 1.13294 0.0045166 2.53069 0.0045166C3.92843 0.0045166 5.05673 1.13282 5.05673 2.53056C5.05673 3.91989 3.92001 5.05661 2.53069 5.05661Z" fill="#50E6FF"/>
	<path d="M12.2142 0.00500488H7.16211V5.0571H12.2142V0.00500488Z" fill="#50E6FF"/>
	<path d="M5.05722 7.16223H0.00512695V12.2143H5.05722V7.16223Z" fill="#50E6FF"/>
	<path d="M12.2142 7.16223H7.16211V12.2143H12.2142V7.16223Z" fill="#50E6FF"/>
	<path d="M5.05722 14.3193H0.00512695V19.3714H5.05722V14.3193Z" fill="#50E6FF"/>
	<path d="M9.68816 19.3714C8.29041 19.3714 7.16211 18.2431 7.16211 16.8453C7.16211 15.4476 8.29041 14.3193 9.68816 14.3193C11.0859 14.3193 12.2142 15.4476 12.2142 16.8453C12.2142 18.2346 11.0775 19.3714 9.68816 19.3714Z" fill="#50E6FF"/>
	<path d="M5.05722 28.6336H0.00512695V33.6857H5.05722V28.6336Z" fill="#50E6FF"/>
	<path d="M12.2142 35.7907H7.16211V40.8428H12.2142V35.7907Z" fill="#50E6FF"/>
	<path d="M45.474 48C44.0763 48 42.948 46.8717 42.948 45.4739C42.948 44.0762 44.0763 42.9479 45.474 42.9479C46.8718 42.9479 48.0001 44.0762 48.0001 45.4739C48.0001 46.8632 46.8634 48 45.474 48Z" fill="#50E6FF"/>
	<path d="M33.6859 42.9479H28.6338V48H33.6859V42.9479Z" fill="#50E6FF"/>
	<path d="M40.8429 35.7907H35.7908V40.8428H40.8429V35.7907Z" fill="#50E6FF"/>
	<path d="M16.8454 48C15.4476 48 14.3193 46.8717 14.3193 45.4739C14.3193 44.0762 15.4476 42.9479 16.8454 42.9479C18.2431 42.9479 19.3714 44.0762 19.3714 45.4739C19.3714 46.8632 18.2347 48 16.8454 48Z" fill="#50E6FF"/>
	<path d="M12.2142 42.9479H7.16211V48H12.2142V42.9479Z" fill="#50E6FF"/>
	<path d="M26.5287 35.7907H21.4766V40.8428H26.5287V35.7907Z" fill="#50E6FF"/>
</svg>
