<svg data-slug-id="data" xmlns="http://www.w3.org/2000/svg" viewBox="0 0 49 49">
    <path d="M4.60449 5.55469H2.60449V15.5547H4.60449V5.55469Z" fill="#0078D4"/>
    <path d="M11.6045 15.5547C9.70449 15.5547 7.60449 13.6547 7.60449 10.5547C7.60449 7.45469 9.70449 5.55469 11.6045 5.55469C13.5045 5.55469 15.6045 7.45469 15.6045 10.5547C15.6045 13.6547 13.5045 15.5547 11.6045 15.5547ZM11.6045 7.55469C10.8045 7.55469 9.60449 8.55469 9.60449 10.5547C9.60449 12.5547 10.8045 13.5547 11.6045 13.5547C12.4045 13.5547 13.6045 12.5547 13.6045 10.5547C13.6045 8.55469 12.4045 7.55469 11.6045 7.55469Z" fill="#0078D4"/>
    <path d="M20.6045 5.55469H18.6045V15.5547H20.6045V5.55469Z" fill="#0078D4"/>
    <path d="M27.6045 15.5547C25.7045 15.5547 23.6045 13.6547 23.6045 10.5547C23.6045 7.45469 25.7045 5.55469 27.6045 5.55469C29.5045 5.55469 31.6045 7.45469 31.6045 10.5547C31.6045 13.6547 29.5045 15.5547 27.6045 15.5547ZM27.6045 7.55469C26.8045 7.55469 25.6045 8.55469 25.6045 10.5547C25.6045 12.5547 26.8045 13.5547 27.6045 13.5547C28.4045 13.5547 29.6045 12.5547 29.6045 10.5547C29.6045 8.55469 28.4045 7.55469 27.6045 7.55469Z" fill="#0078D4"/>
    <path d="M36.6045 5.55469H34.6045V15.5547H36.6045V5.55469Z" fill="#0078D4"/>
    <path d="M43.6045 15.5547C41.7045 15.5547 39.6045 13.6547 39.6045 10.5547C39.6045 7.45469 41.7045 5.55469 43.6045 5.55469C45.5045 5.55469 47.6045 7.45469 47.6045 10.5547C47.6045 13.6547 45.5045 15.5547 43.6045 15.5547ZM43.6045 7.55469C42.8045 7.55469 41.6045 8.55469 41.6045 10.5547C41.6045 12.5547 42.8045 13.5547 43.6045 13.5547C44.4045 13.5547 45.6045 12.5547 45.6045 10.5547C45.6045 8.55469 44.4045 7.55469 43.6045 7.55469Z" fill="#0078D4"/>
    <path d="M5.60449 29.5547C3.70449 29.5547 1.60449 27.6547 1.60449 24.5547C1.60449 21.4547 3.70449 19.5547 5.60449 19.5547C7.50449 19.5547 9.60449 21.4547 9.60449 24.5547C9.60449 27.6547 7.50449 29.5547 5.60449 29.5547ZM5.60449 21.5547C4.80449 21.5547 3.60449 22.5547 3.60449 24.5547C3.60449 26.5547 4.80449 27.5547 5.60449 27.5547C6.40449 27.5547 7.60449 26.5547 7.60449 24.5547C7.60449 22.5547 6.40449 21.5547 5.60449 21.5547Z" fill="#0078D4"/>
    <path d="M14.6045 19.5547H12.6045V29.5547H14.6045V19.5547Z" fill="#0078D4"/>
    <path d="M21.6045 29.5547C19.7045 29.5547 17.6045 27.6547 17.6045 24.5547C17.6045 21.4547 19.7045 19.5547 21.6045 19.5547C23.5045 19.5547 25.6045 21.4547 25.6045 24.5547C25.6045 27.6547 23.5045 29.5547 21.6045 29.5547ZM21.6045 21.5547C20.8045 21.5547 19.6045 22.5547 19.6045 24.5547C19.6045 26.5547 20.8045 27.5547 21.6045 27.5547C22.4045 27.5547 23.6045 26.5547 23.6045 24.5547C23.6045 22.5547 22.4045 21.5547 21.6045 21.5547Z" fill="#0078D4"/>
    <path d="M30.6045 19.5547H28.6045V29.5547H30.6045V19.5547Z" fill="#0078D4"/>
    <path d="M46.6045 19.5547H44.6045V29.5547H46.6045V19.5547Z" fill="#0078D4"/>
    <path d="M37.6045 29.5547C35.7045 29.5547 33.6045 27.6547 33.6045 24.5547C33.6045 21.4547 35.7045 19.5547 37.6045 19.5547C39.5045 19.5547 41.6045 21.4547 41.6045 24.5547C41.6045 27.6547 39.5045 29.5547 37.6045 29.5547ZM37.6045 21.5547C36.8045 21.5547 35.6045 22.5547 35.6045 24.5547C35.6045 26.5547 36.8045 27.5547 37.6045 27.5547C38.4045 27.5547 39.6045 26.5547 39.6045 24.5547C39.6045 22.5547 38.4045 21.5547 37.6045 21.5547Z" fill="#0078D4"/>
    <path d="M4.60449 33.5547H2.60449V43.5547H4.60449V33.5547Z" fill="#0078D4"/>
    <path d="M11.6045 43.5547C9.70449 43.5547 7.60449 41.6547 7.60449 38.5547C7.60449 35.4547 9.70449 33.5547 11.6045 33.5547C13.5045 33.5547 15.6045 35.4547 15.6045 38.5547C15.6045 41.6547 13.5045 43.5547 11.6045 43.5547ZM11.6045 35.5547C10.8045 35.5547 9.60449 36.5547 9.60449 38.5547C9.60449 40.5547 10.8045 41.5547 11.6045 41.5547C12.4045 41.5547 13.6045 40.5547 13.6045 38.5547C13.6045 36.5547 12.4045 35.5547 11.6045 35.5547Z" fill="#0078D4"/>
    <path d="M20.6045 33.5547H18.6045V43.5547H20.6045V33.5547Z" fill="#0078D4"/>
    <path d="M27.6045 43.5547C25.7045 43.5547 23.6045 41.6547 23.6045 38.5547C23.6045 35.4547 25.7045 33.5547 27.6045 33.5547C29.5045 33.5547 31.6045 35.4547 31.6045 38.5547C31.6045 41.6547 29.5045 43.5547 27.6045 43.5547ZM27.6045 35.5547C26.8045 35.5547 25.6045 36.5547 25.6045 38.5547C25.6045 40.5547 26.8045 41.5547 27.6045 41.5547C28.4045 41.5547 29.6045 40.5547 29.6045 38.5547C29.6045 36.5547 28.4045 35.5547 27.6045 35.5547Z" fill="#0078D4"/>
    <path d="M36.6045 33.5547H34.6045V43.5547H36.6045V33.5547Z" fill="#0078D4"/>
    <path d="M43.6045 43.5547C41.7045 43.5547 39.6045 41.6547 39.6045 38.5547C39.6045 35.4547 41.7045 33.5547 43.6045 33.5547C45.5045 33.5547 47.6045 35.4547 47.6045 38.5547C47.6045 41.6547 45.5045 43.5547 43.6045 43.5547ZM43.6045 35.5547C42.8045 35.5547 41.6045 36.5547 41.6045 38.5547C41.6045 40.5547 42.8045 41.5547 43.6045 41.5547C44.4045 41.5547 45.6045 40.5547 45.6045 38.5547C45.6045 36.5547 44.4045 35.5547 43.6045 35.5547Z" fill="#0078D4"/>
</svg>
