<svg data-slug-id="database01" viewBox="0 0 49 49" xmlns="http://www.w3.org/2000/svg">
<path d="M42.867 27.8672H5.05469V39.2123C5.05469 44.1564 13.5416 48.1655 24.0156 48.1655C34.4895 48.1655 42.968 44.1564 42.968 39.2123C42.968 39.2123 42.9512 27.943 42.867 27.8672Z" fill="#0078D7"/>
<path d="M42.9512 25.8516L42.9765 35.7733C42.9765 40.7173 34.4895 44.7265 24.0156 44.7265C13.5416 44.7265 5.05469 40.7089 5.05469 35.7733V25.8516H42.9512Z" fill="#50E6FF"/>
<path d="M42.867 15.6094H5.05469V26.9545C5.05469 31.8985 13.5416 35.9077 24.0156 35.9077C34.4895 35.9077 42.9765 31.8985 42.9765 26.9545C42.968 26.9545 42.9512 15.6852 42.867 15.6094Z" fill="#0078D7"/>
<path d="M42.9675 8.58594H5.0542V17.9855C5.0542 22.9295 13.5411 26.9386 24.0151 26.9386C34.489 26.9386 42.9675 22.9295 42.9675 17.9855C42.9675 17.9855 42.9675 8.66174 42.9675 8.58594Z" fill="#50E6FF"/>
<path d="M24.0151 17.91C34.4869 17.91 42.976 13.9505 42.976 9.06631C42.976 4.1821 34.4869 0.222656 24.0151 0.222656C13.5433 0.222656 5.0542 4.1821 5.0542 9.06631C5.0542 13.9505 13.5433 17.91 24.0151 17.91Z" fill="#0078D7"/>
</svg>
