<svg data-slug-id="decision-category" xmlns="http://www.w3.org/2000/svg" viewBox="0 0 49 49">
  <path d="M43.4145 4.10981C44.3795 4.10981 45.1516 4.39933 45.7306 4.97837C46.3096 5.65391 46.5992 6.42596 46.5992 7.39102C46.5992 8.06656 46.5027 9.03162 45.8271 9.70717C45.2481 10.2862 44.476 10.5757 43.511 10.5757C42.8354 10.5757 41.8704 10.4792 41.1948 9.80367C40.3263 9.12813 40.0367 8.35608 40.0367 7.39102C40.0367 6.42596 40.4228 5.65391 41.0018 5.07487C41.6773 4.39933 42.5459 4.10981 43.4145 4.10981ZM43.4145 20.9984C44.3795 20.9984 45.1516 21.2879 45.7306 21.8669C46.2131 22.3495 46.5027 23.218 46.5027 24.1831C46.5027 24.8586 46.4062 25.8237 45.7306 26.4992C45.1516 27.0783 44.3795 27.3678 43.4145 27.3678C42.7389 27.3678 41.7739 27.2713 41.0983 26.5957C40.5193 26.0167 40.2298 25.2447 40.2298 24.2796C40.2298 23.3145 40.6158 22.5425 41.1948 21.9634C41.6773 21.3844 42.5459 20.9984 43.4145 20.9984ZM43.4145 37.887C44.3795 37.887 45.1516 38.1765 45.7306 38.7555C46.3096 39.4311 46.5992 40.2031 46.5992 41.1682C46.5992 41.8437 46.5027 42.8088 45.8271 43.4843C45.2481 44.0634 44.476 44.3529 43.511 44.3529C42.8354 44.3529 41.8704 44.2564 41.1948 43.5808C40.6158 43.0018 40.3263 42.2297 40.3263 41.2647C40.3263 40.2996 40.7123 39.5276 41.2913 38.9485C41.6773 38.1765 42.5459 37.887 43.4145 37.887ZM43.4145 2.17969C41.9669 2.17969 40.7123 2.75872 39.7472 3.62728C38.7822 4.49583 38.2031 5.84692 38.2031 7.29451C38.2031 8.7421 38.6857 9.99668 39.6507 10.9617C40.5193 11.9268 41.8704 12.4093 43.318 12.4093C44.7655 12.4093 46.0201 11.9268 46.9852 10.9617C47.9502 10.0932 48.4328 8.7421 48.4328 7.29451C48.4328 5.84692 47.9502 4.59234 47.0817 3.62728C46.1166 2.66222 44.8621 2.17969 43.4145 2.17969ZM43.4145 19.0683C41.9669 19.0683 40.7123 19.6473 39.7472 20.5159C38.7822 21.3844 38.2031 22.7355 38.2031 24.1831C38.2031 25.6307 38.6857 26.8853 39.6507 27.8503C40.5193 28.9119 41.8704 29.2979 43.318 29.2979C44.7655 29.2979 46.0201 28.8154 46.9852 27.8503C47.9502 26.9818 48.4328 25.6307 48.4328 24.1831C48.4328 22.7355 47.9502 21.3844 47.0817 20.5159C46.1166 19.5508 44.8621 19.0683 43.4145 19.0683ZM43.4145 35.9568C41.9669 35.9568 40.7123 36.5359 39.7472 37.4044C38.7822 38.273 38.2031 39.6241 38.2031 41.0717C38.2031 42.5193 38.6857 43.7738 39.6507 44.7389C40.5193 45.704 41.8704 46.1865 43.318 46.1865C44.7655 46.1865 46.0201 45.704 46.9852 44.7389C47.9502 43.8703 48.4328 42.5193 48.4328 41.0717C48.4328 39.6241 47.9502 38.3695 47.0817 37.4044C46.1166 36.3429 44.8621 35.9568 43.4145 35.9568Z" fill="#0078D4"/>
  <path d="M25.0785 4.10981C26.0436 4.10981 26.8156 4.39933 27.3947 4.97837C27.9737 5.65391 28.2632 6.42596 28.2632 7.39102C28.2632 8.06656 28.1667 9.03162 27.4912 9.70717C26.9121 10.2862 26.1401 10.5757 25.175 10.5757C24.4995 10.5757 23.5344 10.4792 22.8589 9.80367C21.9903 9.12813 21.7008 8.35608 21.7008 7.39102C21.7008 6.42596 22.0868 5.65391 22.6659 5.07487C23.3414 4.39933 24.21 4.10981 25.0785 4.10981ZM25.0785 37.887C26.0436 37.887 26.8156 38.1765 27.3947 38.7555C27.9737 39.4311 28.2632 40.2031 28.2632 41.1682C28.2632 41.8437 28.1667 42.8088 27.4912 43.4843C26.9121 44.0634 26.1401 44.3529 25.175 44.3529C24.4995 44.3529 23.5344 44.2564 22.8589 43.5808C22.2798 43.0018 21.9903 42.2297 21.9903 41.2647C21.9903 40.2996 22.3763 39.5276 22.9554 38.9485C23.3414 38.1765 24.21 37.887 25.0785 37.887ZM25.0785 2.17969C23.6309 2.17969 22.3763 2.75872 21.4113 3.62728C20.4462 4.49583 19.8672 5.84692 19.8672 7.29451C19.8672 8.7421 20.3497 9.99668 21.3148 10.9617C22.1833 11.9268 23.5344 12.4093 24.982 12.4093C26.4296 12.4093 27.6842 11.9268 28.6492 10.9617C29.6143 10.0932 30.0968 8.7421 30.0968 7.29451C30.0968 5.84692 29.6143 4.59234 28.7458 3.62728C27.7807 2.66222 26.5261 2.17969 25.0785 2.17969ZM25.0785 35.9568C23.6309 35.9568 22.3763 36.5359 21.4113 37.4044C20.4462 38.273 19.8672 39.6241 19.8672 41.0717C19.8672 42.5193 20.3497 43.7738 21.3148 44.7389C22.1833 45.704 23.5344 46.1865 24.982 46.1865C26.4296 46.1865 27.6842 45.704 28.6492 44.7389C29.6143 43.8703 30.0968 42.5193 30.0968 41.0717C30.0968 39.6241 29.6143 38.3695 28.7458 37.4044C27.7807 36.3429 26.5261 35.9568 25.0785 35.9568Z" fill="#0078D4"/>
  <path d="M10.3109 26.498C10.1179 26.7876 9.92485 27.0771 9.63533 27.2701C9.44232 27.4631 9.1528 27.6561 8.86328 27.8491L20.83 39.8159C21.0231 39.1404 21.4091 38.5613 21.8916 38.0788L10.3109 26.498Z" fill="#0078D4"/>
  <path d="M10.312 21.9643L21.8928 10.3836C21.4102 9.90106 21.1207 9.32203 20.9277 8.64648L8.96094 20.6132C9.25046 20.8063 9.53997 20.9993 9.82949 21.1923C9.926 21.4818 10.119 21.7713 10.312 21.9643Z" fill="#0078D4"/>
  <path d="M27.6797 10.6711L39.4534 22.4448C39.6464 21.9623 39.936 21.5762 40.322 21.2867C40.4185 21.1902 40.6115 21.0937 40.708 20.9972L28.8378 9.12695C28.6447 9.60948 28.3552 9.99551 27.9692 10.3815C27.8727 10.478 27.7762 10.5745 27.6797 10.6711Z" fill="#0078D4"/>
  <path d="M39.4546 26.1152L27.7773 37.7925C27.8738 37.889 27.9704 37.9855 28.0669 38.082C28.4529 38.468 28.6459 38.9505 28.8389 39.4331L40.6127 27.6593C40.5162 27.5628 40.4196 27.4663 40.3231 27.3698C39.9371 26.9838 39.6476 26.5978 39.4546 26.1152Z" fill="#0078D4"/>
  <path d="M6.73753 4.10981C7.70259 4.10981 8.47464 4.39933 9.05367 4.97837C9.63271 5.65391 9.92223 6.42596 9.92223 7.39102C9.92223 8.06656 9.82572 9.03162 9.15018 9.70717C8.37813 10.2862 7.60608 10.5757 6.64102 10.5757C5.86897 10.5757 4.90391 10.4792 4.32487 9.80367C3.64933 9.12813 3.35981 8.35608 3.35981 7.39102C3.35981 6.42596 3.74583 5.65391 4.32487 5.07487C5.00041 4.39933 5.86897 4.10981 6.73753 4.10981ZM6.73753 20.9984C7.70259 20.9984 8.47464 21.2879 9.05367 21.8669C9.5362 22.3495 9.82572 23.218 9.82572 24.1831C9.82572 24.8586 9.72922 25.8237 9.05367 26.4992C8.47464 27.0783 7.70259 27.3678 6.73753 27.3678C6.06198 27.3678 5.09692 27.2713 4.42138 26.5957C3.64933 26.0167 3.35981 25.2447 3.35981 24.2796C3.35981 23.3145 3.74583 22.5425 4.32487 21.9634C5.00041 21.3844 5.86897 20.9984 6.73753 20.9984ZM6.73753 37.887C7.70259 37.887 8.47464 38.1765 9.05367 38.7555C9.63271 39.4311 9.92223 40.2031 9.92223 41.1682C9.92223 41.8437 9.82572 42.8088 9.15018 43.4843C8.57114 44.0634 7.79909 44.3529 6.83403 44.3529C6.15849 44.3529 5.19343 44.2564 4.51788 43.5808C3.64933 42.8088 3.35981 42.1332 3.35981 41.0717C3.35981 40.1066 3.74583 39.3346 4.32487 38.7555C5.00041 38.1765 5.86897 37.887 6.73753 37.887ZM6.73753 2.17969C5.28993 2.17969 4.03535 2.75872 2.97379 3.62728C2.00872 4.49583 1.42969 5.84692 1.42969 7.39102C1.42969 8.93512 1.91222 10.0932 2.87728 11.0583C3.74583 12.0233 5.09692 12.5058 6.54451 12.5058C7.9921 12.5058 9.24668 12.0233 10.2117 11.0583C11.1768 10.1897 11.6593 8.83861 11.6593 7.39102C11.6593 5.94343 11.1768 4.68885 10.3083 3.72379C9.4397 2.66222 8.18512 2.17969 6.73753 2.17969ZM6.73753 19.0683C5.28993 19.0683 4.03535 19.6473 3.07029 20.5159C2.00872 21.4809 1.42969 22.832 1.42969 24.2796C1.42969 25.7272 1.91222 26.9818 2.87728 27.9468C3.74583 29.0084 5.09692 29.3944 6.54451 29.3944C7.9921 29.3944 9.24668 28.9119 10.2117 27.9468C11.1768 27.0783 11.6593 25.7272 11.6593 24.2796C11.6593 22.832 11.1768 21.4809 10.3083 20.6124C9.4397 19.5508 8.18512 19.0683 6.73753 19.0683ZM6.73753 35.9568C5.28993 35.9568 4.03535 36.5359 3.07029 37.4044C2.10523 38.273 1.52619 39.6241 1.52619 41.0717C1.52619 42.5193 2.00872 43.7738 2.97379 44.7389C3.84234 45.704 5.19343 46.1865 6.64102 46.1865C8.08861 46.1865 9.34319 45.704 10.3083 44.7389C11.2733 43.8703 11.7558 42.5193 11.7558 41.0717C11.7558 39.6241 11.2733 38.3695 10.4048 37.4044C9.4397 36.3429 8.18512 35.9568 6.73753 35.9568Z" fill="#0078D4"/>
  <path d="M30.0968 24.2808C30.0968 25.7284 29.6143 27.0795 28.6492 27.9481C27.5877 29.0096 26.4296 29.3957 24.982 29.3957C23.5344 29.3957 22.1833 28.9131 21.3148 27.9481C20.3497 26.983 19.8672 25.7284 19.8672 24.2808C19.8672 22.8332 20.4462 21.4822 21.4113 20.6136C22.3763 19.7451 23.6309 19.166 25.0785 19.166C26.5261 19.166 27.7807 19.6485 28.7458 20.6136C29.7108 21.4822 30.0968 22.8332 30.0968 24.2808Z" fill="#0078D4"/>
</svg>
