<svg data-slug-id="deploy03" viewBox="0 0 49 49" xmlns="http://www.w3.org/2000/svg">
<path d="M24.6295 24.0374V6.95703H23.3679V24.0374H4.56152V44.1734H5.82313V25.3001H23.3679V44.7122H24.6295V25.3001H42.3509V44.1734H43.6125V24.0374H24.6295Z" fill="#50E6FF"/>
<path d="M29.0451 5.69297C29.0451 8.46252 26.7994 10.7102 24.0323 10.7102C21.2652 10.7102 19.0195 8.46252 19.0195 5.69297C19.0195 2.92341 21.2652 0.675781 24.0323 0.675781C26.7994 0.675781 29.0451 2.92341 29.0451 5.69297Z" fill="#0078D4"/>
<path d="M29.0451 43.5172C29.0451 46.2867 26.7994 48.5344 24.0323 48.5344C21.2652 48.5344 19.0195 46.2952 19.0195 43.5172C19.0195 40.7476 21.2652 38.5 24.0323 38.5C26.7994 38.5 29.0451 40.7476 29.0451 43.5172Z" fill="#0078D4"/>
<path d="M48.0196 43.5172C48.0196 46.2867 45.7739 48.5344 43.0068 48.5344C40.2397 48.5344 38.0024 46.2952 38.0024 43.5172C38.0024 40.7476 40.2481 38.5 43.0152 38.5C45.7824 38.5 48.0196 40.7476 48.0196 43.5172Z" fill="#50E6FF"/>
<path d="M10.1461 43.5172C10.1461 46.2867 7.90041 48.5344 5.13328 48.5344C2.36616 48.5344 0.128906 46.2952 0.128906 43.5172C0.128906 40.7476 2.37457 38.5 5.14169 38.5C7.90882 38.5 10.1461 40.7476 10.1461 43.5172Z" fill="#0078D4"/>
</svg>
