<svg data-slug-id="deploy08" viewBox="0 0 49 49" xmlns="http://www.w3.org/2000/svg">
<path d="M48.1016 21.1745V7.4514L36.2136 0.589844L24.3335 7.4514V21.1745L36.2136 28.044L48.1016 21.1745Z" fill="#0078D4"/>
<path d="M5.64011 15.773C5.24118 15.773 4.91406 15.4539 4.91406 15.047V10.7386C4.91406 7.52321 7.53103 4.90625 10.7464 4.90625H19.06C19.459 4.90625 19.7861 5.22539 19.7861 5.6323C19.7861 6.03123 19.459 6.35835 19.06 6.35835H10.7464C8.32888 6.35835 6.35818 8.32905 6.35818 10.7465V15.055C6.35818 15.4539 6.03904 15.773 5.64011 15.773Z" fill="#0078D7"/>
<path d="M18.4854 3.85547L21.4294 5.75436L18.4854 7.65326V3.85547Z" fill="#0078D7"/>
<path d="M43.0514 35.043C43.4504 35.043 43.7775 35.3621 43.7775 35.769V37.9232C43.7775 41.1386 41.1605 43.7555 37.9452 43.7555H32.7431C32.3442 43.7555 32.0171 43.4364 32.0171 43.0295C32.0171 42.6226 32.3442 42.3035 32.7431 42.3035H37.9452C40.3627 42.3035 42.3334 40.3327 42.3334 37.9152V35.761C42.3334 35.3621 42.6525 35.043 43.0514 35.043Z" fill="#0078D7"/>
<path d="M33.3176 44.8095L30.3735 42.9106L33.3176 41.0117V44.8095Z" fill="#0078D7"/>
<path d="M26.855 19.6913L35.8707 24.8694V14.96L26.855 9.75V19.6913Z" fill="#50E6FF"/>
<path d="M36.3337 3.35156L27.2222 8.60145L36.3097 13.987L45.4691 8.56156L36.3337 3.35156Z" fill="#50E6FF"/>
<path d="M36.7246 15.0476V24.9649L45.8202 19.6991V9.75781L36.7246 15.0476Z" fill="#50E6FF"/>
<path d="M25.4346 40.0144V26.2912L13.5466 19.4297L1.6665 26.2912V40.0144L13.5466 46.8759L25.4346 40.0144Z" fill="#50E6FF"/>
<path d="M4.18799 38.5311L13.2038 43.7092V33.7998L4.18799 28.5898V38.5311Z" fill="#0078D7"/>
<path d="M13.6662 22.1797L4.55469 27.4296L13.6423 32.8151L22.8016 27.3897L13.6662 22.1797Z" fill="#0078D7"/>
<path d="M14.0571 33.8795V43.7968L23.1527 38.531V28.5977L14.0571 33.8795Z" fill="#0078D7"/>
</svg>
