<svg data-slug-id="deploy-blue" xmlns="http://www.w3.org/2000/svg" viewBox="0 0 48 48">
    <path d="M24.6311 24.042V16.3422H23.3689V24.042H6.43758V35.6129H7.69986V25.3043H23.3689V33.6774H24.6311V25.3043H40.2833V35.6129H41.5456V24.042H24.6311Z" fill="#50E6FF"/>
    <path d="M13.9522 41.697V32.8358H1.3127V41.697H0.100914V42.9592H15.164V41.697H13.9522Z" fill="#0078D4"/>
    <path d="M12.8585 34.0225H2.40686V41.7644H12.8585V34.0225Z" fill="#50E6FF"/>
    <path d="M46.7378 41.697V32.8358H34.0982V41.697H32.8865V42.9592H47.9496V41.697H46.7378Z" fill="#0078D4"/>
    <path d="M45.6437 34.0225H35.1921V41.7644H45.6437V34.0225Z" fill="#50E6FF"/>
    <path d="M30.3283 41.697V32.8358H17.6887V41.697H16.4769V42.9592H31.54V41.697H30.3283Z" fill="#0078D4"/>
    <path d="M29.2342 34.0225H18.7825V41.7644H29.2342V34.0225Z" fill="#50E6FF"/>
    <path d="M30.3197 16.5357V7.67456H17.6802V16.5357H16.4684V17.798H31.5315V16.5357H30.3197Z" fill="#0078D4"/>
    <path d="M29.2259 8.86121H18.7743V16.6031H29.2259V8.86121Z" fill="#50E6FF"/>
    <path d="M20.0954 12.4039C20.129 10.9733 21.1473 10.5526 21.9467 10.5526C22.5358 10.5526 23.0238 10.7798 23.6045 11.352C23.6718 11.4193 23.8317 11.5876 23.8317 11.5876L23.31 12.2945C23.31 12.2945 23.1669 12.1178 23.0996 12.0336C22.6115 11.4446 22.359 11.2763 21.8457 11.2763C21.1725 11.2679 20.7938 11.9495 20.8191 12.5301C20.8443 13.1192 21.3156 13.5231 21.8373 13.5231C22.2833 13.5231 22.8303 13.2875 23.453 12.4712C23.5456 12.3534 23.6381 12.2104 23.7391 12.0589C23.8064 11.9411 23.8906 11.8317 23.9663 11.7307C24.6311 10.8303 25.2539 10.5526 25.9271 10.5358C26.5919 10.5273 27.7952 11.007 27.7952 12.3871C27.7952 13.7672 26.7433 14.2384 25.9439 14.2384C25.2959 14.2384 24.7826 13.9775 24.1346 13.2707C24.1094 13.2454 24.0757 13.2034 24.0757 13.2034L24.5722 12.5638C24.5722 12.5638 24.5975 12.5975 24.6227 12.6143C25.2034 13.338 25.4979 13.4895 26.0533 13.4979C26.7265 13.5063 27.1052 12.8247 27.0799 12.244C27.0547 11.6634 26.5834 11.251 26.0617 11.251C25.6157 11.251 25.0687 11.4867 24.446 12.3029C24.3534 12.4207 24.2609 12.5638 24.1599 12.7153C24.0926 12.8331 24.0084 12.9425 23.9243 13.0351C23.2258 13.9355 22.4095 14.2132 21.9719 14.23C21.0042 14.2805 20.0449 13.7672 20.0954 12.4039Z" fill="#0078D4"/>
    <path d="M7.63254 35.4446L5.09116 37.986H7.00982V40.4937H8.2805V37.986H10.1739L7.63254 35.4446Z" fill="#0078D4"/>
    <path d="M24.0085 35.4446L21.4672 37.986H23.3858V40.4937H24.6565V37.986H26.5499L24.0085 35.4446Z" fill="#0078D4"/>
    <path d="M40.4181 35.4446L37.8767 37.986H39.8038V40.4937H41.0745V37.986H42.9595L40.4181 35.4446Z" fill="#0078D4"/>
</svg>
