<svg data-slug-id="deploy01" viewBox="0 0 49 49" xmlns="http://www.w3.org/2000/svg">
<path d="M2.63672 33.2574L2.63672 48.668L6.29988 48.668L6.29988 33.2574L2.63672 33.2574Z" fill="#50E6FF"/>
<path d="M6.41113 33.2574L6.41113 48.668L10.1417 48.668L10.1417 33.2574L6.41113 33.2574Z" fill="#0078D4"/>
<path d="M5.14795 3.22838L5.14795 20.8789L7.65742 20.8789L7.65742 3.22838L5.14795 3.22838Z" fill="#0078D4"/>
<path d="M0.0878903 23.4052L0.0878906 30.9336L12.5932 30.9336L12.5932 23.4052L0.0878903 23.4052Z" fill="#0078D4"/>
<path d="M6.39231 0.702051L9.92073 4.23047L2.85547 4.23047L6.39231 0.702051Z" fill="#0078D4"/>
<path d="M20.4404 33.2574L20.4404 48.668L24.0531 48.668L24.0531 33.2574L20.4404 33.2574Z" fill="#50E6FF"/>
<path d="M24.0615 33.2574L24.0615 48.668L27.9352 48.668L27.9352 33.2574L24.0615 33.2574Z" fill="#0078D4"/>
<path d="M22.9414 3.22838L22.9414 20.8789L25.4509 20.8789L25.4509 3.22838L22.9414 3.22838Z" fill="#50E6FF"/>
<path d="M17.7964 23.413L17.7964 30.9414L30.3016 30.9414L30.3016 23.413L17.7964 23.413Z" fill="#50E6FF"/>
<path d="M24.1037 0.702051L27.6322 4.23047L20.5669 4.23047L24.1037 0.702051Z" fill="#50E6FF"/>
<path d="M38.0151 33.2574L38.0151 48.668L41.8804 48.668L41.8804 33.2574L38.0151 33.2574Z" fill="#50E6FF"/>
<path d="M41.8281 33.2574L41.8281 48.668L45.5165 48.668L45.5165 33.2574L41.8281 33.2574Z" fill="#0078D4"/>
<path d="M40.5234 3.22838L40.5234 20.8789L43.0329 20.8789L43.0329 3.22838L40.5234 3.22838Z" fill="#0078D4"/>
<path d="M40.5234 7.43748L40.5234 16.4648L43.0329 16.4648L43.0329 7.43748L40.5234 7.43748Z" fill="#50E6FF"/>
<path d="M35.4648 23.413L35.4648 30.9414L47.9701 30.9414L47.9701 23.413L35.4648 23.413Z" fill="#0078D4"/>
<path d="M35.4648 23.4139L35.4648 27.2539L47.9701 27.2539L47.9701 23.4139L35.4648 23.4139Z" fill="#50E6FF"/>
<path d="M41.7712 0.702051L45.2996 4.23047L38.2344 4.23047L41.7712 0.702051Z" fill="#0078D4"/>
</svg>
