<svg data-slug-id="deploy09" viewBox="0 0 49 49" xmlns="http://www.w3.org/2000/svg">
<path d="M36.503 22.7551C42.6379 22.7551 47.6169 17.7761 47.6169 11.6412C47.6169 5.50636 42.6379 0.527344 36.503 0.527344C30.3682 0.527344 25.3892 5.50636 25.3892 11.6412C25.3892 17.7761 30.3682 22.7551 36.503 22.7551Z" fill="#0078D4"/>
<path d="M16.4094 35.2053H31.791C33.6581 35.2053 35.1696 33.6938 35.1696 31.8266V16.445C35.1696 14.5779 33.6581 13.0664 31.791 13.0664H16.4094C14.5422 13.0664 13.0308 14.5779 13.0308 16.445V31.8266C13.0308 33.6938 14.5422 35.2053 16.4094 35.2053Z" fill="#50E6FF"/>
<path d="M22.7219 25.4219H0.494141V47.6496H22.7219V25.4219Z" fill="#0078D4"/>
</svg>
