<svg data-slug-id="deploy02" viewBox="0 0 49 49" xmlns="http://www.w3.org/2000/svg">
<path d="M48.0196 23.3683L42.977 18.3157V22.1388H30.4545V4.48828H9.35962V7.0146H27.9332V22.1388H10.2841V24.6651H27.9332V42.2651H9.35962V44.7914H30.4545V24.6651H42.977V28.4293L48.0196 23.3683Z" fill="#50E6FF"/>
<path d="M14.9309 24.0263V22.46H13.3172C13.1828 21.4242 12.7709 20.4726 12.1658 19.6895L13.3088 18.5442L12.2079 17.4411L11.0649 18.5863C10.2749 17.98 9.32517 17.5758 8.29984 17.4326V15.8242H6.74504V17.4411C5.7113 17.5758 4.76161 17.9884 3.98001 18.5947L2.83702 17.4495L1.72765 18.5526L2.87064 19.6895C2.26552 20.4811 1.86212 21.4326 1.71924 22.46H0.114014V24.0263H1.72765C1.86212 25.0621 2.26552 26.0137 2.87064 26.7968L1.72765 27.9421L2.82861 29.0453L3.9716 27.9C4.76161 28.5063 5.7113 28.9105 6.73663 29.0537V30.6705H8.29984V29.0537C9.33357 28.919 10.2833 28.5063 11.0649 27.9L12.2079 29.0453L13.3088 27.9421L12.1658 26.7968C12.7709 26.0053 13.1744 25.0537 13.3172 24.0263H14.9309ZM7.52664 26.0642C5.98024 26.0642 4.71959 24.8011 4.71959 23.2516C4.71959 21.7021 5.98024 20.439 7.52664 20.439C9.07304 20.439 10.3337 21.7021 10.3337 23.2516C10.3337 24.8011 9.07304 26.0642 7.52664 26.0642Z" fill="#0078D4"/>
<path d="M13.9895 0.683594H1.39136V13.3068H13.9895V0.683594Z" fill="#0078D4"/>
<path d="M15.3755 40.1659L7.69751 32.4727L0.0195344 40.1659L7.69751 47.8592L15.3755 40.1659Z" fill="#0078D4"/>
</svg>
