<svg data-slug-id="deploy06" viewBox="0 0 49 49" xmlns="http://www.w3.org/2000/svg">
<path d="M24.6506 24.7116V17.0117H23.3883V24.7116H6.45703V36.2824H7.7193V25.9739H23.3883V34.3469H24.6506V25.9739H40.3028V36.2824H41.565V24.7116H24.6506Z" fill="#50E6FF"/>
<path d="M13.9719 42.3651V33.5039H1.33239V42.3651H0.120605V43.6273H15.1837V42.3651H13.9719Z" fill="#0078D4"/>
<path d="M12.8779 34.6914H2.42627V42.4333H12.8779V34.6914Z" fill="#50E6FF"/>
<path d="M46.7571 42.3651V33.5039H34.1175V42.3651H32.9058V43.6273H47.9689V42.3651H46.7571Z" fill="#0078D4"/>
<path d="M45.663 34.6914H35.2114V42.4333H45.663V34.6914Z" fill="#50E6FF"/>
<path d="M30.3474 42.3651V33.5039H17.7079V42.3651H16.4961V43.6273H31.5592V42.3651H30.3474Z" fill="#0078D4"/>
<path d="M29.2539 34.6914H18.8022V42.4333H29.2539V34.6914Z" fill="#50E6FF"/>
<path d="M30.3391 17.2049V8.34375H17.6996V17.2049H16.4878V18.4672H31.5509V17.2049H30.3391Z" fill="#0078D4"/>
<path d="M29.2456 9.52734H18.7939V17.2693H29.2456V9.52734Z" fill="#50E6FF"/>
<path d="M20.1147 13.0714C20.1484 11.6408 21.1666 11.2201 21.966 11.2201C22.5551 11.2201 23.0432 11.4473 23.6238 12.0195C23.6911 12.0868 23.851 12.2551 23.851 12.2551L23.3293 12.962C23.3293 12.962 23.1862 12.7853 23.1189 12.7011C22.6308 12.1121 22.3784 11.9438 21.8651 11.9438C21.1918 11.9354 20.8132 12.617 20.8384 13.1976C20.8636 13.7867 21.3349 14.1906 21.8566 14.1906C22.3026 14.1906 22.8496 13.955 23.4723 13.1387C23.5649 13.0209 23.6575 12.8778 23.7585 12.7264C23.8258 12.6086 23.9099 12.4992 23.9857 12.3982C24.6505 11.4978 25.2732 11.2201 25.9464 11.2032C26.6112 11.1948 27.8146 11.6745 27.8146 13.0546C27.8146 14.4346 26.7627 14.9059 25.9632 14.9059C25.3153 14.9059 24.8019 14.645 24.154 13.9382C24.1287 13.9129 24.0951 13.8708 24.0951 13.8708L24.5916 13.2313C24.5916 13.2313 24.6168 13.2649 24.6421 13.2818C25.2227 14.0055 25.5172 14.1569 26.0726 14.1654C26.7458 14.1738 27.1245 13.4922 27.0993 12.9115C27.074 12.3309 26.6028 11.9185 26.081 11.9185C25.635 11.9185 25.0881 12.1541 24.4653 12.9704C24.3728 13.0882 24.2802 13.2313 24.1792 13.3828C24.1119 13.5006 24.0277 13.61 23.9436 13.7025C23.2451 14.603 22.4289 14.8807 21.9913 14.8975C21.0235 14.948 20.0642 14.4346 20.1147 13.0714Z" fill="#0078D4"/>
<path d="M7.65221 36.1133L5.11084 38.6547H7.02949V41.1624H8.30018V38.6547H10.1936L7.65221 36.1133Z" fill="#0078D4"/>
<path d="M24.0282 36.1133L21.4868 38.6547H23.4055V41.1624H24.6762V38.6547H26.5696L24.0282 36.1133Z" fill="#0078D4"/>
<path d="M40.4379 36.1133L37.8965 38.6547H39.8236V41.1624H41.0942V38.6547H42.9792L40.4379 36.1133Z" fill="#0078D4"/>
</svg>
