<svg data-slug-id="deploy" xmlns="http://www.w3.org/2000/svg" viewBox="0 0 49 48">
    <path d="M25.2215 17.6568V0H0V27.8498H20.5968V17.6568H25.2215Z" fill="#0078D7"/>
    <path d="M48.0083 20.125H22.7109V48.0001H48.0083V20.125Z" fill="#0078D7"/>
    <path d="M43.695 12.6441C40.2749 6.83995 34.3444 2.70375 27.3945 1.72656V4.62443C33.106 5.54265 37.992 8.92069 40.9488 13.6381L38.0088 14.6996L43.2823 17.1678L45.7505 11.8944L43.695 12.6441Z" fill="#0078D7"/>
    <path d="M7.37013 34.3359L9.76256 33.4682L4.49754 31L2.0293 36.2734L4.63232 35.33C7.95139 41.1088 13.7555 45.2787 20.5959 46.3823V43.476C14.9939 42.4314 10.2343 39.0281 7.37013 34.3359Z" fill="#0078D7"/>
    <path d="M42.5578 28.4761L32.1102 38.9237L28.9843 35.7894L26.8948 37.8789L32.1102 43.0943L44.6473 30.5572L42.5578 28.4761Z" fill="#50E6FF"/>
    <path d="M18.4226 9.26428C18.4226 5.95798 15.7168 3.2522 12.4105 3.2522C9.43899 3.2522 6.95754 5.43684 6.48127 8.27722H8.94201C9.10767 7.69741 9.42174 7.16247 9.8635 6.71726C10.5468 6.03391 11.4511 5.65772 12.4071 5.65772C13.3631 5.65772 14.2673 6.03391 14.9506 6.71726C15.634 7.4006 16.0102 8.30483 16.0102 9.26083C16.0102 9.4541 16.0102 9.99595 16.0067 10.7104H6.39844V22.7725H18.4192V11.5007C18.4226 10.4101 18.4226 9.52658 18.4226 9.26428Z" fill="#50E6FF"/>
    <path d="M12.4105 18.0549C13.2682 18.0549 13.9636 17.3595 13.9636 16.5018C13.9636 15.6441 13.2682 14.9487 12.4105 14.9487C11.5528 14.9487 10.8574 15.6441 10.8574 16.5018C10.8574 17.3595 11.5528 18.0549 12.4105 18.0549Z" fill="#0078D4"/>
</svg>
