<svg data-slug-id="deploy05" viewBox="0 0 49 49" xmlns="http://www.w3.org/2000/svg">
<path d="M30.3526 13.0273H17.8213V17.0126C17.8213 18.7519 20.6294 20.1535 24.1038 20.1535C27.5782 20.1535 30.3863 18.7434 30.3863 17.0126C30.3863 17.0126 30.3779 13.0527 30.3526 13.0273Z" fill="#0078D7"/>
<path d="M30.3779 12.3203L30.3863 15.8074C30.3863 17.5467 27.5782 18.9483 24.1038 18.9483C20.6294 18.9483 17.8213 17.5383 17.8213 15.8074V12.3203H30.3779Z" fill="#50E6FF"/>
<path d="M30.3526 8.72266H17.8213V12.7079C17.8213 14.4472 20.6294 15.8488 24.1038 15.8488C27.5782 15.8488 30.3863 14.4388 30.3863 12.7079C30.3863 12.7079 30.3779 8.74799 30.3526 8.72266Z" fill="#0078D7"/>
<path d="M30.3863 6.25781H17.8213V9.55913C17.8213 11.2984 20.6294 12.7 24.1038 12.7C27.5782 12.7 30.3863 11.29 30.3863 9.55913C30.3863 9.55913 30.3863 6.28314 30.3863 6.25781Z" fill="#50E6FF"/>
<path d="M24.1038 9.60211C27.5735 9.60211 30.3863 8.19588 30.3863 6.46121C30.3863 4.72654 27.5735 3.32031 24.1038 3.32031C20.6341 3.32031 17.8213 4.72654 17.8213 6.46121C17.8213 8.19588 20.6341 9.60211 24.1038 9.60211Z" fill="#0078D7"/>
<path d="M10.131 41.898V40.8342H9.03467C8.94191 40.1334 8.66362 39.4833 8.25041 38.9429L9.02624 38.1661L8.27571 37.4147L7.49988 38.1914C6.96017 37.7777 6.31927 37.4991 5.61091 37.4062V36.3086H4.54836V37.4062C3.84843 37.4991 3.1991 37.7777 2.65939 38.1914L1.88356 37.4147L1.13303 38.1661L1.90886 38.9429C1.49565 39.4833 1.21736 40.125 1.1246 40.8342H0.0283203V41.898H1.1246C1.21736 42.5988 1.49565 43.249 1.90886 43.7893L1.13303 44.5661L1.88356 45.3176L2.65939 44.5408C3.1991 44.9545 3.84 45.2331 4.54836 45.326V46.4236H5.61091V45.326C6.31084 45.2331 6.96017 44.9545 7.49988 44.5408L8.27571 45.3176L9.02624 44.5661L8.25041 43.7893C8.66362 43.249 8.94191 42.6073 9.03467 41.898H10.131ZM5.07964 43.2827C4.02552 43.2827 3.16536 42.4215 3.16536 41.3661C3.16536 40.3107 4.02552 39.4495 5.07964 39.4495C6.13375 39.4495 6.99391 40.3107 6.99391 41.3661C6.99391 42.4215 6.13375 43.2827 5.07964 43.2827Z" fill="#0078D4"/>
<path d="M20.4189 46.4725L12.3486 46.5063V38.9158L13.8919 38.0968L14.8954 36.3828H20.4189V46.4725Z" fill="#0078D4"/>
<path d="M14.8866 36.375V38.9249H12.3398L14.8866 36.375Z" fill="#50E6FF"/>
<path d="M35.488 38.4844H25.377V46.5308H35.488V38.4844Z" fill="#0078D4"/>
<path d="M34.417 37.4818V36.418H32.8232V37.4818H28.0333V36.418H26.4395V37.4818H25.377V38.5457H35.488V37.4818H34.417Z" fill="#50E6FF"/>
<path d="M48.0114 45.4609H37.9004V46.5248H48.0114V45.4609Z" fill="#50E6FF"/>
<path d="M43.7017 44.3438H42.2344V45.8889H43.7017V44.3438Z" fill="#50E6FF"/>
<path d="M28.5645 40.1406H26.4395V42.2683H28.5645V40.1406Z" fill="#50E6FF"/>
<path d="M34.4171 40.1406H32.292V42.2683H34.4171V40.1406Z" fill="#50E6FF"/>
<path d="M31.4997 40.1406H29.3662V42.2683H31.4913V40.1406H31.4997Z" fill="#50E6FF"/>
<path d="M28.5645 43.3398H26.4395V45.4675H28.5645V43.3398Z" fill="#50E6FF"/>
<path d="M34.4171 43.3398H32.292V45.4675H34.4171V43.3398Z" fill="#50E6FF"/>
<path d="M31.4997 43.3398H29.3662V45.4675H31.4913V43.3398H31.4997Z" fill="#50E6FF"/>
<path d="M48.0115 36.375H37.9004V44.4214H48.0115V36.375Z" fill="#0078D4"/>
<path d="M46.9569 37.4219H38.9541V43.3659H46.9569V37.4219Z" fill="#0078D4"/>
<path d="M37.8916 36.3594V44.4311H48.0195V36.3594H37.8916V36.3594ZM46.957 43.3673H38.9541V37.4232H46.957V43.3673Z" fill="#50E6FF"/>
<path d="M24.7191 26.2935V21.1094H23.4541V26.2935H4.81738V34.0276H6.08232V27.56H42.3185V34.0276H43.5835V26.2935H24.7191Z" fill="#0078D4"/>
</svg>
