<svg data-slug-id="deploy07" viewBox="0 0 49 49" xmlns="http://www.w3.org/2000/svg">
<path d="M39.2256 7.61784C39.2256 5.32926 37.3742 3.47821 35.0853 3.47821C34.8665 3.47821 34.6561 3.49503 34.4542 3.52869C33.8988 1.86274 32.3336 0.667969 30.4906 0.667969C28.2943 0.667969 26.4934 2.37599 26.342 4.52994C26.0474 4.45422 25.7361 4.41215 25.4163 4.41215C23.3798 4.41215 21.7305 6.06127 21.7305 8.09743C21.7305 9.93165 23.0769 11.4546 24.8357 11.7322L25.0545 11.7575C25.1723 11.7659 35.119 11.7491 35.119 11.7491C37.3826 11.7406 39.2256 9.88958 39.2256 7.61784Z" fill="#50E6FF"/>
<path d="M2.35925 41.1023L2.51914 41.1191C2.57804 41.1275 5.64116 41.1191 7.77019 41.1191V40.1515C7.63555 39.1503 5.96935 38.3594 3.93288 38.3594C2.30034 38.3594 0.911845 38.8642 0.356445 39.5794C0.726712 40.3787 1.46724 40.9593 2.35925 41.1023Z" fill="#50E6FF"/>
<path d="M9.75598 35.1488C9.59609 35.1488 9.44462 35.1573 9.30156 35.1825C8.90605 33.9877 7.77842 33.1211 6.44883 33.1211C4.85836 33.1211 3.56243 34.3495 3.45303 35.9145C3.24266 35.8556 3.01545 35.8304 2.77982 35.8304C1.44181 35.8304 0.33943 36.8148 0.154297 38.0937C0.33943 37.9675 0.549809 37.8497 0.777018 37.7403C1.65219 37.328 2.77982 37.1009 3.94111 37.1009C5.1024 37.1009 6.23003 37.328 7.10521 37.7403C8.21601 38.262 8.89763 39.0613 9.01545 39.9952L9.02386 40.071V40.1467V41.1143C9.48669 41.1143 9.77281 41.1143 9.77281 41.1143C11.4138 41.1059 12.7434 39.7681 12.7434 38.1274C12.7434 36.4866 11.4053 35.1488 9.75598 35.1488Z" fill="#50E6FF"/>
<path d="M7.75398 44.2852H0.0961914V46.7168C0.0961914 47.7769 1.81288 48.6351 3.9335 48.6351C6.05412 48.6351 7.77081 47.7769 7.77081 46.7168C7.77081 46.7168 7.77081 44.302 7.75398 44.2852Z" fill="#0078D7"/>
<path d="M7.77081 43.8555L7.77922 45.9842C7.77922 47.0443 6.06253 47.9025 3.94191 47.9025C1.8213 47.9025 0.0961914 47.0359 0.0961914 45.9842V43.8555H7.77081" fill="#50E6FF"/>
<path d="M7.75398 41.6602H0.0961914V44.0918C0.0961914 45.1519 1.81288 46.0101 3.9335 46.0101C6.05412 46.0101 7.77081 45.1519 7.77081 44.0918C7.77081 44.0918 7.77081 41.677 7.75398 41.6602Z" fill="#0078D7"/>
<path d="M7.77081 40.1523H0.0961914V42.1633C0.0961914 43.2234 1.81288 44.0816 3.9335 44.0816C6.05412 44.0816 7.77081 43.2234 7.77081 42.1633C7.77081 42.1717 7.77081 40.1692 7.77081 40.1523Z" fill="#50E6FF"/>
<path d="M3.9335 42.1961C6.05278 42.1961 7.77081 41.3372 7.77081 40.2777C7.77081 39.2183 6.05278 38.3594 3.9335 38.3594C1.81421 38.3594 0.0961914 39.2183 0.0961914 40.2777C0.0961914 41.3372 1.81421 42.1961 3.9335 42.1961Z" fill="#0078D7"/>
<path d="M37.593 41.1023L37.7529 41.1191C37.8118 41.1275 40.8749 41.1191 43.004 41.1191V40.1515C42.8777 39.1503 41.2115 38.3594 39.1751 38.3594C37.5425 38.3594 36.154 38.8642 35.5986 39.5794C35.9521 40.3787 36.701 40.9593 37.593 41.1023Z" fill="#50E6FF"/>
<path d="M44.9816 35.1488C44.8217 35.1488 44.6702 35.1573 44.5271 35.1825C44.1316 33.9877 43.004 33.1211 41.6744 33.1211C40.0839 33.1211 38.788 34.3495 38.6786 35.9145C38.4682 35.8556 38.241 35.8304 38.0054 35.8304C36.6674 35.8304 35.565 36.8148 35.3799 38.0937C35.565 37.9675 35.7754 37.8497 36.0026 37.7403C36.8778 37.328 38.0054 37.1009 39.1667 37.1009C40.328 37.1009 41.4556 37.328 42.3308 37.7403C43.4416 38.262 44.1232 39.0613 44.241 39.9952L44.2494 40.071V40.1467V41.1143C44.7123 41.1143 44.9984 41.1143 44.9984 41.1143C46.6393 41.1059 47.9689 39.7681 47.9689 38.1274C47.9774 36.4866 46.6309 35.1488 44.9816 35.1488Z" fill="#50E6FF"/>
<path d="M42.9874 44.2852H35.3296V46.7168C35.3296 47.7769 37.0463 48.6351 39.1669 48.6351C41.2875 48.6351 43.0042 47.7769 43.0042 46.7168C43.0042 46.7168 42.9958 44.302 42.9874 44.2852Z" fill="#0078D7"/>
<path d="M42.9958 43.8555L43.0042 45.9842C43.0042 47.0443 41.2875 47.9025 39.1669 47.9025C37.0463 47.9025 35.3296 47.0443 35.3296 45.9842V43.8555H42.9958Z" fill="#50E6FF"/>
<path d="M42.9874 41.6602H35.3296V44.0918C35.3296 45.1519 37.0463 46.0101 39.1669 46.0101C41.2875 46.0101 43.0042 45.1519 43.0042 44.0918C43.0042 44.0918 42.9958 41.677 42.9874 41.6602Z" fill="#0078D7"/>
<path d="M43.0042 40.1523H35.3296V42.1633C35.3296 43.2234 37.0463 44.0816 39.1669 44.0816C41.2875 44.0816 43.0042 43.2234 43.0042 42.1633C43.0042 42.1717 43.0042 40.1692 43.0042 40.1523Z" fill="#50E6FF"/>
<path d="M39.1669 42.1961C41.2862 42.1961 43.0042 41.3372 43.0042 40.2777C43.0042 39.2183 41.2862 38.3594 39.1669 38.3594C37.0476 38.3594 35.3296 39.2183 35.3296 40.2777C35.3296 41.3372 37.0476 42.1961 39.1669 42.1961Z" fill="#0078D7"/>
<path d="M19.9719 41.1023L20.1318 41.1191C20.1907 41.1275 23.2538 41.1191 25.3829 41.1191V40.1515C25.2566 39.1503 23.5904 38.3594 21.554 38.3594C19.9214 38.3594 18.5329 38.8642 17.9775 39.5794C18.3394 40.3787 19.0799 40.9593 19.9719 41.1023Z" fill="#50E6FF"/>
<path d="M27.3688 35.1488C27.2089 35.1488 27.0574 35.1573 26.9144 35.1825C26.5188 33.9877 25.3912 33.1211 24.0616 33.1211C22.4712 33.1211 21.1752 34.3495 21.0658 35.9145C20.8554 35.8556 20.6282 35.8304 20.3926 35.8304C19.0546 35.8304 17.9522 36.8148 17.7671 38.0937C17.9522 37.9675 18.1626 37.8497 18.3898 37.7403C19.265 37.328 20.3926 37.1009 21.5539 37.1009C22.7152 37.1009 23.8428 37.328 24.718 37.7403C25.8288 38.262 26.5104 39.0613 26.6282 39.9952L26.6367 40.071V40.1551V41.1227C27.0995 41.1227 27.3856 41.1227 27.3856 41.1227C29.0266 41.1143 30.3562 39.7765 30.3562 38.1358C30.3562 36.4866 29.0181 35.1488 27.3688 35.1488Z" fill="#50E6FF"/>
<path d="M25.3658 44.2852H17.708V46.7168C17.708 47.7769 19.4247 48.6351 21.5453 48.6351C23.6659 48.6351 25.3826 47.7769 25.3826 46.7168C25.391 46.7168 25.3826 44.302 25.3658 44.2852Z" fill="#0078D7"/>
<path d="M25.383 43.8555L25.3914 45.9842C25.3914 47.0443 23.6747 47.9025 21.5541 47.9025C19.4335 47.9025 17.7168 47.0443 17.7168 45.9842V43.8555H25.383Z" fill="#50E6FF"/>
<path d="M25.3658 41.6602H17.708V44.0918C17.708 45.1519 19.4247 46.0101 21.5453 46.0101C23.6659 46.0101 25.3826 45.1519 25.3826 44.0918C25.391 44.0918 25.3826 41.677 25.3658 41.6602Z" fill="#0078D7"/>
<path d="M25.3914 40.1523H17.7168V42.1633C17.7168 43.2234 19.4335 44.0816 21.5541 44.0816C23.6747 44.0816 25.3914 43.2234 25.3914 42.1633C25.3914 42.1717 25.3914 40.1692 25.3914 40.1523Z" fill="#50E6FF"/>
<path d="M21.5541 42.1961C23.6734 42.1961 25.3914 41.3372 25.3914 40.2777C25.3914 39.2183 23.6734 38.3594 21.5541 38.3594C19.4348 38.3594 17.7168 39.2183 17.7168 40.2777C17.7168 41.3372 19.4348 42.1961 21.5541 42.1961Z" fill="#0078D7"/>
<path d="M24.5925 25.7836V20.8867H23.3303V25.7836H0.0708008V30.9834H1.33307V27.0457H23.3303V30.9834H24.5925V27.0457H46.7244V30.9834H47.9866V25.7836H24.5925Z" fill="#0078D4"/>
<path d="M30.4319 5.56641H17.7334V15.6631H30.4319V5.56641Z" fill="#0078D4"/>
<path d="M29.1024 6.88672H19.0547V14.3414H29.1024V6.88672Z" fill="#50E6FF"/>
<path d="M30.4405 15.6772V5.54688H17.7168V15.6772H23.1782V16.9645H17.7336V18.3023H30.4321V16.9645H25.0211V15.6772H30.4405ZM19.0548 6.88468H29.1025V14.3394H19.0548V6.88468Z" fill="#0078D4"/>
</svg>
