<svg data-slug-id="deploy04" viewBox="0 0 49 49" xmlns="http://www.w3.org/2000/svg">
<path d="M35.8146 37.9883H24.0312V39.2514H35.8146V37.9883Z" fill="#50E6FF"/>
<path d="M35.377 36.1133L37.8767 38.6059L35.377 41.107V36.1133Z" fill="#50E6FF"/>
<path d="M24.6629 37.1286H23.4004V12.8086H35.815V14.0718H24.6629V37.1286Z" fill="#50E6FF"/>
<path d="M43.6263 13.5508H42.3638V40.4981H43.6263V13.5508Z" fill="#50E6FF"/>
<path d="M36.1534 25.3672H25.9692V26.6303H36.1534V25.3672Z" fill="#50E6FF"/>
<path d="M16.6267 25.3672H5.9375V26.6303H16.6267V25.3672Z" fill="#50E6FF"/>
<path d="M42.9863 18.3528C40.2088 18.3528 37.9531 16.096 37.9531 13.317C37.9531 10.5381 40.2088 8.28125 42.9863 8.28125C45.7638 8.28125 48.0195 10.5381 48.0195 13.317C48.0195 16.096 45.7638 18.3528 42.9863 18.3528Z" fill="#0078D4"/>
<path d="M48.0195 20.9648H37.9531V31.0364H48.0195V20.9648Z" fill="#0078D4"/>
<path d="M42.9863 43.556C40.2088 43.556 37.9531 41.2991 37.9531 38.5202C37.9531 35.7412 40.2088 33.4844 42.9863 33.4844C45.7638 33.4844 48.0195 35.7412 48.0195 38.5202C48.0195 41.2991 45.7638 43.556 42.9863 43.556Z" fill="#0078D4"/>
<path d="M5.0527 31.0364C2.2752 31.0364 0.0195312 28.7796 0.0195312 26.0006C0.0195312 23.2217 2.2752 20.9648 5.0527 20.9648C7.8302 20.9648 10.0859 23.2217 10.0859 26.0006C10.0859 28.7796 7.8302 31.0364 5.0527 31.0364Z" fill="#0078D4"/>
<path d="M23.9902 31.0364C21.2127 31.0364 18.957 28.7796 18.957 26.0006C18.957 23.2217 21.2127 20.9648 23.9902 20.9648C26.7677 20.9648 29.0234 23.2217 29.0234 26.0006C29.0234 28.7796 26.7677 31.0364 23.9902 31.0364Z" fill="#0078D4"/>
<path d="M29.0234 8.25391H18.957V18.3255H29.0234V8.25391Z" fill="#0078D4"/>
<path d="M29.0234 33.5117H18.957V43.5833H29.0234V33.5117Z" fill="#0078D4"/>
<path d="M35.4961 23.5664L37.9874 26.059L35.4961 28.5601V23.5664Z" fill="#50E6FF"/>
<path d="M35.377 10.9336L37.8767 13.4262L35.377 15.9273V10.9336Z" fill="#50E6FF"/>
<path d="M15.9102 23.5664L18.4015 26.059L15.9102 28.5601V23.5664Z" fill="#50E6FF"/>
</svg>
