<svg data-slug-id="device-signal-grey" xmlns="http://www.w3.org/2000/svg" viewBox="0 0 49 49">
    <path d="M31.204 33.9831H17.9798C16.3169 33.9831 14.9707 32.6369 14.9707 30.974V17.7498C14.9707 16.0869 16.3169 14.7407 17.9798 14.7407H31.204C32.8669 14.7407 34.2131 16.0869 34.2131 17.7498V30.974C34.2131 32.6369 32.8669 33.9831 31.204 33.9831Z" fill="#C3C3C3"/>
    <path d="M24.5509 19.7295C22.0169 19.7295 19.8789 21.7883 19.8789 24.3223C19.8789 26.8563 21.9378 28.9151 24.5509 28.9151C27.1641 28.9151 29.2229 26.8563 29.2229 24.3223C29.2229 21.7883 27.1641 19.7295 24.5509 19.7295Z" fill="white"/>
    <path d="M17.8219 46.2571H17.1092C9.19057 46.2571 2.69727 39.7638 2.69727 31.8452V31.5284C2.69727 31.2117 2.93483 30.9741 3.17239 30.9741C3.40995 30.9741 3.64751 31.2117 3.64751 31.5284V31.8452C3.72669 39.2095 9.74488 45.2277 17.1092 45.2277H17.8219C18.1387 45.2277 18.297 45.4653 18.297 45.782C18.297 46.0988 18.1387 46.2571 17.8219 46.2571Z" fill="#C3C3C3"/>
    <path d="M17.8216 42.2978H16.9505C11.2491 42.2978 6.65625 37.705 6.65625 32.0035V31.5284C6.65625 31.2117 6.89381 30.9741 7.13137 30.9741C7.36893 30.9741 7.60649 31.2117 7.60649 31.5284V32.0035C7.68568 37.0715 11.8826 41.2684 16.9505 41.2684H17.8216C18.1383 41.2684 18.2967 41.5059 18.2967 41.8227C18.2967 42.1394 18.1383 42.2978 17.8216 42.2978Z" fill="#C3C3C3"/>
    <path d="M3.17239 18.5422C2.93483 18.5422 2.69727 18.3046 2.69727 18.0671V16.9584C2.69727 8.96059 9.19057 2.46729 17.1092 2.46729H17.8219C18.1387 2.46729 18.297 2.70485 18.297 3.02159C18.297 3.33834 18.0595 3.5759 17.8219 3.5759H17.1092C9.74488 3.49671 3.72669 9.5149 3.72669 16.8793V17.9879C3.72669 18.3046 3.48913 18.5422 3.17239 18.5422Z" fill="#C3C3C3"/>
    <path d="M7.13137 18.5418C6.89381 18.5418 6.65625 18.3043 6.65625 18.0667V16.7205C6.65625 11.0191 11.2491 6.42627 16.9505 6.42627H17.8216C18.1383 6.42627 18.2967 6.66383 18.2967 6.98058C18.2967 7.29732 18.0591 7.53488 17.8216 7.53488H16.9505C11.8826 7.4557 7.68568 11.6526 7.68568 16.7205V17.9875C7.68568 18.3043 7.44812 18.5418 7.13137 18.5418Z" fill="#C3C3C3"/>
    <path d="M45.9341 18.5417C45.6174 18.5417 45.459 18.3041 45.459 17.9874V16.8788C45.459 9.51441 39.4408 3.49622 32.0765 3.49622H31.3638C31.047 3.49622 30.8887 3.25866 30.8887 2.94192C30.8887 2.62517 31.047 2.4668 31.2846 2.4668H31.9973C39.9159 2.4668 46.4093 8.9601 46.4093 16.8788V17.9874C46.4884 18.3041 46.2509 18.5417 45.9341 18.5417Z" fill="#C3C3C3"/>
    <path d="M41.9748 18.5418C41.6581 18.5418 41.4997 18.3043 41.4997 17.9875V16.7205C41.4997 11.5734 37.3028 7.4557 32.2348 7.4557H31.3638C31.047 7.4557 30.8887 7.21814 30.8887 6.90139C30.8887 6.58464 31.047 6.42627 31.2846 6.42627H32.1557C37.8571 6.42627 42.4499 11.0191 42.4499 16.7205V17.9875C42.5291 18.3043 42.2915 18.5418 41.9748 18.5418Z" fill="#C3C3C3"/>
    <path d="M32.0765 46.2571H31.3638C31.047 46.2571 30.8887 46.0196 30.8887 45.7028C30.8887 45.3861 31.1262 45.1485 31.3638 45.1485H32.0765C39.4408 45.2277 45.459 39.2095 45.459 31.8452V31.5284C45.459 31.2117 45.6966 30.9741 45.9341 30.9741C46.1717 30.9741 46.4093 31.2117 46.4093 31.5284V31.8452C46.4884 39.7638 39.9951 46.2571 32.0765 46.2571Z" fill="#C3C3C3"/>
    <path d="M32.2348 42.2978H31.3638C31.047 42.2978 30.8887 42.0602 30.8887 41.7435C30.8887 41.4268 31.1262 41.1892 31.3638 41.1892H32.2348C37.3028 41.2684 41.4997 37.0715 41.4997 32.0035V31.5284C41.4997 31.2117 41.7372 30.9741 41.9748 30.9741C42.2124 30.9741 42.4499 31.2117 42.4499 31.5284V32.0035C42.5291 37.705 37.9363 42.2978 32.2348 42.2978Z" fill="#C3C3C3"/>
    <path d="M32.2348 42.2978H31.3638C31.047 42.2978 30.8887 42.0602 30.8887 41.7435C30.8887 41.4268 31.1262 41.1892 31.3638 41.1892H32.2348C37.3028 41.2684 41.4997 37.0715 41.4997 32.0035V31.5284C41.4997 31.2117 41.7372 30.9741 41.9748 30.9741C42.2124 30.9741 42.4499 31.2117 42.4499 31.5284V32.0035C42.5291 37.705 37.9363 42.2978 32.2348 42.2978Z" fill="#C3C3C3"/>
    <path d="M31.2837 39.1303C31.0462 39.1303 30.8086 38.8928 30.8086 38.6552C30.8086 38.3385 30.967 38.1009 31.2837 38.1009C34.8471 37.7842 37.777 35.0126 38.2521 31.4492C38.2521 31.1325 38.5689 30.9741 38.8064 30.9741C39.1232 30.9741 39.2816 31.2909 39.2816 31.5284C38.7273 35.5669 35.4014 38.7344 31.2837 39.1303C31.3629 39.1303 31.3629 39.1303 31.2837 39.1303Z" fill="#C3C3C3"/>
    <path d="M41.9748 18.5418C41.6581 18.5418 41.4997 18.3043 41.4997 17.9875V16.7205C41.4997 11.5734 37.3028 7.4557 32.2348 7.4557H31.3638C31.047 7.4557 30.8887 7.21814 30.8887 6.90139C30.8887 6.58464 31.047 6.42627 31.2846 6.42627H32.1557C37.8571 6.42627 42.4499 11.0191 42.4499 16.7205V17.9875C42.5291 18.3043 42.2915 18.5418 41.9748 18.5418Z" fill="#C3C3C3"/>
    <path d="M38.8064 18.5418C38.5689 18.5418 38.3313 18.3042 38.3313 18.0666C38.1729 14.1865 35.1639 11.019 31.2837 10.7023C30.967 10.7023 30.8086 10.4647 30.8086 10.148C30.8086 9.83122 31.0462 9.67285 31.3629 9.67285C35.7182 10.0688 39.2024 13.6322 39.3607 18.0666C39.3607 18.3042 39.1232 18.5418 38.8064 18.5418Z" fill="#C3C3C3"/>
    <path d="M7.13137 18.5418C6.89381 18.5418 6.65625 18.3043 6.65625 18.0667V16.7205C6.65625 11.0191 11.2491 6.42627 16.9505 6.42627H17.8216C18.1383 6.42627 18.2967 6.66383 18.2967 6.98058C18.2967 7.29732 18.0591 7.53488 17.8216 7.53488H16.9505C11.8826 7.4557 7.68568 11.6526 7.68568 16.7205V17.9875C7.68568 18.3043 7.44812 18.5418 7.13137 18.5418Z" fill="#C3C3C3"/>
    <path d="M10.3785 18.5418C10.0618 18.5418 9.82422 18.3043 9.82422 17.9875C9.98259 13.6323 13.4668 9.98968 17.8221 9.59375C18.0596 9.59375 18.3764 9.75212 18.3764 10.0689C18.3764 10.3856 18.218 10.6232 17.9013 10.6232C14.0211 10.9399 11.012 14.1074 10.8536 17.9875C10.8536 18.3043 10.6161 18.5418 10.3785 18.5418Z" fill="#C3C3C3"/>
    <path d="M17.8216 42.2978H16.9505C11.2491 42.2978 6.65625 37.705 6.65625 32.0035V31.5284C6.65625 31.2117 6.89381 30.9741 7.13137 30.9741C7.36893 30.9741 7.60649 31.2117 7.60649 31.5284V32.0035C7.68568 37.0715 11.8826 41.2684 16.9505 41.2684H17.8216C18.1383 41.2684 18.2967 41.5059 18.2967 41.8227C18.2967 42.1394 18.1383 42.2978 17.8216 42.2978Z" fill="#C3C3C3"/>
    <path d="M17.9011 39.1303C17.8219 39.1303 17.8219 39.1303 17.9011 39.1303C13.7834 38.8135 10.4575 35.646 9.98242 31.6075C9.98242 31.2908 10.1408 31.0532 10.4575 31.0532C10.6951 31.0532 11.0118 31.2116 11.0118 31.5283C11.487 35.0917 14.4169 37.8633 17.9803 38.18C18.297 38.18 18.4554 38.4176 18.4554 38.7343C18.3762 38.8927 18.1386 39.1303 17.9011 39.1303Z" fill="#C3C3C3"/>
</svg>
