<svg data-slug-id="diamond-in-circles-squares" xmlns="http://www.w3.org/2000/svg" viewBox="0 0 49 49">
	<path d="M2.90426 5.91955C1.50636 5.91955 0.37793 4.79112 0.37793 3.39322C0.37793 1.99531 1.50636 0.866882 2.90426 0.866882C4.30217 0.866882 5.4306 1.99531 5.4306 3.39322C5.4306 4.7827 4.29375 5.91955 2.90426 5.91955Z" fill="#0078D4"/>
	<path d="M12.5888 0.866882H7.53613V5.91955H12.5888V0.866882Z" fill="#0078D4"/>
	<path d="M19.7451 0.866882H14.6924V5.91955H19.7451V0.866882Z" fill="#0078D4"/>
	<path d="M26.9052 0.866882H21.8525V5.91955H26.9052V0.866882Z" fill="#0078D4"/>
	<path d="M34.0615 0.866882H29.0088V5.91955H34.0615V0.866882Z" fill="#0078D4"/>
	<path d="M38.6933 5.91955C37.2954 5.91955 36.167 4.79112 36.167 3.39322C36.167 1.99531 37.2954 0.866882 38.6933 0.866882C40.0912 0.866882 41.2197 1.99531 41.2197 3.39322C41.2197 4.7827 40.0828 5.91955 38.6933 5.91955Z" fill="#0078D4"/>
	<path d="M45.8515 5.91955C44.4536 5.91955 43.3252 4.79112 43.3252 3.39322C43.3252 1.99531 44.4536 0.866882 45.8515 0.866882C47.2494 0.866882 48.3779 1.99531 48.3779 3.39322C48.3779 4.7827 47.241 5.91955 45.8515 5.91955Z" fill="#0078D4"/>
	<path d="M5.4306 8.02704H0.37793V13.0797H5.4306V8.02704Z" fill="#0078D4"/>
	<path d="M12.5888 8.02704H7.53613V13.0797H12.5888V8.02704Z" fill="#0078D4"/>
	<path d="M19.7451 8.02704H14.6924V13.0797H19.7451V8.02704Z" fill="#0078D4"/>
	<path d="M26.9052 8.02704H21.8525V13.0797H26.9052V8.02704Z" fill="#50E6FF"/>
	<path d="M34.0615 8.02704H29.0088V13.0797H34.0615V8.02704Z" fill="#0078D4"/>
	<path d="M38.6933 13.0797C37.2954 13.0797 36.167 11.9513 36.167 10.5534C36.167 9.15547 37.2954 8.02704 38.6933 8.02704C40.0912 8.02704 41.2197 9.15547 41.2197 10.5534C41.2197 11.9429 40.0828 13.0797 38.6933 13.0797Z" fill="#0078D4"/>
	<path d="M48.3779 8.02704H43.3252V13.0797H48.3779V8.02704Z" fill="#0078D4"/>
	<path d="M5.4306 15.1833H0.37793V20.236H5.4306V15.1833Z" fill="#0078D4"/>
	<path d="M12.5888 15.1833H7.53613V20.236H12.5888V15.1833Z" fill="#0078D4"/>
	<path d="M19.7451 15.1833H14.6924V20.236H19.7451V15.1833Z" fill="#50E6FF"/>
	<path d="M26.9052 15.1833H21.8525V20.236H26.9052V15.1833Z" fill="#50E6FF"/>
	<path d="M34.0615 15.1833H29.0088V20.236H34.0615V15.1833Z" fill="#50E6FF"/>
	<path d="M41.2197 15.1833H36.167V20.236H41.2197V15.1833Z" fill="#0078D4"/>
	<path d="M48.3779 15.1833H43.3252V20.236H48.3779V15.1833Z" fill="#0078D4"/>
	<path d="M5.4306 22.3395H0.37793V27.3922H5.4306V22.3395Z" fill="#0078D4"/>
	<path d="M12.5888 22.3395H7.53613V27.3922H12.5888V22.3395Z" fill="#50E6FF"/>
	<path d="M19.7451 22.3395H14.6924V27.3922H19.7451V22.3395Z" fill="#50E6FF"/>
	<path d="M24.3789 27.3922C22.981 27.3922 21.8525 26.2638 21.8525 24.8659C21.8525 23.468 22.981 22.3395 24.3789 22.3395C25.7768 22.3395 26.9052 23.468 26.9052 24.8659C26.9052 26.2554 25.7684 27.3922 24.3789 27.3922Z" fill="#50E6FF"/>
	<path d="M34.0615 22.3395H29.0088V27.3922H34.0615V22.3395Z" fill="#50E6FF"/>
	<path d="M41.2197 22.3395H36.167V27.3922H41.2197V22.3395Z" fill="#50E6FF"/>
	<path d="M48.3779 22.3395H43.3252V27.3922H48.3779V22.3395Z" fill="#0078D4"/>
	<path d="M5.4306 29.4958H0.37793V34.5485H5.4306V29.4958Z" fill="#0078D4"/>
	<path d="M12.5888 29.4958H7.53613V34.5485H12.5888V29.4958Z" fill="#0078D4"/>
	<path d="M17.2187 34.5485C15.8208 34.5485 14.6924 33.42 14.6924 32.0221C14.6924 30.6242 15.8208 29.4958 17.2187 29.4958C18.6166 29.4958 19.7451 30.6242 19.7451 32.0221C19.7451 33.4116 18.6082 34.5485 17.2187 34.5485Z" fill="#50E6FF"/>
	<path d="M26.9052 29.4958H21.8525V34.5485H26.9052V29.4958Z" fill="#50E6FF"/>
	<path d="M34.0615 29.4958H29.0088V34.5485H34.0615V29.4958Z" fill="#50E6FF"/>
	<path d="M38.6933 34.5485C37.2954 34.5485 36.167 33.42 36.167 32.0221C36.167 30.6242 37.2954 29.4958 38.6933 29.4958C40.0912 29.4958 41.2197 30.6242 41.2197 32.0221C41.2197 33.4116 40.0828 34.5485 38.6933 34.5485Z" fill="#0078D4"/>
	<path d="M48.3779 29.4958H43.3252V34.5485H48.3779V29.4958Z" fill="#0078D4"/>
	<path d="M5.4306 36.6559H0.37793V41.7086H5.4306V36.6559Z" fill="#0078D4"/>
	<path d="M12.5888 36.6559H7.53613V41.7086H12.5888V36.6559Z" fill="#0078D4"/>
	<path d="M19.7451 36.6559H14.6924V41.7086H19.7451V36.6559Z" fill="#0078D4"/>
	<path d="M24.3789 41.7086C22.981 41.7086 21.8525 40.5802 21.8525 39.1823C21.8525 37.7844 22.981 36.6559 24.3789 36.6559C25.7768 36.6559 26.9052 37.7844 26.9052 39.1823C26.9052 40.5718 25.7684 41.7086 24.3789 41.7086Z" fill="#50E6FF"/>
	<path d="M34.0615 36.6559H29.0088V41.7086H34.0615V36.6559Z" fill="#0078D4"/>
	<path d="M41.2197 36.6559H36.167V41.7086H41.2197V36.6559Z" fill="#0078D4"/>
	<path d="M48.3779 36.6559H43.3252V41.7086H48.3779V36.6559Z" fill="#0078D4"/>
	<path d="M5.4306 43.8161H0.37793V48.8688H5.4306V43.8161Z" fill="#0078D4"/>
	<path d="M12.5888 43.8161H7.53613V48.8688H12.5888V43.8161Z" fill="#0078D4"/>
	<path d="M19.7451 43.8161H14.6924V48.8688H19.7451V43.8161Z" fill="#0078D4"/>
	<path d="M26.9052 43.8161H21.8525V48.8688H26.9052V43.8161Z" fill="#0078D4"/>
	<path d="M34.0615 43.8161H29.0088V48.8688H34.0615V43.8161Z" fill="#0078D4"/>
	<path d="M38.6933 48.8688C37.2954 48.8688 36.167 47.7403 36.167 46.3424C36.167 44.9445 37.2954 43.8161 38.6933 43.8161C40.0912 43.8161 41.2197 44.9445 41.2197 46.3424C41.2197 47.7319 40.0828 48.8688 38.6933 48.8688Z" fill="#0078D4"/>
	<path d="M48.3779 43.8161H43.3252V48.8688H48.3779V43.8161Z" fill="#0078D4"/>
</svg>
