<svg data-slug-id="divergent-arrows-alt" xmlns="http://www.w3.org/2000/svg" viewBox="0 0 48 48">
    <path d="M16.8681 0.114061L3.10937 3.99754L13.409 13.8227L14.264 10.4441C18.928 13.4732 21.843 18.6383 21.843 24.2305L29.111 24.2305C29.111 15.3373 24.0584 7.18199 16.1296 3.14318L16.8681 0.114061Z" fill="#50E6FF"/>
    <path d="M34.8241 3.14581C26.8954 7.22347 21.8428 15.3399 21.8428 24.2331C21.8428 37.3593 32.6088 48 45.9011 48L45.9011 40.7379C36.6509 40.7379 29.1108 33.3204 29.1108 24.2331C29.1108 18.6409 32.0258 13.4759 36.6897 10.4468L37.5059 13.8254L47.8055 4.00018L34.0468 0.116699L34.8241 3.14581Z" fill="#0078D4"/>
</svg>
