<svg data-slug-id="divisions" xmlns="http://www.w3.org/2000/svg" viewBox="0 0 48 48">
<path d="M24.1092 46.1598L4.05176 34.384L5.3349 32.2061L24.1177 43.2222L42.4699 32.6197L43.7361 34.8145L24.1092 46.1598Z" fill="#0078D4"/>
<path d="M24.1097 35.1328L4.05225 23.3654L5.33538 21.1791L24.1181 32.2036L42.4704 21.6012L43.7366 23.7959L24.1097 35.1328Z" fill="#0078D4"/>
<path d="M24.1097 25.6448L4.05225 13.8775L5.33538 11.6912L24.1181 22.7157L42.4704 12.1132L43.7366 14.308L24.1097 25.6448Z" fill="#0078D4"/>
<path d="M24.1092 15.7623L4.05176 3.98648L5.3349 1.80859L24.1177 12.8247L42.4699 2.22222L43.7361 4.41699L24.1092 15.7623Z" fill="#0078D4"/>
<path d="M7.20088 0H0.00012207V7.20053H7.20088V0Z" fill="#50E6FF"/>
<path d="M27.5963 0H20.3955V7.20053H27.5963V0Z" fill="#0078D4"/>
<path d="M47.9995 0H40.7988V7.20053H47.9995V0Z" fill="#0078D4"/>
<path d="M7.20076 10.1989H0V17.3994H7.20076V10.1989Z" fill="#50E6FF"/>
<path d="M27.5963 10.1989H20.3955V17.3994H27.5963V10.1989Z" fill="#0078D4"/>
<path d="M47.9996 10.1989H40.7988V17.3994H47.9996V10.1989Z" fill="#50E6FF"/>
<path d="M7.20076 20.4016H0V27.6021H7.20076V20.4016Z" fill="#0078D4"/>
<path d="M47.9996 20.3995H40.7988V27.6001H47.9996V20.3995Z" fill="#50E6FF"/>
<path d="M7.20076 30.6002H0V37.8007H7.20076V30.6002Z" fill="#0078D4"/>
<path d="M27.5963 10.199H20.3955V17.3996H27.5963V10.199Z" fill="#0078D4"/>
<path d="M47.9996 30.6001H40.7988V37.8006H47.9996V30.6001Z" fill="#50E6FF"/>
<path d="M7.20076 40.7994H0V47.9999H7.20076V40.7994Z" fill="#0078D4"/>
<path d="M27.5963 20.3995H20.3955V27.6H27.5963V20.3995Z" fill="#50E6FF"/>
<path d="M47.9996 40.7994H40.7988V47.9999H47.9996V40.7994Z" fill="#50E6FF"/>
<path d="M27.5963 20.4016H20.3955V27.6021H27.5963V20.4016Z" fill="#0078D4"/>
<path d="M27.5963 40.7994H20.3955V47.9999H27.5963V40.7994Z" fill="#0078D4"/>
<path d="M27.5963 30.6001H20.3955V37.8006H27.5963V30.6001Z" fill="#0078D4"/>
</svg>
