<svg data-slug-id="documents19" viewBox="0 0 48 48" xmlns="http://www.w3.org/2000/svg">
    <path d="M33.0463 38.5507C31.8864 37.415 31.1695 35.8363 31.1695 34.0885C31.1695 30.6411 33.9725 27.83 37.428 27.83C37.9193 27.83 38.4026 27.8864 38.8617 27.9992V11.4952L30.5091 7.83034L28.3907 1H5V46.984H27.8993C27.8993 44.4467 28.8901 42.0706 30.6782 40.2744C31.387 39.5737 32.1844 38.9938 33.0463 38.5507Z" fill="#0078D4"/>
    <path d="M38.8538 11.463H28.3828V1L38.8538 11.463Z" fill="#50E6FF"/>
    <path d="M29.9128 46.9995C29.9128 42.8595 33.2636 39.5168 37.3956 39.5168C41.5357 39.5168 44.8784 42.8675 44.8784 46.9995H29.9128Z" fill="#0078D4"/>
    <path d="M38.9548 38.0466C41.1404 37.1989 42.225 34.7399 41.3773 32.5543C40.5295 30.3686 38.0705 29.2841 35.8849 30.1318C33.6993 30.9795 32.6147 33.4385 33.4624 35.6241C34.3101 37.8097 36.7691 38.8943 38.9548 38.0466Z" fill="#0078D4"/>
    <path d="M18.1047 5.79913L13.4814 10.4386L12.096 9.05321L11.1697 9.97949L13.4814 12.2992L19.031 6.73347L18.1047 5.79913Z" fill="white"/>
    <path d="M11.1216 19.4538H28.0444V15.652H11.1216V19.4538Z" fill="white"/>
    <path d="M11.1216 25.1551H28.0444V21.3533H11.1216V25.1551Z" fill="#50E6FF"/>
    <path d="M11.1216 30.6805H28.0444V26.8787H11.1216V30.6805Z" fill="#50E6FF"/>
    <path d="M11.1216 36.3108H28.0444V32.509H11.1216V36.3108Z" fill="#50E6FF"/>
    <path d="M11.1216 42.1356H20.5213V38.3338H11.1216V42.1356Z" fill="#50E6FF"/>
</svg>
