<svg data-slug-id="documents08" viewBox="0 0 49 49" xmlns="http://www.w3.org/2000/svg">
<path d="M41.0379 13.0251C41.0379 8.2822 37.1932 4.4375 32.4419 4.4375C28.3453 4.4375 24.9288 7.30004 24.0641 11.1363C23.2163 10.2549 22.0243 9.70927 20.7063 9.70927C18.1292 9.70927 16.0306 11.7995 16.0306 14.385C16.0306 14.427 16.039 14.4606 16.039 14.5026C13.1764 15.065 11.019 17.5834 11.019 20.6138C11.019 24.0555 13.806 26.8425 17.2478 26.8425H42.8007C45.9151 26.8425 48.4502 24.3158 48.4502 21.193C48.4502 18.0786 45.9235 15.5435 42.8007 15.5435C41.9696 15.5435 41.1806 15.7282 40.4754 16.0472C40.8364 15.107 41.0379 14.0912 41.0379 13.0251Z" fill="#50E6FF"/>
<path d="M34.255 23.1488H1.97803V15.0312H10.4649L13.3778 17.5496H34.255V23.1488Z" fill="#0078D4"/>
<path d="M35.7827 21.2266H0.450195V45.3357H35.7827V21.2266Z" fill="#0078D4"/>
<path d="M24.7023 36.1022H11.5312V30.4023H12.7904V34.8431H23.4431V30.4023H24.7023V36.1022Z" fill="#50E6FF"/>
<path d="M30.6873 20.0781H5.5625V21.3793H30.6873V20.0781Z" fill="#50E6FF"/>
</svg>
