<svg data-slug-id="documents14" viewBox="0 0 49 49" xmlns="http://www.w3.org/2000/svg">
<path d="M20.8006 44.5284C20.8337 43.5351 21.14 42.5666 21.7028 41.7306L22.514 40.5138H7.69718V35.5555H25.8251L27.4971 33.0557H7.69718V28.0974H30.0135V25.5314H7.77995V20.5731H28.4408C28.3332 20.3248 28.267 20.0434 28.267 19.7536V18.1975C28.267 18.123 28.2752 18.0485 28.2752 17.974H25.1215V13.0488H32.5961V16.1281H37.5461V0.847656H2.78857V45.6707H20.8916C20.8171 45.2982 20.7923 44.9092 20.8006 44.5284Z" fill="#0078D4"/>
<path d="M28.4406 20.5664H7.77979V25.5247H30.0134V21.7915C29.3015 21.6756 28.7138 21.2038 28.4406 20.5664Z" fill="#50E6FF"/>
<path d="M30.0136 28.0898H7.69727V33.0481H27.4972L30.0136 29.2818V28.0898Z" fill="#50E6FF"/>
<path d="M7.69727 35.5547V40.513H22.5141L25.8252 35.5547H7.69727Z" fill="#50E6FF"/>
<path d="M30.3365 16.1222H32.5962V13.043H25.1216V17.9681H28.2753C28.3912 16.9252 29.2686 16.1222 30.3365 16.1222Z" fill="#50E6FF"/>
<path d="M22.6051 7.63673L21.2724 5.89844L12.581 14.5816L9.58448 11.9742L7.84619 13.7125L12.1836 18.0499L22.6051 7.63673Z" fill="white"/>
<path d="M25.1211 10.5975H32.5957V5.66406H25.1211V10.5975Z" fill="#50E6FF"/>
<path d="M37.1074 29.6807V19.7476H38.8043V18.1914H30.3364V19.7476H32.0829V29.9125L23.4246 42.8834C21.976 45.0521 23.5322 47.9658 26.1396 47.9658H43.7129C46.3618 47.9658 47.9097 44.9776 46.3783 42.8172L37.1074 29.6807Z" fill="#0078D4"/>
<path d="M43.8038 42.9495L38.5972 35.5742H31.0646L26.1146 42.9909C25.2868 44.2243 26.1725 45.8881 27.6625 45.8881H42.289C43.7872 45.8798 44.6729 44.1829 43.8038 42.9495Z" fill="#50E6FF"/>
</svg>
