<svg data-slug-id="documents16" viewBox="0 0 49 49" xmlns="http://www.w3.org/2000/svg">
<path d="M37.8784 0.180009C39.6179 0.52503 40.4078 1.58534 40.4078 2.76346V45.3189C40.4919 46.7747 39.2398 47.9949 37.9961 48.1043C41.6347 48.1211 42.9793 45.6807 42.9793 43.2656V5.08604C42.9793 2.76346 41.3574 0.146348 37.8784 0.180009Z" fill="#50E6FF"/>
<path d="M32.7273 0.199219H5.22313C2.3744 0.199219 0.0634766 2.51338 0.0634766 5.36612V7.74761H3.83658C4.52565 7.74761 5.08028 8.30301 5.08028 8.99305C5.08028 9.68309 4.52565 10.2385 3.83658 10.2385H0.0634766V15.3212H3.83658C4.52565 15.3212 5.08028 15.8766 5.08028 16.5667C5.08028 17.2567 4.52565 17.8121 3.83658 17.8121H0.0634766V22.8612H3.83658C4.52565 22.8612 5.08028 23.4166 5.08028 24.1067C5.08028 24.7967 4.52565 25.3521 3.83658 25.3521H0.0634766V30.4517H3.83658C4.52565 30.4517 5.08028 31.0071 5.08028 31.6971C5.08028 32.3872 4.52565 32.9426 3.83658 32.9426H0.0634766V37.9916H3.83658C4.52565 37.9916 5.08028 38.547 5.08028 39.2371C5.08028 39.9271 4.52565 40.4825 3.83658 40.4825H0.0634766V42.8724C0.0634766 45.7252 2.3744 48.0393 5.22313 48.0393H32.7357C35.5844 48.0393 37.8954 45.7252 37.8954 42.8724V5.36612C37.887 2.51338 35.576 0.199219 32.7273 0.199219Z" fill="#0078D4"/>
<path d="M27.4668 19.2848H13.1811C11.5425 19.2848 10.2231 17.9552 10.2231 16.3226V10.634C10.2231 8.99305 11.5509 7.67188 13.1811 7.67188H27.4752C29.1139 7.67188 30.4332 9.00147 30.4332 10.634V16.3226C30.4332 17.9636 29.1055 19.2848 27.4668 19.2848Z" fill="#50E6FF"/>
</svg>
