<svg data-slug-id="documents01" viewBox="0 0 49 49" xmlns="http://www.w3.org/2000/svg">
<path d="M42.5845 48.5738H7.28345V0.625H31.6708L33.8771 7.74911L42.5845 11.5722V48.5738Z" fill="#0078D4"/>
<path d="M42.5848 11.5385H31.6711V0.625L42.5848 11.5385Z" fill="#50E6FF"/>
<path d="M34.9467 18.7062C34.9467 17.9062 34.2983 17.2578 33.4983 17.2578H16.2099C15.4099 17.2578 14.7615 17.9062 14.7615 18.7062C14.7615 19.5062 15.4099 20.1546 16.2099 20.1546H33.4983C34.2983 20.1546 34.9467 19.5062 34.9467 18.7062Z" fill="white"/>
<path d="M26.2312 18.7042C26.2312 20.2958 27.5196 21.5842 29.1112 21.5842C30.7028 21.5842 31.9912 20.2958 31.9912 18.7042C31.9912 17.1127 30.7028 15.8243 29.1112 15.8243C27.5196 15.8158 26.2312 17.1127 26.2312 18.7042Z" fill="#50E6FF"/>
<path d="M34.9467 27.2375C34.9467 26.4375 34.2983 25.7891 33.4983 25.7891H16.2099C15.4099 25.7891 14.7615 26.4375 14.7615 27.2375C14.7615 28.0375 15.4099 28.6859 16.2099 28.6859H33.4983C34.2983 28.6859 34.9467 28.0375 34.9467 27.2375Z" fill="white"/>
<path d="M17.6501 27.2276C17.6501 28.8192 18.9386 30.1076 20.5301 30.1076C22.1217 30.1076 23.4101 28.8192 23.4101 27.2276C23.4101 25.6361 22.1217 24.3477 20.5301 24.3477C18.9386 24.3477 17.6501 25.6361 17.6501 27.2276Z" fill="#50E6FF"/>
<path d="M34.9467 35.9328C34.9467 35.1328 34.2983 34.4844 33.4983 34.4844H16.2099C15.4099 34.4844 14.7615 35.1328 14.7615 35.9328C14.7615 36.7328 15.4099 37.3812 16.2099 37.3812H33.4983C34.2983 37.3728 34.9467 36.7243 34.9467 35.9328Z" fill="white"/>
<path d="M23.3767 35.9268C23.3767 37.5184 24.6651 38.8068 26.2567 38.8068C27.8483 38.8068 29.1367 37.5184 29.1367 35.9268C29.1367 34.3353 27.8483 33.0469 26.2567 33.0469C24.6736 33.0469 23.3767 34.3353 23.3767 35.9268Z" fill="#50E6FF"/>
</svg>
