<svg data-slug-id="documents12" viewBox="0 0 49 49" xmlns="http://www.w3.org/2000/svg">
<path d="M47.9945 0.445312H32.8605L22.7964 10.5329V13.1304H26.0166C27.0087 13.1304 27.8074 13.929 27.8074 14.921V33.1711H47.9861V0.445312H47.9945Z" fill="#0078D7"/>
<path d="M22.7622 10.5503L32.8768 0.4375V10.5503H22.7622Z" fill="#50E6FF"/>
<path d="M4.2988 15.4846C3.87841 15.4846 3.53369 15.1483 3.53369 14.7196V10.1802C3.53369 6.79243 6.29144 4.03516 9.67978 4.03516H18.4407C18.8611 4.03516 19.2058 4.37141 19.2058 4.80013C19.2058 5.22045 18.8611 5.5651 18.4407 5.5651H9.68819C7.14063 5.5651 5.06391 7.64146 5.06391 10.1886V14.728C5.06391 15.1483 4.71919 15.4846 4.2988 15.4846Z" fill="#0078D7"/>
<path d="M17.8438 2.92578L20.9462 4.92648L17.8438 6.91878V2.92578Z" fill="#0078D7"/>
<path d="M43.7315 35.7852C44.1519 35.7852 44.4966 36.1214 44.4966 36.5501V38.8198C44.4966 42.2076 41.7388 44.9648 38.3505 44.9648H32.8686C32.4482 44.9648 32.1035 44.6286 32.1035 44.1999C32.1035 43.7711 32.4482 43.4349 32.8686 43.4349H38.3505C40.8981 43.4349 42.9748 41.3585 42.9748 38.8114V36.5417C42.9664 36.1214 43.3111 35.7852 43.7315 35.7852Z" fill="#0078D7"/>
<path d="M33.4656 46.075L30.3716 44.0827L33.4741 42.082V46.075H33.4656Z" fill="#0078D7"/>
<path d="M25.2429 15.6953H10.1173L0.0532227 25.7829V48.4127H25.2429V15.6953Z" fill="#0078D7"/>
<path d="M0.0195312 25.7925L10.1341 15.6797V25.7925H0.0195312Z" fill="#50E6FF"/>
</svg>
