<svg data-slug-id="document-user" viewBox="0 0 49 49" xmlns="http://www.w3.org/2000/svg">
    <path d="M32.1259 38.664C30.966 37.5283 30.2491 35.9496 30.2491 34.2018C30.2491 30.7544 33.0521 27.9433 36.5076 27.9433C36.9989 27.9433 37.4822 27.9997 37.9413 28.1124V11.6085L29.5886 7.94362L27.4703 1.11328H4.07959V47.0972H26.9789C26.9789 44.56 27.9697 42.1839 29.7578 40.3877C30.4666 39.687 31.264 39.107 32.1259 38.664Z" fill="#0078D4"/>
    <path d="M37.9334 11.5763H27.4624V1.11328L37.9334 11.5763Z" fill="#50E6FF"/>
    <path d="M28.9924 47.1129C28.9924 42.9728 32.3432 39.6301 36.4752 39.6301C40.6153 39.6301 43.958 42.9809 43.958 47.1129H28.9924Z" fill="#0078D4"/>
    <path d="M38.0343 38.16C40.22 37.3122 41.3046 34.8532 40.4568 32.6676C39.6091 30.482 37.1501 29.3974 34.9645 30.2451C32.7789 31.0928 31.6943 33.5518 32.542 35.7375C33.3897 37.9231 35.8487 39.0077 38.0343 38.16Z" fill="#0078D4"/>
    <path d="M17.1843 5.91235L12.561 10.5518L11.1756 9.16643L10.2493 10.0927L12.561 12.4125L18.1106 6.84669L17.1843 5.91235Z" fill="white"/>
    <path d="M10.2012 19.5672H27.124V15.7654H10.2012V19.5672Z" fill="white"/>
    <path d="M10.2012 25.2683H27.124V21.4666H10.2012V25.2683Z" fill="#50E6FF"/>
    <path d="M10.2012 30.7937H27.124V26.9919H10.2012V30.7937Z" fill="#50E6FF"/>
    <path d="M10.2012 36.4241H27.124V32.6223H10.2012V36.4241Z" fill="#50E6FF"/>
    <path d="M10.2012 42.2488H19.6009V38.447H10.2012V42.2488Z" fill="#50E6FF"/>
</svg>
