<svg data-slug-id="documents03" viewBox="0 0 49 49" xmlns="http://www.w3.org/2000/svg">
<path d="M10.7051 48.8865H38.4727V0.886719H10.7051V48.8865Z" fill="#0078D4"/>
<path d="M15.7568 10.811H33.421V5.79297H15.7568V10.811Z" fill="#50E6FF"/>
<path d="M15.7568 43.6749H33.421V38.6484H15.7568V43.6749Z" fill="#50E6FF"/>
<path d="M15.7568 36.1476H33.421V31.1211H15.7568V36.1476Z" fill="#50E6FF"/>
<path d="M31.2656 21.8507H30.6594C30.6594 20.0237 29.1776 18.5419 27.3506 18.5419C27.0811 18.5419 26.8201 18.5755 26.576 18.6345C25.6919 17.2537 24.1511 16.3359 22.383 16.3359C19.6382 16.3359 17.4155 18.5587 17.4155 21.3035C17.4155 21.5055 17.4323 21.7076 17.4492 21.9097C16.4809 22.1202 15.7568 22.979 15.7568 24.0146V24.124C15.7568 25.3112 16.7251 26.2794 17.9122 26.2794H31.2656C32.4528 26.2794 33.421 25.3112 33.421 24.124V24.0146C33.421 22.8106 32.4528 21.8507 31.2656 21.8507Z" fill="white"/>
</svg>
