<svg data-slug-id="documentation-light" xmlns="http://www.w3.org/2000/svg" viewBox="0 0 39 48">
    <path fill-rule="evenodd" clip-rule="evenodd" d="M6 43.5H39V0H6V43.5Z" fill="#50E6FF"/>
    <path fill-rule="evenodd" clip-rule="evenodd" d="M0 48H33V4.5H0V48Z" fill="#0078D4"/>
    <path fill-rule="evenodd" clip-rule="evenodd" d="M12 36C10.5783 36 9.5355 35.6951 8.8714 35.085C8.20725 34.4749 7.875 33.4811 7.875 32.1045V28.7074C7.875 27.1905 7.24985 26.4319 6 26.4319V24.5685C7.24985 24.5685 7.875 23.7693 7.875 22.1719V18.9893C7.875 17.6284 8.21285 16.6234 8.889 15.9739C9.56475 15.3248 10.6016 15 12 15V16.8671C10.7501 16.8671 10.125 17.583 10.125 19.0147V22.0432C10.125 23.8676 9.4999 25.008 8.25 25.4644V25.515C9.4999 25.9203 10.125 27.0356 10.125 28.86V31.8773C10.125 32.6562 10.2675 33.2265 10.5529 33.5884C10.8379 33.9499 11.3205 34.131 12 34.131V36Z" fill="white"/>
    <path fill-rule="evenodd" clip-rule="evenodd" d="M21 34.131C21.6795 34.131 22.1621 33.9499 22.4471 33.5884C22.7328 33.2262 22.875 32.6562 22.875 31.8773V28.86C22.875 27.0356 23.5001 25.9203 24.75 25.515V25.4644C23.5001 25.008 22.875 23.8676 22.875 22.0432V19.0147C22.875 17.583 22.2499 16.8671 21 16.8671V15C22.3984 15 23.4356 15.3248 24.1113 15.9739C24.7871 16.623 25.125 17.6284 25.125 18.9893V22.1719C25.125 23.7693 25.7501 24.5685 27 24.5685V26.4319C25.7501 26.4319 25.125 27.1905 25.125 28.7074V32.1045C25.125 33.4811 24.7932 34.4748 24.1287 35.0846C23.4645 35.6947 22.4216 36 21 36V34.131Z" fill="white"/>
</svg>
