<svg data-slug-id="documents18" viewBox="0 0 43 48" xmlns="http://www.w3.org/2000/svg">
<path d="M30.9621 18.3453L30.8621 13.1453L26.2621 10.4453L21.5621 13.1453L16.8621 10.4453L12.1621 13.1453V18.4453L11.9621 18.3453L7.36206 21.0453V26.4453L11.9621 29.1453L12.1621 34.3453L16.7621 37.0453L21.4621 34.3453L26.1621 37.0453L30.7621 34.3453V29.0453L30.8621 29.1453L35.5621 26.4453V21.0453L30.9621 18.3453Z" fill="#0078D7"/>
<path d="M21.3619 0.144531L0.661865 12.0445V35.9445L21.3619 47.8445L42.0619 35.9445V12.0445L21.3619 0.144531ZM22.1619 3.54453L38.6619 13.0445L22.1619 22.8445V3.54453ZM20.8619 22.9445L4.16187 13.0445L20.9619 3.34453V22.9445H20.8619ZM20.1619 23.9445L3.16187 33.9445V13.9445L20.1619 23.9445ZM20.8619 25.0445V44.7445L3.96187 34.9445L20.8619 25.0445ZM22.1619 25.1445L38.7619 34.9445L22.1619 44.5445V25.1445ZM22.6619 23.9445L39.5619 13.9445V33.9445L22.6619 23.9445Z" fill="#50E6FF"/>
<path d="M21.3618 24.7437L27.6618 28.4437L21.3618 32.2437L15.0618 28.4437L21.3618 24.7437ZM21.3618 23.3438L12.5618 28.5437L21.3618 33.8438L30.1618 28.5437L21.3618 23.3438Z" fill="#50E6FF"/>
<path d="M21.3618 20.2461L27.6618 23.9461L21.3618 27.7461L15.0618 23.9461L21.3618 20.2461ZM21.3618 18.7461L12.5618 23.9461L21.3618 29.2461L30.1618 23.9461L21.3618 18.7461Z" fill="#50E6FF"/>
<path d="M21.3618 15.7461L27.6618 19.4461L21.3618 23.2461L15.0618 19.4461L21.3618 15.7461ZM21.3618 14.2461L12.5618 19.4461L21.3618 24.7461L30.1618 19.4461L21.3618 14.2461Z" fill="#50E6FF"/>
<path d="M13.762 28.443L21.362 24.043L28.962 28.443L21.362 33.043L13.762 28.443Z" fill="#3BCAF4"/>
<path d="M13.762 23.943L21.362 19.543L28.962 23.943L21.362 28.543L13.762 23.943Z" fill="#0078D7"/>
<path d="M13.8621 19.443L21.4621 15.043L29.0621 19.443L21.4621 23.943L13.8621 19.443Z" fill="#3BCAF4"/>
</svg>
