<svg data-slug-id="documents17" viewBox="0 0 49 49" xmlns="http://www.w3.org/2000/svg">
<path d="M23.5248 34.6133C23.1464 32.9819 23.9957 31.3673 25.543 30.7787C26.0812 30.5769 26.611 30.4675 27.1239 30.4675C27.6201 30.4675 28.0742 30.56 28.4946 30.745C28.4778 27.7261 28.4526 24.4465 28.4526 24.0513C28.4526 22.1592 30.1008 21.0324 31.6902 21.0324C31.7742 21.0324 31.8667 21.0324 31.9508 21.0408C32.9515 21.108 34.6754 21.5874 35.0034 24.0765C35.0707 24.6063 35.0875 26.1872 35.0791 27.8775C35.2473 27.8775 35.4154 27.8943 35.592 27.9195C36.8955 28.1045 37.8121 28.8698 38.1653 30.0134C38.1989 30.0134 38.241 30.0134 38.2746 30.0134C38.6446 30.0134 39.0146 30.0807 39.3762 30.2068C39.7126 30.3246 40.1414 30.5264 40.5367 30.8544V1.03516H5.25146V43.8382H26.838C26.6194 43.5523 26.1316 42.8796 26.0139 42.703C25.2487 41.4921 23.5416 34.6806 23.5248 34.6133Z" fill="#50E6FF"/>
<path d="M31.8079 48.8495H41.0328C41.0917 48.8495 42.7567 41.0037 42.9417 40.2889C43.1267 39.5741 42.9249 36.4627 42.9249 35.4032C42.9249 34.3436 42.6222 33.4018 41.529 33.3261C41.4701 33.3177 41.4113 33.3177 41.3608 33.3177C40.5956 33.3177 40.2508 33.7045 40.1499 33.8559C40.133 33.8727 40.1246 33.8811 40.1246 33.8811C40.1162 33.8811 40.1078 33.8643 40.1078 33.839C40.1078 33.7381 40.1078 33.5531 40.091 33.4186C40.0742 33.2083 40.2256 32.1908 38.8464 31.7031C38.6362 31.6274 38.4512 31.6022 38.2746 31.6022C37.585 31.6022 37.1225 32.0899 36.9123 32.3842C36.8955 32.4095 36.8703 32.4179 36.845 32.4179C36.803 32.4179 36.7609 32.3842 36.7609 32.3338C36.7525 31.9722 36.7441 31.3583 36.7441 31.1901C36.7441 30.9463 36.8198 29.6933 35.365 29.4915C35.2305 29.4746 35.1127 29.4662 34.995 29.4662C34.2382 29.4662 33.8261 29.8278 33.6243 30.0885C33.6075 30.1137 33.5822 30.1221 33.5654 30.1221C33.5234 30.1221 33.4813 30.0885 33.4813 30.0381C33.4982 28.9364 33.5402 25.0346 33.4393 24.2945C33.3216 23.4284 33.0272 22.7052 31.8499 22.6295C31.7911 22.6295 31.7406 22.6211 31.6902 22.6211C30.6222 22.6211 30.0335 23.3443 30.0335 24.0591C30.0335 24.6814 30.084 32.7542 30.1008 35.6386C30.1008 35.7479 30.0167 35.8068 29.9326 35.8068C29.8654 35.8068 29.8065 35.7732 29.7729 35.6975C29.5122 34.9743 29.1422 33.9736 28.8226 33.2504C28.4442 32.3842 27.8051 32.0647 27.1239 32.0647C26.7876 32.0647 26.4428 32.1404 26.1064 32.2665C25.1814 32.6197 24.8955 33.5363 25.0637 34.2679C25.215 34.907 26.8212 41.0289 27.351 41.8615C27.8808 42.694 30.3363 45.6036 30.8661 46.2847C31.3958 46.9575 31.8079 48.8495 31.8079 48.8495Z" fill="#0078D4"/>
<path d="M28.1749 5.98828L17.7895 16.3737L14.6781 13.2623L12.6094 15.3394L17.7895 20.5195L30.252 8.06537L28.1749 5.98828Z" fill="#0078D4"/>
</svg>
