<svg data-slug-id="documents11" viewBox="0 0 49 49" xmlns="http://www.w3.org/2000/svg">
<path d="M0.0195312 43.4092H48.0195V6.44922H0.0195312V43.4092Z" fill="#0078D4"/>
<path d="M0.0195312 10.4435H48.0027V5.44141H0.0195312V10.4435Z" fill="#50E6FF"/>
<path d="M7.49742 9.26242C8.17179 9.26242 8.71847 8.71573 8.71847 8.04137C8.71847 7.367 8.17179 6.82031 7.49742 6.82031C6.82305 6.82031 6.27637 7.367 6.27637 8.04137C6.27637 8.71573 6.82305 9.26242 7.49742 9.26242Z" fill="#0078D4"/>
<path d="M3.70787 9.26242C4.38224 9.26242 4.92892 8.71573 4.92892 8.04137C4.92892 7.367 4.38224 6.82031 3.70787 6.82031C3.0335 6.82031 2.48682 7.367 2.48682 8.04137C2.48682 8.71573 3.0335 9.26242 3.70787 9.26242Z" fill="#0078D4"/>
<path d="M11.371 9.26242C12.0453 9.26242 12.592 8.71573 12.592 8.04137C12.592 7.367 12.0453 6.82031 11.371 6.82031C10.6966 6.82031 10.1499 7.367 10.1499 8.04137C10.1499 8.71573 10.6966 9.26242 11.371 9.26242Z" fill="#0078D4"/>
<path d="M16.4067 30.865L23.2783 34.8061V26.9071L16.4067 22.9492V30.865Z" fill="#50E6FF"/>
<path d="M23.9691 18.1719L17.1733 22.0961L23.9691 26.0203L30.7649 22.0961L23.9691 18.1719Z" fill="#50E6FF"/>
<path d="M24.6509 26.9077V34.8067L31.5225 30.8656V22.9414L24.6509 26.9077Z" fill="#50E6FF"/>
</svg>
