<svg data-slug-id="dollar-repeat" xmlns="http://www.w3.org/2000/svg" viewBox="0 0 48 48">
  <path d="M27.5853 28.8791C27.5853 27.8912 26.8611 27.0722 25.4042 26.4306V31.0659C26.8611 30.8295 27.5853 30.1034 27.5853 28.8791ZM23.1811 21.2717V16.4253C21.7663 16.6786 21.0589 17.4216 21.0589 18.6459C21.0589 19.7097 21.7663 20.5878 23.1811 21.2717ZM31.6442 28.668C31.6442 30.3567 31.1137 31.7245 30.0526 32.7461C28.9916 33.7762 27.4421 34.4094 25.4126 34.6374V37.9556H23.1811V34.7303C21.0842 34.7134 19.1642 34.2406 17.4211 33.3203V29.0902C17.9684 29.5377 18.8442 29.9767 20.0484 30.3989C21.2526 30.8211 22.2968 31.0659 23.1811 31.125V25.5609C20.9326 24.725 19.3411 23.8132 18.4063 22.8169C17.4716 21.8205 17 20.5203 17 18.8992C17 17.2781 17.5726 15.9103 18.7263 14.7958C19.8716 13.6813 21.3621 13.0311 23.1811 12.8454V10H25.4042V12.7778C27.5516 12.8791 29.1516 13.2253 30.2042 13.8163V17.9451C28.7895 17.0923 27.1895 16.5604 25.4042 16.3578V22.1498C27.6526 22.9688 29.2526 23.8807 30.2042 24.9023C31.1642 25.924 31.6442 27.182 31.6442 28.668Z" fill="#0078D4"/>
  <path d="M47.68 17.3846V4.71978H42.6189V9.2538C38.2653 3.62215 31.4526 0 23.8063 0C10.6526 0 0 10.6807 0 23.8691C0 37.0574 10.6611 47.7381 23.8063 47.7381C36.9516 47.7381 47.6126 37.049 47.6126 23.8691C47.6126 23.3962 47.5958 22.9319 47.5705 22.4675H42.9137C42.9474 22.9319 42.9642 23.3962 42.9642 23.8691C42.9642 34.4738 34.3916 43.0774 23.8063 43.0774C13.2211 43.0774 4.64842 34.4738 4.64842 23.8691C4.64842 13.2643 13.2211 4.66067 23.8063 4.66067C30.0295 4.66067 35.5537 7.6327 39.0484 12.2427H35.04V17.3171H42.6189V17.3846H47.68Z" fill="#50E6FF"/>
</svg>
