<svg data-slug-id="dollar-circle-light" xmlns="http://www.w3.org/2000/svg" viewBox="0 0 48 48">
    <path d="M27.3094 28.8752C27.3094 27.8873 26.5852 27.0683 25.1283 26.4267V31.062C26.5852 30.8256 27.3094 30.0995 27.3094 28.8752ZM22.9052 21.2678V16.4214C21.4904 16.6747 20.7831 17.4177 20.7831 18.642C20.7831 19.7058 21.4904 20.5839 22.9052 21.2678ZM31.3683 28.6641C31.3683 30.3528 30.8378 31.7206 29.7768 32.7422C28.7157 33.7723 27.1662 34.4055 25.1368 34.6335V37.9517H22.9052V34.7264C20.8083 34.7095 18.8883 34.2367 17.1452 33.3163V29.0863C17.6925 29.5338 18.5683 29.9728 19.7725 30.395C20.9768 30.8171 22.021 31.062 22.9052 31.1211V25.557C20.6568 24.7211 19.0652 23.8092 18.1304 22.8129C17.1957 21.8166 16.7241 20.5164 16.7241 18.8953C16.7241 17.2742 17.2968 15.9064 18.4504 14.7919C19.5957 13.6773 21.0862 13.0272 22.9052 12.8415V9.99609H25.1283V12.7739C27.2757 12.8752 28.8757 13.2214 29.9283 13.8124V17.9412C28.5136 17.0884 26.9136 16.5565 25.1283 16.3539V22.1459C27.3768 22.9649 28.9768 23.8768 29.9283 24.8984C30.8883 25.9201 31.3683 27.1781 31.3683 28.6641Z" fill="#0078D4"/>
    <path d="M47.9661 17.6464V4.98149H42.9051V9.51552C38.5514 3.88387 31.7388 0.261719 24.0925 0.261719C10.9388 0.261719 0.286133 10.9424 0.286133 24.1308C0.286133 37.3191 10.9472 47.9998 24.0925 47.9998C37.2377 47.9998 47.8988 37.3107 47.8988 24.1308C47.8988 23.658 47.8819 23.1936 47.8567 22.7292H43.1998C43.2335 23.1936 43.2503 23.658 43.2503 24.1308C43.2503 34.7355 34.6777 43.3392 24.0925 43.3392C13.5072 43.3392 4.93455 34.7355 4.93455 24.1308C4.93455 13.5261 13.5072 4.92239 24.0925 4.92239C30.3156 4.92239 35.8398 7.89442 39.3346 12.5044H35.3261V17.5788H42.9051V17.6464H47.9661Z" fill="#50E6FF"/>
</svg>
