<svg data-slug-id="easy-glyph" xmlns="http://www.w3.org/2000/svg" viewBox="0 0 48 48">
    <path d="M20.7536 28.2414L23.9355 31.4233L41.5982 13.7607L38.4162 10.5787L20.7536 28.2414Z" fill="#50E6FF"/>
    <path d="M23.8903 31.3814L27.0723 28.1995L16.996 18.1232L13.814 21.3052L23.8903 31.3814Z" fill="#50E6FF"/>
    <path d="M24 48C17.6348 48 11.5303 45.4714 7.02944 40.9706C2.52856 36.4697 0 30.3652 0 24C0 17.6348 2.52856 11.5303 7.02944 7.02944C11.5303 2.52856 17.6348 0 24 0V4.5C20.1433 4.5 16.3731 5.64366 13.1664 7.78634C9.95962 9.92903 7.46026 12.9745 5.98435 16.5377C4.50844 20.1008 4.12228 24.0216 4.87469 27.8043C5.6271 31.5869 7.48429 35.0615 10.2114 37.7886C12.9385 40.5157 16.4131 42.3729 20.1957 43.1253C23.9784 43.8777 27.8992 43.4916 31.4623 42.0156C35.0255 40.5397 38.071 38.0404 40.2137 34.8336C42.3563 31.6269 43.5 27.8567 43.5 24H48C48 30.3652 45.4714 36.4697 40.9706 40.9706C36.4697 45.4714 30.3652 48 24 48V48Z" fill="#0078D4"/>
</svg>
