<svg data-slug-id="eight-point-connection" xmlns="http://www.w3.org/2000/svg" viewBox="0 0 145 145">
	<path d="M136.856 64.2261C133.222 64.2261 130.195 66.7998 129.463 70.2061H15.6406C14.9088 66.7998 11.881 64.2261 8.24754 64.2261C4.08424 64.2261 0.703125 67.6072 0.703125 71.7705C0.703125 75.9338 4.08424 79.3149 8.24754 79.3149C11.6539 79.3149 14.5304 77.0692 15.4639 73.9657H129.614C130.573 77.0692 133.45 79.3149 136.831 79.3149C140.994 79.3149 144.375 75.9338 144.375 71.7705C144.426 67.6072 141.019 64.2261 136.856 64.2261Z" fill="#0078D4"/>
	<path d="M121.59 15.2534C117.427 15.2534 114.045 18.6345 114.045 22.7978C114.045 24.2613 114.449 25.5986 115.156 26.7593L71.1255 70.7894L73.8001 73.464L117.881 29.3834C118.966 30.0142 120.253 30.3675 121.59 30.3675C125.753 30.3675 129.134 26.9864 129.134 22.8231C129.159 18.6345 125.753 15.2534 121.59 15.2534Z" fill="#50E6FF"/>
	<path d="M68.9047 73.0093L27.2969 114.617C26.1614 113.936 24.8241 113.532 23.4111 113.532C19.2478 113.532 15.8667 116.913 15.8667 121.077C15.8667 125.24 19.2478 128.621 23.4111 128.621C27.5744 128.621 30.9555 125.24 30.9555 121.077C30.9555 119.714 30.5771 118.427 29.9463 117.317L71.5793 75.6839L68.9047 73.0093Z" fill="#50E6FF"/>
	<path d="M121.666 113.684C120.303 113.684 119.042 114.037 117.957 114.668L29.8966 26.6079C30.5526 25.4977 30.9311 24.1856 30.9311 22.7978C30.9311 18.6345 27.55 15.2534 23.3867 15.2534C19.2234 15.2534 15.8423 18.6345 15.8423 22.7978C15.8423 26.9611 19.2234 30.3423 23.3867 30.3423C24.7997 30.3423 26.1118 29.9638 27.2472 29.2825L115.257 117.292C114.551 118.453 114.147 119.79 114.147 121.254C114.147 125.417 117.528 128.798 121.691 128.798C125.855 128.798 129.236 125.417 129.236 121.254C129.21 117.09 125.829 113.684 121.666 113.684Z" fill="#50E6FF"/>
	<path d="M74.5571 129.051V15.1778C77.7868 14.3199 80.1587 11.3678 80.1587 7.88573C80.1587 3.72242 76.7775 0.341309 72.6142 0.341309C68.4509 0.341309 65.0698 3.72242 65.0698 7.88573C65.0698 11.4182 67.5173 14.3956 70.7975 15.2283V129.025C67.5173 129.833 65.0698 132.81 65.0698 136.368C65.0698 140.531 68.4509 143.912 72.6142 143.912C76.7775 143.912 80.1587 140.531 80.1587 136.368C80.1587 132.861 77.7868 129.908 74.5571 129.051Z" fill="#0078D4"/>
	<path d="M87.6031 71.723C87.6031 80.0748 80.8409 86.837 72.4891 86.837C64.1372 86.837 57.375 80.0748 57.375 71.723C57.375 63.3711 64.1372 56.6089 72.4891 56.6089C80.8409 56.6089 87.6031 63.3711 87.6031 71.723Z" fill="#50E6FF"/>
</svg>
