<svg data-slug-id="encrypt-data" xmlns="http://www.w3.org/2000/svg" viewBox="0 0 49 48">
    <path d="M5.05361 15.1602C3.7148 15.1642 2.43196 15.6978 1.48528 16.6445C0.538588 17.5911 0.00497503 18.874 0.000976562 20.2128V30.3181H10.1062V20.2128C10.1022 18.874 9.56863 17.5911 8.62194 16.6445C7.67525 15.6978 6.39242 15.1642 5.05361 15.1602ZM5.05361 26.5286C4.80378 26.5286 4.55956 26.4545 4.35183 26.3157C4.14411 26.1769 3.98221 25.9796 3.8866 25.7488C3.791 25.518 3.76598 25.264 3.81472 25.019C3.86346 24.774 3.98376 24.5489 4.16042 24.3722C4.33708 24.1956 4.56215 24.0753 4.80718 24.0265C5.05221 23.9778 5.30619 24.0028 5.537 24.0984C5.76781 24.194 5.96509 24.3559 6.10389 24.5636C6.24268 24.7714 6.31677 25.0156 6.31677 25.2654C6.31677 25.6004 6.18368 25.9217 5.9468 26.1586C5.70991 26.3955 5.38862 26.5286 5.05361 26.5286ZM2.52729 20.2128C2.52729 19.5428 2.79346 18.9002 3.26723 18.4264C3.74101 17.9526 4.38359 17.6865 5.05361 17.6865C5.72363 17.6865 6.36621 17.9526 6.83998 18.4264C7.31376 18.9002 7.57992 19.5428 7.57992 20.2128H2.52729Z" fill="#0078D4"/>
    <path d="M37.896 12.6289H15.1592V36.6289H37.896V12.6289Z" fill="#50E6FF"/>
    <path d="M35.1027 22.9946L33.1002 24.998L30.317 22.2157L25.2644 27.2675V14.6367L17.1625 22.7386H12.6328V25.2649H18.2084L22.7381 20.7352V33.3668L30.317 25.7879L33.1002 28.571L36.1494 25.5209H42.9486V22.9946H35.1027Z" fill="#0078D4"/>
    <path d="M35.3696 34.1044C36.0672 34.1044 36.6328 33.5389 36.6328 32.8413C36.6328 32.1437 36.0672 31.5781 35.3696 31.5781C34.672 31.5781 34.1064 32.1437 34.1064 32.8413C34.1064 33.5389 34.672 34.1044 35.3696 34.1044Z" fill="#0078D4"/>
    <path d="M30.3169 34.1044C31.0145 34.1044 31.58 33.5389 31.58 32.8413C31.58 32.1437 31.0145 31.5781 30.3169 31.5781C29.6192 31.5781 29.0537 32.1437 29.0537 32.8413C29.0537 33.5389 29.6192 34.1044 30.3169 34.1044Z" fill="#0078D4"/>
    <path d="M5.05371 0V12.6316H10.1063V5.05263H42.9484V42.9474H10.1063V32.8421H5.05371V48H48.0011V0H5.05371Z" fill="#0078D4"/>
</svg>
