<svg data-slug-id="equalizer" xmlns="http://www.w3.org/2000/svg" viewBox="0 0 48 49">
  <path d="M5.05267 0H0V5.05267H5.05267V0Z" fill="#50E6FF"/>
  <path d="M5.05267 7.16016H0V12.2128H5.05267V7.16016Z" fill="#50E6FF"/>
  <path d="M26.5273 7.16016H21.4746V12.2128H26.5273V7.16016Z" fill="#0078D4"/>
  <path d="M33.6835 7.16016H28.6309V12.2128H33.6835V7.16016Z" fill="#50E6FF"/>
  <path d="M5.05267 14.3164H0V19.3691H5.05267V14.3164Z" fill="#50E6FF"/>
  <path d="M26.5273 14.3164H21.4746V19.3691H26.5273V14.3164Z" fill="#0078D4"/>
  <path d="M33.6835 14.3164H28.6309V19.3691H33.6835V14.3164Z" fill="#50E6FF"/>
  <path d="M5.05267 21.4727H0V26.5253H5.05267V21.4727Z" fill="#50E6FF"/>
  <path d="M12.2109 21.4727H7.1582V26.5253H12.2109V21.4727Z" fill="#0078D4"/>
  <path d="M19.3691 21.4727H14.3164V26.5253H19.3691V21.4727Z" fill="#50E6FF"/>
  <path d="M26.5273 21.4727H21.4746V26.5253H26.5273V21.4727Z" fill="#0078D4"/>
  <path d="M33.6835 21.4727H28.6309V26.5253H33.6835V21.4727Z" fill="#50E6FF"/>
  <path d="M5.05267 28.6328H0V33.6855H5.05267V28.6328Z" fill="#50E6FF"/>
  <path d="M12.2109 28.6328H7.1582V33.6855H12.2109V28.6328Z" fill="#0078D4"/>
  <path d="M19.3691 28.6328H14.3164V33.6855H19.3691V28.6328Z" fill="#50E6FF"/>
  <path d="M26.5273 28.6328H21.4746V33.6855H26.5273V28.6328Z" fill="#0078D4"/>
  <path d="M33.6835 28.6328H28.6309V33.6855H33.6835V28.6328Z" fill="#50E6FF"/>
  <path d="M5.05267 35.7891H0V40.8417H5.05267V35.7891Z" fill="#50E6FF"/>
  <path d="M12.2109 35.7891H7.1582V40.8417H12.2109V35.7891Z" fill="#0078D4"/>
  <path d="M19.3691 35.7891H14.3164V40.8417H19.3691V35.7891Z" fill="#50E6FF"/>
  <path d="M26.5273 35.7891H21.4746V40.8417H26.5273V35.7891Z" fill="#0078D4"/>
  <path d="M33.6835 35.7891H28.6309V40.8417H33.6835V35.7891Z" fill="#50E6FF"/>
  <path d="M40.8417 35.7891H35.7891V40.8417H40.8417V35.7891Z" fill="#0078D4"/>
  <path d="M47.9999 35.7891H42.9473V40.8417H47.9999V35.7891Z" fill="#50E6FF"/>
  <path d="M5.05267 42.9492H0V48.0019H5.05267V42.9492Z" fill="#50E6FF"/>
  <path d="M12.2109 42.9492H7.1582V48.0019H12.2109V42.9492Z" fill="#0078D4"/>
  <path d="M19.3691 42.9492H14.3164V48.0019H19.3691V42.9492Z" fill="#50E6FF"/>
  <path d="M26.5273 42.9492H21.4746V48.0019H26.5273V42.9492Z" fill="#0078D4"/>
  <path d="M33.6835 42.9492H28.6309V48.0019H33.6835V42.9492Z" fill="#50E6FF"/>
  <path d="M40.8417 42.9492H35.7891V48.0019H40.8417V42.9492Z" fill="#0078D4"/>
  <path d="M47.9999 42.9492H42.9473V48.0019H47.9999V42.9492Z" fill="#50E6FF"/>
</svg>
