<svg data-slug-id="event-grid" xmlns="http://www.w3.org/2000/svg"  viewBox="0 0 18 18">
  <defs>
    <linearGradient id="event-grid:a20547e5-d6af-456b-afbc-05d22ff8cb9d" x1="4589.72" y1="-5180.02" x2="4589.72" y2="-5184.21" gradientTransform="matrix(0.5, 0, 0, -0.5, -2275.31, -2589.32)" gradientUnits="userSpaceOnUse">
      <stop offset="0" stop-color="#c69aeb"/>
      <stop offset="1" stop-color="#6f4bb2"/>
    </linearGradient>
    <linearGradient id="event-grid:a4745f51-5e75-4126-812d-6bb8a5130e16" x1="4587.99" y1="-5188.47" x2="4587.99" y2="-5192.65" href="#event-grid:a20547e5-d6af-456b-afbc-05d22ff8cb9d"/>
  </defs>
   
  
      <path d="M12.7,8.15v-.6H8.18L6.06,9.66H4.5L8.12,6h2.47V5.43H7.87L3.65,9.66h-.6v.6H4.86L7,12.37H12.1v-.6H7.22L5.71,10.26H9.38v-.6H6.92l1.5-1.51Z" fill="#32bedd"/>
      <circle cx="9.98" cy="9.96" r="0.87" fill="#fff"/>
      <circle cx="10.89" cy="5.74" r="0.87" fill="#fff"/>
      <circle cx="13" cy="7.85" r="0.87" fill="#fff"/>
      <circle cx="12.1" cy="12.07" r="0.87" fill="#fff"/>
      <circle cx="10.86" cy="5.74" r="1.05" fill="#50e6ff"/>
      <circle cx="12.97" cy="7.85" r="1.05" fill="url(#event-grid:a20547e5-d6af-456b-afbc-05d22ff8cb9d)"/>
      <circle cx="12.1" cy="12.07" r="1.05" fill="url(#event-grid:a4745f51-5e75-4126-812d-6bb8a5130e16)"/>
      <circle cx="9.98" cy="9.96" r="1.05" fill="#50e6ff"/>
      
        <path d="M1.07,1.43H2.36a0,0,0,0,1,0,0V5a.29.29,0,0,1-.29.29H.79A.29.29,0,0,1,.5,5V2A.57.57,0,0,1,1.07,1.43Z" fill="#999"/>
        <path d="M1.07,1.43H2.36a0,0,0,0,1,0,0V5a.29.29,0,0,1-.29.29H.79A.29.29,0,0,1,.5,5V2A.57.57,0,0,1,1.07,1.43Z" fill="#999" opacity="0.5"/>
      
      
        <path d="M15.64,1.43h1.29A.57.57,0,0,1,17.5,2V5a.29.29,0,0,1-.29.29H15.92A.29.29,0,0,1,15.64,5V1.43A0,0,0,0,1,15.64,1.43Z" fill="#999"/>
        <path d="M15.64,1.43h1.29A.57.57,0,0,1,17.5,2V5a.29.29,0,0,1-.29.29H15.92A.29.29,0,0,1,15.64,5V1.43A0,0,0,0,1,15.64,1.43Z" fill="#999" opacity="0.5"/>
      
      <path d="M8.66-6.16H9.91a0,0,0,0,1,0,0v17a0,0,0,0,1,0,0H8.66a.57.57,0,0,1-.57-.57V-5.6A.57.57,0,0,1,8.66-6.16Z" transform="translate(11.34 -6.66) rotate(90)" fill="#949494"/>
      
        <path d="M.79,12.68H2.08a.29.29,0,0,1,.29.29v3.6a0,0,0,0,1,0,0H1.07A.57.57,0,0,1,.5,16V13A.29.29,0,0,1,.79,12.68Z" fill="#999"/>
        <path d="M.79,12.68H2.08a.29.29,0,0,1,.29.29v3.6a0,0,0,0,1,0,0H1.07A.57.57,0,0,1,.5,16V13A.29.29,0,0,1,.79,12.68Z" fill="#999" opacity="0.5"/>
      
      
        <path d="M15.92,12.68h1.29a.29.29,0,0,1,.29.29v3a.57.57,0,0,1-.57.57H15.64a0,0,0,0,1,0,0V13A.29.29,0,0,1,15.92,12.68Z" fill="#999"/>
        <path d="M15.92,12.68h1.29a.29.29,0,0,1,.29.29v3a.57.57,0,0,1-.57.57H15.64a0,0,0,0,1,0,0V13A.29.29,0,0,1,15.92,12.68Z" fill="#999" opacity="0.5"/>
      
      <path d="M8.66,7.16H9.91a0,0,0,0,1,0,0v17a0,0,0,0,1,0,0H8.66a.57.57,0,0,1-.57-.57V7.73A.57.57,0,0,1,8.66,7.16Z" transform="translate(-6.66 24.66) rotate(-90)" fill="#949494"/>
    
</svg>
