<svg data-slug-id="events-alt" viewBox="0 0 48 48" xmlns="http://www.w3.org/2000/svg">
<path d="M1 46.9998H47.0001V5.30859H1V46.9998Z" fill="#0078D4"/>
<path d="M1 5.89061H47.0001V1H1V5.89061Z" fill="#50E6FF"/>
<path d="M11.7896 34.7734H6.97168V39.5914H11.7896V34.7734Z" fill="#50E6FF"/>
<path d="M19.0772 34.7734H14.2593V39.5914H19.0772V34.7734Z" fill="#50E6FF"/>
<path d="M26.3321 34.7734H21.5142V39.5914H26.3321V34.7734Z" fill="#50E6FF"/>
<path d="M33.5791 34.7734H28.7612V39.5914H33.5791V34.7734Z" fill="white"/>
<path d="M40.8667 34.7734H36.0488V39.5914H40.8667V34.7734Z" fill="#50E6FF"/>
<path d="M11.7896 27.5273H6.97168V32.3453H11.7896V27.5273Z" fill="#50E6FF"/>
<path d="M19.0772 27.5273H14.2593V32.3453H19.0772V27.5273Z" fill="white"/>
<path d="M26.3321 27.5273H21.5142V32.3453H26.3321V27.5273Z" fill="#50E6FF"/>
<path d="M33.5791 27.5273H28.7612V32.3453H33.5791V27.5273Z" fill="#50E6FF"/>
<path d="M40.8667 27.5273H36.0488V32.3453H40.8667V27.5273Z" fill="#50E6FF"/>
<path d="M11.7896 20.2773H6.97168V25.0953H11.7896V20.2773Z" fill="#50E6FF"/>
<path d="M19.0772 20.2773H14.2593V25.0953H19.0772V20.2773Z" fill="#50E6FF"/>
<path d="M26.3321 20.2773H21.5142V25.0953H26.3321V20.2773Z" fill="white"/>
<path d="M33.5791 20.2773H28.7612V25.0953H33.5791V20.2773Z" fill="#50E6FF"/>
<path d="M40.8667 20.2773H36.0488V25.0953H40.8667V20.2773Z" fill="#50E6FF"/>
<path d="M11.7896 13.0742H6.97168V17.8922H11.7896V13.0742Z" fill="white"/>
<path d="M19.0772 13.0742H14.2593V17.8922H19.0772V13.0742Z" fill="#50E6FF"/>
<path d="M26.3321 13.0742H21.5142V17.8922H26.3321V13.0742Z" fill="#50E6FF"/>
<path d="M33.5791 13.0742H28.7612V17.8922H33.5791V13.0742Z" fill="#50E6FF"/>
<path d="M40.8667 13.0742H36.0488V17.8922H40.8667V13.0742Z" fill="#50E6FF"/>
</svg>
