<svg data-slug-id="expand" xmlns="http://www.w3.org/2000/svg" viewBox="0 0 49 49">
  <path d="M42.539 2.82935L46.139 6.42185L26.5391 26.0309L22.9391 22.4384L42.539 2.82935Z" fill="#0078D4"/>
  <path d="M26.7891 22.8883L9.18917 5.32497H15.8891V0.235596H0.739209H0.689209V15.354H5.78919V9.16695L23.1891 26.5307L26.7891 22.8883Z" fill="#50E6FF"/>
  <path d="M26.7891 25.7304L23.1891 22.1379L5.78919 39.5017V33.0152H0.689209V48.1337V48.1836H15.8391V43.0942H9.38917L26.7891 25.7304Z" fill="#50E6FF"/>
  <path d="M48.6886 15.4039V0.285492V0.235596H33.5387V5.32497H43.5886V15.4039H48.6886Z" fill="#0078D4"/>
  <path d="M43.5893 33.0662V39.6524L26.5394 22.6379L22.8894 26.2304L39.7893 43.0952H33.4894V48.1846H48.6393H48.6893V33.0662H43.5893Z" fill="#50E6FF"/>
</svg>
