<svg data-slug-id="factory-signal" xmlns="http://www.w3.org/2000/svg" viewBox="0 0 48 48">
	<path d="M23.8988 2.59558C25.9121 2.59558 27.8075 3.37929 29.2312 4.80345L31.0002 3.03379C29.0374 1.0703 26.4681 0.0927734 23.8988 0.0927734C21.3295 0.0927734 18.7602 1.0703 16.7974 3.03379L18.5664 4.80345C19.9901 3.38772 21.8855 2.59558 23.8988 2.59558Z" fill="#0078D4"/>
	<path d="M23.899 7.72742C24.5477 7.72742 25.1542 7.98023 25.6091 8.43528L27.3782 6.66562C26.4178 5.70495 25.1542 5.22461 23.899 5.22461C22.6439 5.22461 21.3803 5.70495 20.4199 6.66562L22.189 8.43528C22.6439 7.9718 23.2504 7.72742 23.899 7.72742Z" fill="#0078D4"/>
	<path d="M47.8484 27.5981H38.2534V47.8819H47.8484V27.5981Z" fill="#0078D4"/>
	<path d="M0.176758 27.5981V47.7217H14.5734V41.9914H22.0034V47.7217H38.2533V27.5981H0.176758Z" fill="#50E6FF"/>
	<path d="M14.4134 11.0308H8.99675L8.68506 15.2105L14.7251 15.3622L14.4134 11.0308Z" fill="#50E6FF"/>
	<path d="M8.69357 15.2104L8.07861 27.5981H15.357L14.742 15.3706L8.69357 15.2104Z" fill="#0078D4"/>
	<path d="M7.7584 33.4805H5.28174V35.958H7.7584V33.4805Z" fill="#0078D7"/>
	<path d="M14.1104 33.4805H11.6338V35.958H14.1104V33.4805Z" fill="#0078D7"/>
	<path d="M33.2999 33.4805H30.8232V35.958H33.2999V33.4805Z" fill="#0078D7"/>
	<path d="M26.9566 33.4805H24.48V35.958H26.9566V33.4805Z" fill="#0078D7"/>
	<path d="M20.6051 33.4805H18.1284V35.958H20.6051V33.4805Z" fill="#0078D7"/>
	<path d="M26.7966 11.0308H21.2283L21.0767 15.2105L27.1167 15.3622L26.7966 11.0308Z" fill="#50E6FF"/>
	<path d="M21.0685 15.2104L20.2935 27.5981H27.7234L27.1085 15.3706L21.0685 15.2104Z" fill="#0078D4"/>
	<path d="M39.1803 11.0308H33.612L33.3003 15.2105L39.3403 15.3622L39.1803 11.0308Z" fill="#50E6FF"/>
	<path d="M33.3 15.2104L32.6851 27.5981H40.115L39.34 15.3706L33.3 15.2104Z" fill="#0078D4"/>
</svg>
