<svg data-slug-id="falling-grid" xmlns="http://www.w3.org/2000/svg" viewBox="0 0 48 48">
    <path d="M10.1251 37.875H0.0339355V47.9661H10.1251V37.875Z" fill="#50E6FF"/>
    <path d="M22.7386 37.875H12.6475V47.9661H22.7386V37.875Z" fill="#50E6FF"/>
    <path d="M35.3523 37.875H25.2612V47.9661H35.3523V37.875Z" fill="#50E6FF"/>
    <path d="M47.9661 37.875H37.875V47.9661H47.9661V37.875Z" fill="#50E6FF"/>
    <path d="M10.1251 25.2617H0.0339355V35.3528H10.1251V25.2617Z" fill="#50E6FF"/>
    <path d="M22.7386 25.2617H12.6475V35.3528H22.7386V25.2617Z" fill="#50E6FF"/>
    <path d="M35.3523 25.2617H25.2612V35.3528H35.3523V25.2617Z" fill="#50E6FF"/>
    <path d="M47.9661 25.2617H37.875V35.3528H47.9661V25.2617Z" fill="#50E6FF"/>
    <path d="M22.7386 7.60156H12.6475V17.6927H22.7386V7.60156Z" fill="#50E6FF"/>
    <path d="M10.1251 5.078H0.0339355V15.1691H10.1251V5.078Z" fill="#50E6FF"/>
    <path d="M35.3523 10.125H25.2612V20.2161H35.3523V10.125Z" fill="#50E6FF"/>
    <path d="M47.9661 12.6484H37.875V22.7396H47.9661V12.6484Z" fill="#50E6FF"/>
</svg>
