<svg data-slug-id="file-sync" viewBox="0 0 49 49" xmlns="http://www.w3.org/2000/svg">
    <path d="M48.1151 0.463989H32.9811L22.917 10.5516V13.1491H26.1372C27.1293 13.1491 27.928 13.9477 27.928 14.9397V33.1898H48.1067V0.463989H48.1151Z" fill="#0078D7"/>
    <path d="M22.8831 10.5691L32.9976 0.456299V10.5691H22.8831Z" fill="#50E6FF"/>
    <path d="M4.41965 15.5035C3.99926 15.5035 3.65454 15.1672 3.65454 14.7385V10.1991C3.65454 6.81135 6.41229 4.05408 9.80063 4.05408H18.5615C18.9819 4.05408 19.3266 4.39033 19.3266 4.81905C19.3266 5.23937 18.9819 5.58403 18.5615 5.58403H9.80904C7.26148 5.58403 5.18476 7.66038 5.18476 10.2075V14.7469C5.18476 15.1672 4.84004 15.5035 4.41965 15.5035Z" fill="#0078D7"/>
    <path d="M17.9646 2.94458L21.0671 4.94528L17.9646 6.93758V2.94458Z" fill="#0078D7"/>
    <path d="M43.8521 35.804C44.2725 35.804 44.6172 36.1402 44.6172 36.5689V38.8386C44.6172 42.2264 41.8594 44.9836 38.4711 44.9836H32.9892C32.5688 44.9836 32.2241 44.6474 32.2241 44.2187C32.2241 43.7899 32.5688 43.4537 32.9892 43.4537H38.4711C41.0187 43.4537 43.0954 41.3773 43.0954 38.8302V36.5605C43.087 36.1402 43.4317 35.804 43.8521 35.804Z" fill="#0078D7"/>
    <path d="M33.5862 46.094L30.4922 44.1017L33.5947 42.101V46.094H33.5862Z" fill="#0078D7"/>
    <path d="M25.3635 15.7141H10.2379L0.173828 25.8017V48.4315H25.3635V15.7141Z" fill="#0078D7"/>
    <path d="M0.140137 25.8092L10.2547 15.6964V25.8092H0.140137Z" fill="#50E6FF"/>
    <path d="M17.7549 27.3235L10.1152 34.9632L7.82756 32.672L6.30249 34.2007L10.1152 38.0134L19.2836 28.8486L17.7549 27.3235Z" fill="#50E6FF"/>
</svg>
