<svg data-slug-id="four-blocks-targeted" xmlns="http://www.w3.org/2000/svg" viewBox="0 0 48 48">
	<path d="M27.7891 25.2656H17.6836V42.9502H27.7891V25.2656Z" fill="#50E6FF"/>
	<path d="M15.1582 12.6328H5.05273V30.3174H15.1582V12.6328Z" fill="#50E6FF"/>
	<path d="M40.4219 20.2109H30.3164V37.8955H40.4219V20.2109Z" fill="#50E6FF"/>
	<path d="M27.7891 5.05469H17.6836V22.7392H27.7891V5.05469Z" fill="#50E6FF"/>
	<path d="M0 0V5.05273V10.1055H5.05273V5.05273H10.1055V0H5.05273H0Z" fill="#0078D4"/>
	<path d="M42.9473 0H37.8945V5.05273H42.9473V10.1055H48V5.05273V0H42.9473Z" fill="#0078D4"/>
	<path d="M5.05273 37.8945H0V42.9473V48H5.05273H10.1055V42.9473H5.05273V37.8945Z" fill="#0078D4"/>
	<path d="M42.9473 42.9473H37.8945V48H42.9473H48V42.9473V37.8945H42.9473V42.9473Z" fill="#0078D4"/>
</svg>
