<svg data-slug-id="four-blue-squares" xmlns="http://www.w3.org/2000/svg" viewBox="0 0 49 49">
    <path d="M3.3728 20.8443H21.1006V3.08218H3.3728V20.8443V20.8443Z" fill="#0078D4"/>
    <path d="M28.8167 20.8443H46.5444V3.08218H28.8167V20.8443V20.8443Z" fill="#0078D4"/>
    <path d="M3.3728 46.2076H21.1006V28.4455H3.3728V46.2076V46.2076Z" fill="#0078D4"/>
    <path d="M28.8167 46.2076H46.5444V28.4455H28.8167V46.2076V46.2076Z" fill="#0078D4"/>
    <path d="M38.2629 38.0131H11.5784V11.2853H38.2629V38.0131ZM12.8446 36.7443H36.9966V12.554H12.8446V36.7443Z" fill="#50E6FF"/>
    <path d="M40.1033 37.4614C40.1033 38.8739 38.9552 40.0242 37.5454 40.0242C36.1356 40.0242 34.9875 38.8739 34.9875 37.4614C34.9875 36.0489 36.1356 34.8986 37.5454 34.8986C38.9552 34.8986 40.1033 36.0489 40.1033 37.4614Z" fill="#50E6FF"/>
    <path d="M14.8958 37.3794C14.8958 38.7919 13.7477 39.9422 12.3379 39.9422C10.9281 39.9422 9.78003 38.7919 9.78003 37.3794C9.78003 35.9669 10.9281 34.8166 12.3379 34.8166C13.7477 34.8166 14.8958 35.9669 14.8958 37.3794Z" fill="#50E6FF"/>
    <path d="M14.8958 11.8677C14.8958 13.2802 13.7477 14.4305 12.3379 14.4305C10.9281 14.4305 9.78003 13.2802 9.78003 11.8677C9.78003 10.4551 10.9281 9.30484 12.3379 9.30484C13.7477 9.30484 14.8958 10.4551 14.8958 11.8677Z" fill="#50E6FF"/>
    <path d="M40.1033 11.8677C40.1033 13.2802 38.9552 14.4305 37.5454 14.4305C36.1356 14.4305 34.9875 13.2802 34.9875 11.8677C34.9875 10.4551 36.1356 9.30484 37.5454 9.30484C38.9552 9.30484 40.1033 10.4551 40.1033 11.8677Z" fill="#50E6FF"/>
</svg>
