<svg data-slug-id="frame-panels" viewBox="0 0 48 48" xmlns="http://www.w3.org/2000/svg">
    <path d="M27.789 25.2657H17.6836V42.9502H27.789V25.2657Z" fill="#0078D4"/>
    <path d="M15.1581 12.6328H5.05273V30.3173H15.1581V12.6328Z" fill="#0078D4"/>
    <path d="M40.4218 20.2109H30.3164V37.8954H40.4218V20.2109Z" fill="#0078D4"/>
    <path d="M27.789 5.05466H17.6836V22.7392H27.789V5.05466Z" fill="#0078D4"/>
    <path d="M0.000244141 6.10352e-05V5.05279V10.1055H5.05295V5.05279H10.1057V6.10352e-05H5.05295H0.000244141Z" fill="#50E6FF"/>
    <path d="M42.9472 0H37.8945V5.05273H42.9472V10.1055H47.9999V5.05273V0H42.9472Z" fill="#50E6FF"/>
    <path d="M5.05271 37.8944H0V42.9472V47.9999H5.05271H10.1054V42.9472H5.05271V37.8944Z" fill="#50E6FF"/>
    <path d="M42.9472 42.9472H37.8945V47.9999H42.9472H47.9999V42.9472V37.8944H42.9472V42.9472Z" fill="#50E6FF"/>
</svg>
