<svg data-slug-id="frame-identity" xmlns="http://www.w3.org/2000/svg" viewBox="0 0 48 48">
    <path d="M35.7922 0.00012207H48.0001V12.1959H42.9486V5.04665H35.7922V0.00012207Z" fill="#0078D4"/>
    <path d="M5.05154 12.1958H0V0H12.2079V5.04652H5.05154V12.1958Z" fill="#0078D4"/>
    <path d="M42.9483 35.8043H47.9999V48H35.792V42.9535H42.9483V35.8043Z" fill="#0078D4"/>
    <path d="M0.000488281 48V35.8043H5.05203V42.9535H12.2084V48H0.000488281Z" fill="#0078D4"/>
    <path d="M9.6875 40.7894C9.6875 32.7885 16.1638 26.3187 24.1726 26.3187C32.1814 26.3187 38.6577 32.7885 38.6577 40.7894H9.6875Z" fill="#50E6FF"/>
    <path d="M32.2651 14.3072C32.2651 18.7742 28.6333 22.4024 24.1618 22.4024C19.6904 22.4024 16.0586 18.7742 16.0586 14.3072C16.0586 9.84014 19.6904 6.21198 24.1618 6.21198C28.6333 6.21198 32.2651 9.84014 32.2651 14.3072Z" fill="#50E6FF"/>
</svg>
