<svg data-slug-id="free-account" xmlns="http://www.w3.org/2000/svg" viewBox="0 0 72 56">
    <path fill-rule="evenodd" clip-rule="evenodd" d="M65.6615 42.6828H65.5391C66.0678 41.3686 66.3658 39.936 66.3658 38.4316C66.3658 32.1707 61.321 27.0953 55.0974 27.0953C53.7783 27.0953 52.5176 27.3349 51.3409 27.7537C48.2427 23.8973 43.5078 21.4269 38.1948 21.4269C28.86 21.4269 21.2923 29.0402 21.2923 38.4316C21.2923 39.9073 21.4987 41.3319 21.8503 42.6976C18.4188 42.7779 15.6581 45.5884 15.6581 49.0595C15.6581 52.5811 18.4958 55.4363 21.9965 55.4363H65.6615C69.1623 55.4363 72 52.5811 72 49.0595C72 45.538 69.1623 42.6828 65.6615 42.6828Z" fill="#0078D4"/>
    <g style="mix-blend-mode:multiply">
        <path fill-rule="evenodd" clip-rule="evenodd" d="M25.753 9.03503C25.753 14.0249 21.6021 18.0701 16.4819 18.0701C11.3617 18.0701 7.21078 14.0249 7.21078 9.03503C7.21078 4.04518 11.3617 0 16.4819 0C21.6021 0 25.753 4.04518 25.753 9.03503Z" fill="#50E6FF"/>
        <path fill-rule="evenodd" clip-rule="evenodd" d="M16.4819 22.0856H16.4825C25.5851 22.0856 32.9644 29.277 32.9644 38.1479V40.1556H0V38.1479C0 29.277 7.37927 22.0856 16.4819 22.0856Z" fill="#50E6FF"/>
    </g>
    <rect x="45.2656" y="35.8711" width="2.08674" height="11.8655" fill="white"/>
    <rect x="52.2213" y="40.7568" width="2.09391" height="11.8248" transform="rotate(90 52.2213 40.7568)" fill="white"/>
</svg>
