<svg data-slug-id="function07" viewBox="0 0 49 49" xmlns="http://www.w3.org/2000/svg">
<path d="M45.4595 22.207C44.2483 22.207 43.239 23.0649 42.9951 24.2004H5.05434C4.81043 23.0649 3.80115 22.207 2.59 22.207C1.20223 22.207 0.0751953 23.3341 0.0751953 24.7218C0.0751953 26.1096 1.20223 27.2366 2.59 27.2366C3.72545 27.2366 4.68427 26.4881 4.99547 25.4536H43.0456C43.3652 26.4881 44.324 27.2366 45.451 27.2366C46.8388 27.2366 47.9659 26.1096 47.9659 24.7218C47.9827 23.3341 46.8472 22.207 45.4595 22.207Z" fill="#0078D4"/>
<path d="M40.3698 5.88281C38.982 5.88281 37.855 7.00985 37.855 8.39762C37.855 8.88544 37.9896 9.33121 38.2251 9.7181L23.5483 24.3948L24.4399 25.2864L39.1334 10.5928C39.4951 10.8031 39.924 10.9208 40.3698 10.9208C41.7576 10.9208 42.8846 9.7938 42.8846 8.40603C42.893 7.00985 41.7576 5.88281 40.3698 5.88281Z" fill="#50E6FF"/>
<path d="M22.8082 25.1328L8.93896 39.0021C8.56048 38.775 8.11471 38.6404 7.64371 38.6404C6.25594 38.6404 5.12891 39.7675 5.12891 41.1552C5.12891 42.543 6.25594 43.67 7.64371 43.67C9.03148 43.67 10.1585 42.543 10.1585 41.1552C10.1585 40.7011 10.0324 40.2721 9.82209 39.902L23.6998 26.0243L22.8082 25.1328Z" fill="#50E6FF"/>
<path d="M40.3947 38.693C39.9405 38.693 39.52 38.8108 39.1583 39.0211L9.80489 9.66764C10.0236 9.29757 10.1497 8.86021 10.1497 8.39762C10.1497 7.00985 9.02269 5.88281 7.63492 5.88281C6.24715 5.88281 5.12012 7.00985 5.12012 8.39762C5.12012 9.78539 6.24715 10.9124 7.63492 10.9124C8.10592 10.9124 8.54328 10.7863 8.92176 10.5592L38.2584 39.8958C38.0229 40.2827 37.8883 40.7284 37.8883 41.2163C37.8883 42.604 39.0153 43.7311 40.4031 43.7311C41.7909 43.7311 42.9179 42.604 42.9179 41.2163C42.9095 39.8285 41.7825 38.693 40.3947 38.693Z" fill="#50E6FF"/>
<path d="M24.6922 43.8172V5.85957C25.7688 5.5736 26.5594 4.58955 26.5594 3.42887C26.5594 2.0411 25.4324 0.914062 24.0446 0.914062C22.6568 0.914062 21.5298 2.0411 21.5298 3.42887C21.5298 4.60637 22.3456 5.59884 23.439 5.87639V43.8088C22.3456 44.0779 21.5298 45.0704 21.5298 46.2563C21.5298 47.644 22.6568 48.7711 24.0446 48.7711C25.4324 48.7711 26.5594 47.644 26.5594 46.2563C26.5594 45.0872 25.7688 44.1031 24.6922 43.8172Z" fill="#0078D4"/>
<path d="M29.0409 24.706C29.0409 27.4899 26.7868 29.744 24.0029 29.744C21.2189 29.744 18.9648 27.4899 18.9648 24.706C18.9648 21.922 21.2189 19.668 24.0029 19.668C26.7868 19.668 29.0409 21.922 29.0409 24.706Z" fill="#50E6FF"/>
</svg>
