<svg data-slug-id="function06" viewBox="0 0 49 49" xmlns="http://www.w3.org/2000/svg">
<path d="M48.0195 0.839844H0.0195312V48.8398H48.0195V0.839844Z" fill="#C4C4C4"/>
<path d="M48.0191 0.839844H0.119141V48.7398H48.0191V0.839844Z" fill="white"/>
<path d="M0.119141 48.7398H48.0191V0.839844H0.119141V48.7398Z" fill="#0078D4"/>
<path d="M31.2697 14.6914C31.2697 15.1914 31.0697 15.5414 30.7197 15.8414C30.3697 16.0914 29.8697 16.2414 29.2697 16.2414C28.7197 16.2414 28.3197 16.1414 27.9697 15.9414V14.7914C28.3697 15.1414 28.8197 15.3414 29.3197 15.3414C29.5697 15.3414 29.7197 15.2914 29.8697 15.1914C30.0197 15.0914 30.0697 14.9914 30.0697 14.7914C30.0697 14.6414 30.0197 14.4914 29.8697 14.3914C29.7697 14.2914 29.4697 14.1414 29.1197 13.9414C28.3197 13.5914 27.9697 13.0414 27.9697 12.4414C27.9697 11.9914 28.1197 11.5914 28.4697 11.3414C28.8197 11.0414 29.2697 10.9414 29.8197 10.9414C30.3197 10.9414 30.7197 10.9914 31.0697 11.1414V12.2414C30.7197 11.9914 30.3197 11.8914 29.9197 11.8914C29.7197 11.8914 29.5197 11.9414 29.4197 12.0414C29.2697 12.1414 29.2197 12.2414 29.2197 12.4414C29.2197 12.5914 29.2697 12.7414 29.3697 12.8414C29.4697 12.9414 29.6697 13.0914 30.0197 13.2414C30.5197 13.4914 30.8197 13.6914 31.0197 13.9414C31.1697 14.0414 31.2697 14.3414 31.2697 14.6914Z" fill="#50E6FF"/>
<path d="M35.5195 13.5406C35.5195 13.0406 35.4195 12.6406 35.1695 12.3406C34.9695 12.0406 34.6195 11.8906 34.2695 11.8906C33.8695 11.8906 33.5695 12.0406 33.3195 12.3406C33.0695 12.6406 32.9695 13.0406 32.9695 13.5406C32.9695 14.0406 33.0695 14.4406 33.3195 14.7406C33.5695 15.0406 33.8695 15.1906 34.2695 15.1906C34.6695 15.1906 34.9695 15.0406 35.2195 14.7406C35.4195 14.4406 35.5195 14.0406 35.5195 13.5406ZM36.7195 13.4906C36.7195 14.0906 36.5695 14.5906 36.3195 15.0406C36.0695 15.4906 35.6695 15.7906 35.1695 15.9906L36.6695 17.3406H35.1695L34.1195 16.1406C33.6695 16.1406 33.2695 15.9906 32.9195 15.7906C32.5695 15.5906 32.2695 15.2406 32.0695 14.8906C31.8695 14.4906 31.7695 14.0906 31.7695 13.5906C31.7695 13.0406 31.8695 12.5906 32.0695 12.1906C32.2695 11.7906 32.5695 11.4406 32.9695 11.2406C33.3695 11.0406 33.8195 10.8906 34.3195 10.8906C34.7695 10.8906 35.2195 10.9906 35.5695 11.1906C35.9195 11.3906 36.2195 11.6906 36.4195 12.0906C36.6195 12.5406 36.7195 12.9906 36.7195 13.4906Z" fill="#50E6FF"/>
<path d="M40.6203 16.2406H37.5703V10.8906H38.7203V15.3406H40.6203V16.2406Z" fill="#50E6FF"/>
<path d="M10.1191 15.8906H15.1191V10.8906H10.1191V15.8906Z" fill="white"/>
<path d="M10.1191 23.4883H15.1191V18.4883H10.1191V23.4883Z" fill="#50E6FF"/>
<path d="M17.7695 23.4883H22.7695V18.4883H17.7695V23.4883Z" fill="white"/>
<path d="M10.1191 31.1406H15.1191V26.1406H10.1191V31.1406Z" fill="#50E6FF"/>
<path d="M17.7695 31.1406H22.7695V26.1406H17.7695V31.1406Z" fill="#50E6FF"/>
<path d="M25.3193 31.1406H30.3193V26.1406H25.3193V31.1406Z" fill="white"/>
<path d="M10.1191 38.6914H15.1191V33.6914H10.1191V38.6914Z" fill="#50E6FF"/>
<path d="M17.7695 38.6914H22.7695V33.6914H17.7695V38.6914Z" fill="#50E6FF"/>
<path d="M25.3193 38.6914H30.3193V33.6914H25.3193V38.6914Z" fill="#50E6FF"/>
<path d="M32.9199 38.6914H37.9199V33.6914H32.9199V38.6914Z" fill="white"/>
</svg>
