<svg data-slug-id="function10" viewBox="0 0 72 72" xmlns="http://www.w3.org/2000/svg">
<path d="M69.0023 33.493L44.7023 9.09297C43.3023 7.69297 41.1023 7.69297 39.7023 9.09297L38.9023 9.89297L62.4023 33.393C63.8023 34.793 63.8023 36.993 62.4023 38.393L38.9023 61.993L39.7023 62.793C41.1023 64.193 43.3023 64.193 44.7023 62.793L69.1023 38.393C70.4023 37.093 70.4023 34.893 69.0023 33.493Z" fill="#50E6FF"/>
<path d="M56.2026 33.493L31.9026 9.09297C30.5026 7.69297 28.3026 7.69297 26.9026 9.09297L21.8026 14.193L28.2026 20.593C28.6026 20.493 29.0026 20.393 29.5026 20.393C31.8026 20.393 33.7026 22.293 33.7026 24.593C33.7026 25.093 33.6026 25.493 33.5026 25.893L39.7026 32.093C40.1026 31.893 40.6026 31.893 41.1026 31.893C43.4026 31.893 45.3026 33.793 45.3026 36.093C45.3026 38.393 43.4026 40.293 41.1026 40.293C38.8026 40.293 36.9026 38.393 36.9026 36.093C36.9026 35.493 37.0026 34.893 37.3026 34.393L31.5026 28.593V43.993C32.8026 44.693 33.8026 46.093 33.8026 47.793C33.8026 50.093 31.9026 51.993 29.6026 51.993C27.3026 51.993 25.4026 50.093 25.4026 47.793C25.4026 45.993 26.5026 44.493 28.0026 43.893V28.593C26.5026 27.993 25.4026 26.393 25.4026 24.693C25.4026 24.093 25.5026 23.493 25.8026 22.893L19.6026 16.693L2.50264 33.493C1.10264 34.893 1.10264 37.093 2.50264 38.493L26.9026 62.893C28.3026 64.293 30.5026 64.293 31.9026 62.893L56.3026 38.493C57.6026 37.093 57.6026 34.893 56.2026 33.493Z" fill="#0078D4"/>
</svg>
