<svg data-slug-id="function12" viewBox="0 0 49 49" xmlns="http://www.w3.org/2000/svg">
<path d="M24.2359 47.8013C36.8792 47.8013 47.1287 37.5518 47.1287 24.9085C47.1287 12.2651 36.8792 2.01562 24.2359 2.01562C11.5925 2.01562 1.34302 12.2651 1.34302 24.9085C1.34302 37.5518 11.5925 47.8013 24.2359 47.8013Z" fill="#0078D4"/>
<path d="M30.4877 14.9893V34.1838C30.4877 35.4087 28.9411 36.012 28.0452 35.1534L22.7411 30.0714H16.6566C15.8664 30.0714 15.2258 29.4575 15.2258 28.7002V20.4731C15.2258 19.7158 15.8664 19.1019 16.6566 19.1019H22.7411L28.0452 14.0197C28.9401 13.1622 30.4877 13.7632 30.4877 14.9893Z" fill="#50E6FF"/>
</svg>
