<svg data-slug-id="function02" viewBox="0 0 49 49" xmlns="http://www.w3.org/2000/svg">
<path d="M14.7593 36.3904C14.7593 30.8683 19.2371 26.3984 24.7691 26.3984C30.3011 26.3984 34.779 30.8683 34.779 36.3904H14.7593Z" fill="#0078D7"/>
<path d="M30.4703 19.1495C30.4703 22.281 27.932 24.8147 24.795 24.8147C21.6579 24.8147 19.1196 22.281 19.1196 19.1495C19.1196 16.0181 21.6579 13.4844 24.795 13.4844C27.932 13.4844 30.4703 16.0265 30.4703 19.1495Z" fill="#0078D7"/>
<path d="M24.803 47.5269L5.17969 36.2134V13.5948L24.803 2.28125L44.4263 13.5948V36.2134L24.803 47.5269ZM6.44462 35.4894L24.803 46.0706L43.1614 35.4894V14.3187L24.803 3.73753L6.44462 14.3187V35.4894Z" fill="#50E6FF"/>
<path d="M24.6762 6.21122C26.12 6.21122 27.2904 5.0429 27.2904 3.6017C27.2904 2.16051 26.12 0.992188 24.6762 0.992188C23.2324 0.992188 22.062 2.16051 22.062 3.6017C22.062 5.0429 23.2324 6.21122 24.6762 6.21122Z" fill="#0078D7"/>
<path d="M24.6762 48.9651C26.12 48.9651 27.2904 47.7968 27.2904 46.3556C27.2904 44.9144 26.12 43.7461 24.6762 43.7461C23.2324 43.7461 22.062 44.9144 22.062 46.3556C22.062 47.7968 23.2324 48.9651 24.6762 48.9651Z" fill="#0078D7"/>
<path d="M43.7348 39.0081C45.1786 39.0081 46.349 37.8398 46.349 36.3986C46.349 34.9574 45.1786 33.7891 43.7348 33.7891C42.291 33.7891 41.1206 34.9574 41.1206 36.3986C41.1206 37.8398 42.291 39.0081 43.7348 39.0081Z" fill="#0078D7"/>
<path d="M43.7348 16.2112C45.1786 16.2112 46.349 15.0429 46.349 13.6017C46.349 12.1605 45.1786 10.9922 43.7348 10.9922C42.291 10.9922 41.1206 12.1605 41.1206 13.6017C41.1206 15.0429 42.291 16.2112 43.7348 16.2112Z" fill="#0078D7"/>
<path d="M5.77827 38.9401C7.17082 38.9401 8.2997 37.8132 8.2997 36.4232C8.2997 35.0331 7.17082 33.9062 5.77827 33.9062C4.38572 33.9062 3.25684 35.0331 3.25684 36.4232C3.25684 37.8132 4.38572 38.9401 5.77827 38.9401Z" fill="#0078D7"/>
<path d="M5.77827 16.2956C7.17082 16.2956 8.2997 15.1687 8.2997 13.7786C8.2997 12.3886 7.17082 11.2617 5.77827 11.2617C4.38572 11.2617 3.25684 12.3886 3.25684 13.7786C3.25684 15.1687 4.38572 16.2956 5.77827 16.2956Z" fill="#0078D7"/>
</svg>
