<svg data-slug-id="function09" viewBox="0 0 49 49" xmlns="http://www.w3.org/2000/svg">
<path d="M41.4167 38.6918H36.5934C36.5934 38.6326 36.5934 38.5734 36.5934 38.5142C36.5934 36.7092 35.1435 35.2592 33.3384 35.2592H31.7109C31.5926 31.2645 28.2784 28.0391 24.2245 28.0391C20.1705 28.0391 16.8563 31.2645 16.6788 35.2888H15.3472C13.5422 35.2888 12.0922 36.7388 12.0922 38.5438C12.0922 38.603 12.0922 38.6622 12.0922 38.7214H7.18013C4.78327 38.6918 2.85986 40.6448 2.85986 43.012C2.85986 45.3793 4.78327 47.3323 7.18013 47.3323H41.4167C43.8136 47.3323 45.737 45.4089 45.737 43.012C45.737 40.6152 43.8136 38.6918 41.4167 38.6918ZM25.3489 40.5856C25.3489 41.1774 24.8755 41.6509 24.2836 41.6509C23.6918 41.6509 23.2184 41.1774 23.2184 40.5856V32.8032C23.2184 32.2114 23.6918 31.7379 24.2836 31.7379C24.8755 31.7379 25.3489 32.2114 25.3489 32.8032V40.5856Z" fill="#50E6FF"/>
<path d="M28.3375 16.263C28.5743 14.9314 28.6926 13.4518 28.6926 11.9131C28.6926 5.7878 25.6744 0.816537 24.2836 0.816537C22.804 0.786946 19.8746 5.7878 19.8746 11.9131C19.8746 13.4222 19.9929 14.8426 20.2001 16.1742C17.5665 18.068 15.791 21.6189 15.791 24.8147V29.7268C15.791 30.1707 16.3237 30.3482 16.6196 30.0227L20.9102 25.1402V25.5545C20.9694 25.8504 21.2949 26.1463 21.8275 26.3534V29.0166C21.8867 29.4901 22.9816 29.8747 24.2836 29.8747C25.5856 29.8747 26.6804 29.4901 26.7396 29.0166V26.3534C27.2723 26.1463 27.6274 25.8504 27.6569 25.5545V25.3769L31.7405 30.0227C32.0364 30.3482 32.569 30.1411 32.569 29.7268V24.8147C32.6282 21.6781 30.9119 18.1864 28.3375 16.263Z" fill="#0078D4"/>
</svg>
