<svg data-slug-id="function03" viewBox="0 0 49 49" xmlns="http://www.w3.org/2000/svg">
<path d="M36.5321 10.5467C33.8293 9.82874 32.0387 10.4791 30.1467 11.1801C28.5588 11.7629 26.7513 12.4302 23.9134 12.4302C21.0754 12.4302 19.2679 11.7629 17.6801 11.1801C15.7881 10.4791 14.0059 9.82029 11.2947 10.5467C6.01579 11.9656 3.66774 17.0672 1.60686 24.8462C-0.690523 33.4782 -0.166856 39.6778 2.95825 41.0207C6.31141 42.465 9.74903 38.5882 12.2576 35.7672L12.8573 35.083C14.9942 32.6167 19.3102 31.4934 23.9134 31.4934C29.4288 31.4934 32.8326 32.6167 34.9695 35.083L35.5692 35.7672C37.7061 38.1743 40.5103 41.3332 43.3651 41.3332C43.8634 41.3332 44.3617 41.2403 44.8685 41.0207C47.9936 39.6778 48.5173 33.4782 46.2284 24.8462C44.159 17.0672 41.8194 11.9572 36.5321 10.5467Z" fill="#0078D4"/>
<path d="M17.6883 22.5741C17.6883 24.7026 15.9653 26.4256 13.8368 26.4256C11.7084 26.4256 9.98535 24.7026 9.98535 22.5741C9.98535 20.4457 11.7084 18.7227 13.8368 18.7227C15.9653 18.7227 17.6883 20.4541 17.6883 22.5741Z" fill="#50E6FF"/>
<path d="M35.3498 20.0396C35.3498 20.766 34.7585 21.3488 34.0406 21.3488C33.3142 21.3488 32.7314 20.7576 32.7314 20.0396C32.7314 19.3133 33.3227 18.7305 34.0406 18.7305C34.7585 18.7305 35.3498 19.3217 35.3498 20.0396Z" fill="white"/>
<path d="M32.8166 25.024C32.8166 25.7504 32.2253 26.3332 31.5074 26.3332C30.781 26.3332 30.1982 25.7419 30.1982 25.024C30.1982 24.2976 30.7895 23.7148 31.5074 23.7148C32.2253 23.7148 32.8166 24.3061 32.8166 25.024Z" fill="white"/>
</svg>
