<svg data-slug-id="function11" viewBox="0 0 61 61" xmlns="http://www.w3.org/2000/svg">
<path d="M30.0387 5.72656C15.801 5.72656 4.24854 16.8791 4.24854 31.1282C4.24854 42.3607 11.4245 51.9021 21.4344 55.4444L24.691 46.0859C18.8062 43.8691 14.6012 38.2014 14.6012 31.5396C14.6012 22.9581 21.5601 15.9878 30.153 15.9878C38.7459 15.9878 45.7048 22.9467 45.7048 31.5396C45.7048 38.2243 41.4769 43.9034 35.5579 46.1087L38.8716 55.3644C48.7672 51.7535 55.8403 42.2693 55.8403 31.1168C55.8403 16.8791 44.2879 5.72656 30.0387 5.72656Z" fill="#50E6FF"/>
<path d="M45.5106 47.2531C43.2595 49.5042 40.6085 51.2067 37.7061 52.2809L33.1354 39.4143C36.6206 38.146 39.1231 34.8094 39.1231 30.89C39.1231 25.8736 35.0666 21.8171 30.0502 21.8171C25.0339 21.8171 20.9774 25.8736 20.9774 30.89C20.9774 34.8436 23.5027 38.1917 27.0107 39.4258L22.52 52.338C19.5719 51.2639 16.8637 49.5499 14.5784 47.2531C10.4419 43.1166 8.16797 37.6318 8.16797 31.7927C8.16797 25.9536 10.4419 20.4688 14.5784 16.3323C18.7149 12.1958 24.2111 9.92188 30.0388 9.92188C35.8664 9.92188 41.3627 12.1958 45.4992 16.3323C49.6357 20.4688 51.9096 25.965 51.9096 31.7927C51.9096 37.6318 49.6357 43.1166 45.5106 47.2531Z" fill="#0078D4"/>
</svg>
