<svg data-slug-id="function05" viewBox="0 0 49 49" xmlns="http://www.w3.org/2000/svg">
<path d="M25.2368 18.1762V0.519531H0.0195312V28.3692H20.6128V18.1762H25.2368Z" fill="#0078D7"/>
<path d="M20.1326 21.8466C20.0905 21.8298 17.5806 20.8273 15.079 19.1762C15.5844 18.6792 16.0561 18.1569 16.4604 17.6094C18.5407 14.8042 19.6609 11.0808 20.0821 9.26961C20.0905 9.22749 20.1158 8.00602 20.1158 8.00602V6.1022L13.9504 6.11905V3.1875H11.0783V6.13589L5.32568 6.15274V9.02532L17.0415 8.97477C16.5783 10.7607 15.6265 13.768 14.0936 15.8319C13.6977 16.3626 13.2345 16.8596 12.7207 17.3314C12.2069 16.8596 11.7437 16.3542 11.3478 15.8319C10.076 14.1218 8.98109 11.7547 8.46731 10.0446C8.43362 9.94353 8.37466 9.74136 8.37466 9.74136L5.31726 9.78348C5.91526 12.0495 7.21234 15.2422 8.96424 17.6009C9.37695 18.1485 9.84019 18.6708 10.3455 19.1678C7.84404 20.8273 5.33411 21.8298 5.29199 21.8466L6.37008 24.6013C6.5638 24.5254 9.72228 23.2703 12.7039 21.1306C15.6939 23.2703 18.8524 24.5254 19.0377 24.6013L20.1326 21.8466Z" fill="#50E6FF"/>
<path d="M48.0196 20.6445H22.7266V48.5195H48.0196V20.6445Z" fill="#0078D7"/>
<path d="M44.0102 43.5152H40.7928L39.2009 39.0084H32.2439L30.711 43.5152H27.502L34.1305 25.8164H37.4406L44.0102 43.5152ZM38.4261 36.616L35.9667 29.5567C35.8909 29.3292 35.8151 28.9586 35.7308 28.4447H35.6803C35.6045 28.9164 35.5203 29.2871 35.436 29.5567L33.0019 36.616H38.4261Z" fill="#50E6FF"/>
<path d="M43.7069 13.1636C40.2873 7.35945 34.3578 3.22328 27.4092 2.24609V5.14394C33.1197 6.06216 38.0048 9.44017 40.9611 14.1576L38.0216 15.219L43.2942 17.6872L45.762 12.4138L43.7069 13.1636Z" fill="#0078D7"/>
<path d="M7.38827 34.8554L9.78028 33.9878L4.51616 31.5195L2.04834 36.7929L4.65092 35.8495C7.96942 41.6283 13.7726 45.7982 20.6117 46.9017V43.9954C15.0107 42.9509 10.2519 39.5476 7.38827 34.8554Z" fill="#0078D7"/>
</svg>
