<svg data-slug-id="gaming" xmlns="http://www.w3.org/2000/svg" viewBox="0 0 97 96">
    <path fill-rule="evenodd" clip-rule="evenodd" d="M74.2867 17.1662C68.8192 15.706 65.1892 17.0372 61.3605 18.4495C58.1392 19.636 54.4905 20.986 48.753 20.986C43.0118 20.986 39.3593 19.636 36.1373 18.4495C32.3123 17.0372 28.7011 15.6985 23.2186 17.1662C12.5311 20.032 7.79187 30.3669 3.61739 46.1086C-1.0251 63.5768 0.0248951 76.1161 6.35563 78.8378C13.1394 81.759 20.0918 73.9193 25.1693 68.1991L26.3768 66.8161C30.7043 61.8278 39.4268 59.5464 48.753 59.5464C59.9167 59.5464 66.7942 61.8241 71.1217 66.8161L72.333 68.1991C76.6492 73.0696 82.3267 79.4663 88.1099 79.4663C89.1179 79.4663 90.1304 79.2743 91.1437 78.8378C97.4691 76.1198 98.5229 63.5806 93.8886 46.1124C89.7074 30.3669 84.9712 20.032 74.2867 17.1662Z" fill="#0078D4"/>
    <path fill-rule="evenodd" clip-rule="evenodd" d="M36.7491 40.4989C36.7491 45.4692 32.7194 49.4989 27.7491 49.4989C22.7789 49.4989 18.7491 45.4692 18.7491 40.4989C18.7491 35.5287 22.7789 31.499 27.7491 31.499C32.7194 31.499 36.7491 35.5287 36.7491 40.4989" fill="#50E6FF"/>
    <path fill-rule="evenodd" clip-rule="evenodd" d="M78.7578 36.0066C78.7578 38.4914 76.7425 40.5066 74.2578 40.5066C71.7723 40.5066 69.7578 38.4914 69.7578 36.0066C69.7578 33.5211 71.7723 31.5067 74.2578 31.5067C76.7425 31.5067 78.7578 33.5211 78.7578 36.0066" fill="white"/>
    <path fill-rule="evenodd" clip-rule="evenodd" d="M69.749 44.9989C69.749 47.4844 67.7345 49.4989 65.249 49.4989C62.7643 49.4989 60.749 47.4844 60.749 44.9989C60.749 42.5142 62.7643 40.499 65.249 40.499C67.7345 40.499 69.749 42.5142 69.749 44.9989" fill="white"/>
</svg>
