<svg data-slug-id="gears-square" xmlns="http://www.w3.org/2000/svg" viewBox="0 0 48 48">
    <path d="M47.9914 15.0905V10.1474H45.5999V2.35789H37.8946V0H32.8252V2.35789H26.5178V0H21.4736V2.35789H15.1663V0H10.1221V2.35789H2.39999V10.0884H0.0421051V15.1326H2.39999V21.44H0V26.4842H2.39999V32.7916H0V37.8947H2.39999V45.5579H10.1052V48H15.1747V45.5579H21.482V48H26.5262V45.5579H32.8336V48H37.8778V45.5579H45.6083V37.8863H47.9999V32.8421H45.6083V26.5179H47.9999V21.4737H45.6083V15.0905H47.9914ZM42.9557 42.9474H5.05262V5.05263H42.9557V42.9474Z" fill="#50E6FF"/>
    <path d="M41.5159 20.1104V17.5251H38.8465C38.6191 15.8156 37.9454 14.2409 36.9433 12.9356L38.838 11.0409L37.0107 9.21354L35.1159 11.1083C33.8107 10.1062 32.2359 9.43249 30.5265 9.20512V6.53564H27.9412V9.20512C26.2318 9.43249 24.657 10.1062 23.3518 11.1083L21.457 9.21354L19.6212 11.0409L21.516 12.9356C20.5139 14.2409 19.8402 15.8156 19.6128 17.5251H16.9434V20.1104H19.6128C19.8402 21.8199 20.5139 23.3946 21.516 24.6999L19.6212 26.5946L21.4486 28.422L23.3433 26.5272C24.6486 27.5293 26.2233 28.203 27.9328 28.4304V31.0999H30.5181V28.4304C32.2275 28.203 33.8023 27.5293 35.1075 26.5272L37.0023 28.422L38.8296 26.5946L36.9349 24.6999C37.937 23.3946 38.6107 21.8199 38.838 20.1104H41.5159ZM29.2296 23.4788C26.6612 23.4788 24.5728 21.3904 24.5728 18.822C24.5728 16.2535 26.6612 14.1651 29.2296 14.1651C31.7981 14.1651 33.8865 16.2535 33.8865 18.822C33.8865 21.3904 31.7981 23.4788 29.2296 23.4788Z" fill="#0078D4"/>
    <path d="M21.3477 35.5362V33.0183H18.6614C18.5435 32.5551 18.3582 32.1173 18.1224 31.713L20.0256 29.8099L18.2403 28.0246L16.3372 29.9362C15.933 29.7004 15.4951 29.5151 15.0319 29.3973V26.7109H12.514V29.4057C12.0509 29.5236 11.613 29.7088 11.2172 29.9446L9.31402 28.0415L7.52877 29.8099L9.43192 31.713C9.19613 32.1173 9.01087 32.5467 8.89297 33.0099H6.19824V35.5362H8.89297C9.01087 35.9994 9.19613 36.4373 9.43192 36.833L7.52877 38.7362L9.31402 40.5215L11.2172 38.6183C11.6214 38.8541 12.0509 39.0394 12.514 39.1573V41.852H15.0319V39.1657C15.4951 39.0478 15.933 38.8625 16.3372 38.6267L18.2403 40.5299L20.0256 38.7446L18.1224 36.8415C18.3582 36.4373 18.5435 35.9994 18.6614 35.5362H21.3477V35.5362ZM13.7772 36.7994C12.3877 36.7994 11.2593 35.6709 11.2593 34.2815C11.2593 32.892 12.3877 31.7636 13.7772 31.7636C15.1666 31.7636 16.2951 32.892 16.2951 34.2815C16.3035 35.6709 15.1666 36.7994 13.7772 36.7994Z" fill="#0078D4"/>
</svg>
