<svg data-slug-id="gear12" viewBox="0 0 49 49" xmlns="http://www.w3.org/2000/svg">
<ellipse cx="24.0192" cy="24.3645" rx="15.8137" ry="15.8137" fill="#50E6FF"/>
<path d="M42.8154 22.1916C42.3691 18.8899 41.0554 15.8633 39.1102 13.3369L42.7901 9.69337L39.2281 6.16652L35.5481 9.8101C32.9965 7.88409 29.9397 6.58341 26.605 6.14151V0.980469H21.5608V6.13317C18.2261 6.57507 15.1693 7.87575 12.6177 9.80176L8.93775 6.15818L5.37567 9.68503L9.05565 13.3286C7.1104 15.8549 5.79672 18.8815 5.35041 22.1833H0.129395V27.1775H5.33357C5.77988 30.4793 7.09356 33.5059 9.0388 36.0322L5.35883 39.6758L8.92091 43.2026L12.6009 39.559C15.1524 41.485 18.2093 42.7857 21.544 43.2276V48.3803H26.5882V43.2276C29.9229 42.7857 32.9797 41.485 35.5312 39.559L39.2112 43.2026L42.7733 39.6758L39.0933 36.0322C41.0386 33.5059 42.3523 30.4793 42.7986 27.1775H48.0196V22.1833H42.8154V22.1916ZM33.8723 34.3813C32.4492 35.7904 30.765 36.8576 28.9292 37.533L26.0324 29.4621C28.2387 28.67 29.8218 26.5772 29.8218 24.1176C29.8218 20.9743 27.2534 18.4313 24.0787 18.4313C20.904 18.4313 18.3356 20.9743 18.3356 24.1176C18.3356 26.5939 19.9356 28.695 22.1587 29.4704L19.3124 37.5663C17.443 36.891 15.7335 35.8154 14.2851 34.3813C11.6662 31.7883 10.2262 28.3448 10.2262 24.6846C10.2262 21.0243 11.6662 17.5808 14.2851 14.9878C16.904 12.3948 20.3819 10.969 24.0787 10.969C27.7755 10.969 31.2534 12.3948 33.8723 14.9878C36.4912 17.5808 37.9312 21.0243 37.9312 24.6846C37.9228 28.3448 36.4828 31.7883 33.8723 34.3813Z" fill="#0078D4"/>
</svg>
