<svg data-slug-id="gear03" viewBox="0 0 49 49" xmlns="http://www.w3.org/2000/svg">
<path d="M47.3721 25.303C47.3804 18.7613 44.6824 12.8505 40.3406 8.625L38.589 10.3932C38.672 10.4763 38.755 10.5593 38.838 10.6423C40.7391 12.5517 42.2251 14.7682 43.2711 17.2338C44.3503 19.7907 44.8899 22.497 44.8816 25.2947C44.8733 28.0923 44.3254 30.7986 43.2462 33.3472C42.2002 35.8128 40.7059 38.0211 38.8048 39.9221C37.7173 41.0096 36.5219 41.9643 35.2434 42.7779L33.4752 40.5614L32.8525 45.9989L38.2901 46.6215L36.7958 44.7371C43.1549 40.6029 47.3638 33.4469 47.3721 25.303Z" fill="#50E6FF"/>
<path d="M29.1167 45.3849C27.5062 45.775 25.8542 45.9826 24.169 45.9826H24.1357C21.3381 45.9743 18.6235 45.4264 16.0749 44.3389C13.6093 43.2929 11.4011 41.7903 9.49998 39.8892C7.68192 38.0628 6.23744 35.9542 5.20804 33.6132L7.76494 33.2313L3.36508 29.9688L0.102539 34.3686L2.65944 33.9867C6.10461 42.4627 14.4145 48.4482 24.1274 48.4648C24.144 48.4648 24.1523 48.4648 24.169 48.4648C26.1364 48.4648 28.0541 48.2157 29.8805 47.7591L29.1167 45.3849Z" fill="#50E6FF"/>
<path d="M36.2643 6.3428L34.081 1.32031L33.0848 3.83571C30.3536 2.69838 27.3567 2.06746 24.2104 2.05916C24.1938 2.05916 24.1855 2.05916 24.1689 2.05916C11.5089 2.05916 1.21487 12.2037 0.974121 24.8139H3.46461C3.52272 22.1657 4.07063 19.5922 5.09173 17.1681C6.13773 14.7025 7.63202 12.4943 9.5331 10.5932C11.4342 8.69216 13.6507 7.20617 16.1163 6.16016C18.6649 5.08095 21.3712 4.53304 24.1689 4.53304H24.2021C26.9665 4.54134 29.6479 5.08095 32.1716 6.13526L31.2335 8.50122L36.2643 6.3428Z" fill="#50E6FF"/>
<path d="M40.6889 27.3452L40.6973 22.4805L37.1774 22.4722C36.8453 20.5628 36.1148 18.7945 35.0604 17.2587L37.526 14.8015L34.0975 11.3563L31.6485 13.8053C30.1127 12.7344 28.3444 11.9872 26.4268 11.6385L26.4351 8.16846L21.5703 8.16016L21.562 11.6634C19.6692 12.0204 17.9176 12.7759 16.3984 13.8468L13.8913 11.3314L10.4461 14.7599L12.9864 17.3085C11.9653 18.8194 11.2431 20.5628 10.911 22.4307L7.2583 22.4223L7.25 27.2871L10.9608 27.2954C11.3178 29.1301 12.0483 30.8402 13.0694 32.3262L10.4129 34.9744L13.8415 38.4196L16.5063 35.7631C17.984 36.7842 19.6858 37.5064 21.5205 37.8551V41.5991L26.3852 41.6074L26.3936 37.88C28.2448 37.5562 29.9632 36.8423 31.4658 35.8378L34.056 38.4445L37.5011 35.0159L34.9359 32.4424C35.9985 30.9398 36.754 29.2131 37.1192 27.3369L40.6889 27.3452ZM24.0359 33.2643C19.3372 33.256 15.535 29.4372 15.5433 24.7385C15.5516 20.0398 19.3621 16.2376 24.0608 16.2459C28.7595 16.2542 32.5617 20.073 32.5534 24.7717C32.5534 29.4704 28.7346 33.2726 24.0359 33.2643Z" fill="#0078D4"/>
</svg>
