<svg data-slug-id="gear-up-arrow" xmlns="http://www.w3.org/2000/svg" viewBox="0 0 49 51">
  <path d="M43.7368 9.223L40.1641 5.65025L36.4722 9.34208C33.8589 7.34309 30.7679 6.06309 27.5064 5.62939L27.5064 0.407233L22.4533 0.407227L22.4534 5.62939C19.1919 6.06307 16.1008 7.34306 13.4876 9.34206L9.79571 5.65022L6.22297 9.22296L9.91481 12.9148C7.91582 15.5281 6.63583 18.6191 6.20214 21.8806L0.97998 21.8806L0.979987 26.9336L6.20215 26.9337C6.63584 30.1951 7.91584 33.2862 9.91484 35.8995L6.22301 39.5913L9.79576 43.164L13.4876 39.4722C16.7899 41.9896 20.8275 43.353 24.9799 43.3531C29.1324 43.3531 33.1699 41.9896 36.4723 39.4722L40.1641 43.1641L43.7368 39.5913L40.045 35.8995C42.044 33.2862 43.324 30.1952 43.7577 26.9337L48.9798 26.9337L48.9798 21.8807L43.7577 21.8806C43.324 18.6192 42.044 15.5281 40.045 12.9148L43.7368 9.223ZM15.1549 34.2322C12.8817 31.9592 11.467 28.9683 11.1518 25.7692C10.8366 22.57 11.6405 19.3606 13.4263 16.6877C15.2122 14.0148 17.8696 12.0438 20.9458 11.1105C24.0219 10.1773 27.3266 10.3395 30.2965 11.5697C33.2665 12.7998 35.718 15.0216 37.2335 17.8566C38.7489 20.6916 39.2345 23.9644 38.6074 27.1172C37.9803 30.2701 36.2795 33.108 33.7946 35.1474C31.3097 37.1868 28.1945 38.3015 24.9799 38.3016C23.1545 38.3067 21.3462 37.9497 19.6597 37.2512C17.9732 36.5527 16.442 35.5265 15.1549 34.2322Z" fill="#50E6FF"/>
  <path d="M21.407 16.1889L12.4752 25.1208L16.0479 28.6935L22.4532 22.2882L22.4533 48.4062L27.5063 48.4062L27.5063 22.2882L33.9116 28.6936L37.4844 25.1208L28.5525 16.1889L24.9798 12.6162L21.407 16.1889Z" fill="#0078D4"/>
</svg>
