<svg data-slug-id="gear05" viewBox="0 0 49 49" xmlns="http://www.w3.org/2000/svg">
<path d="M47.7582 30.5037C47.7835 30.3917 47.8003 30.2882 47.8256 30.1762C47.9519 29.5039 48.0193 28.8057 48.0193 28.0903C48.0193 21.9708 43.1679 17.0234 37.2048 17.0234C36.371 17.0234 35.554 17.1182 34.7876 17.3078C32.3114 13.3258 27.9653 10.6797 23.0129 10.6797C15.3232 10.6797 9.09897 17.0665 9.09897 24.9185C9.09897 25.1167 9.09897 25.3064 9.1074 25.496C8.40833 25.2546 7.65873 25.1167 6.87544 25.1167C3.08532 25.1167 0.0195312 28.2627 0.0195312 32.1327C0.0195312 35.77 2.72315 38.7608 6.19322 39.1056L37.1964 39.1659C41.2729 39.1659 44.8103 36.8646 46.6549 33.4773C46.7054 33.3825 46.7559 33.2877 46.8065 33.1843C47.0928 32.5981 47.5055 31.6845 47.7582 30.5037Z" fill="#0078D4"/>
<path d="M32.9349 25.8561V23.9513H31.0062C30.8377 22.6842 30.3576 21.5293 29.6333 20.5639L30.9977 19.1676L29.6754 17.8144L28.3194 19.2107C27.3761 18.4695 26.239 17.9782 25.0093 17.8058V15.832H23.1396V17.8058C21.9014 17.9782 20.7728 18.4695 19.8295 19.2107L18.4651 17.8144L17.1427 19.1676L18.5072 20.5639C17.7828 21.5293 17.3028 22.6929 17.1343 23.9513H15.2056V25.8647H17.1343C17.3028 27.1317 17.7828 28.2867 18.5072 29.252L17.1427 30.6483L18.4651 32.0015L19.8295 30.6052C20.7728 31.3465 21.9099 31.8378 23.1396 32.0102V33.9839H25.0093V32.0102C26.2475 31.8378 27.3761 31.3465 28.3194 30.6052L29.6838 32.0015L31.0062 30.6483L29.6417 29.252C30.3661 28.2867 30.8461 27.1231 31.0146 25.8647H32.9349V25.8561ZM24.0745 28.9245C21.9014 28.9245 20.1411 27.1145 20.1411 24.8994C20.1411 22.6842 21.9099 20.8742 24.0745 20.8742C26.2475 20.8742 28.0078 22.6842 28.0078 24.8994C28.0078 27.1145 26.239 28.9245 24.0745 28.9245Z" fill="#50E6FF"/>
<path d="M42.3426 29.3374V28.4841H41.4835C41.4077 27.9153 41.1887 27.3981 40.8686 26.9672L41.4835 26.338L40.8939 25.7346L40.279 26.3638C39.8579 26.0363 39.3526 25.8122 38.7967 25.7346V24.8555H37.9629V25.7346C37.407 25.8122 36.9016 26.0363 36.4805 26.3638L35.8657 25.7346L35.2761 26.338L35.8909 26.9672C35.5709 27.3981 35.3519 27.9153 35.2761 28.4841H34.417V29.3374H35.2761C35.3519 29.9063 35.5709 30.4234 35.8909 30.8544L35.2761 31.4836L35.8657 32.0869L36.4805 31.4577C36.9016 31.7853 37.407 32.0094 37.9629 32.0869V32.9661H38.7967V32.0869C39.3526 32.0094 39.8579 31.7853 40.279 31.4577L40.8939 32.0869L41.4835 31.4836L40.8686 30.8544C41.1887 30.4234 41.4077 29.9063 41.4835 29.3374H42.3426V29.3374ZM38.3756 30.4493C37.5417 30.4493 36.8679 29.7598 36.8679 28.9065C36.8679 28.0532 37.5417 27.3636 38.3756 27.3636C39.2094 27.3636 39.8832 28.0532 39.8832 28.9065C39.8832 29.7598 39.201 30.4493 38.3756 30.4493Z" fill="#50E6FF"/>
</svg>
