<svg data-slug-id="gear10" viewBox="0 0 49 49" xmlns="http://www.w3.org/2000/svg">
<path d="M33.0309 34.213V30.7521H29.4435C29.1404 28.4588 28.2309 26.3587 26.8919 24.6114L29.4267 22.0829L26.9762 19.6383L24.4414 22.1585C22.6898 20.8228 20.5762 19.9156 18.2856 19.6131V16.043H14.8162V19.6215C12.5172 19.924 10.412 20.8312 8.66039 22.1669L6.12565 19.6383L3.67513 22.0829L6.20144 24.6114C4.8625 26.3587 3.95302 28.4672 3.64986 30.7521H0.0625V34.213H3.64986C3.95302 36.5063 4.8625 38.6064 6.20144 40.3537L3.66671 42.8822L6.11723 45.3268L8.65196 42.7982C10.4035 44.1339 12.5172 45.0412 14.8077 45.3436V48.9221H18.2772V45.3436C20.5762 45.0412 22.6814 44.1339 24.433 42.7982L26.9677 45.3268L29.4183 42.8822L26.8835 40.3537C28.2225 38.6064 29.1319 36.4979 29.4351 34.213H33.0309V34.213ZM16.5425 40.4293C12.1551 40.4293 8.5846 36.8676 8.5846 32.491C8.5846 28.1143 12.1551 24.5526 16.5425 24.5526C20.9298 24.5526 24.5004 28.1143 24.5004 32.491C24.5004 36.8676 20.9383 40.4293 16.5425 40.4293Z" fill="#50E6FF"/>
<path d="M48.0195 12.2352V10.0931H45.8048C45.6196 8.67347 45.0553 7.37981 44.2301 6.29616L45.7964 4.73368L44.2806 3.22161L42.7059 4.78409C41.6196 3.96085 40.3227 3.39802 38.8996 3.21321V1.00391H36.7522V3.21321C35.329 3.39802 34.0322 3.96085 32.9459 4.78409L31.3796 3.22161L29.8638 4.73368L31.4301 6.29616C30.6048 7.37981 30.0406 8.67347 29.8554 10.0931H27.6406V12.2352H29.8554C30.0406 13.6549 30.6048 14.9486 31.4301 16.0322L29.8638 17.5947L31.3796 19.1068L32.9459 17.5443C34.0322 18.3675 35.329 18.9304 36.7522 19.1152V21.3329H38.8996V19.1236C40.3227 18.9388 41.6196 18.3759 42.7059 17.5527L44.2722 19.1152L45.788 17.6031L44.2217 16.0406C45.0469 14.957 45.6111 13.6633 45.7964 12.2436H48.0195V12.2352ZM37.8301 16.0742C35.1185 16.0742 32.9122 13.8733 32.9122 11.1684C32.9122 8.46346 35.1185 6.26256 37.8301 6.26256C40.5417 6.26256 42.748 8.46346 42.748 11.1684C42.748 13.8733 40.5417 16.0742 37.8301 16.0742Z" fill="#0078D4"/>
</svg>
