<svg data-slug-id="gear09" viewBox="0 0 49 49" xmlns="http://www.w3.org/2000/svg">
<path d="M0.0195312 43.8686H48.0111V6.98438H0.0195312V43.8686Z" fill="#0078D4"/>
<path d="M0.0195312 10.9748H47.9943V5.97266H0.0195312V10.9748Z" fill="#50E6FF"/>
<path d="M7.48912 9.79757C8.1628 9.79757 8.71017 9.25021 8.71017 8.57652C8.71017 7.90284 8.1628 7.35547 7.48912 7.35547C6.81543 7.35547 6.26807 7.90284 6.26807 8.57652C6.26807 9.25021 6.81543 9.79757 7.48912 9.79757Z" fill="#0078D4"/>
<path d="M3.69957 9.79757C4.37325 9.79757 4.92062 9.25021 4.92062 8.57652C4.92062 7.90284 4.37325 7.35547 3.69957 7.35547C3.02588 7.35547 2.47852 7.90284 2.47852 8.57652C2.47852 9.25021 3.02588 9.79757 3.69957 9.79757Z" fill="#0078D4"/>
<path d="M11.3627 9.79757C12.0363 9.79757 12.5837 9.25021 12.5837 8.57652C12.5837 7.90284 12.0363 7.35547 11.3627 7.35547C10.689 7.35547 10.1416 7.90284 10.1416 8.57652C10.1416 9.25021 10.689 9.79757 11.3627 9.79757Z" fill="#0078D4"/>
<path d="M35.3459 28.5852V26.1936H32.8785C32.6595 24.6105 32.0532 23.1705 31.1269 21.9578L32.8701 20.2147L31.1774 18.5305L29.4427 20.2736C28.2385 19.3473 26.7817 18.7326 25.2069 18.5221V16.0547H22.8153V18.5221C21.2322 18.741 19.7922 19.3473 18.5795 20.2736L16.8364 18.5305L15.1438 20.2231L16.8869 21.9663C15.9606 23.1705 15.3459 24.6273 15.1353 26.2021H12.668V28.5936H15.1353C15.3543 30.1768 15.9606 31.6168 16.8869 32.8294L15.1438 34.5726L16.8364 36.2652L18.5795 34.5221C19.7838 35.4484 21.2406 36.0631 22.8153 36.2736V38.7326H25.2069V36.2652C26.7901 36.0463 28.2301 35.44 29.4427 34.5136L31.1859 36.2568L32.8785 34.5642L31.1353 32.821C32.0617 31.6168 32.6764 30.16 32.8869 28.5852H35.3459V28.5852ZM24.0195 32.4168C21.2406 32.4168 18.9922 30.1515 18.9922 27.3894C18.9922 24.6105 21.2574 22.3621 24.0195 22.3621C26.7985 22.3621 29.0469 24.6273 29.0469 27.3894C29.0469 30.1684 26.7901 32.4168 24.0195 32.4168Z" fill="#50E6FF"/>
</svg>
