<svg data-slug-id="gear11" viewBox="0 0 49 49" xmlns="http://www.w3.org/2000/svg">
<path d="M48.0192 27.4482V22.3956H42.7982C42.3638 19.1342 41.0832 16.0434 39.0837 13.4305L42.7763 9.73788L39.2033 6.16482L35.5107 9.85745C32.8978 7.85792 29.807 6.57729 26.5457 6.14293V0.921875H21.4931V6.14293C18.2317 6.57729 15.1409 7.85792 12.5281 9.85745L8.83547 6.16482L5.26244 9.73788L8.95505 13.4305C6.95553 16.0434 5.6749 19.1342 5.24055 22.3956H0.0195312V27.4482H5.24055C5.79559 31.5634 7.68647 35.3825 10.6227 38.3187C13.5589 41.2549 17.3779 43.1458 21.4931 43.7008V48.9219H26.5457V43.7008C29.807 43.2665 32.8978 41.9858 35.5107 39.9863L39.2033 43.6789L42.7763 40.1059L39.0837 36.4132C41.0832 33.8004 42.3638 30.7096 42.7982 27.4482H48.0192ZM10.1247 24.9219C10.1246 21.7072 11.2391 18.592 13.2784 16.107C15.3176 13.622 18.1554 11.921 21.3083 11.2938C24.4611 10.6665 27.7338 11.1519 30.5689 12.6672C33.404 14.1825 35.6259 16.6339 36.8562 19.6038C38.0865 22.5737 38.2489 25.8783 37.3158 28.9545C36.3827 32.0307 34.4119 34.6883 31.7391 36.4743C29.0663 38.2603 25.8569 39.0643 22.6578 38.7493C19.4586 38.4343 16.4677 37.0198 14.1946 34.7467C12.9002 33.4596 11.874 31.9285 11.1754 30.242C10.4768 28.5556 10.1197 26.7473 10.1247 24.9219V24.9219Z" fill="#50E6FF"/>
<path d="M27.3038 16.5859H14.6723V21.6386H23.7308L5.2627 40.1068L8.83572 43.6798L27.3038 25.2116V34.2701H32.3564V21.6386V16.5859H27.3038Z" fill="#0078D4"/>
</svg>
