<svg data-slug-id="gear-turn" xmlns="http://www.w3.org/2000/svg" viewBox="0 0 48 48">
	<path d="M32.4095 7.15441L25.2635 0V5.28364C24.8422 5.25836 24.4208 5.24151 23.9995 5.24151C13.5249 5.24151 5.03906 13.7274 5.03906 24.202C5.03906 29.4266 7.15421 34.1625 10.5755 37.5922L14.1485 34.0192C11.5362 31.3985 10.0952 27.9098 10.0952 24.202C10.0952 20.4857 11.5446 16.997 14.1654 14.3678C16.7945 11.7386 20.2833 10.2976 23.9995 10.2976C24.4208 10.2976 24.8422 10.3145 25.2635 10.3566V14.3004L32.4095 7.15441Z" fill="#0078D4"/>
	<path d="M37.3904 10.7852L33.8174 14.3581C33.8258 14.3666 33.8258 14.3666 33.8343 14.375C36.4634 17.0042 37.9044 20.4929 37.9044 24.2091C37.9044 27.9254 36.455 31.4141 33.8343 34.0433C31.2051 36.6725 27.7164 38.1135 24.0001 38.1135V33.6894L16.8457 40.8438L24.0001 47.9982V43.178C34.4747 43.178 42.9606 34.6922 42.9606 24.2176C42.9606 18.9592 40.8286 14.2149 37.3904 10.7852Z" fill="#0078D4"/>
	<path d="M30.32 25.4396V22.9116H28.9043C28.7694 22.4565 28.584 22.0268 28.3312 21.6307L29.3593 20.6026L27.5728 18.8161L26.5026 19.8863C26.115 19.6757 25.7021 19.5071 25.2639 19.3976V17.8555H22.7358V19.4229C22.306 19.5408 21.9015 19.7094 21.5308 19.9201L20.4268 18.8161L18.6403 20.6026L19.7274 21.6897C19.4999 22.0689 19.3145 22.4818 19.1881 22.92H17.6797V25.4481H19.1123C19.2218 25.92 19.3903 26.3582 19.6179 26.7711L18.6319 27.757L20.4184 29.5435L21.3622 28.5997C21.7836 28.861 22.2386 29.0632 22.7274 29.198V30.4958H25.2554V29.2149C25.7526 29.0885 26.2245 28.8947 26.6543 28.6334L27.5644 29.5435L29.3509 27.757L28.4155 26.8217C28.6599 26.4003 28.8453 25.9368 28.9548 25.4396H30.32ZM23.9998 25.4396C23.3004 25.4396 22.7358 24.875 22.7358 24.1756C22.7358 23.4762 23.3004 22.9116 23.9998 22.9116C24.6993 22.9116 25.2639 23.4762 25.2639 24.1756C25.2639 24.875 24.6993 25.4396 23.9998 25.4396Z" fill="#50E6FF"/>
</svg>
