<svg data-slug-id="gear08" viewBox="0 0 49 49" xmlns="http://www.w3.org/2000/svg">
<path d="M24.0196 1.01953C15.2379 1.01953 7.70355 5.36068 3.31268 12.9951C-1.07819 20.6296 -1.07819 29.3119 3.31268 36.9463C7.70355 44.5807 15.2379 48.9219 24.0196 48.9219C37.2421 48.9219 47.9199 38.1937 47.9199 24.9707C47.9199 11.7477 37.2421 1.01953 24.0196 1.01953ZM24.0196 44.431C24.0196 44.431 23.9697 44.431 24.0196 44.431C13.242 44.431 4.51019 35.6988 4.51019 24.9707C4.51019 14.2426 13.242 5.51038 23.9697 5.51038H24.0196C34.7473 5.51038 43.4293 14.2426 43.4293 24.9707C43.4293 35.6988 34.7473 44.431 24.0196 44.431Z" fill="#50E6FF"/>
<path d="M38.9384 26.0195V23.4747H36.9425C36.6431 20.88 35.5953 18.5347 33.9986 16.6386L35.4955 15.1417L33.6992 13.3453L32.1525 14.8922C30.2564 13.3952 27.9113 12.3973 25.3167 12.1977V9.90234H22.772V12.1977C20.2273 12.4472 17.932 13.495 16.0859 14.992L14.4393 13.3453L12.643 15.1417L14.2896 16.7384C12.7428 18.5846 11.695 20.9299 11.4455 23.4747H9.2002V26.0195H11.3956C11.5952 28.6142 12.5931 31.0093 14.1399 32.9054L12.6929 34.3525L14.4892 36.1488L15.8863 34.7018C17.7823 36.3484 20.1774 37.3963 22.8219 37.6957V39.5918H25.3666V37.6957C28.0111 37.4462 30.456 36.3983 32.4019 34.8016L33.7491 36.0989L35.5454 34.3026L34.1982 33.0052C35.7949 31.0592 36.7928 28.6142 37.0423 25.9696L38.9384 26.0195ZM24.219 33.8535C19.2792 33.8535 15.2376 29.8118 15.2376 24.8718C15.2376 19.9319 19.2792 15.8901 24.219 15.8901C29.1587 15.8901 33.2003 19.9319 33.2003 24.8718C33.2003 29.8118 29.1587 33.8535 24.219 33.8535Z" fill="#0078D4"/>
</svg>
