<svg data-slug-id="gear06" viewBox="0 0 49 49" xmlns="http://www.w3.org/2000/svg">
<path d="M48.8396 16.0437V11.1005H46.448V3.31102H38.7428V0.953125H33.6733V3.31102H27.366V0.953125H22.3218V3.31102H16.0144V0.953125H10.9702V3.31102H3.24814V11.0415H0.89025V16.0858H3.24814V22.3931H0.848145V27.4373H3.24814V33.7447H0.848145V38.8479H3.24814V46.511H10.9534V48.9531H16.0228V46.511H22.3302V48.9531H27.3744V46.511H33.6817V48.9531H38.7259V46.511H46.4564V38.8394H48.848V33.7952H46.4564V27.471H48.848V22.4268H46.4564V16.0437H48.8396ZM43.8038 43.9005H5.90076V6.00576H43.8038V43.9005Z" fill="#50E6FF"/>
<path d="M42.3641 21.063V18.4778H39.6946C39.4672 16.7683 38.7936 15.1935 37.7915 13.8883L39.6862 11.9935L37.8588 10.1662L35.9641 12.0609C34.6588 11.0588 33.0841 10.3851 31.3746 10.1578V7.48828H28.7894V10.1578C27.0799 10.3851 25.5052 11.0588 24.1999 12.0609L22.3052 10.1662L20.4694 11.9935L22.3641 13.8883C21.362 15.1935 20.6883 16.7683 20.461 18.4778H17.7915V21.063H20.461C20.6883 22.7725 21.362 24.3472 22.3641 25.6525L20.4694 27.5472L22.2968 29.3746L24.1915 27.4799C25.4967 28.482 27.0715 29.1557 28.7809 29.383V32.0525H31.3662V29.383C33.0757 29.1557 34.6504 28.482 35.9557 27.4799L37.8504 29.3746L39.6778 27.5472L37.783 25.6525C38.7851 24.3472 39.4588 22.7725 39.6862 21.063H42.3641ZM30.0778 24.4314C27.5094 24.4314 25.421 22.343 25.421 19.7746C25.421 17.2062 27.5094 15.1178 30.0778 15.1178C32.6462 15.1178 34.7346 17.2062 34.7346 19.7746C34.7346 22.343 32.6462 24.4314 30.0778 24.4314Z" fill="#0078D4"/>
<path d="M22.1958 36.4893V33.9714H19.5095C19.3916 33.5083 19.2064 33.0704 18.9706 32.6662L20.8737 30.763L19.0885 28.9777L17.1853 30.8893C16.7811 30.6535 16.3432 30.4683 15.88 30.3504V27.6641H13.3622V30.3588C12.899 30.4767 12.4611 30.662 12.0653 30.8977L10.1622 28.9946L8.37691 30.763L10.2801 32.6662C10.0443 33.0704 9.85901 33.4999 9.74112 33.963H7.04639V36.4893H9.74112C9.85901 36.9525 10.0443 37.3904 10.2801 37.7862L8.37691 39.6893L10.1622 41.4746L12.0653 39.5714C12.4695 39.8072 12.899 39.9925 13.3622 40.1104V42.8051H15.88V40.1188C16.3432 40.0009 16.7811 39.8156 17.1853 39.5799L19.0885 41.483L20.8737 39.6977L18.9706 37.7946C19.2064 37.3904 19.3916 36.9525 19.5095 36.4893H22.1958V36.4893ZM14.6253 37.7525C13.2358 37.7525 12.1074 36.6241 12.1074 35.2346C12.1074 33.8451 13.2358 32.7167 14.6253 32.7167C16.0148 32.7167 17.1432 33.8451 17.1432 35.2346C17.1516 36.6241 16.0148 37.7525 14.6253 37.7525Z" fill="#0078D4"/>
</svg>
