<svg data-slug-id="gear-code" xmlns="http://www.w3.org/2000/svg" viewBox="0 0 48 48">
    <path d="M41.0247 47.9999H37.3058V45.4754H41.0247C41.5968 45.4754 41.7819 45.2819 41.8408 45.223C42.3541 44.6928 42.312 43.2371 42.2783 42.3619C42.2699 42.1431 42.2699 41.9411 42.2699 41.756C42.2699 40.2497 42.211 31.3803 42.211 31.2962V31.2878C42.211 28.4267 43.2964 25.9022 45.2905 24.0256C44.6679 23.4113 44.1378 22.7045 43.6835 21.8966C43.0356 20.7354 42.2615 18.7999 42.2615 16.1576C42.2615 16.1576 42.2615 8.63461 42.2615 6.50562C42.2615 6.40464 42.2615 6.30366 42.2615 6.20268C42.2615 5.06666 42.2699 3.35 41.7062 2.78619C41.6473 2.72729 41.4874 2.5674 41.0163 2.5674H37.2974V0.0429077H41.0163C42.0259 0.0429077 42.8589 0.362677 43.4984 1.00222C44.8025 2.30654 44.7941 4.46919 44.7857 6.2111C44.7857 6.31208 44.7857 6.41306 44.7857 6.50562C44.7857 8.6262 44.7857 16.1576 44.7857 16.1576C44.7857 18.2529 45.383 19.7676 45.8795 20.6596C46.4264 21.6358 47.1331 22.4184 47.9829 22.9822L47.9997 25.0775C46.5105 26.0957 44.7268 27.9975 44.7268 31.2794C44.7268 31.515 44.7857 40.2581 44.7857 41.756C44.7857 41.9075 44.7941 42.0926 44.7941 42.2862C44.8361 43.641 44.895 45.6858 43.6414 46.9817C43.0019 47.6549 42.1185 47.9999 41.0247 47.9999Z" fill="#50E6FF"/>
    <path d="M10.7532 48H7.03425C6.02459 48 5.19163 47.6802 4.55218 47.0407C3.24803 45.7364 3.25645 43.5737 3.26486 41.8318C3.26486 41.7308 3.26486 41.6299 3.26486 41.5373C3.26486 39.4167 3.26486 31.8853 3.26486 31.8853C3.26486 29.79 2.66748 28.2753 2.17106 27.3833C1.62417 26.4071 0.917405 25.6245 0.0676089 25.0607L0.0507812 22.9654C1.54003 21.9472 3.32376 20.0454 3.32376 16.7636C3.32376 16.5279 3.26486 7.78476 3.26486 6.28689C3.26486 6.13542 3.25645 5.95029 3.25645 5.75675C3.21438 4.40193 3.14707 2.35709 4.40073 1.06118C5.057 0.387983 5.94046 0.0429688 7.02584 0.0429688H10.7447V2.56747H7.03425C6.46211 2.56747 6.27701 2.76101 6.21811 2.81992C5.70487 3.35006 5.74694 4.80585 5.78059 5.68101C5.78901 5.8998 5.78901 6.10176 5.78901 6.28689C5.78901 7.79317 5.8479 16.6626 5.8479 16.7467V16.7551C5.8479 19.6162 4.76252 22.1407 2.76845 24.0173C3.39107 24.6316 3.92114 25.3384 4.37549 26.1463C5.02335 27.3075 5.79742 29.243 5.79742 31.8853C5.79742 31.8853 5.79742 39.4083 5.79742 41.5373C5.79742 41.6383 5.79742 41.7392 5.79742 41.8402C5.79742 42.9762 5.78901 44.6929 6.35273 45.2567C6.41163 45.3156 6.57149 45.4755 7.04267 45.4755H10.7616V48H10.7532Z" fill="#50E6FF"/>
    <path d="M40.4778 25.7022V22.2353H36.8935C36.5906 19.938 35.6819 17.8342 34.3441 16.0839L36.8767 13.551L34.4283 11.1022L31.8873 13.6267C30.1372 12.2887 28.0254 11.3799 25.7368 11.077V7.49219H22.2703V11.077C19.9733 11.3799 17.8699 12.2887 16.1198 13.6267L13.5872 11.0938L11.1388 13.5426L13.6714 16.0755C12.3336 17.8258 11.4249 19.938 11.122 22.2268H7.5293V25.6938H11.1136C11.4165 27.9911 12.3252 30.0949 13.663 31.8452L11.1304 34.3781L13.5788 36.8268L16.1114 34.2939C17.8615 35.6319 19.9733 36.5407 22.2619 36.8437V40.4285H25.7284V36.8605C28.0254 36.5576 30.1288 35.6487 31.8789 34.3108L34.4115 36.8437L36.8599 34.3949L34.3273 31.862C35.6651 30.1117 36.5738 27.9995 36.8767 25.7106H40.4778V25.7022ZM24.0036 31.9209C19.62 31.9209 16.0525 28.3529 16.0525 23.9687C16.0525 19.5845 19.62 16.0166 24.0036 16.0166C28.3872 16.0166 31.9546 19.5845 31.9546 23.9687C31.9546 28.3529 28.3872 31.9209 24.0036 31.9209Z" fill="#0078D4"/>
</svg>
