<svg data-slug-id="gear01" viewBox="0 0 49 49" xmlns="http://www.w3.org/2000/svg">
<path d="M41.0431 48.9219H37.3243V46.3974H41.0431C41.6152 46.3974 41.8003 46.2038 41.8592 46.1449C42.3724 45.6148 42.3304 44.159 42.2967 43.2838C42.2883 43.065 42.2883 42.8631 42.2883 42.678C42.2883 41.1717 42.2294 32.3023 42.2294 32.2181V32.2097C42.2294 29.3486 43.3147 26.8241 45.3087 24.9476C44.6861 24.3333 44.1561 23.6264 43.7018 22.8186C43.0539 21.6573 42.2799 19.7219 42.2799 17.0796C42.2799 17.0796 42.2799 9.55655 42.2799 7.42756C42.2799 7.32658 42.2799 7.2256 42.2799 7.12462C42.2799 5.98859 42.2883 4.27193 41.7246 3.70813C41.6657 3.64923 41.5058 3.48934 41.0347 3.48934H37.3159V0.964844H41.0347C42.0443 0.964844 42.8772 1.28461 43.5167 1.92415C44.8208 3.22848 44.8124 5.39113 44.8039 7.13303C44.8039 7.23401 44.8039 7.33499 44.8039 7.42756C44.8039 9.54813 44.8039 17.0796 44.8039 17.0796C44.8039 19.1749 45.4013 20.6896 45.8977 21.5816C46.4446 22.5577 47.1513 23.3403 48.0011 23.9041L48.0179 25.9994C46.5287 27.0177 44.745 28.9194 44.745 32.2013C44.745 32.4369 44.8039 41.1801 44.8039 42.678C44.8039 42.8294 44.8124 43.0146 44.8124 43.2081C44.8544 44.5629 44.9133 46.6078 43.6597 47.9037C43.0203 48.5769 42.1369 48.9219 41.0431 48.9219Z" fill="#50E6FF"/>
<path d="M10.7723 48.9219H7.05352C6.0439 48.9219 5.21096 48.6021 4.57154 47.9626C3.26744 46.6582 3.27586 44.4956 3.28427 42.7537C3.28427 42.6527 3.28427 42.5517 3.28427 42.4592C3.28427 40.3386 3.28427 32.8072 3.28427 32.8072C3.28427 30.7118 2.68691 29.1971 2.19052 28.3051C1.64364 27.329 0.936903 26.5464 0.0871395 25.9826L0.0703125 23.8873C1.5595 22.8691 3.34317 20.9673 3.34317 17.6854C3.34317 17.4498 3.28427 8.70663 3.28427 7.20877C3.28427 7.0573 3.27586 6.87217 3.27586 6.67862C3.23379 5.32381 3.16648 3.27897 4.42009 1.98306C5.07635 1.30986 5.95976 0.964844 7.04511 0.964844H10.7639V3.48934H7.05352C6.4814 3.48934 6.29631 3.68289 6.23741 3.74179C5.72419 4.27194 5.76625 5.72773 5.79991 6.60289C5.80832 6.82168 5.80832 7.02364 5.80832 7.20877C5.80832 8.71505 5.86722 17.5844 5.86722 17.6686V17.677C5.86722 20.5381 4.78187 23.0626 2.78787 24.9392C3.41047 25.5534 3.94052 26.2603 4.39485 27.0681C5.04269 28.2294 5.81674 30.1649 5.81674 32.8072C5.81674 32.8072 5.81674 40.3302 5.81674 42.4592C5.81674 42.5601 5.81674 42.6611 5.81674 42.7621C5.81674 43.8981 5.80832 45.6148 6.37203 46.1786C6.43092 46.2375 6.59078 46.3974 7.06193 46.3974H10.7807V48.9219H10.7723Z" fill="#50E6FF"/>
<path d="M40.4956 26.6241V23.1571H36.9115C36.6086 20.8598 35.6999 18.7561 34.3622 17.0058L36.8946 14.4729L34.4463 12.0241L31.9054 14.5486C30.1554 13.2106 28.0436 12.3018 25.7552 11.9988V8.41406H22.2888V11.9988C19.9919 12.3018 17.8885 13.2106 16.1385 14.5486L13.6061 12.0157L11.1577 14.4644L13.6902 16.9974C12.3525 18.7477 11.4438 20.8598 11.1409 23.1487H7.54834V26.6157H11.1325C11.4354 28.913 12.344 31.0167 13.6818 32.767L11.1493 35.3L13.5976 37.7487L16.1301 35.2158C17.8801 36.5538 19.9919 37.4626 22.2804 37.7655V41.3503H25.7467V37.7824C28.0436 37.4794 30.147 36.5706 31.897 35.2326L34.4295 37.7655L36.8778 35.3168L34.3454 32.7839C35.6831 31.0336 36.5918 28.9214 36.8946 26.6325H40.4956V26.6241ZM24.022 32.8428C19.6385 32.8428 16.0712 29.2748 16.0712 24.8906C16.0712 20.5064 19.6385 16.9384 24.022 16.9384C28.4054 16.9384 31.9727 20.5064 31.9727 24.8906C31.9727 29.2748 28.4054 32.8428 24.022 32.8428Z" fill="#0078D4"/>
</svg>
