<svg data-slug-id="gear02" viewBox="0 0 49 49" xmlns="http://www.w3.org/2000/svg">
<path d="M24.0198 41.3999C33.121 41.3999 40.4991 34.0219 40.4991 24.9207C40.4991 15.8194 33.121 8.44141 24.0198 8.44141C14.9185 8.44141 7.54053 15.8194 7.54053 24.9207C7.54053 34.0219 14.9185 41.3999 24.0198 41.3999Z" fill="#50E6FF"/>
<path d="M42.8214 22.3781C42.379 19.1707 41.1624 16.0739 39.061 13.4196L42.7108 9.7698L39.1716 6.23063L35.5218 9.8804C32.8675 7.88962 29.7707 6.56243 26.5633 6.12003V0.921875H21.4758V6.12003C18.2684 6.56243 15.1716 7.77902 12.5172 9.8804L8.86746 6.23063L5.32829 9.7698L8.97806 13.4196C6.98727 16.0739 5.66008 19.1707 5.21769 22.3781H0.0195312V27.4657H5.21769C5.66008 30.7836 6.98727 33.7698 8.97806 36.4242L5.32829 40.0739L8.86746 43.6131L12.5172 39.9633C15.1716 41.9541 18.1578 43.2813 21.4758 43.7237V48.9219H26.5633V43.7237C29.7707 43.2813 32.8675 42.0647 35.5218 39.9633L39.1716 43.6131L42.7108 40.0739L39.061 36.4242C41.0518 33.7698 42.379 30.673 42.8214 27.4657H48.0195V22.3781H42.8214V22.3781ZM38.2868 29.2352C37.2914 32.5532 35.19 35.4288 32.3145 37.309C29.4389 39.1892 26.0103 40.074 22.5817 39.7422C19.1532 39.4104 15.9458 37.862 13.5126 35.4288C12.0748 33.991 10.9688 32.4426 10.3052 30.5624C9.53105 28.7928 9.19925 26.8021 9.19925 24.8113C9.19925 21.3827 10.4158 17.9541 12.6278 15.2998C14.8398 12.6454 17.826 10.7652 21.2546 10.1016C24.6831 9.438 28.2223 9.991 31.2085 11.5394C34.3052 13.1984 36.6278 15.8528 37.955 18.9495C39.1716 22.3781 39.2822 25.9173 38.2868 29.2352Z" fill="#0078D4"/>
<path d="M31.7618 16.8477L20.8125 27.797L16.3885 23.373L14.0659 25.585L20.8125 32.4421L33.9738 19.1702L31.7618 16.8477Z" fill="#0075DA"/>
</svg>
