<svg data-slug-id="gear-keyhole" xmlns="http://www.w3.org/2000/svg" viewBox="0 0 97 97">
  <path d="M85.803 43.3529C84.9103 36.6643 82.2819 30.5484 78.373 25.4266L85.7526 18.0472L78.6091 10.9036L71.2295 18.283C66.1074 14.3911 59.9917 11.746 53.3031 10.853V0.407227H43.1942V10.8362C36.5055 11.7291 30.3897 14.3574 25.2679 18.2662L17.9053 10.9036L10.7618 18.0472L18.1412 25.4266C14.2493 30.5484 11.6042 36.6643 10.7112 43.3529H0.248535V53.4618H10.6774C11.5704 60.1505 14.1987 66.2665 18.1074 71.3879L10.728 78.7676L17.8716 85.9111L25.2511 78.5315C30.3729 82.4234 36.4887 85.0688 43.1774 85.9615V96.3907H53.2862V85.9615C59.9749 85.0688 66.0911 82.4404 71.2124 78.5315L78.5921 85.9111L85.7356 78.7676L78.356 71.3879C82.2479 66.2665 84.8933 60.1505 85.786 53.4618H96.2485V43.3529H85.803Z" fill="#0078D4"/>
  <path d="M57.9876 74.4544L52.175 58.1118C56.5892 56.4606 59.7567 52.2318 59.7567 47.2447C59.7567 40.8761 54.6011 35.7375 48.2494 35.7375C41.8809 35.7375 36.7422 40.893 36.7422 47.2447C36.7422 52.2655 39.9433 56.5112 44.4081 58.078L38.6797 74.4878L38.8145 74.5388C38.8145 74.5388 38.9156 74.5721 38.9661 74.5891C41.6786 75.5492 44.7787 76.2065 48.1652 76.2065C51.4337 76.2065 54.5843 75.6336 57.499 74.6061C57.6169 74.5721 57.836 74.4878 57.836 74.4878L57.9876 74.4544Z" fill="#0078D4"/>
  <path d="M68.7522 67.1254C73.234 62.1892 75.9631 55.6353 75.9631 48.4412C75.9631 33.0926 63.5294 20.6587 48.1807 20.6587C46.26 20.6587 44.3898 20.8609 42.5871 21.2147C42.5702 21.2147 42.5534 21.2315 42.5365 21.2315C42.1322 21.3158 41.7447 21.4001 41.3403 21.5011C41.1045 21.5685 40.8686 21.6359 40.6496 21.6864C40.4811 21.737 40.2958 21.7875 40.1273 21.8381C35.8478 23.1522 31.9222 25.4941 28.6537 28.7626C23.3971 34.0192 20.5161 40.9775 20.5161 48.3906C20.5161 55.8038 23.3971 62.7789 28.6537 68.0187C31.5516 70.9165 34.9886 73.1068 38.7289 74.4717L44.4404 58.0782C39.9925 56.5114 36.7745 52.2488 36.7745 47.2449C36.7745 40.8764 41.93 35.7377 48.2817 35.7377C54.6503 35.7377 59.7889 40.8932 59.7889 47.2449C59.7889 52.232 56.6215 56.4609 52.1905 58.0614L58.003 74.4043C61.6759 73.0394 65.029 70.8825 67.8758 68.0521C68.1119 67.8166 68.348 67.5635 68.5671 67.3281C68.6174 67.2607 68.6848 67.1934 68.7522 67.1254Z" fill="#50E6FF"/>
</svg>
