<svg data-slug-id="gear07" viewBox="0 0 49 49" xmlns="http://www.w3.org/2000/svg">
<path d="M36.1228 39.2988L34.1836 37.6631L44.7565 25.134L34.5124 12.1581L36.4938 10.5898L48.0195 25.1846L36.1228 39.2988Z" fill="#0078D4"/>
<path d="M11.5452 39.2474L0.0195312 24.661L11.9246 10.5469L13.8554 12.1741L3.28248 24.7116L13.5266 37.6791L11.5452 39.2474Z" fill="#0078D4"/>
<path d="M24.1593 29.7445C26.6366 29.7445 28.6448 27.7362 28.6448 25.2589C28.6448 22.7817 26.6366 20.7734 24.1593 20.7734C21.6821 20.7734 19.6738 22.7817 19.6738 25.2589C19.6738 27.7362 21.6821 29.7445 24.1593 29.7445Z" fill="#50E6FF"/>
<path d="M35.6929 23.6757L32.3035 23.2794L32.2023 22.9337C32.0169 22.2845 31.747 21.6522 31.4014 21.062L31.2159 20.7416L33.0286 18.4567C33.172 18.2712 33.1804 18.0351 33.0539 17.9086L31.3002 16.1549C31.1653 16.02 30.9292 16.0284 30.7521 16.1802L28.4082 18.0351L28.0963 17.8665C27.5398 17.5714 26.9243 17.3353 26.2751 17.1667L25.9125 17.0739L25.5331 13.811C25.5078 13.5833 25.3476 13.4062 25.1621 13.4062H22.6833C22.4978 13.4062 22.3376 13.5833 22.3123 13.811L21.9161 17.192L21.5872 17.3016C21.0055 17.4871 20.4321 17.7484 19.8841 18.0857L19.5637 18.2796L17.0427 16.2898C16.8572 16.1465 16.6211 16.138 16.4947 16.2645L14.7409 18.0182C14.606 18.1531 14.6229 18.3892 14.7662 18.5663L16.8488 21.2053L16.697 21.5173C16.4609 21.981 16.2755 22.4616 16.1321 22.9506L16.0309 23.2963L12.6415 23.6926C12.4139 23.7179 12.2368 23.8781 12.2368 24.0635V26.5424C12.2368 26.7279 12.4139 26.8881 12.6415 26.9134L16.0394 27.3096L16.1405 27.6553C16.2839 28.1275 16.4694 28.6081 16.7055 29.0634L16.8656 29.3753L14.7662 32.0312C14.6229 32.2167 14.6145 32.4528 14.7409 32.5793L16.4947 34.333C16.6296 34.4679 16.8656 34.451 17.0427 34.3077L19.5974 32.2842L19.9178 32.4781C20.4406 32.7901 20.997 33.043 21.5535 33.2201L21.8823 33.3297L22.2617 36.5758C22.287 36.8034 22.4472 36.9805 22.6327 36.9805H25.1115C25.297 36.9805 25.4572 36.8034 25.4825 36.5758L25.8451 33.473L26.2076 33.3803C26.8484 33.2201 27.4639 32.984 28.0288 32.6889L28.3408 32.5287L30.651 34.3583C30.8365 34.5016 31.0725 34.5101 31.199 34.3836L32.9527 32.6299C33.0876 32.495 33.0792 32.2589 32.9274 32.0818L31.1653 29.8559L31.3592 29.5355C31.7218 28.9285 32 28.2961 32.1855 27.6553L32.2867 27.3096L35.6929 26.9134C35.9206 26.8881 36.0976 26.7279 36.0976 26.5424V24.0635C36.0976 23.8612 35.9206 23.701 35.6929 23.6757ZM24.1588 30.834C21.0813 30.834 18.5857 28.3298 18.5857 25.2608C18.5857 22.1833 21.0898 19.6876 24.1588 19.6876C27.2278 19.6876 29.7319 22.1918 29.7319 25.2608C29.7319 28.3298 27.2278 30.834 24.1588 30.834Z" fill="#0078D7"/>
</svg>
