<svg data-slug-id="gear04" viewBox="0 0 49 49" xmlns="http://www.w3.org/2000/svg">
<path d="M47.733 30.4544C47.7582 30.3449 47.7751 30.2438 47.8003 30.1344C47.9266 29.4775 47.994 28.7954 47.994 28.0965C47.994 22.1175 43.1443 17.2838 37.1833 17.2838C36.3498 17.2838 35.5331 17.3765 34.7669 17.5617C32.3 13.6712 27.9555 11.0859 23.0048 11.0859C15.3178 11.0859 9.09578 17.3259 9.09578 24.9975C9.09578 25.1912 9.09578 25.3765 9.1042 25.5617C8.40538 25.3259 7.65604 25.1912 6.87302 25.1912C3.08424 25.1912 0.0195312 28.2565 0.0195312 32.0459C0.0195312 35.5996 2.7222 38.5217 6.19104 38.8586L37.1833 38.9175C41.2584 38.9175 44.7946 36.6691 46.6384 33.3596C46.6889 33.267 46.7395 33.1744 46.79 33.0733C47.0678 32.5007 47.4804 31.608 47.733 30.4544Z" fill="#0078D4"/>
<path d="M32.9145 25.9154V24.0459H30.9864C30.818 22.808 30.3381 21.6796 29.6141 20.7364L30.978 19.3722L29.6561 18.0501L28.3006 19.4143C27.3576 18.6901 26.221 18.2101 24.9917 18.0417V16.1133H23.1226V18.0417C21.8849 18.2101 20.7567 18.6901 19.8137 19.4143L18.4498 18.0501L17.1279 19.3722L18.4919 20.7364C17.7678 21.6796 17.2879 22.8164 17.1195 24.0459H15.1914V25.9154H17.1195C17.2879 27.1533 17.7678 28.2817 18.4919 29.2249L17.1279 30.5891L18.4498 31.9112L19.8137 30.547C20.7567 31.2712 21.8933 31.7512 23.1226 31.9196V33.848H24.9917V31.9196C26.2294 31.7512 27.3576 31.2712 28.3006 30.547L29.6646 31.9112L30.9864 30.5891L29.6225 29.2249C30.3465 28.2817 30.8265 27.1449 30.9949 25.9154H32.9145ZM24.0572 28.9133C21.8849 28.9133 20.1252 27.1449 20.1252 24.9807C20.1252 22.808 21.8933 21.048 24.0572 21.048C26.2294 21.048 27.9891 22.8164 27.9891 24.9807C27.9891 27.1533 26.221 28.9133 24.0572 28.9133Z" fill="#50E6FF"/>
</svg>
