<svg data-slug-id="geocoding" xmlns="http://www.w3.org/2000/svg" viewBox="0 0 49 49">
    <path d="M20.6695 2.61603H11.5308V46.0446H20.6695V2.61603Z" fill="#0078D4"/>
    <path d="M45.801 11.7589H2.39209V20.9018H45.801V11.7589Z" fill="#0078D4"/>
    <path d="M43.5162 27.7589V43.7543H27.5234V27.7589H43.5162ZM45.8009 25.4732H25.2388V46.0401H45.8009V25.4732Z" fill="#50E6FF"/>
    <path d="M45.8009 2.61603H25.2388V7.18746H45.8009V2.61603Z" fill="#50E6FF"/>
    <path d="M6.96144 2.61603H2.39209V7.18746H6.96144V2.61603Z" fill="#50E6FF"/>
    <path d="M6.96144 25.4732H2.39209V46.0446H6.96144V25.4732Z" fill="#50E6FF"/>
    <path d="M35.4868 40.3417C38.0104 40.3417 40.0562 38.295 40.0562 35.7703C40.0562 33.2456 38.0104 31.1989 35.4868 31.1989C32.9632 31.1989 30.9175 33.2456 30.9175 35.7703C30.9175 38.295 32.9632 40.3417 35.4868 40.3417Z" fill="#0078D4"/>
</svg>
