<svg data-slug-id="geofencing" xmlns="http://www.w3.org/2000/svg" viewBox="0 0 49 49">
    <path d="M21.8808 38.3633C30.8848 38.3633 38.184 31.0642 38.184 22.0602C38.184 13.0562 30.8848 5.75702 21.8808 5.75702C12.8768 5.75702 5.57764 13.0562 5.57764 22.0602C5.57764 31.0642 12.8768 38.3633 21.8808 38.3633Z" fill="#0078D4"/>
    <path d="M38.2426 4.40121L34.6468 7.997L34.6132 8.03069C34.8405 8.23279 35.0595 8.44332 35.2784 8.66227C37.0216 10.4054 38.3858 12.4265 39.3374 14.6833C40.3226 17.016 40.8279 19.5002 40.8279 22.0517C40.8279 24.6033 40.3311 27.0875 39.3374 29.4202C38.3858 31.677 37.0216 33.6981 35.2784 35.4412C33.5353 37.1844 31.5142 38.5486 29.2574 39.5002C26.9163 40.5023 24.4405 40.9991 21.8805 40.9991C19.3205 40.9991 16.8447 40.5023 14.5121 39.5086C12.2553 38.557 10.2342 37.1928 8.49106 35.4496C8.27211 35.2307 8.06159 35.0117 7.85948 34.7844L6.07422 36.5696C9.69527 40.5107 14.7732 43.0959 20.4574 43.4665V46.0433H10.3605V48.5612H33.0721V46.0433H22.9668V43.4917C34.3184 42.9275 43.3458 33.5465 43.3458 22.0517C43.3458 16.696 41.3837 11.8033 38.1416 8.04753L40.0195 6.16964L38.2426 4.40121Z" fill="#50E6FF"/>
    <path d="M24.4578 8.82226C22.1336 8.6791 20.1378 10.4475 19.9947 12.7633C19.8515 15.0875 24.1799 20.8223 24.1799 20.8223C24.1799 20.8223 28.2557 15.6012 28.3989 13.277C28.5421 10.9696 26.7736 8.96542 24.4578 8.82226Z" fill="#50E6FF"/>
    <path d="M26.7318 13.1675C26.6475 14.5654 25.4433 15.6265 24.0454 15.5423C22.6475 15.4581 21.5865 14.2538 21.6707 12.856C21.7549 11.4581 22.9591 10.397 24.357 10.4812C25.7549 10.5654 26.816 11.7696 26.7318 13.1675Z" fill="#0078D4"/>
</svg>
