<svg data-slug-id="globe-glyph" xmlns="http://www.w3.org/2000/svg" viewBox="0 0 49 49">
<path d="M21.8696 38.0282C30.8735 38.0282 38.1727 30.729 38.1727 21.725C38.1727 12.721 30.8735 5.42188 21.8696 5.42188C12.8656 5.42188 5.56641 12.721 5.56641 21.725C5.56641 30.729 12.8656 38.0282 21.8696 38.0282Z" fill="#0078D4"/>
<path d="M38.2317 4.06641L34.6359 7.6622L34.6022 7.69588C34.8295 7.89798 35.0485 8.10851 35.2674 8.32746C37.0106 10.0706 38.3748 12.0917 39.3264 14.3485C40.3117 16.6811 40.8169 19.1654 40.8169 21.7169C40.8169 24.2685 40.3201 26.7527 39.3264 29.0854C38.3748 31.3422 37.0106 33.3632 35.2674 35.1064C33.5243 36.8496 31.5032 38.2138 29.2464 39.1654C26.9053 40.1675 24.4295 40.6643 21.8695 40.6643C19.3095 40.6643 16.8338 40.1675 14.5011 39.1738C12.2443 38.2222 10.2232 36.858 8.48007 35.1148C8.26113 34.8959 8.0506 34.6769 7.8485 34.4496L6.06323 36.2348C9.68428 40.1759 14.7622 42.7611 20.4464 43.1317V45.7085H10.3495V48.2264H33.0611V45.7085H22.9559V43.1569C34.3074 42.5927 43.3348 33.2117 43.3348 21.7169C43.3348 16.3611 41.3727 11.4685 38.1306 7.71272L40.0085 5.83483L38.2317 4.06641Z" fill="#50E6FF"/>
<path d="M24.4464 8.48468C22.1222 8.34152 20.1264 10.1099 19.9832 12.4257C19.8401 14.7499 24.1685 20.4847 24.1685 20.4847C24.1685 20.4847 28.2443 15.2636 28.3874 12.9394C28.5306 10.632 26.7622 8.62783 24.4464 8.48468Z" fill="#50E6FF"/>
<path d="M26.7203 12.8316C26.6361 14.2295 25.4319 15.2906 24.034 15.2064C22.6361 15.1222 21.575 13.9179 21.6592 12.52C21.7434 11.1222 22.9476 10.0611 24.3455 10.1453C25.7434 10.2295 26.8045 11.4337 26.7203 12.8316Z" fill="#0078D4"/>
</svg>
