<svg data-slug-id="globe-computer" xmlns="http://www.w3.org/2000/svg" viewBox="0 0 49 49">
    <path d="M26.9718 1.15469C26.6718 1.05469 26.3718 1.05469 26.0718 1.05469C25.9718 1.05469 25.7718 1.05469 25.6718 1.05469C25.4718 1.05469 25.2718 1.05469 25.0718 1.05469C13.7718 1.05469 4.57178 10.2547 4.57178 21.5547C4.57178 21.7547 4.57178 21.8547 4.57178 22.0547H2.57178V42.0547H17.5718V46.0547H11.5718V48.0547H25.5718V46.0547H19.5718V42.0547H34.5718V39.6547C41.0718 36.2547 45.5718 29.3547 45.5718 21.5547C45.5718 10.8547 37.3718 2.05469 26.9718 1.15469ZM25.7718 3.05469C26.0718 3.05469 26.3718 3.05469 26.6718 3.05469C28.8718 3.65469 30.7718 7.45469 31.7718 12.9547H20.3718C21.4718 7.35469 23.4718 3.45469 25.7718 3.05469ZM21.9718 3.35469C20.1718 5.55469 19.0718 9.05469 18.3718 13.0547H8.67178C11.2718 8.05469 16.1718 4.35469 21.9718 3.35469ZM7.77178 15.0547H17.9718C17.6718 17.3547 17.5718 19.7547 17.4718 22.0547H6.57178C6.57178 21.8547 6.57178 21.7547 6.57178 21.5547C6.57178 19.2547 6.97178 17.0547 7.77178 15.0547ZM32.5718 40.0547H4.57178V24.0547H32.5718V40.0547ZM19.5718 22.0547C19.5718 19.5547 19.7718 17.2547 20.0718 15.0547H32.1718C32.4718 17.2547 32.6718 19.5547 32.6718 22.0547H19.5718ZM30.5718 3.95469C35.2718 5.45469 39.1718 8.75469 41.4718 13.0547H33.7718C33.1718 9.35469 32.0718 6.05469 30.5718 3.95469ZM34.5718 37.3547V29.5547H41.7718C40.1718 32.8547 37.6718 35.5547 34.5718 37.3547ZM34.5718 27.5547V22.4547C34.5718 22.3547 34.5718 22.3547 34.5718 22.2547C34.5718 19.8547 34.4718 17.3547 34.0718 15.0547H42.2718C43.0718 17.0547 43.4718 19.2547 43.4718 21.5547C43.4718 23.6547 43.0718 25.6547 42.4718 27.5547H34.5718Z" fill="#0078D4"/>
</svg>
