<svg data-slug-id="globe09" viewBox="0 0 61 61" xmlns="http://www.w3.org/2000/svg">
<path d="M49.3955 12.0352H11.9258V49.5049H49.3955V12.0352Z" fill="#50E6FF"/>
<path d="M16.0595 12.2734H12.1279V16.1923H16.0595V12.2734Z" fill="#0078D4"/>
<path d="M21.9379 12.2734H18.0063V16.1923H21.9379V12.2734Z" fill="#0078D4"/>
<path d="M37.4873 16.1923H33.5684V12.2734H35.5657L37.4873 14.4731V16.1923Z" fill="#0078D4"/>
<path d="M25.7682 12.2734H23.834V16.1923H25.7682V12.2734Z" fill="#0078D4"/>
<path d="M28.6632 12.2734H26.729V16.1923H28.6632V12.2734Z" fill="#0078D4"/>
<path d="M16.0595 18.1016H12.1279V23.9926H16.0595V18.1016Z" fill="#0078D4"/>
<path d="M23.7708 18.0391H17.9683V23.8416H23.7708V18.0391Z" fill="#0078D4"/>
<path d="M31.6214 18.0391H25.8188V23.8416H31.6214V18.0391Z" fill="#0078D4"/>
<path d="M37.4743 20.1502L35.5528 22.0212L33.606 22.0465V18.0391H37.4743V20.1502Z" fill="#0078D4"/>
<path d="M39.3708 27.8133H33.7832V25.8918L37.4872 22.0234H39.3708V27.8133Z" fill="#0078D4"/>
<path d="M12.1533 39.5953V25.9297H17.0962V35.6764L14.3656 39.57L12.1533 39.5953Z" fill="#0078D4"/>
<path d="M43.4031 19.2422L41.4058 21.1005V25.9675H43.4031V19.2422Z" fill="#0078D4"/>
<path d="M38.5488 18.0771H39.4717L41.3806 16.1556V12.3125H38.5488V18.0771Z" fill="#0078D4"/>
<path d="M42.1265 15.4233L43.0493 14.5131V12.3008H42.1265V15.4233Z" fill="#0078D4"/>
<path d="M28.7897 25.9297H24.9214V31.7322H28.7897V25.9297Z" fill="#0078D4"/>
<path d="M19.8774 35.4987L23.7458 31.4913V25.9922H19.8774V35.4987Z" fill="#0078D4"/>
<path d="M29.6494 33.6914H23.7837V39.5571H29.6494V33.6914Z" fill="#0078D4"/>
<path d="M49.1048 41.5391H39.4087V49.2757H49.1048V41.5391Z" fill="#0078D4"/>
<path d="M35.4898 41.5156H31.5962V49.2523H35.4898V41.5156Z" fill="#0078D4"/>
<path d="M35.5149 35.6484H31.5454V39.6179H35.5149V35.6484Z" fill="#0078D4"/>
<path d="M41.3809 37.5826H39.3582V35.6737L37.4746 35.6864V31.7422H39.3203L41.3809 33.512V37.5826Z" fill="#0078D4"/>
<path d="M29.6364 40.7188H12.0898V42.6403H29.6364V40.7188Z" fill="#0078D4"/>
<path d="M21.8874 44.3984H12.166V49.3034H21.8874V44.3984Z" fill="#0078D4"/>
<path d="M29.6367 44.3984H23.771V49.3034H29.6367V44.3984Z" fill="#0078D4"/>
<path d="M22.7344 34.7891L18.019 39.5802H22.7344V34.7891Z" fill="#0078D4"/>
<path d="M35.5278 28.8086H29.6494V31.7794H35.5278V28.8086Z" fill="#0078D4"/>
<path d="M49.1301 36.1164L41.3555 29.8082V27.8867H49.1301V36.1164Z" fill="#0078D4"/>
<path d="M49.0794 12.3242H45.2363V22.033H49.0794V12.3242Z" fill="#0078D4"/>
<path d="M49.1046 24.0195H45.2109V25.9411H49.1046V24.0195Z" fill="#0078D4"/>
<path d="M43.3398 39.5939H49.1297V39.5433L43.3398 34.5625V39.5939Z" fill="#0078D4"/>
</svg>
