<svg data-slug-id="globe06" viewBox="0 0 49 49" xmlns="http://www.w3.org/2000/svg">
<path d="M23.9185 36.9357C33.6432 36.9357 41.5309 29.048 41.5309 19.3233C41.5309 9.59858 33.6432 1.71094 23.9185 1.71094C14.1938 1.71094 6.30615 9.59858 6.30615 19.3233C6.30615 29.0564 14.1854 36.9357 23.9185 36.9357Z" fill="#0078D4"/>
<path d="M41.5982 0.246094L37.7133 4.13093L37.6796 4.16463C37.924 4.38373 38.1599 4.61126 38.3959 4.84722C40.2751 6.72643 41.7498 8.91744 42.7779 11.3528C43.8397 13.8725 44.3875 16.5607 44.3875 19.3163C44.3875 22.0719 43.8482 24.7601 42.7779 27.2798C41.7498 29.7152 40.2751 31.8978 38.3959 33.7854C36.5167 35.6646 34.3257 37.1393 31.8903 38.1674C29.3622 39.2461 26.6824 39.7854 23.9184 39.7854C21.1543 39.7854 18.4746 39.2461 15.9549 38.1759C13.5195 37.1478 11.3369 35.6731 9.44927 33.7938C9.21332 33.5579 8.98579 33.3219 8.76669 33.0776L6.83691 35.0073C10.747 39.2629 16.233 42.0607 22.3762 42.4568V45.2377H11.4717V47.9596H36.0111V45.2377H25.0897V42.482C37.351 41.8753 47.1094 31.7377 47.1094 19.3163C47.1094 13.527 44.9858 8.24328 41.4886 4.18991L43.5111 2.15902L41.5982 0.246094Z" fill="#50E6FF"/>
<path d="M33.4071 16.6338H14.6655C13.57 16.6338 12.6768 15.7489 12.6768 14.645C12.6768 13.5495 13.5616 12.6562 14.6655 12.6562H33.4071C34.5026 12.6562 35.3959 13.5411 35.3959 14.645C35.3959 15.7489 34.5026 16.6338 33.4071 16.6338Z" fill="#50E6FF"/>
<path d="M30.0957 15.9356C30.7985 15.9356 31.3682 15.3659 31.3682 14.6631C31.3682 13.9603 30.7985 13.3906 30.0957 13.3906C29.3929 13.3906 28.8232 13.9603 28.8232 14.6631C28.8232 15.3659 29.3929 15.9356 30.0957 15.9356Z" fill="#0078D4"/>
<path d="M33.4155 15.9356C34.1183 15.9356 34.688 15.3659 34.688 14.6631C34.688 13.9603 34.1183 13.3906 33.4155 13.3906C32.7128 13.3906 32.1431 13.9603 32.1431 14.6631C32.1431 15.3659 32.7128 15.9356 33.4155 15.9356Z" fill="#0078D4"/>
<path d="M14.6318 21.2852H33.3734C34.4689 21.2852 35.3622 22.17 35.3622 23.2739C35.3622 24.3694 34.4773 25.2627 33.3734 25.2627H14.6318C13.5363 25.2627 12.6431 24.3779 12.6431 23.2739C12.6515 22.17 13.5363 21.2852 14.6318 21.2852Z" fill="#50E6FF"/>
<path d="M33.0869 24.5567C33.7897 24.5567 34.3594 23.987 34.3594 23.2842C34.3594 22.5814 33.7897 22.0117 33.0869 22.0117C32.3842 22.0117 31.8145 22.5814 31.8145 23.2842C31.8145 23.987 32.3842 24.5567 33.0869 24.5567Z" fill="#0078D4"/>
<path d="M29.7666 24.5567C30.4694 24.5567 31.0391 23.987 31.0391 23.2842C31.0391 22.5814 30.4694 22.0117 29.7666 22.0117C29.0638 22.0117 28.4941 22.5814 28.4941 23.2842C28.4941 23.987 29.0638 24.5567 29.7666 24.5567Z" fill="#0078D4"/>
</svg>
