<svg data-slug-id="globe08" viewBox="0 0 49 49" xmlns="http://www.w3.org/2000/svg">
<path d="M24.9022 47.068C12.3552 47.068 2.17285 36.7847 2.17285 24.2377C2.17285 11.6823 12.3552 1.5 24.9022 1.5C37.4491 1.5 47.7325 11.6823 47.7325 24.2293C47.7325 36.7763 37.5501 47.068 24.9022 47.068Z" fill="#50E6FF"/>
<path d="M24.9105 5.33719C35.4294 5.33719 43.9034 13.8112 43.9034 24.3302C43.9034 34.8491 35.4294 43.2306 24.9105 43.2306C14.4757 43.2306 6.01004 34.7565 6.01004 24.2376C6.01004 13.7187 14.4757 5.33719 24.9105 5.33719ZM24.902 0.574219C11.8417 0.574219 1.24707 11.1689 1.24707 24.2292C1.24707 37.2895 11.8417 47.8842 24.902 47.8842C37.9624 47.8842 48.557 37.2895 48.557 24.2292C48.557 11.1689 37.9624 0.574219 24.902 0.574219Z" fill="#0078D7"/>
<path d="M24.9016 36.9849C24.4892 36.9849 24.1779 36.6736 24.1779 36.3706L21.7122 26.0873L11.7403 23.6217C11.4289 23.5207 11.126 23.2093 11.126 22.898C11.126 22.5866 11.3279 22.2836 11.6393 22.1743L33.0306 14.567C33.342 14.466 33.6449 14.567 33.8553 14.7689C34.0572 14.9709 34.1666 15.2822 34.0573 15.5936L25.6253 36.4716C25.5159 36.7745 25.2129 36.9849 24.9016 36.9849Z" fill="#0078D4"/>
</svg>
