<svg data-slug-id="globe04" viewBox="0 0 49 49" xmlns="http://www.w3.org/2000/svg">
<path d="M23.9185 36.9357C33.6432 36.9357 41.5309 29.048 41.5309 19.3233C41.5309 9.59858 33.6432 1.71094 23.9185 1.71094C14.1938 1.71094 6.30615 9.59858 6.30615 19.3233C6.30615 29.0564 14.1854 36.9357 23.9185 36.9357Z" fill="#0078D4"/>
<path d="M41.5982 0.246094L37.7133 4.13093L37.6796 4.16463C37.924 4.38373 38.1599 4.61126 38.3959 4.84722C40.2751 6.72643 41.7498 8.91744 42.7779 11.3528C43.8397 13.8725 44.3875 16.5607 44.3875 19.3163C44.3875 22.0719 43.8482 24.7601 42.7779 27.2798C41.7498 29.7152 40.2751 31.8978 38.3959 33.7854C36.5167 35.6646 34.3257 37.1394 31.8903 38.1674C29.3622 39.2461 26.6824 39.7854 23.9184 39.7854C21.1543 39.7854 18.4746 39.2461 15.9549 38.1759C13.5195 37.1478 11.3369 35.6731 9.44927 33.7938C9.21332 33.5579 8.98579 33.3219 8.76669 33.0776L6.83691 35.0073C10.747 39.2629 16.233 42.0607 22.3762 42.4568V45.2377H11.4717V47.9596H36.0111V45.2377H25.0897V42.4821C37.351 41.8753 47.1094 31.7377 47.1094 19.3163C47.1094 13.527 44.9858 8.24328 41.4886 4.18991L43.5111 2.15902L41.5982 0.246094Z" fill="#50E6FF"/>
<path d="M24.0367 7.84766C20.6912 7.84766 17.944 10.519 17.8092 13.8308H19.798C19.857 12.8027 20.2952 11.8336 21.0367 11.092C21.8457 10.283 22.9075 9.84485 24.0367 9.84485C25.1659 9.84485 26.2277 10.2915 27.0367 11.092C27.8457 11.901 28.2839 12.9628 28.2839 14.092C28.2839 14.5387 28.2839 15.2213 28.2755 15.7606C27.9216 16.0808 27.4328 16.5022 26.8766 16.9151C25.4693 17.9684 24.4834 18.3392 24.0367 18.3392C23.8851 18.3392 23.0339 18.2718 21.2053 16.8814C20.7249 16.519 20.2952 16.1482 19.9581 15.8448H17.8008C17.8008 16.2493 17.8008 16.5443 17.8008 16.5443C17.8008 16.5443 21.5002 20.328 24.0452 20.328C26.6154 20.328 30.2643 16.6201 30.2643 16.6201C30.2643 16.6201 30.2811 14.9516 30.2811 14.092C30.2727 10.6538 27.4665 7.84766 24.0367 7.84766Z" fill="#50E6FF"/>
<path d="M30.2727 15.8359H17.8008V27.8444H30.2727V15.8359Z" fill="#50E6FF"/>
<path d="M24.0365 23.9149C24.8975 23.9149 25.5955 23.2169 25.5955 22.3559C25.5955 21.4949 24.8975 20.7969 24.0365 20.7969C23.1755 20.7969 22.4775 21.4949 22.4775 22.3559C22.4775 23.2169 23.1755 23.9149 24.0365 23.9149Z" fill="#0078D4"/>
</svg>
