<svg data-slug-id="globe01" viewBox="0 0 49 49" xmlns="http://www.w3.org/2000/svg">
<path d="M8.07031 41.9199C12.0114 45.4399 17.1314 47.6799 22.765 47.9746V43.0736C18.4872 42.7957 14.5966 41.0946 11.5566 38.4336L8.07031 41.9199Z" fill="#0078D4"/>
<path d="M25.291 0.136719V5.26514C29.5605 5.55146 33.4426 7.24409 36.4742 9.8883L40.0784 6.28409C36.1289 2.70514 30.9752 0.431456 25.291 0.136719Z" fill="#50E6FF"/>
<path d="M6.16777 8.08594C2.62251 12.0523 0.374086 17.1975 0.0961914 22.8733H5.11514C5.40145 18.6038 7.11093 14.7133 9.76356 11.6817L6.16777 8.08594Z" fill="#0078D4"/>
<path d="M22.7649 0.136719C17.0891 0.431456 11.9354 2.69672 7.97754 6.26725L11.5817 9.87146C14.6133 7.22724 18.4954 5.53461 22.7649 5.25672V0.136719Z" fill="#0078D4"/>
<path d="M36.4994 38.418C33.4679 41.079 29.5689 42.7801 25.291 43.0664V47.9674C30.9247 47.6727 36.0447 45.4327 39.9858 41.9043L36.4994 38.418Z" fill="#50E6FF"/>
<path d="M0.10498 25.3984C0.416559 31.049 2.69024 36.1774 6.25235 40.11L9.74709 36.6153C7.09445 33.5837 5.3934 29.6848 5.11551 25.3984H0.10498Z" fill="#0078D4"/>
<path d="M47.9353 25.3984H42.9248C42.6469 29.6763 40.9543 33.5669 38.3101 36.6069L41.8048 40.1016C45.3585 36.1605 47.6237 31.0405 47.9353 25.3984Z" fill="#50E6FF"/>
<path d="M41.8888 8.10156L38.293 11.6974C40.9372 14.7289 42.6382 18.6026 42.9245 22.8721H47.9435C47.6656 17.2047 45.4256 12.0595 41.8888 8.10156Z" fill="#50E6FF"/>
<path d="M24.6088 12.7653C20.2467 12.4958 16.4909 15.8137 16.2214 20.1758C15.9519 24.538 24.0867 35.3337 24.0867 35.3337C24.0867 35.3337 31.7498 25.5148 32.0193 21.1527C32.2888 16.7906 28.9709 13.0348 24.6088 12.7653Z" fill="#50E6FF"/>
<path d="M28.8867 20.9366C28.7267 23.564 26.4614 25.5682 23.834 25.4082C21.2067 25.2482 19.2025 22.9829 19.3625 20.3555C19.5225 17.7282 21.7877 15.724 24.4151 15.884C27.0425 16.044 29.0551 18.3092 28.8867 20.9366Z" fill="#0078D4"/>
</svg>
