<svg data-slug-id="globe-tech" xmlns="http://www.w3.org/2000/svg" viewBox="0 0 48 48">
<path d="M27.5688 23.71H28.0155" stroke="#75757A" stroke-width="1.01266" stroke-miterlimit="10"/>
<path d="M27.5688 5.30444H28.0155" stroke="#75757A" stroke-width="1.01266" stroke-miterlimit="10"/>
<path d="M24.0043 47.7285C37.1188 47.7285 47.8228 37.0547 47.8228 23.9772C47.8228 10.8997 37.1103 0.234375 24.0043 0.234375C10.8898 0.234375 0.185791 10.9081 0.185791 23.9772C0.185791 37.0463 10.8898 47.7285 24.0043 47.7285Z" fill="#0078D4"/>
<path d="M24.2658 0.320312H23.8191V47.7304H24.2658V0.320312Z" fill="white"/>
<path d="M24.0045 35.7188C10.7973 35.7188 0.0090332 30.4743 0.0090332 24.0701C0.0090332 17.6658 10.7973 12.4214 24.0045 12.4214C37.2117 12.4214 48 17.6658 48 24.0701C47.9915 30.4743 37.2033 35.7188 24.0045 35.7188ZM24.0045 12.7744C10.9827 12.7744 0.455735 17.8423 0.455735 23.9776C0.455735 30.113 10.9827 35.1809 24.0045 35.1809C37.0263 35.1809 47.5533 30.113 47.5533 23.9776C47.5448 17.8423 37.0263 12.7744 24.0045 12.7744Z" fill="white"/>
<path d="M24.0037 48C17.5813 48 12.322 37.2422 12.322 24.0723C12.322 10.9023 17.5813 0.144531 24.0037 0.144531C30.4261 0.144531 35.6854 10.9108 35.6854 24.0723C35.6854 37.2338 30.4261 48 24.0037 48ZM24.0037 0.497522C17.7583 0.497522 12.7687 10.9948 12.7687 23.9798C12.7687 36.9648 17.851 47.4621 24.0037 47.4621C30.1564 47.4621 35.2387 36.9648 35.2387 23.9798C35.2387 10.9948 30.2407 0.497522 24.0037 0.497522Z" fill="white"/>
<path d="M47.8134 23.8H0.277588V24.2455H47.8218V23.8H47.8134Z" fill="white"/>
<path d="M24.0034 37.5847C25.1665 37.5847 26.1442 36.6098 26.1442 35.4499C26.1442 34.2901 25.1665 33.3152 24.0034 33.3152C22.8402 33.3152 21.8625 34.2901 21.8625 35.4499C21.8625 36.6098 22.8402 37.5847 24.0034 37.5847Z" fill="white"/>
<path d="M12.4997 25.7618C13.4774 25.7618 14.2865 24.9633 14.2865 23.98C14.2865 23.0051 13.4858 22.1982 12.4997 22.1982C11.522 22.1982 10.7129 22.9967 10.7129 23.98C10.7129 24.9633 11.5136 25.7618 12.4997 25.7618Z" fill="white"/>
<path d="M24.0714 26.3817C25.4284 26.3817 26.5156 25.2975 26.5156 23.9444C26.5156 22.5913 25.4284 21.5071 24.0714 21.5071C22.7145 21.5071 21.6272 22.5913 21.6272 23.9444C21.6272 25.2975 22.7145 26.3817 24.0714 26.3817Z" fill="#50E6FF"/>
<path d="M24.0714 14.9523C25.4284 14.9523 26.5156 13.8681 26.5156 12.515C26.5156 11.1618 25.4284 10.0776 24.0714 10.0776C22.7145 10.0776 21.6272 11.1618 21.6272 12.515C21.6272 13.8681 22.7145 14.9523 24.0714 14.9523Z" fill="#50E6FF"/>
<path d="M35.4074 26.3817C36.7643 26.3817 37.8516 25.2975 37.8516 23.9444C37.8516 22.5913 36.7643 21.5071 35.4074 21.5071C34.0504 21.5071 32.9631 22.5913 32.9631 23.9444C32.9631 25.2975 34.0504 26.3817 35.4074 26.3817Z" fill="#50E6FF"/>
<path d="M34.0837 35.3158C34.7748 35.3158 35.3395 34.7527 35.3395 34.0636C35.3395 33.3744 34.7748 32.8113 34.0837 32.8113C33.3926 32.8113 32.8279 33.3744 32.8279 34.0636C32.8279 34.7527 33.3926 35.3158 34.0837 35.3158Z" fill="white"/>
<path d="M13.8305 35.3158C14.5217 35.3158 15.0864 34.7527 15.0864 34.0636C15.0864 33.3744 14.5217 32.8113 13.8305 32.8113C13.1394 32.8113 12.5747 33.3744 12.5747 34.0636C12.5747 34.7527 13.1394 35.3158 13.8305 35.3158Z" fill="white"/>
<path d="M34.0837 15.0353C34.7748 15.0353 35.3395 14.4722 35.3395 13.783C35.3395 13.0939 34.7748 12.5308 34.0837 12.5308C33.3926 12.5308 32.8279 13.0939 32.8279 13.783C32.8279 14.4806 33.3926 15.0353 34.0837 15.0353Z" fill="white"/>
<path d="M13.8305 15.0353C14.5217 15.0353 15.0864 14.4722 15.0864 13.783C15.0864 13.0939 14.5217 12.5308 13.8305 12.5308C13.1394 12.5308 12.5747 13.0939 12.5747 13.783C12.5747 14.4806 13.1394 15.0353 13.8305 15.0353Z" fill="white"/>
</svg>
