<svg data-slug-id="globe07" viewBox="0 0 49 48" xmlns="http://www.w3.org/2000/svg">
<path d="M21.6696 37.8364C30.6696 37.8364 37.9696 30.6278 37.9696 21.7405C37.9696 12.8531 30.6696 5.64453 21.6696 5.64453C12.6696 5.64453 5.36963 12.8531 5.36963 21.7405C5.36963 30.6278 12.6696 37.8364 21.6696 37.8364Z" fill="#0078D4"/>
<path d="M38.0196 4.26562L34.4196 7.82056L34.3696 7.86993C34.6196 8.06743 34.8196 8.26492 35.0196 8.51179C36.7696 10.2399 38.1196 12.2148 39.0696 14.4367C40.0696 16.7573 40.5696 19.1766 40.5696 21.6947C40.5696 24.2127 40.0696 26.6814 39.0696 28.9526C38.1196 31.1745 36.7696 33.1988 35.0196 34.8775C33.2696 36.6056 31.2696 37.9387 29.0196 38.8768C26.6696 39.8643 24.2196 40.3581 21.6196 40.3581C19.0196 40.3581 16.5696 39.8643 14.2696 38.8768C12.0196 37.9387 9.96963 36.6056 8.26963 34.8775C8.06963 34.68 7.81963 34.4332 7.61963 34.2357L5.86963 36.0625C9.46963 39.9631 14.5696 42.5305 20.2696 42.8761V45.4436H10.1196V47.9123H32.8196V45.4436H22.7696V42.9255C34.1196 42.3824 43.1696 33.1001 43.1696 21.744C43.1696 16.461 41.2196 11.6224 37.9696 7.9193L39.8696 6.04309L38.0196 4.26562Z" fill="#50E6FF"/>
<path d="M29.3196 14.0898L17.3696 25.8902L13.7696 22.3353L11.3696 24.7053L17.3696 30.6301L31.7196 16.4598L29.3196 14.0898Z" fill="#50E6FF"/>
</svg>
