<svg data-slug-id="globe05" viewBox="0 0 49 49" xmlns="http://www.w3.org/2000/svg">
<path d="M21.6616 37.8368C30.6655 37.8368 37.9647 30.5376 37.9647 21.5336C37.9647 12.5296 30.6655 5.23047 21.6616 5.23047C12.6576 5.23047 5.3584 12.5296 5.3584 21.5336C5.3584 30.5376 12.6576 37.8368 21.6616 37.8368Z" fill="#0078D4"/>
<path d="M38.0239 3.875L34.4281 7.47079L34.3944 7.50447C34.6218 7.70658 34.8407 7.9171 35.0597 8.13605C36.8028 9.87921 38.167 11.9003 39.1186 14.1571C40.1039 16.4897 40.6092 18.9739 40.6092 21.5255C40.6092 24.0771 40.1123 26.5613 39.1186 28.8939C38.167 31.1508 36.8028 33.1718 35.0597 34.915C33.3165 36.6582 31.2955 38.0224 29.0386 38.9739C26.6976 39.9761 24.2218 40.4729 21.6618 40.4729C19.1018 40.4729 16.626 39.9761 14.2934 38.9824C12.0365 38.0308 10.0155 36.6666 8.27231 34.9234C8.05336 34.7045 7.84284 34.4855 7.64073 34.2582L5.85547 36.0434C9.47652 39.9845 14.5544 42.5697 20.2386 42.9403V45.5171H10.1418V48.035H32.8534V45.5171H22.7481V42.9655C34.0997 42.4013 43.127 33.0203 43.127 21.5255C43.127 16.1697 41.1649 11.2771 37.9228 7.52132L39.8007 5.64342L38.0239 3.875Z" fill="#50E6FF"/>
<path d="M24.2386 8.29327C21.9144 8.15011 19.9186 9.91853 19.7754 12.2343C19.6323 14.5585 23.9607 20.2933 23.9607 20.2933C23.9607 20.2933 28.0365 15.0722 28.1797 12.748C28.3228 10.4406 26.5544 8.43643 24.2386 8.29327Z" fill="#50E6FF"/>
<path d="M26.512 12.6402C26.4278 14.0381 25.2236 15.0992 23.8257 15.015C22.4278 14.9307 21.3668 13.7265 21.451 12.3286C21.5352 10.9307 22.7394 9.86969 24.1373 9.9539C25.5352 10.0381 26.5962 11.2423 26.512 12.6402Z" fill="#0078D4"/>
</svg>
