<svg data-slug-id="globe03" viewBox="0 0 49 49" xmlns="http://www.w3.org/2000/svg">
<path d="M27.5884 23.7617H28.0351" stroke="#75757A" stroke-width="1.01266" stroke-miterlimit="10"/>
<path d="M27.5884 5.35547H28.0351" stroke="#75757A" stroke-width="1.01266" stroke-miterlimit="10"/>
<path d="M24.0236 47.7792C37.1381 47.7792 47.8422 37.1055 47.8422 24.028C47.8422 10.9505 37.1297 0.285156 24.0236 0.285156C10.9091 0.285156 0.205078 10.9589 0.205078 24.028C0.205078 37.0971 10.9091 47.7792 24.0236 47.7792Z" fill="#0078D4"/>
<path d="M24.2856 0.371094H23.8389V47.7811H24.2856V0.371094Z" fill="white"/>
<path d="M24.0238 35.7701C10.8166 35.7701 0.0283203 30.5256 0.0283203 24.1214C0.0283203 17.7171 10.8166 12.4727 24.0238 12.4727C37.2311 12.4727 48.0194 17.7171 48.0194 24.1214C48.0109 30.5256 37.2227 35.7701 24.0238 35.7701ZM24.0238 12.8256C11.002 12.8256 0.475023 17.8936 0.475023 24.0289C0.475023 30.1642 11.002 35.2322 24.0238 35.2322C37.0457 35.2322 47.5727 30.1642 47.5727 24.0289C47.5642 17.8936 37.0457 12.8256 24.0238 12.8256Z" fill="white"/>
<path d="M24.0235 48.0508C17.6011 48.0508 12.3418 37.293 12.3418 24.123C12.3418 10.9531 17.6011 0.195312 24.0235 0.195312C30.4459 0.195312 35.7052 10.9615 35.7052 24.123C35.7052 37.2846 30.4459 48.0508 24.0235 48.0508ZM24.0235 0.548303C17.7781 0.548303 12.7885 11.0456 12.7885 24.0306C12.7885 37.0156 17.8708 47.5129 24.0235 47.5129C30.1762 47.5129 35.2585 37.0156 35.2585 24.0306C35.2585 11.0456 30.2605 0.548303 24.0235 0.548303Z" fill="white"/>
<path d="M47.8328 23.8516H0.296875V24.297H47.8412V23.8516H47.8328Z" fill="white"/>
<path d="M24.0226 37.6367C25.1858 37.6367 26.1634 36.6618 26.1634 35.5019C26.1634 34.3421 25.1858 33.3672 24.0226 33.3672C22.8595 33.3672 21.8818 34.3421 21.8818 35.5019C21.8818 36.6618 22.8595 37.6367 24.0226 37.6367Z" fill="white"/>
<path d="M12.5192 25.8135C13.4969 25.8135 14.306 25.0151 14.306 24.0318C14.306 23.0568 13.5054 22.25 12.5192 22.25C11.5415 22.25 10.7324 23.0484 10.7324 24.0318C10.7324 25.0151 11.5331 25.8135 12.5192 25.8135Z" fill="white"/>
<path d="M24.0907 26.4332C25.4477 26.4332 26.5349 25.349 26.5349 23.9959C26.5349 22.6428 25.4477 21.5586 24.0907 21.5586C22.7337 21.5586 21.6465 22.6428 21.6465 23.9959C21.6465 25.349 22.7337 26.4332 24.0907 26.4332Z" fill="#50E6FF"/>
<path d="M24.0907 15.0035C25.4477 15.0035 26.5349 13.9194 26.5349 12.5662C26.5349 11.2131 25.4477 10.1289 24.0907 10.1289C22.7337 10.1289 21.6465 11.2131 21.6465 12.5662C21.6465 13.9194 22.7337 15.0035 24.0907 15.0035Z" fill="#50E6FF"/>
<path d="M35.4266 26.4332C36.7836 26.4332 37.8709 25.349 37.8709 23.9959C37.8709 22.6428 36.7836 21.5586 35.4266 21.5586C34.0697 21.5586 32.9824 22.6428 32.9824 23.9959C32.9824 25.349 34.0697 26.4332 35.4266 26.4332Z" fill="#50E6FF"/>
<path d="M34.1035 35.3678C34.7946 35.3678 35.3593 34.8047 35.3593 34.1156C35.3593 33.4264 34.7946 32.8633 34.1035 32.8633C33.4124 32.8633 32.8477 33.4264 32.8477 34.1156C32.8477 34.8047 33.4124 35.3678 34.1035 35.3678Z" fill="white"/>
<path d="M13.8501 35.3678C14.5412 35.3678 15.1059 34.8047 15.1059 34.1156C15.1059 33.4264 14.5412 32.8633 13.8501 32.8633C13.1589 32.8633 12.5942 33.4264 12.5942 34.1156C12.5942 34.8047 13.1589 35.3678 13.8501 35.3678Z" fill="white"/>
<path d="M34.1035 15.0866C34.7946 15.0866 35.3593 14.5235 35.3593 13.8343C35.3593 13.1451 34.7946 12.582 34.1035 12.582C33.4124 12.582 32.8477 13.1451 32.8477 13.8343C32.8477 14.5319 33.4124 15.0866 34.1035 15.0866Z" fill="white"/>
<path d="M13.8501 15.0866C14.5412 15.0866 15.1059 14.5235 15.1059 13.8343C15.1059 13.1451 14.5412 12.582 13.8501 12.582C13.1589 12.582 12.5942 13.1451 12.5942 13.8343C12.5942 14.5319 13.1589 15.0866 13.8501 15.0866Z" fill="white"/>
</svg>
