<svg data-slug-id="government" xmlns="http://www.w3.org/2000/svg" viewBox="0 0 97 97">
    <path fill-rule="evenodd" clip-rule="evenodd" d="M47.4465 23.5H50.4465V1H47.4465V23.5Z" fill="#0078D4"/>
    <path fill-rule="evenodd" clip-rule="evenodd" d="M47.4465 10H63.9465V1H47.4465V10Z" fill="#0078D4"/>
    <path fill-rule="evenodd" clip-rule="evenodd" d="M12.9465 57.9998C12.9465 38.1173 29.064 21.9998 48.9465 21.9998C68.829 21.9998 84.9465 38.1173 84.9465 57.9998H12.9465Z" fill="#0078D4"/>
    <path fill-rule="evenodd" clip-rule="evenodd" d="M0.946472 96.1575H96.9465V57.1575H0.946472V96.1575Z" fill="#0078D4"/>
    <path fill-rule="evenodd" clip-rule="evenodd" d="M6.94647 90.1575H15.9465V63.1575H6.94647V90.1575Z" fill="#50E6FF"/>
    <path fill-rule="evenodd" clip-rule="evenodd" d="M21.9465 90.1575H30.9465V63.1575H21.9465V90.1575Z" fill="#50E6FF"/>
    <path fill-rule="evenodd" clip-rule="evenodd" d="M36.9465 90.1575H45.9465V63.1575H36.9465V90.1575Z" fill="#50E6FF"/>
    <path fill-rule="evenodd" clip-rule="evenodd" d="M51.9465 90.1575H60.9465V63.1575H51.9465V90.1575Z" fill="#50E6FF"/>
    <path fill-rule="evenodd" clip-rule="evenodd" d="M66.9465 90.1575H75.9465V63.1575H66.9465V90.1575Z" fill="#50E6FF"/>
    <path fill-rule="evenodd" clip-rule="evenodd" d="M81.9465 90.1575H90.9465V63.1575H81.9465V90.1575Z" fill="#50E6FF"/>
</svg>
