<svg data-slug-id="graph-blue" xmlns="http://www.w3.org/2000/svg" viewBox="0 0 48 48">
<path d="M46.4943 20.4065C44.6807 18.6181 41.855 18.4747 39.8896 19.9763L28.0383 8.09862C29.5397 6.10776 29.3795 3.26488 27.5575 1.46804C25.5752 -0.489077 22.3783 -0.472205 20.4129 1.51022C18.5741 3.36611 18.4729 6.29335 20.1008 8.26734L4.29346 24.1267L24.3774 43.7823L40.033 28.1169C42.0153 29.5257 44.782 29.3317 46.5449 27.5433C48.5018 25.5693 48.485 22.3636 46.4943 20.4065ZM24.3606 42.0107L6.09013 24.1183L21.0287 9.13623C21.7541 9.66769 22.5892 9.97981 23.4496 10.0726V40.7791H24.7148V10.0642C25.5837 9.93764 26.4356 9.59177 27.161 9.00969L38.9871 20.8705C37.494 22.7517 37.5362 25.4343 39.0967 27.2733L24.3606 42.0107Z" fill="#0078D4"/>
<path d="M27.5578 39.3448C29.54 41.3019 29.5569 44.5075 27.5999 46.4899C25.643 48.4724 22.4376 48.4892 20.4554 46.5321C18.4731 44.575 18.4563 41.3694 20.4132 39.3869C22.3786 37.4045 25.5755 37.3792 27.5578 39.3448Z" fill="#50E6FF"/>
<path d="M8.66292 27.5514C6.70598 29.5339 3.50064 29.5507 1.51839 27.5936C-0.463862 25.6365 -0.480732 22.4309 1.47621 20.4485C3.43316 18.466 6.6385 18.4492 8.62075 20.4063C10.6114 22.3634 10.6283 25.569 8.66292 27.5514Z" fill="#50E6FF"/>
</svg>
