<svg data-slug-id="graph-with-circle" xmlns="http://www.w3.org/2000/svg" viewBox="0 0 48 48">
	<path d="M5.05265 25.2617L0 30.3144V35.367L7.57898 27.788L5.05265 25.2617Z" fill="#50E6FF"/>
	<path d="M22.7381 37.8942V17.6836L12.6328 27.7889L22.7381 37.8942Z" fill="#50E6FF"/>
	<path d="M30.3144 25.2648L25.2617 20.2122V35.3702L42.946 17.6859L47.9987 22.7385V7.54688L30.3144 25.2648Z" fill="#50E6FF"/>
	<path d="M25.2617 35.3679V47.9995H47.9987V22.7362L42.946 17.6836L25.2617 35.3679Z" fill="#0078D4"/>
	<path d="M22.7369 37.8934L10.1053 25.2617L0 35.367V47.9987H22.7369V37.8934Z" fill="#0078D4"/>
	<path d="M23.999 15.9706C25.3942 15.9706 26.5253 14.8395 26.5253 13.4443C26.5253 12.049 25.3942 10.918 23.999 10.918C22.6037 10.918 21.4727 12.049 21.4727 13.4443C21.4727 14.8395 22.6037 15.9706 23.999 15.9706Z" fill="#50E6FF"/>
</svg>
