<svg data-slug-id="grid11" viewBox="0 0 49 50" xmlns="http://www.w3.org/2000/svg">
<path d="M5.17706 10.6158C7.99744 10.6158 10.2838 8.32947 10.2838 5.50909C10.2838 2.68871 7.99744 0.402344 5.17706 0.402344C2.35668 0.402344 0.0703125 2.68871 0.0703125 5.50909C0.0703125 8.32947 2.35668 10.6158 5.17706 10.6158Z" fill="#0078D4"/>
<path d="M17.9446 10.6158C20.765 10.6158 23.0514 8.32947 23.0514 5.50909C23.0514 2.68871 20.765 0.402344 17.9446 0.402344C15.1243 0.402344 12.8379 2.68871 12.8379 5.50909C12.8379 8.32947 15.1243 10.6158 17.9446 10.6158Z" fill="#0078D4"/>
<path d="M30.7112 10.6158C33.5316 10.6158 35.818 8.32947 35.818 5.50909C35.818 2.68871 33.5316 0.402344 30.7112 0.402344C27.8909 0.402344 25.6045 2.68871 25.6045 5.50909C25.6045 8.32947 27.8909 10.6158 30.7112 10.6158Z" fill="#0078D4"/>
<path d="M43.4783 10.6158C46.2987 10.6158 48.5851 8.32947 48.5851 5.50909C48.5851 2.68871 46.2987 0.402344 43.4783 0.402344C40.658 0.402344 38.3716 2.68871 38.3716 5.50909C38.3716 8.32947 40.658 10.6158 43.4783 10.6158Z" fill="#0078D4"/>
<path d="M5.17755 23.3815C7.99793 23.3815 10.2843 21.0951 10.2843 18.2747C10.2843 15.4543 7.99793 13.168 5.17755 13.168C2.35717 13.168 0.0708008 15.4543 0.0708008 18.2747C0.0708008 21.0951 2.35717 23.3815 5.17755 23.3815Z" fill="#0078D4"/>
<path d="M5.17755 36.151C7.99793 36.151 10.2843 33.8646 10.2843 31.0442C10.2843 28.2239 7.99793 25.9375 5.17755 25.9375C2.35717 25.9375 0.0708008 28.2239 0.0708008 31.0442C0.0708008 33.8646 2.35717 36.151 5.17755 36.151Z" fill="#0078D4"/>
<path d="M5.17755 48.9166C7.99793 48.9166 10.2843 46.6303 10.2843 43.8099C10.2843 40.9895 7.99793 38.7031 5.17755 38.7031C2.35717 38.7031 0.0708008 40.9895 0.0708008 43.8099C0.0708008 46.6303 2.35717 48.9166 5.17755 48.9166Z" fill="#0078D4"/>
<path d="M17.9446 48.9166C20.765 48.9166 23.0514 46.6303 23.0514 43.8099C23.0514 40.9895 20.765 38.7031 17.9446 38.7031C15.1243 38.7031 12.8379 40.9895 12.8379 43.8099C12.8379 46.6303 15.1243 48.9166 17.9446 48.9166Z" fill="#0078D4"/>
<path d="M30.7112 48.9166C33.5316 48.9166 35.818 46.6303 35.818 43.8099C35.818 40.9895 33.5316 38.7031 30.7112 38.7031C27.8909 38.7031 25.6045 40.9895 25.6045 43.8099C25.6045 46.6303 27.8909 48.9166 30.7112 48.9166Z" fill="#0078D4"/>
<path d="M43.4783 48.9166C46.2987 48.9166 48.5851 46.6303 48.5851 43.8099C48.5851 40.9895 46.2987 38.7031 43.4783 38.7031C40.658 38.7031 38.3716 40.9895 38.3716 43.8099C38.3716 46.6303 40.658 48.9166 43.4783 48.9166Z" fill="#0078D4"/>
<path d="M43.4783 36.151C46.2987 36.151 48.5851 33.8646 48.5851 31.0442C48.5851 28.2239 46.2987 25.9375 43.4783 25.9375C40.658 25.9375 38.3716 28.2239 38.3716 31.0442C38.3716 33.8646 40.658 36.151 43.4783 36.151Z" fill="#0078D4"/>
<path d="M43.4783 23.3815C46.2987 23.3815 48.5851 21.0951 48.5851 18.2747C48.5851 15.4543 46.2987 13.168 43.4783 13.168C40.658 13.168 38.3716 15.4543 38.3716 18.2747C38.3716 21.0951 40.658 23.3815 43.4783 23.3815Z" fill="#0078D4"/>
<path d="M24.3281 36.1483C30.6739 36.1483 35.8183 31.004 35.8183 24.6582C35.8183 18.3123 30.6739 13.168 24.3281 13.168C17.9822 13.168 12.8379 18.3123 12.8379 24.6582C12.8379 31.004 17.9822 36.1483 24.3281 36.1483Z" fill="#50E6FF"/>
</svg>
