<svg data-slug-id="grid14" viewBox="0 0 49 49" xmlns="http://www.w3.org/2000/svg">
<path d="M19.4247 0.402344H0.0195312V7.98117H19.4247V0.402344Z" fill="#0078D4"/>
<path d="M0.0195312 10.5234V15.5339V15.5844V18.0686H19.4332V10.5234H0.0195312Z" fill="#0078D4"/>
<path d="M19.4247 20.582H0.0195312V28.1861H19.4247V20.582Z" fill="#0078D4"/>
<path d="M19.4247 30.7188H0.0195312V38.2976H19.4247V30.7188Z" fill="#0078D4"/>
<path d="M19.4247 40.8242H0.0195312V48.403H19.4247V40.8242Z" fill="#0078D4"/>
<path d="M41.2804 0.402344H38.7368V7.98117H41.2804V0.402344Z" fill="#0078D4"/>
<path d="M41.2804 10.5156H38.7368V18.0608H41.2804V10.5156Z" fill="#0078D4"/>
<path d="M41.2804 20.5625H38.7368V28.1666H41.2804V20.5625Z" fill="#0078D4"/>
<path d="M41.2804 30.7031H38.7368V38.282H41.2804V30.7031Z" fill="#0078D4"/>
<path d="M41.2804 40.8125H38.7368V48.3913H41.2804V40.8125Z" fill="#0078D4"/>
<path d="M32.8753 0.402344H25.2783V7.98117H32.8753V0.402344Z" fill="#0078D4"/>
<path d="M32.8753 10.5234H25.2783V18.0686H32.8753V10.5234Z" fill="#0078D4"/>
<path d="M32.8753 20.582H25.2783V28.1861H32.8753V20.582Z" fill="#0078D4"/>
<path d="M32.8753 30.7188H25.2783V38.2976H32.8753V30.7188Z" fill="#0078D4"/>
<path d="M32.8753 40.8242H25.2783V48.403H32.8753V40.8242Z" fill="#0078D4"/>
<path d="M23.5178 0.402344H21.1343V48.4016H23.5178V0.402344Z" fill="#50E6FF"/>
<path d="M36.9853 0.402344H34.6018V48.4016H36.9853V0.402344Z" fill="#50E6FF"/>
<path d="M45.3574 0.402344H42.9739V48.4016H45.3574V0.402344Z" fill="#50E6FF"/>
</svg>
