<svg data-slug-id="grid18" viewBox="0 0 49 49" xmlns="http://www.w3.org/2000/svg">
<path d="M10.2397 10.8808L0.272949 0.914062H10.2397V10.8808Z" fill="#0078D4"/>
<path d="M22.6982 10.8808L12.7314 0.914062H22.6982V10.8808Z" fill="#50E6FF"/>
<path d="M35.1484 10.8808L25.1816 0.914062H35.1484V10.8808Z" fill="#50E6FF"/>
<path d="M47.6069 10.8808L37.6484 0.914062H47.6069V10.8808Z" fill="#50E6FF"/>
<path d="M10.2397 23.3301L0.272949 13.3633H10.2397V23.3301Z" fill="#0078D4"/>
<path d="M22.6982 23.3301L12.7314 13.3633H22.6982V23.3301Z" fill="#0078D4"/>
<path d="M35.1484 23.3301L25.1816 13.3633H35.1484V23.3301Z" fill="#50E6FF"/>
<path d="M47.6069 23.3301L37.6484 13.3633H47.6069V23.3301Z" fill="#50E6FF"/>
<path d="M10.2397 35.7949L0.272949 25.8281H10.2397V35.7949Z" fill="#0078D4"/>
<path d="M22.6982 35.7949L12.7314 25.8281H22.6982V35.7949Z" fill="#0078D4"/>
<path d="M35.1484 35.7949L25.1816 25.8281H35.1484V35.7949Z" fill="#0078D4"/>
<path d="M47.6069 35.7949L37.6484 25.8281H47.6069V35.7949Z" fill="#50E6FF"/>
<path d="M10.2397 48.2715L0.272949 38.3047H10.2397V48.2715Z" fill="#0078D4"/>
<path d="M22.6982 48.2715L12.7314 38.3047H22.6982V48.2715Z" fill="#0078D4"/>
<path d="M35.1484 48.2715L25.1816 38.3047H35.1484V48.2715Z" fill="#0078D4"/>
<path d="M47.6069 48.2715L37.6484 38.3047H47.6069V48.2715Z" fill="#0078D4"/>
</svg>
