<svg data-slug-id="grid-masonry" xmlns="http://www.w3.org/2000/svg" viewBox="0 0 48 49">
  <path d="M5.05266 0H0V12.2106H5.05266V0Z" fill="#0078D4"/>
  <path d="M12.2109 0H7.1582V26.5264H12.2109V0Z" fill="#0078D4"/>
  <path d="M26.527 0H14.3164V12.2106H26.527V0Z" fill="#0078D4"/>
  <path d="M33.6835 14.3164H28.6309V40.8429H33.6835V14.3164Z" fill="#0078D4"/>
  <path d="M33.6835 0H28.6309V12.2106H33.6835V0Z" fill="#0078D4"/>
  <path d="M47.9996 0H35.7891V5.05266H47.9996V0Z" fill="#0078D4"/>
  <path d="M40.8417 7.16016H35.7891V26.5287H40.8417V7.16016Z" fill="#0078D4"/>
  <path d="M47.9999 7.16016H42.9473V26.5287H47.9999V7.16016Z" fill="#0078D4"/>
  <path d="M26.527 14.3164H14.3164V19.3691H26.527V14.3164Z" fill="#0078D4"/>
  <path d="M19.3691 21.4727H14.3164V40.8412H19.3691V21.4727Z" fill="#0078D4"/>
  <path d="M26.5273 21.4727H21.4746V33.6832H26.5273V21.4727Z" fill="#0078D4"/>
  <path d="M26.5273 35.7891H21.4746V47.9996H26.5273V35.7891Z" fill="#0078D4"/>
  <path d="M12.2106 28.6328H0V48.0013H12.2106V28.6328Z" fill="#50E6FF"/>
  <path d="M5.05266 14.3164H0V26.527H5.05266V14.3164Z" fill="#0078D4"/>
  <path d="M47.9996 28.6328H35.7891V40.8434H47.9996V28.6328Z" fill="#0078D4"/>
  <path d="M47.9994 42.9492H28.6309V48.0019H47.9994V42.9492Z" fill="#0078D4"/>
  <path d="M19.3691 42.9492H14.3164V48.0019H19.3691V42.9492Z" fill="#0078D4"/>
</svg>
