<svg data-slug-id="grid13" viewBox="0 0 49 50" xmlns="http://www.w3.org/2000/svg">
<path d="M41.3581 0.417969L43.1658 2.22568L38.4419 6.94961L42.0573 10.565L46.7813 5.84111L48.589 7.64882V0.417969H41.3581Z" fill="#0078D4"/>
<path d="M43.1658 14.9913L38.4419 19.7152L42.0573 23.3307L46.7813 18.6067L48.589 20.423V13.1836H41.3581L43.1658 14.9913Z" fill="#0078D4"/>
<path d="M41.3581 25.9492L43.1658 27.7569L38.4419 32.4809L42.0573 36.0963L46.7813 31.3809L48.589 33.1886V25.9492H41.3581Z" fill="#50E6FF"/>
<path d="M41.3581 38.793L43.1658 40.6007L38.4419 45.3246L42.0573 48.94L46.7813 44.2246L48.589 46.0323V38.793H41.3581Z" fill="#50E6FF"/>
<path d="M10.234 0.417969H2.9946L4.81085 2.22568L0.0869141 6.94961L3.70234 10.565L8.42627 5.84111L10.234 7.64882V0.417969Z" fill="#0078D4"/>
<path d="M10.235 13.1836H2.99558L4.81182 14.9913L0.0878906 19.7152L3.70332 23.3307L8.42725 18.6067L10.235 20.423V13.1836Z" fill="#0078D4"/>
<path d="M10.235 25.9492H2.99558L4.81182 27.7569L0.0878906 32.4809L3.70332 36.0963L8.42725 31.3809L10.235 33.1886V25.9492Z" fill="#50E6FF"/>
<path d="M10.235 38.793H2.99558L4.81182 40.6007L0.0878906 45.3246L3.70332 48.94L8.42725 44.2246L10.235 46.0323V38.793Z" fill="#50E6FF"/>
<path d="M25.4854 25.9903V36.2227H35.7177V25.9903H25.4854Z" fill="#50E6FF"/>
<path d="M35.7133 18.2998C35.7133 21.1222 33.4195 23.4159 30.5971 23.4159C27.7747 23.4159 25.481 21.1222 25.481 18.2998C25.481 15.4773 27.7747 13.1836 30.5971 13.1836C33.4281 13.1836 35.7133 15.4773 35.7133 18.2998Z" fill="#0078D4"/>
<path d="M22.9228 31.1005C22.9228 33.923 20.629 36.2167 17.8066 36.2167C14.9842 36.2167 12.6904 33.923 12.6904 31.1005C12.6904 28.2781 14.9842 25.9844 17.8066 25.9844C20.6375 25.9844 22.9228 28.2781 22.9228 31.1005Z" fill="#50E6FF"/>
<path d="M35.7133 0.402344H25.481V10.6347H35.7133V0.402344Z" fill="#0078D4"/>
<path d="M22.9228 5.51851C22.9228 8.34094 20.629 10.6347 17.8066 10.6347C14.9842 10.6347 12.6904 8.34094 12.6904 5.51851C12.6904 2.69609 14.9842 0.402344 17.8066 0.402344C20.6375 0.402344 22.9228 2.69609 22.9228 5.51851Z" fill="#0078D4"/>
<path d="M22.9228 13.1836H12.6904V23.4159H22.9228V13.1836Z" fill="#0078D4"/>
<path d="M35.7133 43.8896C35.7133 46.712 33.4195 49.0058 30.5971 49.0058C27.7747 49.0058 25.481 46.712 25.481 43.8896C25.481 41.0672 27.7747 38.7734 30.5971 38.7734C33.4281 38.7734 35.7133 41.0672 35.7133 43.8896Z" fill="#50E6FF"/>
<path d="M12.6948 38.7794L12.6948 49.0117L22.9272 49.0117L22.9272 38.7794L12.6948 38.7794Z" fill="#50E6FF"/>
</svg>
