<svg data-slug-id="grid19" viewBox="0 0 49 49" xmlns="http://www.w3.org/2000/svg">
<path d="M7.63632 0.613281H0.0742188V8.17539H7.63632V0.613281Z" fill="#0078D4"/>
<path d="M48.074 0.613281H12.7056V8.15854H48.074V0.613281Z" fill="#0078D4"/>
<path d="M7.63632 13.2266H0.0742188V20.7887H7.63632V13.2266Z" fill="#0078D4"/>
<path d="M48.074 13.2344H12.7056V20.7796H48.074V13.2344Z" fill="#0078D4"/>
<path d="M7.63632 25.8594H0.0742188V33.4215H7.63632V25.8594Z" fill="#0078D4"/>
<path d="M48.074 25.875H12.7056V33.4203H48.074V25.875Z" fill="#0078D4"/>
<path d="M7.63632 38.457H0.0742188V46.0191H7.63632V38.457Z" fill="#0078D4"/>
<path d="M48.074 38.4648H12.7056V46.0101H48.074V38.4648Z" fill="#0078D4"/>
<path d="M17.7245 0.613281H12.7056V8.15854H17.7245V0.613281Z" fill="#50E6FF"/>
<path d="M17.7245 13.2344H12.7056V20.7796H17.7245V13.2344Z" fill="#50E6FF"/>
<path d="M17.7245 25.875H12.7056V33.4203H17.7245V25.875Z" fill="#50E6FF"/>
<path d="M17.7245 38.4648H12.7056V46.0101H17.7245V38.4648Z" fill="#50E6FF"/>
<path d="M5.13527 0.613281H0.0742188V8.15854H5.13527V0.613281Z" fill="#50E6FF"/>
<path d="M5.13527 13.2344H0.0742188V20.7796H5.13527V13.2344Z" fill="#50E6FF"/>
<path d="M5.13527 25.875H0.0742188V33.4203H5.13527V25.875Z" fill="#50E6FF"/>
<path d="M5.13527 38.4648H0.0742188V46.0101H5.13527V38.4648Z" fill="#50E6FF"/>
</svg>
