<svg data-slug-id="grid09" viewBox="0 0 49 49" xmlns="http://www.w3.org/2000/svg">
<path d="M10.1448 38.3867H0.0537109V48.4778H10.1448V38.3867Z" fill="#0078D4"/>
<path d="M22.7581 38.3867H12.667V48.4778H22.7581V38.3867Z" fill="#0078D4"/>
<path d="M35.3719 38.3867H25.2808V48.4778H35.3719V38.3867Z" fill="#0078D4"/>
<path d="M47.9856 38.3867H37.8945V48.4778H47.9856V38.3867Z" fill="#0078D4"/>
<path d="M10.1448 25.7734H0.0537109V35.8646H10.1448V25.7734Z" fill="#0078D4"/>
<path d="M22.7581 25.7734H12.667V35.8646H22.7581V25.7734Z" fill="#0078D4"/>
<path d="M35.3719 25.7734H25.2808V35.8646H35.3719V25.7734Z" fill="#0078D4"/>
<path d="M47.9856 25.7734H37.8945V35.8646H47.9856V25.7734Z" fill="#0078D4"/>
<path d="M22.7581 8.11328H12.667V18.2044H22.7581V8.11328Z" fill="#0078D4"/>
<path d="M10.1448 5.58984H0.0537109V15.681H10.1448V5.58984Z" fill="#0078D4"/>
<path d="M35.3719 10.6367H25.2808V20.7278H35.3719V10.6367Z" fill="#0078D4"/>
<path d="M47.9856 13.1602H37.8945V23.2513H47.9856V13.1602Z" fill="#0078D4"/>
<path d="M36.6501 48.4769C42.9292 48.4769 48.0194 43.3867 48.0194 37.1076C48.0194 30.8285 42.9292 25.7383 36.6501 25.7383C30.371 25.7383 25.2808 30.8285 25.2808 37.1076C25.2808 43.3867 30.371 48.4769 36.6501 48.4769Z" fill="#50E6FF"/>
<path d="M32.8661 36.1921C31.2852 36.1921 29.9985 34.9055 29.9985 33.3246C29.9985 31.7436 31.2852 30.457 32.8661 30.457C34.447 30.457 35.7336 31.7436 35.7336 33.3246C35.7336 34.9055 34.4386 36.1921 32.8661 36.1921ZM32.8661 31.5586C31.8906 31.5586 31.0917 32.3491 31.0917 33.333C31.0917 34.3169 31.8822 35.1074 32.8661 35.1074C33.85 35.1074 34.6404 34.3169 34.6404 33.333C34.6404 32.3491 33.8416 31.5586 32.8661 31.5586Z" fill="#0078D4"/>
<path d="M40.5521 43.9773C38.9712 43.9773 37.6846 42.6907 37.6846 41.1097C37.6846 39.5288 38.9712 38.2422 40.5521 38.2422C42.1331 38.2422 43.4197 39.5288 43.4197 41.1097C43.4197 42.6907 42.1331 43.9773 40.5521 43.9773ZM40.5521 39.3438C39.5767 39.3438 38.7778 40.1343 38.7778 41.1182C38.7778 42.102 39.5682 42.8925 40.5521 42.8925C41.536 42.8925 42.3265 42.102 42.3265 41.1182C42.3265 40.1343 41.5276 39.3438 40.5521 39.3438Z" fill="#0078D4"/>
<path d="M43.4795 31.2847L42.7065 30.5117L30.2136 43.0047L30.9866 43.7777L43.4795 31.2847Z" fill="#0078D4"/>
</svg>
