<svg data-slug-id="grid02" viewBox="0 0 49 49" xmlns="http://www.w3.org/2000/svg">
<path d="M5.07217 0.410156H0.0195312V12.6203H5.07217V0.410156Z" fill="#0078D4"/>
<path d="M12.2304 0.410156H7.17773V26.9356H12.2304V0.410156Z" fill="#0078D4"/>
<path d="M26.5465 0.410156H14.3359V12.6203H26.5465V0.410156Z" fill="#0078D4"/>
<path d="M33.703 14.7266H28.6504V41.252H33.703V14.7266Z" fill="#0078D4"/>
<path d="M33.703 0.410156H28.6504V12.6203H33.703V0.410156Z" fill="#0078D4"/>
<path d="M48.0191 0.410156H35.8086V5.46262H48.0191V0.410156Z" fill="#0078D4"/>
<path d="M40.8612 7.57031H35.8086V26.9381H40.8612V7.57031Z" fill="#0078D4"/>
<path d="M48.0194 7.57031H42.9668V26.9381H48.0194V7.57031Z" fill="#0078D4"/>
<path d="M26.5465 14.7266H14.3359V19.779H26.5465V14.7266Z" fill="#0078D4"/>
<path d="M19.3886 21.8828H14.3359V41.2506H19.3886V21.8828Z" fill="#0078D4"/>
<path d="M26.5468 21.8828H21.4941V34.0929H26.5468V21.8828Z" fill="#0078D4"/>
<path d="M26.5468 36.1992H21.4941V48.4093H26.5468V36.1992Z" fill="#0078D4"/>
<path d="M12.2301 29.043H0.0195312V48.4107H12.2301V29.043Z" fill="#50E6FF"/>
<path d="M5.07217 14.7266H0.0195312V26.9367H5.07217V14.7266Z" fill="#0078D4"/>
<path d="M48.0191 29.043H35.8086V41.2531H48.0191V29.043Z" fill="#0078D4"/>
<path d="M48.0188 43.3594H28.6504V48.4118H48.0188V43.3594Z" fill="#0078D4"/>
<path d="M19.3886 43.3594H14.3359V48.4118H19.3886V43.3594Z" fill="#0078D4"/>
</svg>
