<svg data-slug-id="grid05" viewBox="0 0 49 49" xmlns="http://www.w3.org/2000/svg">
<path d="M2.54587 5.46263C1.14796 5.46263 0.0195312 4.33424 0.0195312 2.93639C0.0195312 1.53854 1.14796 0.410156 2.54587 0.410156C3.94377 0.410156 5.0722 1.53854 5.0722 2.93639C5.0722 4.32582 3.93535 5.46263 2.54587 5.46263Z" fill="#0078D4"/>
<path d="M12.2304 0.410156H7.17773V5.46263H12.2304V0.410156Z" fill="#0078D4"/>
<path d="M19.3725 0.410156H14.3198V5.46263H19.3725V0.410156Z" fill="#0078D4"/>
<path d="M26.5468 0.410156H21.4941V5.46263H26.5468V0.410156Z" fill="#0078D4"/>
<path d="M33.7031 0.410156H28.6504V5.46263H33.7031V0.410156Z" fill="#0078D4"/>
<path d="M38.3349 5.46263C36.937 5.46263 35.8086 4.33424 35.8086 2.93639C35.8086 1.53854 36.937 0.410156 38.3349 0.410156C39.7328 0.410156 40.8613 1.53854 40.8613 2.93639C40.8613 4.32582 39.7244 5.46263 38.3349 5.46263Z" fill="#0078D4"/>
<path d="M45.4931 5.46263C44.0952 5.46263 42.9668 4.33424 42.9668 2.93639C42.9668 1.53854 44.0952 0.410156 45.4931 0.410156C46.891 0.410156 48.0195 1.53854 48.0195 2.93639C48.0195 4.32582 46.8826 5.46263 45.4931 5.46263Z" fill="#0078D4"/>
<path d="M5.0722 7.57031H0.0195312V12.6228H5.0722V7.57031Z" fill="#0078D4"/>
<path d="M12.2304 7.57031H7.17773V12.6228H12.2304V7.57031Z" fill="#0078D4"/>
<path d="M19.373 7.57031H14.3203V12.6228H19.373V7.57031Z" fill="#0078D4"/>
<path d="M26.5468 7.57031H21.4941V12.6228H26.5468V7.57031Z" fill="#50E6FF"/>
<path d="M33.7031 7.57031H28.6504V12.6228H33.7031V7.57031Z" fill="#0078D4"/>
<path d="M38.3349 12.6228C36.937 12.6228 35.8086 11.4944 35.8086 10.0965C35.8086 8.6987 36.937 7.57031 38.3349 7.57031C39.7328 7.57031 40.8613 8.6987 40.8613 10.0965C40.8613 11.486 39.7244 12.6228 38.3349 12.6228Z" fill="#0078D4"/>
<path d="M48.0195 7.57031H42.9668V12.6228H48.0195V7.57031Z" fill="#0078D4"/>
<path d="M5.0722 14.7266H0.0195312V19.779H5.0722V14.7266Z" fill="#0078D4"/>
<path d="M12.2304 14.7266H7.17773V19.779H12.2304V14.7266Z" fill="#0078D4"/>
<path d="M19.373 14.7266H14.3203V19.779H19.373V14.7266Z" fill="#50E6FF"/>
<path d="M26.5468 14.7266H21.4941V19.779H26.5468V14.7266Z" fill="#50E6FF"/>
<path d="M33.7031 14.7266H28.6504V19.779H33.7031V14.7266Z" fill="#50E6FF"/>
<path d="M40.8613 14.7266H35.8086V19.779H40.8613V14.7266Z" fill="#0078D4"/>
<path d="M48.0195 14.7266H42.9668V19.779H48.0195V14.7266Z" fill="#0078D4"/>
<path d="M5.0722 21.8828H0.0195312V26.9353H5.0722V21.8828Z" fill="#0078D4"/>
<path d="M12.2304 21.8828H7.17773V26.9353H12.2304V21.8828Z" fill="#50E6FF"/>
<path d="M19.373 21.8828H14.3203V26.9353H19.373V21.8828Z" fill="#50E6FF"/>
<path d="M24.0205 26.9353C22.6226 26.9353 21.4941 25.8069 21.4941 24.409C21.4941 23.0112 22.6226 21.8828 24.0205 21.8828C25.4184 21.8828 26.5468 23.0112 26.5468 24.409C26.5468 25.7985 25.41 26.9353 24.0205 26.9353Z" fill="#50E6FF"/>
<path d="M33.7031 21.8828H28.6504V26.9353H33.7031V21.8828Z" fill="#50E6FF"/>
<path d="M40.8613 21.8828H35.8086V26.9353H40.8613V21.8828Z" fill="#50E6FF"/>
<path d="M48.0195 21.8828H42.9668V26.9353H48.0195V21.8828Z" fill="#0078D4"/>
<path d="M5.0722 29.0391H0.0195312V34.0915H5.0722V29.0391Z" fill="#0078D4"/>
<path d="M12.2304 29.0391H7.17773V34.0915H12.2304V29.0391Z" fill="#0078D4"/>
<path d="M16.8466 34.0915C15.4487 34.0915 14.3203 32.9631 14.3203 31.5653C14.3203 30.1674 15.4487 29.0391 16.8466 29.0391C18.2446 29.0391 19.373 30.1674 19.373 31.5653C19.373 32.9547 18.2361 34.0915 16.8466 34.0915Z" fill="#50E6FF"/>
<path d="M26.5468 29.0391H21.4941V34.0915H26.5468V29.0391Z" fill="#50E6FF"/>
<path d="M33.7031 29.0391H28.6504V34.0915H33.7031V29.0391Z" fill="#50E6FF"/>
<path d="M38.3349 34.0915C36.937 34.0915 35.8086 32.9631 35.8086 31.5653C35.8086 30.1674 36.937 29.0391 38.3349 29.0391C39.7328 29.0391 40.8613 30.1674 40.8613 31.5653C40.8613 32.9547 39.7244 34.0915 38.3349 34.0915Z" fill="#0078D4"/>
<path d="M48.0195 29.0391H42.9668V34.0915H48.0195V29.0391Z" fill="#0078D4"/>
<path d="M5.0722 36.1992H0.0195312V41.2517H5.0722V36.1992Z" fill="#0078D4"/>
<path d="M12.2304 36.1992H7.17773V41.2517H12.2304V36.1992Z" fill="#0078D4"/>
<path d="M19.373 36.1992H14.3203V41.2517H19.373V36.1992Z" fill="#0078D4"/>
<path d="M24.0205 41.2517C22.6226 41.2517 21.4941 40.1233 21.4941 38.7255C21.4941 37.3276 22.6226 36.1992 24.0205 36.1992C25.4184 36.1992 26.5468 37.3276 26.5468 38.7255C26.5468 40.1149 25.41 41.2517 24.0205 41.2517Z" fill="#50E6FF"/>
<path d="M33.7031 36.1992H28.6504V41.2517H33.7031V36.1992Z" fill="#0078D4"/>
<path d="M40.8613 36.1992H35.8086V41.2517H40.8613V36.1992Z" fill="#0078D4"/>
<path d="M48.0195 36.1992H42.9668V41.2517H48.0195V36.1992Z" fill="#0078D4"/>
<path d="M5.0722 43.3594H0.0195312V48.4118H5.0722V43.3594Z" fill="#0078D4"/>
<path d="M12.2304 43.3594H7.17773V48.4118H12.2304V43.3594Z" fill="#0078D4"/>
<path d="M19.373 43.3594H14.3203V48.4118H19.373V43.3594Z" fill="#0078D4"/>
<path d="M26.5468 43.3594H21.4941V48.4118H26.5468V43.3594Z" fill="#0078D4"/>
<path d="M33.7031 43.3594H28.6504V48.4118H33.7031V43.3594Z" fill="#0078D4"/>
<path d="M38.3349 48.4118C36.937 48.4118 35.8086 47.2835 35.8086 45.8856C35.8086 44.4878 36.937 43.3594 38.3349 43.3594C39.7328 43.3594 40.8613 44.4878 40.8613 45.8856C40.8613 47.275 39.7244 48.4118 38.3349 48.4118Z" fill="#0078D4"/>
<path d="M48.0195 43.3594H42.9668V48.4118H48.0195V43.3594Z" fill="#0078D4"/>
</svg>
