<svg data-slug-id="grid03" viewBox="0 0 49 49" xmlns="http://www.w3.org/2000/svg">
<path d="M7.22029 0.410156H0.0195312V7.6107H7.22029V0.410156Z" fill="#50E6FF"/>
<path d="M17.418 0.410156H10.2173V7.6107H17.418V0.410156Z" fill="#50E6FF"/>
<path d="M27.6158 0.410156H20.415V7.6107H27.6158V0.410156Z" fill="#50E6FF"/>
<path d="M37.8219 0.410156H30.6211V7.6107H37.8219V0.410156Z" fill="#50E6FF"/>
<path d="M48.0191 0.410156H40.8184V7.6107H48.0191V0.410156Z" fill="#0078D4"/>
<path d="M7.22029 10.6094H0.0195312V17.8099H7.22029V10.6094Z" fill="#50E6FF"/>
<path d="M17.4185 10.6094H10.2178V17.8099H17.4185V10.6094Z" fill="#50E6FF"/>
<path d="M27.6158 10.6094H20.415V17.8099H27.6158V10.6094Z" fill="#50E6FF"/>
<path d="M48.0191 10.6094H40.8184V17.8099H48.0191V10.6094Z" fill="#0078D4"/>
<path d="M7.22029 20.8125H0.0195312V28.013H7.22029V20.8125Z" fill="#50E6FF"/>
<path d="M17.4185 20.8125H10.2178V28.013H17.4185V20.8125Z" fill="#50E6FF"/>
<path d="M37.8219 20.8125H30.6211V28.013H37.8219V20.8125Z" fill="#0078D4"/>
<path d="M48.0191 20.8125H40.8184V28.013H48.0191V20.8125Z" fill="#0078D4"/>
<path d="M7.22029 31.0117H0.0195312V38.2123H7.22029V31.0117Z" fill="#50E6FF"/>
<path d="M17.418 31.0117H10.2173V38.2123H17.418V31.0117Z" fill="#0078D4"/>
<path d="M27.6158 31.0117H20.415V38.2123H27.6158V31.0117Z" fill="#0078D4"/>
<path d="M48.0191 31.0117H40.8184V38.2123H48.0191V31.0117Z" fill="#0078D4"/>
<path d="M7.22029 41.2109H0.0195312V48.4115H7.22029V41.2109Z" fill="#0078D4"/>
<path d="M17.4185 41.2109H10.2178V48.4115H17.4185V41.2109Z" fill="#0078D4"/>
<path d="M27.6158 41.2109H20.415V48.4115H27.6158V41.2109Z" fill="#0078D4"/>
<path d="M37.8219 41.2109H30.6211V48.4115H37.8219V41.2109Z" fill="#0078D4"/>
<path d="M48.0191 41.2109H40.8184V48.4115H48.0191V41.2109Z" fill="#0078D4"/>
<path d="M37.8219 10.6094H30.6211V17.8099H37.8219V10.6094Z" fill="#0078D4"/>
<path d="M27.6158 20.8125H20.415V28.013H27.6158V20.8125Z" fill="#0078D4"/>
<path d="M37.8219 31.0117H30.6211V38.2123H37.8219V31.0117Z" fill="#0078D4"/>
</svg>
