<svg data-slug-id="grid15" viewBox="0 0 49 49" xmlns="http://www.w3.org/2000/svg">
<path d="M10.1443 38.2773H0.0532227V48.3685H10.1443V38.2773Z" fill="#0078D4"/>
<path d="M22.7581 38.2773H12.667V48.3685H22.7581V38.2773Z" fill="#0078D4"/>
<path d="M35.3719 38.2773H25.2808V48.3685H35.3719V38.2773Z" fill="#0078D4"/>
<path d="M47.9856 38.2773H37.8945V48.3685H47.9856V38.2773Z" fill="#0078D4"/>
<path d="M10.1443 25.6641H0.0532227V35.7552H10.1443V25.6641Z" fill="#0078D4"/>
<path d="M22.7581 25.6641H12.667V35.7552H22.7581V25.6641Z" fill="#0078D4"/>
<path d="M35.3719 25.6641H25.2808V35.7552H35.3719V25.6641Z" fill="#0078D4"/>
<path d="M47.9856 25.6641H37.8945V35.7552H47.9856V25.6641Z" fill="#0078D4"/>
<path d="M22.7581 8.00391H12.667V18.095H22.7581V8.00391Z" fill="#0078D4"/>
<path d="M10.1443 5.48047H0.0532227V15.5716H10.1443V5.48047Z" fill="#0078D4"/>
<path d="M35.3719 10.5273H25.2808V20.6185H35.3719V10.5273Z" fill="#0078D4"/>
<path d="M47.9856 13.0508H37.8945V23.1419H47.9856V13.0508Z" fill="#0078D4"/>
</svg>
