<svg data-slug-id="grid16" viewBox="0 0 49 49" xmlns="http://www.w3.org/2000/svg">
<path d="M10.1318 0.519531H0.0283203V10.623H10.1318V0.519531Z" fill="#0078D4"/>
<path d="M22.7612 0.519531H12.6577V10.623H22.7612V0.519531Z" fill="#0078D4"/>
<path d="M35.3906 0.519531H25.2871V10.623H35.3906V0.519531Z" fill="#0078D4"/>
<path d="M48.0195 0.519531H37.916V10.623H48.0195V0.519531Z" fill="#0078D4"/>
<path d="M10.1318 13.1484H0.0283203V23.2519H10.1318V13.1484Z" fill="#0078D4"/>
<path d="M22.7607 13.1484H12.6572V23.2519H22.7607V13.1484Z" fill="#0078D4"/>
<path d="M35.3901 13.1484H25.2866V23.2519H35.3901V13.1484Z" fill="#0078D4"/>
<path d="M48.0195 13.1484H37.916V23.2519H48.0195V13.1484Z" fill="#0078D4"/>
<path d="M10.1318 25.7773H0.0283203V35.8808H10.1318V25.7773Z" fill="#0078D4"/>
<path d="M17.709 35.8808C14.9221 35.8808 12.6572 33.616 12.6572 30.8291C12.6572 28.0422 14.9221 25.7773 17.709 25.7773C20.4958 25.7773 22.7607 28.0422 22.7607 30.8291C22.7607 33.616 20.4958 35.8808 17.709 35.8808Z" fill="#50E6FF"/>
<path d="M35.3901 25.7773H25.2866V35.8808H35.3901V25.7773Z" fill="#0078D4"/>
<path d="M48.0195 25.7773H37.916V35.8808H48.0195V25.7773Z" fill="#0078D4"/>
<path d="M10.1318 38.4062H0.0283203V48.5097H10.1318V38.4062Z" fill="#0078D4"/>
<path d="M22.7607 38.4062H12.6572V48.5097H22.7607V38.4062Z" fill="#0078D4"/>
<path d="M35.3901 38.4062H25.2866V48.5097H35.3901V38.4062Z" fill="#0078D4"/>
<path d="M48.0195 38.4062H37.916V48.5097H48.0195V38.4062Z" fill="#0078D4"/>
</svg>
