<svg data-slug-id="grid10" viewBox="0 0 49 49" xmlns="http://www.w3.org/2000/svg">
<path d="M35.1396 23.1658V13.2812L25.2551 13.2812V23.1658H35.1396Z" fill="#0078D4"/>
<path d="M35.1396 35.5213V25.6367L25.2551 25.6367V35.5213H35.1396Z" fill="#0078D4"/>
<path d="M47.4623 18.2227H30.1973V30.5784H38.4509V37.9918H40.922V30.5784H47.4623V18.2227Z" fill="#50E6FF"/>
<path d="M10.4282 23.1658L10.4282 13.2812L0.543652 13.2812L0.543652 23.1658H10.4282Z" fill="#0078D4"/>
<path d="M22.7842 23.1658L22.7842 13.2812L12.8996 13.2812L12.8996 23.1658H22.7842Z" fill="#0078D4"/>
<path d="M10.4282 35.5213L10.4282 25.6367L0.543652 25.6367L0.543652 35.5213H10.4282Z" fill="#0078D4"/>
<path d="M22.7842 35.5213L22.7842 25.6367L12.8996 25.6367L12.8996 35.5213H22.7842Z" fill="#0078D4"/>
<path d="M42.3311 19.8125L37.0511 25.0925L35.2966 23.338L33.5503 25.0843L37.0428 28.6015L44.0856 21.5588L42.3311 19.8125Z" fill="#0078D4"/>
<path d="M47.4952 37.9922H0.543457V42.9345H47.4952V37.9922Z" fill="#0078D7"/>
</svg>
