<svg data-slug-id="grid04" viewBox="0 0 49 49" xmlns="http://www.w3.org/2000/svg">
<path d="M3.76953 2.66016C3.76953 3.486 3.09537 4.16016 2.26953 4.16016C1.44369 4.16016 0.769531 3.486 0.769531 2.66016C0.769531 1.83431 1.44369 1.16016 2.26953 1.16016C3.09537 1.16016 3.76953 1.83431 3.76953 2.66016Z" fill="#0078D4"/>
<path d="M12.4663 2.66016C12.4663 3.486 11.7922 4.16016 10.9663 4.16016C10.1405 4.16016 9.46631 3.486 9.46631 2.66016C9.46631 1.83431 10.1405 1.16016 10.9663 1.16016C11.7922 1.16016 12.4663 1.83431 12.4663 2.66016Z" fill="#0078D4"/>
<path d="M21.1714 2.66016C21.1714 3.486 20.4972 4.16016 19.6714 4.16016C18.8455 4.16016 18.1714 3.486 18.1714 2.66016C18.1714 1.83431 18.8455 1.16016 19.6714 1.16016C20.4972 1.16016 21.1714 1.83431 21.1714 2.66016Z" fill="#0078D4"/>
<path d="M30.0195 2.66016C30.0195 3.486 29.3454 4.16016 28.5195 4.16016C27.6937 4.16016 27.0195 3.486 27.0195 2.66016C27.0195 1.83431 27.6937 1.16016 28.5195 1.16016C29.3454 1.16016 30.0195 1.83431 30.0195 2.66016Z" fill="#50E6FF"/>
<path d="M39.0195 2.66016C39.0195 3.486 38.3454 4.16016 37.5195 4.16016C36.6937 4.16016 36.0195 3.486 36.0195 2.66016C36.0195 1.83431 36.6937 1.16016 37.5195 1.16016C38.3454 1.16016 39.0195 1.83431 39.0195 2.66016Z" fill="#0078D4"/>
<path d="M47.2695 2.66016C47.2695 3.486 46.5954 4.16016 45.7695 4.16016C44.9437 4.16016 44.2695 3.486 44.2695 2.66016C44.2695 1.83431 44.9437 1.16016 45.7695 1.16016C46.5954 1.16016 47.2695 1.83431 47.2695 2.66016Z" fill="#0078D4"/>
<path d="M3.76953 11.3555C3.76953 12.1813 3.09537 12.8555 2.26953 12.8555C1.44369 12.8555 0.769531 12.1813 0.769531 11.3555C0.769531 10.5296 1.44369 9.85547 2.26953 9.85547C3.09537 9.85547 3.76953 10.5296 3.76953 11.3555Z" fill="#0078D4"/>
<path d="M12.4668 11.3555C12.4668 12.1813 11.7926 12.8555 10.9668 12.8555C10.141 12.8555 9.4668 12.1813 9.4668 11.3555C9.4668 10.5296 10.141 9.85547 10.9668 9.85547C11.7926 9.85547 12.4668 10.5296 12.4668 11.3555Z" fill="#0078D4"/>
<path d="M21.9219 11.3555C21.9219 12.5942 20.9106 13.6055 19.6719 13.6055C18.4331 13.6055 17.4219 12.5942 17.4219 11.3555C17.4219 10.1167 18.4331 9.10547 19.6719 9.10547C20.9106 9.10547 21.9219 10.1167 21.9219 11.3555Z" fill="#0078D4"/>
<path d="M30.77 11.3555C30.77 12.5942 29.7588 13.6055 28.52 13.6055C27.2813 13.6055 26.27 12.5942 26.27 11.3555C26.27 10.1167 27.2813 9.10547 28.52 9.10547C29.7672 9.10547 30.77 10.1167 30.77 11.3555Z" fill="#50E6FF"/>
<path d="M39.7695 11.3555C39.7695 12.5942 38.7583 13.6055 37.5195 13.6055C36.2808 13.6055 35.2695 12.5942 35.2695 11.3555C35.2695 10.1167 36.2808 9.10547 37.5195 9.10547C38.7667 9.10547 39.7695 10.1167 39.7695 11.3555Z" fill="#0078D4"/>
<path d="M48.0195 11.3555C48.0195 12.5942 47.0083 13.6055 45.7695 13.6055C44.5308 13.6055 43.5195 12.5942 43.5195 11.3555C43.5195 10.1167 44.5308 9.10547 45.7695 9.10547C47.0167 9.10547 48.0195 10.1167 48.0195 11.3555Z" fill="#0078D4"/>
<path d="M3.76953 20.0625C3.76953 20.8883 3.09537 21.5625 2.26953 21.5625C1.44369 21.5625 0.769531 20.8883 0.769531 20.0625C0.769531 19.2367 1.44369 18.5625 2.26953 18.5625C3.09537 18.5625 3.76953 19.2282 3.76953 20.0625Z" fill="#0078D4"/>
<path d="M13.2163 20.0625C13.2163 21.3013 12.2051 22.3125 10.9663 22.3125C9.72754 22.3125 8.71631 21.3013 8.71631 20.0625C8.71631 18.8237 9.72754 17.8125 10.9663 17.8125C12.2051 17.8125 13.2163 18.8153 13.2163 20.0625Z" fill="#0078D4"/>
<path d="M21.9219 20.0625C21.9219 21.3013 20.9106 22.3125 19.6719 22.3125C18.4331 22.3125 17.4219 21.3013 17.4219 20.0625C17.4219 18.8237 18.4331 17.8125 19.6719 17.8125C20.9106 17.8125 21.9219 18.8153 21.9219 20.0625Z" fill="#50E6FF"/>
<path d="M31.5195 20.0625C31.5195 21.7226 30.1796 23.0625 28.5195 23.0625C26.8594 23.0625 25.5195 21.7226 25.5195 20.0625C25.5195 18.4024 26.8594 17.0625 28.5195 17.0625C30.1796 17.0625 31.5195 18.4024 31.5195 20.0625Z" fill="#50E6FF"/>
<path d="M39.7695 20.0625C39.7695 21.3013 38.7583 22.3125 37.5195 22.3125C36.2808 22.3125 35.2695 21.3013 35.2695 20.0625C35.2695 18.8237 36.2808 17.8125 37.5195 17.8125C38.7667 17.8125 39.7695 18.8153 39.7695 20.0625Z" fill="#50E6FF"/>
<path d="M48.0195 20.0625C48.0195 21.3013 47.0083 22.3125 45.7695 22.3125C44.5308 22.3125 43.5195 21.3013 43.5195 20.0625C43.5195 18.8237 44.5308 17.8125 45.7695 17.8125C47.0167 17.8125 48.0195 18.8153 48.0195 20.0625Z" fill="#0078D4"/>
<path d="M3.76953 28.9102C3.76953 29.736 3.09537 30.4102 2.26953 30.4102C1.44369 30.4102 0.769531 29.736 0.769531 28.9102C0.769531 28.0843 1.44369 27.4102 2.26953 27.4102C3.09537 27.4102 3.76953 28.0843 3.76953 28.9102Z" fill="#0078D4"/>
<path d="M13.2163 28.9102C13.2163 30.1489 12.2051 31.1602 10.9663 31.1602C9.72754 31.1602 8.71631 30.1489 8.71631 28.9102C8.71631 27.6714 9.72754 26.6602 10.9663 26.6602C12.2051 26.6602 13.2163 27.6714 13.2163 28.9102Z" fill="#50E6FF"/>
<path d="M22.6714 28.9102C22.6714 30.5703 21.3315 31.9102 19.6714 31.9102C18.0113 31.9102 16.6714 30.5703 16.6714 28.9102C16.6714 27.25 18.0113 25.9102 19.6714 25.9102C21.3315 25.9102 22.6714 27.25 22.6714 28.9102Z" fill="#50E6FF"/>
<path d="M33.0195 28.9102C33.0195 31.3961 31.0055 33.4102 28.5195 33.4102C26.0336 33.4102 24.0195 31.3961 24.0195 28.9102C24.0195 26.4242 26.0336 24.4102 28.5195 24.4102C31.0055 24.4102 33.0195 26.4242 33.0195 28.9102Z" fill="#50E6FF"/>
<path d="M40.5195 28.9102C40.5195 30.5703 39.1796 31.9102 37.5195 31.9102C35.8594 31.9102 34.5195 30.5703 34.5195 28.9102C34.5195 27.25 35.8594 25.9102 37.5195 25.9102C39.1796 25.9102 40.5195 27.25 40.5195 28.9102Z" fill="#50E6FF"/>
<path d="M47.2695 28.9102C47.2695 29.736 46.5954 30.4102 45.7695 30.4102C44.9437 30.4102 44.2695 29.736 44.2695 28.9102C44.2695 28.0843 44.9437 27.4102 45.7695 27.4102C46.5954 27.4102 47.2695 28.0843 47.2695 28.9102Z" fill="#50E6FF"/>
<path d="M3.76953 37.4648C3.76953 38.2907 3.09537 38.9648 2.26953 38.9648C1.44369 38.9648 0.769531 38.2907 0.769531 37.4648C0.769531 36.639 1.44369 35.9648 2.26953 35.9648C3.09537 35.9648 3.76953 36.6306 3.76953 37.4648Z" fill="#0078D4"/>
<path d="M12.4668 37.4648C12.4668 38.2907 11.7926 38.9648 10.9668 38.9648C10.141 38.9648 9.4668 38.2907 9.4668 37.4648C9.4668 36.639 10.141 35.9648 10.9668 35.9648C11.7926 35.9648 12.4668 36.6306 12.4668 37.4648Z" fill="#0078D4"/>
<path d="M21.9219 37.4648C21.9219 38.7036 20.9106 39.7148 19.6719 39.7148C18.4331 39.7148 17.4219 38.7036 17.4219 37.4648C17.4219 36.2261 18.4331 35.2148 19.6719 35.2148C20.9106 35.2148 21.9219 36.2177 21.9219 37.4648Z" fill="#50E6FF"/>
<path d="M31.5195 37.4648C31.5195 39.125 30.1796 40.4648 28.5195 40.4648C26.8594 40.4648 25.5195 39.125 25.5195 37.4648C25.5195 35.8047 26.8594 34.4648 28.5195 34.4648C30.1796 34.4648 31.5195 35.8047 31.5195 37.4648Z" fill="#50E6FF"/>
<path d="M39.7695 37.75C39.7695 38.9888 38.7583 40 37.5195 40C36.2808 40 35.2695 38.9888 35.2695 37.75C35.2695 36.5112 36.2808 35.5 37.5195 35.5C38.7667 35.5 39.7695 36.5112 39.7695 37.75Z" fill="#50E6FF"/>
<path d="M47.2695 37.4648C47.2695 38.2907 46.5954 38.9648 45.7695 38.9648C44.9437 38.9648 44.2695 38.2907 44.2695 37.4648C44.2695 36.639 44.9437 35.9648 45.7695 35.9648C46.5954 35.9648 47.2695 36.6306 47.2695 37.4648Z" fill="#50E6FF"/>
<path d="M3.76953 46.1602C3.76953 46.986 3.09537 47.6602 2.26953 47.6602C1.44369 47.6602 0.769531 46.986 0.769531 46.1602C0.769531 45.3343 1.44369 44.6602 2.26953 44.6602C3.09537 44.6602 3.76953 45.3343 3.76953 46.1602Z" fill="#0078D4"/>
<path d="M12.4663 46.1602C12.4663 46.986 11.7922 47.6602 10.9663 47.6602C10.1405 47.6602 9.46631 46.986 9.46631 46.1602C9.46631 45.3343 10.1405 44.6602 10.9663 44.6602C11.7922 44.6602 12.4663 45.3343 12.4663 46.1602Z" fill="#0078D4"/>
<path d="M21.9219 46.1602C21.9219 47.3989 20.9106 48.4102 19.6719 48.4102C18.4331 48.4102 17.4219 47.3989 17.4219 46.1602C17.4219 44.9214 18.4331 43.9102 19.6719 43.9102C20.9106 43.9102 21.9219 44.9214 21.9219 46.1602Z" fill="#0078D4"/>
<path d="M30.77 46.1602C30.77 47.3989 29.7588 48.4102 28.52 48.4102C27.2813 48.4102 26.27 47.3989 26.27 46.1602C26.27 44.9214 27.2813 43.9102 28.52 43.9102C29.7672 43.9102 30.77 44.9214 30.77 46.1602Z" fill="#50E6FF"/>
<path d="M39.7695 46.1602C39.7695 47.3989 38.7583 48.4102 37.5195 48.4102C36.2808 48.4102 35.2695 47.3989 35.2695 46.1602C35.2695 44.9214 36.2808 43.9102 37.5195 43.9102C38.7667 43.9102 39.7695 44.9214 39.7695 46.1602Z" fill="#0078D4"/>
<path d="M47.2695 46.1602C47.2695 46.986 46.5954 47.6602 45.7695 47.6602C44.9437 47.6602 44.2695 46.986 44.2695 46.1602C44.2695 45.3343 44.9437 44.6602 45.7695 44.6602C46.5954 44.6602 47.2695 45.3343 47.2695 46.1602Z" fill="#50E6FF"/>
</svg>
