<svg data-slug-id="grid08" viewBox="0 0 49 49" xmlns="http://www.w3.org/2000/svg">
<path d="M2.54587 5.46258C1.14796 5.46258 0.0195312 4.33421 0.0195312 2.93637C0.0195312 1.53853 1.14796 0.410156 2.54587 0.410156C3.94378 0.410156 5.07221 1.53853 5.07221 2.93637C5.07221 4.32579 3.93535 5.46258 2.54587 5.46258Z" fill="#0078D4"/>
<path d="M12.2304 0.410156H7.17773V5.46258H12.2304V0.410156Z" fill="#0078D4"/>
<path d="M19.3881 0.410156H14.3354V5.46258H19.3881V0.410156Z" fill="#0078D4"/>
<path d="M31.1777 0.410156C29.7798 0.410156 28.6514 1.53853 28.6514 2.93637C28.6514 4.33421 29.7798 5.46258 31.1777 5.46258C32.5756 5.46258 33.704 4.33421 33.704 2.93637C33.704 1.53853 32.5756 0.410156 31.1777 0.410156Z" fill="#50E6FF"/>
<path d="M38.5382 5.45328C36.9802 5.57117 35.6918 4.29122 35.8181 2.73339C35.9108 1.50397 36.9045 0.518748 38.1339 0.417699C39.6919 0.299809 40.9803 1.57976 40.854 3.13759C40.7613 4.36701 39.7676 5.36065 38.5382 5.45328Z" fill="#50E6FF"/>
<path d="M5.07221 7.56641H0.0195312V12.6188H5.07221V7.56641Z" fill="#0078D4"/>
<path d="M12.2304 7.56641H7.17773V12.6188H12.2304V7.56641Z" fill="#0078D4"/>
<path d="M19.3876 7.56641H14.335V12.6188H19.3876V7.56641Z" fill="#0078D4"/>
<path d="M26.5458 7.56641H21.4932V12.6188H26.5458V7.56641Z" fill="#0078D4"/>
<path d="M33.704 7.56641H28.6514V12.6188H33.704V7.56641Z" fill="#0078D4"/>
<path d="M38.3359 12.6188C36.938 12.6188 35.8096 11.4905 35.8096 10.0926C35.8096 8.69478 36.938 7.56641 38.3359 7.56641C39.7338 7.56641 40.8622 8.69478 40.8622 10.0926C40.8622 11.482 39.7254 12.6188 38.3359 12.6188Z" fill="#50E6FF"/>
<path d="M5.07221 14.7266H0.0195312V19.779H5.07221V14.7266Z" fill="#0078D4"/>
<path d="M12.2304 14.7266H7.17773V19.779H12.2304V14.7266Z" fill="#0078D4"/>
<path d="M19.3876 14.7266H14.335V19.779H19.3876V14.7266Z" fill="#0078D4"/>
<path d="M26.5458 14.7266H21.4932V19.779H26.5458V14.7266Z" fill="#0078D4"/>
<path d="M31.1777 14.7266C29.7798 14.7266 28.6514 15.8549 28.6514 17.2528C28.6514 18.6506 29.7798 19.779 31.1777 19.779C32.5756 19.779 33.704 18.6506 33.704 17.2528C33.704 15.8549 32.5756 14.7266 31.1777 14.7266Z" fill="#50E6FF"/>
<path d="M40.8622 14.7266H35.8096V19.779H40.8622V14.7266Z" fill="#0078D4"/>
<path d="M45.4931 14.7266C44.0952 14.7266 42.9668 15.8549 42.9668 17.2528C42.9668 18.6506 44.0952 19.779 45.4931 19.779C46.891 19.779 48.0195 18.6506 48.0195 17.2528C48.0195 15.8549 46.891 14.7266 45.4931 14.7266Z" fill="#50E6FF"/>
<path d="M5.07221 21.8828H0.0195312V26.9352H5.07221V21.8828Z" fill="#0078D4"/>
<path d="M12.2304 21.8828H7.17773V26.9352H12.2304V21.8828Z" fill="#0078D4"/>
<path d="M19.3876 21.8828H14.335V26.9352H19.3876V21.8828Z" fill="#0078D4"/>
<path d="M24.0195 26.9352C22.6216 26.9352 21.4932 25.8069 21.4932 24.409C21.4932 23.0112 22.6216 21.8828 24.0195 21.8828C25.4174 21.8828 26.5458 23.0112 26.5458 24.409C26.5458 25.7984 25.409 26.9352 24.0195 26.9352Z" fill="#50E6FF"/>
<path d="M33.704 21.8828H28.6514V26.9352H33.704V21.8828Z" fill="#0078D4"/>
<path d="M40.8622 21.8828H35.8096V26.9352H40.8622V21.8828Z" fill="#0078D4"/>
<path d="M5.07221 29.043H0.0195312V34.0954H5.07221V29.043Z" fill="#0078D4"/>
<path d="M12.2304 29.043H7.17773V34.0954H12.2304V29.043Z" fill="#0078D4"/>
<path d="M16.8613 34.0954C15.4634 34.0954 14.335 32.967 14.335 31.5692C14.335 30.1713 15.4634 29.043 16.8613 29.043C18.2592 29.043 19.3876 30.1713 19.3876 31.5692C19.3876 32.9586 18.2508 34.0954 16.8613 34.0954Z" fill="#50E6FF"/>
<path d="M26.5458 29.043H21.4932V34.0954H26.5458V29.043Z" fill="#0078D4"/>
<path d="M33.704 29.043H28.6514V34.0954H33.704V29.043Z" fill="#0078D4"/>
<path d="M38.3359 34.0954C36.938 34.0954 35.8096 32.967 35.8096 31.5692C35.8096 30.1713 36.938 29.043 38.3359 29.043C39.7338 29.043 40.8622 30.1713 40.8622 31.5692C40.8622 32.9586 39.7254 34.0954 38.3359 34.0954Z" fill="#0078D4"/>
<path d="M48.0195 29.043H42.9668V34.0954H48.0195V29.043Z" fill="#0078D4"/>
<path d="M5.07221 36.1992H0.0195312V41.2516H5.07221V36.1992Z" fill="#0078D4"/>
<path d="M9.70407 36.1992C8.30617 36.1992 7.17773 37.3276 7.17773 38.7254C7.17773 40.1233 8.30617 41.2516 9.70407 41.2516C11.102 41.2516 12.2304 40.1233 12.2304 38.7254C12.2304 37.3276 11.102 36.1992 9.70407 36.1992Z" fill="#50E6FF"/>
<path d="M19.3876 36.1992H14.335V41.2516H19.3876V36.1992Z" fill="#0078D4"/>
<path d="M24.0195 41.2516C22.6216 41.2516 21.4932 40.1233 21.4932 38.7254C21.4932 37.3276 22.6216 36.1992 24.0195 36.1992C25.4174 36.1992 26.5458 37.3276 26.5458 38.7254C26.5458 40.1148 25.409 41.2516 24.0195 41.2516Z" fill="#0078D4"/>
<path d="M33.704 36.1992H28.6514V41.2516H33.704V36.1992Z" fill="#0078D4"/>
<path d="M40.8622 36.1992H35.8096V41.2516H40.8622V36.1992Z" fill="#0078D4"/>
<path d="M48.0195 36.1992H42.9668V41.2516H48.0195V36.1992Z" fill="#0078D4"/>
<path d="M2.54587 43.3594C1.14796 43.3594 0.0195312 44.4877 0.0195312 45.8856C0.0195312 47.2834 1.14796 48.4118 2.54587 48.4118C3.94378 48.4118 5.07221 47.2834 5.07221 45.8856C5.07221 44.4877 3.94378 43.3594 2.54587 43.3594Z" fill="#50E6FF"/>
<path d="M12.2304 43.3594H7.17773V48.4118H12.2304V43.3594Z" fill="#0078D4"/>
<path d="M19.3876 43.3594H14.335V48.4118H19.3876V43.3594Z" fill="#0078D4"/>
<path d="M26.5458 43.3594H21.4932V48.4118H26.5458V43.3594Z" fill="#0078D4"/>
<path d="M33.704 43.3594H28.6514V48.4118H33.704V43.3594Z" fill="#0078D4"/>
<path d="M38.3359 48.4118C36.938 48.4118 35.8096 47.2834 35.8096 45.8856C35.8096 44.4877 36.938 43.3594 38.3359 43.3594C39.7338 43.3594 40.8622 44.4877 40.8622 45.8856C40.8622 47.275 39.7254 48.4118 38.3359 48.4118Z" fill="#0078D4"/>
<path d="M48.0195 43.3594H42.9668V48.4118H48.0195V43.3594Z" fill="#0078D4"/>
<path d="M48.0195 21.8828H42.9668V26.9352H48.0195V21.8828Z" fill="#50E6FF"/>
<path d="M48.0195 0.410156H42.9668V5.46258H48.0195V0.410156Z" fill="#50E6FF"/>
<path d="M48.0195 7.56641H42.9668V12.6188H48.0195V7.56641Z" fill="#50E6FF"/>
<path d="M26.5458 0.410156H21.4932V5.46258H26.5458V0.410156Z" fill="#50E6FF"/>
</svg>
