<svg data-slug-id="grid07" viewBox="0 0 49 49" xmlns="http://www.w3.org/2000/svg">
<path d="M24.1287 46.5709L4.07129 34.7951L5.35443 32.6172L24.1372 43.6332L42.4894 33.0308L43.7557 35.2256L24.1287 46.5709Z" fill="#50E6FF"/>
<path d="M24.1292 35.5435L4.07178 23.7762L5.35491 21.5898L24.1377 32.6143L42.4899 22.0119L43.7562 24.2067L24.1292 35.5435Z" fill="#50E6FF"/>
<path d="M24.1292 26.0552L4.07178 14.2879L5.35491 12.1016L24.1377 23.1261L42.4899 12.5236L43.7562 14.7184L24.1292 26.0552Z" fill="#50E6FF"/>
<path d="M24.1287 16.1724L4.07129 4.39664L5.35443 2.21875L24.1372 13.2348L42.4894 2.63238L43.7557 4.82715L24.1287 16.1724Z" fill="#50E6FF"/>
<path d="M7.22029 0.410156H0.0195312V7.61069H7.22029V0.410156Z" fill="#0078D4"/>
<path d="M27.6158 0.410156H20.415V7.61069H27.6158V0.410156Z" fill="#50E6FF"/>
<path d="M48.0191 0.410156H40.8184V7.61069H48.0191V0.410156Z" fill="#50E6FF"/>
<path d="M7.22029 10.6094H0.0195312V17.8099H7.22029V10.6094Z" fill="#0078D4"/>
<path d="M27.6158 10.6094H20.415V17.8099H27.6158V10.6094Z" fill="#50E6FF"/>
<path d="M48.0191 10.6094H40.8184V17.8099H48.0191V10.6094Z" fill="#0078D4"/>
<path d="M7.22029 20.8125H0.0195312V28.013H7.22029V20.8125Z" fill="#50E6FF"/>
<path d="M48.0191 20.8125H40.8184V28.013H48.0191V20.8125Z" fill="#0078D4"/>
<path d="M7.22029 31.0117H0.0195312V38.2123H7.22029V31.0117Z" fill="#50E6FF"/>
<path d="M27.6158 31.0117H20.415V38.2123H27.6158V31.0117Z" fill="#0078D4"/>
<path d="M48.0191 31.0117H40.8184V38.2123H48.0191V31.0117Z" fill="#0078D4"/>
<path d="M7.22029 41.2109H0.0195312V48.4115H7.22029V41.2109Z" fill="#50E6FF"/>
<path d="M27.6158 41.2109H20.415V48.4115H27.6158V41.2109Z" fill="#0078D4"/>
<path d="M48.0191 41.2109H40.8184V48.4115H48.0191V41.2109Z" fill="#0078D4"/>
<path d="M27.6158 20.8125H20.415V28.013H27.6158V20.8125Z" fill="#50E6FF"/>
</svg>
