<svg data-slug-id="grid01" viewBox="0 0 49 49" xmlns="http://www.w3.org/2000/svg">
<path d="M5.07266 0.410156H0.0200195V5.46263H5.07266V0.410156Z" fill="#50E6FF"/>
<path d="M5.07217 7.57031H0.0195312V12.6228H5.07217V7.57031Z" fill="#50E6FF"/>
<path d="M26.5468 7.57031H21.4941V12.6228H26.5468V7.57031Z" fill="#0078D4"/>
<path d="M33.703 7.57031H28.6504V12.6228H33.703V7.57031Z" fill="#50E6FF"/>
<path d="M5.07217 14.7266H0.0195312V19.779H5.07217V14.7266Z" fill="#50E6FF"/>
<path d="M26.5468 14.7266H21.4941V19.779H26.5468V14.7266Z" fill="#0078D4"/>
<path d="M33.703 14.7266H28.6504V19.779H33.703V14.7266Z" fill="#50E6FF"/>
<path d="M5.07217 21.8828H0.0195312V26.9353H5.07217V21.8828Z" fill="#50E6FF"/>
<path d="M12.2304 21.8828H7.17773V26.9353H12.2304V21.8828Z" fill="#0078D4"/>
<path d="M19.3886 21.8828H14.3359V26.9353H19.3886V21.8828Z" fill="#50E6FF"/>
<path d="M26.5468 21.8828H21.4941V26.9353H26.5468V21.8828Z" fill="#0078D4"/>
<path d="M33.703 21.8828H28.6504V26.9353H33.703V21.8828Z" fill="#50E6FF"/>
<path d="M5.07217 29.043H0.0195312V34.0954H5.07217V29.043Z" fill="#50E6FF"/>
<path d="M12.2304 29.043H7.17773V34.0954H12.2304V29.043Z" fill="#0078D4"/>
<path d="M19.3886 29.043H14.3359V34.0954H19.3886V29.043Z" fill="#50E6FF"/>
<path d="M26.5468 29.043H21.4941V34.0954H26.5468V29.043Z" fill="#0078D4"/>
<path d="M33.703 29.043H28.6504V34.0954H33.703V29.043Z" fill="#50E6FF"/>
<path d="M5.07217 36.1992H0.0195312V41.2517H5.07217V36.1992Z" fill="#50E6FF"/>
<path d="M12.2304 36.1992H7.17773V41.2517H12.2304V36.1992Z" fill="#0078D4"/>
<path d="M19.3886 36.1992H14.3359V41.2517H19.3886V36.1992Z" fill="#50E6FF"/>
<path d="M26.5468 36.1992H21.4941V41.2517H26.5468V36.1992Z" fill="#0078D4"/>
<path d="M33.703 36.1992H28.6504V41.2517H33.703V36.1992Z" fill="#50E6FF"/>
<path d="M40.8612 36.1992H35.8086V41.2517H40.8612V36.1992Z" fill="#0078D4"/>
<path d="M48.0194 36.1992H42.9668V41.2517H48.0194V36.1992Z" fill="#50E6FF"/>
<path d="M5.07217 43.3594H0.0195312V48.4118H5.07217V43.3594Z" fill="#50E6FF"/>
<path d="M12.2304 43.3594H7.17773V48.4118H12.2304V43.3594Z" fill="#0078D4"/>
<path d="M19.3886 43.3594H14.3359V48.4118H19.3886V43.3594Z" fill="#50E6FF"/>
<path d="M26.5468 43.3594H21.4941V48.4118H26.5468V43.3594Z" fill="#0078D4"/>
<path d="M33.703 43.3594H28.6504V48.4118H33.703V43.3594Z" fill="#50E6FF"/>
<path d="M40.8612 43.3594H35.8086V48.4118H40.8612V43.3594Z" fill="#0078D4"/>
<path d="M48.0194 43.3594H42.9668V48.4118H48.0194V43.3594Z" fill="#50E6FF"/>
</svg>
