<svg data-slug-id="grid12" viewBox="0 0 49 50" xmlns="http://www.w3.org/2000/svg">
<path d="M10.2606 0.410156H0.0273438V10.6434H10.2606V0.410156Z" fill="#0078D4"/>
<path d="M23.0526 0.410156H12.8193V10.6434H23.0526V0.410156Z" fill="#0078D4"/>
<path d="M35.8358 0.410156H25.6025V10.6434H35.8358V0.410156Z" fill="#0078D4"/>
<path d="M48.6273 0.410156H38.394V10.6434H48.6273V0.410156Z" fill="#0078D4"/>
<path d="M10.2611 13.2031H0.027832V23.4363H10.2611V13.2031Z" fill="#0078D4"/>
<path d="M23.0526 13.2031H12.8193V23.4363H23.0526V13.2031Z" fill="#0078D4"/>
<path d="M35.8358 13.2031H25.6025V23.4363H35.8358V13.2031Z" fill="#0078D4"/>
<path d="M48.6273 13.2031H38.394V23.4363H48.6273V13.2031Z" fill="#0078D4"/>
<path d="M5.14444 25.9922C2.32178 25.9922 0.027832 28.2861 0.027832 31.1088C0.027832 33.9315 2.32178 36.2254 5.14444 36.2254C7.96711 36.2254 10.2611 33.9315 10.2611 31.1088C10.2611 28.2776 7.96711 25.9922 5.14444 25.9922Z" fill="#50E6FF"/>
<path d="M17.9359 36.2176C15.1133 36.2176 12.8193 33.9237 12.8193 31.101C12.8193 28.2783 15.1133 25.9844 17.9359 25.9844C20.7586 25.9844 23.0526 28.2783 23.0526 31.101C23.0526 33.9237 20.7586 36.2176 17.9359 36.2176Z" fill="#50E6FF"/>
<path d="M30.7192 25.9922C27.8965 25.9922 25.6025 28.2861 25.6025 31.1088C25.6025 33.9315 27.8965 36.2254 30.7192 36.2254C33.5418 36.2254 35.8358 33.9315 35.8358 31.1088C35.8358 28.2776 33.5503 25.9922 30.7192 25.9922Z" fill="#50E6FF"/>
<path d="M43.5107 25.9922C40.688 25.9922 38.394 28.2861 38.394 31.1088C38.394 33.9315 40.688 36.2254 43.5107 36.2254C46.3333 36.2254 48.6273 33.9315 48.6273 31.1088C48.6273 28.2776 46.3333 25.9922 43.5107 25.9922Z" fill="#50E6FF"/>
<path d="M10.2611 38.7773H0.027832V49.0106H10.2611V38.7773Z" fill="#0078D4"/>
<path d="M23.0526 38.7773H12.8193V49.0106H23.0526V38.7773Z" fill="#0078D4"/>
<path d="M35.8358 38.7773H25.6025V49.0106H35.8358V38.7773Z" fill="#0078D4"/>
<path d="M48.6273 38.7773H38.394V49.0106H48.6273V38.7773Z" fill="#0078D4"/>
</svg>
