<svg data-slug-id="grid21" viewBox="0 0 49 49" xmlns="http://www.w3.org/2000/svg">
<path d="M16.2095 17.2327V22.1953H21.1721V17.2327H16.2095Z" fill="#0078D4"/>
<path d="M8.77783 17.2327L8.77783 22.1953H13.7404L13.7404 17.2327H8.77783Z" fill="#50E6FF"/>
<path d="M3.69727 19.7254L3.69727 22.2109H6.18278L6.18278 19.7254H3.69727Z" fill="#50E6FF"/>
<path d="M11.2129 12.202V14.6875H13.6984V12.202H11.2129Z" fill="#50E6FF"/>
<path d="M18.644 4.70979V7.19531L21.1296 7.19531V4.70979L18.644 4.70979Z" fill="#50E6FF"/>
<path d="M8.76953 24.678L8.76953 29.6406H13.7321L13.7321 24.678H8.76953Z" fill="#0078D4"/>
<path d="M1.2793 24.678L1.2793 29.6406H6.24191L6.24191 24.678H1.2793Z" fill="#50E6FF"/>
<path d="M1.2373 32.2132L1.2373 37.1758H6.19992L6.19992 32.2132H1.2373Z" fill="#0078D4"/>
<path d="M38.6296 9.68091L31.1646 9.71461L31.1646 17.1964H23.6491V24.6614L16.1841 24.6614L16.1841 32.1517H8.70229L8.70229 39.6335H1.2373L1.2373 47.1406L48.5801 47.1406L48.597 2.18222L38.6296 2.18222L38.6296 9.68091Z" fill="#0078D4"/>
<path d="M23.6909 9.7327V14.6953L28.6535 14.6953V9.7327L23.6909 9.7327Z" fill="#0078D4"/>
<path d="M16.2095 9.7327V14.6953L21.1721 14.6953V9.7327L16.2095 9.7327Z" fill="#50E6FF"/>
<path d="M31.1562 2.37723V7.33984L36.1189 7.33984V2.37723L31.1562 2.37723Z" fill="#0078D4"/>
<path d="M23.666 2.37723V7.33984L28.6286 7.33984V2.37723L23.666 2.37723Z" fill="#50E6FF"/>
<path d="M31.1562 2.37723V7.33984L36.1189 7.33984V2.37723L31.1562 2.37723Z" fill="#0078D4"/>
</svg>
