<svg data-slug-id="hadoop-clusters" xmlns="http://www.w3.org/2000/svg" viewBox="0 0 48 43">
    <rect x="2" y="2" width="44" height="30" rx="2" fill="white" stroke="#0078D4" stroke-width="4"/>
    <path d="M21.1075 13.2823C21.9175 13.2823 22.658 13.4906 23.3291 13.884V13.8609L21.3389 10.3897H19.7653C19.7653 11.0377 19.5339 11.6856 19.0942 12.1716L19.8348 13.4443C20.2282 13.3286 20.6678 13.2823 21.1075 13.2823Z" fill="#50E6FF"/>
    <path d="M12.8683 14.9493C13.0072 14.9261 13.1692 14.9261 13.308 14.9493L13.9791 13.7922L14.9279 12.126C14.4882 11.6401 14.2568 11.0153 14.2568 10.3673H12.6601L10.6699 13.8385L11.5261 15.3195C11.9427 15.0881 12.4055 14.9493 12.8683 14.9493Z" fill="#50E6FF"/>
    <path d="M15.8998 12.889L14.4419 15.4346C15.0667 15.8742 15.5064 16.5453 15.599 17.309H16.6866C16.8023 15.8974 17.5891 14.694 18.723 13.9767L18.0982 12.889C17.404 13.213 16.594 13.213 15.8998 12.889Z" fill="#50E6FF"/>
    <path d="M16.7566 18.4897H15.5069C15.2987 19.1608 14.859 19.7162 14.2573 20.0633L14.9978 21.3592H18.6079C17.6591 20.7113 16.9648 19.6931 16.7566 18.4897Z" fill="#50E6FF"/>
    <path d="M17.9524 11.3575C18.4856 10.8243 18.4856 9.95979 17.9524 9.42661C17.4192 8.89342 16.5548 8.89342 16.0216 9.42661C15.4884 9.95979 15.4884 10.8243 16.0216 11.3575C16.5548 11.8906 17.4192 11.8906 17.9524 11.3575Z" fill="#0078D4"/>
    <path d="M21.4216 19.0293C22.1554 18.856 22.6098 18.1207 22.4366 17.3868C22.2633 16.653 21.5279 16.1986 20.7941 16.3719C20.0602 16.5451 19.6058 17.2805 19.7791 18.0143C19.9524 18.7482 20.6877 19.2026 21.4216 19.0293Z" fill="#0078D4"/>
    <path d="M13.8382 18.6731C14.3713 18.1399 14.3713 17.2755 13.8382 16.7423C13.305 16.2091 12.4405 16.2091 11.9073 16.7423C11.3741 17.2755 11.3741 18.1399 11.9073 18.6731C12.4405 19.2063 13.305 19.2063 13.8382 18.6731Z" fill="#0078D4"/>
    <path opacity="0.5" d="M19.811 13.468L20.0424 13.8614L20.7135 15.0184C20.8524 14.9953 20.9912 14.9953 21.1301 15.0184C21.616 15.0184 22.0789 15.1573 22.4954 15.3887L23.3053 13.8845C22.6574 13.5142 21.8937 13.2828 21.0838 13.2828C20.6673 13.2828 20.2276 13.3291 19.811 13.468Z" fill="#50E6FF"/>
    <path opacity="0.5" d="M18.6078 21.3592H18.9549L19.6955 20.0865C19.0938 19.7394 18.6541 19.1608 18.469 18.4897H16.7334C16.9648 19.6931 17.659 20.7113 18.6078 21.3592Z" fill="#50E6FF"/>
    <path opacity="0.5" d="M16.688 17.3092H18.3773C18.493 16.5455 18.9095 15.8744 19.5575 15.4348L18.7013 13.9769C17.5905 14.6942 16.8268 15.8976 16.688 17.3092Z" fill="#50E6FF"/>
    <path fill-rule="evenodd" clip-rule="evenodd" d="M32.8702 24.524L26.8222 15.452L29.2842 13.8107L35.3322 22.8827L32.8702 24.524Z" fill="#0078D4"/>
    <path fill-rule="evenodd" clip-rule="evenodd" d="M45.2136 42.9618L32.7905 24.3272L35.2524 22.6859L47.6755 41.3205L45.2136 42.9618Z" fill="#50E6FF"/>
</svg>
