<svg data-slug-id="hadoop" xmlns="http://www.w3.org/2000/svg" viewBox="0 0 48 48">
    <path fill-rule="evenodd" clip-rule="evenodd" d="M23.8715 19.698C24.057 21.0745 24.2415 22.451 24.4269 23.8275C24.1764 24.8679 23.9267 25.9084 23.6761 26.9489C22.9036 27.1011 22.1301 27.2525 21.3576 27.4038C20.367 27.9785 19.3765 28.5533 18.3868 29.1271L16.7033 29.4568C15.9163 29.0875 15.1293 28.7181 14.3423 28.3488C14.6137 28.7379 14.8805 29.0631 15.1456 29.3316C15.4405 29.5271 15.7417 29.6685 16.071 29.7469C16.9765 29.9613 17.7328 29.9198 18.5424 29.5073C20.3417 28.5911 22.0053 27.4092 24.0353 27.3597C24.9733 25.0616 24.8793 23.141 24.4279 20.9178C24.1501 19.5449 24.0226 18.2369 23.9294 16.855C23.8887 17.1523 23.848 17.4495 23.8064 17.7468C23.8281 18.3972 23.8498 19.0476 23.8715 19.698Z" fill="#0078D4"/>
    <path fill-rule="evenodd" clip-rule="evenodd" d="M14.2393 25.6477C13.5861 24.727 12.933 23.8055 12.2799 22.8839C12.2745 22.992 12.2681 23.0911 12.2627 23.1839C12.3161 23.2596 12.3722 23.3379 12.4328 23.419C13.2098 24.4568 13.6287 24.9243 13.9679 25.9396C13.8322 26.2179 13.739 26.4747 13.6676 26.7548C13.806 26.9908 13.9435 27.2278 14.0755 27.4683C14.1298 26.862 14.1841 26.2548 14.2393 25.6477Z" fill="#0078D4"/>
    <path fill-rule="evenodd" clip-rule="evenodd" d="M21.7715 13.9791L21.6213 14.1745C21.074 14.8862 20.7266 15.3384 20.562 16.2636C20.4173 15.324 20.4236 15.0916 20.8931 14.3061L20.9628 14.1899L20.8415 14.2511C20.6787 14.334 20.5313 14.4484 20.3449 14.607C19.7189 15.1402 18.9482 16.9689 18.4877 18.0635C18.8116 16.8248 19.4611 14.806 20.1142 14.1628C20.5873 13.698 20.7004 13.6872 21.3291 13.6286L21.425 13.6205C22.1749 13.5494 22.9267 13.4728 23.6657 13.3908C23.0253 13.6286 22.4273 13.8151 21.785 13.9755L21.7715 13.9791ZM29.8398 13.3386C28.6601 13.9935 28.2196 14.7862 27.9708 15.7618C27.8017 14.6889 28.1038 13.8593 29.8398 13.3386ZM30.6738 19.3255C30.7507 19.1823 30.8366 19.0463 30.9307 18.9211L30.9497 18.8958L30.9162 18.8724L30.9298 18.8391C30.8394 18.8031 30.7588 18.7472 30.6928 18.676C30.539 18.549 30.4178 18.3941 30.3319 18.2157C30.245 18.0337 30.2007 17.841 30.1989 17.6392L30.198 17.559L30.1347 17.6094C29.9148 17.7833 29.6009 18.0193 29.2581 18.186C29.4508 17.9887 29.6588 17.7329 29.8759 17.4662C30.2161 17.0482 30.5689 16.6158 30.8538 16.4239C31.1714 16.2104 31.5504 16.1384 31.9511 16.0618C32.1899 16.0159 32.4351 15.969 32.673 15.8897C32.4939 16.0195 32.2867 16.1384 32.0425 16.2681L31.9656 16.3086L32.0479 16.3393C32.389 16.4636 32.6622 16.7104 32.8178 17.0356C32.8838 17.1725 32.9263 17.3203 32.9426 17.4725L32.948 17.5212L32.9942 17.5058C33.1335 17.4608 33.28 17.4203 33.4293 17.3869C33.6174 17.3455 33.8029 17.3167 33.9793 17.3023C32.7228 17.7148 31.4762 18.5229 30.5833 19.5066C30.6105 19.4472 30.6412 19.3868 30.6738 19.3255ZM41.2207 15.7564C42.0874 15.3285 42.8083 14.6412 43.3203 13.7584C42.9504 14.9069 42.29 15.6375 41.3076 15.987C40.8435 16.151 40.5043 16.0537 40.0882 15.9195C40.4808 15.96 40.7938 15.9663 41.2207 15.7564ZM44.1137 14.0547C44.0187 13.8268 43.8034 13.571 43.5646 13.4034C43.5474 13.3917 43.5302 13.38 43.513 13.3692L43.5899 13.0665L43.456 13.335C43.143 13.1575 42.8499 13.1701 42.6374 13.3746C42.4284 13.5773 42.2393 13.8187 42.0575 14.052C41.8187 14.3574 41.5717 14.6727 41.2777 14.9033C41.047 15.0844 40.7612 15.1844 40.4853 15.2817C39.9226 15.4799 39.3925 15.6663 39.5472 16.4933C39.729 17.4608 39.7372 18.3905 39.5716 19.1111C39.5436 19.2319 39.5155 19.3607 39.4866 19.4931C39.3554 20.0976 39.1962 20.8299 38.9366 21.2948C39.0596 20.748 39.2134 19.7958 39.2595 19.1571C39.2867 18.7787 39.2559 18.3031 39.1636 17.7022L39.1582 17.668L38.8543 17.6752C38.5042 17.6824 37.9605 18.1707 37.8167 18.4616C37.6303 18.8391 37.5245 19.2066 37.4213 19.5616C37.3454 19.821 37.273 20.0714 37.1726 20.321C37.2314 20.0525 37.2531 19.7877 37.2766 19.5147C37.3101 19.1156 37.3445 18.704 37.501 18.2626C37.6068 17.9644 37.88 17.6806 38.231 17.5049L38.3422 17.45L38.2201 17.4311C38.0736 17.4095 37.9334 17.4482 37.7551 17.4968C37.6909 17.5149 37.6222 17.5338 37.5471 17.5518C36.7375 17.7428 36.4878 18.2274 36.1983 18.7895C36.1124 18.9562 36.0237 19.1274 35.9179 19.2994C36.0192 19.0607 36.0898 18.84 36.1558 18.6364C36.3828 17.9364 36.533 17.4725 37.5715 17.2374C38.0826 17.1212 38.3947 17.0969 38.6824 17.2887C38.7041 17.3023 38.7249 17.3176 38.7457 17.3347L38.7584 17.3446L39.0985 17.3176L39.0913 17.2743C39.0515 17.0581 39.0071 16.832 38.9547 16.5825L38.9492 16.5555L38.9212 16.551C38.3938 16.4825 37.8945 16.4744 37.3481 16.5248C37.2793 16.5311 37.2097 16.5392 37.14 16.5474C37.2033 16.5221 37.2594 16.4996 37.3119 16.4807L37.3689 16.46L37.3264 16.4167C37.2838 16.3726 37.2458 16.3113 37.2169 16.2402C37.1273 16.0645 37.0903 15.869 37.1093 15.6726C37.1237 15.5222 37.1699 15.379 37.2477 15.2483L37.2947 15.1682L37.2042 15.1898C37.1762 15.197 37.1509 15.2042 37.1282 15.2141C37.0161 15.2583 36.8044 15.2628 36.6334 15.2402C36.95 15.1637 37.3282 15.0204 37.576 14.9006L37.6023 14.888C37.7235 14.8132 37.8556 14.7655 37.9967 14.7448C38.0799 14.7322 38.1649 14.7304 38.2482 14.7385C38.3631 14.7493 38.4752 14.779 38.5856 14.8295C38.7213 14.8691 38.876 14.924 39.0542 14.988L39.1736 15.0303L39.1329 14.9448C38.8434 14.343 38.5051 13.7755 38.0971 13.2098C37.7181 12.6846 37.3915 12.4927 36.8505 12.1756L36.8234 12.1594C36.6977 12.0855 36.5773 12.0116 36.4652 11.9387L36.4507 11.9333C36.1332 11.8756 35.803 11.8216 35.4927 11.8261C35.6682 11.7774 35.8374 11.7477 36.0355 11.7306L36.1413 11.7225L36.0545 11.6603C35.4873 11.2558 34.9798 10.8189 34.4424 10.3568C34.2317 10.1748 34.0137 9.98655 33.7893 9.79828C33.2809 9.37308 32.7951 9.02896 32.3048 8.747C31.099 8.05335 29.9194 7.7795 28.5932 7.8849C27.4362 7.97678 26.1453 8.35333 24.4075 9.10463C22.7973 9.80188 22.2337 10.518 21.3002 11.7063L21.2504 11.7693L21.3626 11.7684C22.2274 11.7468 22.9882 11.7198 23.7508 11.6639C22.8769 11.8549 22.0591 12.0071 21.2577 12.1278C21.1455 12.145 21.0415 12.1594 20.9438 12.1738C20.6507 12.2161 20.4191 12.2495 20.2083 12.3017C19.7424 12.4161 19.4023 12.6269 18.9075 13.1062C17.9477 14.0349 17.0747 15.0493 16.2298 16.0303C15.697 16.6483 15.1461 17.2869 14.5888 17.8869C13.7828 18.7526 13.3739 19.6066 12.9008 20.5948L12.8502 20.7011C12.3725 21.6974 12.4141 22.1073 13.0854 23.0127C13.1939 23.1586 13.2952 23.291 13.3902 23.4153L13.4771 23.5289C13.9167 24.1009 14.208 24.4783 14.426 25.0981L14.4522 25.1738L14.4966 25.1071C15.0384 24.2738 15.6662 23.5415 16.3302 22.7658C16.4469 22.6298 16.5663 22.4911 16.6857 22.3497C16.0787 23.3289 15.4554 24.3765 14.8937 25.4801C14.5146 26.2251 14.3057 26.6349 14.3174 27.507V27.5214L14.3274 27.5322C15.0972 28.4168 15.5541 28.842 16.2262 29.0258C17.0069 29.2393 17.7007 29.1807 18.3466 28.8474C18.7003 28.6654 19.0567 28.4672 19.4005 28.2772C20.6579 27.579 21.9587 26.8566 23.3926 26.7475L23.4134 26.7457L23.4242 26.7277C24.3822 25.0251 24.1054 22.8739 23.7698 20.9912C23.5129 19.5444 23.5454 18.2049 23.8792 16.6852C23.8829 16.7428 23.8865 16.8005 23.8901 16.8572C23.9742 18.1049 24.0918 19.4607 24.3894 20.9254C24.8318 23.1091 24.9367 25.0342 24.0077 27.3214C22.393 27.3682 21.0396 28.1087 19.6076 28.8933C19.2548 29.087 18.8894 29.2861 18.5248 29.4726C17.7586 29.8617 17.0277 29.9329 16.0805 29.7086C15.7712 29.6356 15.4726 29.5014 15.1669 29.2987C14.6268 28.9411 14.1067 28.3961 13.5331 27.7718C13.5856 27.3331 13.6381 27.0304 13.705 26.7647C13.7774 26.4827 13.8724 26.226 14.0026 25.9566L14.0099 25.9422L14.0053 25.9278C13.7086 25.0396 13.3486 24.5648 12.7525 23.7775C12.6629 23.6586 12.567 23.5325 12.4648 23.3955C12.4042 23.3145 12.3481 23.237 12.2947 23.1613C11.6 22.1668 11.5882 21.6389 12.2323 20.339C12.5987 19.5994 12.9768 18.8355 13.5114 18.0932C13.6562 17.8923 13.8009 17.7076 13.9538 17.5275C14.1103 17.3455 14.2632 17.1653 14.4142 16.9879C15.0059 16.2915 15.5658 15.6339 16.1303 15.0042L16.2036 14.9222L16.095 14.9394C12.9479 15.4159 11.1495 16.1816 9.22264 17.8653C7.84672 19.0679 6.86069 20.6002 6.11981 22.6848C5.68107 23.9207 5.58427 25.1332 5.77696 27.0088C5.89365 28.1493 6.2365 29.4041 6.79465 30.7383C7.32023 31.9922 8.00955 33.2462 8.78933 34.3677C8.61202 35.664 8.38587 36.5991 8.03578 37.4927C7.94713 37.7198 7.94713 37.9297 8.03578 38.1161C8.17962 38.4206 8.54327 38.6593 9.17922 38.8665C9.40809 38.9413 9.63786 39.0016 9.8414 39.0539C9.91558 39.0737 9.98614 39.0917 10.0531 39.1107C12.0912 39.6665 13.2084 39.6512 13.373 39.0647C13.5123 38.5701 13.5196 38.2305 13.4825 37.6612C13.7783 37.0748 13.9276 36.8477 14.0994 36.5847C14.1736 36.4721 14.2487 36.3568 14.341 36.2054C14.6657 35.6731 14.701 35.4496 14.7037 34.7983C14.7046 34.556 14.7028 34.2569 14.701 33.9434C14.6983 33.3642 14.6956 32.7237 14.7055 32.2967C14.7896 32.6742 14.8774 33.1192 14.9561 33.5561C14.9688 33.6254 14.9814 33.6939 14.9923 33.7615L14.9977 33.7894L15.0249 33.7939C16.7509 34.1002 18.428 34.0786 20.1531 33.7281L20.1794 33.7227L20.1839 33.6966C20.2038 33.5876 20.2373 33.4714 20.2798 33.3255L20.2888 33.293C20.3449 33.0967 20.4317 32.8958 20.5159 32.7012C20.5602 32.5994 20.6036 32.4958 20.6452 32.3922L20.5765 33.2597C20.5412 33.7047 20.5457 34.0245 20.5928 34.4011L20.6552 34.9046C20.6199 34.856 20.5828 34.8082 20.5466 34.7614C20.4643 34.6569 20.3802 34.5479 20.3205 34.4407L20.3006 34.4038L20.0997 34.5344C19.434 34.9704 19.0314 35.2343 18.3421 35.5974C18.1883 35.6785 18.0861 35.8037 18.039 35.9685C17.9287 36.3451 18.0996 36.9306 18.5474 37.7062C18.6316 37.8531 18.7103 37.9792 18.77 38.0729C19.3408 38.9764 20.0247 40.0592 20.989 40.0592C21.2179 40.0592 21.4612 39.9989 21.7235 39.861C22.0555 39.6863 22.2808 39.3485 22.4979 39.0224C22.5712 38.9125 22.6408 38.808 22.7141 38.7116C22.9231 38.5846 23.5608 38.0747 24.176 37.5819C24.7495 37.1225 25.342 36.6487 25.5012 36.5568C25.9861 36.2784 27.6669 33.5083 27.8704 32.8543C27.9989 32.4399 28.1346 32.0517 28.2657 31.676C28.6086 30.6914 28.9333 29.7609 29.0464 28.6141L29.0482 28.5853L29.022 28.5744C28.0848 28.1826 27.571 27.7538 26.9043 26.9998C27.7953 27.6196 28.652 28.0303 29.7972 28.3907C30.217 28.76 30.6412 29.1339 31.0818 29.5239L31.2012 29.6311C31.8091 30.1725 32.3826 30.6833 33.2692 30.6995C33.4863 30.7031 33.7151 30.6716 33.9458 30.6049C34.798 30.3581 35.5217 29.7023 35.7469 28.9726L36.097 27.834L36.0563 27.825C35.8555 27.7763 35.661 27.7232 35.4755 27.6664L35.4411 27.6556L35.4276 27.6889C35.2855 28.0276 35.2466 28.2249 35.2068 28.433C35.1869 28.5321 35.167 28.6348 35.1345 28.7537C34.9626 29.3915 34.0752 29.7744 33.2339 29.5726C32.9191 29.4969 32.7282 29.451 32.6187 29.3726L32.5138 29.296L32.5581 29.4176C32.673 29.723 32.8856 29.9068 33.1905 29.9626C33.4808 30.0158 33.7178 30.0482 34.0878 29.9933C33.9132 30.0734 33.7803 30.1194 33.66 30.1446C33.4528 30.1878 33.2809 30.1671 33.0376 30.1131C32.7409 30.0473 32.5256 29.9032 32.3971 29.6861C32.0615 29.1195 32.3492 28.1547 32.5382 27.516C32.6793 27.043 32.6812 26.5124 32.5437 25.8512C32.578 25.8728 32.6115 25.8945 32.645 25.9152C32.92 26.0899 33.1787 26.2548 33.4736 26.3899C33.5957 26.4458 33.7142 26.4926 33.8354 26.534C36.3928 27.3916 39.3274 28.1925 41.7906 26.8232C43.8848 25.6593 44.8645 23.0919 45.0844 21.0768C45.3105 18.9949 44.8844 15.9105 44.1137 14.0547Z" fill="#50E6FF"/>
    <path fill-rule="evenodd" clip-rule="evenodd" d="M30.0204 33.3026C30.0014 32.6405 29.8738 32.2585 29.6124 31.6414C29.4559 31.2721 29.3709 30.9271 29.2632 30.5802V30.5793C29.0289 31.4117 28.715 32.1973 28.4274 33.0972C28.156 33.9503 26.762 36.4249 25.9424 37.0248C26.1016 37.1438 26.3947 37.1897 26.9167 37.2347C27.2866 37.2663 28.7422 37.2735 29.1076 37.2798C29.9127 37.2933 30.2185 37.2329 30.2999 36.3204C30.3397 35.8736 30.3035 35.7898 30.0792 35.3988C30.0593 34.6998 30.0394 34.0007 30.0204 33.3026Z" fill="#50E6FF"/>
    <path fill-rule="evenodd" clip-rule="evenodd" d="M5.1785 19.3607C5.15227 19.0283 5.09075 18.7815 4.85646 18.6464C4.84017 18.7004 4.8248 18.7545 4.81032 18.8094C4.78228 18.9157 4.76147 19.0292 4.74609 19.1472C4.92702 19.1274 5.03828 19.2211 5.1785 19.3607Z" fill="#50E6FF"/>
    <path fill-rule="evenodd" clip-rule="evenodd" d="M5.46242 22.7636C5.48052 22.7041 5.49861 22.6447 5.5176 22.5861C5.63068 22.2294 5.751 21.8835 5.88126 21.5484C5.60897 21.7943 5.30321 22.0015 4.93232 22.1492C3.97161 22.533 3.99061 22.2015 3.5772 21.3718C4.35517 20.7529 4.1254 20.007 4.25747 19.1755C4.27466 19.0674 4.29728 18.9584 4.32894 18.8476C4.39407 18.6251 4.48815 18.4098 4.62203 18.1243C3.72918 18.6594 2.11353 20.1223 3.04257 21.2754C3.07243 21.3123 3.10499 21.3493 3.14027 21.3862C3.2624 21.8267 3.35738 22.1699 3.52564 22.5195C3.8712 23.2383 4.77491 23.0537 5.46242 22.7636Z" fill="#50E6FF"/>
    <path fill-rule="evenodd" clip-rule="evenodd" d="M5.61659 29.4069C5.5207 29.6627 5.4239 29.9194 5.32711 30.1762C5.29726 30.205 5.26831 30.2347 5.23936 30.2645C4.82776 30.6788 4.41707 31.0932 4.00637 31.5067C3.6798 31.8364 3.61648 31.8481 3.68161 32.3148C3.77026 32.939 4.13483 33.6048 4.68121 34.1723C4.69297 34.1849 4.70473 34.1975 4.71649 34.2101C5.23484 34.7362 7.02236 36.1109 7.72615 35.174C7.87541 34.9749 7.94688 34.7263 8.00839 34.4723C8.00839 34.4633 8.00839 34.4552 8.00839 34.4461C7.02508 32.9643 6.13765 31.2013 5.61659 29.4069Z" fill="#50E6FF"/>
    <path fill-rule="evenodd" clip-rule="evenodd" d="M44.5397 24.9633L44.5443 24.966L44.5397 24.9633ZM4.30602 21.8077L4.30783 21.8032L4.30602 21.8077ZM17.7269 13.2821L17.7233 13.2785L17.7269 13.2821ZM29.4869 29.6179H29.4878H29.4869ZM14.1763 37.7327H14.1754H14.1763ZM4.71309 19.4925H4.7149H4.71309ZM4.10338 21.4392L4.10248 21.4383L4.10338 21.4392ZM4.74566 19.1475C4.76104 19.0295 4.78185 18.916 4.80989 18.8088C4.82436 18.7538 4.83974 18.6998 4.85602 18.6457C5.09122 18.7818 5.15183 19.0286 5.17807 19.361C5.03785 19.2214 4.92658 19.1268 4.74566 19.1475ZM3.04227 21.2753C2.11323 20.1222 3.72887 18.6592 4.62173 18.1241C4.48875 18.4097 4.39376 18.625 4.32863 18.8475C4.29697 18.9583 4.27436 19.0673 4.25717 19.1754C4.126 20.0078 4.35487 20.7528 3.5769 21.3717C3.99031 22.2022 3.97131 22.5328 4.93201 22.1491C5.3029 22.0014 5.60867 21.7942 5.88095 21.5482C5.75159 21.8842 5.63038 22.2293 5.5173 22.586C5.4983 22.6446 5.48021 22.704 5.46212 22.7635C4.77461 23.0535 3.8709 23.2382 3.52533 22.5193C3.35798 22.1698 3.26299 21.8275 3.13997 21.3861C3.10469 21.3491 3.07212 21.3122 3.04227 21.2753ZM4.68053 34.1726C4.13504 33.605 3.77048 32.9393 3.68183 32.3141C3.6167 31.8484 3.68002 31.8367 4.00659 31.507C4.41728 31.0926 4.82798 30.6782 5.23868 30.2647C5.26853 30.235 5.29748 30.2053 5.32733 30.1756C5.42322 29.9188 5.52001 29.663 5.61681 29.4071C6.13696 31.2007 7.02439 32.9636 8.00861 34.4455C8.00771 34.4545 8.00771 34.4626 8.00771 34.4717C7.94619 34.7266 7.87473 34.9752 7.72547 35.1743C7.02258 36.1112 5.23415 34.7365 4.71671 34.2095C4.70405 34.1969 4.69319 34.1843 4.68053 34.1726ZM31.1071 29.4945C30.6647 29.1027 30.2387 28.727 29.8171 28.3559C28.6791 27.9982 27.7627 27.5802 26.7116 26.8145C26.6989 26.8046 26.6853 26.7956 26.6718 26.7848C26.6663 26.7821 26.6618 26.7785 26.6564 26.774C26.6618 26.7812 26.6681 26.7875 26.6736 26.7938C27.4289 27.6766 27.9482 28.1685 29.0066 28.6099C28.8519 30.1855 28.3019 31.3349 27.8324 32.8429C27.6207 33.524 25.9453 36.2562 25.4813 36.5229C25.1502 36.7129 23.0768 38.4525 22.6869 38.6813C22.3965 39.0659 22.1414 39.5965 21.7045 39.8262C20.3738 40.5271 19.519 39.1848 18.8025 38.0516C18.7437 37.9579 18.665 37.8327 18.5818 37.6876C18.2036 37.0309 17.7142 35.9734 18.361 35.6319C19.1064 35.2383 19.5253 34.9572 20.2861 34.4599C20.3982 34.6626 20.5891 34.8581 20.7149 35.0608C20.6868 34.8392 20.6597 34.6176 20.6316 34.396C20.5819 33.9942 20.5837 33.6681 20.6163 33.2627C20.6416 32.9429 20.666 32.6222 20.6913 32.3015C20.6977 32.2304 20.7031 32.1592 20.7085 32.0889C20.5936 32.4862 20.3648 32.8844 20.2508 33.2825C20.2056 33.442 20.1676 33.5708 20.1459 33.6897C18.437 34.0375 16.7409 34.0591 15.0311 33.7555C15.0194 33.687 15.0076 33.6177 14.995 33.5492C14.8964 32.9997 14.7842 32.4493 14.6865 32.0331C14.6838 32.0214 14.6811 32.0097 14.6783 31.998C14.6449 32.5258 14.6666 33.9825 14.6639 34.7978C14.6621 35.431 14.6349 35.6472 14.3075 36.185C14.0008 36.6886 13.8714 36.803 13.4426 37.6525C13.4779 38.1894 13.4788 38.5443 13.335 39.0542C13.0971 39.901 10.6944 39.2452 10.0612 39.0722C9.82237 39.0065 9.50485 38.9317 9.19095 38.8299C8.48173 38.5975 7.7915 38.2254 8.07284 37.5066C8.43016 36.5949 8.65632 35.6337 8.83091 34.3581C8.09274 33.2988 7.38171 32.0385 6.83171 30.7233C6.31517 29.49 5.93975 28.2099 5.81582 27.0055C5.61771 25.0714 5.73622 23.8805 6.15686 22.6977C6.82266 20.824 7.75442 19.2015 9.24884 17.8944C11.2652 16.1333 13.1505 15.4252 16.1013 14.9784C15.3912 15.7685 14.6892 16.6053 13.9239 17.5026C13.7638 17.6908 13.6163 17.88 13.4797 18.0701C12.9578 18.7953 12.5869 19.534 12.197 20.3213C11.5638 21.6005 11.5339 22.141 12.2621 23.1833C12.2675 23.0905 12.2739 22.9923 12.2793 22.8842C12.9333 23.8057 13.5856 24.7264 14.2387 25.6479C14.1844 26.2551 14.1302 26.8614 14.0759 27.4685C13.9429 27.228 13.8054 26.9911 13.6679 26.7551C13.591 27.0542 13.5403 27.3794 13.4915 27.7847C14.103 28.4505 14.6132 28.9792 15.1451 29.3324C14.8801 29.063 14.6132 28.7378 14.3427 28.3487C15.1298 28.718 15.9159 29.0873 16.7038 29.4567L18.3864 29.1279C19.3769 28.5531 20.3666 27.9784 21.358 27.4037C22.1306 27.2523 22.9031 27.101 23.6757 26.9497C23.9262 25.9083 24.1759 24.8687 24.4265 23.8274C24.242 22.4509 24.0565 21.0744 23.8711 19.6979C23.8494 19.0475 23.8276 18.3971 23.8068 17.7476C23.8475 17.4494 23.8883 17.1521 23.9299 16.8549C23.9199 16.708 23.91 16.5612 23.9009 16.4135C23.521 18.0079 23.4495 19.4096 23.7318 20.9978C24.0719 22.9121 24.3369 25.0264 23.3898 26.7082C21.5543 26.8479 19.9821 27.9595 18.3285 28.8126C17.6645 29.1558 16.9716 29.1891 16.2361 28.9883C15.5531 28.8009 15.0927 28.3514 14.3563 27.5064C14.3455 26.6578 14.5372 26.2659 14.9289 25.4984C15.5567 24.2643 16.2515 23.1157 17.0123 21.9014C16.0805 23.022 15.1967 23.958 14.4631 25.0849C14.2288 24.4192 13.9085 24.0264 13.4218 23.3913C13.3269 23.2679 13.2255 23.1355 13.117 22.9896C12.4684 22.114 12.4005 21.7311 12.8854 20.7186C13.373 19.7006 13.7873 18.8061 14.6177 17.9133C16.0525 16.3702 17.366 14.6532 18.9355 13.1344C19.4529 12.6326 19.784 12.4462 20.2173 12.339C20.4977 12.2705 20.8198 12.2336 21.2631 12.1669C22.1749 12.0291 23.0687 11.857 23.9905 11.6516C24.1017 11.6264 24.2112 11.603 24.3234 11.5769C23.3165 11.6705 22.3423 11.7048 21.3617 11.7291C21.3517 11.73 21.3409 11.73 21.3309 11.73C22.2961 10.5031 22.8561 9.81842 24.4229 9.14099C26.0051 8.45635 27.3511 8.02305 28.5959 7.92395C29.8813 7.82216 31.0619 8.0771 32.2849 8.78155C32.768 9.05901 33.2574 9.40493 33.7639 9.82923C34.5492 10.4868 35.2349 11.1246 36.0318 11.6922C35.7433 11.7165 35.4936 11.7687 35.1652 11.8966C35.5659 11.821 36.0282 11.8966 36.4434 11.9723C36.561 12.0471 36.6804 12.121 36.8035 12.193C37.3652 12.5227 37.6846 12.7056 38.0645 13.2326C38.467 13.7902 38.8018 14.3469 39.0967 14.9613C38.904 14.8928 38.7411 14.8343 38.5964 14.791C38.4906 14.7433 38.3748 14.7109 38.2518 14.6992C38.1631 14.691 38.0753 14.6938 37.9903 14.7055C37.8438 14.728 37.7045 14.7784 37.5823 14.8541C37.5742 14.8577 37.567 14.8613 37.5588 14.8658C37.2531 15.0135 36.7836 15.1811 36.4615 15.2361C36.4552 15.2379 36.4488 15.2388 36.4434 15.2406C36.6072 15.2964 36.9717 15.3171 37.1427 15.2496C37.1662 15.2415 37.1897 15.2343 37.2133 15.2279C37.1355 15.3595 37.0857 15.5081 37.0703 15.6694C37.0495 15.8802 37.092 16.0819 37.1816 16.2585C37.1517 16.1828 37.1345 16.1018 37.1418 16.0297C37.1653 15.7883 37.3725 15.6099 37.6149 15.6333C37.8582 15.6567 38.0374 15.8729 38.0138 16.1153C38.0093 16.1666 37.9948 16.2144 37.974 16.2594C37.7515 16.2963 37.529 16.3621 37.3001 16.4459L37.2983 16.4441C37.2096 16.4765 37.1192 16.5125 37.0278 16.5504C36.9681 16.5747 36.9084 16.5999 36.8469 16.626C37.0197 16.5999 37.187 16.5792 37.3526 16.5639C37.879 16.5152 38.382 16.5207 38.9166 16.5909C38.9619 16.8107 39.0089 17.044 39.0523 17.2819C38.9655 17.2882 38.8787 17.2954 38.7918 17.3017C38.7846 17.3026 38.7773 17.3035 38.771 17.3044C38.7493 17.2864 38.7267 17.2701 38.7041 17.2557C38.3893 17.0458 38.0355 17.0918 37.5633 17.199C36.0264 17.5476 36.3873 18.407 35.6808 19.7006C36.4145 18.807 36.3602 17.8719 37.5561 17.5899C37.8356 17.5242 38.0247 17.4413 38.2138 17.4701C37.8736 17.6404 37.5805 17.9224 37.4638 18.2494C37.1355 19.1727 37.3399 19.951 36.979 20.814C37.4258 20.0429 37.453 19.2898 37.8519 18.4791C37.9957 18.1881 38.5277 17.7206 38.8551 17.7143C38.9447 17.7125 39.0342 17.7098 39.1238 17.708C39.2034 18.2214 39.2504 18.7313 39.2206 19.1538C39.1645 19.9249 38.9628 21.0699 38.8434 21.5077C39.2477 20.9897 39.4323 19.8925 39.6096 19.1196C39.795 18.3151 39.748 17.3503 39.5861 16.4855C39.3635 15.3 40.5902 15.4928 41.3021 14.9343C41.825 14.5235 42.185 13.8677 42.6654 13.4029C42.9214 13.1551 43.257 13.2371 43.541 13.4362C43.7853 13.6064 43.9915 13.8623 44.0775 14.0695C44.8889 16.0252 45.2589 19.1016 45.0445 21.0735C44.8039 23.285 43.731 25.6993 41.7716 26.7884C39.2749 28.1766 36.3294 27.3289 33.849 26.4965C33.7205 26.4533 33.6029 26.4056 33.4898 26.3542C33.1361 26.1912 32.8385 25.9894 32.4848 25.7678C32.6115 26.3362 32.6694 26.937 32.5002 27.5055C32.2333 28.4054 31.8009 29.8792 33.0285 30.1512C33.2791 30.2062 33.4564 30.2269 33.6681 30.1828C33.8517 30.1449 34.0616 30.0584 34.3673 29.8999C33.8336 30.0206 33.5649 29.9918 33.1977 29.9233C32.8648 29.8621 32.6884 29.6522 32.5952 29.4044C32.7119 29.4873 32.9009 29.5333 33.2248 29.6107C34.1357 29.8296 35.0033 29.3927 35.1724 28.7648C35.271 28.3973 35.2548 28.2045 35.4646 27.7037C35.6528 27.7613 35.8473 27.8145 36.0472 27.8622C35.9341 28.2288 35.8219 28.5955 35.7089 28.9612C35.48 29.7053 34.7319 30.3359 33.9349 30.5665C33.7133 30.6314 33.4889 30.6638 33.27 30.6602C32.3392 30.644 31.7494 30.0639 31.1071 29.4945ZM29.6127 31.6421C29.8741 32.2592 30.0016 32.6402 30.0206 33.3024C30.0396 34.0014 30.0595 34.7005 30.0794 35.3986C30.3038 35.7905 30.3391 35.8734 30.2993 36.3202C30.2179 37.2336 29.913 37.294 29.1079 37.2796C28.7424 37.2733 27.286 37.2661 26.9169 37.2345C26.3949 37.1895 26.1018 37.1435 25.9417 37.0255C26.7622 36.4256 28.1562 33.9501 28.4276 33.0979C28.7144 32.197 29.0292 31.4115 29.2635 30.5791V30.58C29.3702 30.9278 29.4562 31.2719 29.6127 31.6421ZM5.00076 18.234V18.2331V18.234ZM45.713 21.0906L45.9437 21.1122C46.0595 19.9745 45.9962 18.4286 45.7583 16.9368C45.5466 15.6072 45.1956 14.3163 44.7089 13.3884C44.6492 13.2749 44.5587 13.1596 44.4475 13.0497C44.2059 12.8128 43.8477 12.5876 43.4777 12.4615C43.0851 12.3263 42.6717 12.2993 42.3433 12.4705C42.2583 12.5146 42.1796 12.5723 42.1081 12.6434C41.8955 12.8578 41.7164 13.1182 41.5373 13.3794C41.3374 13.6704 41.1366 13.9623 40.8959 14.1668L41.0452 14.3406L40.8959 14.1668C40.6182 14.4037 40.27 14.5478 39.9416 14.6793C39.7968 14.3316 39.6304 14.0154 39.4422 13.7163C39.2179 13.3596 38.9619 13.0254 38.6805 12.6903C38.4508 12.4182 38.2264 12.2128 37.984 12.0291C37.7406 11.8444 37.4919 11.6895 37.2033 11.5093C36.4262 11.0246 35.7659 10.4472 35.0919 9.85805C34.7853 9.5914 34.4759 9.32115 34.1728 9.07252L34.1737 9.07162C32.568 7.75369 31.07 7.115 29.4679 7.01411C27.8776 6.91411 26.1977 7.35012 24.2148 8.18159C23.2577 8.58247 22.5467 9.05631 21.9279 9.62654C21.3363 10.1706 20.8343 10.7976 20.2834 11.53C19.9613 11.5525 19.6773 11.6012 19.386 11.7174C19.0657 11.8444 18.7437 12.0516 18.3583 12.3903C18.0833 12.6308 17.821 12.8741 17.5677 13.1182C17.3307 13.3461 17.1 13.5776 16.8729 13.8127C15.0673 14.1019 13.5973 14.4208 12.2802 14.9289C10.9332 15.4487 9.74548 16.1639 8.52515 17.2404L8.67712 17.4125L8.52515 17.2404C8.0267 17.6809 7.59611 18.1458 7.21798 18.6385C6.84708 19.1223 6.52866 19.6312 6.25004 20.1681C6.0067 20.4366 5.76245 20.7077 5.4983 20.9447C5.24049 21.1762 4.96548 21.3708 4.65701 21.4897C4.47699 21.5581 4.40281 21.5987 4.39557 21.596C4.38653 21.5906 4.382 21.5653 4.36934 21.514C4.8117 21.0933 4.88135 20.4762 4.92206 19.8628C4.97543 19.9258 5.02609 20.0033 5.07946 20.0844C5.13736 20.1754 5.19797 20.2681 5.26943 20.3582L5.56977 20.7357L5.67561 20.2645L5.45036 20.215L5.67561 20.2645C5.76426 19.87 5.8303 19.3448 5.72717 18.889L5.49921 18.9394L5.72717 18.889C5.66023 18.5935 5.52273 18.3295 5.283 18.1431C5.30562 18.0836 5.32733 18.0287 5.34814 17.9737C5.42412 17.7818 5.50192 17.5854 5.56705 17.399L5.69732 17.0296L5.31014 17.0972C4.79451 17.1864 3.68635 17.7926 2.90658 18.5989C2.6171 18.898 2.36742 19.2286 2.20369 19.5763C2.03362 19.9375 1.95763 20.3159 2.02367 20.6942C2.08066 21.0248 2.24711 21.35 2.54925 21.6563C2.60443 21.877 2.65509 22.0689 2.70937 22.2419C2.77179 22.4383 2.83873 22.6148 2.92286 22.7878C3.14992 23.258 3.51176 23.5454 3.9306 23.6787C4.26712 23.7868 4.63982 23.7922 5.00438 23.7129C4.93292 24.1237 4.88859 24.5534 4.8705 25.0228C4.84788 25.6371 4.8705 26.3146 4.93834 27.101C4.95282 27.2731 4.97543 27.464 5.00438 27.6703C5.02971 27.8469 5.05866 28.0208 5.09122 28.1928C5.02247 28.3775 4.95463 28.5631 4.88588 28.7477C4.78004 29.036 4.67329 29.3243 4.56655 29.6125C4.33316 29.8431 4.09976 30.0738 3.86547 30.3044C3.64746 30.5188 3.42944 30.735 3.21053 30.9503C3.19243 30.9674 3.11916 31.0386 3.05312 31.1016C2.61077 31.5259 2.52302 31.6097 2.64876 32.3556C2.72565 32.8123 2.87582 33.2753 3.11192 33.7222C3.32903 34.1338 3.62032 34.5347 3.99392 34.9086C4.46071 35.3743 5.22511 35.9526 6.02569 36.2553C6.48252 36.4283 6.95473 36.513 7.39709 36.4427C7.37448 36.5102 7.35277 36.5778 7.32744 36.6454C7.25778 36.8373 7.17998 37.0291 7.09405 37.2174C6.55128 38.402 7.10852 39.0209 7.97605 39.4146C8.40936 39.6118 8.92408 39.7452 9.40353 39.8695C9.50123 39.8947 9.59893 39.9208 9.72196 39.9533C10.2892 40.1064 11.2689 40.3866 12.1635 40.4433C13.1405 40.5046 14.0207 40.3037 14.2568 39.4308C14.35 39.0848 14.4043 38.8191 14.4269 38.5597C14.4468 38.3182 14.4395 38.0759 14.4115 37.7732C14.6892 37.1607 14.8077 36.9877 15.0103 36.6913L14.8195 36.5607L15.0103 36.6913C15.0511 36.6328 15.099 36.5625 15.1135 36.5409C15.3315 36.2184 15.4337 35.9896 15.4717 35.7319C15.507 35.4833 15.4771 35.2356 15.4319 34.8572C15.4274 34.8221 15.421 34.7698 15.412 34.7014C15.9837 34.7743 16.5464 34.8122 17.1072 34.8158C17.3913 34.8167 17.6762 34.8086 17.9603 34.7942C17.8888 34.8311 17.8156 34.868 17.7387 34.9077C17.7034 34.9257 17.6681 34.9437 17.6319 34.9617C16.8784 35.3482 16.8467 36.0797 17.0828 36.8319C17.2963 37.5111 17.7341 38.2038 18.0082 38.6254C18.5863 39.5118 19.1372 40.2622 19.8057 40.6703C20.5068 41.0982 21.3065 41.1478 22.3395 40.591C22.866 40.3082 23.0316 40.019 23.255 39.6299C23.322 39.5109 23.397 39.383 23.4803 39.256C23.6974 39.1119 24.2411 38.6651 24.7703 38.2299C24.9503 38.0813 25.1294 37.9336 25.3338 37.7687C25.474 37.8714 25.645 37.9417 25.8495 37.9903C26.1154 38.0534 26.432 38.0822 26.8111 38.1092C27.0951 38.13 28.0214 38.13 28.6194 38.1291C28.8039 38.1291 28.9577 38.1291 29.0491 38.13L29.0509 37.8984L29.05 38.13C29.6678 38.1336 30.1654 38.1011 30.5426 37.8885C30.9443 37.6624 31.1822 37.2606 31.2337 36.5409C31.2564 36.2211 31.2609 36.0238 31.2165 35.822C31.1749 35.6328 31.0944 35.4635 30.9533 35.2121C30.9452 34.9014 30.937 34.5906 30.9289 34.2798C30.9198 33.9492 30.9108 33.6186 30.9017 33.2889C30.8918 32.8997 30.8484 32.5835 30.7697 32.2727C30.691 31.9637 30.5779 31.6664 30.4277 31.3106C30.3264 31.0692 30.2441 30.8476 30.1627 30.6305V30.6296C30.0333 30.2819 29.9076 29.944 29.7285 29.5828C29.7402 29.5134 29.7511 29.4387 29.7628 29.3585C29.8777 29.4693 29.9917 29.5792 30.1066 29.6891L30.6141 30.1765C31.0022 30.5476 31.3559 30.8854 31.772 31.1295C32.2017 31.3818 32.6856 31.5286 33.3107 31.4989C33.9666 31.4683 34.6677 31.1935 35.2457 30.7692C35.8039 30.3584 36.2525 29.8053 36.4398 29.1918C36.4932 29.0153 36.5484 28.8378 36.6017 28.6603C36.6442 28.5189 36.6877 28.3775 36.7311 28.2361C37.6502 28.391 38.6371 28.4414 39.5897 28.3414C40.5097 28.246 41.398 28.0126 42.1642 27.6055C43.2905 27.0073 44.1345 26.1254 44.7415 25.0786C45.4199 23.9093 45.7999 22.531 45.9437 21.1122L45.713 21.0906Z" fill="#0078D4"/>
    <path fill-rule="evenodd" clip-rule="evenodd" d="M29.0894 18.2958C29.1581 18.2733 29.226 18.2382 29.3119 18.185C29.5778 17.9094 29.8438 17.6346 30.1098 17.359C30.5802 17.0049 31.0497 16.65 31.5201 16.296C31.8276 16.196 32.1352 16.096 32.4437 15.996C32.5567 15.9501 32.7458 15.8393 32.8643 15.7888C32.8761 15.7789 32.8887 15.769 32.8996 15.7582C32.2157 16.0735 31.4187 15.9969 30.8316 16.3915C30.3187 16.7365 29.614 17.8211 29.0894 18.2958Z" fill="#0078D4"/>
    <path fill-rule="evenodd" clip-rule="evenodd" d="M30.6389 19.307C30.5702 19.4349 30.5087 19.5673 30.458 19.707C30.4752 19.6863 30.4942 19.6673 30.5114 19.6466C30.553 19.5322 30.6018 19.4223 30.6579 19.3178C30.6516 19.3142 30.6453 19.3106 30.6389 19.307Z" fill="#0078D4"/>
    <path fill-rule="evenodd" clip-rule="evenodd" d="M33.2476 17.5054C33.5768 17.4018 33.9134 17.3189 34.2426 17.254L34.2055 17.2738C34.2282 17.2666 34.2517 17.2594 34.2752 17.2522C34.0165 17.2486 33.7243 17.2811 33.4203 17.3486C33.4267 17.3693 33.433 17.3901 33.4384 17.4108C33.3751 17.4423 33.3109 17.4738 33.2476 17.5054Z" fill="#0078D4"/>
    <path fill-rule="evenodd" clip-rule="evenodd" d="M31.5204 16.2959C31.05 16.6508 30.5805 17.0048 30.1101 17.3598C29.8441 17.6345 29.5782 17.9102 29.3122 18.1849C29.2263 18.2381 29.1584 18.2732 29.0897 18.2957C29.0851 18.3002 29.0797 18.3056 29.0752 18.3092C29.4551 18.1624 29.8224 17.9084 30.1598 17.6399C30.1616 17.839 30.2051 18.0408 30.2964 18.2327H30.2973C30.3878 18.4218 30.5162 18.5804 30.6682 18.7065C30.6293 18.6633 30.5959 18.6155 30.5696 18.5615C30.4285 18.2696 30.5542 17.9174 30.8482 17.7777C31.1431 17.6381 31.4969 17.7633 31.6371 18.0552C31.6506 18.0831 31.6615 18.112 31.6696 18.1399C31.3892 18.3471 31.1323 18.5912 30.917 18.8732C30.8139 19.0092 30.7216 19.1542 30.6393 19.3074C30.6456 19.311 30.6519 19.3146 30.6583 19.3173C31.1441 18.4074 32.1617 17.8453 33.2482 17.5057C33.3115 17.4742 33.3748 17.4426 33.4391 17.4111C33.4327 17.3895 33.4273 17.3697 33.421 17.3489C33.2771 17.3814 33.1306 17.421 32.9822 17.4688C32.965 17.3165 32.9234 17.1643 32.8538 17.0183C32.6882 16.6724 32.3979 16.4247 32.0622 16.3022C32.3517 16.1481 32.6367 15.986 32.8646 15.7887C32.7461 15.8391 32.5571 15.9499 32.444 15.9959C32.1355 16.0959 31.8279 16.1959 31.5204 16.2959Z" fill="#0078D4"/>
    <path fill-rule="evenodd" clip-rule="evenodd" d="M33.2473 17.5054L31.9555 18.1441C31.5376 18.5431 31.1187 18.9422 30.7008 19.3422C30.6854 19.3332 30.6727 19.326 30.6583 19.3178C30.6022 19.4223 30.5524 19.5322 30.5117 19.6467C31.4932 18.5161 32.8845 17.6585 34.2053 17.2738L34.2424 17.254C33.9131 17.3189 33.5766 17.4018 33.2473 17.5054Z" fill="#0078D4"/>
    <path fill-rule="evenodd" clip-rule="evenodd" d="M31.9554 18.1441L33.2472 17.5054C32.1617 17.845 31.144 18.4071 30.6582 19.3179C30.6727 19.326 30.6862 19.3332 30.7007 19.3422C31.1196 18.9422 31.5375 18.5431 31.9554 18.1441Z" fill="#0078D4"/>
    <path fill-rule="evenodd" clip-rule="evenodd" d="M18.941 16.8694C19.1265 16.4037 19.311 15.937 19.4965 15.4713C19.833 14.9839 20.1704 14.4957 20.5078 14.0083C21.1944 13.8561 21.8801 13.7047 22.5649 13.5525C22.9467 13.5084 23.3275 13.4624 23.7084 13.4174C23.7943 13.3849 23.8812 13.3516 23.9698 13.3174C23.1204 13.4138 22.2718 13.5012 21.4224 13.5813C20.7087 13.648 20.5938 13.6372 20.0872 14.1353C19.3454 14.865 18.6244 17.3054 18.3594 18.4125C18.5557 17.9162 18.7447 17.4054 18.941 16.8694Z" fill="#0078D4"/>
    <path fill-rule="evenodd" clip-rule="evenodd" d="M20.371 14.6362C20.5709 14.4668 20.7102 14.3623 20.8595 14.2867C20.3429 15.1497 20.3809 15.3641 20.5618 16.5207C20.7165 15.3452 21.1245 14.8911 21.7948 14.0137C22.4434 13.8516 23.055 13.6606 23.7072 13.4174C23.3273 13.4624 22.9464 13.5083 22.5647 13.5525C21.879 13.7047 21.1942 13.8561 20.5076 14.0083C20.1701 14.4957 19.8327 14.9839 19.4962 15.4713C19.3108 15.937 19.1262 16.4036 18.9408 16.8694C18.7445 17.4054 18.5554 17.9161 18.3591 18.4125C18.3491 18.4539 18.3401 18.4936 18.3311 18.5314C18.7074 17.6675 19.6491 15.2515 20.371 14.6362Z" fill="#0078D4"/>
    <path fill-rule="evenodd" clip-rule="evenodd" d="M43.4595 13.416C43.4489 13.4367 43.4383 13.4584 43.4268 13.4791C43.4329 13.4764 43.4391 13.4746 43.4444 13.4719C43.4489 13.453 43.455 13.4349 43.4595 13.416Z" fill="#1E1E1E"/>
    <path fill-rule="evenodd" clip-rule="evenodd" d="M41.3209 16.0235C42.5412 15.5902 43.1401 14.6227 43.4431 13.4795C43.2649 13.8407 43.0858 14.2011 42.9076 14.5623C42.6896 14.7893 42.4725 15.0172 42.2545 15.2451C41.8845 15.473 41.5145 15.7001 41.1445 15.928H40.2435C40.1078 15.9036 39.9712 15.8802 39.8346 15.8568C39.8364 15.855 39.8382 15.855 39.8401 15.8532C39.7939 15.8487 39.746 15.8433 39.6953 15.8388C40.3177 16.0163 40.7112 16.2397 41.3209 16.0235Z" fill="#0078D4"/>
    <path fill-rule="evenodd" clip-rule="evenodd" d="M40.2434 15.928H41.1444C41.5143 15.7001 41.8843 15.4731 42.2543 15.2452C42.4723 15.0173 42.6894 14.7894 42.9075 14.5624C43.0857 14.2011 43.2648 13.8408 43.443 13.4795C43.4439 13.4768 43.4448 13.4741 43.4457 13.4714C43.4394 13.4741 43.433 13.4768 43.4276 13.4795C42.94 14.4326 42.2009 15.229 41.2032 15.7208C40.7002 15.9677 40.3646 15.9091 39.8399 15.8533C39.8381 15.8542 39.8363 15.8551 39.8345 15.8569C39.9711 15.8803 40.1077 15.9037 40.2434 15.928Z" fill="#0078D4"/>
    <path fill-rule="evenodd" clip-rule="evenodd" d="M27.9666 15.9483C27.9666 15.079 28.2832 14.2844 29.0784 13.6493L29.6691 13.3629C29.7948 13.3268 29.9205 13.2917 30.0454 13.2557C30.0137 13.2773 29.9821 13.2998 29.9495 13.3232C30.0264 13.2827 30.106 13.2422 30.1883 13.2025C28.0896 13.7259 27.6961 14.6033 27.9657 15.9528C27.9657 15.951 27.9666 15.9501 27.9666 15.9483Z" fill="#0078D4"/>
    <path fill-rule="evenodd" clip-rule="evenodd" d="M29.6693 13.3628L29.0786 13.6493C28.2825 14.2844 27.9668 15.0789 27.9668 15.9482C28.1848 14.9879 28.5657 14.0601 29.9497 13.3232C29.9814 13.2998 30.013 13.2772 30.0456 13.2556C29.9199 13.2916 29.795 13.3268 29.6693 13.3628Z" fill="#0078D4"/>
    <path fill-rule="evenodd" clip-rule="evenodd" d="M30.9153 18.8755C30.9153 18.8746 30.9162 18.8737 30.9172 18.8737V18.8728C30.8285 18.8269 30.7453 18.7701 30.6675 18.7062C30.7362 18.7818 30.8222 18.8377 30.9153 18.8755Z" fill="#FFFBC9"/>
    <path fill-rule="evenodd" clip-rule="evenodd" d="M30.9169 18.8734C31.1322 18.5914 31.3891 18.3473 31.6695 18.1401C31.6605 18.1113 31.6505 18.0834 31.6361 18.0554C31.4967 17.7636 31.1421 17.6384 30.8481 17.778C30.5541 17.9167 30.4284 18.2698 30.5686 18.5617C30.5948 18.6158 30.6283 18.6635 30.6672 18.7058C30.745 18.7707 30.8282 18.8266 30.9169 18.8734Z" fill="white"/>
    <path fill-rule="evenodd" clip-rule="evenodd" d="M37.1856 16.2667C37.2146 16.3352 37.2553 16.3982 37.2996 16.4433C37.2996 16.4433 37.2987 16.4433 37.2987 16.4442L37.2996 16.446C37.5294 16.3613 37.751 16.2965 37.9744 16.2595C37.9952 16.2145 38.0088 16.1667 38.0142 16.1154C38.0369 15.8731 37.8577 15.6569 37.6153 15.6325C37.372 15.61 37.1648 15.7884 37.1413 16.0298C37.1341 16.101 37.1512 16.1829 37.182 16.2586C37.1829 16.2604 37.1838 16.2631 37.1847 16.2649L37.1856 16.2667Z" fill="white"/>
    <path fill-rule="evenodd" clip-rule="evenodd" d="M37.3001 16.4431C37.2558 16.3981 37.2151 16.335 37.1862 16.2665L37.1853 16.2647C37.1844 16.2629 37.1834 16.2602 37.1816 16.2584C37.2106 16.3296 37.2522 16.3963 37.2983 16.444C37.2992 16.4431 37.3001 16.4431 37.3001 16.4431Z" fill="#FFFBC9"/>
</svg>
