<svg data-slug-id="hands-blue" xmlns="http://www.w3.org/2000/svg" viewBox="0 0 108 97">
    <rect x="107.764" y="38.8473" width="76.2449" height="54.3528" rx="14.751" transform="rotate(135 107.764 38.8473)" fill="#50E6FF"/>
    <rect x="38.4354" y="0.481567" width="76.2449" height="54.3528" rx="14.751" transform="rotate(45 38.4354 0.481567)" fill="#0078D4"/>
    <rect x="65.3965" y="27.4365" width="43.7842" height="12.4559" rx="6.22793" transform="rotate(45 65.3965 27.4365)" fill="#0078D4"/>
    <rect x="56.5889" y="36.244" width="43.7842" height="12.4559" rx="6.22793" transform="rotate(45 56.5889 36.244)" fill="#0078D4"/>
    <rect x="47.7802" y="45.0511" width="43.7842" height="12.4559" rx="6.22793" transform="rotate(45 47.7802 45.0511)" fill="#0078D4"/>
    <rect x="39.1462" y="54.2747" width="43.7842" height="12.4559" rx="6.22793" transform="rotate(45 39.1462 54.2747)" fill="#0078D4"/>
    <path d="M37.1029 39.3157C41.5987 43.8115 48.8878 43.8115 53.3836 39.3157L65.394 27.3053L53.9174 15.8287L34.4795 35.2666C35.0396 36.7428 35.9141 38.1269 37.1029 39.3157Z" fill="#50E6FF"/>
    <rect x="68.2634" y="78.3477" width="26.044" height="12.4558" rx="6.22792" transform="rotate(135 68.2634 78.3477)" fill="#50E6FF"/>
    <rect x="59.4561" y="69.5404" width="26.044" height="12.4558" rx="6.22792" transform="rotate(135 59.4561 69.5404)" fill="#50E6FF"/>
    <rect x="50.6484" y="60.7333" width="26.044" height="12.4558" rx="6.22792" transform="rotate(135 50.6484 60.7333)" fill="#50E6FF"/>
    <rect x="41.8396" y="51.9248" width="26.044" height="12.4558" rx="6.22792" transform="rotate(135 41.8396 51.9248)" fill="#50E6FF"/>
</svg>
