<svg data-slug-id="hand-checkmark" xmlns="http://www.w3.org/2000/svg" viewBox="0 0 48 48">
    <path d="M23.4198 33.7539C23.0414 32.1225 23.8907 30.5079 25.438 29.9193C25.9762 29.7175 26.506 29.6082 27.0189 29.6082C27.5151 29.6082 27.9692 29.7007 28.3897 29.8857C28.3728 26.8667 28.3476 23.5871 28.3476 23.1919C28.3476 21.2998 29.9958 20.173 31.5852 20.173C31.6693 20.173 31.7618 20.173 31.8459 20.1814C32.8466 20.2487 34.5705 20.728 34.8984 23.2171C34.9657 23.7469 34.9825 25.3278 34.9741 27.0181C35.1423 27.0181 35.3105 27.0349 35.4871 27.0602C36.7905 27.2452 37.7071 28.0104 38.0603 29.1541C38.0939 29.1541 38.136 29.1541 38.1696 29.1541C38.5396 29.1541 38.9096 29.2213 39.2712 29.3475C39.6076 29.4652 40.0365 29.667 40.4317 29.995V0.175781H5.14648V42.9789H26.733C26.5144 42.693 26.0267 42.0202 25.9089 41.8436C25.1437 40.6327 23.4366 33.8212 23.4198 33.7539Z" fill="#50E6FF"/>
    <path d="M31.7029 47.9902H40.9279C40.9867 47.9902 42.6518 40.1443 42.8368 39.4296C43.0218 38.7148 42.8199 35.6033 42.8199 34.5438C42.8199 33.4842 42.5172 32.5424 41.424 32.4667C41.3651 32.4583 41.3063 32.4583 41.2558 32.4583C40.4906 32.4583 40.1458 32.8451 40.0449 32.9965C40.0281 33.0133 40.0197 33.0217 40.0197 33.0217C40.0112 33.0217 40.0028 33.0049 40.0028 32.9797C40.0028 32.8787 40.0028 32.6937 39.986 32.5592C39.9692 32.349 40.1206 31.3314 38.7415 30.8437C38.5312 30.768 38.3462 30.7428 38.1696 30.7428C37.4801 30.7428 37.0176 31.2305 36.8073 31.5249C36.7905 31.5501 36.7653 31.5585 36.7401 31.5585C36.698 31.5585 36.656 31.5249 36.656 31.4744C36.6475 31.1128 36.6391 30.4989 36.6391 30.3307C36.6391 30.0869 36.7148 28.8339 35.26 28.6321C35.1255 28.6153 35.0077 28.6069 34.89 28.6069C34.1332 28.6069 33.7211 28.9684 33.5193 29.2291C33.5025 29.2544 33.4773 29.2628 33.4604 29.2628C33.4184 29.2628 33.3764 29.2291 33.3764 29.1787C33.3932 28.0771 33.4352 24.1752 33.3343 23.4352C33.2166 22.569 32.9223 21.8458 31.745 21.7701C31.6861 21.7701 31.6356 21.7617 31.5852 21.7617C30.5172 21.7617 29.9286 22.4849 29.9286 23.1997C29.9286 23.822 29.979 31.8949 29.9958 34.7792C29.9958 34.8886 29.9117 34.9474 29.8276 34.9474C29.7604 34.9474 29.7015 34.9138 29.6679 34.8381C29.4072 34.1149 29.0372 33.1142 28.7176 32.391C28.3392 31.5249 27.7001 31.2053 27.019 31.2053C26.6826 31.2053 26.3378 31.281 26.0014 31.4071C25.0764 31.7603 24.7905 32.6769 24.9587 33.4085C25.1101 34.0476 26.7162 40.1696 27.246 41.0021C27.7758 41.8346 30.2313 44.7442 30.7611 45.4254C31.2909 46.0981 31.7029 47.9902 31.7029 47.9902Z" fill="#0078D4"/>
    <path d="M28.0699 5.12891L17.6845 15.5143L14.5731 12.4029L12.5044 14.48L17.6845 19.6601L30.147 7.20599L28.0699 5.12891Z" fill="#0078D4"/>
</svg>
