<svg data-slug-id="healthcare" xmlns="http://www.w3.org/2000/svg" viewBox="0 0 97 97">
    <path fill-rule="evenodd" clip-rule="evenodd" d="M48.8937 0.10083C22.3834 0.10083 0.893677 21.5906 0.893677 48.1008C0.893677 74.6103 22.3834 96.1008 48.8937 96.1008C75.4032 96.1008 96.8937 74.6103 96.8937 48.1008C96.8937 21.5906 75.4032 0.10083 48.8937 0.10083ZM48.8937 0.85083C74.9472 0.85083 96.1437 22.0473 96.1437 48.1008C96.1437 74.1543 74.9472 95.3508 48.8937 95.3508C22.8402 95.3508 1.64368 74.1543 1.64368 48.1008C1.64368 22.0473 22.8402 0.85083 48.8937 0.85083Z" fill="#0078D4"/>
    <path fill-rule="evenodd" clip-rule="evenodd" d="M48.8937 11.3508C28.5972 11.3508 12.1437 27.8036 12.1437 48.1008C12.1437 68.3973 28.5972 84.8508 48.8937 84.8508C69.1902 84.8508 85.6437 68.3973 85.6437 48.1008C85.6437 27.8036 69.1902 11.3508 48.8937 11.3508ZM48.8945 12.0972C68.747 12.0972 84.8975 28.2484 84.8975 48.1009C84.8975 67.9534 68.747 84.1039 48.8945 84.1039C29.042 84.1039 12.8907 67.9534 12.8907 48.1009C12.8907 28.2484 29.042 12.0972 48.8945 12.0972Z" fill="#0078D4"/>
    <path fill-rule="evenodd" clip-rule="evenodd" d="M48.5187 22.6008C34.2282 22.6008 22.6437 34.1853 22.6437 48.4758C22.6437 62.7663 34.2282 74.3508 48.5187 74.3508C62.8092 74.3508 74.3937 62.7663 74.3937 48.4758C74.3937 34.1853 62.8092 22.6008 48.5187 22.6008ZM48.5179 23.3516C62.3712 23.3516 73.6422 34.6218 73.6422 48.4758C73.6422 62.3291 62.3712 73.6001 48.5179 73.6001C34.6639 73.6001 23.3937 62.3291 23.3937 48.4758C23.3937 34.6218 34.6639 23.3516 48.5179 23.3516Z" fill="#0078D4"/>
    <path fill-rule="evenodd" clip-rule="evenodd" d="M57.8937 48.1008C57.8937 53.0711 53.8639 57.1008 48.8937 57.1008C43.9227 57.1008 39.8937 53.0711 39.8937 48.1008C39.8937 43.1298 43.9227 39.1008 48.8937 39.1008C53.8639 39.1008 57.8937 43.1298 57.8937 48.1008" fill="#0078D4"/>
    <path fill-rule="evenodd" clip-rule="evenodd" d="M74.3937 61.6008C74.3937 64.0856 72.3784 66.1008 69.8937 66.1008C67.4082 66.1008 65.3937 64.0856 65.3937 61.6008C65.3937 59.1153 67.4082 57.1008 69.8937 57.1008C72.3784 57.1008 74.3937 59.1153 74.3937 61.6008" fill="#0078D4"/>
    <path fill-rule="evenodd" clip-rule="evenodd" d="M27.8937 49.6008C27.8937 52.0856 25.8784 54.1008 23.3937 54.1008C20.9082 54.1008 18.8937 52.0856 18.8937 49.6008C18.8937 47.1153 20.9082 45.1008 23.3937 45.1008C25.8784 45.1008 27.8937 47.1153 27.8937 49.6008Z" fill="#0078D4"/>
    <path fill-rule="evenodd" clip-rule="evenodd" d="M60.8937 13.6008C60.8937 16.0856 58.8784 18.1008 56.3937 18.1008C53.9082 18.1008 51.8937 16.0856 51.8937 13.6008C51.8937 11.1153 53.9082 9.10083 56.3937 9.10083C58.8784 9.10083 60.8937 11.1153 60.8937 13.6008" fill="#50E6FF"/>
    <path fill-rule="evenodd" clip-rule="evenodd" d="M78.8937 88.6008C78.8937 91.0856 76.8784 93.1008 74.3937 93.1008C71.9082 93.1008 69.8937 91.0856 69.8937 88.6008C69.8937 86.1153 71.9082 84.1008 74.3937 84.1008C76.8784 84.1008 78.8937 86.1153 78.8937 88.6008" fill="#0078D4"/>
    <path fill-rule="evenodd" clip-rule="evenodd" d="M15.8937 76.6008C15.8937 79.0856 13.8784 81.1008 11.3937 81.1008C8.90818 81.1008 6.89368 79.0856 6.89368 76.6008C6.89368 74.1153 8.90818 72.1008 11.3937 72.1008C13.8784 72.1008 15.8937 74.1153 15.8937 76.6008Z" fill="#50E6FF"/>
    <path fill-rule="evenodd" clip-rule="evenodd" d="M90.8937 19.6008C90.8937 22.0856 88.8784 24.1008 86.3937 24.1008C83.9082 24.1008 81.8937 22.0856 81.8937 19.6008C81.8937 17.1153 83.9082 15.1008 86.3937 15.1008C88.8784 15.1008 90.8937 17.1153 90.8937 19.6008Z" fill="#0078D4"/>
</svg>
