<svg data-slug-id="health04" viewBox="0 0 49 49" xmlns="http://www.w3.org/2000/svg">
<path d="M0.0195312 1.22656H47.0125L23.4855 24.7544L0.0195312 1.22656Z" fill="#50E6FF"/>
<path d="M23.515 35.7722C26.2469 35.7722 28.4616 33.5575 28.4616 30.8255C28.4616 28.0936 26.2469 25.8789 23.515 25.8789C20.783 25.8789 18.5684 28.0936 18.5684 30.8255C18.5684 33.5575 20.783 35.7722 23.515 35.7722Z" fill="#0078D4"/>
<path d="M30.1109 7.40941H25.9887V2.875H21.0421V7.40941H16.9199V12.356H21.0421V16.8905H25.9887V12.356H30.1109V7.40941Z" fill="#0078D4"/>
<path d="M12.4431 27.6106C11.9453 27.6101 11.4533 27.7167 11.0003 27.923L6.63985 23.5626L14.4967 15.7065L12.7473 13.957L3.14258 23.5626L9.25249 29.6717C9.01051 30.2051 8.90627 30.7908 8.94932 31.375C8.99237 31.9592 9.18134 32.5233 9.49891 33.0155C9.81648 33.5077 10.2525 33.9124 10.767 34.1924C11.2815 34.4724 11.8581 34.6189 12.4439 34.6183C13.3732 34.6183 14.2644 34.2491 14.9215 33.592C15.5786 32.9349 15.9478 32.0437 15.9478 31.1144C15.9478 30.1851 15.5786 29.2939 14.9215 28.6368C14.2644 27.9797 13.3732 27.6106 12.4439 27.6106H12.4431ZM12.4431 32.145C12.2392 32.145 12.04 32.0845 11.8705 31.9713C11.7011 31.8581 11.569 31.6971 11.491 31.5088C11.413 31.3205 11.3926 31.1133 11.4323 30.9134C11.4721 30.7135 11.5702 30.5298 11.7144 30.3857C11.8585 30.2416 12.0421 30.1434 12.242 30.1037C12.4419 30.0639 12.6491 30.0843 12.8374 30.1623C13.0258 30.2403 13.1867 30.3724 13.2999 30.5419C13.4132 30.7114 13.4736 30.9106 13.4736 31.1144C13.4732 31.3876 13.3645 31.6495 13.1713 31.8427C12.9781 32.0358 12.7163 32.1445 12.4431 32.145V32.145Z" fill="#50E6FF"/>
<path d="M44.5208 39.7865C44.0229 39.7865 43.5307 39.8931 43.0773 40.0989L35.1767 32.1975L43.8143 23.5599L40.2362 19.9818C40.4426 19.5288 40.5491 19.0368 40.5487 18.539C40.5487 17.846 40.3432 17.1686 39.9582 16.5924C39.5732 16.0162 39.0259 15.5671 38.3857 15.3019C37.7455 15.0367 37.0409 14.9673 36.3613 15.1025C35.6816 15.2377 35.0572 15.5714 34.5672 16.0614C34.0772 16.5514 33.7435 17.1758 33.6083 17.8555C33.4731 18.5351 33.5425 19.2396 33.8077 19.8799C34.0729 20.5201 34.522 21.0674 35.0982 21.4524C35.6744 21.8374 36.3518 22.0429 37.0448 22.0429C37.5426 22.0433 38.0346 21.9368 38.4876 21.7304L40.317 23.5599L31.6777 32.1975L41.3237 41.8475C41.0124 42.5368 40.9325 43.3082 41.0959 44.0466C41.2594 44.785 41.6574 45.4507 42.2305 45.9441C42.8036 46.4376 43.521 46.7323 44.2755 46.7843C45.0299 46.8362 45.781 46.6426 46.4163 46.2324C47.0516 45.8222 47.5372 45.2174 47.8003 44.5084C48.0635 43.7994 48.0901 43.0243 47.8762 42.2989C47.6624 41.5735 47.2195 40.9368 46.6138 40.4839C46.0081 40.0311 45.2722 39.7864 44.5159 39.7865H44.5208ZM37.0448 19.5696C36.841 19.5696 36.6418 19.5091 36.4723 19.3959C36.3028 19.2827 36.1707 19.1217 36.0927 18.9334C36.0147 18.7451 35.9943 18.5379 36.0341 18.338C36.0738 18.1381 36.172 17.9544 36.3161 17.8103C36.4602 17.6662 36.6439 17.568 36.8438 17.5283C37.0437 17.4885 37.2509 17.5089 37.4392 17.5869C37.6275 17.6649 37.7885 17.797 37.9017 17.9665C38.0149 18.136 38.0754 18.3352 38.0754 18.539C38.0749 18.8122 37.9662 19.0741 37.7731 19.2672C37.5799 19.4604 37.318 19.5691 37.0448 19.5696V19.5696ZM44.5208 44.3209C44.317 44.3209 44.1178 44.2604 43.9483 44.1472C43.7788 44.0339 43.6467 43.873 43.5687 43.6847C43.4907 43.4964 43.4703 43.2892 43.5101 43.0893C43.5499 42.8894 43.648 42.7057 43.7921 42.5616C43.9363 42.4175 44.1199 42.3193 44.3198 42.2796C44.5197 42.2398 44.7269 42.2602 44.9152 42.3382C45.1035 42.4162 45.2645 42.5483 45.3777 42.7178C45.4909 42.8873 45.5514 43.0865 45.5514 43.2903C45.5514 43.5636 45.4428 43.8258 45.2495 44.019C45.0563 44.2123 44.7942 44.3209 44.5208 44.3209Z" fill="#50E6FF"/>
<path d="M34.6466 48.1338C34.6466 45.182 33.4739 42.351 31.3867 40.2638C29.2994 38.1765 26.4685 37.0039 23.5166 37.0039C20.5648 37.0039 17.7339 38.1765 15.6466 40.2638C13.5593 42.351 12.3867 45.182 12.3867 48.1338H34.6466Z" fill="#0078D4"/>
</svg>
