<svg data-slug-id="health05" viewBox="0 0 49 49" xmlns="http://www.w3.org/2000/svg">
<rect x="1.98438" y="2.10547" width="44.0723" height="33.1461" fill="white"/>
<path d="M0.0195312 0.679688V38.5746H48.0178V0.679688H0.0195312ZM16.44 13.3113H12.6506V17.1008H7.5982V13.3113H3.80887V8.25866H7.5982V4.46918H12.6506V8.25866H16.44V13.3113ZM29.0711 19.6271H18.9662V13.3113C18.9662 11.9713 19.4985 10.6861 20.446 9.73855C21.3935 8.791 22.6787 8.25866 24.0186 8.25866C25.3586 8.25866 26.6438 8.791 27.5913 9.73855C28.5388 10.6861 29.0711 11.9713 29.0711 13.3113V19.6271ZM40.4391 33.5219C39.9395 33.5219 39.451 33.3738 39.0356 33.0962C38.6202 32.8186 38.2964 32.424 38.1052 31.9624C37.914 31.5008 37.8639 30.9928 37.9614 30.5027C38.0589 30.0127 38.2995 29.5625 38.6528 29.2092C39.0061 28.8559 39.4562 28.6153 39.9463 28.5178C40.4363 28.4203 40.9442 28.4704 41.4058 28.6616C41.8675 28.8528 42.262 29.1766 42.5396 29.592C42.8172 30.0075 42.9653 30.4959 42.9653 30.9956C42.9653 31.6656 42.6992 32.3082 42.2254 32.782C41.7516 33.2558 41.1091 33.5219 40.4391 33.5219Z" fill="#0078D4"/>
<path d="M29.0707 19.6289V25.9447C29.0707 27.2848 28.5384 28.5699 27.5909 29.5175C26.6434 30.465 25.3583 30.9974 24.0183 30.9974C22.6783 30.9974 21.3932 30.465 20.4456 29.5175C19.4981 28.5699 18.9658 27.2848 18.9658 25.9447V19.6289H29.0707Z" fill="#50E6FF"/>
<path d="M35.3883 43.625H12.6523V48.6777H35.3883V43.625Z" fill="#0078D4"/>
<path d="M40.4408 10.7831C41.836 10.7831 42.967 9.65205 42.967 8.25679C42.967 6.86154 41.836 5.73047 40.4408 5.73047C39.0456 5.73047 37.9146 6.86154 37.9146 8.25679C37.9146 9.65205 39.0456 10.7831 40.4408 10.7831Z" fill="#50E6FF"/>
<path d="M40.4408 18.3612C41.836 18.3612 42.967 17.2302 42.967 15.8349C42.967 14.4397 41.836 13.3086 40.4408 13.3086C39.0456 13.3086 37.9146 14.4397 37.9146 15.8349C37.9146 17.2302 39.0456 18.3612 40.4408 18.3612Z" fill="#50E6FF"/>
<path d="M40.4408 25.9433C41.836 25.9433 42.967 24.8122 42.967 23.417C42.967 22.0217 41.836 20.8906 40.4408 20.8906C39.0456 20.8906 37.9146 22.0217 37.9146 23.417C37.9146 24.8122 39.0456 25.9433 40.4408 25.9433Z" fill="#50E6FF"/>
</svg>
