<svg data-slug-id="health07" viewBox="0 0 49 49" xmlns="http://www.w3.org/2000/svg">
<path d="M42.7755 21.96C41.6534 13.529 34.9691 6.85447 26.5381 5.73229V0.511719H21.4932V5.72253C13.0622 6.85447 6.38766 13.529 5.26548 21.96H0.0253906V27.0049H5.26548C6.38766 35.4359 13.0622 42.1202 21.4932 43.2424V48.5117H26.5381V43.2424C34.9691 42.1202 41.6534 35.4456 42.7755 27.0049H48.0156V21.96H42.7755ZM33.8371 34.2942C31.2317 36.8996 27.7091 38.3633 24.0205 38.3633C21.2785 38.3633 18.595 37.5534 16.3116 36.0214C14.0282 34.4991 12.2523 32.3328 11.1984 29.7957C10.1445 27.2586 9.87129 24.4678 10.408 21.7746C10.9447 19.0813 12.262 16.6126 14.2039 14.6707C16.1457 12.7288 18.6145 11.4115 21.3078 10.8748C24.001 10.3381 26.7918 10.6113 29.3289 11.6652C31.866 12.7191 34.0323 14.495 35.5546 16.7784C37.0768 19.0618 37.8965 21.7453 37.8965 24.4873C37.9063 28.1661 36.4426 31.6888 33.8371 34.2942Z" fill="#0078D4"/>
<path d="M32.9004 25.7422H15.1504C13.7843 25.7422 12.6719 26.8546 12.6719 28.2207C12.6719 29.5869 13.7843 30.6993 15.1504 30.6993H32.9004C34.2665 30.6993 35.3789 29.5869 35.3789 28.2207C35.3789 26.8546 34.2665 25.7422 32.9004 25.7422Z" fill="#0078D4"/>
<path d="M15.1904 29.4824C15.8833 29.4824 16.4492 28.9165 16.4492 28.2236C16.4492 27.5308 15.8833 26.9648 15.1904 26.9648C14.4976 26.9648 13.9316 27.5308 13.9316 28.2236C13.9316 28.9165 14.4976 29.4824 15.1904 29.4824Z" fill="#50E6FF"/>
<path d="M32.8506 29.4824C33.5434 29.4824 34.1094 28.9165 34.1094 28.2236C34.1094 27.5308 33.5434 26.9648 32.8506 26.9648C32.1578 26.9648 31.5918 27.5308 31.5918 28.2236C31.5918 28.9165 32.1578 29.4824 32.8506 29.4824Z" fill="#50E6FF"/>
<path d="M20.8672 28.2236C20.8672 27.5308 20.3012 26.9648 19.6084 26.9648C18.9156 26.9648 18.3496 27.5308 18.3496 28.2236C18.3496 28.9165 18.9156 29.4824 19.6084 29.4824C20.3012 29.4824 20.8672 28.9165 20.8672 28.2236Z" fill="#50E6FF"/>
<path d="M25.2891 28.2236C25.2891 27.5308 24.7231 26.9648 24.0303 26.9648C23.3375 26.9648 22.7715 27.5308 22.7715 28.2236C22.7715 28.9165 23.3375 29.4824 24.0303 29.4824C24.7231 29.4824 25.2891 28.9165 25.2891 28.2236Z" fill="#50E6FF"/>
<path d="M29.6992 28.2236C29.6992 27.5308 29.1333 26.9648 28.4404 26.9648C27.7476 26.9648 27.1816 27.5308 27.1816 28.2236C27.1816 28.9165 27.7476 29.4824 28.4404 29.4824C29.1333 29.4824 29.6992 28.9165 29.6992 28.2236Z" fill="#50E6FF"/>
<path d="M22.7227 19.4336H17.6777V24.4785H22.7227V19.4336V19.4336Z" fill="#50E6FF"/>
</svg>
