<svg data-slug-id="hexagons" xmlns="http://www.w3.org/2000/svg" viewBox="0 0 49 49">
    <path d="M21.5862 33.4207H11.2586L6.19214 24.5545L11.2586 15.6882H21.4888L26.5552 24.5545L21.5862 33.4207ZM12.4277 31.4721H20.4171L24.4117 24.5545L20.4171 17.6369H12.4277L8.43305 24.5545L12.4277 31.4721Z" fill="#0078D4"/>
    <path d="M40.5853 46.4765H25.6783L20.0273 37.1232H8.82275L1.32056 24.5545L8.82275 11.9859H20.0273L25.6783 2.63257H40.6827L48.0874 15.2012L42.4364 24.5545L48.0874 33.9079L40.5853 46.4765ZM26.7501 44.5279H39.5135L45.8465 33.9079L40.1955 24.5545L45.8465 15.2012L39.5135 4.58119H26.7501L21.0991 13.9346H9.89449L3.56147 24.5545L9.89449 35.1745H21.0991L26.7501 44.5279Z" fill="#0078D4"/>
    <path d="M38.1495 23.775H27.8218L22.7554 15.2985L27.9192 6.82202H38.1495L43.2159 15.2985L38.1495 23.775ZM28.991 21.8264H36.9803L40.8775 15.2985L36.9803 8.77064H28.991L25.0937 15.2985L28.991 21.8264Z" fill="#0078D4"/>
    <path d="M38.1495 42.287H27.8218L22.7554 33.8105L27.9192 25.334H38.1495L43.2159 33.8105L38.1495 42.287ZM28.991 40.3384H36.9803L40.8775 33.8105L36.9803 27.2826H28.991L25.0937 33.8105L28.991 40.3384Z" fill="#0078D4"/>
</svg>
