<svg data-slug-id="hexagon-cube" xmlns="http://www.w3.org/2000/svg" viewBox="0 0 48 48">
  <path fill-rule="evenodd" clip-rule="evenodd" d="M23.9537 1.55688L43.2706 12.7389V35.1114L23.9537 46.2935L4.63684 35.1114V12.7389L23.9537 1.55688ZM5.88202 13.4599V34.3905L23.9537 44.8517L42.0254 34.3905V13.4599L23.9537 2.99865L5.88202 13.4599Z" fill="#50E6FF"/>
  <path d="M33.6411 29.5315V18.3186L23.9536 12.708L14.2661 18.3186V29.5315L23.9536 35.1421L33.6411 29.5315Z" fill="#50E6FF"/>
  <path d="M33.6411 18.3187L23.9536 12.708L14.2661 18.3187L23.9536 24.4871L33.6411 18.3187Z" fill="#32B0E7"/>
  <path d="M33.6414 29.5315V18.3186L23.9537 24.1873V35.1421L33.6414 29.5315Z" fill="#0078D4"/>
  <path d="M23.8292 5.44092C25.2504 5.44092 26.4026 4.28556 26.4026 2.86035C26.4026 1.43514 25.2504 0.279785 23.8292 0.279785C22.4079 0.279785 21.2557 1.43514 21.2557 2.86035C21.2557 4.28556 22.4079 5.44092 23.8292 5.44092Z" fill="#0078D7"/>
  <path d="M23.8292 47.7202C25.2504 47.7202 26.4026 46.5649 26.4026 45.1396C26.4026 43.7144 25.2504 42.5591 23.8292 42.5591C22.4079 42.5591 21.2557 43.7144 21.2557 45.1396C21.2557 46.5649 22.4079 47.7202 23.8292 47.7202Z" fill="#0078D7"/>
  <path d="M42.59 37.8726C44.0112 37.8726 45.1633 36.7172 45.1633 35.292C45.1633 33.8668 44.0112 32.7114 42.59 32.7114C41.1687 32.7114 40.0166 33.8668 40.0166 35.292C40.0166 36.7172 41.1687 37.8726 42.59 37.8726Z" fill="#0078D7"/>
  <path d="M42.59 15.3303C44.0112 15.3303 45.1633 14.175 45.1633 12.7498C45.1633 11.3245 44.0112 10.1692 42.59 10.1692C41.1687 10.1692 40.0166 11.3245 40.0166 12.7498C40.0166 14.175 41.1687 15.3303 42.59 15.3303Z" fill="#0078D7"/>
  <path d="M5.2262 37.8059C6.59706 37.8059 7.70837 36.6915 7.70837 35.3169C7.70837 33.9423 6.59706 32.8279 5.2262 32.8279C3.85533 32.8279 2.74402 33.9423 2.74402 35.3169C2.74402 36.6915 3.85533 37.8059 5.2262 37.8059Z" fill="#0078D7"/>
  <path d="M5.2262 15.4136C6.59706 15.4136 7.70837 14.2992 7.70837 12.9246C7.70837 11.5499 6.59706 10.4355 5.2262 10.4355C3.85533 10.4355 2.74402 11.5499 2.74402 12.9246C2.74402 14.2992 3.85533 15.4136 5.2262 15.4136Z" fill="#0078D7"/>
</svg>
