<svg data-slug-id="hololens" xmlns="http://www.w3.org/2000/svg" viewBox="0 0 128 129">
  <path d="M52.4846 7.65087C36.4844 8.47291 22.7145 11.1802 14.3756 15.1439C11.4664 16.5216 11.5639 16.1592 11.9515 23.9174C12.1212 27.4455 12.3631 30.4432 12.4847 30.5632C12.6303 30.7084 13.6246 30.5392 15.1507 30.0796C26.3761 26.7447 39.1998 24.6422 53.4548 23.7962C59.5886 23.4338 74.9087 23.651 80.7272 24.1586C92.4364 25.2218 102.958 27.0111 112.121 29.5C114.643 30.2008 115.296 30.298 115.539 30.0556C115.709 29.8384 115.903 27.6387 116.073 23.627C116.315 18.3096 116.315 17.3916 116 16.8108C115.128 15.1187 106.28 11.977 97.4544 10.213C85.8669 7.86806 68.0973 6.85282 52.4846 7.65087Z" fill="#0078D4"/>
  <path d="M4.24292 20.7273C1.94034 22.3461 0.848583 23.2894 0.436957 23.9422C0.0481286 24.5938 0 25.2466 0 29.9352C0 34.1413 0.0721929 35.2285 0.339433 35.3245C0.751059 35.4937 5.55125 33.5845 6.13386 33.0289C6.54549 32.6185 6.54549 32.352 6.18199 26.7442C5.98821 23.5293 5.81849 20.726 5.81849 20.5328C5.81849 20.0505 5.0915 20.1224 4.24292 20.7273Z" fill="#0078D4"/>
  <path d="M122.182 20.4608C122.182 20.6061 122.012 23.3853 121.794 26.6483C121.43 32.352 121.431 32.6185 121.866 33.0289C122.423 33.5845 127.248 35.4937 127.661 35.3245C127.928 35.2285 128 34.1401 128 29.9831C128 24.1102 127.976 23.9649 126.255 22.5873C123.781 20.5821 122.182 19.736 122.182 20.4608Z" fill="#0078D4"/>
  <path d="M53.237 30.6123C42.061 31.2411 28.7269 33.3436 19.2734 35.9297C13.4549 37.5005 13.2371 37.5965 13.1395 38.3945C13.042 39.2886 14.1578 44.6552 14.9583 47.144C17.7941 56.0147 26.0127 61.6705 38.7883 63.5545C44.8246 64.4486 52.7038 64.691 54.2553 64.0622C55.3217 63.6025 56.6313 62.3941 59.0795 59.5428C61.0667 57.1739 62.5942 56.1347 63.976 56.1347C65.6491 56.1347 66.4483 56.7636 70.5455 61.2589C73.1875 64.1834 73.6726 64.4258 77.3329 64.4258C83.1996 64.4258 89.7932 63.677 94.4237 62.4926C104.17 59.9785 110.594 54.7103 112.97 47.3145C113.988 44.1968 115.2 38.1306 114.909 37.5978C114.763 37.3313 113.575 36.8969 111.466 36.3173C100.46 33.2956 87.7566 31.3384 74.4237 30.5896C69.5513 30.3219 58.1816 30.3219 53.237 30.6123Z" fill="#0078D4"/>
  <path d="M52.4846 7.65087C36.4844 8.47291 22.7145 11.1802 14.3756 15.1439C11.4664 16.5216 11.5639 16.1592 11.9515 23.9174C12.1212 27.4455 12.3631 30.4432 12.4847 30.5632C12.6303 30.7084 13.6246 30.5392 15.1507 30.0796C26.3761 26.7447 39.1998 24.6422 53.4548 23.7962C59.5886 23.4338 74.9087 23.651 80.7272 24.1586C92.4364 25.2218 102.958 27.0111 112.121 29.5C114.643 30.2008 115.296 30.298 115.539 30.0556C115.709 29.8384 115.903 27.6387 116.073 23.627C116.315 18.3096 116.315 17.3916 116 16.8108C115.128 15.1187 106.28 11.977 97.4544 10.213C85.8669 7.86806 68.0973 6.85282 52.4846 7.65087Z" fill="#0078D4"/>
  <path opacity="0.75" fill-rule="evenodd" clip-rule="evenodd" d="M76.3585 30.707C83.3375 39.0067 92.3124 49.7799 100.787 60.2475C98.8594 61.1452 96.7349 61.8964 94.4236 62.4926C89.7931 63.677 83.1995 64.4258 77.3329 64.4258C73.6726 64.4258 73.1875 64.1834 70.5455 61.2589C66.4482 56.7636 65.649 56.1347 63.9759 56.1347C62.5941 56.1347 61.0667 57.1739 59.0795 59.5428C56.6312 62.3941 55.3216 63.6025 54.2552 64.0622C52.7037 64.691 44.8245 64.4486 38.7882 63.5545C34.2652 62.8876 30.3135 61.7478 26.9695 60.16C35.4125 49.7533 44.3686 39.0166 51.3425 30.7315C51.98 30.6873 52.6118 30.6475 53.2369 30.6123C58.1815 30.3219 69.5512 30.3219 74.4236 30.5896C75.0701 30.6259 75.7151 30.665 76.3585 30.707Z" fill="#50E6FF"/>
  <path fill-rule="evenodd" clip-rule="evenodd" d="M63.8662 15.9612C63.8662 15.9612 61.3424 18.9066 57.3028 23.6739C55.5688 25.7204 53.5555 28.1025 51.3426 30.7315C51.9801 30.6873 52.6119 30.6475 53.237 30.6123C58.1816 30.3219 69.5513 30.3219 74.4237 30.5896C75.0702 30.6259 75.7152 30.665 76.3586 30.707C74.1564 28.0881 72.153 25.7154 70.4267 23.6764C66.3878 18.9057 63.8662 15.9612 63.8662 15.9612ZM100.787 60.2475C98.8595 61.1452 96.735 61.8963 94.4237 62.4926C93.2053 62.8042 91.8511 63.0857 90.4099 63.3313C97.3554 71.8606 104.084 80.3085 109.274 87.1991C112.219 91.1085 114.569 94.3858 116.163 96.8318C116.712 97.6731 117.122 98.3423 117.416 98.8523C117.019 101.316 114.603 105.915 104.702 110.68L104.69 110.685C94.0405 115.826 79.3966 118.635 64.1958 118.614C48.9974 118.593 34.3257 115.744 23.6266 110.568L23.6193 110.565L23.612 110.561C13.3362 105.611 10.9269 100.831 10.5721 98.3259C10.8728 97.8095 11.2948 97.1296 11.8593 96.2727C13.4609 93.842 15.8115 90.5877 18.7477 86.7098C23.8651 79.951 30.4703 71.6797 37.2955 63.3136C33.3909 62.6276 29.9404 61.5706 26.9696 60.16C13.2587 77.0599 0.901021 93.0898 0.582633 96.338C-0.211117 104.665 5.99456 113.174 19.2718 119.57C44.0946 131.578 84.2872 131.639 109.038 119.691C121.954 113.475 128.088 105.208 127.438 97.0018C127.182 93.684 114.654 77.3748 100.787 60.2475ZM117.947 99.8765C117.943 99.8741 117.913 99.8125 117.871 99.6989C117.929 99.8221 117.951 99.8789 117.947 99.8765ZM10.0459 99.3242C10.0422 99.3264 10.0631 99.2725 10.1199 99.1558C10.078 99.2635 10.0496 99.3219 10.0459 99.3242Z" fill="#50E6FF"/>
</svg>
