<svg data-slug-id="hybrid-infrastructures" xmlns="http://www.w3.org/2000/svg" viewBox="0 0 48 48">
    <path d="M23.8902 1.84053L43.9478 13.6167L42.6646 15.7947L23.8818 4.77824L5.52953 15.381L4.26327 13.1862L23.8902 1.84053Z" fill="#50E6FF"/>
    <path d="M23.8902 12.8656L43.9478 24.6333L42.6646 26.8197L23.8818 15.7948L5.52953 26.3976L4.26327 24.2028L23.8902 12.8656Z" fill="#50E6FF"/>
    <path d="M23.8902 22.3537L43.9478 34.1215L42.6646 36.3079L23.8818 25.283L5.52953 35.8858L4.26327 33.6909L23.8902 22.3537Z" fill="#50E6FF"/>
    <path d="M23.8902 32.2388L43.9478 44.015L42.6646 46.193L23.8818 35.1766L5.52953 45.7793L4.26327 43.5845L23.8902 32.2388Z" fill="#50E6FF"/>
    <path d="M40.7992 48L48 48L48 40.7992L40.7992 40.7992L40.7992 48Z" fill="#0078D4"/>
    <path d="M20.4037 48L27.6045 48L27.6045 40.7992L20.4037 40.7992L20.4037 48Z" fill="#0078D4"/>
    <path d="M0.000392437 48L7.20117 48L7.20117 40.7992L0.000393066 40.7992L0.000392437 48Z" fill="#0078D4"/>
    <path d="M40.7992 37.8021L48 37.8021L48 30.6013L40.7992 30.6013L40.7992 37.8021Z" fill="#0078D4"/>
    <path d="M20.4042 37.8021L27.605 37.8021L27.605 30.6013L20.4042 30.6013L20.4042 37.8021Z" fill="#0078D4"/>
    <path d="M0.000392437 37.8021L7.20117 37.8021L7.20117 30.6013L0.000393066 30.6013L0.000392437 37.8021Z" fill="#0078D4"/>
    <path d="M40.7992 27.5961L48 27.5961L48 20.3953L40.7992 20.3953L40.7992 27.5961Z" fill="#0078D4"/>
    <path d="M0.000392437 27.5961L7.20117 27.5961L7.20117 20.3953L0.000393066 20.3953L0.000392437 27.5961Z" fill="#0078D4"/>
    <path d="M40.7992 17.3987L48 17.3987L48 10.1979L40.7992 10.1979L40.7992 17.3987Z" fill="#0078D4"/>
    <path d="M20.4042 17.3987L27.605 17.3987L27.605 10.1979L20.4042 10.1979L20.4042 17.3987Z" fill="#0078D4"/>
    <path d="M0.000392437 17.3987L7.20117 17.3987L7.20117 10.1979L0.000393066 10.1979L0.000392437 17.3987Z" fill="#0078D4"/>
    <path d="M40.7992 7.20081L48 7.20081L48 2.6226e-05L40.7992 2.55965e-05L40.7992 7.20081Z" fill="#0078D4"/>
    <path d="M20.4042 7.20081L27.605 7.20081L27.605 2.6226e-05L20.4042 2.55965e-05L20.4042 7.20081Z" fill="#0078D4"/>
    <path d="M0.000392437 7.20081L7.20117 7.20081L7.20117 2.6226e-05L0.000393066 2.55965e-05L0.000392437 7.20081Z" fill="#0078D4"/>
    <path d="M20.4042 27.5961L27.605 27.5961L27.605 20.3953L20.4042 20.3953L20.4042 27.5961Z" fill="#0078D4"/>
</svg>
