<svg data-slug-id="hybrid" xmlns="http://www.w3.org/2000/svg" viewBox="0 0 48 49">
    <path d="M12.5697 18.5828C12.5689 17.0786 12.7604 15.5804 13.1395 14.1248C5.57926 16.0991 0 22.9738 0 31.1525C0 40.873 7.877 48.75 17.5975 48.75C25.7762 48.75 32.651 43.1708 34.6253 35.6105C33.1696 35.9897 31.6714 36.1812 30.1672 36.1804C20.4467 36.1804 12.5697 28.3034 12.5697 18.5828Z" fill="#0078D4"/>
    <path d="M47.7649 18.5828C47.7649 8.86226 39.8879 0.98526 30.1674 0.98526C21.9887 0.98526 15.1139 6.56452 13.1396 14.1248C14.5953 13.7456 16.0935 13.5541 17.5977 13.5549C27.3182 13.5549 35.1952 21.4319 35.1952 31.1525C35.196 32.6567 35.0046 34.1549 34.6254 35.6105C42.1857 33.6362 47.7649 26.7615 47.7649 18.5828Z" fill="#50E6FF"/>
    <path d="M17.5982 13.5549C16.094 13.5541 14.5958 13.7456 13.1401 14.1248C12.761 15.5804 12.5695 17.0786 12.5703 18.5828C12.5703 28.3034 20.4473 36.1804 30.1679 36.1804C31.6721 36.1812 33.1702 35.9897 34.6259 35.6105C35.005 34.1549 35.1965 32.6567 35.1957 31.1525C35.1957 21.4319 27.3187 13.5549 17.5982 13.5549Z" fill="#0078D4"/>
    <path opacity="0.75" d="M17.5982 13.5549C16.094 13.5541 14.5958 13.7456 13.1401 14.1248C12.761 15.5804 12.5695 17.0786 12.5703 18.5828C12.5703 28.3034 20.4473 36.1804 30.1679 36.1804C31.6718 36.1812 33.1697 35.9897 34.6251 35.6105C35.0049 34.155 35.1967 32.6568 35.1957 31.1525C35.1957 21.4319 27.3187 13.5549 17.5982 13.5549Z" fill="#50E6FF"/>
</svg>
