<svg data-slug-id="iaas-squares" xmlns="http://www.w3.org/2000/svg" viewBox="0 0 97 97">
  <path d="M76.2673 10.6401H56.0674V30.864H76.2841L76.2673 10.6401Z" fill="#50E6FF"/>
  <path d="M81.2162 76.1276H65.9653V91.4007H81.2331L81.2162 76.1276Z" fill="#50E6FF"/>
  <path d="M50.748 35.8315H35.4971V51.1047H50.7648L50.748 35.8315Z" fill="#50E6FF"/>
  <path d="M35.632 65.7883H15.4321V86.0122H35.6489V65.7883H35.632Z" fill="#50E6FF"/>
  <path d="M20.6167 25.6438H0.433594V45.8676H20.6503V25.6438H20.6167Z" fill="#50E6FF"/>
  <path d="M30.7001 52.0813H0.518066V82.2907H30.7169V52.0813H30.7001Z" fill="#0078D4"/>
  <path d="M96.1645 20.7268H65.8311V51.071H96.1645V20.7268Z" fill="#0078D4"/>
  <path d="M45.7991 10.6401H14.8091V41.641H45.7991V10.6401Z" fill="#0078D4"/>
  <path d="M71.0491 61.0734H40.7661V91.367H71.0491V61.0734Z" fill="#0078D4"/>
  <path d="M74.9712 34.9727C75.594 34.9727 75.998 35.0905 76.2 35.3094C76.402 35.5283 76.4525 35.9325 76.3515 36.4713C76.2337 37.0439 76.0148 37.448 75.695 37.7006C75.3752 37.9532 74.887 38.0711 74.2305 38.0711H73.2542L73.8602 34.9727H74.9712ZM70.9985 41.2368H72.6314L73.0185 39.2666H74.4157C75.0217 39.2666 75.5267 39.1993 75.9307 39.0814C76.3347 38.9467 76.6882 38.7446 77.008 38.4415C77.2773 38.1889 77.4962 37.9195 77.6645 37.6164C77.8328 37.3133 77.9507 36.9765 78.018 36.6229C78.1863 35.7473 78.0517 35.0568 77.6308 34.5685C77.1932 34.0802 76.5198 33.8276 75.5772 33.8276H72.4462L70.9985 41.2368ZM79.23 31.8237H80.846L80.4588 33.7939H81.8896C82.7986 33.7939 83.4215 33.9455 83.7581 34.2654C84.0948 34.5854 84.2126 35.0905 84.0611 35.7809L83.3878 39.233H81.755L82.3946 35.9493C82.462 35.5789 82.4451 35.3263 82.3105 35.1916C82.1758 35.0568 81.9065 34.9895 81.5025 34.9895H80.2232L79.3983 39.233H77.7823L79.23 31.8237ZM87.6803 34.9727C88.3031 34.9727 88.7071 35.0905 88.9091 35.3094C89.1111 35.5283 89.1616 35.9325 89.0606 36.4713C88.9428 37.0439 88.7239 37.448 88.4041 37.7006C88.0843 37.9532 87.5961 38.0711 86.9396 38.0711H85.9465L86.5525 34.9727H87.6803ZM83.7076 41.2368H85.3405L85.7108 39.2666H87.1079C87.7308 39.2666 88.2189 39.1993 88.6229 39.0814C89.0269 38.9467 89.3804 38.7446 89.7003 38.4415C89.9696 38.1889 90.1884 37.9195 90.3568 37.6164C90.5251 37.3133 90.6429 36.9765 90.7103 36.6229C90.8786 35.7473 90.7439 35.0568 90.3231 34.5685C89.8854 34.0802 89.2121 33.8276 88.2694 33.8276H85.1385L83.7076 41.2368Z" fill="white"/>
  <path d="M60.0234 74.2079C59.4511 74.4774 58.1549 74.73 56.6063 74.831C54.5358 74.9994 52.8356 74.831 52.802 74.511C52.802 74.3427 53.61 73.989 54.5358 73.7196C52.802 73.8543 51.5226 74.2079 51.5563 74.5952C51.59 75.0499 53.4753 75.353 55.8488 75.3025C58.2054 75.252 60.1076 74.7805 60.0908 74.3258C60.0739 74.2921 60.0403 74.2416 60.0234 74.2079Z" fill="white"/>
  <path d="M56.9598 76.4307C55.1082 76.6159 53.5595 76.4307 53.5427 76.0266C53.509 75.8918 53.711 75.7235 54.0309 75.5719C53.3239 75.7571 52.8694 76.0266 52.8862 76.2791C52.9199 76.8012 54.5358 77.1211 56.5222 77.0706C57.751 77.0201 58.7947 76.818 59.4512 76.5822L58.862 76.1276C58.3065 76.2455 57.65 76.3465 56.9598 76.4307Z" fill="white"/>
  <path d="M61.858 79.024C61.8075 79.1587 61.7234 79.3271 61.6055 79.4281C61.5214 79.5123 61.353 79.5965 61.2015 79.647C60.6629 79.9164 59.0637 80.1353 57.0774 80.1859C56.8249 80.1859 56.6229 80.1859 56.3704 80.1859C53.6097 80.1859 51.1858 79.9164 51.1858 79.5123C51.1858 79.2934 51.9264 79.0576 52.8186 78.9229L52.6334 78.7882C51.2026 78.9229 50.1421 79.3607 50.1421 79.7649V79.7986C50.1926 80.3206 51.7749 80.59 53.8117 80.7247C54.4851 80.7752 55.2426 80.7584 56.0169 80.7584C59.3499 80.7584 62.0937 80.1353 62.0937 79.3439C62.0264 79.2092 61.9759 79.125 61.858 79.024Z" fill="white"/>
  <path d="M62.7841 79.7144C62.5316 80.5226 59.9561 81.2636 56.6904 81.2636C55.6804 81.2636 54.0308 81.1625 52.3979 80.9941C53.5089 81.4319 54.5694 81.6172 56.7073 81.6172C60.1244 81.6172 62.8009 80.8257 62.8009 79.9333C62.8346 79.8659 62.8177 79.7817 62.7841 79.7144Z" fill="white"/>
  <path d="M62.6998 74.2584C62.3463 73.5512 61.4204 73.2818 60.6293 73.6691C60.5283 73.7196 60.4441 73.7701 60.3599 73.8375C61.1006 73.5849 61.7908 73.8038 62.0433 74.3595C62.3463 74.9825 61.9928 75.5887 61.2858 76.1276C61.1174 76.2623 60.3431 76.8348 60.1411 76.8685C60.5956 76.8685 61.2016 76.7001 61.8581 76.2791C62.6324 75.7908 63.0533 74.9994 62.6998 74.2584Z" fill="white"/>
  <path d="M56.808 78.2324C55.293 78.3335 54.0473 78.1482 54.0137 77.7946C54.0137 77.7441 54.0473 77.6936 54.0978 77.6262C53.6433 77.7609 53.3403 77.9798 53.3403 78.1651C53.3403 78.6197 54.7038 79.007 56.3871 79.007C57.6833 79.007 58.7775 78.7881 59.2151 78.4682C58.9626 78.2998 58.6765 78.0809 58.4576 77.9462C57.9863 78.064 57.414 78.1819 56.808 78.2324Z" fill="white"/>
  <path d="M57.0943 74.2416C57.0943 74.2416 57.5825 73.9722 57.5488 73.2144C57.5151 72.4735 56.4378 71.7494 56.4715 70.7391C56.5051 69.7287 57.7508 68.8699 58.239 68.5668C58.7271 68.2637 60.3263 67.7585 60.3263 67.7585C60.3263 67.7585 59.047 68.55 58.4073 69.0552C57.7508 69.5772 57.532 70.2844 57.6161 70.7896C57.7003 71.2779 58.6935 72.0694 58.5083 72.6587C58.3063 73.2649 57.6498 74.1574 57.0943 74.2416Z" fill="white"/>
  <path d="M58.2557 64.2054C58.2557 64.2054 58.9963 65.1821 58.5082 66.3777C58.02 67.5733 57.0773 68.3816 56.4209 68.8699C55.7644 69.3582 55.0069 70.0991 55.192 71.1263C55.3772 72.1535 56.0674 72.8608 56.2189 73.0292C56.3535 73.1975 56.5218 73.7027 56.5218 73.7027C56.5218 73.7027 55.3604 72.6924 54.9227 72.1198C54.485 71.5473 53.9464 70.5706 54.4682 69.695C54.9564 68.8531 56.0674 68.23 57.2625 67.2028C58.4408 66.1756 58.3567 64.6938 58.2557 64.2054Z" fill="white"/>
  <path d="M55.1415 87.9992H54.485V87.4267H54.4513C54.182 87.915 53.8622 88.1676 53.3067 88.1676C52.9195 88.1676 52.5997 88.0665 52.3808 87.8476C52.1283 87.6287 52.0273 87.3593 52.0273 87.0057C52.0273 86.2479 52.3808 85.8438 53.273 85.7091L54.3335 85.6249C54.3335 84.9513 54.1652 84.5977 53.6265 84.5977C53.1383 84.5977 52.6165 84.6819 52.2462 85.0018V84.3451C52.3472 84.2609 52.9027 84.0251 53.677 84.0251C54.5187 84.0251 55.091 84.3451 55.091 85.3554V87.9992H55.1415ZM54.3672 86.1132L53.5255 86.1974C53.2057 86.2479 53.172 86.2816 53.0373 86.3826C52.9027 86.4837 52.8522 86.6857 52.8522 86.9215C52.8522 87.1067 52.8858 87.2246 53.0205 87.3256C53.1552 87.4267 53.273 87.4603 53.475 87.4603C53.7948 87.4603 53.879 87.4098 54.0978 87.1909C54.3167 86.972 54.3503 86.652 54.3503 86.3153V86.0964H54.3672V86.1132Z" fill="white"/>
  <path d="M62.5482 87.9992H61.8917V87.4267H61.8581C61.5887 87.915 61.2689 88.1676 60.7134 88.1676C60.3262 88.1676 60.0064 88.0665 59.7876 87.8476C59.5351 87.6287 59.4341 87.3593 59.4341 87.0057C59.4341 86.2479 59.7876 85.8438 60.6797 85.7091L61.7402 85.6249C61.7402 84.9513 61.5719 84.5977 61.0332 84.5977C60.5451 84.5977 60.0232 84.6819 59.6529 85.0018V84.3451C59.7539 84.2609 60.3094 84.0251 61.0837 84.0251C61.9254 84.0251 62.4977 84.3451 62.4977 85.3554V87.9992H62.5482ZM61.7907 86.1132L60.9491 86.1974C60.6292 86.2479 60.5956 86.2816 60.4609 86.3826C60.3262 86.4837 60.2757 86.6857 60.2757 86.9215C60.2757 87.1067 60.3094 87.2246 60.4441 87.3256C60.5787 87.4267 60.6966 87.4603 60.8986 87.4603C61.2184 87.4603 61.3026 87.4098 61.5214 87.1909C61.7402 86.972 61.7739 86.652 61.7739 86.3153V86.0964H61.7907V86.1132Z" fill="white"/>
  <path d="M59.148 84.0083L58.0033 87.9487H56.926L55.5962 84.0083H56.522L57.4478 87.0562L58.2558 84.0083H59.148Z" fill="white"/>
  <path d="M51.4215 86.2816V82.678H50.5293V86.2816C50.5293 87.2919 50.664 88.2686 50.1758 88.6222C49.9907 88.7569 49.7887 88.8748 49.6035 88.9253L50.1253 89.5147C50.5293 89.2958 50.9333 88.9758 51.1858 88.639C51.4552 88.2686 51.4215 86.9383 51.4215 86.2816Z" fill="white"/>
  <path d="M96.2316 51.3066H76.0317V71.5305H96.2485V51.3066H96.2316Z" fill="#50E6FF"/>
  <path d="M10.935 68.7412C10.7984 68.7412 10.6875 68.6302 10.6875 68.4937V64.4911V64.4826H10.2608L8.97209 64.9776V65.2848H9.56949V68.4851C9.56949 68.6217 9.45855 68.7326 9.322 68.7326H8.91235V69.1252H11.3873V68.7326H10.935V68.7412Z" fill="white"/>
  <path d="M10.1583 63.723C10.5307 63.723 10.8325 63.4212 10.8325 63.0488C10.8325 62.6765 10.5307 62.3746 10.1583 62.3746C9.78598 62.3746 9.48413 62.6765 9.48413 63.0488C9.48413 63.4212 9.78598 63.723 10.1583 63.723Z" fill="white"/>
  <path d="M16.6958 68.7412C16.5592 68.7412 16.4483 68.6302 16.4483 68.4937V65.831C16.4568 65.4811 16.4056 65.0714 16.0472 64.7557C15.6887 64.4399 15.0316 64.4228 14.7073 64.5423C14.4769 64.6277 13.8965 64.8922 13.5722 65.0373V64.4911V64.4826H13.0772L11.7886 64.9776V65.2848H12.386V68.4851C12.386 68.6217 12.275 68.7326 12.1385 68.7326H11.8142V69.1252H14.1184V68.7326H13.8197C13.6832 68.7326 13.5722 68.6217 13.5722 68.4851V65.4299C13.8027 65.3616 14.0245 65.2677 14.2294 65.2507C14.4427 65.2336 14.7329 65.1995 15.0231 65.3787C15.2364 65.5152 15.3217 65.703 15.3132 65.8225V68.4851C15.3132 68.6217 15.2023 68.7326 15.0657 68.7326H14.7926V69.1252H17.0969V68.7326H16.6958V68.7412Z" fill="white"/>
  <path d="M21.9955 68.4937V64.4826H21.5346L20.2118 64.9349V65.2848H20.9116V68.2632C20.6812 68.3315 20.4764 68.4254 20.3484 68.4339C20.0582 68.4595 19.751 68.4851 19.4693 68.3059C19.256 68.1694 19.1706 67.9816 19.1792 67.8621V64.4826H18.7268L17.3955 64.9349V65.2848H18.0441V67.8536C18.0356 68.2035 18.0868 68.6131 18.4452 68.9289C18.8037 69.2447 19.4779 69.202 19.8192 69.1337C20.0838 69.0825 20.5958 68.7924 20.9201 68.6473V69.202H22.6355V68.707H22.2088C22.0893 68.6985 21.9955 68.6046 21.9955 68.4937Z" fill="white"/>
  <path d="M27.227 68.5364L25.8872 66.6588L27.0307 65.1483C27.1161 65.0373 27.2526 64.9691 27.3977 64.9691H27.6367V64.5509H25.8872V64.9691H26.1859C26.3224 64.9691 26.3992 65.1227 26.3139 65.2336L25.5543 66.2492L24.8118 65.2336C24.735 65.1227 24.8118 64.9691 24.9484 64.9691H25.1874V64.5509H22.9599V64.9691H23.1562C23.3013 64.9691 23.4464 65.0373 23.5317 65.1568L24.846 66.9575L23.5232 68.5534C23.4378 68.6558 23.3013 68.7241 23.1647 68.7241H22.9258V69.1423H24.7436V68.7241H24.4705C24.3339 68.7241 24.2571 68.5705 24.3425 68.4596L25.1532 67.3586L25.9554 68.4596C26.0322 68.5705 25.9554 68.7241 25.8189 68.7241H25.597V69.1423H27.8244V68.7241H27.6025C27.4575 68.7241 27.3209 68.6558 27.227 68.5364Z" fill="white"/>
  <path d="M7.87984 67.2989L7.71769 68.4595C7.70062 68.5619 7.61528 68.6388 7.51287 68.6388H5.80602V63.5182C5.80602 63.3902 5.90843 63.2878 6.03644 63.2878H6.49729V62.8269H3.74927V63.2878H4.28692C4.41494 63.2878 4.51735 63.3902 4.51735 63.5182V68.451C4.51735 68.6131 4.38934 68.7412 4.22718 68.7412H3.80047V69.1081H8.50284V67.2989H7.87984Z" fill="white"/>
  <path d="M41.7222 28.6693C41.7339 28.6186 41.7417 28.5717 41.7534 28.5209C41.812 28.2163 41.8433 27.9 41.8433 27.5758C41.8433 24.803 39.5938 22.5613 36.8287 22.5613C36.4421 22.5613 36.0633 22.6042 35.7079 22.6902C34.5636 20.8859 32.5484 19.6869 30.2521 19.6869C26.6864 19.6869 23.8003 22.5808 23.8003 26.1386C23.8003 26.2285 23.8003 26.3144 23.8043 26.4003C23.4801 26.2909 23.1325 26.2285 22.7693 26.2285C21.0119 26.2285 19.5903 27.65 19.5903 29.4074C19.5903 31.0555 20.844 32.4107 22.453 32.5669L36.8287 32.5942C38.7189 32.5942 40.3592 31.5515 41.2145 30.0167C41.2379 29.9737 41.2614 29.9308 41.2848 29.8839C41.4137 29.6183 41.605 29.2044 41.7222 28.6693Z" fill="white"/>
</svg>
