<svg data-slug-id="icon-rss" xmlns="http://www.w3.org/2000/svg" viewBox="0 0 49 49">
<path d="M24.585 48.2188C37.8398 48.2188 48.585 37.4736 48.585 24.2188C48.585 10.9639 37.8398 0.21875 24.585 0.21875C11.3301 0.21875 0.584961 10.9639 0.584961 24.2188C0.584961 37.4736 11.3301 48.2188 24.585 48.2188Z" fill="#FA9A00"/>
<path d="M15.747 38.0096C17.7679 38.0096 19.4061 36.3714 19.4061 34.3505C19.4061 32.3296 17.7679 30.6914 15.747 30.6914C13.7261 30.6914 12.0879 32.3296 12.0879 34.3505C12.0879 36.3714 13.7261 38.0096 15.747 38.0096Z" fill="white"/>
<path d="M33.2728 37.8034H38.6208C38.5082 23.3171 26.7803 11.6079 12.2939 11.4766V16.8245C23.8342 16.9558 33.1415 26.2819 33.2728 37.8034Z" fill="white"/>
<path d="M24.491 37.8042H29.6137C29.5011 28.2905 21.8076 20.6157 12.2939 20.4844V25.6071C18.9742 25.7385 24.3784 31.1239 24.491 37.8042Z" fill="white"/>
</svg>
