<svg data-slug-id="integration-blue" xmlns="http://www.w3.org/2000/svg" viewBox="0 0 49 48">
<path d="M3.0771 5.05263C1.6792 5.05263 0.550781 3.92421 0.550781 2.52631C0.550781 1.12842 1.6792 0 3.0771 0C4.47499 0 5.60341 1.12842 5.60341 2.52631C5.60341 3.91579 4.46657 5.05263 3.0771 5.05263Z" fill="#0078D4"/>
<path d="M12.7611 0H7.7085V5.05263H12.7611V0Z" fill="#0078D4"/>
<path d="M19.9188 0H14.8662V5.05263H19.9188V0Z" fill="#0078D4"/>
<path d="M31.7084 0C30.3105 0 29.1821 1.12842 29.1821 2.52631C29.1821 3.92421 30.3105 5.05263 31.7084 5.05263C33.1063 5.05263 34.2348 3.92421 34.2348 2.52631C34.2348 1.12842 33.1063 0 31.7084 0Z" fill="#50E6FF"/>
<path d="M39.0686 5.04431C37.5108 5.1622 36.2223 3.8822 36.3487 2.32431C36.4413 1.09483 37.435 0.109572 38.6644 0.00851994C40.2223 -0.109375 41.5108 1.17062 41.3844 2.72852C41.2918 3.95799 40.2981 4.95167 39.0686 5.04431Z" fill="#50E6FF"/>
<path d="M5.60341 7.15796H0.550781V12.2106H5.60341V7.15796Z" fill="#0078D4"/>
<path d="M12.7611 7.15796H7.7085V12.2106H12.7611V7.15796Z" fill="#0078D4"/>
<path d="M19.9188 7.15796H14.8662V12.2106H19.9188V7.15796Z" fill="#0078D4"/>
<path d="M27.0768 7.15796H22.0242V12.2106H27.0768V7.15796Z" fill="#0078D4"/>
<path d="M34.2348 7.15796H29.1821V12.2106H34.2348V7.15796Z" fill="#0078D4"/>
<path d="M38.8664 12.2106C37.4685 12.2106 36.3401 11.0822 36.3401 9.68427C36.3401 8.28638 37.4685 7.15796 38.8664 7.15796C40.2643 7.15796 41.3927 8.28638 41.3927 9.68427C41.3927 11.0737 40.2559 12.2106 38.8664 12.2106Z" fill="#50E6FF"/>
<path d="M5.60341 14.3159H0.550781V19.3685H5.60341V14.3159Z" fill="#0078D4"/>
<path d="M12.7611 14.3159H7.7085V19.3685H12.7611V14.3159Z" fill="#0078D4"/>
<path d="M19.9188 14.3159H14.8662V19.3685H19.9188V14.3159Z" fill="#0078D4"/>
<path d="M27.0768 14.3159H22.0242V19.3685H27.0768V14.3159Z" fill="#0078D4"/>
<path d="M31.7084 14.3159C30.3105 14.3159 29.1821 15.4443 29.1821 16.8422C29.1821 18.2401 30.3105 19.3685 31.7084 19.3685C33.1063 19.3685 34.2348 18.2401 34.2348 16.8422C34.2348 15.4443 33.1063 14.3159 31.7084 14.3159Z" fill="#50E6FF"/>
<path d="M41.3927 14.3159H36.3401V19.3685H41.3927V14.3159Z" fill="#0078D4"/>
<path d="M46.0241 14.3159C44.6262 14.3159 43.4978 15.4443 43.4978 16.8422C43.4978 18.2401 44.6262 19.3685 46.0241 19.3685C47.422 19.3685 48.5504 18.2401 48.5504 16.8422C48.5504 15.4443 47.422 14.3159 46.0241 14.3159Z" fill="#50E6FF"/>
<path d="M5.60341 21.4739H0.550781V26.5265H5.60341V21.4739Z" fill="#0078D4"/>
<path d="M12.7611 21.4739H7.7085V26.5265H12.7611V21.4739Z" fill="#0078D4"/>
<path d="M19.9188 21.4739H14.8662V26.5265H19.9188V21.4739Z" fill="#0078D4"/>
<path d="M24.5505 26.5265C23.1526 26.5265 22.0242 25.3981 22.0242 24.0002C22.0242 22.6023 23.1526 21.4739 24.5505 21.4739C25.9484 21.4739 27.0768 22.6023 27.0768 24.0002C27.0768 25.3897 25.94 26.5265 24.5505 26.5265Z" fill="#50E6FF"/>
<path d="M34.2348 21.4739H29.1821V26.5265H34.2348V21.4739Z" fill="#0078D4"/>
<path d="M41.3927 21.4739H36.3401V26.5265H41.3927V21.4739Z" fill="#0078D4"/>
<path d="M5.60341 28.6317H0.550781V33.6843H5.60341V28.6317Z" fill="#0078D4"/>
<path d="M12.7611 28.6317H7.7085V33.6843H12.7611V28.6317Z" fill="#0078D4"/>
<path d="M17.3925 33.6843C15.9946 33.6843 14.8662 32.5559 14.8662 31.158C14.8662 29.7601 15.9946 28.6317 17.3925 28.6317C18.7904 28.6317 19.9188 29.7601 19.9188 31.158C19.9188 32.5475 18.782 33.6843 17.3925 33.6843Z" fill="#50E6FF"/>
<path d="M27.0768 28.6317H22.0242V33.6843H27.0768V28.6317Z" fill="#0078D4"/>
<path d="M34.2348 28.6317H29.1821V33.6843H34.2348V28.6317Z" fill="#0078D4"/>
<path d="M38.8664 33.6843C37.4685 33.6843 36.3401 32.5559 36.3401 31.158C36.3401 29.7601 37.4685 28.6317 38.8664 28.6317C40.2643 28.6317 41.3927 29.7601 41.3927 31.158C41.3927 32.5475 40.2559 33.6843 38.8664 33.6843Z" fill="#0078D4"/>
<path d="M48.5504 28.6317H43.4978V33.6843H48.5504V28.6317Z" fill="#0078D4"/>
<path d="M5.60341 35.7896H0.550781V40.8422H5.60341V35.7896Z" fill="#0078D4"/>
<path d="M10.2348 35.7896C8.83692 35.7896 7.7085 36.918 7.7085 38.3159C7.7085 39.7138 8.83692 40.8422 10.2348 40.8422C11.6327 40.8422 12.7611 39.7138 12.7611 38.3159C12.7611 36.918 11.6327 35.7896 10.2348 35.7896Z" fill="#50E6FF"/>
<path d="M19.9188 35.7896H14.8662V40.8422H19.9188V35.7896Z" fill="#0078D4"/>
<path d="M24.5505 40.8422C23.1526 40.8422 22.0242 39.7138 22.0242 38.3159C22.0242 36.918 23.1526 35.7896 24.5505 35.7896C25.9484 35.7896 27.0768 36.918 27.0768 38.3159C27.0768 39.7053 25.94 40.8422 24.5505 40.8422Z" fill="#0078D4"/>
<path d="M34.2348 35.7896H29.1821V40.8422H34.2348V35.7896Z" fill="#0078D4"/>
<path d="M41.3927 35.7896H36.3401V40.8422H41.3927V35.7896Z" fill="#0078D4"/>
<path d="M48.5504 35.7896H43.4978V40.8422H48.5504V35.7896Z" fill="#0078D4"/>
<path d="M3.0771 42.9474C1.6792 42.9474 0.550781 44.0758 0.550781 45.4737C0.550781 46.8716 1.6792 48 3.0771 48C4.47499 48 5.60341 46.8716 5.60341 45.4737C5.60341 44.0758 4.47499 42.9474 3.0771 42.9474Z" fill="#50E6FF"/>
<path d="M12.7611 42.9474H7.7085V48H12.7611V42.9474Z" fill="#0078D4"/>
<path d="M19.9188 42.9474H14.8662V48H19.9188V42.9474Z" fill="#0078D4"/>
<path d="M27.0768 42.9474H22.0242V48H27.0768V42.9474Z" fill="#0078D4"/>
<path d="M34.2348 42.9474H29.1821V48H34.2348V42.9474Z" fill="#0078D4"/>
<path d="M38.8664 48C37.4685 48 36.3401 46.8716 36.3401 45.4737C36.3401 44.0758 37.4685 42.9474 38.8664 42.9474C40.2643 42.9474 41.3927 44.0758 41.3927 45.4737C41.3927 46.8632 40.2559 48 38.8664 48Z" fill="#0078D4"/>
<path d="M48.5504 42.9474H43.4978V48H48.5504V42.9474Z" fill="#0078D4"/>
<path d="M48.5504 21.4739H43.4978V26.5265H48.5504V21.4739Z" fill="#50E6FF"/>
<path d="M48.5504 0H43.4978V5.05263H48.5504V0Z" fill="#50E6FF"/>
<path d="M48.5504 7.15796H43.4978V12.2106H48.5504V7.15796Z" fill="#50E6FF"/>
<path d="M27.0768 0H22.0242V5.05263H27.0768V0Z" fill="#50E6FF"/>
</svg>
