<svg data-slug-id="iot-overview" xmlns="http://www.w3.org/2000/svg" viewBox="0 0 48 48">
    <path fill-rule="evenodd" clip-rule="evenodd" d="M24.8943 39.953C17.0083 39.953 10.6159 33.496 10.6159 25.5322C10.6159 17.5676 17.0083 11.1105 24.8943 11.1105C32.7802 11.1105 39.1735 17.5676 39.1735 25.5322C39.1735 33.496 32.7802 39.953 24.8943 39.953ZM24.8943 9.47461C16.1139 9.47461 8.99609 16.6633 8.99609 25.5322C8.99609 34.4002 16.1139 41.5889 24.8943 41.5889C33.6747 41.5889 40.7933 34.4002 40.7933 25.5322C40.7933 16.6633 33.6747 9.47461 24.8943 9.47461Z" fill="#43BEEC"/>
    <path fill-rule="evenodd" clip-rule="evenodd" d="M41.8195 24.1476L41.8718 25.9543C43.1963 27.0596 43.8942 28.2005 43.7792 29.2868C43.647 30.5352 42.459 31.5435 40.5173 32.2613C36.9361 33.5851 30.7841 33.9154 23.9127 32.9098C22.0663 32.6402 20.2818 32.3185 18.5933 31.9501C18.1109 30.3168 17.6774 28.5785 17.3117 26.7631C17.1538 25.9803 16.7195 24.0981 16.5967 23.3344C15.7546 18.0859 15.7675 13.6714 16.4825 10.631C17.0783 8.10124 18.1598 6.52166 19.6448 6.21649C20.8852 5.96161 22.2578 6.79041 23.6097 8.43068C24.0346 8.3986 24.4621 8.37693 24.8947 8.37693C24.9745 8.37693 25.0535 8.38213 25.1333 8.38299C23.1118 5.32354 20.9324 3.659 18.9916 4.05866C16.7289 4.52335 14.843 7.06697 14.3641 12.077C14.2027 13.7719 14.201 15.7477 14.401 18.0226C14.5426 19.6342 14.7083 21.206 14.94 22.8532C14.9606 23.0006 14.9812 23.1488 15.0027 23.2988C15.0284 23.4696 15.0551 23.6421 15.0817 23.8155C15.1108 24.0045 15.1409 24.1944 15.1718 24.3851C15.1975 24.542 15.2233 24.6981 15.2499 24.8567C15.2885 25.0847 15.3297 25.3162 15.3709 25.5485C15.395 25.6795 15.4173 25.8095 15.4422 25.9413C15.5109 26.3123 15.583 26.6877 15.6602 27.0726C15.7375 27.4576 15.8182 27.839 15.9023 28.2179C15.9812 28.5777 16.0645 28.934 16.1495 29.2868C16.1538 29.3033 16.1572 29.3206 16.1606 29.3371C16.3392 30.0775 16.5298 30.804 16.7298 31.514C13.1537 30.6158 10.1339 29.4836 8.10897 28.139C6.15614 26.8412 5.12522 25.3465 5.40935 23.6742C5.61107 22.4778 6.74843 21.499 8.57336 20.7864L9.0798 19.2857C5.66601 20.1891 3.44107 21.6828 3.0651 23.6135C2.58698 26.0696 4.77415 28.3947 8.58366 30.3142C10.9417 31.5027 13.9228 32.5361 17.2826 33.3485C18.4156 36.8986 19.8002 39.9693 21.2801 42.2919C23.3599 45.5586 25.6243 47.3549 27.633 46.9413C29.4218 46.5746 30.718 44.5121 31.4399 41.3634C30.9412 41.5741 30.4304 41.7622 29.9085 41.9243C29.3051 43.4874 28.4622 44.4792 27.3995 44.6977C26.196 44.9448 24.8913 44.1732 23.608 42.6309C22.0131 40.7149 20.4543 37.6034 19.1676 33.7689C20.5358 34.055 21.9505 34.309 23.4063 34.5188C29.6218 35.417 35.3026 35.3589 39.416 34.4269C43.1414 33.5843 45.5809 32.0264 45.9595 29.8105C46.2788 27.9335 44.6951 25.9395 41.8195 24.1476Z" fill="#C5D966"/>
    <path fill-rule="evenodd" clip-rule="evenodd" d="M42.9619 11.7739C41.8383 11.0118 39.5713 11.6152 36.7438 13.2503C34.3472 14.6348 31.5488 16.7614 28.6981 19.4334C27.0415 20.9852 25.3676 22.7182 23.7461 24.5978L24.4097 25.8869C26.3582 23.6779 28.4535 21.6059 30.4887 19.8192C33.2493 17.3969 35.8966 15.5052 37.9172 14.5256C39.3464 13.8329 40.4632 13.5927 41.0803 13.9491C42.0546 14.5108 41.8057 16.3973 40.6168 19.0354L41.2143 20.7754C43.713 16.2837 44.5122 12.8264 42.9619 11.7739Z" fill="#C5D966"/>
    <path fill-rule="evenodd" clip-rule="evenodd" d="M17.5207 20.375C17.5207 20.375 18.4778 20.9359 19.6658 21.6321C20.8521 22.3282 22.1543 23.392 22.1543 23.392L21.35 24.2234C21.35 24.2234 19.7413 23.1206 19.1293 22.7149C18.5164 22.3083 16.8125 21.2836 16.8125 21.2836L17.5207 20.375Z" fill="#C5D966"/>
    <path fill-rule="evenodd" clip-rule="evenodd" d="M32.1716 19.2725L32.3716 19.6721C32.3716 19.6721 33.0197 22.2895 32.4969 25.6151C31.8652 29.6377 30.4102 32.1137 30.4102 32.1137L31.5776 32.6547C31.5776 32.6547 33.5622 29.1982 33.933 25.6541C34.1819 23.276 34.048 20.9552 33.569 18.8858C33.0901 16.8164 32.1716 19.2725 32.1716 19.2725Z" fill="#C5D966"/>
    <path fill-rule="evenodd" clip-rule="evenodd" d="M28.6158 26.0999C28.6158 28.4233 26.7514 30.3063 24.4501 30.3063C22.1505 30.3063 20.2852 28.4233 20.2852 26.0999C20.2852 23.7764 22.1505 21.8926 24.4501 21.8926C26.7514 21.8926 28.6158 23.7764 28.6158 26.0999Z" fill="#336FB4"/>
    <path fill-rule="evenodd" clip-rule="evenodd" d="M34.1135 17.9101C34.1135 18.8828 33.3324 19.6717 32.3693 19.6717C31.4062 19.6717 30.625 18.8828 30.625 17.9101C30.625 16.9374 31.4062 16.1484 32.3693 16.1484C33.3324 16.1484 34.1135 16.9374 34.1135 17.9101Z" fill="#336FB4"/>
    <path fill-rule="evenodd" clip-rule="evenodd" d="M17.7793 20.3177C17.7793 21.6432 16.7158 22.7174 15.4033 22.7174C14.0917 22.7174 13.0273 21.6432 13.0273 20.3177C13.0273 18.9921 14.0917 17.918 15.4033 17.918C16.7158 17.918 17.7793 18.9921 17.7793 20.3177Z" fill="#336FB4"/>
    <path fill-rule="evenodd" clip-rule="evenodd" d="M32.5748 34.4495C32.5748 35.8869 31.4211 37.0512 29.9979 37.0512C28.5747 37.0512 27.4219 35.8869 27.4219 34.4495C27.4219 33.0121 28.5747 31.8477 29.9979 31.8477C31.4211 31.8477 32.5748 33.0121 32.5748 34.4495Z" fill="#336FB4"/>
</svg>
