<svg data-slug-id="iot-blue-alt" xmlns="http://www.w3.org/2000/svg" viewBox="0 0 48 48">
    <path d="M45.4397 21.3671C44.2285 21.3671 43.2193 22.225 42.9753 23.3604H5.03457C4.79066 22.225 3.78137 21.3671 2.57023 21.3671C1.18246 21.3671 0.0554199 22.4941 0.0554199 23.8819C0.0554199 25.2696 1.18246 26.3967 2.57023 26.3967C3.70567 26.3967 4.6645 25.6481 4.97569 24.6136H43.0258C43.3454 25.6481 44.3042 26.3967 45.4313 26.3967C46.819 26.3967 47.9461 25.2696 47.9461 23.8819C47.9629 22.4941 46.8274 21.3671 45.4397 21.3671Z" fill="#0078D4"/>
    <path d="M40.3503 5.04272C38.9625 5.04272 37.8355 6.16976 37.8355 7.55753C37.8355 8.04535 37.97 8.49112 38.2055 8.87801L23.5288 23.5547L24.4203 24.4463L39.1139 9.75273C39.4755 9.963 39.9045 10.0807 40.3503 10.0807C41.738 10.0807 42.8651 8.95371 42.8651 7.56594C42.8735 6.16976 41.738 5.04272 40.3503 5.04272Z" fill="#50E6FF"/>
    <path d="M22.7887 24.2928L8.91943 38.1621C8.54095 37.935 8.09518 37.8004 7.62418 37.8004C6.23641 37.8004 5.10938 38.9274 5.10938 40.3152C5.10938 41.703 6.23641 42.83 7.62418 42.83C9.01195 42.83 10.139 41.703 10.139 40.3152C10.139 39.861 10.0128 39.4321 9.80256 39.062L23.6803 25.1843L22.7887 24.2928Z" fill="#50E6FF"/>
    <path d="M40.3754 37.853C39.9212 37.853 39.5007 37.9707 39.139 38.181L9.7856 8.82755C10.0043 8.45748 10.1304 8.02012 10.1304 7.55753C10.1304 6.16976 9.00341 5.04272 7.61564 5.04272C6.22787 5.04272 5.10083 6.16976 5.10083 7.55753C5.10083 8.9453 6.22787 10.0723 7.61564 10.0723C8.08664 10.0723 8.52399 9.94618 8.90248 9.71909L38.2391 39.0557C38.0036 39.4426 37.869 39.8884 37.869 40.3762C37.869 41.7639 38.996 42.891 40.3838 42.891C41.7716 42.891 42.8986 41.7639 42.8986 40.3762C42.8902 38.9884 41.7632 37.853 40.3754 37.853Z" fill="#50E6FF"/>
    <path d="M24.6726 42.9781V5.02046C25.7491 4.73449 26.5397 3.75044 26.5397 2.58976C26.5397 1.20199 25.4127 0.0749512 24.0249 0.0749512C22.6372 0.0749512 21.5101 1.20199 21.5101 2.58976C21.5101 3.76726 22.326 4.75972 23.4194 5.03728V42.9696C22.326 43.2388 21.5101 44.2313 21.5101 45.4172C21.5101 46.8049 22.6372 47.932 24.0249 47.932C25.4127 47.932 26.5397 46.8049 26.5397 45.4172C26.5397 44.2481 25.7491 43.264 24.6726 42.9781Z" fill="#0078D4"/>
    <path d="M29.0211 23.8659C29.0211 26.6499 26.767 28.9039 23.9831 28.9039C21.1991 28.9039 18.9451 26.6499 18.9451 23.8659C18.9451 21.082 21.1991 18.8279 23.9831 18.8279C26.767 18.8279 29.0211 21.082 29.0211 23.8659Z" fill="#50E6FF"/>
</svg>
