<svg data-slug-id="iot-central-alt-2" viewBox="0 0 36 36" xmlns="http://www.w3.org/2000/svg">
    <path d="M17.9998 0L2.2998 8.98V14.98L8.3998 18.68V15.08L5.1998 13.24V10.76L17.9998 3.36L30.7998 10.78V25.14L17.9998 32.54L2.2998 23.56V26.92L17.9998 36L33.6998 27.02V9.02L17.9998 0Z" fill="#A3A3A3"/>
    <path d="M17.9998 0L2.2998 8.98L5.1998 10.76L17.9998 3.36L30.7998 10.76L33.6998 8.98L17.9998 0Z" fill="#949494"/>
    <path d="M26.5 13.08V22.92L18 27.86V18.02L26.5 13.08Z" fill="#32BEDD"/>
    <path d="M26.5 13.0798L18 18.0198L9.5 13.0798L18 8.13983L26.5 13.0798Z" fill="#9CEBFF"/>
    <path d="M18 18.02V27.86L9.5 22.92V13.08L18 18.02Z" fill="#50E6FF"/>
    <path d="M9.5 22.9198L18 18.0198V27.8598L9.5 22.9198Z" fill="#9CEBFF"/>
    <path d="M26.5 22.9198L18 18.0198V27.8598L26.5 22.9198Z" fill="#50E6FF"/>
</svg>
