<svg data-slug-id="ip-to-location" xmlns="http://www.w3.org/2000/svg" viewBox="0 0 49 49">
    <path d="M45.8009 24.1133C45.8009 29.8723 43.5142 35.3954 39.4439 39.4677C35.3735 43.5399 29.8529 45.8276 24.0965 45.8276C12.1096 45.8276 2.39209 36.1057 2.39209 24.1133C2.39209 18.3543 4.6788 12.8312 8.74917 8.75901C12.8195 4.6868 18.3401 2.39905 24.0965 2.39905C36.0835 2.39905 45.8009 12.121 45.8009 24.1133Z" fill="#0078D4"/>
    <path d="M38.7101 12.0204C38.0673 12.4364 37.4365 12.8697 36.8176 13.3202C37.9115 14.6342 38.4748 16.31 38.3969 18.0183C38.3191 19.7266 37.6056 21.3441 36.3967 22.553C35.1878 23.762 33.5708 24.4752 31.8632 24.5524C30.1556 24.6296 28.4809 24.0654 27.1679 22.9705C26.7186 23.5891 26.2855 24.22 25.8687 24.863C27.6253 26.2604 29.8344 26.9623 32.075 26.8348C34.3156 26.7074 36.431 25.7596 38.018 24.1721C39.6049 22.5845 40.5526 20.4683 40.6802 18.2267C40.8078 15.9851 40.1066 13.7749 38.7101 12.0173V12.0204Z" fill="#50E6FF"/>
    <path d="M38.71 12.0204C38.0672 12.4364 37.4364 12.8697 36.8175 13.3202C36.2101 12.5818 35.4551 11.9786 34.6009 11.5495C33.7467 11.1203 32.8122 10.8746 31.8574 10.8282C30.9027 10.7818 29.9488 10.9358 29.0571 11.2801C28.1653 11.6244 27.3554 12.1515 26.6794 12.8276C26.0033 13.5037 25.4761 14.3138 25.1316 15.2058C24.7871 16.0978 24.6329 17.0521 24.6789 18.0073C24.7248 18.9625 24.97 19.8975 25.3987 20.7522C25.8273 21.607 26.4299 22.3626 27.1678 22.9705C26.7184 23.5892 26.2854 24.2201 25.8685 24.8631C24.8607 24.0614 24.0336 23.0556 23.4414 21.9118C22.8492 20.7679 22.5053 19.5118 22.4322 18.2257C22.3591 16.9396 22.5585 15.6525 23.0173 14.4489C23.4761 13.2453 24.184 12.1522 25.0945 11.2414C26.0051 10.3306 27.0977 9.62252 28.3008 9.16365C29.504 8.70477 30.7904 8.50544 32.076 8.5787C33.3615 8.65197 34.617 8.99618 35.7603 9.58878C36.9035 10.1814 37.9087 11.009 38.71 12.0174V12.0204Z" fill="#50E6FF"/>
    <path d="M31.5596 19.9991C32.8214 19.9991 33.8443 18.9758 33.8443 17.7134C33.8443 16.451 32.8214 15.4277 31.5596 15.4277C30.2978 15.4277 29.2749 16.451 29.2749 17.7134C29.2749 18.9758 30.2978 19.9991 31.5596 19.9991Z" fill="white"/>
</svg>
