<svg data-slug-id="key-blue" xmlns="http://www.w3.org/2000/svg" viewBox="0 0 48 48">
<path d="M21.8869 21.1271C20.6602 19.0438 19.9545 16.616 19.9545 14.0203C19.9545 6.27511 26.2307 0 33.9772 0C41.7238 0 48 6.27511 48 14.0203C48 21.7655 41.7238 28.0406 33.9772 28.0406C32.0028 28.0406 30.1208 27.629 28.4152 26.8897L22.7019 32.602V32.7532H17.6524L17.6776 37.9531H12.6028V42.9429H7.35165L7.30964 42.9849H7.46928V47.9916H5.06634V48H-1.36676e-06V42.9261L21.8869 21.1271Z" fill="#0078D7"/>
<path d="M39.0857 12.7873C36.993 12.7873 35.2965 11.0911 35.2965 8.99867C35.2965 6.90629 36.993 5.21008 39.0857 5.21008C41.1785 5.21008 42.875 6.90629 42.875 8.99867C42.875 11.0911 41.1785 12.7873 39.0857 12.7873Z" fill="#50E6FF"/>
</svg>
