<svg data-slug-id="kinect-dk" viewBox="0 0 61 61" xmlns="http://www.w3.org/2000/svg">
    <path d="M51.722 18.7087H8.88288C4.27507 18.7087 0.520386 22.4587 0.520386 27.0712V33.9103C0.520386 38.5181 4.27038 42.2728 8.88288 42.2728H51.722C56.3298 42.2728 60.0845 38.5228 60.0845 33.9103V27.0712C60.0845 22.4587 56.3298 18.7087 51.722 18.7087Z" fill="black"/>
    <path d="M12.525 21.4744C7.55625 21.4744 3.51562 25.515 3.51562 30.4837C3.51562 35.4525 7.55625 39.4931 12.525 39.4931C17.4937 39.4931 21.5344 35.4525 21.5344 30.4837C21.5391 25.5197 17.4937 21.4744 12.525 21.4744Z" fill="#0178D4"/>
    <path d="M30.3095 24.2166C26.8548 24.2166 24.0376 27.0291 24.0376 30.4884C24.0376 33.9431 26.8501 36.7556 30.3095 36.7556C33.7689 36.7556 36.5767 33.9431 36.5767 30.4884C36.5814 27.0291 33.7689 24.2166 30.3095 24.2166Z" fill="#0178D4"/>
    <path d="M49.2423 27.2119H46.1298V30.3244H49.2423V27.2119Z" fill="white"/>
    <path d="M49.3361 30.4182H46.036V27.1182H49.3361V30.4182ZM46.2235 30.2307H49.1486V27.3057H46.2235V30.2307Z" fill="black"/>
    <path d="M52.6782 27.2119H49.5657V30.3244H52.6782V27.2119Z" fill="white"/>
    <path d="M52.7719 30.4182H49.4719V27.1182H52.7719V30.4182ZM49.6594 30.2307H52.5844V27.3057H49.6594V30.2307Z" fill="black"/>
    <path d="M49.2423 30.6479H46.1298V33.7604H49.2423V30.6479Z" fill="white"/>
    <path d="M49.3361 33.8588H46.036V30.5588H49.3361V33.8588ZM46.2235 33.6667H49.1486V30.7417H46.2235V33.6667Z" fill="black"/>
    <path d="M52.6782 30.6479H49.5657V33.7604H52.6782V30.6479Z" fill="white"/>
    <path d="M52.7719 33.8588H49.4719V30.5588H52.7719V33.8588ZM49.6594 33.6667H52.5844V30.7417H49.6594V33.6667Z" fill="black"/>
</svg>
