<svg data-slug-id="knowledge-center-alt" viewBox="0 0 48 48" xmlns="http://www.w3.org/2000/svg">
<path fill-rule="evenodd" clip-rule="evenodd" d="M23.0409 35.8801V5.01019C23.0409 4.24336 22.8218 3.53406 22.466 2.91314C22.4209 2.82476 22.3739 2.73731 22.3242 2.6517C22.3215 2.64709 22.3192 2.64249 22.3159 2.63835C21.3968 1.06188 19.6942 0 17.7398 0C15.0614 0 12.8525 1.99165 12.4949 4.57614C12.2532 4.55175 12.0083 4.53932 11.7603 4.53932C7.60666 4.53932 4.23968 7.91136 4.23968 12.0714C4.23968 12.7107 4.32575 13.3289 4.47765 13.9208C1.70444 16.9822 0 21.0331 0 25.4924C0 32.8772 4.64611 39.1485 11.1614 41.6042C11.1757 41.6939 11.1803 41.7823 11.1982 41.8725C11.7731 44.8372 14.1616 47.2242 17.1226 47.7954C18.7635 48.1121 20.334 47.8981 21.6946 47.2951C22.5047 46.9365 23.0414 46.1476 23.0414 45.2597L23.0409 35.8801Z" fill="#0078D4"/>
<path fill-rule="evenodd" clip-rule="evenodd" d="M24.9013 35.8801V5.01019C24.9013 4.24336 25.1204 3.53406 25.4762 2.91314C25.5213 2.82476 25.5683 2.73731 25.618 2.6517C25.6208 2.64709 25.6231 2.64249 25.6263 2.63835C26.5455 1.06188 28.2481 0 30.2024 0C32.8808 0 35.0897 1.99165 35.4474 4.57614C35.689 4.55175 35.9339 4.53932 36.182 4.53932C40.3356 4.53932 43.7026 7.91136 43.7026 12.0714C43.7026 12.7107 43.6165 13.3289 43.4646 13.9208C46.2378 16.9822 47.9422 21.0331 47.9422 25.4924C47.9422 32.8772 43.2961 39.1485 36.7808 41.6042C36.7665 41.6939 36.7619 41.7823 36.744 41.8725C36.1691 44.8372 33.7807 47.2242 30.8197 47.7954C29.1788 48.1121 27.6083 47.8981 26.2477 47.2951C25.4376 46.9365 24.9009 46.1476 24.9009 45.2597L24.9013 35.8801Z" fill="#0078D4"/>
</svg>
