<svg data-slug-id="knowledge-mining" viewBox="0 0 48 48" xmlns="http://www.w3.org/2000/svg">
  <g clip-path="url(#knowledge-mining:97e9dfc8-2fc9-46ba-93f3-d7334ddbcce3)">
    <rect width="48" height="48" fill="white"/>
    <path d="M48.1892 42.9028V39.0171H44.3035V42.9028H48.1892Z" fill="#50E6FF"/>
    <path d="M39.5936 46.0445C39.5936 44.9778 40.4571 44.0889 41.5492 44.0889C42.6159 44.0889 43.5047 44.9524 43.5047 46.0445C43.5047 47.1111 42.6413 48 41.5492 48C40.4825 48 39.5936 47.1365 39.5936 46.0445Z" fill="#50E6FF"/>
    <path d="M38.5308 42.885V38.9993H34.645V42.885H38.5308Z" fill="#50E6FF"/>
    <path d="M33.8271 47.9985V44.1128H29.9414V47.9985H33.8271Z" fill="#50E6FF"/>
    <path d="M28.7767 42.8867V39.001H24.891V42.8867H28.7767Z" fill="#50E6FF"/>
    <path d="M20.1905 46.0445C20.1905 44.9778 21.054 44.0889 22.146 44.0889C23.2127 44.0889 24.1016 44.9524 24.1016 46.0445C24.1016 47.1111 23.2381 48 22.146 48C21.054 48 20.1905 47.1365 20.1905 46.0445Z" fill="#50E6FF"/>
    <path d="M10.0605 4.01566V0.129944L6.17483 0.129944L6.17483 4.01566L10.0605 4.01566Z" fill="#0078D4"/>
    <path d="M0 7.0349C0 5.96823 0.863492 5.07935 1.95556 5.07935C3.02222 5.07935 3.91111 5.94284 3.91111 7.0349C3.91111 8.10157 3.04762 8.99046 1.95556 8.99046C0.863492 8.99046 0 8.10157 0 7.0349Z" fill="#0078D4"/>
    <path d="M10.0733 13.8316V9.94586H6.18762L6.18762 13.8316H10.0733Z" fill="#0078D4"/>
    <path d="M3.89212 18.7967L3.89212 14.911H0.00640655L0.00640655 18.7967H3.89212Z" fill="#0078D4"/>
    <path d="M10.0808 23.4898V19.6041H6.19513L6.19513 23.4898H10.0808Z" fill="#0078D4"/>
    <path d="M0 26.5143C0 25.4476 0.863492 24.5587 1.95556 24.5587C3.02222 24.5587 3.91111 25.4222 3.91111 26.5143C3.91111 27.5809 3.04762 28.4698 1.95556 28.4698C0.863492 28.4698 0 27.5809 0 26.5143Z" fill="#0078D4"/>
    <path d="M10.0729 33.2597V29.374H6.18719L6.18719 33.2597H10.0729Z" fill="#0078D4"/>
    <path d="M3.89163 38.2249L3.89163 34.3392H0.00591636L0.00591636 38.2249H3.89163Z" fill="#0078D4"/>
    <path d="M10.0669 42.8791V38.9933H6.18115L6.18115 42.8791H10.0669Z" fill="#50E6FF"/>
    <path d="M0 46.0445C0 44.9778 0.863492 44.0889 1.95556 44.0889C3.02222 44.0889 3.91111 44.9524 3.91111 46.0445C3.91111 47.1111 3.04762 48 1.95556 48C0.863492 48 0 47.1365 0 46.0445Z" fill="#0078D4"/>
    <path d="M19.4858 42.8824V38.9966H15.6001V42.8824H19.4858Z" fill="#50E6FF"/>
    <path d="M14.8737 48.0059V44.1202H10.9879V48.0059H14.8737Z" fill="#50E6FF"/>
    <path d="M12.7553 29.0183L12.7553 35.4183L19.1553 35.4183L19.1553 29.0183L12.7553 29.0183Z" fill="#50E6FF"/>
    <path d="M12.7492 21.8667V22.0953C12.7492 23.7715 14.1206 25.1429 15.7968 25.1429H16.0254C17.7016 25.1429 19.073 23.7715 19.073 22.0953V21.8667C19.073 20.1905 17.7016 18.8191 16.0254 18.8191H15.7968C14.1206 18.8191 12.7492 20.1905 12.7492 21.8667Z" fill="#0078D4"/>
    <path d="M12.7647 9.41087L12.7647 15.7347L19.0885 15.7347L19.0885 9.41087L12.7647 9.41087Z" fill="#0078D4"/>
    <path d="M12.7492 3.04762V3.27619C12.7492 4.95238 14.1206 6.32381 15.7968 6.32381H16.0254C17.7016 6.32381 19.073 4.95238 19.073 3.27619V3.04762C19.073 1.37143 17.7016 0 16.0254 0H15.7968C14.1206 0 12.7492 1.37143 12.7492 3.04762Z" fill="#0078D4"/>
    <path d="M22.4254 32.0508V32.3556C22.4254 34.0317 23.7968 35.4032 25.473 35.4032H25.7778C27.454 35.4032 28.8254 34.0317 28.8254 32.3556V32.0508C28.8254 30.3746 27.454 29.0032 25.7778 29.0032H25.473C23.7968 29.0032 22.4254 30.3746 22.4254 32.0508Z" fill="#50E6FF"/>
    <path d="M32.0952 29.0057L32.0952 35.4057L38.4952 35.4057L38.4952 29.0057L32.0952 29.0057Z" fill="#50E6FF"/>
    <path d="M41.7778 32.0508V32.3556C41.7778 34.0317 43.1492 35.4032 44.8254 35.4032H45.1302C46.8063 35.4032 48.1778 34.0317 48.1778 32.3556V32.0508C48.1778 30.3746 46.8063 29.0032 45.1302 29.0032H44.8254C43.1238 29.0032 41.7778 30.3746 41.7778 32.0508Z" fill="#50E6FF"/>
    <path d="M35.5556 17.3206C32.8381 17.3206 30.6286 15.1111 30.6286 12.3937C30.6286 9.6762 32.8381 7.46667 35.5556 7.46667C38.273 7.46667 40.4826 9.6762 40.4826 12.3937C40.508 15.1111 38.2984 17.3206 35.5556 17.3206Z" fill="#50E6FF"/>
    <path d="M45.0286 10.3111V3.25079H38.1207V0H48.2794V10.3111H45.0286Z" fill="#0078D4"/>
    <path d="M22.8571 10.3111V0H33.1937V3.25079H26.1079V10.3111H22.8571Z" fill="#0078D4"/>
    <path d="M38.1207 24.7619V21.5111H45.0286V14.5778H48.2794V24.7619H38.1207Z" fill="#0078D4"/>
    <path d="M22.8571 24.7619V14.5778H26.1079V21.5111H33.1937V24.7619H22.8571Z" fill="#0078D4"/>
  </g>
  <defs>
    <clipPath id="knowledge-mining:97e9dfc8-2fc9-46ba-93f3-d7334ddbcce3">
      <rect width="48" height="48" fill="white"/>
    </clipPath>
  </defs>
</svg>
