<svg data-slug-id="labs-alt" xmlns="http://www.w3.org/2000/svg" viewBox="0 0 72 72">
    <path d="M22.739 0.0644531H3.76894V3.79262H5.69124V64.6565C5.69124 68.4225 9.06792 71.9864 13.2413 71.9864C17.4148 71.9864 20.7915 68.4225 20.7915 64.6565V3.79262H22.739V0.0644531Z" fill="#0078D4"/>
    <path d="M18.9324 7.52917H7.49979V63.4643C7.49979 66.6237 10.0544 69.1766 13.2161 69.1766C16.3778 69.1766 18.9324 66.6237 18.9324 63.4643V7.52917Z" fill="#50E6FF"/>
    <path d="M45.4905 18.9779H26.5078V22.7187H28.4427V64.6511C28.4427 68.4172 31.8194 71.981 35.9928 71.981C40.1663 71.981 43.5429 68.4172 43.5429 64.6511V22.7187H45.4905V18.9779Z" fill="#0078D4"/>
    <path d="M41.6837 30.1456H30.251V63.4843C30.251 66.6437 32.8057 69.1966 35.9674 69.1966C39.129 69.1966 41.6837 66.6437 41.6837 63.4843V30.1456Z" fill="#50E6FF"/>
    <path d="M68.1532 7.62292H49.1704V11.3637H51.2951V64.6702C51.2951 68.4362 54.6717 72.0001 58.8452 72.0001C63.0186 72.0001 66.3953 68.4362 66.3953 64.6702V11.3511H68.1405V7.62292H68.1532Z" fill="#0078D4"/>
    <path d="M64.5361 18.9076H53.1034V63.4813C53.1034 66.6407 55.6581 69.1936 58.8197 69.1936C61.9814 69.1936 64.5361 66.6407 64.5361 63.4813V18.9076Z" fill="#50E6FF"/>
</svg>
