<svg data-slug-id="lever" viewBox="0 0 49 49" xmlns="http://www.w3.org/2000/svg">
    <path d="M40.3045 3.83794L22.3606 30.3711L25.2774 32.3452L43.2213 5.81201L40.3045 3.83794Z" fill="#50E6FF"/>
    <path d="M40.1836 11.7987C42.8103 11.7987 44.9375 9.67152 44.9375 7.04479C44.9375 4.41806 42.8103 2.29089 40.1836 2.29089C37.5569 2.29089 35.4297 4.41806 35.4297 7.04479C35.4297 9.67152 37.5569 11.7987 40.1836 11.7987Z" fill="#1F1D21"/>
    <path d="M24.0366 25.7945C27.9525 25.7945 31.1191 28.9208 31.2077 32.7884H35.736C35.6071 26.4069 30.41 21.3065 24.0366 21.3065C17.6551 21.3065 12.4661 26.4069 12.3372 32.7481H16.8654C16.9541 28.8724 20.1207 25.7945 24.0366 25.7945Z" fill="#1F1D21"/>
    <path d="M24.0364 25.7945C20.1204 25.7945 16.9539 28.9208 16.8652 32.7884H18.799C18.9279 29.9763 21.2163 27.7283 24.0364 27.7283C26.8484 27.7283 29.1851 29.9683 29.2737 32.7884H31.2075C31.0705 28.8724 27.9039 25.7945 24.0364 25.7945Z" fill="#E7E8EA"/>
    <path d="M24.0364 27.7283C21.2244 27.7283 18.8877 29.9683 18.7991 32.7884H29.314C29.1851 29.9763 26.8485 27.7283 24.0364 27.7283Z" fill="#1F1D21"/>
    <path d="M40.3045 3.83794L22.3606 30.3711L25.2774 32.3452L43.2213 5.81201L40.3045 3.83794Z" fill="#0078D4"/>
    <path d="M40.1836 11.7987C42.8103 11.7987 44.9375 9.67152 44.9375 7.04479C44.9375 4.41806 42.8103 2.29089 40.1836 2.29089C37.5569 2.29089 35.4297 4.41806 35.4297 7.04479C35.4297 9.67152 37.5569 11.7987 40.1836 11.7987Z" fill="#0078D4"/>
    <path d="M24.0366 25.7945C27.9525 25.7945 31.1191 28.9208 31.2077 32.7884H35.736C35.6071 26.4069 30.41 21.3065 24.0366 21.3065C17.6551 21.3065 12.4661 26.4069 12.3372 32.7481H16.8654C16.9541 28.8724 20.1207 25.7945 24.0366 25.7945Z" fill="#50E6FF"/>
    <path d="M24.0364 25.7945C20.1204 25.7945 16.9539 28.9208 16.8652 32.7884H18.799C18.9279 29.9763 21.2163 27.7283 24.0364 27.7283C26.8484 27.7283 29.1851 29.9683 29.2737 32.7884H31.2075C31.0705 28.8724 27.9039 25.7945 24.0364 25.7945Z" fill="#0078D4"/>
    <path d="M24.0364 27.7283C21.2244 27.7283 18.8877 29.9683 18.7991 32.7884H29.314C29.1851 29.9763 26.8485 27.7283 24.0364 27.7283Z" fill="#3BCAF4"/>
    <path d="M47.4111 34.6174V32.0632H1.54004V34.6174H47.4111Z" fill="#0078D4"/>
    <path d="M47.3547 36.9944H1.41113V46.6714H47.3547V36.9944Z" fill="#0078D4"/>
    <path d="M22.6265 41.9578C22.6265 41.1923 22.006 40.5719 21.2406 40.5719H4.69863C3.93317 40.5719 3.31274 41.1923 3.31274 41.9578C3.31274 42.7232 3.93317 43.3436 4.69863 43.3436H21.2406C22.006 43.3436 22.6265 42.7232 22.6265 41.9578Z" fill="white"/>
    <path d="M14.2949 41.9577C14.2949 43.4806 15.5277 44.7134 17.0506 44.7134C18.5734 44.7134 19.8062 43.4806 19.8062 41.9577C19.8062 40.4349 18.5734 39.2021 17.0506 39.2021C15.5277 39.194 14.2949 40.4349 14.2949 41.9577Z" fill="#50E6FF"/>
    <path d="M40.0305 41.7724C39.9258 43.4403 41.2956 44.8101 42.9635 44.7053C44.3332 44.6167 45.4532 43.5048 45.5338 42.135C45.6385 40.4671 44.2688 39.0974 42.6009 39.2021C41.2392 39.2907 40.1192 40.4027 40.0305 41.7724Z" fill="#50E6FF"/>
    <path d="M30.2005 41.7724C30.0957 43.4403 31.4655 44.8101 33.1334 44.7053C34.5031 44.6167 35.6231 43.5048 35.7037 42.135C35.8084 40.4671 34.4387 39.0974 32.7708 39.2021C31.4091 39.2907 30.2891 40.4027 30.2005 41.7724Z" fill="#50E6FF"/>
</svg>
