<svg data-slug-id="lightbulb" xmlns="http://www.w3.org/2000/svg" viewBox="0 0 48 48">
  <path d="M24.0003 34.5006C33.5274 34.5006 41.2506 26.7774 41.2506 17.2503C41.2506 7.72322 33.5274 0 24.0003 0C14.4732 0 6.75 7.72322 6.75 17.2503C6.75 26.7774 14.4732 34.5006 24.0003 34.5006Z" fill="#0078D4"/>
  <path d="M29.2502 43.5007H18.75C17.5074 43.5007 16.5 44.5081 16.5 45.7508C16.5 46.9934 17.5074 48.0008 18.75 48.0008H29.2502C30.4929 48.0008 31.5002 46.9934 31.5002 45.7508C31.5002 44.5081 30.4929 43.5007 29.2502 43.5007Z" fill="#50E6FF"/>
  <path d="M29.2502 37.5006H18.75C17.5074 37.5006 16.5 38.508 16.5 39.7506C16.5 40.9933 17.5074 42.0007 18.75 42.0007H29.2502C30.4929 42.0007 31.5002 40.9933 31.5002 39.7506C31.5002 38.508 30.4929 37.5006 29.2502 37.5006Z" fill="#50E6FF"/>
  <path d="M28.5002 30.0005H19.5C17.8432 30.0005 16.5 31.3437 16.5 33.0005C16.5 34.6574 17.8432 36.0006 19.5 36.0006H28.5002C30.1571 36.0006 31.5002 34.6574 31.5002 33.0005C31.5002 31.3437 30.1571 30.0005 28.5002 30.0005Z" fill="#0078D4"/>
</svg>