<svg data-slug-id="light-diamond" xmlns="http://www.w3.org/2000/svg" viewBox="0 0 48 48">
<path d="M2.52651 5.05247C1.12861 5.05247 0.000179529 3.92409 0.000179529 2.52624C0.000179529 1.12839 1.12861 0 2.52651 0C3.92442 0 5.05285 1.12839 5.05285 2.52624C5.05285 3.91567 3.916 5.05247 2.52651 5.05247Z" fill="#0078D4"/>
<path d="M12.2111 0H7.15839V5.05247H12.2111V0Z" fill="#0078D4"/>
<path d="M19.3532 0H14.3005V5.05247H19.3532V0Z" fill="#0078D4"/>
<path d="M26.5274 0H21.4747V5.05247H26.5274V0Z" fill="#0078D4"/>
<path d="M33.6836 0H28.6309V5.05247H33.6836V0Z" fill="#0078D4"/>
<path d="M38.3154 5.05247C36.9175 5.05247 35.7891 3.92409 35.7891 2.52624C35.7891 1.12839 36.9175 0 38.3154 0C39.7133 0 40.8417 1.12839 40.8417 2.52624C40.8417 3.91567 39.7049 5.05247 38.3154 5.05247Z" fill="#0078D4"/>
<path d="M45.4738 5.05247C44.0759 5.05247 42.9474 3.92409 42.9474 2.52624C42.9474 1.12839 44.0759 0 45.4738 0C46.8717 0 48.0001 1.12839 48.0001 2.52624C48.0001 3.91567 46.8633 5.05247 45.4738 5.05247Z" fill="#0078D4"/>
<path d="M5.05267 7.15979H0V12.2123H5.05267V7.15979Z" fill="#0078D4"/>
<path d="M12.2111 7.15979H7.15845V12.2123H12.2111V7.15979Z" fill="#0078D4"/>
<path d="M19.3532 7.15979H14.3005V12.2123H19.3532V7.15979Z" fill="#0078D4"/>
<path d="M26.5273 7.15979H21.4746V12.2123H26.5273V7.15979Z" fill="#50E6FF"/>
<path d="M33.6835 7.15979H28.6309V12.2123H33.6835V7.15979Z" fill="#0078D4"/>
<path d="M38.3154 12.2123C36.9175 12.2123 35.7891 11.0839 35.7891 9.68603C35.7891 8.28818 36.9175 7.15979 38.3154 7.15979C39.7133 7.15979 40.8417 8.28818 40.8417 9.68603C40.8417 11.0755 39.7049 12.2123 38.3154 12.2123Z" fill="#0078D4"/>
<path d="M48.0002 7.15979H42.9475V12.2123H48.0002V7.15979Z" fill="#0078D4"/>
<path d="M5.05267 14.3157H0V19.3682H5.05267V14.3157Z" fill="#0078D4"/>
<path d="M12.2111 14.3157H7.15845V19.3682H12.2111V14.3157Z" fill="#0078D4"/>
<path d="M19.3532 14.3157H14.3005V19.3682H19.3532V14.3157Z" fill="#50E6FF"/>
<path d="M26.5273 14.3157H21.4746V19.3682H26.5273V14.3157Z" fill="#50E6FF"/>
<path d="M33.6835 14.3157H28.6309V19.3682H33.6835V14.3157Z" fill="#50E6FF"/>
<path d="M40.8417 14.3157H35.7891V19.3682H40.8417V14.3157Z" fill="#0078D4"/>
<path d="M48.0002 14.3157H42.9475V19.3682H48.0002V14.3157Z" fill="#0078D4"/>
<path d="M5.05267 21.4719H0V26.5244H5.05267V21.4719Z" fill="#0078D4"/>
<path d="M12.2111 21.4719H7.15845V26.5244H12.2111V21.4719Z" fill="#50E6FF"/>
<path d="M19.3532 21.4719H14.3005V26.5244H19.3532V21.4719Z" fill="#50E6FF"/>
<path d="M24.0009 26.5244C22.603 26.5244 21.4746 25.396 21.4746 23.9982C21.4746 22.6003 22.603 21.4719 24.0009 21.4719C25.3988 21.4719 26.5273 22.6003 26.5273 23.9982C26.5273 25.3876 25.3904 26.5244 24.0009 26.5244Z" fill="#50E6FF"/>
<path d="M33.6835 21.4719H28.6309V26.5244H33.6835V21.4719Z" fill="#50E6FF"/>
<path d="M40.8417 21.4719H35.7891V26.5244H40.8417V21.4719Z" fill="#50E6FF"/>
<path d="M48.0002 21.4719H42.9475V26.5244H48.0002V21.4719Z" fill="#0078D4"/>
<path d="M5.05267 28.6278H0V33.6803H5.05267V28.6278Z" fill="#0078D4"/>
<path d="M12.2111 28.6278H7.15845V33.6803H12.2111V28.6278Z" fill="#0078D4"/>
<path d="M16.8269 33.6803C15.429 33.6803 14.3005 32.5519 14.3005 31.1541C14.3005 29.7562 15.429 28.6278 16.8269 28.6278C18.2248 28.6278 19.3532 29.7562 19.3532 31.1541C19.3532 32.5435 18.2164 33.6803 16.8269 33.6803Z" fill="#50E6FF"/>
<path d="M26.5273 28.6278H21.4746V33.6803H26.5273V28.6278Z" fill="#50E6FF"/>
<path d="M33.6835 28.6278H28.6309V33.6803H33.6835V28.6278Z" fill="#50E6FF"/>
<path d="M38.3154 33.6803C36.9175 33.6803 35.7891 32.5519 35.7891 31.1541C35.7891 29.7562 36.9175 28.6278 38.3154 28.6278C39.7133 28.6278 40.8417 29.7562 40.8417 31.1541C40.8417 32.5435 39.7049 33.6803 38.3154 33.6803Z" fill="#0078D4"/>
<path d="M48.0002 28.6278H42.9475V33.6803H48.0002V28.6278Z" fill="#0078D4"/>
<path d="M5.05267 35.7877H0V40.8401H5.05267V35.7877Z" fill="#0078D4"/>
<path d="M12.2111 35.7877H7.15845V40.8401H12.2111V35.7877Z" fill="#0078D4"/>
<path d="M19.3532 35.7877H14.3005V40.8401H19.3532V35.7877Z" fill="#0078D4"/>
<path d="M24.0009 40.8401C22.603 40.8401 21.4746 39.7117 21.4746 38.3139C21.4746 36.916 22.603 35.7877 24.0009 35.7877C25.3988 35.7877 26.5273 36.916 26.5273 38.3139C26.5273 39.7033 25.3904 40.8401 24.0009 40.8401Z" fill="#50E6FF"/>
<path d="M33.6835 35.7877H28.6309V40.8401H33.6835V35.7877Z" fill="#0078D4"/>
<path d="M40.8417 35.7877H35.7891V40.8401H40.8417V35.7877Z" fill="#0078D4"/>
<path d="M48.0002 35.7877H42.9475V40.8401H48.0002V35.7877Z" fill="#0078D4"/>
<path d="M5.05267 42.9474H0V47.9999H5.05267V42.9474Z" fill="#0078D4"/>
<path d="M12.2111 42.9474H7.15845V47.9999H12.2111V42.9474Z" fill="#0078D4"/>
<path d="M19.3532 42.9474H14.3005V47.9999H19.3532V42.9474Z" fill="#0078D4"/>
<path d="M26.5273 42.9474H21.4746V47.9999H26.5273V42.9474Z" fill="#0078D4"/>
<path d="M33.6835 42.9474H28.6309V47.9999H33.6835V42.9474Z" fill="#0078D4"/>
<path d="M38.3154 47.9999C36.9175 47.9999 35.7891 46.8715 35.7891 45.4737C35.7891 44.0758 36.9175 42.9474 38.3154 42.9474C39.7133 42.9474 40.8417 44.0758 40.8417 45.4737C40.8417 46.8631 39.7049 47.9999 38.3154 47.9999Z" fill="#0078D4"/>
<path d="M48.0002 42.9474H42.9475V47.9999H48.0002V42.9474Z" fill="#0078D4"/>
</svg>
