<svg data-slug-id="lightning-circle-blue" xmlns="http://www.w3.org/2000/svg" viewBox="0 0 48 48">
<path d="M24 0C19.2533 0 14.6131 1.40758 10.6663 4.04473C6.71954 6.68188 3.6434 10.4302 1.8269 14.8156C0.0103987 19.201 -0.464881 24.0266 0.461164 28.6822C1.38721 33.3377 3.67299 37.6141 7.02945 40.9706C10.3859 44.327 14.6623 46.6128 19.3178 47.5388C23.9734 48.4649 28.799 47.9896 33.1844 46.1731C37.5698 44.3566 41.3181 41.2805 43.9553 37.3337C46.5924 33.3869 48 28.7467 48 24C48 17.6348 45.4714 11.5303 40.9706 7.02944C36.4697 2.52856 30.3652 0 24 0V0ZM24 43.5375C20.1446 43.5316 16.3774 42.3829 13.1746 40.2366C9.97177 38.0903 7.47707 35.0427 6.00576 31.4791C4.53445 27.9154 4.15257 23.9955 4.90836 20.2149C5.66416 16.4342 7.52371 12.9625 10.252 10.2383C12.9803 7.51422 16.455 5.66 20.2368 4.91002C24.0186 4.16004 27.9378 4.54795 31.4992 6.02474C35.0607 7.50152 38.1044 10.0009 40.2457 13.207C42.3871 16.4131 43.53 20.182 43.53 24.0375C43.5275 26.5992 43.0203 29.1354 42.0374 31.501C41.0545 33.8666 39.615 36.0154 37.8014 37.8246C35.9877 39.6337 33.8353 41.0678 31.4672 42.0448C29.0991 43.0218 26.5617 43.5227 24 43.5187V43.5375Z" fill="#0078D4"/>
<path d="M15.3794 26.2275L21.7281 26.2425L35.2319 12.75L28.8794 12.7275L15.3794 26.2275Z" fill="#50E6FF"/>
<path d="M12.75 35.2163L19.0987 35.2351L32.6025 21.7426L26.25 21.7163L12.75 35.2163Z" fill="#50E6FF"/>
</svg>
