<svg data-slug-id="lightning-circle-arrows" xmlns="http://www.w3.org/2000/svg" viewBox="0 0 48 48">
<rect x="13.1973" y="14.7556" width="19.2601" height="18.9521" fill="#50E6FF"/>
<path d="M24.0781 0.465881C10.8665 0.465881 0.15625 11.1069 0.15625 24.233C0.15625 37.3591 10.8665 48.0001 24.0781 48.0001C37.2897 48.0001 48 37.3591 48 24.233C48 11.1069 37.2897 0.465881 24.0781 0.465881ZM25.3884 16.2064V24.243H17.2793L25.3884 16.2064ZM21.5407 32.2904V24.2538H29.6515L21.5407 32.2904Z" fill="#0078D4"/>
<path d="M24.0781 10.503C24.5011 10.503 24.9208 10.5216 25.3371 10.5589V14.4625L32.4591 7.38659L25.3371 0.310669V5.5411C24.9208 5.5133 24.5011 5.4994 24.0781 5.4994C13.6482 5.4994 5.1924 13.9004 5.1924 24.2629C5.18897 26.7238 5.67447 29.1611 6.62108 31.4352C7.56769 33.7092 8.95677 35.7753 10.7087 37.5149L14.2693 33.9774C12.3367 32.0513 11.022 29.5994 10.4911 26.9314C9.96023 24.2634 10.2371 21.4989 11.2866 18.9871C12.3362 16.4753 14.1114 14.3288 16.3881 12.8188C18.6647 11.3088 21.3407 10.5029 24.0781 10.503Z" fill="#50E6FF"/>
<path d="M37.4174 10.9795L33.856 14.5179L33.8719 14.5329C35.8087 16.4572 37.1277 18.909 37.662 21.5781C38.1964 24.2472 37.9221 27.0138 36.8739 29.528C35.8257 32.0422 34.0506 34.1912 31.7732 35.7032C29.4957 37.2151 26.8181 38.0222 24.079 38.0223V33.6441L16.957 40.72L24.079 47.7968V43.0259C34.509 43.0259 42.9647 34.6257 42.9647 24.2624C42.968 21.7942 42.4795 19.3498 41.5274 17.07C40.5753 14.7903 39.1785 12.7203 37.4174 10.9795Z" fill="#50E6FF"/>
</svg>
