<svg data-slug-id="lightning-circle-arrows-alt" xmlns="http://www.w3.org/2000/svg" viewBox="0 0 48 48">
    <rect x="13.1973" y="14.7559" width="19.2601" height="18.9521" fill="white"/>
    <rect x="13.1973" y="14.7559" width="19.2601" height="18.9521" fill="white"/>
    <path d="M24.0781 0.46582C10.8665 0.46582 0.15625 11.1068 0.15625 24.2329C0.15625 37.359 10.8665 48 24.0781 48C37.2897 48 48 37.359 48 24.2329C48 11.1068 37.2897 0.46582 24.0781 0.46582ZM25.3884 16.2063V24.2429H17.2793L25.3884 16.2063ZM21.5407 32.2904V24.2538H29.6515L21.5407 32.2904Z" fill="#50E6FF"/>
    <path d="M24.0771 10.5029C24.5002 10.5029 24.9198 10.5215 25.3362 10.5587V14.4624L32.4582 7.38647L25.3362 0.310547V5.54097C24.9198 5.51318 24.5002 5.49928 24.0771 5.49928C13.6472 5.49928 5.19142 13.9003 5.19142 24.2628C5.18799 26.7236 5.6735 29.161 6.6201 31.4351C7.56671 33.7091 8.9558 35.7752 10.7077 37.5148L14.2683 33.9773C12.3357 32.0512 11.021 29.5993 10.4901 26.9313C9.95926 24.2632 10.2361 21.4988 11.2856 18.987C12.3352 16.4752 14.1104 14.3287 16.3871 12.8187C18.6638 11.3086 21.3398 10.5028 24.0771 10.5029V10.5029Z" fill="#0078D4"/>
    <path d="M37.4174 10.9795L33.856 14.5179L33.8719 14.5329C35.8087 16.4572 37.1277 18.909 37.662 21.5781C38.1964 24.2472 37.9221 27.0138 36.8739 29.528C35.8257 32.0422 34.0506 34.1912 31.7732 35.7032C29.4957 37.2151 26.8181 38.0222 24.079 38.0223V33.6441L16.957 40.72L24.079 47.7968V43.0259C34.509 43.0259 42.9647 34.6257 42.9647 24.2624C42.968 21.7942 42.4795 19.3498 41.5274 17.07C40.5753 14.7903 39.1785 12.7203 37.4174 10.9795V10.9795Z" fill="#0078D4"/>
</svg>
