<svg data-slug-id="linux-and-windows" xmlns="http://www.w3.org/2000/svg" viewBox="0 0 48 48">
    <path d="M33.3678 23.1189C38.2379 22.3756 43.1172 21.6755 47.9966 21C47.9997 25.2656 47.9966 29.528 47.9997 33.7936C43.1234 33.8121 38.2472 33.8861 33.3678 33.9015C33.3647 30.3053 33.3647 26.7121 33.3678 23.1189Z" fill="#50E6FF"/>
    <path d="M21 24.8399C24.6673 24.2755 28.35 23.7882 32.0327 23.3286C32.0358 26.8663 32.0358 30.4009 32.0389 33.9386C28.3592 33.9355 24.6796 33.991 21 33.9817V24.8399Z" fill="#50E6FF"/>
    <path d="M21 35.0949C24.6765 35.0826 28.3531 35.1412 32.0296 35.135C32.0296 38.682 32.0389 42.2289 32.0327 45.7758C28.3592 45.233 24.6796 44.758 21 44.2614V35.0949Z" fill="#50E6FF"/>
    <path d="M33.3467 35.2372C38.2322 35.2372 43.1147 35.2372 47.9971 35.2372C48.0033 39.4904 47.9971 43.7437 47.9971 48C43.127 47.2721 38.2477 46.5966 33.3683 45.9366C33.3621 42.3712 33.3529 38.8057 33.3467 35.2372Z" fill="#50E6FF"/>
    <path d="M18.8559 31C18.7394 30.9737 18.6219 30.9497 18.5061 30.9212C17.9017 30.7719 17.5281 30.3487 17.2429 29.8315C17.1747 29.7075 17.0942 29.6509 16.9597 29.6221C15.5144 29.3149 14.0561 29.19 12.5849 29.3519C11.7709 29.4415 10.9622 29.5803 10.1519 29.7024C10.1001 29.7103 10.0363 29.7537 10.0098 29.7989C9.54842 30.5843 8.82593 30.9143 7.9288 30.7675C7.1141 30.634 6.34803 30.3449 5.57753 30.0665C4.81683 29.7919 4.05928 29.5054 3.25752 29.369C2.65186 29.2659 2.0402 29.1903 1.44054 29.0606C1.11656 28.9907 0.795097 28.8642 0.501741 28.7082C0.0163926 28.4501 -0.0922345 28.1081 0.0707062 27.5811C0.202701 27.1544 0.337537 26.7283 0.449006 26.2959C0.532056 25.9739 0.486584 25.65 0.404166 25.3276C0.327748 25.0287 0.251015 24.7247 0.227331 24.4188C0.194175 23.9886 0.413955 23.6736 0.80615 23.5132C1.06635 23.4069 1.34802 23.3519 1.62243 23.2832C2.0522 23.1757 2.47408 23.0507 2.85017 22.8062C3.14005 22.618 3.35605 22.3646 3.50414 22.053C3.67466 21.6946 3.89697 21.3811 4.26232 21.1869C4.08454 20.6305 4.07538 20.0772 4.26295 19.5256C4.28664 19.456 4.30716 19.3835 4.34158 19.3196C4.90809 18.2723 5.24976 17.1351 5.63248 16.0169C6.06509 14.7525 6.74275 13.6391 7.55903 12.5961C7.93228 12.1194 8.2749 11.6187 8.65162 11.1451C8.95603 10.7627 9.06623 10.3268 9.0956 9.85547C9.16191 8.78977 9.10791 7.72786 9.01413 6.66595C8.93518 5.77328 8.8654 4.87934 8.94308 3.98255C8.9936 3.39798 9.10444 2.82669 9.32896 2.2804C9.69463 1.38867 10.3862 0.84649 11.2413 0.479235C11.81 0.234714 12.4011 0.0749694 13.0201 0.0253061C13.0501 0.0227755 13.0794 0.00885714 13.1091 0C13.3829 0 13.6564 0 13.9301 0C13.9702 0.0101224 14.0097 0.0246735 14.0504 0.029102C15.4954 0.190429 16.6152 0.872745 17.3421 2.14216C18.0412 3.36318 18.2806 4.71105 18.352 6.09783C18.393 6.89244 18.4154 7.68863 18.4839 8.48071C18.5509 9.25097 18.7861 9.97504 19.2346 10.6166C19.7534 11.3587 20.2804 12.0954 20.7932 12.8419C21.6818 14.1354 22.5452 15.4446 23.2282 16.8637C23.5841 17.6033 23.8035 18.3738 23.8225 19.2007C23.8411 20.0127 23.7461 20.8086 23.5531 21.5956C23.5386 21.6551 23.5503 21.7478 23.5885 21.7892C24.034 22.2729 24.2608 22.8312 24.2387 23.4974C24.2216 24.0101 24.4095 24.459 24.8197 24.7712C25.0928 24.9787 25.402 25.1457 25.7118 25.2963C26.3689 25.6155 26.5489 26.3032 26.1093 26.8884C25.9154 27.1465 25.6584 27.3271 25.3792 27.4809C24.67 27.8712 23.957 28.2552 23.2525 28.6541C22.3772 29.1498 21.5201 29.6695 20.7967 30.387C20.6123 30.5698 20.3584 30.6954 20.1168 30.8036C19.9002 30.9004 19.6567 30.9367 19.425 30.9997C19.2349 31 19.0454 31 18.8559 31ZM9.14644 26.1147C9.56642 26.598 9.97535 27.0722 10.3909 27.5407C10.4301 27.5846 10.5093 27.6046 10.5731 27.6131C11.2546 27.7042 11.9395 27.7023 12.6209 27.6368C13.2007 27.5811 13.7884 27.5318 14.3517 27.3948C15.7143 27.0633 16.7573 26.2288 17.6348 25.166C17.6737 25.1192 17.6907 25.0423 17.6923 24.9787C17.7059 24.4571 17.7018 23.9345 17.7261 23.4135C17.7485 22.9302 17.7943 22.4475 17.8401 21.9654C17.8574 21.7829 17.973 21.6529 18.1435 21.594C18.2708 21.5504 18.4075 21.5184 18.5414 21.5143C18.7224 21.5086 18.9042 21.5342 19.1281 21.5494C19.1989 21.0518 19.2908 20.5603 19.3337 20.0646C19.4152 19.1251 19.3751 18.1904 19.1171 17.2752C18.6917 15.7679 18.1107 14.3176 17.4817 12.8878C16.984 11.7569 16.4377 10.6476 15.9034 9.53345C15.7733 9.26236 15.6934 9.23579 15.4114 9.35631C15.0884 9.49454 14.7736 9.65365 14.4638 9.82004C13.8294 10.1607 13.2001 10.5103 12.5704 10.8598C12.0535 11.1467 11.5637 11.0711 11.0799 10.7725C10.6508 10.5077 10.2766 10.1791 9.93083 9.81498C9.87051 9.7514 9.81083 9.68718 9.74294 9.61475C9.75052 9.77702 9.77073 9.91905 9.76157 10.0592C9.69873 11.0322 9.35927 11.9012 8.77067 12.6758C8.65667 12.8261 8.53573 12.9798 8.46341 13.151C8.24206 13.6732 8.03333 14.2015 7.83755 14.7339C7.58524 15.4193 7.38977 16.1289 7.01495 16.7628C6.38813 17.8228 6.12856 18.9723 6.16519 20.194C6.18698 20.9228 6.4175 21.5684 6.97832 22.0647C7.2502 22.3055 7.52051 22.5484 7.80092 22.7787C8.30932 23.1962 8.83287 23.5961 9.33306 24.0228C9.53453 24.1949 9.71894 24.4014 9.86357 24.6235C10.1806 25.1103 10.0003 25.7151 9.48306 25.9774C9.38138 26.0296 9.27054 26.065 9.14644 26.1147ZM8.04817 29.9223C8.1729 29.89 8.31532 29.8856 8.41889 29.8201C8.71004 29.636 8.95318 29.395 9.14202 29.1027C9.33717 28.8006 9.40001 28.4741 9.32391 28.1214C9.21496 27.6166 8.92855 27.2117 8.61088 26.8201C8.35289 26.5018 8.08922 26.1839 7.86912 25.8398C7.38156 25.0777 6.91706 24.3008 6.44813 23.5268C6.17972 23.0833 5.88605 22.6601 5.49511 22.3156C5.36217 22.1985 5.21471 22.0913 5.05871 22.0081C4.78146 21.8601 4.58947 21.9085 4.4 22.1615C4.31222 22.2786 4.24275 22.4102 4.17264 22.5392C4.05707 22.7515 3.95318 22.9704 3.83381 23.1804C3.67877 23.4531 3.44636 23.6362 3.14416 23.7213C2.93227 23.7811 2.71628 23.8276 2.50345 23.8839C2.20441 23.963 1.90032 24.0288 1.60917 24.131C1.29655 24.2407 1.21855 24.3764 1.23971 24.7083C1.24982 24.8702 1.28076 25.0322 1.31834 25.1903C1.42633 25.6468 1.41876 26.095 1.27855 26.5458C1.17592 26.8764 1.07488 27.2104 1.01614 27.5505C0.957407 27.8896 1.05561 28.0379 1.38907 28.117C1.91453 28.2419 2.44598 28.3454 2.97869 28.4343C3.75771 28.5643 4.52442 28.7215 5.24944 29.0562C5.66784 29.2494 6.10741 29.3988 6.54255 29.5531C7.02789 29.7255 7.52082 29.8748 8.04817 29.9223ZM19.245 22.4962C19.2124 22.4914 19.167 22.4801 19.1209 22.4788C18.8395 22.4693 18.7217 22.568 18.7063 22.8495C18.6962 23.033 18.7088 23.2177 18.7151 23.4018C18.7344 23.9696 18.8133 24.5425 18.7621 25.104C18.6892 25.9033 18.5313 26.6957 18.3902 27.4878C18.3112 27.9307 18.2307 28.3682 18.3204 28.8183C18.5278 29.86 19.3009 30.2304 20.2299 29.7312C20.6742 29.4924 21.0484 29.1634 21.4166 28.8227C21.6622 28.5953 21.9155 28.3615 22.2025 28.1951C22.9658 27.7526 23.7502 27.3474 24.5235 26.9222C24.7486 26.7986 24.9725 26.6695 25.1825 26.5214C25.3849 26.3788 25.396 26.1909 25.2261 26.0103C25.137 25.9154 25.0335 25.8296 24.9239 25.7594C24.743 25.643 24.5566 25.5323 24.3637 25.4377C24.0359 25.2773 23.812 25.0243 23.6576 24.701C23.489 24.3477 23.4145 23.9763 23.4293 23.5837C23.4404 23.2876 23.3617 23.0238 23.1079 22.8413C23.0946 22.8498 23.0883 22.8514 23.0861 22.8555C23.0308 22.9511 22.9743 23.0457 22.9216 23.1424C22.6052 23.7226 22.128 24.1028 21.4936 24.2784C21.282 24.3369 21.0648 24.3938 20.8472 24.409C19.9994 24.4675 19.4834 24.1711 19.3239 23.2905C19.2769 23.0333 19.2709 22.7692 19.245 22.4962ZM12.0446 10.3578C12.2155 10.2996 12.3907 10.2673 12.5385 10.1854C13.3516 9.73527 14.1607 9.27723 14.9659 8.81286C15.1831 8.68759 15.2068 8.46585 15.0202 8.30009C14.8809 8.17673 14.7186 8.06475 14.5472 7.99515C13.9301 7.74399 13.3021 7.52003 12.6841 7.27108C12.3487 7.13601 12.0487 7.18757 11.7566 7.37484C11.708 7.40615 11.6556 7.43241 11.6108 7.46847C11.1352 7.85028 10.6581 8.2305 10.1904 8.62148C10.1424 8.66165 10.1137 8.78882 10.1405 8.84354C10.2201 9.00582 10.3031 9.18707 10.4367 9.2981C10.8197 9.61601 11.223 9.91051 11.63 10.1977C11.7446 10.2787 11.8987 10.3034 12.0446 10.3578ZM14.7218 7.32549C15.1456 7.533 15.0672 7.58171 15.4026 7.23407C16.1011 6.51032 16.0768 5.16972 15.3701 4.45419C14.8721 3.94997 14.1613 3.89683 13.614 4.33083C12.9446 4.86162 12.7744 5.87102 13.0665 6.62103C13.0772 6.64855 13.0955 6.68398 13.1195 6.69379C13.3201 6.77508 13.5231 6.85132 13.7501 6.93894C13.7227 6.85828 13.704 6.81051 13.6901 6.76116C13.5897 6.40055 13.609 6.05069 13.8057 5.72519C14.1164 5.21053 14.7183 5.21686 15.029 5.73215C15.3079 6.19367 15.2602 6.96456 14.7218 7.32549ZM10.708 7.31821C10.3167 7.33118 10.1317 7.10754 9.99556 6.82569C9.95262 6.73649 9.92104 6.63938 9.9002 6.54258C9.83641 6.2465 9.8462 5.95453 9.99651 5.68344C10.1696 5.37122 10.5055 5.30574 10.7616 5.5528C10.8857 5.67268 10.9839 5.83338 11.0528 5.99344C11.1883 6.30787 11.181 6.63685 11.0648 6.95317C11.252 6.83455 11.4402 6.72289 11.6196 6.59794C11.6755 6.55903 11.7181 6.48976 11.7456 6.42522C11.7693 6.36955 11.7668 6.30122 11.7696 6.23828C11.7971 5.65718 11.6916 5.11342 11.2928 4.66518C10.9031 4.22676 10.3454 4.21537 9.93493 4.63292C9.8402 4.72908 9.75336 4.84138 9.69242 4.96158C9.3198 5.69672 9.30654 6.44136 9.70221 7.16764C9.80578 7.35807 9.99556 7.50295 10.1547 7.65985C10.1816 7.6861 10.2697 7.68832 10.3015 7.66428C10.4339 7.56432 10.5554 7.45044 10.708 7.31821Z" fill="#0078D4"/>
    <path fill-rule="evenodd" clip-rule="evenodd" d="M14.7213 7.32529C15.2597 6.96436 15.3071 6.19347 15.0289 5.73164C14.7182 5.21602 14.1163 5.21001 13.8056 5.72468C13.6088 6.05018 13.5896 6.40003 13.69 6.76065C13.6989 6.79299 13.7101 6.82465 13.7245 6.86533L13.7245 6.86535C13.7321 6.88674 13.7405 6.91063 13.75 6.93842L13.61 6.88482L13.61 6.88479C13.4377 6.8189 13.2778 6.75776 13.1194 6.69327C13.0957 6.68346 13.0771 6.64803 13.0663 6.62051C12.7742 5.8705 12.9444 4.86142 13.6139 4.33031C14.1611 3.89631 14.8719 3.94945 15.3699 4.45368C16.0766 5.16921 16.1009 6.5098 15.4024 7.23355C15.3863 7.25032 15.3711 7.26617 15.3567 7.28112C15.2257 7.41753 15.1663 7.47949 15.1004 7.48721C15.0456 7.49363 14.9864 7.46249 14.878 7.40544C14.8346 7.38262 14.7833 7.35565 14.7213 7.32529ZM11.9042 10.3125C11.9507 10.3265 11.9978 10.3408 12.0441 10.3579C12.0989 10.3393 12.1541 10.3233 12.2087 10.3074L12.2088 10.3074L12.2088 10.3074C12.3245 10.2738 12.4376 10.241 12.538 10.1855C13.3514 9.73572 14.1605 9.27768 14.9654 8.813C15.1826 8.68773 15.2066 8.46599 15.0197 8.30024C14.8804 8.17687 14.7178 8.06489 14.5466 7.9953C14.225 7.86435 13.9003 7.74081 13.5756 7.61726L13.5756 7.61725L13.5755 7.61724L13.5755 7.61722C13.2774 7.5038 12.9793 7.39037 12.6836 7.27122C12.3479 7.13615 12.0482 7.18803 11.7561 7.37498C11.7397 7.38557 11.7228 7.39558 11.7059 7.40559C11.6729 7.42518 11.6399 7.44475 11.6102 7.46861L11.4291 7.614C11.0137 7.94715 10.5984 8.28029 10.1899 8.62162C10.1416 8.6618 10.1131 8.78864 10.14 8.84368L10.1553 8.87502L10.1553 8.87503C10.2304 9.02885 10.3112 9.19431 10.4362 9.29825C10.8192 9.61615 11.2228 9.91065 11.6295 10.1979C11.7077 10.2532 11.8044 10.2823 11.9042 10.3125ZM8.04757 29.9224C7.52054 29.8749 7.02761 29.7256 6.54195 29.5536L6.4049 29.5052C6.01483 29.3676 5.62336 29.2296 5.24884 29.0566C4.52382 28.7219 3.75711 28.5647 2.97809 28.4347C2.44538 28.3458 1.91393 28.2424 1.38847 28.1174C1.0547 28.038 0.956808 27.89 1.01554 27.5509C1.07428 27.2108 1.17533 26.8765 1.27795 26.5462C1.41784 26.0955 1.42542 25.6472 1.31774 25.1908C1.28048 25.0326 1.24922 24.8703 1.23911 24.7087C1.21827 24.3769 1.29595 24.2412 1.60857 24.1314C1.82149 24.0567 2.04133 24.0014 2.26106 23.9462L2.26107 23.9462L2.26109 23.9462L2.26111 23.9462L2.26152 23.9461C2.34209 23.9258 2.42265 23.9056 2.50285 23.8844C2.59296 23.8605 2.68352 23.8385 2.77406 23.8165L2.77413 23.8164L2.77421 23.8164L2.7743 23.8164L2.77442 23.8164C2.89792 23.7863 3.02137 23.7562 3.14356 23.7218C3.44576 23.6364 3.67849 23.4535 3.83322 23.1808C3.90127 23.0611 3.96429 22.9385 4.02732 22.8158C4.07484 22.7234 4.12236 22.6309 4.17204 22.5396L4.18942 22.5078C4.25402 22.389 4.31913 22.2694 4.3994 22.162C4.58887 21.9089 4.78086 21.8605 5.05811 22.0085C5.21411 22.0917 5.36157 22.1986 5.49452 22.316C5.88545 22.6605 6.17912 23.0837 6.44753 23.5272L6.66184 23.8817C7.05843 24.538 7.45509 25.1944 7.86852 25.8402C8.07016 26.1555 8.30836 26.4487 8.54526 26.7404L8.54527 26.7404L8.61028 26.8205C8.92795 27.2121 9.21436 27.617 9.32331 28.1219C9.39941 28.4746 9.33657 28.801 9.14142 29.1031C8.9529 29.3954 8.70944 29.6364 8.41829 29.8205C8.34703 29.8652 8.2578 29.8814 8.16853 29.8975C8.12764 29.9049 8.08675 29.9123 8.04757 29.9224ZM19.2453 22.4962C19.2536 22.5834 19.2598 22.6698 19.266 22.7552V22.7553C19.2792 22.9371 19.2921 23.1151 19.3236 23.2898C19.4831 24.1705 19.9991 24.4669 20.8469 24.4084C21.0645 24.3935 21.2818 24.3362 21.4933 24.2777C22.1277 24.1022 22.6049 23.7219 22.9213 23.1418C22.9601 23.0705 23.001 23.0004 23.0419 22.9303L23.0858 22.8549C23.0871 22.8524 23.09 22.8508 23.0949 22.8481C23.0982 22.8463 23.1023 22.844 23.1076 22.8406C23.3615 23.0232 23.4404 23.287 23.429 23.5831C23.4142 23.9756 23.4887 24.347 23.6573 24.7003C23.8118 25.0236 24.0356 25.2767 24.3634 25.4371C24.5564 25.5316 24.7427 25.6423 24.9236 25.7588C25.0332 25.829 25.1368 25.9147 25.2258 26.0096C25.3954 26.1905 25.3843 26.3781 25.1822 26.5208C24.9726 26.6685 24.7484 26.7976 24.5232 26.9216C24.2551 27.069 23.9856 27.214 23.7162 27.359L23.716 27.3591L23.7159 27.3592L23.7157 27.3592L23.7156 27.3593C23.2081 27.6324 22.7007 27.9055 22.2022 28.1945C21.9152 28.3609 21.6623 28.5946 21.4163 28.8221C21.0481 29.1627 20.6742 29.4917 20.2296 29.7306C19.3009 30.2297 18.5276 29.859 18.3201 28.8176C18.2317 28.374 18.3086 27.9427 18.3864 27.5064L18.3899 27.4872C18.4134 27.3551 18.4373 27.223 18.4613 27.0909C18.5811 26.4307 18.7011 25.7694 18.7619 25.1033C18.7969 24.7187 18.7709 24.3284 18.7448 23.938V23.938V23.938V23.938L18.7448 23.9379L18.7448 23.9377L18.7448 23.9376C18.7328 23.7586 18.7209 23.5796 18.7148 23.4012C18.7135 23.3621 18.7119 23.3229 18.7102 23.2838L18.7102 23.2835V23.2834V23.2834V23.2834C18.7043 23.1383 18.6983 22.993 18.706 22.8489C18.7214 22.5673 18.8392 22.4686 19.1206 22.4781C19.1531 22.4797 19.1851 22.4855 19.2124 22.4905C19.2244 22.4927 19.2354 22.4947 19.2453 22.4962ZM10.5887 7.42293C10.6268 7.38929 10.6664 7.35436 10.7083 7.31804C10.317 7.33069 10.1323 7.10736 9.99588 6.8252C9.95262 6.736 9.92136 6.63888 9.90052 6.54209C9.83673 6.24601 9.84652 5.95404 9.99683 5.68294C10.1699 5.37041 10.5059 5.30493 10.762 5.5523C10.8861 5.67219 10.9843 5.83288 11.0531 5.99294C11.1886 6.30737 11.1813 6.63635 11.0651 6.95268C11.1161 6.92045 11.1672 6.88868 11.2182 6.857C11.3543 6.77239 11.4894 6.68835 11.6199 6.59744C11.6758 6.55854 11.7184 6.48926 11.7459 6.42473C11.7655 6.37864 11.7672 6.32388 11.7688 6.27068C11.7691 6.25961 11.7694 6.24862 11.7699 6.23778C11.7974 5.65701 11.6916 5.11324 11.2931 4.66469C10.9034 4.22658 10.3454 4.21487 9.93525 4.63242C9.84052 4.7289 9.75368 4.8412 9.69273 4.96109C9.32043 5.69623 9.30686 6.44086 9.70252 7.16715C9.78087 7.31119 9.90853 7.42917 10.035 7.546C10.0757 7.58362 10.1163 7.62113 10.155 7.65935C10.1819 7.68561 10.27 7.68782 10.3019 7.66378C10.3978 7.59151 10.4882 7.51175 10.5887 7.42293Z" fill="white"/>
    <path d="M9.14611 26.1147C9.27021 26.0647 9.38105 26.0296 9.48336 25.9777C10.0006 25.7155 10.1809 25.1107 9.86387 24.6238C9.71924 24.4018 9.53515 24.1952 9.33336 24.0231C8.83317 23.5961 8.30962 23.1966 7.80122 22.779C7.52081 22.5487 7.2505 22.3058 6.97862 22.0651C6.4178 21.5684 6.18728 20.9231 6.16549 20.1943C6.12886 18.9727 6.38812 17.8231 7.01525 16.7631C7.39007 16.1292 7.58554 15.4197 7.83785 14.7342C8.03394 14.2018 8.24267 13.6736 8.46371 13.1513C8.53634 12.9802 8.65697 12.8261 8.77097 12.6762C9.35989 11.9012 9.69903 11.0326 9.76187 10.0595C9.77103 9.91941 9.75082 9.77706 9.74324 9.6151C9.81113 9.68754 9.87082 9.75175 9.93113 9.81534C10.2769 10.1794 10.6508 10.5081 11.0802 10.7729C11.564 11.0715 12.0538 11.1471 12.5707 10.8602C13.2004 10.5106 13.8297 10.1611 14.4641 9.8204C14.7739 9.65401 15.0887 9.4949 15.4117 9.35666C15.6934 9.23614 15.7736 9.26303 15.9037 9.53381C16.4383 10.6479 16.9846 11.7573 17.482 12.8881C18.111 14.3179 18.692 15.7683 19.1174 17.2756C19.3757 18.1904 19.4158 19.1251 19.334 20.0649C19.2911 20.5606 19.1989 21.0519 19.1284 21.5498C18.9046 21.5346 18.7227 21.509 18.5417 21.5147C18.4082 21.5188 18.2711 21.5507 18.1438 21.5944C17.973 21.6532 17.8578 21.7832 17.8404 21.9658C17.7946 22.4478 17.7488 22.9306 17.7264 23.4139C17.7021 23.9349 17.7062 24.4575 17.6926 24.9791C17.691 25.0427 17.6737 25.1195 17.6351 25.1663C16.7576 26.2292 15.7146 27.064 14.352 27.3952C13.7883 27.5322 13.201 27.5818 12.6212 27.6372C11.9398 27.7027 11.2549 27.7046 10.5734 27.6135C10.5096 27.6049 10.4304 27.5853 10.3912 27.541C9.97502 27.0725 9.56609 26.598 9.14611 26.1147Z" fill="white"/>
    <path d="M17.6354 14.7645L19.3073 13.0914L17.2125 11L12 16.2309L17.2223 21.4471L19.268 19.3951L17.5616 17.6826H22.6V26H25.5244V14.7645L17.6354 14.7645Z" fill="#50E6FF"/>
    <path d="M22.6001 25.0984V36H25.5245V25.0984L22.6001 25.0984Z" fill="#0078D4"/>
    <path d="M30.4795 30.3L28.4289 32.352L30.1402 34.0645L22.6001 34.077V37L30.0615 36.9875L28.3896 38.6606L30.4844 40.752L35.7018 35.5211L30.4795 30.3Z" fill="#0078D4"/>
</svg>
