<svg data-slug-id="lock-folder" viewBox="0 0 48 48" xmlns="http://www.w3.org/2000/svg">
    <path d="M38.8048 13.1175H6.52783V5H15.0147L17.9276 7.51836H38.8048V13.1175Z" fill="#0078D4"/>
    <path d="M40.3325 11.1954H5V35.3046H40.3325V11.1954Z" fill="#0078D4"/>
    <path d="M35.2371 10.0469H10.1123V11.3481H35.2371V10.0469Z" fill="#50E6FF"/>
    <path d="M42.5056 24.3096C42.5056 19.5074 38.5773 15.5707 33.775 15.5707C29.4638 15.5707 25.8684 18.7417 25.1776 22.8698H28.7564C28.9978 22.0208 29.4555 21.2551 30.088 20.6143C31.0785 19.6239 32.3851 19.0829 33.7834 19.0829C35.1733 19.0829 36.4799 19.6322 37.4787 20.6143C38.4691 21.6047 39.0101 22.9114 39.0101 24.3096C39.0101 24.5843 39.0101 25.3749 39.0101 26.4153H25.0444V43.9264H42.489V27.5388C42.5056 25.9575 42.5056 24.6758 42.5056 24.3096Z" fill="#50E6FF"/>
    <path d="M33.7337 37.3173C34.9072 37.3173 35.8726 36.3602 35.8726 35.1784C35.8726 34.0049 34.9238 33.0394 33.7337 33.0394C32.5602 33.0394 31.5947 33.9882 31.5947 35.1784C31.5947 36.3602 32.5518 37.3173 33.7337 37.3173Z" fill="#0078D4"/>
</svg>