<svg data-slug-id="lock-blue-circle" xmlns="http://www.w3.org/2000/svg" viewBox="0 0 48 49">
<path d="M30.1646 20.649C30.1646 17.2069 27.3522 14.3945 23.9101 14.3945C20.8207 14.3945 18.2433 16.6696 17.748 19.6164H20.3086C20.4849 19.0119 20.8039 18.4578 21.2656 17.9961C21.9792 17.2825 22.9195 16.8963 23.9101 16.8963C24.9008 16.8963 25.841 17.2909 26.5546 17.9961C27.2682 18.7097 27.6544 19.6499 27.6544 20.6406C27.6544 20.8421 27.6544 21.4046 27.6544 22.1517H17.6641V34.6942H30.1646V22.9745C30.1646 21.8411 30.1646 20.926 30.1646 20.649Z" fill="#0078D4"/>
<path d="M23.9186 29.7921C24.8085 29.7921 25.5305 29.0701 25.5305 28.1802C25.5305 27.2904 24.8085 26.5684 23.9186 26.5684C23.0287 26.5684 22.3067 27.2904 22.3067 28.1802C22.2983 29.0701 23.0287 29.7921 23.9186 29.7921Z" fill="#50E6FF"/>
<path d="M47.9661 17.7011V5.03618H42.9051V9.57021C38.5514 3.93856 31.7388 0.316406 24.0925 0.316406C10.9388 0.316406 0.286133 10.9971 0.286133 24.1855C0.286133 37.3738 10.9472 48.0545 24.0925 48.0545C37.2377 48.0545 47.8988 37.3654 47.8988 24.1855C47.8988 23.7126 47.8819 23.2483 47.8567 22.7839H43.1998C43.2335 23.2483 43.2503 23.7126 43.2503 24.1855C43.2503 34.7902 34.6777 43.3939 24.0925 43.3939C13.5072 43.3939 4.93455 34.7902 4.93455 24.1855C4.93455 13.5807 13.5072 4.97708 24.0925 4.97708C30.3156 4.97708 35.8398 7.9491 39.3346 12.5591H35.3261V17.6335H42.9051V17.7011H47.9661Z" fill="#50E6FF"/>
</svg>
