<svg data-slug-id="lock-alt" xmlns="http://www.w3.org/2000/svg" viewBox="0 0 49 48">
    <path d="M38.4419 16.5305V17.6842H44.7515C46.8491 17.6842 48.5423 15.9915 48.5423 13.8947C48.5423 11.7979 46.8491 10.1052 44.7515 10.1052H37.4226C38.105 11.7473 38.484 13.5494 38.484 15.4358C38.484 15.8063 38.4756 16.1684 38.4419 16.5305Z" fill="#0078D4"/>
    <path d="M10.6764 15.4021C10.6849 13.5242 11.0555 11.7389 11.7379 10.1052H4.34159C2.24401 10.1052 0.550781 11.7979 0.550781 13.8947C0.550781 15.9915 2.24401 17.6842 4.34159 17.6842H10.6427V15.4021H10.6764Z" fill="#0078D4"/>
    <path d="M24.5845 1.53263C29.3525 1.53263 33.556 3.93263 36.058 7.57895H44.76C46.8576 7.57895 48.5508 5.88632 48.5508 3.78947C48.5508 1.69263 46.8576 0 44.76 0H4.34159C2.24401 0 0.550781 1.69263 0.550781 3.78947C0.550781 5.88632 2.24401 7.57895 4.34159 7.57895H13.1026C15.6129 3.92421 19.8165 1.53263 24.5845 1.53263Z" fill="#0078D4"/>
    <path d="M44.7515 27.7895C46.8491 27.7895 48.5423 26.0969 48.5423 24C48.5423 21.9032 46.8491 20.2106 44.7515 20.2106H38.4419V27.7895H44.7515Z" fill="#50E6FF"/>
    <path d="M4.34159 20.2106C2.24401 20.2106 0.550781 21.9032 0.550781 24C0.550781 26.0969 2.24401 27.7895 4.34159 27.7895H10.6427V20.2106H4.34159Z" fill="#50E6FF"/>
    <path d="M44.7515 37.8947C46.8491 37.8947 48.5423 36.2021 48.5423 34.1053C48.5423 32.0084 46.8491 30.3158 44.7515 30.3158H38.4419V37.8947H44.7515Z" fill="#0078D4"/>
    <path d="M4.34159 30.3158C2.24401 30.3158 0.550781 32.0084 0.550781 34.1053C0.550781 36.2021 2.24401 37.8947 4.34159 37.8947H10.6427V30.3158H4.34159Z" fill="#0078D4"/>
    <path d="M10.6427 42.9726V40.421H4.34159C2.24401 40.421 0.550781 42.1137 0.550781 44.2105C0.550781 46.3073 2.24401 48 4.34159 48H44.7516C46.8491 48 48.5424 46.3073 48.5424 44.2105C48.5424 42.1137 46.8491 40.421 44.7516 40.421H38.442V42.9726H10.6427Z" fill="#0078D4"/>
    <path d="M35.957 14.939C35.957 8.69898 30.852 3.57898 24.593 3.57898C18.991 3.57898 14.2904 7.69687 13.3975 13.0779H18.0475C18.3676 11.9748 18.9573 10.9727 19.7913 10.139C21.0802 8.85056 22.7903 8.14319 24.593 8.14319C26.3957 8.14319 28.1058 8.85898 29.3947 10.139C30.6835 11.4274 31.3912 13.1369 31.3912 14.939C31.3912 15.3011 31.3912 16.3285 31.3912 17.6842H13.229V40.4632H35.9401V19.1327C35.957 17.0863 35.957 15.4274 35.957 14.939Z" fill="#0078D4"/>
    <path d="M24.5341 31.8653C26.0672 31.8653 27.314 30.619 27.314 29.0863C27.314 27.5537 26.0672 26.3074 24.5341 26.3074C23.0009 26.3074 21.7542 27.5537 21.7542 29.0863C21.7542 30.619 23.0009 31.8653 24.5341 31.8653Z" fill="#50E6FF"/>
</svg>
