<svg data-slug-id="lock-light-blue" viewBox="0 0 48 48" xmlns="http://www.w3.org/2000/svg">
    <path d="M39.0002 19.507V15.2761C39.0002 7.37597 33.0002 0.599064 25.1252 0.0374415C24.7502 0 24.3752 0 24.0002 0C15.7127 0 9.00015 6.70203 9.00015 14.9766V19.5445H4.50015V48H43.5002V19.5445H39.0002V19.507ZM13.5377 14.9766C13.5377 9.21061 18.2252 4.49298 24.0377 4.49298C24.3002 4.49298 24.5626 4.49298 24.8251 4.53042C30.2251 4.90484 34.5002 9.62246 34.5002 15.2761V19.507H13.5377V14.9766Z" fill="#50E6FF"/>
    <path d="M28.5002 31.4126V31.5249C28.5002 33.9586 26.5127 35.943 24.0377 35.943H23.9252C21.4877 35.943 19.5002 33.9586 19.5002 31.4875V31.3751C19.5002 28.9414 21.4877 26.957 23.9627 26.957H24.0752C26.5127 26.957 28.5002 28.9414 28.5002 31.4126Z" fill="#0078D4"/>
    <path d="M24 41.9719C22.725 41.9719 21.75 40.961 21.75 39.7254V33.7348C21.75 32.4992 22.7625 31.4883 24 31.4883C25.2375 31.4883 26.25 32.4992 26.25 33.7348V39.7629C26.25 40.9984 25.2375 41.9719 24 41.9719Z" fill="#0078D4"/>
</svg>
