<svg data-slug-id="machine-learning" xmlns="http://www.w3.org/2000/svg" viewBox="0 0 49 49">
    <path d="M21.3323 32.5547H15.3323V34.5547H21.3323V32.5547Z" fill="#0078D4"/>
    <path d="M32.3323 33.5547H26.3323V35.5547H32.3323V33.5547Z" fill="#0078D4"/>
    <path d="M26.3323 36.5547H20.3323V38.5547H26.3323V36.5547Z" fill="#0078D4"/>
    <path d="M19.3323 40.5547H13.3323V42.5547H19.3323V40.5547Z" fill="#0078D4"/>
    <path d="M29.3323 41.5547H23.3323V43.5547H29.3323V41.5547Z" fill="#0078D4"/>
    <path d="M38.3323 40.5547H32.3323V42.5547H38.3323V40.5547Z" fill="#0078D4"/>
    <path d="M45.3322 43.4547L29.8322 18.2547V3.05469H34.8322V1.05469H27.8322V18.8547L32.0322 25.7547C30.9322 25.3547 29.5322 25.0547 27.8322 25.0547C25.5322 25.0547 24.1322 26.2547 23.0322 27.2547C22.1322 28.0547 21.5322 28.5547 20.8322 28.5547C19.2322 28.5547 17.3322 27.5547 16.4322 27.0547L21.3322 18.8547V1.05469H14.3322V3.05469H19.3322V18.2547L4.23223 43.5547C3.63223 44.4547 3.63223 45.6547 4.23223 46.5547C4.73223 47.4547 5.73223 48.0547 6.83223 48.0547H42.7322C43.8322 48.0547 44.8322 47.4547 45.3322 46.5547C45.9322 45.5547 45.8322 44.4547 45.3322 43.4547ZM43.6322 45.5547C43.5322 45.7547 43.3322 46.0547 42.7322 46.0547H6.83223C6.33223 46.0547 6.03223 45.6547 5.93223 45.5547C5.83223 45.3547 5.63223 44.9547 5.93223 44.5547L15.3322 28.7547C16.4322 29.3547 18.7322 30.5547 20.7322 30.5547C22.2322 30.5547 23.2322 29.6547 24.2322 28.7547C25.2322 27.8547 26.1322 27.0547 27.7322 27.0547C30.9322 27.0547 33.2322 28.3547 33.2322 28.4547L33.8322 28.8547L43.5322 44.5547C43.8322 44.9547 43.7322 45.3547 43.6322 45.5547Z" fill="#0078D4"/>
    <path d="M21.3323 32.5547H15.3323V34.5547H21.3323V32.5547Z" fill="#0078D4"/>
    <path d="M32.3323 33.5547H26.3323V35.5547H32.3323V33.5547Z" fill="#0078D4"/>
    <path d="M26.3323 36.5547H20.3323V38.5547H26.3323V36.5547Z" fill="#0078D4"/>
    <path d="M29.3323 41.5547H23.3323V43.5547H29.3323V41.5547Z" fill="#0078D4"/>
    <path d="M38.3323 40.5547H32.3323V42.5547H38.3323V40.5547Z" fill="#0078D4"/>
</svg>
