<svg data-slug-id="machine-learning-alt" viewBox="0 0 49 49" xmlns="http://www.w3.org/2000/svg">
    <path fill-rule="evenodd" clip-rule="evenodd" d="M23.5604 36.805V5.93512C23.5604 5.16829 23.3413 4.45899 22.9855 3.83806C22.9404 3.74969 22.8935 3.66224 22.8438 3.57662C22.841 3.57202 22.8387 3.56742 22.8355 3.56327C21.9163 1.9868 20.2137 0.924927 18.2593 0.924927C15.5809 0.924927 13.372 2.91658 13.0144 5.50107C12.7728 5.47668 12.5279 5.46425 12.2798 5.46425C8.12619 5.46425 4.75921 8.83629 4.75921 12.9963C4.75921 13.6357 4.84528 14.2538 4.99717 14.8458C2.22396 17.9071 0.519531 21.9581 0.519531 26.4173C0.519531 33.8021 5.16564 40.0735 11.681 42.5291C11.6952 42.6188 11.6998 42.7072 11.7178 42.7974C12.2927 45.7621 14.6811 48.1491 17.6421 48.7204C19.283 49.037 20.8535 48.823 22.2141 48.22C23.0242 47.8615 23.5609 47.0725 23.5609 46.1847L23.5604 36.805Z" fill="#0078D4"/>
    <path fill-rule="evenodd" clip-rule="evenodd" d="M25.4204 36.805V5.93512C25.4204 5.16829 25.6395 4.45899 25.9953 3.83806C26.0404 3.74969 26.0873 3.66224 26.137 3.57662C26.1398 3.57202 26.1421 3.56742 26.1453 3.56327C27.0645 1.9868 28.7671 0.924927 30.7215 0.924927C33.3999 0.924927 35.6088 2.91658 35.9664 5.50107C36.2081 5.47668 36.4529 5.46425 36.701 5.46425C40.8546 5.46425 44.2216 8.83629 44.2216 12.9963C44.2216 13.6357 44.1355 14.2538 43.9836 14.8458C46.7569 17.9071 48.4613 21.9581 48.4613 26.4173C48.4613 33.8021 43.8152 40.0735 37.2999 42.5291C37.2856 42.6188 37.281 42.7072 37.263 42.7974C36.6881 45.7621 34.2997 48.1491 31.3387 48.7204C29.6978 49.037 28.1273 48.823 26.7667 48.22C25.9566 47.8615 25.4199 47.0725 25.4199 46.1847L25.4204 36.805Z" fill="#0078D4"/>
</svg>
