<svg data-slug-id="magnetic-tape" xmlns="http://www.w3.org/2000/svg" viewBox="0 0 49 49">
  <path d="M0.694092 41.0515H48.6941V8.25992H0.694092V41.0515Z" fill="#0078D4"/>
  <path d="M36.012 17.0852C31.8352 17.0852 28.4415 20.4704 28.4415 24.6557C28.4415 26.6262 29.191 28.4199 30.4289 29.7673H18.6984C19.9363 28.4199 20.6857 26.6262 20.6857 24.6557C20.6857 20.4789 17.3005 17.0852 13.1152 17.0852C8.93836 17.0852 5.54468 20.4704 5.54468 24.6557C5.54468 28.841 8.92994 32.2262 13.1152 32.2262C13.2668 32.2262 13.4184 32.2178 13.5699 32.2094H35.5405C35.692 32.2178 35.8436 32.2262 35.9952 32.2262C40.172 32.2262 43.5657 28.841 43.5657 24.6557C43.5657 20.4704 40.1889 17.0852 36.012 17.0852ZM8.07941 24.6473C8.07941 21.8683 10.3447 19.6031 13.1236 19.6031C15.9026 19.6031 18.1678 21.8683 18.1678 24.6473C18.1678 27.4262 15.9026 29.6915 13.1236 29.6915C10.3447 29.6915 8.07941 27.4346 8.07941 24.6473ZM36.012 29.6915C33.2331 29.6915 30.9678 27.4262 30.9678 24.6473C30.9678 21.8683 33.2331 19.6031 36.012 19.6031C38.791 19.6031 41.0563 21.8683 41.0563 24.6473C41.0563 27.4262 38.791 29.6915 36.012 29.6915Z" fill="#50E6FF"/>
</svg>
