<svg data-slug-id="managed-platform" xmlns="http://www.w3.org/2000/svg" viewBox="0 0 48 49">
    <path d="M30.3331 12.5563H17.8018V16.6046C17.8018 18.3714 20.61 19.7951 24.0843 19.7951C27.5587 19.7951 30.3668 18.3628 30.3668 16.6046C30.3668 16.6046 30.3584 12.5821 30.3331 12.5563Z" fill="#0078D7"/>
    <path d="M30.3584 11.8359L30.3668 15.3781C30.3668 17.1449 27.5587 18.5687 24.0843 18.5687C20.61 18.5687 17.8018 17.1363 17.8018 15.3781V11.8359H30.3584Z" fill="#50E6FF"/>
    <path d="M30.3331 8.18219H17.8018V12.2304C17.8018 13.9972 20.61 15.4209 24.0843 15.4209C27.5587 15.4209 30.3668 13.9886 30.3668 12.2304C30.3668 12.2304 30.3584 8.20792 30.3331 8.18219Z" fill="#0078D7"/>
    <path d="M30.3668 5.67786H17.8018V9.03134C17.8018 10.7981 20.61 12.2219 24.0843 12.2219C27.5587 12.2219 30.3668 10.7896 30.3668 9.03134C30.3668 9.03134 30.3668 5.70359 30.3668 5.67786Z" fill="#50E6FF"/>
    <path d="M24.0843 9.07416C27.554 9.07416 30.3668 7.64571 30.3668 5.88364C30.3668 4.12156 27.554 2.69312 24.0843 2.69312C20.6146 2.69312 17.8018 4.12156 17.8018 5.88364C17.8018 7.64571 20.6146 9.07416 24.0843 9.07416Z" fill="#0078D7"/>
    <path d="M10.111 41.8801V40.7995H9.01475C8.92199 40.0876 8.6437 39.4272 8.23049 38.8783L9.00631 38.0892L8.25579 37.3259L7.47996 38.1149C6.94026 37.6947 6.29936 37.4117 5.591 37.3173V36.2023H4.52845V37.3173C3.82852 37.4117 3.17919 37.6947 2.63948 38.1149L1.86366 37.3259L1.11313 38.0892L1.88896 38.8783C1.47575 39.4272 1.19746 40.079 1.1047 40.7995H0.00842285V41.8801H1.1047C1.19746 42.592 1.47575 43.2524 1.88896 43.8013L1.11313 44.5904L1.86366 45.3537L2.63948 44.5647C3.17919 44.9849 3.82009 45.268 4.52845 45.3623V46.4773H5.591V45.3623C6.29092 45.268 6.94026 44.9849 7.47996 44.5647L8.25579 45.3537L9.00631 44.5904L8.23049 43.8013C8.6437 43.2524 8.92199 42.6006 9.01475 41.8801H10.111ZM5.05972 43.2867C4.00561 43.2867 3.14546 42.4119 3.14546 41.3398C3.14546 40.2677 4.00561 39.3929 5.05972 39.3929C6.11383 39.3929 6.97399 40.2677 6.97399 41.3398C6.97399 42.4119 6.11383 43.2867 5.05972 43.2867Z" fill="#0078D4"/>
    <path d="M20.3992 46.5287L12.3289 46.563V38.8526L13.8721 38.0207L14.8756 36.2796H20.3992V46.5287Z" fill="#0078D4"/>
    <path d="M14.8672 36.271V38.8612H12.3204L14.8672 36.271Z" fill="#50E6FF"/>
    <path d="M35.4687 38.4152H25.3577V46.5889H35.4687V38.4152Z" fill="#0078D4"/>
    <path d="M34.3978 37.3945V36.3138H32.804V37.3945H28.0141V36.3138H26.4203V37.3945H25.3577V38.4752H35.4687V37.3945H34.3978Z" fill="#50E6FF"/>
    <path d="M47.9916 45.4995H37.8806V46.5802H47.9916V45.4995Z" fill="#50E6FF"/>
    <path d="M43.6824 44.3674H42.2151V45.937H43.6824V44.3674Z" fill="#50E6FF"/>
    <path d="M28.5452 40.0962H26.4202V42.2576H28.5452V40.0962Z" fill="#50E6FF"/>
    <path d="M34.3977 40.0962H32.2726V42.2576H34.3977V40.0962Z" fill="#50E6FF"/>
    <path d="M31.48 40.0962H29.3464V42.2576H31.4715V40.0962H31.48Z" fill="#50E6FF"/>
    <path d="M28.5452 43.3468H26.4202V45.5081H28.5452V43.3468Z" fill="#50E6FF"/>
    <path d="M34.3977 43.3468H32.2726V45.5081H34.3977V43.3468Z" fill="#50E6FF"/>
    <path d="M31.48 43.3468H29.3464V45.5081H31.4715V43.3468H31.48Z" fill="#50E6FF"/>
    <path d="M47.9916 36.271H37.8806V44.4446H47.9916V36.271Z" fill="#0078D4"/>
    <path d="M46.9375 37.3345H38.9347V43.3726H46.9375V37.3345Z" fill="#0078D4"/>
    <path d="M37.8721 36.2538V44.4532H48V36.2538H37.8721V36.2538ZM46.9375 43.3726H38.9347V37.3345H46.9375V43.3726Z" fill="#50E6FF"/>
    <path d="M24.6999 26.0304V20.7643H23.435V26.0304H4.79828V33.8867H6.06321V27.3169H42.2993V33.8867H43.5643V26.0304H24.6999Z" fill="#0078D4"/>
</svg>
