<svg data-slug-id="maps" xmlns="http://www.w3.org/2000/svg" viewBox="0 0 49 49">
    <path d="M11.5308 2.32495H2.39209V11.4678H11.5308V2.32495Z" fill="#50E6FF"/>
    <path d="M45.8009 2.32495H13.8154V22.8964H45.8009V2.32495Z" fill="#0078D7"/>
    <path d="M11.5308 13.7535H2.39209V22.8964H11.5308V13.7535Z" fill="#0078D4"/>
    <path d="M45.8009 25.1821H13.8154V45.7536H45.8009V25.1821Z" fill="#0078D4"/>
    <path d="M40.6222 21.1442C40.6253 23.0106 40.118 24.8423 39.1554 26.441C39.0792 26.5667 39.0031 26.6901 38.9216 26.8121C37.9848 28.232 36.7106 29.3972 35.2131 30.2035C33.7156 31.0097 32.0417 31.4317 30.3411 31.4317C28.6406 31.4317 26.9666 31.0097 25.4691 30.2035C23.9716 29.3972 22.6974 28.232 21.7606 26.8121C21.6799 26.6901 21.6015 26.5667 21.5268 26.441C20.7113 25.0821 20.2207 23.553 20.0933 21.9731C19.966 20.3931 20.2053 18.8051 20.7927 17.333C21.3801 15.8609 22.2996 14.5446 23.4794 13.4867C24.6592 12.4288 26.0675 11.658 27.5942 11.2345C29.121 10.811 30.7249 10.7463 32.2807 11.0453C33.8366 11.3443 35.3024 11.9991 36.5636 12.9584C37.8248 13.9178 38.8473 15.1557 39.5513 16.5757C40.2554 17.9957 40.6218 19.5592 40.6222 21.1442Z" fill="#50E6FF"/>
    <path d="M40.1865 24.1155C39.9411 24.9306 39.5947 25.7118 39.1553 26.4408L38.9215 26.8119L30.341 40.4202L21.7606 26.8119L21.5268 26.4408C21.0873 25.7118 20.7409 24.9306 20.4956 24.1155H40.1865Z" fill="#50E6FF"/>
    <path d="M35.4818 21.1441C35.4823 21.6473 35.4089 22.1479 35.264 22.6298C35.1417 23.0375 34.9685 23.4282 34.7484 23.7925C34.7111 23.855 34.6722 23.9174 34.6311 23.9784C34.1626 24.688 33.5255 25.2704 32.7768 25.6732C32.0282 26.0761 31.1914 26.287 30.3413 26.287C29.4912 26.287 28.6544 26.0761 27.9057 25.6732C27.1571 25.2704 26.5199 24.688 26.0514 23.9784C26.011 23.9174 25.9714 23.855 25.9341 23.7925C25.714 23.4282 25.5408 23.0375 25.4185 22.6298C25.2051 21.9224 25.1465 21.1772 25.2468 20.445C25.3471 19.7129 25.604 19.011 25.9998 18.3871C26.3956 17.7631 26.9212 17.2319 27.5407 16.8294C28.1603 16.427 28.8592 16.1629 29.5899 16.055C30.3207 15.9471 31.0661 15.998 31.7754 16.2043C32.4847 16.4105 33.1412 16.7672 33.7003 17.2502C34.2594 17.7331 34.708 18.3309 35.0154 19.0028C35.3228 19.6748 35.4819 20.4051 35.4818 21.1441V21.1441Z" fill="#0078D4"/>
    <path d="M11.5308 25.1821H2.39209V45.7536H11.5308V25.1821Z" fill="#50E6FF"/>
</svg>
