<svg data-slug-id="maps-data-service" xmlns="http://www.w3.org/2000/svg" viewBox="0 0 49 49">
    <path d="M36.4805 0.93396H48.6897V13.1432H43.6376V5.98607H36.4805V0.93396Z" fill="#0078D4"/>
    <path d="M20.056 13.1393H15.0039V0.930054H27.2132V5.98216H20.056V13.1393Z" fill="#0078D4"/>
    <path d="M43.6376 22.3715H48.6897V34.5807H36.4805V29.5286H43.6376V22.3715Z" fill="#0078D4"/>
    <path d="M15.0039 34.5885V22.3793H20.056V29.5364H27.2132V34.5885H15.0039Z" fill="#0078D4"/>
    <path d="M24.694 20.3025C23.2963 20.3025 22.168 19.1742 22.168 17.7764C22.168 16.3787 23.2963 15.2504 24.694 15.2504C26.0918 15.2504 27.2201 16.3787 27.2201 17.7764C27.2201 19.1658 26.0834 20.3025 24.694 20.3025Z" fill="#50E6FF"/>
    <path d="M31.8503 13.1423C30.4525 13.1423 29.3242 12.014 29.3242 10.6163C29.3242 9.21851 30.4525 8.09021 31.8503 8.09021C33.248 8.09021 34.3763 9.21851 34.3763 10.6163C34.3763 12.0056 33.2396 13.1423 31.8503 13.1423Z" fill="#50E6FF"/>
    <path d="M39.0065 20.3025C37.6088 20.3025 36.4805 19.1742 36.4805 17.7764C36.4805 16.3787 37.6088 15.2504 39.0065 15.2504C40.4043 15.2504 41.5326 16.3787 41.5326 17.7764C41.5326 19.1658 40.3959 20.3025 39.0065 20.3025Z" fill="#50E6FF"/>
    <path d="M31.8503 27.4587C30.4525 27.4587 29.3242 26.3304 29.3242 24.9327C29.3242 23.5349 30.4525 22.4066 31.8503 22.4066C33.248 22.4066 34.3763 23.5349 34.3763 24.9327C34.3763 26.322 33.2396 27.4587 31.8503 27.4587Z" fill="#50E6FF"/>
    <path d="M31.8503 20.3025C30.4525 20.3025 29.3242 19.1742 29.3242 17.7764C29.3242 16.3787 30.4525 15.2504 31.8503 15.2504C33.248 15.2504 34.3763 16.3787 34.3763 17.7764C34.3763 19.1658 33.2396 20.3025 31.8503 20.3025Z" fill="#50E6FF"/>
    <path d="M3.22137 5.98607C1.82362 5.98607 0.695312 4.85777 0.695312 3.46002C0.695312 2.06226 1.82362 0.93396 3.22137 0.93396C4.61912 0.93396 5.74742 2.06226 5.74742 3.46002C5.74742 4.84935 4.6107 5.98607 3.22137 5.98607Z" fill="#50E6FF"/>
    <path d="M12.9037 0.93396H7.85156V5.98607H12.9037V0.93396Z" fill="#50E6FF"/>
    <path d="M5.74742 8.09021H0.695312V13.1423H5.74742V8.09021Z" fill="#50E6FF"/>
    <path d="M12.9037 8.09021H7.85156V13.1423H12.9037V8.09021Z" fill="#50E6FF"/>
    <path d="M5.74742 15.2504H0.695312V20.3025H5.74742V15.2504Z" fill="#50E6FF"/>
    <path d="M10.3776 20.3025C8.97987 20.3025 7.85156 19.1742 7.85156 17.7764C7.85156 16.3787 8.97987 15.2504 10.3776 15.2504C11.7754 15.2504 12.9037 16.3787 12.9037 17.7764C12.9037 19.1658 11.7669 20.3025 10.3776 20.3025Z" fill="#50E6FF"/>
    <path d="M5.74742 29.5629H0.695312V34.615H5.74742V29.5629Z" fill="#50E6FF"/>
    <path d="M12.9037 36.723H7.85156V41.7751H12.9037V36.723Z" fill="#50E6FF"/>
    <path d="M46.1647 48.9314C44.767 48.9314 43.6387 47.8031 43.6387 46.4053C43.6387 45.0076 44.767 43.8793 46.1647 43.8793C47.5625 43.8793 48.6908 45.0076 48.6908 46.4053C48.6908 47.7947 47.5541 48.9314 46.1647 48.9314Z" fill="#50E6FF"/>
    <path d="M34.3763 43.8793H29.3242V48.9314H34.3763V43.8793Z" fill="#50E6FF"/>
    <path d="M41.5326 36.723H36.4805V41.7751H41.5326V36.723Z" fill="#50E6FF"/>
    <path d="M17.5358 48.9314C16.1381 48.9314 15.0098 47.8031 15.0098 46.4053C15.0098 45.0076 16.1381 43.8793 17.5358 43.8793C18.9336 43.8793 20.0619 45.0076 20.0619 46.4053C20.0619 47.7947 18.9252 48.9314 17.5358 48.9314Z" fill="#50E6FF"/>
    <path d="M12.9037 43.8793H7.85156V48.9314H12.9037V43.8793Z" fill="#50E6FF"/>
    <path d="M27.2201 36.723H22.168V41.7751H27.2201V36.723Z" fill="#50E6FF"/>
</svg>
