<svg data-slug-id="media-services-gray" xmlns="http://www.w3.org/2000/svg" viewBox="0 0 84 96">
<path d="M41.568 93.1132L2.5 70.5566V25.4434L41.568 2.88676L80.6379 25.4434V70.5566L41.568 93.1132Z" stroke="#CDCDD0" stroke-width="5" fill="none"/>
<path d="M59.8503 28.7194C49.1943 18.1095 31.9757 18.1095 21.3082 28.7194C10.6541 39.3735 10.6541 56.6266 21.3082 67.2807C31.9623 77.8887 49.1943 77.8887 59.8503 67.2807C70.4928 56.6343 70.4928 39.3812 59.8503 28.7194Z" fill="none"/>
<path d="M26.1009 62.4814C18.0995 54.4795 18.099 41.5202 26.1 33.5158C34.1165 25.5438 47.0522 25.5449 55.0562 33.5154C63.0523 41.5259 63.0507 54.4869 55.0565 62.4805C47.0523 70.4515 34.1076 70.452 26.1009 62.4814Z" stroke="#CDCDD0" stroke-width="3" fill="none"/>
<path d="M36 58V38L50 48L36 58Z" fill="none" stroke="#CDCDD0" stroke-width="2"/>
</svg>
