<svg data-slug-id="media-services" xmlns="http://www.w3.org/2000/svg"  viewBox="0 0 18 18"><defs><linearGradient id="media-services:beb32256-16ae-4a59-8a9d-6f85da267b9b" x1="9" y1="0.5" x2="9" y2="17.5" gradientUnits="userSpaceOnUse"><stop offset="0" stop-color="#c69aeb"/><stop offset="0.09" stop-color="#bb90e4"/><stop offset="0.49" stop-color="#926bc9"/><stop offset="0.81" stop-color="#7854b8"/><stop offset="1" stop-color="#6f4bb2"/></linearGradient></defs> <path d="M8.71,17.42l-6.92-4A.56.56,0,0,1,1.5,13V5a.56.56,0,0,1,.29-.49l6.92-4a.55.55,0,0,1,.58,0l6.92,4A.56.56,0,0,1,16.5,5V13a.56.56,0,0,1-.29.49l-6.92,4A.55.55,0,0,1,8.71,17.42Z" fill="url(#media-services:beb32256-16ae-4a59-8a9d-6f85da267b9b)"/><path d="M12.46,5.54a4.89,4.89,0,1,0,0,6.92,4.9,4.9,0,0,0,0-6.92" fill="#f2f2f2"/><path d="M11.75,6.24a3.9,3.9,0,1,0,0,5.52,3.91,3.91,0,0,0,0-5.52" fill="#0078d4"/><path d="M11,9.23a.27.27,0,0,0,0-.47l-3.08-2A.31.31,0,0,0,7.46,7v4a.31.31,0,0,0,.47.24Z" fill="#f2f2f2"/></svg>