<svg data-slug-id="messages01" viewBox="0 0 49 49" xmlns="http://www.w3.org/2000/svg">
<path d="M47.9615 0.617188H0.0195312V35.8506H12.6549V45.7466L22.531 35.8506H47.9615V0.617188V0.617188Z" fill="#0078D4"/>
<path d="M37.9172 9.24332C37.9172 8.54487 37.3536 7.97266 36.6469 7.97266H11.4099C10.7117 7.97266 10.1396 8.53646 10.1396 9.24332C10.1396 9.94176 10.7033 10.514 11.4099 10.514H36.6469C37.3536 10.514 37.9172 9.94176 37.9172 9.24332Z" fill="#50E6FF"/>
<path d="M30.2954 9.23603C30.2954 10.6329 31.4311 11.7689 32.8275 11.7689C34.224 11.7689 35.3596 10.6329 35.3596 9.23603C35.3596 7.83914 34.224 6.70312 32.8275 6.70312C31.4311 6.71154 30.2954 7.83914 30.2954 9.23603Z" fill="white"/>
<path d="M37.9172 18.0949C37.9172 17.3964 37.3536 16.8242 36.6469 16.8242H11.4099C10.7117 16.8242 10.1396 17.388 10.1396 18.0949C10.1396 18.7933 10.7033 19.3655 11.4099 19.3655H36.6469C37.3536 19.3655 37.9172 18.7933 37.9172 18.0949Z" fill="#50E6FF"/>
<path d="M21.4375 18.0876C21.4375 19.4845 22.5732 20.6205 23.9696 20.6205C25.3661 20.6205 26.5017 19.4845 26.5017 18.0876C26.5017 16.6907 25.3661 15.5547 23.9696 15.5547C22.5732 15.5631 21.4375 16.6907 21.4375 18.0876Z" fill="white"/>
<path d="M37.9172 26.9308C37.9172 26.2324 37.3536 25.6602 36.6469 25.6602H11.4099C10.7117 25.6602 10.1396 26.224 10.1396 26.9308C10.1396 27.6293 10.7033 28.2015 11.4099 28.2015H36.6469C37.3536 28.2015 37.9172 27.6293 37.9172 26.9308Z" fill="#50E6FF"/>
<path d="M12.6797 26.9235C12.6797 28.3204 13.8154 29.4564 15.2118 29.4564C16.6083 29.4564 17.7439 28.3204 17.7439 26.9235C17.7439 25.5266 16.6083 24.3906 15.2118 24.3906C13.8069 24.399 12.6797 25.5266 12.6797 26.9235Z" fill="white"/>
</svg>
