<svg data-slug-id="messages02" viewBox="0 0 49 49" xmlns="http://www.w3.org/2000/svg">
<path d="M41.5773 40.2982C45.0383 36.4245 47.2446 31.3803 47.531 25.8477H42.7057C42.4362 30.0498 40.7604 33.8898 38.1499 36.8708L41.5773 40.2982Z" fill="#0078D4"/>
<path d="M6.55413 8.82031C3.03413 12.7108 0.802549 17.7803 0.507812 23.3635H5.5436C5.8215 19.1698 7.48887 15.3466 10.091 12.3656L6.55413 8.82031Z" fill="#50E6FF"/>
<path d="M8.32324 42.1781C12.2222 45.6644 17.2832 47.8791 22.858 48.1486V43.2054C18.6559 42.9276 14.8411 41.2433 11.8601 38.6328L8.32324 42.1781Z" fill="#0078D4"/>
<path d="M0.507812 25.8477C0.794128 31.4308 3.02571 36.5003 6.53729 40.3908L10.0826 36.8456C7.48887 33.8645 5.82992 30.0413 5.55202 25.8477H0.507812Z" fill="#0078D4"/>
<path d="M41.5612 8.91406L38.1338 12.3414C40.7527 15.3225 42.4285 19.1541 42.698 23.3646H47.5233C47.2369 17.8235 45.0306 12.7877 41.5612 8.91406Z" fill="#50E6FF"/>
<path d="M25.3414 48.1299C30.8909 47.8268 35.9351 45.5868 39.8004 42.092L36.3646 38.6562C33.3751 41.2668 29.5435 42.9341 25.333 43.212L25.3414 48.1299Z" fill="#0078D4"/>
<path d="M25.3418 1.08984V6.01616C29.5439 6.28563 33.3671 7.953 36.3565 10.5551L39.7923 7.11932C35.9186 3.633 30.8829 1.40142 25.3418 1.08984Z" fill="#50E6FF"/>
<path d="M22.8574 1.07812C17.2826 1.35602 12.23 3.56234 8.33105 7.04023L11.8679 10.5771C14.8405 7.97497 18.6553 6.3076 22.8489 6.01286L22.8574 1.07812Z" fill="#50E6FF"/>
<path d="M27.7589 13.2344H12.6768V23.3312H15.0178V25.9165L17.7462 23.3312H27.7589V13.2344V13.2344Z" fill="#0078D4"/>
<path d="M25.2993 25.8555V33.4765H30.3604L32.9288 35.9439V33.4765H35.413V25.8555H25.2993Z" fill="#50E6FF"/>
</svg>
