<svg data-slug-id="messages07" viewBox="0 0 49 49" xmlns="http://www.w3.org/2000/svg">
<path d="M34.8228 33.75L38.4083 37.338L34.8228 40.9259V33.75Z" fill="#50E6FF"/>
<path d="M13.2759 15.5002L9.69043 11.9122L13.2759 8.32422V15.5002Z" fill="#0078D4"/>
<path d="M11.3484 48.5678H24.0492C30.3029 48.5678 35.3781 43.4891 35.3781 37.2312C35.3781 30.9733 30.3029 25.8945 24.0492 25.8945H11.3484C5.09481 25.8861 0.0195312 30.9649 0.0195312 37.2228C0.0195312 43.4891 5.09481 48.5678 11.3484 48.5678Z" fill="#50E6FF"/>
<path d="M20.1696 37.0083C20.2874 38.5412 19.0249 39.8045 17.493 39.6866C16.2894 39.594 15.3131 38.617 15.2205 37.4125C15.1027 35.8797 16.3652 34.6163 17.897 34.7342C19.1006 34.8353 20.077 35.8039 20.1696 37.0083Z" fill="white"/>
<path d="M12.5944 37.0083C12.7122 38.5412 11.4497 39.8045 9.91784 39.6866C8.71425 39.594 7.73791 38.617 7.64533 37.4125C7.52749 35.8797 8.79 34.6163 10.3218 34.7342C11.5254 34.8353 12.5018 35.8039 12.5944 37.0083Z" fill="white"/>
<path d="M27.7443 37.0083C27.8621 38.5412 26.5996 39.8045 25.0677 39.6866C23.8642 39.594 22.8878 38.617 22.7952 37.4125C22.6774 35.8797 23.9399 34.6163 25.4717 34.7342C26.6753 34.8353 27.6517 35.8039 27.7443 37.0083Z" fill="white"/>
<path d="M23.9148 23.2905H36.6157C42.8693 23.2905 47.9446 18.2117 47.9446 11.9538C47.9446 5.69593 42.8777 0.617188 36.6157 0.617188H23.9148C17.6612 0.617188 12.5859 5.69593 12.5859 11.9538C12.5859 18.2201 17.6612 23.2905 23.9148 23.2905Z" fill="#0078D4"/>
<path d="M32.7355 11.7426C32.8533 13.2755 31.5908 14.5389 30.059 14.421C28.8554 14.3283 27.879 13.3513 27.7864 12.1469C27.6686 10.614 28.9311 9.35066 30.463 9.46858C31.675 9.56122 32.6429 10.5382 32.7355 11.7426Z" fill="#50E6FF"/>
<path d="M25.1603 11.7426C25.2781 13.2755 24.0156 14.5389 22.4838 14.421C21.2802 14.3283 20.3038 13.3513 20.2112 12.1469C20.0934 10.614 21.3559 9.35066 22.8878 9.46858C24.0998 9.56122 25.0677 10.5382 25.1603 11.7426Z" fill="#50E6FF"/>
<path d="M40.3102 11.7426C40.428 13.2755 39.1655 14.5389 37.6337 14.421C36.4301 14.3283 35.4537 13.3513 35.3611 12.1469C35.2433 10.614 36.5058 9.35066 38.0377 9.46858C39.2497 9.56122 40.2176 10.5382 40.3102 11.7426Z" fill="#50E6FF"/>
</svg>
