<svg data-slug-id="messages04" viewBox="0 0 49 49" xmlns="http://www.w3.org/2000/svg">
<rect x="4.90234" y="4.66016" width="40.3457" height="29.4079" fill="white"/>
<path d="M0.0195312 0.617188V38.5108H48.0195V0.617188H0.0195312ZM35.388 28.4058H4.98795V25.8796H35.388V28.4058ZM35.388 19.564H4.98795V17.0377H35.388V19.564ZM40.4406 29.6689C39.9409 29.6689 39.4525 29.5208 39.037 29.2432C38.6216 28.9656 38.2978 28.571 38.1066 28.1094C37.9154 27.6478 37.8653 27.1399 37.9628 26.6498C38.0603 26.1598 38.3009 25.7097 38.6542 25.3564C39.0075 25.0031 39.4577 24.7625 39.9477 24.665C40.4378 24.5675 40.9457 24.6175 41.4074 24.8087C41.869 24.9999 42.2635 25.3237 42.5411 25.7392C42.8187 26.1546 42.9669 26.643 42.9669 27.1427C42.9669 27.8127 42.7007 28.4552 42.227 28.929C41.7532 29.4028 41.1106 29.6689 40.4406 29.6689ZM40.4406 20.8271C39.9409 20.8271 39.4525 20.6789 39.037 20.4013C38.6216 20.1238 38.2978 19.7292 38.1066 19.2676C37.9154 18.806 37.8653 18.2981 37.9628 17.808C38.0603 17.318 38.3009 16.8678 38.6542 16.5145C39.0075 16.1612 39.4577 15.9206 39.9477 15.8232C40.4378 15.7257 40.9457 15.7757 41.4074 15.9669C41.869 16.1581 42.2635 16.4819 42.5411 16.8973C42.8187 17.3128 42.9669 17.8012 42.9669 18.3009C42.9669 18.9709 42.7007 19.6134 42.227 20.0872C41.7532 20.5609 41.1106 20.8271 40.4406 20.8271Z" fill="#0078D4"/>
<path d="M35.3892 43.5664H12.6523V48.6189H35.3892V43.5664Z" fill="#0078D4"/>
<path d="M42.9667 10.7217H37.9141L40.4404 6.67969L42.9667 10.7217Z" fill="#50E6FF"/>
<path d="M35.3883 8.19531H4.98828V10.7216H35.3883V8.19531Z" fill="#50E6FF"/>
</svg>
