<svg data-slug-id="meter-plus" viewBox="0 0 49 49" xmlns="http://www.w3.org/2000/svg">
    <path d="M31.1392 47.2923C34.7785 47.2923 37.7289 44.3419 37.7289 40.7025C37.7289 37.0631 34.7785 34.1128 31.1392 34.1128C27.4998 34.1128 24.5494 37.0631 24.5494 40.7025C24.5494 44.3419 27.4998 47.2923 31.1392 47.2923Z" fill="#0078D7"/>
    <path d="M34.4622 1.29089H2.41113V6.06945H34.4622V1.29089Z" fill="#50E6FF"/>
    <path d="M34.4622 8.26855H2.41113V18.2299H34.4622V8.26855Z" fill="#3BCAF4"/>
    <path d="M31.1229 32.4598C32.3114 32.4598 33.4434 32.7105 34.4622 33.1713V20.3073H2.41113V44.9762H24.1127C23.3446 43.723 22.8999 42.2514 22.8999 40.6828C22.8999 36.1468 26.5869 32.4598 31.1229 32.4598Z" fill="#0078D7"/>
    <path d="M31.7128 36.5086H30.5323V44.8771H31.7128V36.5086Z" fill="#50E6FF"/>
    <path d="M35.3035 40.1621H26.9349V41.3426H35.3116V40.1621H35.3035Z" fill="#50E6FF"/>
</svg>
