<svg data-slug-id="meter-with-dial" xmlns="http://www.w3.org/2000/svg" viewBox="0 0 48 48">
    <path d="M11.4246 36.2053L7.04156 40.5884C3.4877 36.7088 1.23692 31.6446 1 26.0176H7.21925C7.45618 29.9269 8.99619 33.4511 11.4246 36.2053Z" fill="#50E6FF"/>
    <path d="M11.4246 13.8463C8.99619 16.6006 7.42656 20.1248 7.21925 24.0045H1C1.23692 18.3775 3.4877 13.3133 7.04156 9.43359L11.4246 13.8463Z" fill="#50E6FF"/>
    <path d="M23.006 2V8.21928C19.0968 8.45618 15.5725 9.99618 12.8479 12.4247L8.46484 8.04158C12.3444 4.48771 17.4087 2.23693 23.006 2Z" fill="#50E6FF"/>
    <path d="M39.5882 8.04158L35.2051 12.4247C32.4508 9.99618 28.9266 8.42658 25.0469 8.21928V2C30.6443 2.23693 35.7381 4.48771 39.5882 8.04158Z" fill="#50E6FF"/>
    <path d="M47.0535 24.0041H40.8343C40.5973 20.0949 39.0573 16.5706 36.6289 13.846L41.012 9.46289C44.5658 13.3425 46.8166 18.4068 47.0535 24.0041Z" fill="#50E6FF"/>
    <path d="M47.0535 26.0176C46.8166 31.6446 44.5658 36.7088 41.012 40.5884L36.6289 36.2053C39.0573 33.4511 40.627 29.9269 40.8343 26.0472L47.0535 26.0176Z" fill="#50E6FF"/>
    <path d="M39.1163 24.0928C38.909 20.687 37.6059 17.5478 35.3255 14.9713C34.9405 14.527 34.4963 14.0828 34.0521 13.6978C31.4755 11.4174 28.3066 10.1143 24.9009 9.90697C24.3085 9.87737 23.6866 9.87737 23.0943 9.90697C19.6885 10.1143 16.5493 11.4174 13.9727 13.6978C13.5285 14.0828 13.0843 14.527 12.6993 14.9713C10.4189 17.5478 9.11584 20.7167 8.90853 24.1224C8.87891 24.4186 8.87891 24.7148 8.87891 25.0109C8.87891 25.3367 8.90853 25.6328 8.90853 25.929C9.11584 29.3348 10.4189 32.474 12.6993 35.0506L15.572 32.5036C13.8839 30.5786 12.9066 28.239 12.7585 25.6921C12.7289 25.4551 12.7289 25.2478 12.7289 25.0109C12.7289 24.774 12.7585 24.5371 12.7585 24.3298C12.9066 21.7828 13.8839 19.4136 15.572 17.5182C15.8681 17.1924 16.1939 16.8666 16.5197 16.5705C18.4447 14.8824 20.7843 13.9051 23.3312 13.757C23.7459 13.7274 24.2197 13.7274 24.6639 13.757C27.2109 13.9051 29.5801 14.8824 31.4755 16.5705C31.8013 16.837 32.127 17.1924 32.4232 17.5182C34.1113 19.4432 35.0886 21.7828 35.2367 24.3298C35.2663 24.5667 35.2663 24.774 35.2663 25.0109C35.2663 25.2478 35.2367 25.4848 35.2367 25.6921C35.0886 28.239 34.1113 30.6082 32.4232 32.5036C32.127 32.8294 31.8013 33.1552 31.4755 33.4513C31.4163 33.5106 31.357 33.5698 31.2682 33.629L32.9859 37.1829V37.2125C33.3413 36.946 33.6967 36.6794 34.0224 36.3833C34.4667 35.9983 34.9109 35.554 35.2959 35.1098C37.5763 32.5333 38.8794 29.3644 39.0867 25.9586C39.1163 25.6328 39.1163 25.3367 39.1163 25.0405C39.1459 24.6851 39.1163 24.389 39.1163 24.0928Z" fill="#0078D4"/>
    <path d="M32.1863 37.5692L26.6482 26.108C26.7962 25.7823 26.8555 25.4269 26.8555 25.0419C26.8555 23.5315 25.6412 22.3172 24.1308 22.3172C23.9828 22.3172 23.8347 22.3172 23.7162 22.3468L21.732 20.6292C21.7024 20.5995 21.6728 20.5995 21.6432 20.5995C21.584 20.5995 21.4951 20.6588 21.5247 20.7476L22.1467 23.2057C21.7025 23.6795 21.4062 24.3311 21.4062 25.0715C21.4062 26.5819 22.6501 27.7961 24.1308 27.7961C24.1901 27.7961 24.2493 27.7961 24.3085 27.7961L31.9494 37.7469C31.979 37.7765 32.0382 37.8061 32.0679 37.8061C32.1271 37.8061 32.1566 37.7765 32.1863 37.7469C32.216 37.6581 32.216 37.6285 32.1863 37.5692Z" fill="#0078D4"/>
</svg>
