<svg data-slug-id="meter-full-dial" xmlns="http://www.w3.org/2000/svg" viewBox="0 0 49 49">
  <path d="m24.3933 47.1436c12.4785 0 22.5943-10.1367 22.5943-22.6411 0-12.5043-10.1158-22.64105-22.5943-22.64105s-22.59435 10.13675-22.59435 22.64105c0 12.5044 10.11585 22.6411 22.59435 22.6411z" fill="#0078d4"/>
  <path d="m33.6991 8.12126c-2.7411-1.56248-5.9192-2.45817-9.3059-2.45817-10.3884 0-18.81038 8.43941-18.81038 18.84931 0 3.6524 1.03289 7.0561 2.8305 9.9521l.22843-.2189c-1.22159-2.1795-1.9168-4.6875-1.9168-7.3646 0-8.3299 6.73365-15.0775 15.04635-15.0775 2.0558 0 4.0123.418 5.8 1.1644z" fill="#50e6ff"/>
  <path d="m40.5321 14.8088-4.8168 6.3694c.715 1.7516 1.1123 3.6823 1.1123 5.6926 0 1.4232-.1986 2.8065-.5661 4.1102l3.9627 3.7321c1.8969-2.9458 2.9894-6.439 2.9894-10.2009 0-3.553-.9832-6.877-2.6815-9.7034z" fill="#50e6ff"/>
  <g fill="#fff">
    <path d="m38.3173 11.8232c.2383-.8061-.4469-1.6123-1.2315-1.6123-.1192 0-.2384.0199-.3576.0598-.139.0497-.288.1194-.427.2288l-5.4823 4.3193-6.6442 5.2348.0298.2786-.1092.0797 4.4592 4.4386 5.2836-6.9764 4.2408-5.6031c.1192-.1493.1987-.2985.2384-.4478z"/>
    <path d="m24.3933 29.3491c2.6712 0 4.8366-2.1699 4.8366-4.8467 0-2.6767-2.1654-4.8466-4.8366-4.8466-2.6713 0-4.8367 2.1699-4.8367 4.8466 0 2.6768 2.1654 4.8467 4.8367 4.8467z"/>
  </g>
</svg>
