<svg data-slug-id="microchip-signal" xmlns="http://www.w3.org/2000/svg" viewBox="0 0 48 48">
	<path d="M35.5325 32.7832V30.8548H32.8837V27.5874H29.8552V24.918H27.9234V27.5874H25.1227V24.918H23.1909V27.5874H20.3817V24.918H18.4499V27.5874H15.2696V30.8548H12.6123V32.7832H15.2696V35.5874H12.6123V37.5159H15.2696V40.3117H12.6123V42.2401H15.2696V45.1706H18.4499V47.9917H20.3817V45.1706H23.1909V47.9917H25.1227V45.1706H27.9234V47.9917H29.8552V45.1706H32.8837V42.2401H35.5325V40.3117H32.8837V37.5159H35.5325V35.5874H32.8837V32.7832H35.5325Z" fill="#0078D4"/>
	<path d="M29.8883 30.5742H18.2637V42.1784H29.8883V30.5742Z" fill="#50E6FF"/>
	<path d="M23.9241 2.08077C27.155 2.08077 30.3016 2.6955 33.2879 3.89971C36.3754 5.14603 39.1424 6.98182 41.5129 9.35655L42.8795 7.99234C37.6492 2.77129 30.7825 0.152344 23.9241 0.152344C17.0658 0.152344 10.2074 2.76287 4.96875 7.99234L6.33536 9.34813C8.71427 6.9734 11.4812 5.14603 14.5603 3.89129C17.5466 2.68708 20.6932 2.08077 23.9241 2.08077Z" fill="#0078D4"/>
	<path d="M23.9241 8.52998C28.8422 8.52998 33.4651 10.4416 36.9407 13.911L38.3073 12.5468C34.334 8.58051 29.1291 6.60156 23.9241 6.60156C18.7192 6.60156 13.5143 8.58051 9.54102 12.5468L10.9076 13.911C14.3916 10.4416 19.0145 8.52998 23.9241 8.52998Z" fill="#0078D4"/>
	<path d="M23.9239 15.8659C26.8765 15.8659 29.6519 17.0112 31.744 19.0996L33.1106 17.7354C30.5714 15.2007 27.2477 13.9375 23.9239 13.9375C20.6002 13.9375 17.2765 15.2007 14.7373 17.7354L16.1039 19.0996C18.196 17.0196 20.9714 15.8659 23.9239 15.8659Z" fill="#0078D4"/>
</svg>
