<svg data-slug-id="microchip" xmlns="http://www.w3.org/2000/svg" viewBox="0 0 49 48">
<path d="M8.57141 8.74219V38.9993V39.085H38.8286V8.74219H8.57141ZM34.8 12.9422V34.6279H12.7714V12.9422H34.8Z" fill="white"/>
<path d="M8.57143 39.0857V8.74286H38.8286V39.0857H8.57143ZM26.0571 0V4.45714H21.6V0H17.1429V4.45714H12.7714V0H8.48571V4.45714H4.02857V8.74286H0V13.1143H4.02857V17.4857H0V21.8571H4.02857V26.2286H0V30.6H4.02857V34.9714H0V39.2571H4.02857V43.8857H8.57143V48H12.8571V43.8857H17.2286V48H21.6V43.8857H25.9714V48H30.3429V43.8857H34.7143V47.9143H39.0857V43.8857H43.4571V39.2571H47.9143V34.9714H43.4571V30.6H48.0857V26.3143H47.5714H43.5429V22.1143H48V17.5714H43.5429V13.1143H48V9H43.5429V4.45714H39.1714V0H35.0571V4.37143H34.9714H30.5143V0H26.0571Z" fill="#0078D4"/>
<path d="M34.7999 12.9441H12.7714V34.6298H34.7999V12.9441Z" fill="#50E6FF"/>
</svg>
