<svg data-slug-id="migrate-to-dot-net" xmlns="http://www.w3.org/2000/svg" viewBox="0 0 48 48">
<path d="M48 15C48 23.2862 41.2806 30 32.9875 30C24.7194 29.975 18 23.2612 18 15C18 6.73877 24.7194 0 33.0125 0C41.2806 0 48 6.71381 48 15Z" fill="#0078D4"/>
<path d="M0 48H10V38H0V48Z" fill="#0078D4"/>
<path d="M25.9252 22H10.2502V26.5446H18.256L3 41.8031L6.19486 45L21.4509 29.734V37.7376H26V22H25.9252Z" fill="#50E6FF"/>
<path d="M21.6768 19C21.4898 19 21.3293 18.9396 21.1951 18.8187C21.065 18.6978 21 18.5531 21 18.3846C21 18.2161 21.065 18.0714 21.1951 17.9505C21.3293 17.826 21.4898 17.7637 21.6768 17.7637C21.8679 17.7637 22.0305 17.826 22.1646 17.9505C22.2988 18.0714 22.3659 18.2161 22.3659 18.3846C22.3659 18.5531 22.2988 18.6978 22.1646 18.8187C22.0305 18.9396 21.8679 19 21.6768 19Z" fill="white"/>
<path d="M31.2195 18.8791H29.9634L25.4634 12.5989C25.3496 12.4414 25.2561 12.2766 25.1829 12.1044H25.1463C25.1789 12.2729 25.1951 12.6337 25.1951 13.1868V18.8791H24.1707V11H25.5L29.878 17.1813C30.061 17.4377 30.1789 17.6136 30.2317 17.7088H30.2561C30.2154 17.4817 30.1951 17.0952 30.1951 16.5495V11H31.2195V18.8791Z" fill="white"/>
<path d="M38.1463 18.8791H33.5122V11H37.9512V11.8352H34.5366V14.456H37.6951V15.2857H34.5366V18.044H38.1463V18.8791Z" fill="white"/>
<path d="M45 11.8352H42.4756V18.8791H41.4512V11.8352H38.9329V11H45V11.8352Z" fill="white"/>
</svg>
