<svg data-slug-id="mixed-group" xmlns="http://www.w3.org/2000/svg" viewBox="0 0 73 73">
	<path d="M45.5371 50.6385C45.5371 43.2818 51.4908 37.3281 58.8475 37.3281C66.2042 37.3281 72.1579 43.2818 72.1579 50.6385H45.5371Z" fill="#50E6FF"/>
	<path d="M66.3045 26.2636C66.3045 30.3844 62.9674 33.7088 58.8593 33.7088C54.7511 33.7088 51.4141 30.3717 51.4141 26.2636C51.4141 22.1554 54.7511 18.8184 58.8593 18.8184C62.9674 18.8184 66.3045 22.1554 66.3045 26.2636Z" fill="#50E6FF"/>
	<path d="M22.7837 35.4686C22.7837 28.1119 28.7373 22.1582 36.0941 22.1582C43.4508 22.1582 49.4045 28.1119 49.4045 35.4686H22.7837Z" fill="#0078D7"/>
	<path d="M43.5526 11.0995C43.5526 15.2203 40.2155 18.5447 36.1073 18.5447C31.9992 18.5447 28.6621 15.2077 28.6621 11.0995C28.6621 6.99138 31.9865 3.6543 36.0947 3.6543C40.2028 3.6543 43.5526 6.99138 43.5526 11.0995Z" fill="#0078D7"/>
	<path d="M22.7837 69.8397C22.7837 62.4829 28.7373 56.5293 36.0941 56.5293C43.4508 56.5293 49.4045 62.4829 49.4045 69.8397H22.7837Z" fill="#50E6FF"/>
	<path d="M43.5526 45.4765C43.5526 49.5973 40.2155 52.9217 36.1073 52.9217C31.9992 52.9217 28.6621 49.5846 28.6621 45.4765C28.6621 41.3683 31.9992 38.0312 36.1073 38.0312C40.2155 38.0312 43.5526 41.3557 43.5526 45.4765Z" fill="#50E6FF"/>
	<path d="M0.157715 50.6385C0.157715 43.2818 6.11137 37.3281 13.4681 37.3281C20.8249 37.3281 26.7785 43.2818 26.7785 50.6385H0.157715Z" fill="#0078D7"/>
	<path d="M20.9266 26.2636C20.9266 30.3844 17.5895 33.7088 13.4814 33.7088C9.37321 33.7088 6.03613 30.3717 6.03613 26.2636C6.03613 22.1554 9.36057 18.8184 13.4687 18.8184C17.5769 18.8184 20.9266 22.1554 20.9266 26.2636Z" fill="#0078D7"/>
</svg>
