<svg data-slug-id="mobile-microchip" xmlns="http://www.w3.org/2000/svg" viewBox="0 0 48 48">
	<path d="M47.0148 10.5586H28.0893C27.7356 10.5586 27.4492 10.8449 27.4492 11.1985V47.2006C27.4492 47.5542 27.7356 47.8405 28.0893 47.8405H47.0148C47.3685 47.8405 47.6549 47.5542 47.6549 47.2006V11.1901C47.6464 10.8449 47.3601 10.5586 47.0148 10.5586Z" fill="#0078D4"/>
	<path d="M23.5494 41.8359H18.6138V43.5199H23.5494V41.8359Z" fill="#0078D4"/>
	<path d="M14.992 41.8359H10.8145V43.5199H14.992V41.8359Z" fill="#0078D4"/>
	<path d="M7.11683 43.5211H4.16895V40.5742H5.85345V41.8372H7.11683V43.5211Z" fill="#0078D4"/>
	<path d="M43.5026 7.15584H41.8181V5.8929H40.5547V4.20898H43.5026V7.15584Z" fill="#0078D4"/>
	<path d="M5.85345 20.6777H4.16895V23.3467H5.85345V20.6777Z" fill="#0078D4"/>
	<path d="M5.85345 33.4766H4.16895V37.6527H5.85345V33.4766Z" fill="#0078D4"/>
	<path d="M5.85345 25.957H4.16895V30.1331H5.85345V25.957Z" fill="#0078D4"/>
	<path d="M37.2108 4.20898H33.0332V5.8929H37.2108V4.20898Z" fill="#0078D4"/>
	<path d="M22.1683 4.20898H17.9907V5.8929H22.1683V4.20898Z" fill="#0078D4"/>
	<path d="M29.6893 4.20898H25.5117V5.8929H29.6893V4.20898Z" fill="#0078D4"/>
	<path d="M35.3242 45.7601H39.7797V44.2109H35.3242V45.7601Z" fill="#50E6FF"/>
	<path d="M38.331 13.353C38.331 13.7655 38.0194 14.0771 37.6067 14.0771C37.194 14.0771 36.8823 13.7655 36.8823 13.353C36.8823 12.9404 37.194 12.6289 37.6067 12.6289C38.0194 12.6289 38.331 12.932 38.331 13.353Z" fill="#50E6FF"/>
	<path d="M28.8979 42.2407H46.1978V16.1484H28.8979V42.2407Z" fill="#50E6FF"/>
	<path d="M16.5419 6.42442V5.11097H14.731V2.87978H12.6591V1.05273H11.3368V2.87978H9.42484V1.05273H8.10251V2.87978H6.18217V1.05273H4.86826V2.87978H2.69524V5.11097H0.875977V6.42442H2.69524V8.34409H0.875977V9.65754H2.69524V11.5688H0.875977V12.8822H2.69524V14.8861H4.86826V16.8142H6.19059V14.8861H8.11093V16.8142H9.43327V14.8861H11.3452V16.8142H12.6675V14.8861H14.7395V12.8822H16.5503V11.5688H14.7395V9.65754H16.5503V8.34409H14.7395V6.42442H16.5419Z" fill="#50E6FF"/>
	<path d="M12.6841 4.91602H4.7417V12.8473H12.6841V4.91602Z" fill="#0078D4"/>
</svg>
