<svg data-slug-id="monitor01" viewBox="0 0 49 49" xmlns="http://www.w3.org/2000/svg">
<path d="M24.0386 41.4117C14.7106 41.4117 7.17056 33.8716 7.17056 24.5437C7.17056 15.2157 14.7106 7.67564 24.0386 7.67564C24.0774 7.67564 24.1163 7.67564 24.1163 7.67564V0.679688C24.0774 0.679688 24.0386 0.679688 24.0386 0.679688C10.824 0.679688 0.135742 11.3679 0.135742 24.5825C0.135742 37.7971 10.824 48.4854 24.0386 48.4854C37.2143 48.4854 47.9025 37.7971 47.9414 24.6603H40.9455C40.9066 33.8716 33.3665 41.4117 24.0386 41.4117Z" fill="#0078D4"/>
<path d="M24.0386 31.0738C20.424 31.0738 17.4702 28.12 17.4702 24.5054C17.4702 20.8908 20.424 17.937 24.0386 17.937C24.0775 17.937 24.1163 17.937 24.1163 17.937V10.8633C24.0775 10.8633 24.0386 10.8633 24.0386 10.8633C16.4985 10.8633 10.3965 16.9653 10.3965 24.5054C10.3965 32.0455 16.4985 38.1475 24.0386 38.1475C31.5398 38.1475 37.6418 32.0455 37.6807 24.5443H30.607C30.5681 28.1588 27.6532 31.0738 24.0386 31.0738Z" fill="#50E6FF"/>
</svg>
