<svg data-slug-id="monitor03" viewBox="0 0 49 49" xmlns="http://www.w3.org/2000/svg">
<path d="M47.7665 24.4945C47.7665 11.3782 37.1402 0.743443 24.0239 0.726562V5.56286C34.473 5.57974 42.9302 14.0454 42.9302 24.4945C42.9302 34.9435 34.4646 43.4176 24.0239 43.4261V48.2623C37.1402 48.2455 47.7665 37.6107 47.7665 24.4945Z" fill="#0078D4"/>
<path d="M3.42139 12.5852L7.60778 15.0076C10.8826 9.36099 16.9934 5.56286 23.9988 5.56286C24.0073 5.56286 24.0157 5.56286 24.0242 5.56286V0.726562C24.0157 0.726562 24.0073 0.726562 23.9988 0.726562C15.2125 0.726562 7.54025 5.49533 3.42139 12.5852Z" fill="white"/>
<path d="M5.05832 24.4952C5.05832 21.0347 5.98676 17.7936 7.60729 15.0083L3.4209 12.5859C1.39523 16.0887 0.230469 20.1569 0.230469 24.4952C0.230469 28.842 1.39523 32.9102 3.42934 36.4129L7.61573 33.999C5.98676 31.2052 5.05832 27.9557 5.05832 24.4952Z" fill="#50E6FF"/>
<path d="M7.60778 15.0083L3.42139 12.5859L7.60778 15.0083Z" fill="#50E6FF"/>
<path d="M23.9987 43.4363C17.0017 43.4363 10.8909 39.6466 7.61608 34L3.42969 36.4224C7.54855 43.5038 15.2124 48.2641 23.9987 48.2641C24.0071 48.2641 24.0156 48.2641 24.024 48.2641V43.4278C24.0156 43.4363 24.0071 43.4363 23.9987 43.4363Z" fill="#0078D4"/>
<path d="M3.42969 36.4139L7.61608 34L3.42969 36.4139Z" fill="#0078D4"/>
</svg>
