<svg data-slug-id="monitor07" viewBox="0 0 49 49" xmlns="http://www.w3.org/2000/svg">
<circle cx="23.9978" cy="24.2131" r="21.7795" fill="white"/>
<path d="M24.0113 43.4083C13.5866 43.4083 5.13486 34.9733 5.13486 24.5737C5.13486 14.1741 13.5866 5.73908 24.0113 5.73908C34.436 5.73908 42.8794 14.1741 42.8794 24.5737C42.8794 34.9733 34.4276 43.4083 24.0113 43.4083ZM24.0196 0.714844C10.8697 0.714844 0.210938 11.3736 0.210938 24.5236C0.210938 37.6735 10.8697 48.3323 24.0196 48.3323C37.1696 48.3323 47.8284 37.6735 47.8284 24.5236C47.8284 11.3736 37.1613 0.714844 24.0196 0.714844Z" fill="#0078D4"/>
<path d="M35.3221 13.2126L29.0271 13.1875L16.4373 25.7774L22.7322 25.7941L12.7339 35.7924L19.0288 35.8091L31.5685 23.2861L25.2736 23.2611L35.3221 13.2126Z" fill="#50E6FF"/>
</svg>
