<svg data-slug-id="monitor-cloud-blue" xmlns="http://www.w3.org/2000/svg" viewBox="0 0 48 48">
<path d="M44.8873 42.8997H3.07031C1.42152 42.8997 0.0839844 41.5636 0.0839844 39.9165V8.05936C0.0839844 6.41231 1.42152 5.07617 3.07031 5.07617H44.8873C46.5361 5.07617 47.8737 6.41231 47.8737 8.05936V39.9165C47.8737 41.5636 46.5361 42.8997 44.8873 42.8997Z" fill="#0078D4"/>
<path d="M37.176 25.1269H37.1005C37.4179 24.3145 37.5992 23.4338 37.5992 22.5C37.5992 18.6356 34.5537 15.5 30.7977 15.5C30.0042 15.5 29.2409 15.6443 28.5306 15.91C26.6639 13.526 23.7997 12 20.5955 12C14.9653 12 10.3932 16.6996 10.3932 22.5C10.3932 23.4111 10.5141 24.2918 10.7333 25.1345C8.66259 25.1876 7 26.9187 7 29.0597C7 31.231 8.71549 33 10.824 33H37.176C39.2921 33 41 31.2386 41 29.0597C41 26.8883 39.2921 25.1269 37.176 25.1269Z" fill="#50E6FF"/>
<path d="M29.7036 38.4714H18.2798C17.9349 38.4714 17.6489 38.1857 17.6489 37.8412C17.6489 37.4967 17.9349 37.2109 18.2798 37.2109H29.7036C30.0485 37.2109 30.3345 37.4967 30.3345 37.8412C30.3345 38.1857 30.0485 38.4714 29.7036 38.4714Z" fill="white"/>
</svg>
