<svg data-slug-id="monitor04" viewBox="0 0 49 49" xmlns="http://www.w3.org/2000/svg">
<rect x="13.2168" y="15.1211" width="19.2601" height="18.9521" fill="white"/>
<rect x="13.2168" y="15.1211" width="19.2601" height="18.9521" fill="white"/>
<path d="M24.0977 0.832031C10.8861 0.832031 0.175781 11.473 0.175781 24.5991C0.175781 37.7252 10.8861 48.3662 24.0977 48.3662C37.3093 48.3662 48.0195 37.7252 48.0195 24.5991C48.0195 11.473 37.3093 0.832031 24.0977 0.832031ZM25.4079 16.5725V24.6091H17.2988L25.4079 16.5725ZM21.5603 32.6566V24.62H29.671L21.5603 32.6566Z" fill="#50E6FF"/>
<path d="M24.0976 10.872C24.5207 10.872 24.9403 10.8906 25.3567 10.9279V14.8315L32.4787 7.75561L25.3567 0.679688V5.91011C24.9403 5.88232 24.5207 5.86842 24.0976 5.86842C13.6677 5.86842 5.21193 14.2695 5.21193 24.6319C5.2085 27.0928 5.69401 29.5301 6.64061 31.8042C7.58722 34.0783 8.97631 36.1443 10.7282 37.8839L14.2888 34.3464C12.3562 32.4203 11.0415 29.9684 10.5106 27.3004C9.97976 24.6324 10.2566 21.8679 11.3062 19.3561C12.3557 16.8443 14.1309 14.6978 16.4076 13.1878C18.6843 11.6778 21.3603 10.8719 24.0976 10.872V10.872Z" fill="#0078D4"/>
<path d="M37.4369 11.3477L33.8755 14.886L33.8914 14.901C35.8282 16.8254 37.1472 19.2771 37.6815 21.9462C38.2159 24.6153 37.9416 27.3819 36.8934 29.8962C35.8452 32.4104 34.0702 34.5594 31.7927 36.0713C29.5153 37.5833 26.8377 38.3903 24.0986 38.3904V34.0123L16.9766 41.0882L24.0986 48.165V43.394C34.5285 43.394 42.9843 34.9938 42.9843 24.6305C42.9875 22.1623 42.499 19.7179 41.5469 17.4382C40.5949 15.1585 39.198 13.0885 37.4369 11.3477V11.3477Z" fill="#0078D4"/>
</svg>
