<svg data-slug-id="monitor05" viewBox="0 0 49 49" xmlns="http://www.w3.org/2000/svg">
<path d="M47.936 27.1751C47.936 33.693 45.3209 39.5961 41.0861 43.9077C40.7065 44.2951 39.9136 45.0277 39.9136 45.0277L8.32972 45.213C8.32972 45.213 7.74765 44.6993 7.46926 44.4298C2.9139 40.0761 0.0878906 33.954 0.0878906 27.1751C0.0878906 13.9877 10.8014 3.29297 24.012 3.29297C37.2225 3.29297 47.936 13.9877 47.936 27.1751Z" fill="#50E6FF"/>
<path d="M24.0364 3.26953C10.8258 3.26953 0.112305 13.9643 0.112305 27.1516C0.112305 33.4422 2.55027 39.1685 6.53199 43.4295C7.11406 44.0527 7.73832 44.6506 8.38788 45.2148L11.1295 42.478L13.9724 39.6401C13.306 39.1011 12.6817 38.5032 12.0997 37.8716L9.26521 40.7011C7.69614 39.0001 6.44763 37.0716 5.54499 34.9411C4.70984 32.9706 4.20369 30.9074 4.03498 28.7769H7.28278C7.23216 28.238 7.20686 27.699 7.20686 27.1516C7.20686 26.8316 7.21529 26.5201 7.23216 26.2085H3.9928C4.10246 23.8337 4.62549 21.5348 5.54499 19.3622C6.38014 17.3832 7.51898 15.5727 8.93621 13.9643L11.2392 16.2632C11.796 15.6148 12.4033 15.0001 13.0529 14.4443L10.7499 12.1453C12.378 10.7053 14.2086 9.55164 16.2163 8.70111C18.3844 7.78322 20.662 7.26953 23.0241 7.15164V10.3853C23.3531 10.3685 23.6905 10.3516 24.0279 10.3516C24.5594 10.3516 25.0824 10.3769 25.597 10.4274V7.18532C27.7482 7.35374 29.8403 7.859 31.8311 8.69269C33.9569 9.59374 35.8972 10.8401 37.6012 12.4064L35.3067 14.6969C35.9478 15.2695 36.5383 15.8927 37.0782 16.5664L39.3812 14.2674C40.6719 15.8001 41.7264 17.5095 42.5109 19.3622C43.4304 21.5432 43.9534 23.8422 44.0631 26.2085H40.8237C40.8406 26.5201 40.849 26.8316 40.849 27.1516C40.849 27.699 40.8237 28.2464 40.7731 28.7769H44.0209C43.8522 30.9074 43.346 32.979 42.5109 34.9411C41.6589 36.9453 40.5032 38.7727 39.0606 40.398L36.2431 37.5769C35.6779 38.2253 35.0705 38.8316 34.4209 39.3874L37.2469 42.2085L39.9801 44.9369C40.6213 44.3643 41.2286 43.7579 41.8023 43.1264C45.6237 38.8906 47.952 33.2906 47.952 27.1432C47.9605 13.9643 37.2469 3.26953 24.0364 3.26953Z" fill="#0078D4"/>
<path d="M27.4106 26.0294C28.7097 27.3262 28.7097 29.4315 27.4106 30.7283C26.1115 32.0252 24.0025 32.0252 22.7034 30.7283C21.4043 29.4315 15.0942 18.4336 15.0942 18.4336C15.0942 18.4336 26.1115 24.7325 27.4106 26.0294Z" fill="#0078D4"/>
</svg>
