<svg data-slug-id="monitor02" viewBox="0 0 49 49" xmlns="http://www.w3.org/2000/svg">
<path d="M42.9725 24.5233C42.9725 34.9865 34.491 43.4764 24.0193 43.4764C13.5477 43.4764 5.06623 34.9865 5.06623 24.5233C5.06623 14.0936 13.4889 5.63731 23.8934 5.57014V0.582031C10.7345 0.649211 0.078125 11.3392 0.078125 24.5233C0.078125 37.7409 10.7933 48.4645 24.0193 48.4645C37.2454 48.4645 47.9606 37.7409 47.9606 24.5233C47.9606 24.4897 47.9606 24.4561 47.9606 24.4225H42.9725C42.9725 24.4561 42.9725 24.4897 42.9725 24.5233Z" fill="#0078D4"/>
<path d="M28.1764 24.524C28.1764 26.8165 26.3122 28.6807 24.0197 28.6807C21.7272 28.6807 19.8629 26.8165 19.8629 24.524C19.8629 22.2735 21.6516 20.4428 23.8853 20.3756V15.6562C19.0484 15.7234 15.1436 19.6702 15.1436 24.524C15.1436 29.4197 19.1156 33.3917 24.0113 33.3917C28.907 33.3917 32.879 29.4197 32.879 24.524C32.879 24.4904 32.879 24.4568 32.879 24.4232H28.1597C28.1764 24.4568 28.1764 24.4904 28.1764 24.524Z" fill="#50E6FF"/>
<path d="M24.0198 8.26562C19.5103 8.26562 15.4291 10.1047 12.4816 13.069L15.9498 16.5371C18.0072 14.4546 20.8623 13.1698 24.0198 13.1698C30.2927 13.1698 35.3816 18.2586 35.3816 24.5315C35.3816 30.8045 30.2927 35.8933 24.0198 35.8933C20.8119 35.8933 17.9148 34.5665 15.849 32.4252L12.3809 35.8933C15.3368 38.9164 19.4515 40.7975 24.0198 40.7975C32.9967 40.7975 40.2773 33.5169 40.2773 24.5399C40.2773 15.563 33.0051 8.26562 24.0198 8.26562Z" fill="#50E6FF"/>
</svg>
