<svg data-slug-id="monitor06" viewBox="0 0 49 49" xmlns="http://www.w3.org/2000/svg">
<path d="M24.02 47.165C36.5243 47.165 46.6611 37.0282 46.6611 24.5239C46.6611 12.0196 36.5243 1.88281 24.02 1.88281C11.5157 1.88281 1.37891 12.0196 1.37891 24.5239C1.37891 37.0282 11.5157 47.165 24.02 47.165Z" fill="#0078D4"/>
<path d="M33.3449 8.14177C30.5981 6.57928 27.4134 5.68359 24.0197 5.68359C13.6098 5.68359 5.17041 14.123 5.17041 24.5329C5.17041 28.1853 6.20543 31.589 8.00677 34.485L8.23566 34.2661C7.01155 32.0866 6.3149 29.5786 6.3149 26.9015C6.3149 18.5716 13.0624 11.8241 21.3924 11.8241C23.4525 11.8241 25.413 12.242 27.2044 12.9885L33.3449 8.14177Z" fill="#50E6FF"/>
<path d="M40.1915 14.8281L35.3647 21.1975C36.0813 22.9491 36.4794 24.8798 36.4794 26.8901C36.4794 28.3132 36.2803 29.6966 35.9121 31.0003L39.883 34.7324C41.7839 31.7865 42.8786 28.2933 42.8786 24.5314C42.8786 20.9785 41.8933 17.6545 40.1915 14.8281Z" fill="#50E6FF"/>
<path d="M37.9726 11.8427C38.2115 11.0366 37.5248 10.2305 36.7386 10.2305C36.6191 10.2305 36.4997 10.2504 36.3803 10.2902C36.241 10.3399 36.0917 10.4096 35.9523 10.5191L30.4588 14.8383L23.8008 20.0731L23.8307 20.3518L23.7212 20.4314L28.1897 24.87L33.4842 17.8936L37.7338 12.2906C37.8532 12.1413 37.9328 11.992 37.9726 11.8427Z" fill="#50E6FF"/>
<path d="M24.0195 29.3691C26.6963 29.3691 28.8662 27.1992 28.8662 24.5225C28.8662 21.8457 26.6963 19.6758 24.0195 19.6758C21.3428 19.6758 19.1729 21.8457 19.1729 24.5225C19.1729 27.1992 21.3428 29.3691 24.0195 29.3691Z" fill="#50E6FF"/>
</svg>
