<svg data-slug-id="monitor-list" viewBox="0 0 48 48" xmlns="http://www.w3.org/2000/svg">
    <rect x="4.88281" y="4.04248" width="40.3457" height="29.4079" fill="white"/>
    <path d="M0 0V37.8936H48V0H0ZM35.3684 27.7886H4.96842V25.2624H35.3684V27.7886ZM35.3684 18.9468H4.96842V16.4205H35.3684V18.9468ZM40.4211 29.0517C39.9214 29.0517 39.433 28.9036 39.0175 28.626C38.6021 28.3484 38.2783 27.9539 38.087 27.4922C37.8958 27.0306 37.8458 26.5227 37.9433 26.0327C38.0408 25.5426 38.2814 25.0925 38.6347 24.7392C38.988 24.3859 39.4381 24.1453 39.9282 24.0478C40.4183 23.9503 40.9262 24.0004 41.3878 24.1916C41.8495 24.3828 42.244 24.7066 42.5216 25.122C42.7992 25.5374 42.9474 26.0259 42.9474 26.5255C42.9474 27.1955 42.6812 27.8381 42.2074 28.3118C41.7337 28.7856 41.0911 29.0517 40.4211 29.0517ZM40.4211 20.2099C39.9214 20.2099 39.433 20.0617 39.0175 19.7842C38.6021 19.5066 38.2783 19.112 38.087 18.6504C37.8958 18.1888 37.8458 17.6809 37.9433 17.1908C38.0408 16.7008 38.2814 16.2506 38.6347 15.8973C38.988 15.544 39.4381 15.3034 39.9282 15.206C40.4183 15.1085 40.9262 15.1585 41.3878 15.3497C41.8495 15.5409 42.244 15.8647 42.5216 16.2802C42.7992 16.6956 42.9474 17.184 42.9474 17.6837C42.9474 18.3537 42.6812 18.9962 42.2074 19.47C41.7337 19.9437 41.0911 20.2099 40.4211 20.2099Z" fill="#0078D4"/>
    <path d="M35.3697 42.9478H12.6328V48.0002H35.3697V42.9478Z" fill="#0078D4"/>
    <path d="M42.9469 10.104H37.8943L40.4206 6.06201L42.9469 10.104Z" fill="#50E6FF"/>
    <path d="M35.3685 7.57764H4.96851V10.1039H35.3685V7.57764Z" fill="#50E6FF"/>
</svg>