<svg data-slug-id="multiple-three" xmlns="http://www.w3.org/2000/svg" viewBox="0 0 48 48">
  <path d="M24.0244 29.1216C20.5416 29.1216 17.7354 31.9279 17.7354 35.4106H30.4137C30.3135 31.9279 27.5072 29.1216 24.0244 29.1216Z" fill="#0078D4"/>
  <path d="M6.48535 29.1216C3.00256 29.1216 0.196289 31.9279 0.196289 35.4106H12.8746C12.7744 31.9279 9.96814 29.1216 6.48535 29.1216Z" fill="#0078D4"/>
  <path d="M41.564 29.1216C38.0812 29.1216 35.2749 31.9279 35.2749 35.4106H47.9532C47.853 31.9279 45.0467 29.1216 41.564 29.1216Z" fill="#0078D4"/>
  <path d="M6.53575 26.5056C8.6321 26.5056 10.2941 24.8435 10.2941 22.7472C10.2941 20.6508 8.6321 18.9888 6.53575 18.9888C4.43939 18.9888 2.77734 20.6508 2.77734 22.7472C2.77734 24.8435 4.43939 26.5056 6.53575 26.5056Z" fill="#0078D4"/>
  <path d="M23.9996 26.5056C26.096 26.5056 27.758 24.8435 27.758 22.7472C27.758 20.6508 26.096 18.9888 23.9996 18.9888C21.9033 18.9888 20.2412 20.6508 20.2412 22.7472C20.2412 24.8435 21.9033 26.5056 23.9996 26.5056Z" fill="#0078D4"/>
  <path d="M41.6144 26.5056C43.7107 26.5056 45.3728 24.8435 45.3728 22.7472C45.3728 20.6508 43.7107 18.9888 41.6144 18.9888C39.518 18.9888 37.856 20.6508 37.856 22.7472C37.856 24.8435 39.518 26.5056 41.6144 26.5056Z" fill="#0078D4"/>
</svg>
