<svg data-slug-id="multiple-intelligence-graph" xmlns="http://www.w3.org/2000/svg" viewBox="0 0 136 110">
  <path d="M113.458 99.6231H3.9585C2.0585 99.6231 0.458496 98.1231 0.458496 96.1231V4.12314C0.458496 2.22314 1.9585 0.723145 3.9585 0.723145H113.458C115.358 0.723145 116.958 2.22314 116.958 4.22314V96.2231C116.958 98.1231 115.458 99.6231 113.458 99.6231Z" fill="#0078D7"/>
  <path d="M102.259 41.623H95.5586V83.923H102.259V41.623Z" fill="#50E6FF"/>
  <path d="M92.8587 51.7231H86.1587V83.9231H92.8587V51.7231Z" fill="#50E6FF"/>
  <path d="M83.4583 63.4231H76.7583V83.9231H83.4583V63.4231Z" fill="#50E6FF"/>
  <path d="M74.0584 60.0229H67.3584V83.9229H74.0584V60.0229Z" fill="#50E6FF"/>
  <path d="M64.6585 67.623H57.9585V83.823H64.6585V67.623Z" fill="#50E6FF"/>
  <path d="M102.259 46.623H95.5586V83.923H102.259V46.623Z" fill="white"/>
  <path d="M92.8587 56.9231H86.1587V83.9231H92.8587V56.9231Z" fill="white"/>
  <path d="M83.4583 67.7231H76.7583V83.9231H83.4583V67.7231Z" fill="white"/>
  <path d="M74.0584 74.623H67.3584V83.923H74.0584V74.623Z" fill="white"/>
  <path d="M64.6585 78.123H57.9585V83.823H64.6585V78.123Z" fill="white"/>
  <path d="M94.6587 23.9231C93.9587 23.9231 93.3587 24.5231 93.3587 25.2231C93.3587 25.9231 93.9587 26.5231 94.6587 26.5231H97.7587L79.2587 45.3231L74.3587 40.3231C74.1587 40.0231 73.7587 39.9231 73.4587 39.9231C73.1587 39.9231 72.7587 40.0231 72.5587 40.3231L58.1587 54.7231C57.6587 55.2231 57.6587 56.0231 58.1587 56.5231C58.4587 56.8231 58.7587 56.9231 59.0587 56.9231C59.3587 56.9231 59.7587 56.8231 59.9587 56.5231L73.4587 43.1231L78.3587 48.1231C78.5587 48.4231 78.9587 48.5231 79.2587 48.5231C79.5587 48.5231 79.9587 48.4231 80.1587 48.1231L99.6587 28.4231V31.5231C99.6587 32.2231 100.259 32.8231 100.959 32.8231C101.659 32.8231 102.259 32.2231 102.259 31.5231V23.9231H94.6587V23.9231Z" fill="white"/>
  <path d="M59.0585 57.223C58.6585 57.223 58.2585 57.023 57.9585 56.823C57.6585 56.523 57.5585 56.123 57.4585 55.723C57.4585 55.323 57.6585 54.923 57.8585 54.623L72.1585 40.123C72.7585 39.523 73.7585 39.523 74.3585 40.123L79.0585 44.923L97.0585 26.623H94.4585C93.6585 26.623 92.9585 25.923 92.9585 25.123C92.9585 24.323 93.6585 23.623 94.4585 23.623H102.258V31.423C102.258 32.223 101.558 32.923 100.758 32.923C99.9585 32.923 99.4585 32.323 99.4585 31.523V29.023L80.3585 48.223C80.0585 48.523 79.6585 48.723 79.2585 48.723C78.8585 48.723 78.4585 48.523 78.1585 48.223L73.4585 43.423L60.1585 56.723C59.8585 57.023 59.4585 57.223 59.0585 57.223ZM73.4585 40.123C73.1585 40.123 72.8585 40.223 72.6585 40.423L58.3585 54.923C58.1585 55.123 58.0585 55.423 58.0585 55.723C58.0585 56.023 58.1585 56.323 58.3585 56.523C58.7585 56.923 59.4585 56.923 59.8585 56.523L73.4585 42.823L78.5585 48.023C78.7585 48.223 79.0585 48.323 79.3585 48.323C79.6585 48.323 79.8585 48.223 80.0585 48.023L99.8585 27.923V31.523C99.8585 32.123 100.358 32.623 100.958 32.623C101.558 32.623 102.058 32.123 102.058 31.523V24.223H94.7585C94.1585 24.223 93.6585 24.723 93.6585 25.323C93.6585 25.923 94.1585 26.423 94.7585 26.423H98.3585L79.2585 45.623L74.1585 40.423C73.9585 40.223 73.7585 40.123 73.4585 40.123Z" fill="#0078D7"/>
  <path d="M47.8587 71.3232H15.1587V75.5232H47.8587V71.3232Z" fill="#50E6FF"/>
  <path d="M47.8587 79.7231H15.1587V83.9231H47.8587V79.7231Z" fill="#50E6FF"/>
  <path d="M45.9585 45.6232V42.5232L45.7585 42.3232L42.5585 41.2232L41.7585 39.0232L43.3585 35.7232L43.5585 35.3232L42.5585 34.3232L41.3585 33.1232L40.9585 33.3232L37.8585 34.9232L35.6585 34.3232L34.2585 30.8232H31.1585L30.9585 31.0232L29.8585 34.2232L27.6585 35.0232L24.0585 33.2232L21.8585 35.4232L22.0585 35.8232L23.6585 38.9232L22.7585 41.1232L18.9585 42.5232V45.6232L19.3585 45.7232L22.7585 46.8232L23.6585 49.0232L21.9585 52.6232L24.1585 54.8232L24.5585 54.6232L27.6585 53.0232L29.8585 53.9232L31.2585 57.7232H34.3585L34.4585 57.3232L35.5585 53.9232L37.6585 53.0232L41.3585 54.7232L43.5585 52.5232L43.4585 52.3232L41.8585 49.2232L42.4585 47.0232L45.9585 45.6232ZM32.7585 48.5232C30.3585 48.5232 28.3585 46.5232 28.3585 44.1232C28.3585 41.7232 30.3585 39.7232 32.7585 39.7232C35.1585 39.7232 37.1585 41.7232 37.1585 44.1232C37.1585 46.5232 35.1585 48.5232 32.7585 48.5232Z" fill="white"/>
  <path d="M114.758 109.623C126.301 109.623 135.658 100.266 135.658 88.7232C135.658 77.1805 126.301 67.8232 114.758 67.8232C103.216 67.8232 93.8584 77.1805 93.8584 88.7232C93.8584 100.266 103.216 109.623 114.758 109.623Z" fill="#50E6FF"/>
  <path d="M111.258 97.3233L103.758 89.9233L105.858 87.8233L111.258 93.1233L124.358 79.9233L126.558 82.1233L111.258 97.3233Z" fill="#0078D4"/>
  <path d="M113.458 0.723145H3.9585C1.9585 0.723145 0.458496 2.22314 0.458496 4.22314V16.0231H116.958V4.22314C116.958 2.22314 115.458 0.723145 113.458 0.723145Z" fill="#50E6FF"/>
</svg>
