<svg data-slug-id="multiple-messaging" xmlns="http://www.w3.org/2000/svg" viewBox="0 0 49 49">
  <path d="M48.2084 0.212616H25.4968V17.8716H30.5663V22.8989L35.6189 17.8631H48.2084V0.212616Z" fill="#50E6FF"/>
  <path d="M22.9789 0.212616H0.267334V17.8716H5.2947V22.8989L10.3558 17.8631H22.9789V0.212616Z" fill="#0078D4"/>
  <path d="M48.2084 25.4509H25.4968V43.1183H30.5663V48.1456L35.7116 43.1014H48.2084V25.4509Z" fill="#50E6FF"/>
  <path d="M22.9789 25.4509H0.267334V43.1183H5.2947V48.1456L10.3305 43.1014H22.9789V25.4509Z" fill="#0078D4"/>
  <path d="M36.8402 12.7938C38.8819 12.7938 40.537 11.1387 40.537 9.09696C40.537 7.05525 38.8819 5.40012 36.8402 5.40012C34.7984 5.40012 33.1433 7.05525 33.1433 9.09696C33.1433 11.1387 34.7984 12.7938 36.8402 12.7938Z" fill="#0078D4"/>
  <path d="M36.8402 38.0653C38.8819 38.0653 40.537 36.4102 40.537 34.3684C40.537 32.3267 38.8819 30.6716 36.8402 30.6716C34.7984 30.6716 33.1433 32.3267 33.1433 34.3684C33.1433 36.4102 34.7984 38.0653 36.8402 38.0653Z" fill="#0078D4"/>
  <path d="M37.6317 35.0842H23.9812V33.821H36.3686V9.85468H23.9812V8.59152H37.6317V35.0842Z" fill="#0078D4"/>
  <path d="M24.2505 35.0842H10.9705V8.59152H24.2505V9.85468H12.2336V33.821H24.2505V35.0842Z" fill="#50E6FF"/>
  <path d="M11.5936 12.7938C13.6353 12.7938 15.2904 11.1387 15.2904 9.09696C15.2904 7.05525 13.6353 5.40012 11.5936 5.40012C9.55186 5.40012 7.89673 7.05525 7.89673 9.09696C7.89673 11.1387 9.55186 12.7938 11.5936 12.7938Z" fill="#50E6FF"/>
  <path d="M11.5936 38.0653C13.6353 38.0653 15.2904 36.4102 15.2904 34.3684C15.2904 32.3267 13.6353 30.6716 11.5936 30.6716C9.55186 30.6716 7.89673 32.3267 7.89673 34.3684C7.89673 36.4102 9.55186 38.0653 11.5936 38.0653Z" fill="#50E6FF"/>
</svg>
