<svg data-slug-id="nested-circles-dots-alt" xmlns="http://www.w3.org/2000/svg" viewBox="0 0 76 76">
	<path d="M44.0714 38.187C44.0714 41.5494 41.3495 44.2713 37.9871 44.2713C34.6247 44.2713 31.9028 41.5494 31.9028 38.187C31.9028 34.8246 34.6247 32.1027 37.9871 32.1027C41.3495 32.1027 44.0714 34.8246 44.0714 38.187Z" fill="#0078D4"/>
	<path d="M48.1138 11.4349C47.7802 9.56691 46.1391 8.15259 44.191 8.15259C42.8834 8.15259 41.7226 8.77969 41.0021 9.74037C40.0281 9.64697 39.0407 9.5936 38.0534 9.5936C22.309 9.5936 9.54004 22.3492 9.54004 38.1069C9.54004 53.8513 22.2957 66.6203 38.0534 66.6203C53.7978 66.6203 66.5667 53.8513 66.5667 38.1069C66.5534 25.9117 58.8947 15.5044 48.1138 11.4349ZM56.7865 56.8534C54.3448 59.2952 51.5162 61.2032 48.3539 62.5374C45.085 63.9251 41.6159 64.6189 38.04 64.6189C34.4642 64.6189 30.9951 63.9117 27.7261 62.5374C24.5639 61.2032 21.7353 59.2952 19.2936 56.8534C16.8652 54.4251 14.9438 51.5831 13.6096 48.4208C12.2219 45.1519 11.5281 41.6828 11.5281 38.1069C11.5281 34.5311 12.2219 31.062 13.6096 27.793C14.9438 24.6308 16.8518 21.8022 19.2936 19.3605C21.7219 16.9321 24.5639 15.0107 27.7261 13.6765C30.9951 12.2888 34.4642 11.595 38.04 11.595C38.7739 11.595 39.4944 11.6217 40.2149 11.6884C40.2016 11.8352 40.1882 11.9953 40.1882 12.1554C40.1882 14.3569 41.9761 16.1449 44.1777 16.1449C45.8989 16.1449 47.3799 15.0508 47.927 13.5164C48.0604 13.5697 48.2072 13.6231 48.3406 13.6898C51.5028 15.0241 54.3315 16.9321 56.7732 19.3738C59.2149 21.8022 61.1229 24.6442 62.4572 27.8064C63.8448 31.0753 64.5386 34.5444 64.5386 38.1203C64.5386 41.6961 63.8315 45.1652 62.4572 48.4342C61.1363 51.5831 59.2149 54.4117 56.7865 56.8534Z" fill="#0078D4"/>
	<path d="M75.9065 38.1068C75.9065 31.1019 73.9985 24.5373 70.6895 18.9067C71.45 18.1728 71.9304 17.1588 71.9304 16.0113C71.9304 13.8098 70.1424 12.0219 67.9409 12.0219C67.2337 12.0219 66.5533 12.2087 65.9795 12.5422C59.0547 4.97692 49.101 0.240265 38.0399 0.240265C17.1319 0.240265 0.17334 17.1855 0.17334 38.1068C0.17334 45.0851 2.05466 51.6097 5.35031 57.2269C4.54974 57.9608 4.04272 59.0149 4.04272 60.189C4.04272 62.3906 5.83064 64.1785 8.03219 64.1785C8.77938 64.1785 9.4732 63.9783 10.0603 63.6181C16.9851 71.2101 26.9521 75.9734 38.0399 75.9734C44.5111 75.9734 50.6087 74.3456 55.9458 71.4769C56.5863 71.9172 57.3601 72.1708 58.2007 72.1708C60.4023 72.1708 62.1902 70.3828 62.1902 68.1813C62.1902 67.8877 62.1635 67.6076 62.0968 67.3407C70.5294 60.4025 75.9065 49.8884 75.9065 38.1068ZM61.1628 65.5261C60.429 64.7122 59.3749 64.2052 58.1874 64.2052C55.9858 64.2052 54.1979 65.9931 54.1979 68.1946C54.1979 68.8217 54.3447 69.4088 54.5982 69.9292C53.7443 70.3695 52.8903 70.7831 51.9964 71.1567C47.5799 73.0247 42.8833 73.972 38.0399 73.972C33.1965 73.972 28.4999 73.0247 24.0835 71.1567C19.8138 69.3554 15.9711 66.767 12.6754 63.4713C12.2618 63.0577 11.8615 62.6307 11.4746 62.2038C11.8215 61.6167 12.0217 60.9229 12.0217 60.189C12.0217 57.9875 10.2337 56.1995 8.03219 56.1995C7.72531 56.1995 7.41843 56.2396 7.12489 56.3063C6.32432 54.9453 5.61716 53.5443 4.99005 52.0766C3.12208 47.6602 2.17474 42.9636 2.17474 38.1202C2.17474 33.2768 3.12208 28.5802 4.99005 24.1637C6.79132 19.8941 9.3798 16.0514 12.6754 12.7557C15.9711 9.46007 19.8004 6.87159 24.0835 5.07032C28.4999 3.20234 33.1965 2.25501 38.0399 2.25501C42.8833 2.25501 47.5799 3.20234 51.9964 5.07032C56.266 6.87159 60.1087 9.46007 63.4044 12.7557C63.7913 13.1427 64.1649 13.5429 64.5385 13.9432C64.1649 14.557 63.9514 15.2641 63.9514 16.038C63.9514 18.2396 65.7394 20.0275 67.9409 20.0275C68.2878 20.0275 68.6214 19.9875 68.9416 19.8941C69.7422 21.255 70.4627 22.6827 71.0898 24.1504C72.9578 28.5668 73.9051 33.2634 73.9051 38.1068C73.9051 42.9502 72.9578 47.6469 71.0898 52.0633C69.2885 56.333 66.7 60.1757 63.4044 63.4713C62.6839 64.1918 61.9367 64.8723 61.1628 65.5261Z" fill="#50E6FF"/>
	<path d="M54.8517 46.7929C56.1993 44.1911 56.9598 41.2424 56.9598 38.1068C56.9598 27.6595 48.4872 19.1869 38.0399 19.1869C28.9135 19.1869 21.3082 25.6448 19.5202 34.2241C17.6256 34.531 16.1846 36.1855 16.1846 38.1602C16.1846 40.1483 17.6389 41.8028 19.5469 42.1096C21.3882 50.6356 28.9669 57.0268 38.0399 57.0268C42.483 57.0268 46.5659 55.4924 49.7948 52.9306C50.4353 53.3709 51.2225 53.6377 52.0631 53.6377C54.2646 53.6377 56.0525 51.8498 56.0525 49.6483C56.0525 48.5275 55.5989 47.5134 54.8517 46.7929ZM26.0715 50.0752C23.7899 47.7936 22.2422 44.9783 21.5483 41.9228C23.0694 41.3625 24.1635 39.8948 24.1635 38.1735C24.1635 36.439 23.0561 34.9713 21.5216 34.4109C22.2155 31.3021 23.7632 28.4467 26.0715 26.1384C29.2738 22.9362 33.5167 21.1883 38.0399 21.1883C42.5631 21.1883 46.8061 22.9495 50.0083 26.1384C53.2106 29.3407 54.9584 33.5837 54.9584 38.1068C54.9584 40.8287 54.318 43.4439 53.1172 45.7922C52.7836 45.6988 52.4233 45.6455 52.0497 45.6455C49.8482 45.6455 48.0603 47.4334 48.0603 49.6349C48.0603 50.2754 48.207 50.8758 48.4739 51.4095C45.5118 53.7445 41.8693 55.012 38.0266 55.012C33.5167 55.0254 29.2738 53.2641 26.0715 50.0752Z" fill="#0078D4"/>
</svg>
