<svg data-slug-id="networking" xmlns="http://www.w3.org/2000/svg" viewBox="0 0 48 49">
<path d="M24.1093 46.1612L4.05176 34.385L5.3349 32.207L24.1177 43.2235L42.47 32.6207L43.7362 34.8155L24.1093 46.1612Z" fill="#50E6FF"/>
<path d="M24.1098 35.1338L4.05225 23.3661L5.33539 21.1797L24.1182 32.2046L42.4705 21.6018L43.7367 23.7966L24.1098 35.1338Z" fill="#50E6FF"/>
<path d="M24.1098 25.6456L4.05225 13.8778L5.33539 11.6914L24.1182 22.7163L42.4705 12.1135L43.7367 14.3083L24.1098 25.6456Z" fill="#50E6FF"/>
<path d="M24.1093 15.7627L4.05176 3.98656L5.3349 1.80859L24.1177 12.825L42.47 2.22224L43.7362 4.41708L24.1093 15.7627Z" fill="#50E6FF"/>
<path d="M7.20078 0H0V7.20078H7.20078V0Z" fill="#0078D4"/>
<path d="M27.5963 0H20.3955V7.20078H27.5963V0Z" fill="#50E6FF"/>
<path d="M47.9996 0H40.7988V7.20078H47.9996V0Z" fill="#50E6FF"/>
<path d="M7.20078 10.1992H0V17.4H7.20078V10.1992Z" fill="#0078D4"/>
<path d="M27.5963 10.1992H20.3955V17.4H27.5963V10.1992Z" fill="#50E6FF"/>
<path d="M47.9996 10.1992H40.7988V17.4H47.9996V10.1992Z" fill="#0078D4"/>
<path d="M7.20078 20.4023H0V27.6031H7.20078V20.4023Z" fill="#50E6FF"/>
<path d="M47.9996 20.4023H40.7988V27.6031H47.9996V20.4023Z" fill="#0078D4"/>
<path d="M7.20078 30.6016H0V37.8023H7.20078V30.6016Z" fill="#50E6FF"/>
<path d="M27.5963 30.6016H20.3955V37.8023H27.5963V30.6016Z" fill="#0078D4"/>
<path d="M47.9996 30.6016H40.7988V37.8023H47.9996V30.6016Z" fill="#0078D4"/>
<path d="M7.20078 40.8008H0V48.0016H7.20078V40.8008Z" fill="#50E6FF"/>
<path d="M27.5963 40.8008H20.3955V48.0016H27.5963V40.8008Z" fill="#0078D4"/>
<path d="M47.9996 40.8008H40.7988V48.0016H47.9996V40.8008Z" fill="#0078D4"/>
<path d="M27.5963 20.4023H20.3955V27.6031H27.5963V20.4023Z" fill="#50E6FF"/>
</svg>
