<svg data-slug-id="no-machine" viewBox="0 0 48 48" xmlns="http://www.w3.org/2000/svg">
<path d="M35.3336 12.668H12.666V35.3356H35.3336V12.668Z" fill="#50E6FF"/>
<path d="M24.0002 0.234375C10.8786 0.234375 0.236328 10.8767 0.236328 23.9983C0.236328 37.1198 10.8702 47.7621 24.0002 47.7621C37.1218 47.7621 47.7641 37.1283 47.7641 23.9983C47.7641 10.8767 37.1218 0.234375 24.0002 0.234375ZM5.29606 23.9983C5.29606 19.006 7.24406 14.3089 10.7774 10.7755C14.3108 7.24211 19.0079 5.29411 24.0002 5.29411C28.2167 5.29411 32.2223 6.68553 35.4942 9.2407L9.24265 35.4923C6.68749 32.2203 5.29606 28.2147 5.29606 23.9983ZM37.223 37.221C33.6896 40.7544 28.9925 42.7024 24.0002 42.7024C19.9356 42.7024 16.0649 41.4122 12.8688 39.0341L39.036 12.8668C41.4226 16.0713 42.7043 19.9336 42.7043 23.9983C42.7043 28.9905 40.7564 33.6876 37.223 37.221Z" fill="#0078D4"/>
</svg>
