<svg data-slug-id="node17" viewBox="0 0 49 49" xmlns="http://www.w3.org/2000/svg">
<path d="M28.6659 24.6786C28.6659 26.8022 26.9468 28.5213 24.8232 28.5213C22.6996 28.5213 20.9805 26.8022 20.9805 24.6786C20.9805 22.555 22.6996 20.8359 24.8232 20.8359C26.9468 20.8359 28.6659 22.555 28.6659 24.6786Z" fill="#50E6FF"/>
<path d="M31.2198 7.78397C31.0091 6.6042 29.9726 5.71094 28.7423 5.71094C27.9164 5.71094 27.1833 6.10701 26.7282 6.71375C26.113 6.65476 25.4894 6.62105 24.8659 6.62105C14.922 6.62105 6.85742 14.6772 6.85742 24.6295C6.85742 34.5733 14.9136 42.6379 24.8659 42.6379C34.8097 42.6379 42.8743 34.5733 42.8743 24.6295C42.8658 16.9272 38.0288 10.3542 31.2198 7.78397ZM36.6973 36.4694C35.1552 38.0115 33.3687 39.2166 31.3715 40.0593C29.3069 40.9357 27.1158 41.3739 24.8574 41.3739C22.599 41.3739 20.408 40.9272 18.3434 40.0593C16.3462 39.2166 14.5597 38.0115 13.0175 36.4694C11.4838 34.9357 10.2703 33.1407 9.42765 31.1435C8.55124 29.0789 8.11304 26.8879 8.11304 24.6295C8.11304 22.3711 8.55124 20.18 9.42765 18.1154C10.2703 16.1182 11.4754 14.3317 13.0175 12.7896C14.5512 11.2559 16.3462 10.0424 18.3434 9.1997C20.408 8.3233 22.599 7.8851 24.8574 7.8851C25.3209 7.8851 25.776 7.90195 26.231 7.94408C26.2226 8.03678 26.2142 8.1379 26.2142 8.23903C26.2142 9.62948 27.3434 10.7587 28.7338 10.7587C29.8209 10.7587 30.7563 10.0677 31.1018 9.09858C31.1861 9.13229 31.2788 9.16599 31.363 9.20813C33.3602 10.0508 35.1467 11.2559 36.6889 12.798C38.231 14.3317 39.4361 16.1267 40.2788 18.1239C41.1552 20.1885 41.5934 22.3795 41.5934 24.6379C41.5934 26.8963 41.1467 29.0873 40.2788 31.152C39.4445 33.1407 38.231 34.9272 36.6973 36.4694Z" fill="#3BCAF4"/>
<path d="M48.7729 24.6306C48.7729 20.2064 47.5678 16.0603 45.4779 12.5042C45.9583 12.0407 46.2616 11.4002 46.2616 10.6755C46.2616 9.28507 45.1324 8.15585 43.742 8.15585C43.2953 8.15585 42.8656 8.27383 42.5032 8.48451C38.1296 3.70642 31.8431 0.714844 24.8571 0.714844C11.6521 0.714844 0.941406 11.4171 0.941406 24.6306C0.941406 29.0379 2.12961 33.1587 4.21107 36.7064C3.70545 37.1699 3.38523 37.8356 3.38523 38.5772C3.38523 39.9677 4.51444 41.0969 5.90489 41.0969C6.3768 41.0969 6.815 40.9705 7.18579 40.7429C11.5594 45.5379 17.8543 48.5463 24.8571 48.5463C28.9442 48.5463 32.7953 47.5182 36.1661 45.7064C36.5706 45.9845 37.0594 46.1446 37.5903 46.1446C38.9807 46.1446 40.1099 45.0154 40.1099 43.625C40.1099 43.4396 40.0931 43.2626 40.051 43.0941C45.3768 38.712 48.7729 32.0716 48.7729 24.6306ZM39.4611 41.948C38.9976 41.4339 38.3319 41.1137 37.5819 41.1137C36.1914 41.1137 35.0622 42.2429 35.0622 43.6334C35.0622 44.0295 35.1549 44.4002 35.315 44.7289C34.7757 45.007 34.2364 45.2682 33.6717 45.5042C30.8824 46.6839 27.9161 47.2823 24.8571 47.2823C21.7981 47.2823 18.8319 46.6839 16.0425 45.5042C13.3459 44.3665 10.9189 42.7317 8.83747 40.6502C8.57624 40.389 8.32343 40.1193 8.07905 39.8497C8.29815 39.4789 8.42455 39.0407 8.42455 38.5772C8.42455 37.1868 7.29534 36.0575 5.90489 36.0575C5.71107 36.0575 5.51725 36.0828 5.33186 36.125C4.82624 35.2654 4.37961 34.3806 3.98354 33.4536C2.80377 30.6643 2.20545 27.698 2.20545 24.639C2.20545 21.58 2.80377 18.6137 3.98354 15.8244C5.12118 13.1278 6.75601 10.7008 8.83747 8.61934C10.9189 6.53788 13.3375 4.90305 16.0425 3.76541C18.8319 2.58563 21.7981 1.98732 24.8571 1.98732C27.9161 1.98732 30.8824 2.58563 33.6717 3.76541C36.3684 4.90305 38.7953 6.53788 40.8768 8.61934C41.1212 8.86372 41.3571 9.11653 41.5931 9.36934C41.3571 9.75698 41.2223 10.2036 41.2223 10.6924C41.2223 12.0828 42.3515 13.212 43.742 13.212C43.9611 13.212 44.1717 13.1868 44.374 13.1278C44.8796 13.9873 45.3347 14.889 45.7307 15.816C46.9105 18.6053 47.5088 21.5716 47.5088 24.6306C47.5088 27.6896 46.9105 30.6559 45.7307 33.4452C44.5931 36.1418 42.9583 38.5688 40.8768 40.6502C40.4217 41.1053 39.9498 41.5351 39.4611 41.948Z" fill="#0078D4"/>
<path d="M35.476 30.1151C36.3272 28.4718 36.8075 26.6095 36.8075 24.6291C36.8075 18.0308 31.4564 12.6797 24.8581 12.6797C19.094 12.6797 14.2906 16.7583 13.1614 22.1769C11.9648 22.3707 11.0547 23.4156 11.0547 24.6628C11.0547 25.9185 11.9732 26.9634 13.1783 27.1572C14.3412 32.542 19.1277 36.5786 24.8581 36.5786C27.6642 36.5786 30.2429 35.6095 32.2822 33.9915C32.6867 34.2696 33.1839 34.4381 33.7148 34.4381C35.1053 34.4381 36.2345 33.3089 36.2345 31.9185C36.2345 31.2106 35.9479 30.5701 35.476 30.1151ZM17.2991 32.1881C15.8581 30.7471 14.8805 28.969 14.4423 27.0392C15.403 26.6853 16.094 25.7583 16.094 24.6713C16.094 23.5758 15.3946 22.6488 14.4255 22.2949C14.8637 20.3314 15.8412 18.528 17.2991 17.0701C19.3215 15.0477 22.0013 13.9437 24.8581 13.9437C27.7148 13.9437 30.3946 15.0561 32.417 17.0701C34.4395 19.0926 35.5435 21.7724 35.5435 24.6291C35.5435 26.3482 35.139 27.9999 34.3805 29.4831C34.1699 29.4241 33.9423 29.3904 33.7064 29.3904C32.3159 29.3904 31.1867 30.5196 31.1867 31.91C31.1867 32.3145 31.2794 32.6937 31.4479 33.0308C29.5772 34.5055 27.2766 35.3061 24.8496 35.3061C22.0013 35.3145 19.3215 34.2022 17.2991 32.1881Z" fill="#50E6FF"/>
</svg>
