<svg data-slug-id="node13" viewBox="0 0 49 49" xmlns="http://www.w3.org/2000/svg">
<path d="M24.2464 47.1781C12.1429 47.1781 2.21191 37.1432 2.21191 24.9132C2.21191 12.6833 12.1429 2.64844 24.2464 2.64844C28.2809 2.64844 32.1602 3.746 35.574 5.78433C36.3498 6.25471 36.505 7.19548 36.0395 7.97945C35.7292 8.60663 34.7981 8.92021 34.0223 8.44983C31.074 6.72509 27.6602 5.78433 24.2464 5.78433C13.8498 5.78433 5.31536 14.408 5.31536 24.9132C5.31536 35.4185 13.8498 44.0422 24.2464 44.0422C31.5395 44.0422 38.0567 39.9655 41.3154 33.3801C41.6257 32.5962 42.5567 32.2826 43.3326 32.5962C44.1085 32.9098 44.4188 33.8505 44.1085 34.6345C40.3843 42.4742 32.7809 47.1781 24.2464 47.1781Z" fill="#50E6FF"/>
<path d="M24.2466 40.7467C15.557 40.7467 8.57422 33.6909 8.57422 24.9105C8.57422 16.13 15.7121 9.07422 24.2466 9.07422C26.7294 9.07422 29.2121 9.7014 31.5397 10.799C32.3156 11.2693 32.6259 12.2101 32.1604 12.8373C31.6949 13.6213 30.7639 13.9348 30.1432 13.4645C28.2811 12.5237 26.419 12.0533 24.4018 12.0533C17.419 12.0533 11.8328 17.6979 11.8328 24.7537C11.8328 31.8094 17.419 37.454 24.4018 37.454C29.057 37.454 33.2466 34.9453 35.419 30.7118C35.8846 29.9279 36.8156 29.6143 37.5915 30.0847C38.3673 30.5551 38.6777 31.4958 38.2121 32.2798C35.419 37.454 30.1432 40.7467 24.2466 40.7467Z" fill="#50E6FF"/>
<path d="M24.2466 40.7467C15.557 40.7467 8.57422 33.6909 8.57422 24.9105C8.57422 16.13 15.7121 9.07422 24.2466 9.07422C26.7294 9.07422 29.2121 9.7014 31.5397 10.799C32.3156 11.2693 32.6259 12.2101 32.1604 12.8373C31.6949 13.6213 30.7639 13.9348 30.1432 13.4645C28.2811 12.5237 26.419 12.0533 24.4018 12.0533C17.419 12.0533 11.8328 17.6979 11.8328 24.7537C11.8328 31.8094 17.419 37.454 24.4018 37.454C29.057 37.454 33.2466 34.9453 35.419 30.7118C35.8846 29.9279 36.8156 29.6143 37.5915 30.0847C38.3673 30.5551 38.6777 31.4958 38.2121 32.2798C35.419 37.454 30.1432 40.7467 24.2466 40.7467Z" fill="#50E6FF"/>
<path d="M24.2463 32.9071C19.9015 32.9071 16.3325 29.3008 16.3325 24.9106C16.3325 20.5203 19.9015 16.9141 24.2463 16.9141C24.867 16.9141 25.4877 17.0709 26.1084 17.2277C26.8842 17.3844 27.5049 18.3252 27.1946 19.1092C26.8842 19.8932 26.1084 20.5203 25.3325 20.2067C24.867 20.05 24.5567 20.05 24.2463 20.05C21.6084 20.05 19.436 22.2451 19.436 24.9106C19.436 27.5761 21.6084 29.7712 24.2463 29.7712C25.798 29.7712 27.1946 28.9872 28.1256 27.7329C28.5911 26.9489 29.5222 26.7921 30.298 27.4193C31.0739 27.8897 31.2291 28.8304 30.6084 29.6144C29.2118 31.6527 26.8842 32.9071 24.2463 32.9071Z" fill="#50E6FF"/>
<path d="M23.936 27.2629C23.4705 27.2629 23.1601 27.1061 22.8498 26.7925C22.2291 26.1653 22.2291 25.2246 22.8498 24.5974L44.5739 2.64616C45.1946 2.01899 46.1257 2.01899 46.7463 2.64616C47.367 3.27334 47.367 4.21411 46.7463 4.84129L25.0222 26.7925C24.7119 27.1061 24.2463 27.2629 23.936 27.2629Z" fill="#0078D4"/>
</svg>
