<svg data-slug-id="node01" viewBox="0 0 49 49" xmlns="http://www.w3.org/2000/svg">
<path d="M15.4784 17.9956L13.9805 18.7656L15.5205 21.7615L17.0184 20.9915L15.4784 17.9956Z" fill="#0075DA"/>
<path d="M5.99745 16.7021L3.71973 19.1836L4.96048 20.3225L7.23821 17.8409L5.99745 16.7021Z" fill="#0075DA"/>
<path d="M0.163086 23.0938L0.971507 24.6601L3.25361 22.1843L2.0073 21.0391L0.163086 23.0938Z" fill="#0075DA"/>
<path d="M42.727 27.8267L41.334 28.7734L43.2274 31.5595L44.6204 30.6128L42.727 27.8267Z" fill="#0075DA"/>
<path d="M46.0375 32.7056L44.6445 33.6523L46.5379 36.4384L47.9309 35.4917L46.0375 32.7056Z" fill="#0075DA"/>
<path d="M11.4471 17.046C11.2282 17.046 11.0177 17.0292 10.8071 17.0039V47.7492H12.0703V17.0123C11.8682 17.0376 11.6661 17.046 11.4471 17.046Z" fill="#50E6FF"/>
<path d="M12.0786 6.99322V1.51953H10.8154V6.99322C11.026 6.96795 11.2365 6.95111 11.4554 6.95111C11.666 6.95111 11.8681 6.96795 12.0786 6.99322Z" fill="#50E6FF"/>
<path d="M16.4404 12.7749H47.3373V11.5117H16.4741C16.491 11.6717 16.4994 11.8317 16.4994 11.9917C16.4994 12.2612 16.4825 12.5222 16.4404 12.7749Z" fill="#50E6FF"/>
<path d="M6.42777 11.5117H0.305664V12.7749H6.46145C6.41935 12.5222 6.40251 12.2612 6.40251 11.9917C6.40251 11.8317 6.41093 11.6717 6.42777 11.5117Z" fill="#50E6FF"/>
<path d="M36.0366 25.3672H34.7734V47.7503H36.0366V25.3672Z" fill="#50E6FF"/>
<path d="M36.0366 23.7148C35.8176 23.7401 35.5987 23.7569 35.3713 23.7569C35.1692 23.7569 34.9671 23.7401 34.7734 23.7233V24.1022H36.0366V23.7148Z" fill="#50E6FF"/>
<path d="M36.0366 13.7132V1.51953H34.7734V13.7048C34.9671 13.6795 35.1692 13.6711 35.3713 13.6711C35.5903 13.6711 35.8176 13.688 36.0366 13.7132Z" fill="#50E6FF"/>
<path d="M0.305664 24.1016V25.3647H29.9393L30.1246 25.0784L30.5625 25.3647H34.773V24.1016H0.305664Z" fill="#50E6FF"/>
<path d="M36.0361 24.1016V25.3647H39.0172L38.1582 24.1016H36.0361Z" fill="#50E6FF"/>
<path d="M47.337 24.1016H40.1875L41.0464 25.3647H47.337V24.1016Z" fill="#50E6FF"/>
<path d="M36.0366 24.1016H34.7734V25.3647H36.0366V24.1016Z" fill="#50E6FF"/>
<path d="M30.6555 24.2812L28.1797 28.0286L29.5944 28.9465L32.0702 25.1991L30.6555 24.2812Z" fill="#0075DA"/>
<path d="M39.4046 22.9492L38.0151 23.9008L38.1583 24.1029H40.1878L39.4046 22.9492Z" fill="#0075DA"/>
<path d="M39.9102 26.6809L41.2997 25.7377L41.0471 25.3672H39.0176L39.9102 26.6809Z" fill="#0075DA"/>
<path d="M38.1582 24.1016L39.0172 25.3647H41.0466L40.1877 24.1016H38.1582Z" fill="#0075DA"/>
<path d="M31.4888 22.9579L32.9035 23.8674L33.2656 23.3031C32.7519 23.0674 32.2803 22.7474 31.8761 22.3516L31.4888 22.9579Z" fill="#0075DA"/>
<path d="M24.6596 31.0185V1.51953H23.3965V30.9848C23.5649 30.968 23.7417 30.9595 23.9186 30.9595C24.1712 30.9595 24.4154 30.9764 24.6596 31.0185Z" fill="#50E6FF"/>
<path d="M23.3965 41.0292V47.7492H24.6596V41.0039C24.4154 41.0376 24.1712 41.0629 23.9186 41.0629C23.7417 41.0544 23.5649 41.046 23.3965 41.0292Z" fill="#50E6FF"/>
<path d="M18.8993 35.4727H0.305664V36.7358H18.9246C18.8909 36.5 18.8741 36.2558 18.8741 36.0032C18.8657 35.8263 18.8825 35.6495 18.8993 35.4727Z" fill="#50E6FF"/>
<path d="M47.59 35.4727H28.9374C28.9542 35.6495 28.9626 35.8263 28.9626 36.0032C28.9626 36.2474 28.9458 36.4916 28.9121 36.7358H47.59V35.4727Z" fill="#50E6FF"/>
<path d="M20.87 28.4727L19.3711 29.239L20.8111 32.0348C21.249 31.6895 21.7543 31.4116 22.2932 31.2263L20.87 28.4727Z" fill="#0075DA"/>
<path d="M28.3397 30.9485L26.925 30.0391L26.0239 31.4285C26.5376 31.6643 27.0092 31.9927 27.4134 32.3801L28.3397 30.9485Z" fill="#0075DA"/>
<path d="M11.4471 8.21094C13.5355 8.21094 15.2281 9.90357 15.2281 11.992C15.2281 14.0804 13.5355 15.773 11.4471 15.773C9.35865 15.773 7.66602 14.0804 7.66602 11.992C7.66602 9.91199 9.35865 8.21094 11.4471 8.21094Z" fill="#0078D4"/>
<path d="M23.9188 32.2227C26.0072 32.2227 27.6998 33.9153 27.6998 36.0037C27.6998 38.0921 26.0072 39.7848 23.9188 39.7848C21.8304 39.7848 20.1377 38.0921 20.1377 36.0037C20.1293 33.9153 21.8304 32.2227 23.9188 32.2227Z" fill="#0075DA"/>
<path d="M35.3709 14.9336C37.4593 14.9336 39.152 16.6262 39.152 18.7146C39.152 20.8031 37.4593 22.4957 35.3709 22.4957C33.2825 22.4957 31.5899 20.8031 31.5899 18.7146C31.5815 16.6262 33.2825 14.9336 35.3709 14.9336Z" fill="#0075DA"/>
<path d="M19.7163 26.2245L18.1752 23.2266L16.6763 24.0013L18.2173 26.9992" fill="#0075DA"/>
<path d="M46.7564 1.93894V47.4126H1.28269V1.93894H46.7564ZM48.0195 0.675781H0.0195312V48.6758H48.0195V0.675781Z" fill="#50E6FF"/>
</svg>
