<svg data-slug-id="node07" viewBox="0 0 49 49" xmlns="http://www.w3.org/2000/svg">
<path d="M6.10222 24.1356L5.21045 25.0273L24.2587 44.0756L25.1504 43.1838L6.10222 24.1356Z" fill="#0078D4"/>
<path d="M24.2621 5.0924L5.21387 24.1406L6.10564 25.0324L25.1539 5.98417L24.2621 5.0924Z" fill="#0078D4"/>
<path d="M25.1544 44.0767L24.2632 43.1855L42.8612 24.5791L24.2632 5.98107L25.1544 5.08984L44.6436 24.5791L25.1544 44.0767Z" fill="#50E6FF"/>
<path d="M25.3647 6.03906H24.1035V43.7395H25.3647V6.03906Z" fill="#50E6FF"/>
<path d="M43.6173 29.7249C46.3988 29.7249 48.6536 27.4701 48.6536 24.6886C48.6536 21.9072 46.3988 19.6523 43.6173 19.6523C40.8359 19.6523 38.5811 21.9072 38.5811 24.6886C38.5811 27.4701 40.8359 29.7249 43.6173 29.7249Z" fill="#0078D4"/>
<path d="M5.86731 29.7249C8.64876 29.7249 10.9036 27.4701 10.9036 24.6886C10.9036 21.9072 8.64876 19.6523 5.86731 19.6523C3.08586 19.6523 0.831055 21.9072 0.831055 24.6886C0.831055 27.4701 3.08586 29.7249 5.86731 29.7249Z" fill="#50E6FF"/>
<path d="M24.7423 48.5999C27.5238 48.5999 29.7786 46.3451 29.7786 43.5636C29.7786 40.7822 27.5238 38.5273 24.7423 38.5273C21.9609 38.5273 19.7061 40.7822 19.7061 43.5636C19.7061 46.3451 21.9609 48.5999 24.7423 48.5999Z" fill="#50E6FF"/>
<path d="M24.7423 10.8499C27.5238 10.8499 29.7786 8.59505 29.7786 5.8136C29.7786 3.03215 27.5238 0.777344 24.7423 0.777344C21.9609 0.777344 19.7061 3.03215 19.7061 5.8136C19.7061 8.59505 21.9609 10.8499 24.7423 10.8499Z" fill="#0078D4"/>
</svg>
