<svg data-slug-id="node19" viewBox="0 0 49 49" xmlns="http://www.w3.org/2000/svg">
<path fill-rule="evenodd" clip-rule="evenodd" d="M45.222 16.2205L31.2652 33.168L19.1953 20.8089L8.70693 36.0789L4.87549 33.4472L18.5674 13.5133L30.9708 26.2137L41.6339 13.2656L45.222 16.2205Z" fill="#0078D4"/>
<path d="M6.67737 39.4436C9.36174 39.4436 11.5378 37.2675 11.5378 34.5831C11.5378 31.8988 9.36174 29.7227 6.67737 29.7227C3.993 29.7227 1.81689 31.8988 1.81689 34.5831C1.81689 37.2675 3.993 39.4436 6.67737 39.4436Z" fill="#50E6FF"/>
<path d="M6.67719 38.6532C8.92541 38.6532 10.7479 36.8307 10.7479 34.5825C10.7479 32.3343 8.92541 30.5117 6.67719 30.5117C4.42898 30.5117 2.60645 32.3343 2.60645 34.5825C2.60645 36.8307 4.42898 38.6532 6.67719 38.6532Z" fill="white"/>
<path d="M6.67732 37.799C8.45341 37.799 9.89321 36.3592 9.89321 34.5831C9.89321 32.807 8.45341 31.3672 6.67732 31.3672C4.90123 31.3672 3.46143 32.807 3.46143 34.5831C3.46143 36.3592 4.90123 37.799 6.67732 37.799Z" fill="#0078D4"/>
<path d="M30.9308 34.51C33.6152 34.51 35.7913 32.3339 35.7913 29.6495C35.7913 26.9652 33.6152 24.7891 30.9308 24.7891C28.2464 24.7891 26.0703 26.9652 26.0703 29.6495C26.0703 32.3339 28.2464 34.51 30.9308 34.51Z" fill="#50E6FF"/>
<path d="M30.9306 33.7196C33.1788 33.7196 35.0014 31.8971 35.0014 29.6489C35.0014 27.4007 33.1788 25.5781 30.9306 25.5781C28.6824 25.5781 26.8599 27.4007 26.8599 29.6489C26.8599 31.8971 28.6824 33.7196 30.9306 33.7196Z" fill="white"/>
<path d="M30.9307 32.8654C32.7068 32.8654 34.1466 31.4256 34.1466 29.6495C34.1466 27.8734 32.7068 26.4336 30.9307 26.4336C29.1546 26.4336 27.7148 27.8734 27.7148 29.6495C27.7148 31.4256 29.1546 32.8654 30.9307 32.8654Z" fill="#0078D4"/>
<path d="M18.9137 22.3381C21.5981 22.3381 23.7742 20.162 23.7742 17.4777C23.7742 14.7933 21.5981 12.6172 18.9137 12.6172C16.2293 12.6172 14.0532 14.7933 14.0532 17.4777C14.0532 20.162 16.2293 22.3381 18.9137 22.3381Z" fill="#50E6FF"/>
<path d="M18.914 21.5477C21.1622 21.5477 22.9848 19.7252 22.9848 17.477C22.9848 15.2288 21.1622 13.4062 18.914 13.4062C16.6658 13.4062 14.8433 15.2288 14.8433 17.477C14.8433 19.7252 16.6658 21.5477 18.914 21.5477Z" fill="white"/>
<path d="M18.9141 20.6935C20.6902 20.6935 22.13 19.2537 22.13 17.4776C22.13 15.7015 20.6902 14.2617 18.9141 14.2617C17.138 14.2617 15.6982 15.7015 15.6982 17.4776C15.6982 19.2537 17.138 20.6935 18.9141 20.6935Z" fill="#0078D4"/>
<path d="M43.3141 19.635C45.9985 19.635 48.1746 17.4589 48.1746 14.7745C48.1746 12.0902 45.9985 9.91406 43.3141 9.91406C40.6297 9.91406 38.4536 12.0902 38.4536 14.7745C38.4536 17.4589 40.6297 19.635 43.3141 19.635Z" fill="#50E6FF"/>
<path d="M43.3139 18.8446C45.5621 18.8446 47.3847 17.0221 47.3847 14.7739C47.3847 12.5257 45.5621 10.7031 43.3139 10.7031C41.0657 10.7031 39.2432 12.5257 39.2432 14.7739C39.2432 17.0221 41.0657 18.8446 43.3139 18.8446Z" fill="white"/>
<path d="M43.314 17.9904C45.0901 17.9904 46.5299 16.5506 46.5299 14.7745C46.5299 12.9984 45.0901 11.5586 43.314 11.5586C41.5379 11.5586 40.0981 12.9984 40.0981 14.7745C40.0981 16.5506 41.5379 17.9904 43.314 17.9904Z" fill="#0078D4"/>
</svg>
