<svg data-slug-id="node04" viewBox="0 0 49 49" xmlns="http://www.w3.org/2000/svg">
<path d="M28.161 24.7919C28.161 26.9155 26.4419 28.6346 24.3183 28.6346C22.1947 28.6346 20.4756 26.9155 20.4756 24.7919C20.4756 22.6683 22.1947 20.9492 24.3183 20.9492C26.4419 20.9492 28.161 22.6683 28.161 24.7919Z" fill="#0078D4"/>
<path d="M30.7149 7.89725C30.5042 6.71748 29.4677 5.82422 28.2374 5.82422C27.4115 5.82422 26.6784 6.22029 26.2233 6.82703C25.6082 6.76804 24.9846 6.73433 24.361 6.73433C14.4171 6.73433 6.35254 14.7905 6.35254 24.7428C6.35254 34.6866 14.4087 42.7512 24.361 42.7512C34.3048 42.7512 42.3694 34.6866 42.3694 24.7428C42.361 17.0405 37.5239 10.4675 30.7149 7.89725ZM36.1924 36.5826C34.6503 38.1248 32.8638 39.3298 30.8666 40.1725C28.802 41.0489 26.611 41.4871 24.3525 41.4871C22.0941 41.4871 19.9031 41.0405 17.8385 40.1725C15.8413 39.3298 14.0548 38.1248 12.5127 36.5826C10.9789 35.0489 9.76546 33.254 8.92276 31.2568C8.04636 29.1922 7.60816 27.0012 7.60816 24.7428C7.60816 22.4843 8.04636 20.2933 8.92276 18.2287C9.76546 16.2315 10.9705 14.445 12.5127 12.9029C14.0464 11.3692 15.8413 10.1557 17.8385 9.31298C19.9031 8.43658 22.0941 7.99838 24.3525 7.99838C24.816 7.99838 25.2711 8.01523 25.7261 8.05737C25.7177 8.15006 25.7093 8.25119 25.7093 8.35231C25.7093 9.74276 26.8385 10.872 28.2289 10.872C29.316 10.872 30.2514 10.181 30.5969 9.21186C30.6812 9.24557 30.7739 9.27928 30.8582 9.32141C32.8553 10.1641 34.6419 11.3692 36.184 12.9113C37.7261 14.445 38.9312 16.2399 39.7739 18.2371C40.6503 20.3017 41.0885 22.4928 41.0885 24.7512C41.0885 27.0096 40.6419 29.2006 39.7739 31.2652C38.9396 33.254 37.7261 35.0405 36.1924 36.5826Z" fill="#0078D4"/>
<path d="M48.268 24.7439C48.268 20.3197 47.0629 16.1736 44.973 12.6175C45.4534 12.154 45.7567 11.5135 45.7567 10.7888C45.7567 9.39835 44.6275 8.26914 43.2371 8.26914C42.7905 8.26914 42.3607 8.38711 41.9983 8.59779C37.6247 3.8197 31.3382 0.828125 24.3523 0.828125C11.1472 0.828125 0.436523 11.5304 0.436523 24.7439C0.436523 29.1512 1.62473 33.2719 3.70619 36.8197C3.20057 37.2832 2.88034 37.9489 2.88034 38.6905C2.88034 40.0809 4.00956 41.2101 5.40001 41.2101C5.87192 41.2101 6.31012 41.0837 6.68091 40.8562C11.0545 45.6512 17.3494 48.6596 24.3523 48.6596C28.4393 48.6596 32.2905 47.6315 35.6612 45.8197C36.0657 46.0978 36.5545 46.2579 37.0854 46.2579C38.4759 46.2579 39.6051 45.1287 39.6051 43.7382C39.6051 43.5528 39.5882 43.3759 39.5461 43.2073C44.8719 38.8253 48.268 32.1849 48.268 24.7439ZM38.9562 42.0613C38.4927 41.5472 37.827 41.227 37.077 41.227C35.6865 41.227 34.5573 42.3562 34.5573 43.7467C34.5573 44.1427 34.65 44.5135 34.8101 44.8422C34.2708 45.1203 33.7315 45.3815 33.1669 45.6175C30.3775 46.7972 27.4112 47.3955 24.3523 47.3955C21.2933 47.3955 18.327 46.7972 15.5376 45.6175C12.841 44.4798 10.4141 42.845 8.33259 40.7635C8.07135 40.5023 7.81855 40.2326 7.57416 39.963C7.79326 39.5922 7.91967 39.154 7.91967 38.6905C7.91967 37.3 6.79046 36.1708 5.40001 36.1708C5.20619 36.1708 5.01237 36.1961 4.82697 36.2382C4.32136 35.3787 3.87473 34.4939 3.47866 33.5669C2.29888 30.7776 1.70057 27.8113 1.70057 24.7523C1.70057 21.6933 2.29888 18.727 3.47866 15.9377C4.6163 13.241 6.25113 10.8141 8.33259 8.73262C10.4141 6.65116 12.8326 5.01633 15.5376 3.87869C18.327 2.69891 21.2933 2.1006 24.3523 2.1006C27.4112 2.1006 30.3775 2.69891 33.1669 3.87869C35.8635 5.01633 38.2905 6.65116 40.3719 8.73262C40.6163 8.977 40.8523 9.22981 41.0882 9.48262C40.8523 9.87026 40.7174 10.3169 40.7174 10.8057C40.7174 12.1961 41.8466 13.3253 43.2371 13.3253C43.4562 13.3253 43.6669 13.3 43.8691 13.241C44.3747 14.1006 44.8298 15.0023 45.2259 15.9292C46.4056 18.7186 47.0039 21.6849 47.0039 24.7439C47.0039 27.8028 46.4056 30.7691 45.2259 33.5585C44.0882 36.2551 42.4534 38.6821 40.3719 40.7635C39.9169 41.2186 39.445 41.6484 38.9562 42.0613Z" fill="#50E6FF"/>
<path d="M34.9712 30.2284C35.8223 28.5851 36.3026 26.7227 36.3026 24.7424C36.3026 18.1441 30.9515 12.793 24.3532 12.793C18.5891 12.793 13.7858 16.8716 12.6565 22.2902C11.4599 22.484 10.5498 23.5289 10.5498 24.7761C10.5498 26.0317 11.4683 27.0767 12.6734 27.2705C13.8363 32.6553 18.6228 36.6918 24.3532 36.6918C27.1594 36.6918 29.738 35.7227 31.7773 34.1048C32.1818 34.3829 32.679 34.5514 33.2099 34.5514C34.6004 34.5514 35.7296 33.4222 35.7296 32.0317C35.7296 31.3239 35.4431 30.6834 34.9712 30.2284ZM16.7942 32.3014C15.3532 30.8604 14.3756 29.0823 13.9374 27.1525C14.8981 26.7986 15.5891 25.8716 15.5891 24.7845C15.5891 23.689 14.8897 22.7621 13.9206 22.4081C14.3588 20.4447 15.3363 18.6413 16.7942 17.1834C18.8167 15.1609 21.4964 14.057 24.3532 14.057C27.2099 14.057 29.8897 15.1694 31.9122 17.1834C33.9346 19.2059 35.0386 21.8857 35.0386 24.7424C35.0386 26.4615 34.6341 28.1132 33.8756 29.5963C33.665 29.5374 33.4374 29.5036 33.2015 29.5036C31.811 29.5036 30.6818 30.6329 30.6818 32.0233C30.6818 32.4278 30.7745 32.807 30.9431 33.1441C29.0723 34.6188 26.7717 35.4194 24.3447 35.4194C21.4964 35.4278 18.8167 34.3154 16.7942 32.3014Z" fill="#0078D4"/>
</svg>
