<svg data-slug-id="node14" viewBox="0 0 44 48" xmlns="http://www.w3.org/2000/svg">
<path d="M23.1928 2.61719H20.6665V18.314H23.1928V2.61719Z" fill="#50E6FF"/>
<path d="M4.3281 12.3789L3.06494 14.5667L16.3083 22.213L17.5715 20.0252L4.3281 12.3789Z" fill="#50E6FF"/>
<path d="M39.3551 12.4844L26.3086 20.017L27.5717 22.2048L40.6182 14.6722L39.3551 12.4844Z" fill="#50E6FF"/>
<path d="M21.9245 12.3594L19.9109 13.5273L13.87 17.0176L11.8564 18.1855V20.5079V27.4885V29.8108L13.87 30.9787L19.9243 34.469L21.938 35.6369L23.9516 34.469L30.0059 30.9787L32.0195 29.8108V27.4885V20.5079V18.1855L30.0059 17.0176L23.9382 13.5273L21.9245 12.3594Z" fill="#50E6FF"/>
<path d="M18.1401 44.2445V44.1855C18.1401 42.1055 19.8243 40.4297 21.8959 40.4297H21.9548C24.0348 40.4297 25.7106 42.114 25.7106 44.1855V44.2445C25.7106 46.3245 24.0264 48.0003 21.9548 48.0003H21.8959C19.8243 48.0003 18.1401 46.3161 18.1401 44.2445Z" fill="#0078D4"/>
<path d="M18.1401 3.82316V3.76421C18.1401 1.68421 19.8243 0 21.9043 0H21.9633C24.0348 0 25.7191 1.68421 25.7191 3.76421V3.82316C25.7191 5.89474 24.0348 7.57895 21.9633 7.57895H21.9043C19.8243 7.57895 18.1401 5.89474 18.1401 3.82316Z" fill="#0078D4"/>
<path d="M4.2874 17.6838H4.22845C2.14845 17.6838 0.472656 15.9996 0.472656 13.928V13.8691C0.472656 11.7891 2.15688 10.1133 4.22845 10.1133H4.2874C6.3674 10.1133 8.04324 11.7975 8.04324 13.8691V13.928C8.05164 15.9996 6.3674 17.6838 4.2874 17.6838Z" fill="#0078D4"/>
<path d="M41.5591 17.1608L41.5086 17.1945C39.7065 18.2303 37.4076 17.6155 36.3718 15.8219L36.3381 15.7713C35.3023 13.9692 35.917 11.6703 37.7107 10.6345L37.7612 10.6008C39.5633 9.56502 41.8623 10.1798 42.8981 11.9734L42.9318 12.024C43.9676 13.8261 43.3528 16.125 41.5591 17.1608Z" fill="#0078D4"/>
<path d="M23.0195 25.0703H21.0195V39.0703H23.0195V25.0703Z" fill="#0078D4"/>
</svg>
