<svg data-slug-id="nodes-chain-square" xmlns="http://www.w3.org/2000/svg" viewBox="0 0 97 97">
  <path d="M47.472 47.4373L9.57715 85.3322L11.3635 87.1185L49.2584 49.2237L47.472 47.4373Z" fill="#50E6FF"/>
  <path d="M47.1703 47.9318L34.5342 85.8322L36.9309 86.6312L49.567 48.7309L47.1703 47.9318Z" fill="#50E6FF"/>
  <path d="M47.9755 47.1296L10.0752 59.7657L10.8743 62.1625L48.7746 49.5264L47.9755 47.1296Z" fill="#50E6FF"/>
  <path d="M10.8818 34.5057L10.083 36.9025L47.9833 49.5346L48.7822 47.1378L10.8818 34.5057Z" fill="#50E6FF"/>
  <path d="M49.258 47.4364L47.4717 49.2228L85.3665 87.1176L87.1529 85.3313L49.258 47.4364Z" fill="#50E6FF"/>
  <path d="M49.5715 47.9474L47.1748 48.7462L59.8069 86.6465L62.2036 85.8477L49.5715 47.9474Z" fill="#50E6FF"/>
  <path d="M48.7764 47.1385L47.9775 49.5353L85.8779 62.1674L86.6767 59.7707L48.7764 47.1385Z" fill="#50E6FF"/>
  <path d="M85.87 34.4968L47.9697 47.1329L48.7688 49.5297L86.6691 36.8936L85.87 34.4968Z" fill="#50E6FF"/>
  <path d="M36.9407 10.049L34.5439 10.8478L47.1761 48.7481L49.5728 47.9493L36.9407 10.049Z" fill="#50E6FF"/>
  <path d="M85.3665 9.54277L47.4717 47.4376L49.258 49.224L87.1529 11.3291L85.3665 9.54277Z" fill="#50E6FF"/>
  <path d="M48.3708 71.0639C35.8065 71.0639 25.6338 60.8913 25.6338 48.327C25.6338 35.7627 35.8065 25.59 48.3708 25.59C60.9351 25.59 71.1078 35.7627 71.1078 48.327C71.1078 60.8913 60.9351 71.0639 48.3708 71.0639Z" fill="#0078D4"/>
  <path d="M20.5808 76.1173H0.370117V96.328H20.5808V76.1173Z" fill="#0078D4"/>
  <path d="M40.7919 81.172H30.6865V91.2773H40.7919V81.172Z" fill="#0078D4"/>
  <path d="M71.1062 76.1173H50.8955V96.328H71.1062V76.1173Z" fill="#0078D4"/>
  <path d="M91.3192 81.172H81.2139V91.2773H91.3192V81.172Z" fill="#0078D4"/>
  <path d="M20.5808 25.59H0.370117V45.8006H20.5808V25.59Z" fill="#0078D4"/>
  <path d="M15.5282 55.9064H5.42285V66.0117H15.5282V55.9064Z" fill="#0078D4"/>
  <path d="M91.3192 30.6447H81.2139V40.75H91.3192V30.6447Z" fill="#0078D4"/>
  <path d="M96.3718 50.8556H76.1611V71.0663H96.3718V50.8556Z" fill="#0078D4"/>
  <path d="M40.7919 5.37903H30.6865V15.4844H40.7919V5.37903Z" fill="#0078D4"/>
  <path d="M96.3718 0.328247H76.1611V20.5389H96.3718V0.328247Z" fill="#0078D4"/>
</svg>
