<svg data-slug-id="node10" viewBox="0 0 49 49" xmlns="http://www.w3.org/2000/svg">
<path d="M38.0105 32.6231V27.1326H34.9453C34.659 26.139 34.2379 25.2042 33.7074 24.3453L35.9389 22.1138L32.0569 18.2317L29.7243 20.5643C28.8907 20.1012 27.9896 19.7391 27.0381 19.5033V16.1602H21.5477V19.5538C20.6214 19.798 19.7456 20.1685 18.9288 20.6317L16.5289 18.2317L12.6468 22.1138L14.9963 24.4632C14.4994 25.2885 14.1037 26.1811 13.8342 27.1326H10.5669V32.6231H13.6826C13.9184 33.642 14.2889 34.6104 14.7857 35.4946L12.6384 37.642L16.5204 41.524L18.5667 39.4777C19.4762 40.0504 20.4782 40.4882 21.5393 40.7661V43.604H27.0297V40.8167C28.116 40.5472 29.1433 40.1177 30.0696 39.5535L32.0401 41.524L35.9221 37.642L33.9011 35.6209C34.4316 34.6946 34.8274 33.6926 35.0716 32.6231H38.0105V32.6231ZM24.2929 34.9304C21.5056 34.9304 19.2404 32.6652 19.2404 29.8779C19.2404 27.0905 21.5056 24.8253 24.2929 24.8253C27.0802 24.8253 29.3454 27.0905 29.3454 29.8779C29.3454 32.6652 27.0802 34.9304 24.2929 34.9304Z" fill="#50E6FF"/>
<path d="M24.2494 10.8026C25.6446 10.8026 26.7757 9.67151 26.7757 8.27628C26.7757 6.88105 25.6446 5.75 24.2494 5.75C22.8542 5.75 21.7231 6.88105 21.7231 8.27628C21.7231 9.67151 22.8542 10.8026 24.2494 10.8026Z" fill="#0078D4"/>
<path d="M9.93495 17.9627C11.3302 17.9627 12.4612 16.8317 12.4612 15.4364C12.4612 14.0412 11.3302 12.9102 9.93495 12.9102C8.53974 12.9102 7.40869 14.0412 7.40869 15.4364C7.40869 16.8317 8.53974 17.9627 9.93495 17.9627Z" fill="#0078D4"/>
<path d="M38.5634 17.9627C39.9586 17.9627 41.0896 16.8317 41.0896 15.4364C41.0896 14.0412 39.9586 12.9102 38.5634 12.9102C37.1682 12.9102 36.0371 14.0412 36.0371 15.4364C36.0371 16.8317 37.1682 17.9627 38.5634 17.9627Z" fill="#0078D4"/>
<path d="M2.77675 10.8026C4.17196 10.8026 5.303 9.67151 5.303 8.27628C5.303 6.88105 4.17196 5.75 2.77675 5.75C1.38153 5.75 0.250488 6.88105 0.250488 8.27628C0.250488 9.67151 1.38153 10.8026 2.77675 10.8026Z" fill="#0078D4"/>
<path d="M45.724 10.8026C47.1192 10.8026 48.2503 9.67151 48.2503 8.27628C48.2503 6.88105 47.1192 5.75 45.724 5.75C44.3288 5.75 43.1978 6.88105 43.1978 8.27628C43.1978 9.67151 44.3288 10.8026 45.724 10.8026Z" fill="#0078D4"/>
<path d="M2.77675 25.119C4.17196 25.119 5.303 23.9879 5.303 22.5927C5.303 21.1975 4.17196 20.0664 2.77675 20.0664C1.38153 20.0664 0.250488 21.1975 0.250488 22.5927C0.250488 23.9879 1.38153 25.119 2.77675 25.119Z" fill="#0078D4"/>
<path d="M45.724 25.119C47.1192 25.119 48.2503 23.9879 48.2503 22.5927C48.2503 21.1975 47.1192 20.0664 45.724 20.0664C44.3288 20.0664 43.1978 21.1975 43.1978 22.5927C43.1978 23.9879 44.3288 25.119 45.724 25.119Z" fill="#0078D4"/>
<path d="M24.2494 32.2752C25.6446 32.2752 26.7757 31.1442 26.7757 29.7489C26.7757 28.3537 25.6446 27.2227 24.2494 27.2227C22.8542 27.2227 21.7231 28.3537 21.7231 29.7489C21.7231 31.1442 22.8542 32.2752 24.2494 32.2752Z" fill="#0078D4"/>
</svg>
