<svg data-slug-id="node15" viewBox="0 0 61 60" xmlns="http://www.w3.org/2000/svg">
<path d="M48.7466 48.7664V40.8789L11.2897 40.8789V48.7664L48.7466 48.7664Z" fill="#0078D4"/>
<path d="M48.7474 31.0547H11.2905V38.9422H48.7474V31.0547Z" fill="#50E6FF"/>
<path d="M48.7474 11.2344H11.2905V19.1338H48.7474V11.2344Z" fill="#50E6FF"/>
<path d="M48.7495 29.0917V21.1445L11.2926 21.1445V29.0917L48.7495 29.0917Z" fill="#0078D4"/>
<path d="M37.0651 22.9531H32.8647V27.1534H37.0651V22.9531Z" fill="#50E6FF"/>
<path d="M27.2086 22.9531H23.0083V27.1534H27.2086V22.9531Z" fill="#50E6FF"/>
<path d="M17.3165 22.9531H13.1162V27.1534H17.3165V22.9531Z" fill="#50E6FF"/>
<path d="M46.9576 22.9531H42.7573V27.1534H46.9576V22.9531Z" fill="#50E6FF"/>
<path d="M37.0679 17.3019V13.1016H32.8675V17.3019H37.0679Z" fill="#0078D4"/>
<path d="M27.208 17.3058V13.1055H23.0077V17.3058H27.208Z" fill="#0078D4"/>
<path d="M17.3203 17.298V13.0977H13.12V17.298H17.3203Z" fill="#0078D4"/>
<path d="M46.96 17.3019V13.1016H42.7596V17.3019H46.96Z" fill="#0078D4"/>
<path d="M15.1807 46.9004C16.3537 46.9004 17.3047 45.9494 17.3047 44.7764C17.3047 43.6033 16.3537 42.6523 15.1807 42.6523C14.0076 42.6523 13.0566 43.6033 13.0566 44.7764C13.0566 45.9494 14.0076 46.9004 15.1807 46.9004Z" fill="#50E6FF"/>
<path d="M25.0967 46.9004C26.2698 46.9004 27.2207 45.9494 27.2207 44.7764C27.2207 43.6033 26.2698 42.6523 25.0967 42.6523C23.9236 42.6523 22.9727 43.6033 22.9727 44.7764C22.9727 45.9494 23.9236 46.9004 25.0967 46.9004Z" fill="#50E6FF"/>
<path d="M34.9648 46.9004C36.1379 46.9004 37.0889 45.9494 37.0889 44.7764C37.0889 43.6033 36.1379 42.6523 34.9648 42.6523C33.7918 42.6523 32.8408 43.6033 32.8408 44.7764C32.8408 45.9494 33.7918 46.9004 34.9648 46.9004Z" fill="#50E6FF"/>
<path d="M44.7857 46.9004C45.9587 46.9004 46.9097 45.9494 46.9097 44.7764C46.9097 43.6033 45.9587 42.6523 44.7857 42.6523C43.6126 42.6523 42.6616 43.6033 42.6616 44.7764C42.6616 45.9494 43.6126 46.9004 44.7857 46.9004Z" fill="#50E6FF"/>
<path d="M15.1807 37.0215C16.3537 37.0215 17.3047 36.0705 17.3047 34.8975C17.3047 33.7244 16.3537 32.7734 15.1807 32.7734C14.0076 32.7734 13.0566 33.7244 13.0566 34.8975C13.0566 36.0705 14.0076 37.0215 15.1807 37.0215Z" fill="#0078D4"/>
<path d="M25.0967 37.0215C26.2698 37.0215 27.2207 36.0705 27.2207 34.8975C27.2207 33.7244 26.2698 32.7734 25.0967 32.7734C23.9236 32.7734 22.9727 33.7244 22.9727 34.8975C22.9727 36.0705 23.9236 37.0215 25.0967 37.0215Z" fill="#0078D4"/>
<path d="M34.9648 37.0215C36.1379 37.0215 37.0889 36.0705 37.0889 34.8975C37.0889 33.7244 36.1379 32.7734 34.9648 32.7734C33.7918 32.7734 32.8408 33.7244 32.8408 34.8975C32.8408 36.0705 33.7918 37.0215 34.9648 37.0215Z" fill="#0078D4"/>
<path d="M44.7857 37.0215C45.9587 37.0215 46.9097 36.0705 46.9097 34.8975C46.9097 33.7244 45.9587 32.7734 44.7857 32.7734C43.6126 32.7734 42.6616 33.7244 42.6616 34.8975C42.6616 36.0705 43.6126 37.0215 44.7857 37.0215Z" fill="#0078D4"/>
</svg>
