<svg data-slug-id="node11" viewBox="0 0 49 49" xmlns="http://www.w3.org/2000/svg">
<path d="M45.6082 41.6658L17.2293 28.3105L2.29883 34.4577V19.8898L17.263 26.9295L29.9956 21.6834L2.66093 8.82491L3.19988 7.67969L31.5788 21.035L46.5093 14.8879V29.4557L31.5451 22.416L18.8125 27.6621L46.1472 40.529L45.6082 41.6658ZM3.56198 21.8771V32.5714L15.6799 27.5779L3.56198 21.8771ZM33.1283 21.7592L45.2461 27.46V16.7657L33.1283 21.7592Z" fill="#50E6FF"/>
<path d="M2.93061 36.0446C4.32585 36.0446 5.45692 34.9136 5.45692 33.5184C5.45692 32.1232 4.32585 30.9922 2.93061 30.9922C1.53537 30.9922 0.404297 32.1232 0.404297 33.5184C0.404297 34.9136 1.53537 36.0446 2.93061 36.0446Z" fill="#0078D4"/>
<path d="M45.8779 18.3571C47.2731 18.3571 48.4042 17.2261 48.4042 15.8309C48.4042 14.4357 47.2731 13.3047 45.8779 13.3047C44.4826 13.3047 43.3516 14.4357 43.3516 15.8309C43.3516 17.2261 44.4826 18.3571 45.8779 18.3571Z" fill="#0078D4"/>
<path d="M45.8779 30.99C47.2731 30.99 48.4042 29.8589 48.4042 28.4637C48.4042 27.0685 47.2731 25.9375 45.8779 25.9375C44.4826 25.9375 43.3516 27.0685 43.3516 28.4637C43.3516 29.8589 44.4826 30.99 45.8779 30.99Z" fill="#0078D4"/>
<path d="M45.8779 43.6228C47.2731 43.6228 48.4042 42.4917 48.4042 41.0965C48.4042 39.7013 47.2731 38.5703 45.8779 38.5703C44.4826 38.5703 43.3516 39.7013 43.3516 41.0965C43.3516 42.4917 44.4826 43.6228 45.8779 43.6228Z" fill="#0078D4"/>
<path d="M2.93061 23.4118C4.32585 23.4118 5.45692 22.2808 5.45692 20.8856C5.45692 19.4904 4.32585 18.3594 2.93061 18.3594C1.53537 18.3594 0.404297 19.4904 0.404297 20.8856C0.404297 22.2808 1.53537 23.4118 2.93061 23.4118Z" fill="#0078D4"/>
<path d="M2.93061 10.779C4.32585 10.779 5.45692 9.64798 5.45692 8.25279C5.45692 6.85759 4.32585 5.72656 2.93061 5.72656C1.53537 5.72656 0.404297 6.85759 0.404297 8.25279C0.404297 9.64798 1.53537 10.779 2.93061 10.779Z" fill="#0078D4"/>
<path d="M45.4323 2.76062L2.48828 45.7031L3.38146 46.5963L46.3254 3.65377L45.4323 2.76062Z" fill="#50E6FF"/>
<path d="M2.93061 48.6775C4.32585 48.6775 5.45692 47.5464 5.45692 46.1512C5.45692 44.756 4.32585 43.625 2.93061 43.625C1.53537 43.625 0.404297 44.756 0.404297 46.1512C0.404297 47.5464 1.53537 48.6775 2.93061 48.6775Z" fill="#0078D4"/>
<path d="M45.8779 5.72823C47.2731 5.72823 48.4042 4.5972 48.4042 3.20201C48.4042 1.80681 47.2731 0.675781 45.8779 0.675781C44.4826 0.675781 43.3516 1.80681 43.3516 3.20201C43.3516 4.5972 44.4826 5.72823 45.8779 5.72823Z" fill="#0078D4"/>
<path d="M24.4045 39.2182C32.0783 39.2182 38.2992 32.9975 38.2992 25.3239C38.2992 17.6504 32.0783 11.4297 24.4045 11.4297C16.7306 11.4297 10.5098 17.6504 10.5098 25.3239C10.5098 32.9975 16.7306 39.2182 24.4045 39.2182Z" fill="#0078D4"/>
<path d="M24.4037 30.3783C27.1942 30.3783 29.4563 28.1163 29.4563 25.3259C29.4563 22.5355 27.1942 20.2734 24.4037 20.2734C21.6132 20.2734 19.3511 22.5355 19.3511 25.3259C19.3511 28.1163 21.6132 30.3783 24.4037 30.3783Z" fill="#50E6FF"/>
</svg>
