<svg data-slug-id="node08" viewBox="0 0 49 49" xmlns="http://www.w3.org/2000/svg">
<path d="M26.205 30.3672H23.6787V44.3292H26.205V30.3672Z" fill="#50E6FF"/>
<path d="M26.205 3.29297H23.6787V18.9897H26.205V3.29297Z" fill="#50E6FF"/>
<path d="M30.7021 26.5466L29.439 28.7344L42.2157 36.1112L43.4788 33.9234L30.7021 26.5466Z" fill="#50E6FF"/>
<path d="M7.34079 13.0544L6.07764 15.2422L19.3211 22.8885L20.5842 20.7007L7.34079 13.0544Z" fill="#50E6FF"/>
<path d="M42.3678 13.1627L29.3213 20.6953L30.5844 22.8831L43.631 15.3505L42.3678 13.1627Z" fill="#50E6FF"/>
<path d="M19.2321 26.5123L5.85742 34.2344L7.12058 36.4222L20.4953 28.7001L19.2321 26.5123Z" fill="#50E6FF"/>
<path d="M24.9418 20.2887L28.7397 22.4781V26.8571L24.9418 29.0549L21.1523 26.8655V22.4866L24.9418 20.2887ZM24.9418 17.375L23.6786 18.1076L19.8891 20.2971L18.626 21.0297V22.4866V26.8655V28.3223L19.8891 29.0549L23.687 31.2444L24.9502 31.977L26.2133 31.2444L30.0112 29.0549L31.2744 28.3223V26.8655V22.4866V21.0297L30.0112 20.2971L26.2049 18.1076L24.9418 17.375Z" fill="#0078D4"/>
<path d="M21.1528 44.9202V44.8612C21.1528 42.7813 22.837 41.1055 24.9086 41.1055H24.9676C27.0476 41.1055 28.7234 42.7897 28.7234 44.8612V44.9202C28.7234 47.0002 27.0391 48.676 24.9676 48.676H24.9086C22.837 48.676 21.1528 46.9918 21.1528 44.9202Z" fill="#0078D4"/>
<path d="M21.1528 4.49892V4.43998C21.1528 2.35998 22.837 0.675781 24.917 0.675781H24.976C27.0476 0.675781 28.7318 2.35998 28.7318 4.43998V4.49892C28.7318 6.57049 27.0476 8.25469 24.976 8.25469H24.917C22.837 8.25469 21.1528 6.57049 21.1528 4.49892Z" fill="#0078D4"/>
<path d="M40.7908 38.0829L40.7403 38.0492C38.9382 37.0134 38.3234 34.7145 39.3676 32.9124L39.4013 32.8618C40.4371 31.0597 42.736 30.445 44.5382 31.4892L44.5887 31.5229C46.3908 32.5587 47.0055 34.8576 45.9613 36.6597L45.9276 36.7102C44.8834 38.5039 42.5845 39.1186 40.7908 38.0829Z" fill="#0078D4"/>
<path d="M7.30009 18.3596H7.24114C5.16114 18.3596 3.48535 16.6754 3.48535 14.6038V14.5448C3.48535 12.4648 5.16956 10.7891 7.24114 10.7891H7.30009C9.38009 10.7891 11.0559 12.4733 11.0559 14.5448V14.6038C11.0643 16.6754 9.38009 18.3596 7.30009 18.3596Z" fill="#0078D4"/>
<path d="M44.5719 17.8366L44.5213 17.8702C42.7192 18.906 40.4203 18.2913 39.3845 16.4976L39.3508 16.4471C38.315 14.645 38.9298 12.3461 40.7234 11.3103L40.774 11.2766C42.5761 10.2408 44.875 10.8555 45.9108 12.6492L45.9445 12.6997C46.9803 14.5018 46.3655 16.8008 44.5719 17.8366Z" fill="#0078D4"/>
<path d="M7.30009 38.5705H7.24114C5.16114 38.5705 3.48535 36.8863 3.48535 34.8147V34.7558C3.48535 32.6758 5.16956 31 7.24114 31H7.30009C9.38009 31 11.0559 32.6842 11.0559 34.7558V34.8147C11.0643 36.8863 9.38009 38.5705 7.30009 38.5705Z" fill="#0078D4"/>
</svg>
