<svg data-slug-id="node16" viewBox="0 0 49 49" xmlns="http://www.w3.org/2000/svg">
<path d="M28.6224 24.1396C28.6224 26.2632 26.9033 27.9823 24.7797 27.9823C22.6561 27.9823 20.937 26.2632 20.937 24.1396C20.937 22.016 22.6561 20.2969 24.7797 20.2969C26.9033 20.2969 28.6224 22.016 28.6224 24.1396Z" fill="#0078D4"/>
<path d="M31.1763 7.24491C30.9657 6.06513 29.9291 5.17188 28.6988 5.17188C27.873 5.17188 27.1398 5.56794 26.6848 6.17468C26.0696 6.1157 25.446 6.08199 24.8224 6.08199C14.8786 6.08199 6.81396 14.1382 6.81396 24.0904C6.81396 34.0342 14.8701 42.0988 24.8224 42.0988C34.7662 42.0988 42.8308 34.0342 42.8308 24.0904C42.8224 16.3882 37.9853 9.81513 31.1763 7.24491ZM36.6539 35.9303C35.1117 37.4724 33.3252 38.6775 31.328 39.5202C29.2634 40.3966 27.0724 40.8348 24.814 40.8348C22.5555 40.8348 20.3645 40.3882 18.2999 39.5202C16.3027 38.6775 14.5162 37.4724 12.9741 35.9303C11.4404 34.3966 10.2269 32.6017 9.38419 30.6045C8.50779 28.5399 8.06958 26.3488 8.06958 24.0904C8.06958 21.832 8.50779 19.641 9.38419 17.5764C10.2269 15.5792 11.4319 13.7927 12.9741 12.2505C14.5078 10.7168 16.3027 9.50334 18.2999 8.66064C20.3645 7.78424 22.5555 7.34603 24.814 7.34603C25.2774 7.34603 25.7325 7.36289 26.1876 7.40502C26.1791 7.49772 26.1707 7.59884 26.1707 7.69997C26.1707 9.09041 27.2999 10.2196 28.6904 10.2196C29.7774 10.2196 30.7128 9.52862 31.0583 8.55952C31.1426 8.59322 31.2353 8.62693 31.3196 8.66907C33.3168 9.51176 35.1033 10.7168 36.6454 12.259C38.1876 13.7927 39.3926 15.5876 40.2353 17.5848C41.1117 19.6494 41.5499 21.8404 41.5499 24.0988C41.5499 26.3573 41.1033 28.5483 40.2353 30.6129C39.401 32.6017 38.1876 34.3882 36.6539 35.9303Z" fill="#3BCAF4"/>
<path d="M48.7294 24.0915C48.7294 19.6674 47.5244 15.5213 45.4345 11.9651C45.9148 11.5016 46.2182 10.8612 46.2182 10.1365C46.2182 8.74601 45.089 7.61679 43.6985 7.61679C43.2519 7.61679 42.8221 7.73477 42.4597 7.94544C38.0862 3.16735 31.7996 0.175781 24.8137 0.175781C11.6086 0.175781 0.897949 10.878 0.897949 24.0915C0.897949 28.4988 2.08615 32.6196 4.16761 36.1674C3.66199 36.6308 3.34177 37.2966 3.34177 38.0381C3.34177 39.4286 4.47098 40.5578 5.86143 40.5578C6.33334 40.5578 6.77154 40.4314 7.14233 40.2039C11.5159 44.9988 17.8109 48.0072 24.8137 48.0072C28.9008 48.0072 32.7519 46.9792 36.1227 45.1674C36.5272 45.4454 37.0159 45.6056 37.5468 45.6056C38.9373 45.6056 40.0665 44.4763 40.0665 43.0859C40.0665 42.9005 40.0496 42.7235 40.0075 42.555C45.3333 38.173 48.7294 31.5325 48.7294 24.0915ZM39.4176 41.4089C38.9541 40.8949 38.2884 40.5747 37.5384 40.5747C36.148 40.5747 35.0187 41.7039 35.0187 43.0943C35.0187 43.4904 35.1114 43.8612 35.2715 44.1898C34.7322 44.4679 34.1929 44.7292 33.6283 44.9651C30.839 46.1449 27.8727 46.7432 24.8137 46.7432C21.7547 46.7432 18.7884 46.1449 15.9991 44.9651C13.3024 43.8275 10.8755 42.1926 8.79402 40.1112C8.53278 39.8499 8.27997 39.5803 8.03559 39.3106C8.25469 38.9398 8.3811 38.5016 8.3811 38.0381C8.3811 36.6477 7.25188 35.5185 5.86143 35.5185C5.66761 35.5185 5.47379 35.5438 5.2884 35.5859C4.78278 34.7263 4.33615 33.8415 3.94008 32.9145C2.76031 30.1252 2.16199 27.1589 2.16199 24.0999C2.16199 21.041 2.76031 18.0747 3.94008 15.2853C5.07772 12.5887 6.71256 10.1617 8.79402 8.08028C10.8755 5.99881 13.294 4.36398 15.9991 3.22634C18.7884 2.04657 21.7547 1.44825 24.8137 1.44825C27.8727 1.44825 30.839 2.04657 33.6283 3.22634C36.3249 4.36398 38.7519 5.99881 40.8333 8.08028C41.0777 8.32466 41.3137 8.57747 41.5496 8.83028C41.3137 9.21792 41.1788 9.66455 41.1788 10.1533C41.1788 11.5438 42.3081 12.673 43.6985 12.673C43.9176 12.673 44.1283 12.6477 44.3305 12.5887C44.8362 13.4483 45.2912 14.3499 45.6873 15.2769C46.8671 18.0662 47.4654 21.0325 47.4654 24.0915C47.4654 27.1505 46.8671 30.1168 45.6873 32.9061C44.5496 35.6028 42.9148 38.0297 40.8333 40.1112C40.3783 40.5662 39.9064 40.996 39.4176 41.4089Z" fill="#50E6FF"/>
<path d="M35.4326 29.576C36.2837 27.9328 36.764 26.0704 36.764 24.0901C36.764 17.4917 31.4129 12.1406 24.8146 12.1406C19.0506 12.1406 14.2472 16.2193 13.118 21.6378C11.9213 21.8316 11.0112 22.8766 11.0112 24.1238C11.0112 25.3794 11.9298 26.4243 13.1348 26.6182C14.2977 32.003 19.0843 36.0395 24.8146 36.0395C27.6208 36.0395 30.1994 35.0704 32.2388 33.4524C32.6433 33.7305 33.1404 33.8991 33.6713 33.8991C35.0618 33.8991 36.191 32.7698 36.191 31.3794C36.191 30.6715 35.9045 30.0311 35.4326 29.576ZM17.2556 31.6491C15.8146 30.208 14.8371 28.43 14.3989 26.5002C15.3595 26.1462 16.0506 25.2193 16.0506 24.1322C16.0506 23.0367 15.3511 22.1097 14.382 21.7558C14.8202 19.7923 15.7977 17.9889 17.2556 16.5311C19.2781 14.5086 21.9579 13.4047 24.8146 13.4047C27.6713 13.4047 30.3511 14.517 32.3736 16.5311C34.3961 18.5535 35.5 21.2333 35.5 24.0901C35.5 25.8092 35.0955 27.4609 34.3371 28.944C34.1264 28.885 33.8989 28.8513 33.6629 28.8513C32.2725 28.8513 31.1433 29.9805 31.1433 31.371C31.1433 31.7755 31.2359 32.1547 31.4045 32.4917C29.5337 33.9665 27.2331 34.767 24.8062 34.767C21.9579 34.7755 19.2781 33.6631 17.2556 31.6491Z" fill="#0078D4"/>
</svg>
