<svg data-slug-id="node18" viewBox="0 0 49 49" xmlns="http://www.w3.org/2000/svg">
<path d="M32.8032 18.0283V24.0746C32.8032 25.1104 32.399 26.0872 31.6664 26.8283C30.9337 27.5609 29.9569 27.9651 28.9211 27.9651H28.9127L20.2558 27.9483H20.2474C18.8243 27.9483 17.4685 28.4115 16.3569 29.262V7.63672H13.8306V39.0472H16.3569V36.8325H16.3653V34.3651C16.3653 33.3294 16.7695 32.3441 17.5021 31.6115C18.2348 30.8788 19.2116 30.4746 20.2474 30.4746H20.2558L28.9127 30.4915H28.9211C30.6306 30.4915 32.239 29.8262 33.4516 28.6136C34.6643 27.4009 35.3379 25.7925 35.3379 24.0746V18.0283H32.8032Z" fill="#0078D4"/>
<path d="M34.0076 22.8296C37.491 22.8296 40.3149 20.0057 40.3149 16.5222C40.3149 13.0387 37.491 10.2148 34.0076 10.2148C30.5241 10.2148 27.7002 13.0387 27.7002 16.5222C27.7002 20.0057 30.5241 22.8296 34.0076 22.8296Z" fill="#50E6FF"/>
<path d="M15.0939 12.8674C18.5727 12.8674 21.3928 10.0473 21.3928 6.56848C21.3928 3.08967 18.5727 0.269531 15.0939 0.269531C11.6151 0.269531 8.79492 3.08967 8.79492 6.56848C8.79492 10.0473 11.6151 12.8674 15.0939 12.8674Z" fill="#50E6FF"/>
<path d="M15.094 48.2007C18.5775 48.2007 21.4014 45.3768 21.4014 41.8933C21.4014 38.4098 18.5775 35.5859 15.094 35.5859C11.6105 35.5859 8.78662 38.4098 8.78662 41.8933C8.78662 45.3768 11.6105 48.2007 15.094 48.2007Z" fill="#50E6FF"/>
</svg>
