<svg data-slug-id="node02" viewBox="0 0 49 49" xmlns="http://www.w3.org/2000/svg">
<path d="M43.5217 44.2056H3.49805L41.4835 6.30979H4.51717V5.04688H44.5408L6.55541 42.9427H43.5217V44.2056Z" fill="#50E6FF"/>
<path d="M48.0196 43.6586C48.0196 46.4286 45.7708 48.6766 42.9998 48.6766C40.2288 48.6766 37.98 46.4286 37.98 43.6586C37.98 40.8886 40.2288 38.6406 42.9998 38.6406C45.7708 38.6406 48.0196 40.8886 48.0196 43.6586Z" fill="#50E6FF"/>
<path d="M10.2192 43.6586C10.2192 46.4286 7.97037 48.6766 5.19937 48.6766C2.42837 48.6766 0.187988 46.4286 0.187988 43.6586C0.187988 40.8886 2.43679 38.6406 5.20779 38.6406C7.97879 38.6406 10.2192 40.8886 10.2192 43.6586Z" fill="#0078D4"/>
<path d="M10.2192 5.69315C10.2192 8.46314 7.97037 10.7111 5.19937 10.7111C2.42837 10.7111 0.187988 8.46314 0.187988 5.69315C0.187988 2.92316 2.42837 0.683594 5.19937 0.683594C7.97037 0.683594 10.2192 2.92316 10.2192 5.69315Z" fill="#0078D4"/>
<path d="M48.0025 5.69376C48.0025 8.46375 45.7537 10.7117 42.9827 10.7117C40.2117 10.7117 37.9629 8.46375 37.9629 5.69376C37.9629 2.92377 40.2117 0.675781 42.9827 0.675781C45.7537 0.675781 48.0025 2.92377 48.0025 5.69376Z" fill="#0078D4"/>
<path d="M29.1363 24.6117C29.1363 27.3817 26.8875 29.6297 24.1165 29.6297C21.3455 29.6297 19.0967 27.3817 19.0967 24.6117C19.0967 21.8417 21.3455 19.5938 24.1165 19.5938C26.8875 19.5938 29.1363 21.8417 29.1363 24.6117Z" fill="#0078D4"/>
</svg>
