<svg data-slug-id="node06" viewBox="0 0 49 49" xmlns="http://www.w3.org/2000/svg">
<path fill-rule="evenodd" clip-rule="evenodd" d="M36.6348 15.6914C36.6348 17.3481 35.2915 18.6914 33.6348 18.6914C31.978 18.6914 30.6348 17.3481 30.6348 15.6914C30.6348 14.0343 31.978 12.6914 33.6348 12.6914C35.2915 12.6914 36.6348 14.0343 36.6348 15.6914" fill="#0078D4"/>
<path fill-rule="evenodd" clip-rule="evenodd" d="M36.6348 33.6836C36.6348 35.3403 35.2915 36.6836 33.6348 36.6836C31.978 36.6836 30.6348 35.3403 30.6348 33.6836C30.6348 32.0268 31.978 30.6836 33.6348 30.6836C35.2915 30.6836 36.6348 32.0268 36.6348 33.6836" fill="#0078D4"/>
<path fill-rule="evenodd" clip-rule="evenodd" d="M18.6348 15.6914C18.6348 17.3481 17.2915 18.6914 15.6348 18.6914C13.978 18.6914 12.6348 17.3481 12.6348 15.6914C12.6348 14.0343 13.978 12.6914 15.6348 12.6914C17.2915 12.6914 18.6348 14.0343 18.6348 15.6914" fill="#0078D4"/>
<path fill-rule="evenodd" clip-rule="evenodd" d="M18.6348 33.6836C18.6348 35.3403 17.2915 36.6836 15.6348 36.6836C13.978 36.6836 12.6348 35.3403 12.6348 33.6836C12.6348 32.0268 13.978 30.6836 15.6348 30.6836C17.2915 30.6836 18.6348 32.0268 18.6348 33.6836" fill="#0078D4"/>
<path fill-rule="evenodd" clip-rule="evenodd" d="M29.1348 12.6758C29.1348 15.1609 27.1199 17.1758 24.6348 17.1758C22.1496 17.1758 20.1348 15.1609 20.1348 12.6758C20.1348 10.1903 22.1496 8.17578 24.6348 8.17578C27.1199 8.17578 29.1348 10.1903 29.1348 12.6758" fill="#0078D4"/>
<path fill-rule="evenodd" clip-rule="evenodd" d="M29.1348 36.6758C29.1348 39.1609 27.1199 41.1758 24.6348 41.1758C22.1496 41.1758 20.1348 39.1609 20.1348 36.6758C20.1348 34.1903 22.1496 32.1758 24.6348 32.1758C27.1199 32.1758 29.1348 34.1903 29.1348 36.6758" fill="#0078D4"/>
<path fill-rule="evenodd" clip-rule="evenodd" d="M26.8848 2.92578C26.8848 4.16815 25.8771 5.17577 24.6348 5.17577C23.3924 5.17577 22.3848 4.16815 22.3848 2.92578C22.3848 1.68303 23.3924 0.675781 24.6348 0.675781C25.8771 0.675781 26.8848 1.68303 26.8848 2.92578" fill="#50E6FF"/>
<path fill-rule="evenodd" clip-rule="evenodd" d="M26.8848 46.4258C26.8848 47.6681 25.8771 48.6758 24.6348 48.6758C23.3924 48.6758 22.3848 47.6681 22.3848 46.4258C22.3848 45.183 23.3924 44.1758 24.6348 44.1758C25.8771 44.1758 26.8848 45.183 26.8848 46.4258" fill="#0078D4"/>
<path fill-rule="evenodd" clip-rule="evenodd" d="M26.8848 2.92578C26.8848 4.16815 25.8771 5.17577 24.6348 5.17577C23.3924 5.17577 22.3848 4.16815 22.3848 2.92578C22.3848 1.68303 23.3924 0.675781 24.6348 0.675781C25.8771 0.675781 26.8848 1.68303 26.8848 2.92578" fill="#50E6FF"/>
<path fill-rule="evenodd" clip-rule="evenodd" d="M26.8848 46.4258C26.8848 47.6681 25.8771 48.6758 24.6348 48.6758C23.3924 48.6758 22.3848 47.6681 22.3848 46.4258C22.3848 45.183 23.3924 44.1758 24.6348 44.1758C25.8771 44.1758 26.8848 45.183 26.8848 46.4258" fill="#50E6FF"/>
<path fill-rule="evenodd" clip-rule="evenodd" d="M17.1348 24.6758C17.1348 27.1609 15.1199 29.1758 12.6348 29.1758C10.1496 29.1758 8.13477 27.1609 8.13477 24.6758C8.13477 22.1903 10.1496 20.1758 12.6348 20.1758C15.1199 20.1758 17.1348 22.1903 17.1348 24.6758" fill="#0078D4"/>
<path fill-rule="evenodd" clip-rule="evenodd" d="M41.1348 24.6758C41.1348 27.1609 39.1199 29.1758 36.6348 29.1758C34.1496 29.1758 32.1348 27.1609 32.1348 24.6758C32.1348 22.1903 34.1496 20.1758 36.6348 20.1758C39.1199 20.1758 41.1348 22.1903 41.1348 24.6758" fill="#0078D4"/>
<path fill-rule="evenodd" clip-rule="evenodd" d="M2.88476 22.4258C4.12714 22.4258 5.13476 23.433 5.13476 24.6758C5.13476 25.9181 4.12714 26.9258 2.88476 26.9258C1.64239 26.9258 0.634766 25.9181 0.634766 24.6758C0.634766 23.433 1.64239 22.4258 2.88476 22.4258" fill="#50E6FF"/>
<path fill-rule="evenodd" clip-rule="evenodd" d="M46.3848 22.4258C47.6271 22.4258 48.6348 23.433 48.6348 24.6758C48.6348 25.9181 47.6271 26.9258 46.3848 26.9258C45.1424 26.9258 44.1348 25.9181 44.1348 24.6758C44.1348 23.433 45.1424 22.4258 46.3848 22.4258" fill="#0078D4"/>
<path fill-rule="evenodd" clip-rule="evenodd" d="M29.1348 24.6758C29.1348 27.1609 27.1199 29.1758 24.6348 29.1758C22.1496 29.1758 20.1348 27.1609 20.1348 24.6758C20.1348 22.1903 22.1496 20.1758 24.6348 20.1758C27.1199 20.1758 29.1348 22.1903 29.1348 24.6758" fill="#0078D4"/>
<path fill-rule="evenodd" clip-rule="evenodd" d="M2.88476 22.4258C4.12714 22.4258 5.13476 23.433 5.13476 24.6758C5.13476 25.9181 4.12714 26.9258 2.88476 26.9258C1.64239 26.9258 0.634766 25.9181 0.634766 24.6758C0.634766 23.433 1.64239 22.4258 2.88476 22.4258" fill="#50E6FF"/>
<path fill-rule="evenodd" clip-rule="evenodd" d="M46.3848 22.4258C47.6271 22.4258 48.6348 23.433 48.6348 24.6758C48.6348 25.9181 47.6271 26.9258 46.3848 26.9258C45.1424 26.9258 44.1348 25.9181 44.1348 24.6758C44.1348 23.433 45.1424 22.4258 46.3848 22.4258" fill="#50E6FF"/>
<path fill-rule="evenodd" clip-rule="evenodd" d="M41.9832 10.5166C41.1046 11.3956 39.68 11.3956 38.8013 10.5166C37.9223 9.63799 37.9223 8.21337 38.8013 7.33475C39.68 6.45613 41.1046 6.45613 41.9832 7.33475C42.8618 8.21337 42.8618 9.63799 41.9832 10.5166" fill="#50E6FF"/>
<path fill-rule="evenodd" clip-rule="evenodd" d="M10.4863 42.0247C9.60773 42.9033 8.1831 42.9033 7.30448 42.0247C6.42585 41.1457 6.42585 39.7211 7.30448 38.8428C8.1831 37.9638 9.60773 37.9638 10.4863 38.8428C11.365 39.7211 11.365 41.1457 10.4863 42.0247" fill="#50E6FF"/>
<path fill-rule="evenodd" clip-rule="evenodd" d="M10.4863 7.33475C11.365 8.21375 11.365 9.63837 10.4863 10.5166C9.60773 11.3956 8.1831 11.3956 7.30448 10.5166C6.42585 9.63837 6.42585 8.21375 7.30448 7.33475C8.1831 6.45613 9.60773 6.45613 10.4863 7.33475" fill="#50E6FF"/>
<path fill-rule="evenodd" clip-rule="evenodd" d="M41.9759 38.8428C42.8545 39.7215 42.8545 41.1461 41.9759 42.0247C41.0973 42.9033 39.6726 42.9033 38.794 42.0247C37.915 41.1461 37.915 39.7215 38.794 38.8428C39.6726 37.9638 41.0973 37.9638 41.9759 38.8428" fill="#50E6FF"/>
</svg>
