<svg data-slug-id="node05" viewBox="0 0 49 49" xmlns="http://www.w3.org/2000/svg">
<path d="M24.8185 25.083L23.9162 24.1992L16.8747 31.3619C16.5037 31.143 16.0652 31.0252 15.6098 31.0252C14.2099 31.0252 13.0884 32.153 13.0884 33.5418C13.0884 34.939 14.2184 36.0584 15.6098 36.0584C17.0097 36.0584 18.1312 34.9305 18.1312 33.5418C18.1312 33.0704 18.0047 32.6328 17.777 32.254L24.8185 25.083Z" fill="#50E6FF"/>
<path d="M29.5238 32.2032C29.2539 32.2032 29.0009 32.2284 28.7479 32.2789L24.9363 24.3672L23.7979 24.9143L27.5673 32.7418C26.4711 33.4067 25.7374 34.6019 25.7374 35.9738C25.7374 38.0612 27.424 39.753 29.5238 39.753C31.6235 39.753 33.3101 38.0696 33.3101 35.9738C33.3101 33.8781 31.6151 32.2032 29.5238 32.2032Z" fill="#50E6FF"/>
<path d="M38.37 25.9671C37.4255 25.9671 36.6075 26.4805 36.1774 27.2464L24.5317 24.0312L24.1943 25.2517L35.8485 28.4669C35.8485 28.4753 35.8485 28.4837 35.8485 28.4837C35.8485 29.8809 36.9785 31.0003 38.37 31.0003C39.7698 31.0003 40.8914 29.8725 40.8914 28.4837C40.8914 27.0949 39.7698 25.9671 38.37 25.9671Z" fill="#50E6FF"/>
<path d="M24.6325 24.075L16.7815 20.338C16.8321 20.0939 16.8574 19.833 16.8574 19.5721C16.8574 17.4847 15.1708 15.793 13.071 15.793C10.9712 15.793 9.28467 17.4763 9.28467 19.5721C9.28467 21.6678 10.9712 23.3512 13.071 23.3512C14.454 23.3512 15.6599 22.6189 16.3177 21.5163L24.0843 25.2113L24.6325 24.075Z" fill="#50E6FF"/>
<path d="M45.9595 13.4258C44.5596 13.4258 43.4381 14.5536 43.4381 15.9424C43.4381 16.1612 43.4634 16.3801 43.5224 16.5821L24.1353 24.0477L24.5906 25.226L44.1464 17.6931C44.6018 18.1644 45.2511 18.459 45.9595 18.459C47.3593 18.459 48.4809 17.3311 48.4809 15.9424C48.4809 14.5536 47.3593 13.4258 45.9595 13.4258Z" fill="#50E6FF"/>
<path d="M25.5433 13.2588C25.5433 11.8616 24.4133 10.7422 23.0219 10.7422C21.6221 10.7422 20.5005 11.87 20.5005 13.2588C20.5005 14.5381 21.4534 15.5902 22.693 15.7501L23.7387 24.7139L24.9952 24.5709L23.9495 15.5986C24.8856 15.2367 25.5433 14.3193 25.5433 13.2588Z" fill="#50E6FF"/>
<path d="M24.3628 29.6526C27.1339 29.6526 29.3803 27.4105 29.3803 24.6447C29.3803 21.8789 27.1339 19.6367 24.3628 19.6367C21.5916 19.6367 19.3452 21.8789 19.3452 24.6447C19.3452 27.4105 21.5916 29.6526 24.3628 29.6526Z" fill="#0078D4"/>
<path d="M19.498 8.31138C18.7896 8.31138 18.2246 7.73904 18.2246 7.04046C18.2246 6.34187 18.798 5.76953 19.498 5.76953C20.2063 5.76953 20.7713 6.34187 20.7713 7.04046C20.7713 7.73904 20.2063 8.31138 19.498 8.31138Z" fill="#0078D4"/>
<path d="M9.30168 41.0419C8.59332 41.0419 8.02832 40.4695 8.02832 39.7709C8.02832 39.0723 8.60175 38.5 9.30168 38.5C10.0016 38.5 10.575 39.0723 10.575 39.7709C10.575 40.4695 10.01 41.0419 9.30168 41.0419Z" fill="#50E6FF"/>
<path d="M44.8041 31.1122C44.0958 31.1122 43.5308 30.5398 43.5308 29.8412C43.5308 29.1427 44.1042 28.5703 44.8041 28.5703C45.5125 28.5703 46.0775 29.1427 46.0775 29.8412C46.0775 30.5398 45.5125 31.1122 44.8041 31.1122Z" fill="#50E6FF"/>
<path d="M21.7072 43.8696L25.1394 23.8125L10.3145 27.2044C9.89282 26.4133 9.05797 25.883 8.09662 25.883C6.69677 25.883 5.5752 27.0109 5.5752 28.3996C5.5752 29.7968 6.7052 30.9162 8.09662 30.9162C9.47961 30.9162 10.6012 29.8052 10.618 28.4249L23.5793 25.4622L20.4676 43.6507C19.169 43.7517 18.1402 44.8375 18.1402 46.1589C18.1402 47.5561 19.2702 48.6755 20.6616 48.6755C22.0614 48.6755 23.183 47.5477 23.183 46.1589C23.183 45.1405 22.5843 44.2651 21.7072 43.8696Z" fill="#0078D4"/>
<path d="M35.8401 10.7344C34.4402 10.7344 33.3187 11.8622 33.3187 13.251C33.3187 13.7223 33.4451 14.16 33.6728 14.5387L23.916 24.1927L24.8099 25.0933L34.5751 15.4309C34.9462 15.6497 35.3847 15.776 35.8485 15.776C37.2484 15.776 38.3699 14.6482 38.3699 13.2594C38.3615 11.8622 37.2399 10.7344 35.8401 10.7344Z" fill="#0078D4"/>
<path d="M32.0619 43.577C31.3536 43.577 30.7886 43.0047 30.7886 42.3061C30.7886 41.6075 31.362 41.0352 32.0619 41.0352C32.7619 41.0352 33.3353 41.6075 33.3353 42.3061C33.3353 43.0047 32.7703 43.577 32.0619 43.577Z" fill="#0078D4"/>
<path d="M42.0971 8.22544C41.3887 8.22544 40.8237 7.65311 40.8237 6.95452C40.8237 6.25593 41.3972 5.68359 42.0971 5.68359C42.797 5.68359 43.3705 6.25593 43.3705 6.95452C43.3705 7.65311 42.8055 8.22544 42.0971 8.22544Z" fill="#50E6FF"/>
</svg>
