<svg data-slug-id="node09" viewBox="0 0 49 49" xmlns="http://www.w3.org/2000/svg">
<path d="M0.0966797 10.781V0.675781H10.2019L0.0966797 10.781Z" fill="#0078D4"/>
<path d="M10.2019 13.3086V23.4138H0.0966797L10.2019 13.3086Z" fill="#50E6FF"/>
<path d="M22.8337 0.675781V10.781H12.7285L22.8337 0.675781Z" fill="#50E6FF"/>
<path d="M25.3599 13.3086H35.4651V23.4138L25.3599 13.3086Z" fill="#0078D4"/>
<path d="M37.9912 0.675781H48.0964V10.781L37.9912 0.675781Z" fill="#0078D4"/>
<path d="M48.0964 23.4138H37.9912V13.3086L48.0964 23.4138Z" fill="#50E6FF"/>
<path d="M35.4651 10.781H25.3599V0.675781L35.4651 10.781Z" fill="#50E6FF"/>
<path d="M35.4651 25.9375V36.0427H25.3599L35.4651 25.9375Z" fill="#0078D4"/>
<path d="M48.0964 38.5703V48.6755H37.9912L48.0964 38.5703Z" fill="#0078D4"/>
<path d="M37.9912 36.0427V25.9375H48.0964L37.9912 36.0427Z" fill="#50E6FF"/>
<path d="M25.3599 48.6755V38.5703H35.4651L25.3599 48.6755Z" fill="#50E6FF"/>
<path d="M22.8337 36.0427H12.7285V25.9375L22.8337 36.0427Z" fill="#0078D4"/>
<path d="M10.2019 48.6755H0.0966797V38.5703L10.2019 48.6755Z" fill="#0078D4"/>
<path d="M0.0966797 25.9375H10.2019V36.0427L0.0966797 25.9375Z" fill="#50E6FF"/>
<path d="M12.7285 38.5703H22.8337V48.6755L12.7285 38.5703Z" fill="#50E6FF"/>
<path d="M12.7285 23.4138V13.3086H22.8337L12.7285 23.4138Z" fill="#0078D4"/>
<path d="M24.1054 28.6336C26.1982 28.6336 27.8948 26.937 27.8948 24.8441C27.8948 22.7513 26.1982 21.0547 24.1054 21.0547C22.0125 21.0547 20.3159 22.7513 20.3159 24.8441C20.3159 26.937 22.0125 28.6336 24.1054 28.6336Z" fill="#0078D4"/>
</svg>
