<svg data-slug-id="node03" viewBox="0 0 49 49" xmlns="http://www.w3.org/2000/svg">
<path d="M5.06525 35.9075C6.52854 34.4423 8.9085 34.4423 10.3718 35.9075C11.8351 37.3728 11.8351 39.756 10.3718 41.2212C8.9085 42.6865 6.52854 42.6865 5.06525 41.2212C3.60195 39.756 3.60195 37.3812 5.06525 35.9075Z" fill="#0078D4"/>
<path d="M22.0024 36.7269C21.0185 35.7416 19.4206 35.7416 18.4367 36.7269C18.1087 37.0553 17.8901 37.4595 17.7807 37.8806H15.2915C15.1401 36.1711 14.4084 34.4953 13.1049 33.1901C12.3565 32.4406 11.4903 31.8764 10.5568 31.5059L12.1883 28.8616C12.6088 28.988 13.0629 29.0132 13.517 28.9038C14.871 28.5838 15.7119 27.2195 15.3924 25.8638C15.0728 24.508 13.7104 23.6659 12.3565 23.9859C11.0025 24.3059 10.1615 25.6701 10.4811 27.0259C10.5904 27.4806 10.8175 27.8764 11.1202 28.1964L9.31213 31.1269C6.88171 30.6132 4.24946 31.2953 2.36568 33.1816C-0.59455 36.1459 -0.59455 40.9711 2.36568 43.9353C5.32591 46.8995 10.1447 46.8995 13.1049 43.9353C14.4421 42.5964 15.1737 40.8869 15.2999 39.1353H17.7807C17.8901 39.5564 18.1087 39.9606 18.4367 40.289C19.4206 41.2743 21.0185 41.2743 22.0024 40.289C22.9864 39.3122 22.9864 37.7122 22.0024 36.7269ZM11.9023 42.7564C9.59806 45.0638 5.84732 45.0638 3.55145 42.7564C1.25559 40.449 1.24718 36.6932 3.55145 34.3943C5.85572 32.0953 9.60647 32.0869 11.9023 34.3943C14.2066 36.6932 14.2066 40.449 11.9023 42.7564Z" fill="#50E6FF"/>
<path d="M21.4139 7.83332C22.8772 6.36806 25.2571 6.36806 26.7204 7.83332C28.1837 9.29859 28.1837 11.6817 26.7204 13.147C25.2571 14.6123 22.8772 14.6123 21.4139 13.147C19.9506 11.6817 19.9506 9.29859 21.4139 7.83332Z" fill="#0078D4"/>
<path d="M31.716 17.5096C31.2619 17.4001 30.8077 17.4254 30.3872 17.5517L29.3865 15.9264C29.4033 15.9096 29.4285 15.8927 29.4453 15.8675C32.4056 12.9033 32.4056 8.07799 29.4453 5.11378C26.4851 2.14957 21.6663 2.14957 18.7061 5.11378C15.7459 8.07799 15.7459 12.9033 18.7061 15.8675C18.7061 15.8675 18.7061 15.8675 18.7145 15.8759L17.6801 17.5517C17.2596 17.4254 16.8055 17.4001 16.3514 17.5096C14.9974 17.8296 14.1564 19.1938 14.476 20.5496C14.7956 21.9054 16.1579 22.7475 17.5119 22.4275C18.8659 22.1075 19.7069 20.7433 19.3873 19.3875C19.278 18.9327 19.0509 18.5369 18.7481 18.2169L19.6816 16.7012C22.2802 18.5454 25.7871 18.5622 28.4025 16.7433L29.3108 18.2254C29.008 18.5369 28.781 18.9412 28.6716 19.3959C28.3521 20.7517 29.1931 22.1159 30.547 22.4359C31.901 22.7559 33.2634 21.9138 33.5829 20.558C33.9109 19.1854 33.0699 17.8296 31.716 17.5096ZM19.8919 14.6717C17.5876 12.3643 17.5876 8.60852 19.8919 6.30957C22.1961 4.01063 25.9469 4.0022 28.2428 6.30957C30.547 8.61694 30.547 12.3727 28.2428 14.6717C25.9469 16.979 22.1961 16.979 19.8919 14.6717Z" fill="#50E6FF"/>
<path d="M37.7876 35.8676C39.2593 34.4108 41.6393 34.4192 43.0942 35.8929C44.5491 37.3666 44.5406 39.7497 43.0689 41.2065C41.5972 42.6634 39.2173 42.655 37.7624 41.1813C36.2991 39.7076 36.3159 37.3244 37.7876 35.8676Z" fill="#0078D4"/>
<path d="M45.8276 33.1895C43.9186 31.261 41.2275 30.5705 38.755 31.1263L36.9553 28.2042C37.2581 27.8926 37.4852 27.4884 37.5945 27.0337C37.9141 25.6779 37.0731 24.3137 35.7191 23.9937C34.3651 23.6737 33.0028 24.5158 32.6832 25.8716C32.3636 27.2274 33.2046 28.5916 34.5586 28.9116C35.0127 29.021 35.4668 28.9958 35.8873 28.8695L37.5272 31.5221C36.6442 31.8842 35.82 32.4231 35.0968 33.1389C33.7681 34.461 33.028 36.1537 32.8766 37.8884H30.278C30.1687 37.4674 29.95 37.0631 29.622 36.7347C28.6381 35.7495 27.0403 35.7495 26.0563 36.7347C25.0724 37.72 25.0724 39.32 26.0563 40.3052C27.0403 41.2905 28.6381 41.2905 29.622 40.3052C29.95 39.9768 30.1687 39.5726 30.278 39.1516H32.8682C33.0028 40.8779 33.726 42.5705 35.0379 43.901C37.9813 46.8821 42.8001 46.9074 45.7772 43.9516C48.7458 40.9874 48.771 36.1621 45.8276 33.1895ZM44.583 42.7389C42.2703 45.0379 38.5196 45.0126 36.2321 42.6968C33.9362 40.381 33.9615 36.6252 36.2742 34.3347C38.5868 32.0358 42.3376 32.061 44.625 34.3768C46.9209 36.6926 46.9041 40.4484 44.583 42.7389Z" fill="#50E6FF"/>
</svg>
