<svg data-slug-id="nodes-blue-alt" xmlns="http://www.w3.org/2000/svg" viewBox="0 0 48 48">
    <path d="M25.2626 29.6913H22.7363V43.6533H25.2626V29.6913Z" fill="#50E6FF"/>
    <path d="M25.2626 2.61719H22.7363V18.314H25.2626V2.61719Z" fill="#50E6FF"/>
    <path d="M29.7597 25.8708L28.4966 28.0586L41.2733 35.4354L42.5364 33.2476L29.7597 25.8708Z" fill="#50E6FF"/>
    <path d="M6.39841 12.3787L5.13525 14.5665L18.3787 22.2128L19.6418 20.025L6.39841 12.3787Z" fill="#50E6FF"/>
    <path d="M41.4254 12.4869L28.3789 20.0195L29.6421 22.2073L42.6886 14.6747L41.4254 12.4869Z" fill="#50E6FF"/>
    <path d="M18.2897 25.8365L4.91504 33.5586L6.1782 35.7464L19.5529 28.0243L18.2897 25.8365Z" fill="#50E6FF"/>
    <path d="M23.9994 19.6129L27.7973 21.8024V26.1813L23.9994 28.3792L20.2099 26.1897V21.8108L23.9994 19.6129ZM23.9994 16.6992L22.7362 17.4318L18.9468 19.6213L17.6836 20.3539V21.8108V26.1897V27.6465L18.9468 28.3792L22.7446 30.5686L24.0078 31.3013L25.271 30.5686L29.0689 28.3792L30.332 27.6465V26.1897V21.8108V20.3539L29.0689 19.6213L25.2625 17.4318L23.9994 16.6992Z" fill="#0078D4"/>
    <path d="M20.2104 44.2443V44.1853C20.2104 42.1053 21.8947 40.4296 23.9662 40.4296H24.0252C26.1052 40.4296 27.781 42.1138 27.781 44.1853V44.2443C27.781 46.3243 26.0968 48.0001 24.0252 48.0001H23.9662C21.8947 48.0001 20.2104 46.3159 20.2104 44.2443Z" fill="#0078D4"/>
    <path d="M20.2104 3.82326V3.76432C20.2104 1.68433 21.8947 0.00012207 23.9747 0.00012207H24.0336C26.1052 0.00012207 27.7894 1.68433 27.7894 3.76432V3.82326C27.7894 5.89483 26.1052 7.57904 24.0336 7.57904H23.9747C21.8947 7.57904 20.2104 5.89483 20.2104 3.82326Z" fill="#0078D4"/>
    <path d="M39.8484 37.4071L39.7979 37.3734C37.9958 36.3376 37.381 34.0387 38.4252 32.2366L38.4589 32.186C39.4947 30.384 41.7937 29.7692 43.5958 30.8134L43.6463 30.8471C45.4484 31.8829 46.0631 34.1818 45.0189 35.9839L44.9852 36.0345C43.941 37.8281 41.6421 38.4429 39.8484 37.4071Z" fill="#0078D4"/>
    <path d="M6.35771 17.6839H6.29876C4.21876 17.6839 2.54297 15.9997 2.54297 13.9281V13.8692C2.54297 11.7892 4.22718 10.1134 6.29876 10.1134H6.35771C8.43771 10.1134 10.1135 11.7976 10.1135 13.8692V13.9281C10.1219 15.9997 8.43771 17.6839 6.35771 17.6839Z" fill="#0078D4"/>
    <path d="M43.6295 17.1608L43.579 17.1945C41.7768 18.2302 39.4779 17.6155 38.4421 15.8218L38.4084 15.7713C37.3726 13.9692 37.9874 11.6703 39.7811 10.6345L39.8316 10.6008C41.6337 9.56502 43.9326 10.1798 44.9684 11.9734L45.0021 12.024C46.0379 13.8261 45.4232 16.125 43.6295 17.1608Z" fill="#0078D4"/>
    <path d="M6.35771 37.8947H6.29876C4.21876 37.8947 2.54297 36.2105 2.54297 34.1389V34.08C2.54297 32 4.22718 30.3242 6.29876 30.3242H6.35771C8.43771 30.3242 10.1135 32.0084 10.1135 34.08V34.1389C10.1219 36.2105 8.43771 37.8947 6.35771 37.8947Z" fill="#0078D4"/>
</svg>
