<svg data-slug-id="nosql-key-value" xmlns="http://www.w3.org/2000/svg" viewBox="0 0 48 49">
  <path d="M41.8528 5.93225H6.70215V8.45503H41.8528V5.93225Z" fill="#50E6FF"/>
  <path d="M41.8528 23.5413H6.70215V26.064H41.8528V23.5413Z" fill="#50E6FF"/>
  <path d="M41.8528 41.0913H6.70215V43.6141H41.8528V41.0913Z" fill="#50E6FF"/>
  <path d="M6.38251 31.0255C9.81929 31.0255 12.6054 28.2394 12.6054 24.8026C12.6054 21.3658 9.81929 18.5798 6.38251 18.5798C2.94573 18.5798 0.159668 21.3658 0.159668 24.8026C0.159668 28.2394 2.94573 31.0255 6.38251 31.0255Z" fill="#0078D4"/>
  <path d="M41.5585 31.0255C44.9953 31.0255 47.7814 28.2394 47.7814 24.8026C47.7814 21.3658 44.9953 18.5798 41.5585 18.5798C38.1218 18.5798 35.3357 21.3658 35.3357 24.8026C35.3357 28.2394 38.1218 31.0255 41.5585 31.0255Z" fill="#0078D4"/>
  <path d="M6.38251 13.4165C9.81929 13.4165 12.6054 10.6305 12.6054 7.19367C12.6054 3.75689 9.81929 0.970825 6.38251 0.970825C2.94573 0.970825 0.159668 3.75689 0.159668 7.19367C0.159668 10.6305 2.94573 13.4165 6.38251 13.4165Z" fill="#0078D4"/>
  <path d="M41.5585 13.4165C44.9953 13.4165 47.7814 10.6305 47.7814 7.19367C47.7814 3.75689 44.9953 0.970825 41.5585 0.970825C38.1218 0.970825 35.3357 3.75689 35.3357 7.19367C35.3357 10.6305 38.1218 13.4165 41.5585 13.4165Z" fill="#0078D4"/>
  <path d="M6.38251 48.5756C9.81929 48.5756 12.6054 45.7895 12.6054 42.3527C12.6054 38.9159 9.81929 36.1299 6.38251 36.1299C2.94573 36.1299 0.159668 38.9159 0.159668 42.3527C0.159668 45.7895 2.94573 48.5756 6.38251 48.5756Z" fill="#0078D4"/>
  <path d="M41.5585 48.5756C44.9953 48.5756 47.7814 45.7895 47.7814 42.3527C47.7814 38.9159 44.9953 36.1299 41.5585 36.1299C38.1218 36.1299 35.3357 38.9159 35.3357 42.3527C35.3357 45.7895 38.1218 48.5756 41.5585 48.5756Z" fill="#0078D4"/>
</svg>
