<svg data-slug-id="nosql-columnar" xmlns="http://www.w3.org/2000/svg" viewBox="0 0 48 49">
  <path d="M23.7642 17.2659H3.46948V19.7922H23.7642V17.2659Z" fill="#50E6FF"/>
  <path d="M44.0169 22.369C46.1377 22.369 47.8569 20.6498 47.8569 18.529C47.8569 16.4083 46.1377 14.689 44.0169 14.689C41.8961 14.689 40.1769 16.4083 40.1769 18.529C40.1769 20.6498 41.8961 22.369 44.0169 22.369Z" fill="#0078D4"/>
  <path d="M34.0716 22.369C36.1923 22.369 37.9116 20.6498 37.9116 18.529C37.9116 16.4083 36.1923 14.689 34.0716 14.689C31.9508 14.689 30.2316 16.4083 30.2316 18.529C30.2316 20.6498 31.9508 22.369 34.0716 22.369Z" fill="#0078D4"/>
  <path d="M23.9495 22.369C26.0703 22.369 27.7895 20.6498 27.7895 18.529C27.7895 16.4083 26.0703 14.689 23.9495 14.689C21.8287 14.689 20.1095 16.4083 20.1095 18.529C20.1095 20.6498 21.8287 22.369 23.9495 22.369Z" fill="#0078D4"/>
  <path d="M3.94107 22.369C6.06185 22.369 7.78107 20.6498 7.78107 18.529C7.78107 16.4083 6.06185 14.689 3.94107 14.689C1.8203 14.689 0.101074 16.4083 0.101074 18.529C0.101074 20.6498 1.8203 22.369 3.94107 22.369Z" fill="#0078D4"/>
  <path d="M23.7642 29.7711H3.46948V32.2974H23.7642V29.7711Z" fill="#50E6FF"/>
  <path d="M44.0169 34.8743C46.1377 34.8743 47.8569 33.155 47.8569 31.0343C47.8569 28.9135 46.1377 27.1943 44.0169 27.1943C41.8961 27.1943 40.1769 28.9135 40.1769 31.0343C40.1769 33.155 41.8961 34.8743 44.0169 34.8743Z" fill="#0078D4"/>
  <path d="M34.0716 34.8743C36.1923 34.8743 37.9116 33.155 37.9116 31.0343C37.9116 28.9135 36.1923 27.1943 34.0716 27.1943C31.9508 27.1943 30.2316 28.9135 30.2316 31.0343C30.2316 33.155 31.9508 34.8743 34.0716 34.8743Z" fill="#0078D4"/>
  <path d="M23.9495 34.8743C26.0703 34.8743 27.7895 33.155 27.7895 31.0343C27.7895 28.9135 26.0703 27.1943 23.9495 27.1943C21.8287 27.1943 20.1095 28.9135 20.1095 31.0343C20.1095 33.155 21.8287 34.8743 23.9495 34.8743Z" fill="#0078D4"/>
  <path d="M3.94107 34.8743C6.06185 34.8743 7.78107 33.155 7.78107 31.0343C7.78107 28.9135 6.06185 27.1943 3.94107 27.1943C1.8203 27.1943 0.101074 28.9135 0.101074 31.0343C0.101074 33.155 1.8203 34.8743 3.94107 34.8743Z" fill="#0078D4"/>
  <path d="M23.7642 42.4701H3.46948V44.9964H23.7642V42.4701Z" fill="#50E6FF"/>
  <path d="M44.0169 47.5732C46.1377 47.5732 47.8569 45.854 47.8569 43.7332C47.8569 41.6125 46.1377 39.8932 44.0169 39.8932C41.8961 39.8932 40.1769 41.6125 40.1769 43.7332C40.1769 45.854 41.8961 47.5732 44.0169 47.5732Z" fill="#0078D4"/>
  <path d="M34.0716 47.5732C36.1923 47.5732 37.9116 45.854 37.9116 43.7332C37.9116 41.6125 36.1923 39.8932 34.0716 39.8932C31.9508 39.8932 30.2316 41.6125 30.2316 43.7332C30.2316 45.854 31.9508 47.5732 34.0716 47.5732Z" fill="#0078D4"/>
  <path d="M23.9495 47.5732C26.0703 47.5732 27.7895 45.854 27.7895 43.7332C27.7895 41.6125 26.0703 39.8932 23.9495 39.8932C21.8287 39.8932 20.1095 41.6125 20.1095 43.7332C20.1095 45.854 21.8287 47.5732 23.9495 47.5732Z" fill="#0078D4"/>
  <path d="M3.94107 47.5732C6.06185 47.5732 7.78107 45.854 7.78107 43.7332C7.78107 41.6125 6.06185 39.8932 3.94107 39.8932C1.8203 39.8932 0.101074 41.6125 0.101074 43.7332C0.101074 45.854 1.8203 47.5732 3.94107 47.5732Z" fill="#0078D4"/>
  <path d="M23.7642 4.52484H3.46948V7.05116H23.7642V4.52484Z" fill="#50E6FF"/>
  <path d="M44.0169 9.628C46.1377 9.628 47.8569 7.90877 47.8569 5.788C47.8569 3.66722 46.1377 1.948 44.0169 1.948C41.8961 1.948 40.1769 3.66722 40.1769 5.788C40.1769 7.90877 41.8961 9.628 44.0169 9.628Z" fill="#0078D4"/>
  <path d="M34.0716 9.628C36.1923 9.628 37.9116 7.90877 37.9116 5.788C37.9116 3.66722 36.1923 1.948 34.0716 1.948C31.9508 1.948 30.2316 3.66722 30.2316 5.788C30.2316 7.90877 31.9508 9.628 34.0716 9.628Z" fill="#0078D4"/>
  <path d="M23.9495 9.628C26.0703 9.628 27.7895 7.90877 27.7895 5.788C27.7895 3.66722 26.0703 1.948 23.9495 1.948C21.8287 1.948 20.1095 3.66722 20.1095 5.788C20.1095 7.90877 21.8287 9.628 23.9495 9.628Z" fill="#0078D4"/>
  <path d="M3.94107 9.628C6.06185 9.628 7.78107 7.90877 7.78107 5.788C7.78107 3.66722 6.06185 1.948 3.94107 1.948C1.8203 1.948 0.101074 3.66722 0.101074 5.788C0.101074 7.90877 1.8203 9.628 3.94107 9.628Z" fill="#0078D4"/>
</svg>
