<svg data-slug-id="nosql-graph" xmlns="http://www.w3.org/2000/svg" viewBox="0 0 48 49">
  <path d="M44.5052 42.2638H6.64417L24.8673 12.7143L44.5052 42.2638ZM11.1663 39.7375H39.7894L24.9431 17.3964L11.1663 39.7375Z" fill="#50E6FF"/>
  <path d="M6.65579 6.81506L5.71423 9.15948L24.665 16.7704L25.6065 14.426L6.65579 6.81506Z" fill="#50E6FF"/>
  <path d="M6.3411 13.1943C9.08973 13.1943 11.3179 10.9661 11.3179 8.21744C11.3179 5.46881 9.08973 3.2406 6.3411 3.2406C3.59247 3.2406 1.36426 5.46881 1.36426 8.21744C1.36426 10.9661 3.59247 13.1943 6.3411 13.1943Z" fill="#0078D4"/>
  <path d="M25.2632 20.6553C28.0119 20.6553 30.2401 18.4271 30.2401 15.6785C30.2401 12.9299 28.0119 10.7017 25.2632 10.7017C22.5146 10.7017 20.2864 12.9299 20.2864 15.6785C20.2864 18.4271 22.5146 20.6553 25.2632 20.6553Z" fill="#0078D4"/>
  <path d="M8.83365 46.2133C11.5823 46.2133 13.8105 43.9851 13.8105 41.2364C13.8105 38.4878 11.5823 36.2596 8.83365 36.2596C6.08502 36.2596 3.85681 38.4878 3.85681 41.2364C3.85681 43.9851 6.08502 46.2133 8.83365 46.2133Z" fill="#0078D4"/>
  <path d="M41.659 46.2133C44.4076 46.2133 46.6358 43.9851 46.6358 41.2364C46.6358 38.4878 44.4076 36.2596 41.659 36.2596C38.9103 36.2596 36.6821 38.4878 36.6821 41.2364C36.6821 43.9851 38.9103 46.2133 41.659 46.2133Z" fill="#0078D4"/>
</svg>
