<svg data-slug-id="nosql-document" xmlns="http://www.w3.org/2000/svg" viewBox="0 0 48 49">
  <path d="M41.3053 29.4722H24.219V31.9985H41.3053V29.4722Z" fill="#50E6FF"/>
  <path d="M42.2897 4.41967L23.2832 17.1731L24.6909 19.2709L43.6974 6.51752L42.2897 4.41967Z" fill="#50E6FF"/>
  <path d="M23.99 16.9645L23.9817 19.4908L43.0638 19.5538L43.0721 17.0275L23.99 16.9645Z" fill="#50E6FF"/>
  <path d="M23.6282 16.9373L4.59863 23.4636L5.41817 25.8532L24.4477 19.327L23.6282 16.9373Z" fill="#50E6FF"/>
  <path d="M42.3325 44.6553L23.402 32.1753L4.6062 25.8511L5.4062 23.4595L24.522 29.8848L24.6567 29.969L43.722 42.5416L42.3325 44.6553Z" fill="#50E6FF"/>
  <path d="M42.939 10.828C45.6876 10.828 47.9158 8.59974 47.9158 5.85111C47.9158 3.10248 45.6876 0.874268 42.939 0.874268C40.1904 0.874268 37.9622 3.10248 37.9622 5.85111C37.9622 8.59974 40.1904 10.828 42.939 10.828Z" fill="#0078D4"/>
  <path d="M42.939 23.0974C45.6876 23.0974 47.9158 20.8692 47.9158 18.1206C47.9158 15.3719 45.6876 13.1437 42.939 13.1437C40.1904 13.1437 37.9622 15.3719 37.9622 18.1206C37.9622 20.8692 40.1904 23.0974 42.939 23.0974Z" fill="#0078D4"/>
  <path d="M42.939 35.7627C45.6876 35.7627 47.9158 33.5345 47.9158 30.7859C47.9158 28.0372 45.6876 25.809 42.939 25.809C40.1904 25.809 37.9622 28.0372 37.9622 30.7859C37.9622 33.5345 40.1904 35.7627 42.939 35.7627Z" fill="#0078D4"/>
  <path d="M24.1263 23.0974C26.8749 23.0974 29.1031 20.8692 29.1031 18.1206C29.1031 15.3719 26.8749 13.1437 24.1263 13.1437C21.3776 13.1437 19.1494 15.3719 19.1494 18.1206C19.1494 20.8692 21.3776 23.0974 24.1263 23.0974Z" fill="#0078D4"/>
  <path d="M24.1263 35.7627C26.8749 35.7627 29.1031 33.5345 29.1031 30.7859C29.1031 28.0372 26.8749 25.809 24.1263 25.809C21.3776 25.809 19.1494 28.0372 19.1494 30.7859C19.1494 33.5345 21.3776 35.7627 24.1263 35.7627Z" fill="#0078D4"/>
  <path d="M42.939 48.5795C45.6876 48.5795 47.9158 46.3513 47.9158 43.6027C47.9158 40.8541 45.6876 38.6259 42.939 38.6259C40.1904 38.6259 37.9622 40.8541 37.9622 43.6027C37.9622 46.3513 40.1904 48.5795 42.939 48.5795Z" fill="#0078D4"/>
  <path d="M5.06107 29.5985C7.8097 29.5985 10.0379 27.3703 10.0379 24.6217C10.0379 21.873 7.8097 19.6448 5.06107 19.6448C2.31244 19.6448 0.0842285 21.873 0.0842285 24.6217C0.0842285 27.3703 2.31244 29.5985 5.06107 29.5985Z" fill="#0078D4"/>
</svg>
