<svg data-slug-id="object11" viewBox="0 0 49 49" xmlns="http://www.w3.org/2000/svg">
<path d="M42.2139 22.3088H37.4365V11.8942H25.2065V6.73464C25.2065 3.58157 22.6267 0.90625 19.3781 0.90625C16.1295 0.90625 13.5497 3.48603 13.5497 6.73464V11.8942H1.51074V22.3088H5.81037C8.96343 22.3088 11.6388 24.8886 11.6388 28.1372C11.6388 31.2903 9.05898 33.9656 5.81037 33.9656H1.51074V47.7244H13.6452V43.0426C13.6452 39.8895 16.225 37.2142 19.4736 37.2142C22.7222 37.2142 25.302 39.794 25.302 43.0426V47.7244H37.4365V33.8701H42.2139C45.367 33.8701 48.0423 31.2903 48.0423 28.0417C47.9467 24.8886 45.367 22.3088 42.2139 22.3088Z" fill="#0078D4"/>
</svg>
