<svg data-slug-id="object05" viewBox="0 0 49 49" xmlns="http://www.w3.org/2000/svg">
<path d="M35.7636 39.7305H12.2178C10.5613 39.7305 9.25977 38.4128 9.25977 36.7357V12.8971C9.25977 11.2201 10.5613 9.90234 12.2178 9.90234H35.7636C37.4201 9.90234 38.7216 11.2201 38.7216 12.8971V36.7357C38.8399 38.4128 37.4201 39.7305 35.7636 39.7305Z" fill="#0078D7"/>
<path d="M33.5149 35.5365H14.5836C13.8737 35.5365 13.4004 34.9375 13.4004 34.3385V15.2917C13.4004 14.5729 13.992 14.0938 14.5836 14.0938H33.3966C34.1065 14.0938 34.5798 14.6927 34.5798 15.2917V34.3385C34.5798 35.0573 34.1065 35.5365 33.5149 35.5365Z" fill="#50E6FF"/>
<path d="M32.2137 1.99609H15.7672L13.874 10.6211H34.2252L32.2137 1.99609Z" fill="#0078D7"/>
<path d="M15.7672 47.9935H32.2137L34.1068 39.1289H13.874L15.7672 47.9935Z" fill="#0078D7"/>
<path d="M40.2595 17.6875H38.248V19.8437H40.2595V17.6875Z" fill="#0078D7"/>
<path d="M40.2595 29.7852H38.248V31.9414H40.2595V29.7852Z" fill="#0078D7"/>
</svg>
