<svg data-slug-id="object15" viewBox="0 0 49 49" xmlns="http://www.w3.org/2000/svg">
<path d="M39.3576 35.1602L31.6641 35.1684L26.7294 42.5581C25.9001 43.8062 26.7868 45.473 28.2894 45.473H43.0279C44.5469 45.473 45.4336 43.7569 44.5633 42.5171L39.3576 35.1602Z" fill="#50E6FF"/>
<path d="M47.1496 42.3796L37.9452 29.152V19.1348H39.5135V17.4844H37.9452H30.9742V19.1348H32.6493V29.3819L24.0115 42.4535C22.5499 44.6376 24.1182 47.5771 26.7457 47.5771H44.4564C47.1332 47.5688 48.6932 44.5637 47.1496 42.3796ZM43.0195 45.4751H28.2811C26.7785 45.4751 25.8917 43.8001 26.721 42.5602L31.6557 35.1705L39.3493 35.1623L44.5467 42.5192C45.4253 43.759 44.5385 45.4751 43.0195 45.4751Z" fill="#0078D4"/>
<path d="M30.6049 21.1536C29.6525 20.9729 28.9299 20.1437 28.9299 19.1337V17.4833C28.9299 16.3503 29.8495 15.4306 30.9826 15.4306H37.9536V0.675781H25.5963V12.9838H13.3211V25.3001H1.09521V37.5752L24.7424 37.6245L30.6131 28.7568V21.1536H30.6049Z" fill="#0078D4"/>
</svg>
