<svg data-slug-id="object03" viewBox="0 0 49 49" xmlns="http://www.w3.org/2000/svg">
<path d="M0.914551 41.147H48.9146V8.35547H0.914551V41.147Z" fill="#0078D4"/>
<path d="M36.2325 17.207C32.0557 17.207 28.662 20.5923 28.662 24.7776C28.662 26.7481 29.4115 28.5418 30.6493 29.8891H18.9188C20.1567 28.5418 20.9062 26.7481 20.9062 24.7776C20.9062 20.6007 17.5209 17.207 13.3357 17.207C9.15882 17.207 5.76514 20.5923 5.76514 24.7776C5.76514 28.9628 9.1504 32.3481 13.3357 32.3481C13.4872 32.3481 13.6388 32.3397 13.7904 32.3312H35.7609C35.9125 32.3397 36.0641 32.3481 36.2157 32.3481C40.3925 32.3481 43.7862 28.9628 43.7862 24.7776C43.7862 20.5923 40.4093 17.207 36.2325 17.207ZM8.29987 24.7691C8.29987 21.9902 10.5651 19.7249 13.3441 19.7249C16.123 19.7249 18.3883 21.9902 18.3883 24.7691C18.3883 27.5481 16.123 29.8133 13.3441 29.8133C10.5651 29.8133 8.29987 27.5565 8.29987 24.7691ZM36.2325 29.8133C33.4536 29.8133 31.1883 27.5481 31.1883 24.7691C31.1883 21.9902 33.4536 19.7249 36.2325 19.7249C39.0115 19.7249 41.2767 21.9902 41.2767 24.7691C41.2767 27.5481 39.0115 29.8133 36.2325 29.8133Z" fill="#50E6FF"/>
</svg>
