<svg data-slug-id="object01" viewBox="0 0 49 49" xmlns="http://www.w3.org/2000/svg">
<path d="M16.3448 40.1969L1.07959 46.9545V8.31989L16.3448 1.57031V40.1969Z" fill="#0078D7"/>
<path d="M47.0769 40.1969L31.8198 46.9545V8.31989L47.0769 1.57031V40.1969Z" fill="#0078D7"/>
<path d="M12.5485 16.1542L4.76318 19.6627V11.5319L12.5485 8.02344V16.1542Z" fill="#50E6FF"/>
<path d="M43.6387 16.2461L35.541 19.8954V11.4383L43.6387 7.78906V16.2461Z" fill="#50E6FF"/>
<path d="M13.9014 23.0417L3.42627 27.9204V25.5738L13.9014 20.7031V23.0417Z" fill="#50E6FF"/>
<path d="M13.9014 27.8815L3.42627 32.7603V30.4136L13.9014 25.543V27.8815Z" fill="#50E6FF"/>
<path d="M13.9014 32.7214L3.42627 37.6001V35.2535L13.9014 30.3828V32.7214Z" fill="#50E6FF"/>
<path d="M45.5044 23.0417L35.0293 27.9204V25.5738L45.5044 20.7031V23.0417Z" fill="#50E6FF"/>
<path d="M45.5044 27.8815L35.0293 32.7603V30.4136L45.5044 25.543V27.8815Z" fill="#50E6FF"/>
<path d="M45.5044 32.7214L35.0293 37.6001V35.2535L45.5044 30.3828V32.7214Z" fill="#50E6FF"/>
<path d="M31.8278 46.9558L16.3433 40.1551L16.3548 1.5625L31.8278 8.32108V46.9558Z" fill="#50E6FF"/>
<path d="M18.8047 23.0417L29.2798 27.9204V25.5738L18.8047 20.7031V23.0417Z" fill="#0078D7"/>
<path d="M18.8047 27.8815L29.2798 32.7603V30.4136L18.8047 25.543V27.8815Z" fill="#0078D7"/>
<path d="M18.8047 32.7214L29.2798 37.6001V35.2535L18.8047 30.3828V32.7214Z" fill="#0078D7"/>
<path d="M19.8447 16.5969L28.2737 20.3955V11.5876L19.8447 7.78906V16.5969Z" fill="#0078D7"/>
</svg>
