<svg data-slug-id="object14" viewBox="0 0 49 49" xmlns="http://www.w3.org/2000/svg">
<path d="M22.3967 17.5564V3.17255H24.9379V0.722656H12.24V3.17255H14.856V17.8969L1.87568 37.3466C-0.30016 40.602 2.03347 44.962 5.95331 44.962H21.5662C21.1095 43.9737 20.7607 42.9356 20.5198 41.8477H8.22881C5.99483 41.8477 4.66607 39.3646 5.90348 37.5043L13.8179 25.6535L24.0078 25.5206L25.212 27.2231C26.0259 26.4923 26.9145 25.8445 27.8695 25.2964L22.3967 17.5564Z" fill="#0078D4"/>
<path d="M13.8181 25.6519L5.90372 37.5111C4.66631 39.363 5.99507 41.8545 8.22905 41.8545H20.5201C20.2875 40.7998 20.1713 39.7035 20.1713 38.5824C20.1713 34.0812 22.1146 30.0285 25.2122 27.2298L24.0081 25.5273L13.8181 25.6519Z" fill="#50E6FF"/>
<path d="M48.1332 38.508C48.1332 41.9628 46.7463 45.0853 44.504 47.3774C44.3047 47.5851 43.8812 47.9671 43.8812 47.9671L27.1471 48.0667C27.1471 48.0667 26.8398 47.7927 26.6903 47.6515C24.2737 45.3428 22.7788 42.1039 22.7788 38.508C22.7788 31.5237 28.4593 25.8516 35.4518 25.8516C42.461 25.8599 48.1332 31.5237 48.1332 38.508Z" fill="#50E6FF"/>
<path d="M35.4767 25.8438C28.4758 25.8438 22.8037 31.5076 22.8037 38.5002C22.8037 41.8304 24.0993 44.8699 26.2087 47.1205C26.5159 47.4527 26.8481 47.7683 27.1886 48.0672L28.6419 46.6139L30.1451 45.1107C29.788 44.8284 29.4641 44.5045 29.1568 44.1723L27.6537 45.6755C26.8232 44.7703 26.1588 43.7488 25.6855 42.6276C25.2453 41.5812 24.9712 40.4933 24.8882 39.3639H26.6073C26.5824 39.0815 26.5658 38.7908 26.5658 38.5002C26.5658 38.3341 26.5741 38.168 26.5824 38.0019H24.8633C24.9214 36.7396 25.1955 35.5271 25.6855 34.3727C26.1256 33.3263 26.7319 32.363 27.4793 31.5159L28.7001 32.7367C28.999 32.3962 29.3146 32.064 29.6634 31.7733L28.4426 30.5525C29.3063 29.7885 30.278 29.1823 31.341 28.7255C32.487 28.2355 33.6995 27.9698 34.9452 27.9033V29.6141C35.1196 29.6058 35.3023 29.5975 35.4767 29.5975C35.7591 29.5975 36.0332 29.6141 36.3072 29.639V27.9199C37.445 28.0113 38.5578 28.277 39.6125 28.7172C40.742 29.1906 41.7634 29.8549 42.6686 30.6854L41.4562 31.8979C41.7967 32.2052 42.1122 32.5291 42.3946 32.8862L43.6154 31.6654C44.2964 32.4792 44.8611 33.3845 45.2763 34.3644C45.7663 35.5188 46.0404 36.7396 46.0985 37.9936H44.3794C44.3877 38.1597 44.396 38.3258 44.396 38.4919C44.396 38.7825 44.3794 39.0732 44.3545 39.3556H46.0736C45.9822 40.485 45.7165 41.5812 45.2763 42.6193C44.8279 43.6823 44.2133 44.6457 43.4493 45.5094L41.9544 44.0145C41.6555 44.355 41.3316 44.6789 40.9911 44.9779L42.4859 46.4727L43.931 47.9177C44.2715 47.6105 44.5953 47.2949 44.8943 46.9544C46.9207 44.7121 48.1498 41.7473 48.1498 38.4836C48.1498 31.5159 42.4693 25.8438 35.4767 25.8438Z" fill="#0078D4"/>
<path d="M37.2624 37.9023C37.9517 38.5916 37.9517 39.7044 37.2624 40.3937C36.5731 41.083 35.4603 41.083 34.771 40.3937C34.0817 39.7044 30.7432 33.8828 30.7432 33.8828C30.7432 33.8828 36.5731 37.2213 37.2624 37.9023Z" fill="#0078D4"/>
</svg>
