<svg data-slug-id="object09" viewBox="0 0 49 49" xmlns="http://www.w3.org/2000/svg">
<path d="M24.5353 24.6224C27.6002 24.6224 30.0848 22.1378 30.0848 19.0729C30.0848 16.008 27.6002 13.5234 24.5353 13.5234C21.4704 13.5234 18.9858 16.008 18.9858 19.0729C18.9858 22.1378 21.4704 24.6224 24.5353 24.6224Z" fill="#50E6FF"/>
<path d="M24.5356 1.12891C14.624 1.12891 6.59033 9.16259 6.59033 19.0742C6.59033 28.9857 14.624 37.0194 24.5356 37.0194C34.4472 37.0194 42.4809 28.9857 42.4809 19.0742C42.4724 9.16259 34.4388 1.12891 24.5356 1.12891ZM24.5356 27.1921C20.0472 27.1921 16.4177 23.5542 16.4177 19.0742C16.4177 14.5857 20.0556 10.9563 24.5356 10.9563C29.0156 10.9563 32.6535 14.5942 32.6535 19.0742C32.6535 23.5626 29.0156 27.1921 24.5356 27.1921Z" fill="#0078D4"/>
<path d="M24.5354 8.16057C25.5818 8.16057 26.4301 7.31226 26.4301 6.26583C26.4301 5.2194 25.5818 4.37109 24.5354 4.37109C23.4889 4.37109 22.6406 5.2194 22.6406 6.26583C22.6406 7.31226 23.4889 8.16057 24.5354 8.16057Z" fill="#50E6FF"/>
<path d="M24.5356 40.8763C19.0282 40.8763 14.0092 38.8215 10.1777 35.4531L7.00293 48.59H42.0766L38.9019 35.4531C35.0535 38.8215 30.0429 40.8763 24.5356 40.8763Z" fill="#0078D4"/>
</svg>
