<svg data-slug-id="object02" viewBox="0 0 49 49" xmlns="http://www.w3.org/2000/svg">
<path d="M14.114 28.2842C13.5113 28.2842 12.9747 27.8384 12.8921 27.2192C12.8096 26.6578 13.1233 26.1294 13.6187 25.9065C13.5444 25.4359 13.0573 24.5772 12.5206 24.4369C8.92922 23.4957 6.13866 22.3398 4.19023 19.7557C2.16749 17.0807 1.26758 13.1673 1.26758 7.07435C1.26758 6.38909 1.82074 5.83594 2.50599 5.83594H14.5021C15.1873 5.83594 15.7405 6.38909 15.7405 7.07435C15.7405 7.7596 15.1873 8.31276 14.5021 8.31276H3.76091C3.86824 13.06 4.64431 16.2469 6.17169 18.2613C7.69906 20.2758 9.97774 21.2005 13.1563 22.0426C14.9562 22.5132 16.1946 24.6433 16.1037 26.2285C16.0377 27.3265 15.3277 28.1273 14.2957 28.276C14.2379 28.2842 14.1718 28.2842 14.114 28.2842Z" fill="#50E6FF"/>
<path d="M36.4473 28.0943C36.3895 28.0943 36.3317 28.0943 36.2739 28.0778C35.0685 27.9044 34.2346 26.922 34.1603 25.5597C34.119 24.8497 34.2924 24.1149 34.6474 23.4957C35.0767 22.7609 35.729 22.2408 36.505 22.0426C39.6836 21.2088 41.9623 20.2841 43.4897 18.2613C45.0171 16.2386 45.7931 13.06 45.9005 8.31276H35.1593C34.4741 8.31276 33.9209 7.7596 33.9209 7.07435C33.9209 6.38909 34.4741 5.83594 35.1593 5.83594H47.1554C47.8406 5.83594 48.3938 6.38909 48.3938 7.07435C48.3938 13.1673 47.4939 17.0807 45.4712 19.7557C43.5227 22.3316 40.7322 23.4957 37.1408 24.4369C36.8848 24.5029 36.7527 24.8084 36.7032 24.9405C36.5959 25.2542 36.6289 25.5267 36.6784 25.634C37.3307 25.7579 37.7765 26.3688 37.6774 27.0293C37.5866 27.6485 37.0582 28.0943 36.4473 28.0943Z" fill="#50E6FF"/>
<path d="M40.9548 0.992188H8.70654C8.70654 14.4083 10.6054 24.101 18.3744 27.8492C21.0411 29.1372 22.7666 31.7956 22.7666 34.7595V37.0795C22.7666 38.6399 20.6779 43.1312 19.1092 43.1312H17.9533V46.1529H31.8236V43.123H30.8824C29.322 43.123 27.2249 38.6399 27.2249 37.0713V34.8916C27.2249 31.9112 28.9835 29.228 31.6915 27.9813C39.6256 24.3569 40.9548 14.4826 40.9548 0.992188Z" fill="#0078D4"/>
<path d="M33.384 43.0078H16.2856V46.4011H33.384V43.0078Z" fill="#50E6FF"/>
<path d="M35.9929 45.3281H13.6685V47.9701H35.9929V45.3281Z" fill="#0078D4"/>
</svg>
