<svg data-slug-id="object06" viewBox="0 0 49 49" xmlns="http://www.w3.org/2000/svg">
<path d="M33.9847 18.4137C36.074 18.4137 37.7677 16.72 37.7677 14.6307C37.7677 12.5414 36.074 10.8477 33.9847 10.8477C31.8954 10.8477 30.2017 12.5414 30.2017 14.6307C30.2017 16.72 31.8954 18.4137 33.9847 18.4137Z" fill="#0078D4"/>
<path d="M33.9844 16.7452C35.1524 16.7452 36.0992 15.7984 36.0992 14.6304C36.0992 13.4625 35.1524 12.5156 33.9844 12.5156C32.8165 12.5156 31.8696 13.4625 31.8696 14.6304C31.8696 15.7984 32.8165 16.7452 33.9844 16.7452Z" fill="#50E6FF"/>
<path d="M41.264 2.38868L39.9412 1.13328C39.6126 0.82154 39.1239 0.770987 38.7364 1.0069C37.8938 1.52086 36.1666 2.76783 34.1023 5.38815C31.2714 8.97741 31.2461 11.9095 31.2461 12.0274V12.5582L31.76 12.4319C33.0828 12.1033 34.6921 11.7831 35.0544 11.8252C35.3072 12.0022 36.0486 12.7268 36.5204 13.207L37.1102 13.8136L37.2282 12.9795C37.2366 12.9458 37.7421 9.39869 38.3909 7.56193C38.888 6.15487 40.5815 4.34339 41.2808 3.62723C41.4409 3.45872 41.5336 3.23965 41.5252 3.00374C41.5252 2.76783 41.4325 2.54876 41.264 2.38868Z" fill="#0078D4"/>
<path d="M30.9431 16.8867L31.0105 17.3838C31.1622 18.496 31.238 21.9673 30.4376 27.1574C29.8057 31.2269 28.9041 33.5186 25.8625 38.8183C23.7983 42.4244 21.6414 44.8762 20.8157 45.7609C20.4871 46.1063 20.4702 46.654 20.7735 47.0247L21.7172 48.1874C21.8941 48.4065 22.1553 48.5328 22.4334 48.5413C22.4418 48.5413 22.4586 48.5413 22.4671 48.5413C22.7367 48.5413 22.9895 48.4317 23.1748 48.238C24.7504 46.5444 28.5334 42.4328 29.5529 40.7814C31.3644 37.8662 32.6451 35.3301 34.2038 30.3254C34.8273 28.337 35.2907 25.5734 35.5856 22.1021C35.8046 19.5239 35.8467 17.5018 35.8467 17.4849L35.8552 17.0805L30.9431 16.8867Z" fill="#0078D4"/>
<path d="M47.4739 9.87894L46.2438 8.29495C46.1005 8.10959 45.8815 7.99163 45.654 7.97478C45.4181 7.95793 45.1906 8.04218 45.0221 8.20227C44.5839 8.62354 43.7077 9.42396 42.8146 9.98847C42.1658 10.4013 40.784 10.8816 39.0231 11.3028C38.7366 11.3702 38.5007 11.564 38.3659 11.8252C38.2395 12.0864 38.2311 12.3982 38.3491 12.6678C38.6271 13.2828 38.7619 13.94 38.7619 14.6225C38.7619 15.1786 38.6692 15.7178 38.4839 16.2318C38.3491 16.6025 38.4586 17.0153 38.7535 17.2765C38.9304 17.4366 39.1579 17.5124 39.3854 17.5124C39.5371 17.5124 39.6803 17.4787 39.8235 17.4113C41.4834 16.5688 43.6824 15.3387 44.7693 14.2602C45.991 13.0385 46.9852 11.8252 47.4654 11.2186C47.7772 10.831 47.7772 10.2749 47.4739 9.87894Z" fill="#0078D4"/>
<path d="M30.2267 10.8533C30.0666 10.5669 29.7718 10.3984 29.4432 10.4152L28.9882 10.4489L28.8702 10.5669C28.845 10.5922 26.6543 12.9007 24.2531 13.7349C23.2589 14.0803 22.1383 14.3583 20.9503 14.6532C19.1641 15.0998 17.142 15.6053 15.0187 16.4647C14.6986 16.5995 14.3868 16.7259 14.0751 16.8439C10.9829 18.0908 8.75017 18.9924 6.28992 20.8712C4.25938 22.4215 1.89182 24.6543 0.973441 25.539C0.569018 25.9265 0.543741 26.5585 0.897612 26.9797L1.67276 27.8897C1.85812 28.1087 2.11088 28.2351 2.39735 28.2604C2.42262 28.2604 2.4479 28.2604 2.4816 28.2604C2.73437 28.2604 2.97871 28.1677 3.17249 27.9992C4.77334 26.6006 10.5111 21.8992 17.1757 19.936C22.7196 18.3015 27.1177 17.8128 28.7438 17.678C29.0472 17.6527 29.3084 17.4926 29.4684 17.2399C29.6285 16.9871 29.6538 16.6754 29.5443 16.3973C29.3168 15.8328 29.2072 15.2346 29.2072 14.628C29.2072 13.5748 29.5443 12.5806 30.1678 11.7464C30.3615 11.4853 30.3868 11.1398 30.2267 10.8533Z" fill="#0078D4"/>
</svg>
