<svg data-slug-id="object04" viewBox="0 0 49 49" xmlns="http://www.w3.org/2000/svg">
<path d="M33.221 25.9453H15.3989L18.0604 48.5514H30.5258L33.221 25.9453Z" fill="#0078D4"/>
<path d="M15.3989 20.8687H33.221L32.9262 18.3672H15.6937L15.3989 20.8687Z" fill="#50E6FF"/>
<path d="M35.5962 22.0898H12.9312V24.6166H35.5962V22.0898Z" fill="#50E6FF"/>
<path d="M22.9455 14.9117C22.9455 14.9117 19.1807 13.084 19.1807 10.4225C19.1807 6.71657 24.4616 6.71657 24.4616 3.91186C24.4616 0.989245 23.0298 0.652344 23.0298 0.652344C23.0298 0.652344 26.7273 1.26719 26.7609 3.91186C26.8199 8.23262 21.7074 7.89572 21.7074 11.4332C21.7158 13.7915 22.9455 14.9117 22.9455 14.9117Z" fill="#0078D4"/>
<path d="M25.5901 16.8273C25.5901 16.8273 22.6675 14.9491 22.6675 12.2791C22.6675 8.57323 27.8305 8.34582 27.8305 4.92628C27.8305 2.42479 26.7103 1.95312 26.7103 1.95312C26.7103 1.95312 29.574 3.02279 29.574 5.65904C29.574 10.5694 24.6299 9.64289 24.6299 12.3971C24.6299 15.3871 25.5901 16.8273 25.5901 16.8273Z" fill="#0078D4"/>
</svg>
