<svg data-slug-id="object18" viewBox="0 0 49 49" xmlns="http://www.w3.org/2000/svg">
<path d="M4.78674 35.0197V12.9806L23.873 1.95703L42.9675 12.9806V35.0197L23.873 46.0433L4.78674 35.0197Z" fill="#50E6FF"/>
<path d="M23.8731 3.37699L41.7291 13.687V34.3071L23.8731 44.6253L6.01715 34.3153V13.6952L23.8731 3.37699ZM23.8731 0.539062L22.6428 1.25264L4.78683 11.5627L3.55652 12.2763V13.6952V34.3153V35.7342L4.78683 36.4478L22.6428 46.7579L23.8731 47.4714L25.1034 46.7579L42.9594 36.4478L44.1897 35.7342V34.3153V13.6952V12.2681L42.9594 11.5545L25.1034 1.25264L23.8731 0.539062Z" fill="#0078D4"/>
<path d="M24.6113 23.9375H23.381V45.2958H24.6113V23.9375Z" fill="#0078D4"/>
<path d="M41.9757 12.8717L23.4795 23.5508L24.0946 24.6162L42.5909 13.9371L41.9757 12.8717Z" fill="#0078D4"/>
<path d="M6.02788 12.876L5.41272 13.9414L23.909 24.6205L24.5241 23.5551L6.02788 12.876Z" fill="#0078D4"/>
<path d="M14.3258 29.5167V18.4849L23.873 12.9648L33.4285 18.4849V29.5167L23.873 35.0367L14.3258 29.5167Z" fill="#50E6FF"/>
<path d="M24.5538 23.9727H23.3235V34.6682H24.5538V23.9727Z" fill="#0078D4"/>
<path d="M32.7822 18.164L23.5199 23.5117L24.1351 24.5772L33.3974 19.2294L32.7822 18.164Z" fill="#0078D4"/>
<path d="M15.0957 18.1611L14.4806 19.2266L23.7429 24.5743L24.3581 23.5089L15.0957 18.1611Z" fill="#0078D4"/>
<path d="M14.818 18.3603L24.0289 13.0781L33.2891 18.754L23.8977 23.7737L14.818 18.3603Z" fill="white"/>
<path d="M33.5105 18.9258L24.2504 24.2079L24.2914 34.4687L33.4203 29.6213L33.5105 18.9258Z" fill="#0078D4"/>
<path d="M23.873 13.4089L33.0455 18.7021V29.2967L23.873 34.5899L14.7005 29.2967V18.7021L23.873 13.4089ZM23.873 11.9531L23.2419 12.315L14.0694 17.6081L13.4382 17.97V18.7021V29.2967V30.0289L14.0694 30.3907L23.2419 35.6838L23.873 36.0457L24.5042 35.6838L33.6767 30.3907L34.3078 30.0289V29.2967V18.7021V17.97L33.6767 17.6081L24.5042 12.315L23.873 11.9531Z" fill="#0078D4"/>
</svg>
