<svg data-slug-id="object07" viewBox="0 0 49 49" xmlns="http://www.w3.org/2000/svg">
<path d="M33.9892 43.2533H31.4297V39.7755L32.7052 34.4609H33.9892V43.2533Z" fill="#0078D4"/>
<path d="M19.2022 41.3164C19.1937 41.3844 19.1597 41.444 19.1172 41.495C19.1597 41.444 19.1937 41.3844 19.2022 41.3164Z" fill="#0078D4"/>
<path d="M24.2107 1.63281C19.5254 1.63281 17.187 10.5782 17.187 15.2635L17.9183 44.8377H30.486L31.2173 15.2635C31.2343 10.5782 28.9044 1.63281 24.2107 1.63281Z" fill="#0078D4"/>
<path d="M24.2107 15.7709C26.2206 15.7709 27.85 14.1415 27.85 12.1316C27.85 10.1216 26.2206 8.49219 24.2107 8.49219C22.2007 8.49219 20.5713 10.1216 20.5713 12.1316C20.5713 14.1415 22.2007 15.7709 24.2107 15.7709Z" fill="#50E6FF"/>
<path d="M25.4689 36.875H22.918V47.2659H25.4689V36.875Z" fill="#50E6FF"/>
<path d="M33.632 39.7423L37.8581 35.5162C38.3683 35.006 38.3683 34.1727 37.8666 33.6625L31.7783 27.5742L31.4297 39.7423H33.632V39.7423Z" fill="#0078D4"/>
<path d="M39.9419 35.8125C39.9504 35.8295 39.9589 35.838 39.9589 35.855C39.9504 35.838 39.9504 35.8295 39.9419 35.8125Z" fill="#0078D4"/>
<path d="M39.9334 35.797C39.8738 35.6865 39.7973 35.5844 39.7123 35.4994L39.2871 35.0742L39.7123 35.4994C39.7973 35.5929 39.8738 35.695 39.9334 35.797Z" fill="#0078D4"/>
<path d="M37.8667 33.6641C37.8667 33.6641 37.8752 33.6641 37.8667 33.6641L39.2782 35.0756L37.8667 33.6641Z" fill="#50E6FF"/>
<path d="M39.9331 35.7969C39.9331 35.8054 39.9416 35.8054 39.9416 35.8139C39.9331 35.8054 39.9331 35.8054 39.9331 35.7969Z" fill="#50E6FF"/>
<path d="M39.9584 35.8555C40.188 36.3402 40.1115 36.9524 39.7033 37.3605L35.9619 41.102C35.6558 41.4081 35.2391 41.5866 34.797 41.5866H31.4297H35.1371C35.3497 41.5866 35.5623 41.5016 35.7153 41.3485L39.7033 37.3605C40.1115 36.9524 40.188 36.3487 39.9584 35.8555Z" fill="#50E6FF"/>
<path d="M37.8581 35.5178L33.632 39.7439H31.4297V41.5891H34.797C35.2306 41.5891 35.6558 41.419 35.9619 41.1044L39.7033 37.363C40.1115 36.9548 40.1965 36.3511 39.9584 35.8579C39.9499 35.8409 39.9499 35.8324 39.9414 35.8154C39.9414 35.8069 39.9329 35.8069 39.9329 35.7984C39.8734 35.6878 39.7969 35.5858 39.7118 35.5008L39.2867 35.0756L37.8751 33.6641C38.3768 34.1743 38.3768 35.0076 37.8581 35.5178Z" fill="#50E6FF"/>
<path d="M14.4321 43.2533H16.9916V39.7755L15.7161 34.4609H14.4321V43.2533Z" fill="#0078D4"/>
<path d="M14.789 39.7423L10.5629 35.5162C10.0527 35.006 10.0527 34.1727 10.5544 33.6625L16.6427 27.5742L16.9913 39.7423H14.789V39.7423Z" fill="#0078D4"/>
<path d="M8.4799 35.8125C8.47139 35.8295 8.46289 35.838 8.46289 35.855C8.47139 35.838 8.4799 35.8295 8.4799 35.8125Z" fill="#0078D4"/>
<path d="M8.48828 35.797C8.5478 35.6865 8.62433 35.5844 8.70936 35.4994L9.13453 35.0742L8.70936 35.4994C8.62433 35.5929 8.5478 35.695 8.48828 35.797Z" fill="#0078D4"/>
<path d="M10.5543 33.6641L9.13428 35.0756L10.5543 33.6641Z" fill="#50E6FF"/>
<path d="M8.488 35.7969C8.488 35.8054 8.47949 35.8054 8.47949 35.8139C8.488 35.8054 8.488 35.8054 8.488 35.7969Z" fill="#50E6FF"/>
<path d="M8.46279 35.8555C8.2332 36.3402 8.30973 36.9524 8.71789 37.3605L12.4593 41.102C12.7654 41.4081 13.1821 41.5866 13.6242 41.5866H16.9915H13.2841C13.0715 41.5866 12.859 41.5016 12.7059 41.3485L8.71789 37.3605C8.31823 36.9524 8.2332 36.3487 8.46279 35.8555Z" fill="#50E6FF"/>
<path d="M10.5629 35.5178L14.789 39.7439H16.9914V41.5891H13.6241C13.1904 41.5891 12.7653 41.419 12.4591 41.1044L8.71773 37.363C8.30957 36.9548 8.22454 36.3511 8.46263 35.8579C8.47113 35.8409 8.47113 35.8324 8.47964 35.8154C8.47964 35.8069 8.48814 35.8069 8.48814 35.7984C8.54766 35.6878 8.62419 35.5858 8.70922 35.5008L9.13439 35.0756L10.5459 33.6641C10.0442 34.1743 10.0527 35.0076 10.5629 35.5178Z" fill="#50E6FF"/>
</svg>
