<svg data-slug-id="object08" viewBox="0 0 49 49" xmlns="http://www.w3.org/2000/svg">
<path d="M32.5282 25.1528L36.6752 21.2122C40.4094 17.478 45.6635 8.50853 41.9293 4.77437C38.1951 1.0402 29.2256 6.31307 25.4914 10.0285L2.56104 34.1598L12.5626 44.1614L27.4617 29.9941V25.1716H32.5282V25.1528Z" fill="#0078D4"/>
<path d="M16.5969 45.6609L14.5703 43.6344L17.3287 40.876L22.5641 37.6484L23.5961 38.6805L16.5969 45.6609Z" fill="#0078D4"/>
<path d="M6.38903 32.3594C6.33273 32.3969 6.25768 32.4344 6.18262 32.4344C6.23891 32.4344 6.31397 32.4157 6.38903 32.3594Z" fill="#0078D4"/>
<path d="M33.579 17.2361C35.8382 17.2361 37.6697 15.4046 37.6697 13.1454C37.6697 10.8862 35.8382 9.05469 33.579 9.05469C31.3197 9.05469 29.4883 10.8862 29.4883 13.1454C29.4883 15.4046 31.3197 17.2361 33.579 17.2361Z" fill="#50E6FF"/>
<path d="M14.8968 33.8309L12.8667 31.8008L4.60043 40.067L6.63051 42.0971L14.8968 33.8309Z" fill="#50E6FF"/>
<path d="M19.1115 42.5868H25.8293C26.6362 42.5868 27.3117 41.9301 27.3117 41.1232V31.4219L17.3477 40.823L19.1115 42.5868Z" fill="#0078D4"/>
<path d="M27.2551 44.4805C27.2551 44.4992 27.2363 44.518 27.2363 44.5368C27.2363 44.518 27.2551 44.4992 27.2551 44.4805Z" fill="#0078D4"/>
<path d="M27.2554 44.4634C27.2929 44.332 27.3117 44.1819 27.3117 44.0505V43.375V44.0505C27.3304 44.2006 27.2929 44.332 27.2554 44.4634Z" fill="#0078D4"/>
<path d="M27.2364 44.5377C27.03 45.1194 26.4858 45.5322 25.8291 45.5322H19.8807C19.3928 45.5322 18.9237 45.3446 18.5671 44.988L15.8838 42.3047L18.8486 45.2507C19.0175 45.4196 19.2614 45.5134 19.5054 45.5134H25.8478C26.4858 45.5322 27.03 45.1006 27.2364 44.5377Z" fill="#50E6FF"/>
<path d="M25.8293 42.585H19.1116L17.3665 40.8398L15.9028 42.3035L18.5862 44.9868C18.9239 45.3246 19.4118 45.531 19.8997 45.531H25.8481C26.4861 45.531 27.049 45.1182 27.2554 44.5365C27.2554 44.5177 27.2742 44.499 27.2742 44.4802V44.4614C27.3117 44.3301 27.3305 44.18 27.3305 44.0486V43.3731V41.1213C27.3117 41.9282 26.655 42.585 25.8293 42.585Z" fill="#50E6FF"/>
<path d="M1.04102 30.1086L3.08636 32.1539L5.84477 29.3768L9.05352 24.1414L8.04023 23.1094L1.04102 30.1086Z" fill="#0078D4"/>
<path d="M4.11865 27.5908V20.873C4.11865 20.0662 4.77542 19.3906 5.5823 19.3906H15.2836L5.88253 29.3547L4.11865 27.5908Z" fill="#0078D4"/>
<path d="M2.22329 19.4688C2.20452 19.4688 2.18576 19.4875 2.16699 19.4875C2.20452 19.4687 2.20452 19.4688 2.22329 19.4688Z" fill="#0078D4"/>
<path d="M2.24219 19.4469C2.37354 19.4094 2.52366 19.3906 2.65501 19.3906H3.33054H2.65501C2.52366 19.3906 2.37354 19.4094 2.24219 19.4469Z" fill="#0078D4"/>
<path d="M2.18593 19.4844C1.60423 19.6908 1.19141 20.235 1.19141 20.8917V26.8401C1.19141 27.328 1.37905 27.7971 1.73558 28.1536L4.41893 30.837L1.45411 27.8722C1.28523 27.7033 1.19141 27.4594 1.19141 27.2154V20.873C1.19141 20.235 1.60423 19.672 2.18593 19.4844Z" fill="#50E6FF"/>
<path d="M4.11869 20.873V27.5908L5.86381 29.3359L4.40016 30.7995L1.73558 28.135C1.39782 27.7972 1.19141 27.3093 1.19141 26.8214V20.873C1.19141 20.235 1.60423 19.6721 2.18593 19.4657C2.2047 19.4657 2.22346 19.4469 2.24223 19.4469H2.26099C2.39234 19.4094 2.54246 19.3906 2.67381 19.3906H3.34934H5.6011C4.77546 19.3906 4.11869 20.0662 4.11869 20.873Z" fill="#50E6FF"/>
<path d="M31.2147 25.9609H28.2124V28.9633H31.2147V25.9609Z" fill="#50E6FF"/>
<path d="M47.2586 25.9609H33.2227V28.9633H47.2586V25.9609Z" fill="#0078D4"/>
<path d="M31.2147 30.9688H28.2124V33.9711H31.2147V30.9688Z" fill="#50E6FF"/>
<path d="M47.2586 30.9688H33.2227V33.9711H47.2586V30.9688Z" fill="#0078D4"/>
<path d="M31.2147 35.9805H28.2124V38.9828H31.2147V35.9805Z" fill="#50E6FF"/>
<path d="M47.2586 35.9805H33.2227V38.9828H47.2586V35.9805Z" fill="#0078D4"/>
<path d="M31.2147 40.9727H28.2124V43.975H31.2147V40.9727Z" fill="#50E6FF"/>
<path d="M47.2586 40.9922H33.2227V43.9945H47.2586V40.9922Z" fill="#0078D4"/>
<path d="M47.2586 25.9609H45.2695V28.9633H47.2586V25.9609Z" fill="#50E6FF"/>
<path d="M47.2586 30.9688H45.2695V33.9711H47.2586V30.9688Z" fill="#50E6FF"/>
<path d="M47.2586 35.9805H45.2695V38.9828H47.2586V35.9805Z" fill="#50E6FF"/>
<path d="M47.2586 40.9922H45.2695V43.9945H47.2586V40.9922Z" fill="#50E6FF"/>
</svg>
