<svg data-slug-id="object10" viewBox="0 0 49 46" xmlns="http://www.w3.org/2000/svg">
<path d="M48.2886 36.2656H0.288574V45.1977H48.2886V36.2656Z" fill="#0078D4"/>
<path d="M23.6347 5.77739C28.825 5.77739 33.5526 7.70865 37.1536 10.8872L40.996 7.3063C36.4394 3.11184 30.3438 0.546875 23.6347 0.546875C16.8954 0.546875 10.7495 3.14201 6.17285 7.39683L10.0354 10.9576C13.6464 7.73883 18.4143 5.77739 23.6347 5.77739Z" fill="#0078D4"/>
<path d="M12.7715 13.4721L15.4974 15.9767C17.7204 14.2064 20.5468 13.1402 23.6248 13.1402C26.6726 13.1402 29.4789 14.1863 31.7019 15.9365L34.4077 13.4118C31.4907 10.9574 27.7287 9.46875 23.6248 9.46875C19.4806 9.46875 15.6885 10.9776 12.7715 13.4721Z" fill="#0078D4"/>
<path d="M18.2432 18.5102L19.6212 19.7776C20.7779 19.0634 22.1459 18.6409 23.6044 18.6409C25.0629 18.6409 26.4209 19.0533 27.5676 19.7574L28.9355 18.48C27.4267 17.4339 25.586 16.8203 23.6044 16.8203C21.6128 16.8203 19.762 17.444 18.2432 18.5102Z" fill="#50E6FF"/>
<path d="M23.5846 27.2844C25.2067 27.2844 26.5217 25.9694 26.5217 24.3473C26.5217 22.7252 25.2067 21.4102 23.5846 21.4102C21.9625 21.4102 20.6475 22.7252 20.6475 24.3473C20.6475 25.9694 21.9625 27.2844 23.5846 27.2844Z" fill="#0078D4"/>
<path d="M6.42444 41.5783H3.63818L4.7547 22.2656H5.30792L6.42444 41.5783Z" fill="#0078D4"/>
<path d="M44.9391 36.4377H42.1528L43.2693 17.125H43.8226L44.9391 36.4377Z" fill="#0078D4"/>
<path d="M5.03605 42.661C6.19154 42.661 7.12826 41.7243 7.12826 40.5688C7.12826 39.4133 6.19154 38.4766 5.03605 38.4766C3.88056 38.4766 2.94385 39.4133 2.94385 40.5688C2.94385 41.7243 3.88056 42.661 5.03605 42.661Z" fill="#50E6FF"/>
<path d="M45.1805 41.6862C45.7971 41.6862 46.297 41.1863 46.297 40.5696C46.297 39.953 45.7971 39.4531 45.1805 39.4531C44.5638 39.4531 44.064 39.953 44.064 40.5696C44.064 41.1863 44.5638 41.6862 45.1805 41.6862Z" fill="white"/>
<path d="M41.0364 41.6862C41.6531 41.6862 42.1529 41.1863 42.1529 40.5696C42.1529 39.953 41.6531 39.4531 41.0364 39.4531C40.4198 39.4531 39.9199 39.953 39.9199 40.5696C39.9199 41.1863 40.4198 41.6862 41.0364 41.6862Z" fill="white"/>
<path d="M36.2283 41.6862C36.845 41.6862 37.3448 41.1863 37.3448 40.5696C37.3448 39.953 36.845 39.4531 36.2283 39.4531C35.6117 39.4531 35.1118 39.953 35.1118 40.5696C35.1118 41.1863 35.6117 41.6862 36.2283 41.6862Z" fill="white"/>
</svg>
