<svg data-slug-id="office10" viewBox="0 0 49 49" xmlns="http://www.w3.org/2000/svg">
<path d="M43.3429 27.8184C42.6188 18.4558 35.0833 10.9961 25.687 10.3899V5.29602H33.2562V0.269531H25.687H23.6074H23.1527V10.3899C13.7902 11.0297 6.28834 18.4727 5.57268 27.81H0.352539V48.2611H48.3525V27.8184H43.3429Z" fill="#0078D4"/>
<path d="M2.97119 45.6282H7.98084V30.5234H2.97119V45.6282Z" fill="#50E6FF"/>
<path d="M10.5317 45.6282H15.5414V30.5234H10.5317V45.6282Z" fill="#50E6FF"/>
<path d="M18.0752 45.6282H23.0848V30.5234H18.0752V45.6282Z" fill="#50E6FF"/>
<path d="M25.6616 45.6282H30.6713V30.5234H25.6616V45.6282Z" fill="#50E6FF"/>
<path d="M33.3062 45.6282H38.3158V30.5234H33.3062V45.6282Z" fill="#50E6FF"/>
<path d="M40.8926 45.6282H45.9022V30.5234H40.8926V45.6282Z" fill="#50E6FF"/>
</svg>
