<svg data-slug-id="office02" viewBox="0 0 49 49" xmlns="http://www.w3.org/2000/svg">
<path d="M43.4191 25.5469H35.8457V48.2672H43.4191V25.5469Z" fill="#50E6FF"/>
<path d="M24.486 0.304688C11.2409 0.304688 0.503418 11.0421 0.503418 24.2872H5.55237C5.55237 19.2299 7.52146 14.4754 11.0978 10.8991C14.6741 7.32274 19.4286 5.35364 24.486 5.35364C29.5433 5.35364 34.2978 7.32274 37.8741 10.8991C41.4504 14.4754 43.4195 19.2299 43.4195 24.2872H48.4685C48.4685 11.0421 37.731 0.304688 24.486 0.304688Z" fill="#50E6FF"/>
<path d="M35.8458 12.9258H13.1255V48.2685H35.8458V12.9258Z" fill="#0078D4"/>
<path d="M21.9613 26.8125H6.81445V47.0083H21.9613V26.8125Z" fill="white"/>
<path d="M20.6986 28.0714V45.7427H8.07624V28.0714H20.6986V28.0714ZM23.2231 25.5469H5.55176V48.2672H23.2231V25.5469Z" fill="#50E6FF"/>
<path d="M18.1745 30.5977H10.6011V33.1221H18.1745V30.5977Z" fill="#50E6FF"/>
<path d="M18.1745 35.6484H10.6011V38.1729H18.1745V35.6484Z" fill="#50E6FF"/>
<path d="M18.1745 40.6953H10.6011V43.2198H18.1745V40.6953Z" fill="#50E6FF"/>
<path d="M23.2233 17.9766H18.1743V23.0255H23.2233V17.9766Z" fill="white"/>
<path d="M30.797 17.9766H25.748V23.0255H30.797V17.9766Z" fill="white"/>
<path d="M30.797 25.5469H25.748V30.5958H30.797V25.5469Z" fill="white"/>
<path d="M30.797 33.1211H25.748V38.17H30.797V33.1211Z" fill="white"/>
<path d="M30.797 40.6953H25.748V45.7443H30.797V40.6953Z" fill="white"/>
<path d="M43.419 43.2208C44.8132 43.2208 45.9435 42.0906 45.9435 40.6964C45.9435 39.3021 44.8132 38.1719 43.419 38.1719C42.0248 38.1719 40.8945 39.3021 40.8945 40.6964C40.8945 42.0906 42.0248 43.2208 43.419 43.2208Z" fill="white"/>
<path d="M47.2058 40.6969C47.2058 38.61 45.5059 36.9102 43.419 36.9102C41.3321 36.9102 39.6323 38.61 39.6323 40.6969C39.6323 42.3462 40.6842 43.7431 42.1568 44.2648V48.2703H44.6813V44.2648C46.1539 43.7431 47.2058 42.3378 47.2058 40.6969ZM43.419 41.9591C42.7206 41.9591 42.1568 41.3953 42.1568 40.6969C42.1568 39.9984 42.7206 39.4346 43.419 39.4346C44.1175 39.4346 44.6813 39.9984 44.6813 40.6969C44.6813 41.3953 44.1175 41.9591 43.419 41.9591Z" fill="#0078D4"/>
</svg>
