<svg data-slug-id="office08" viewBox="0 0 49 49" xmlns="http://www.w3.org/2000/svg">
<path fill-rule="evenodd" clip-rule="evenodd" d="M39.2824 12.2896C39.2824 14.7862 37.2586 16.81 34.7619 16.81C32.2655 16.81 30.2417 14.7862 30.2417 12.2896C30.2417 9.79331 32.2655 7.76953 34.7619 7.76953C37.2586 7.76953 39.2824 9.79331 39.2824 12.2896" fill="#50E6FF"/>
<path fill-rule="evenodd" clip-rule="evenodd" d="M42.2233 16.8121H30.6143C29.6776 16.8121 28.9189 16.0531 28.9189 15.1168C28.9189 14.1808 29.6776 13.4219 30.6143 13.4219H42.2233C43.1597 13.4219 43.9187 14.1808 43.9187 15.1168C43.9187 16.0531 43.1597 16.8121 42.2233 16.8121" fill="#50E6FF"/>
<path fill-rule="evenodd" clip-rule="evenodd" d="M42.6978 12.2912C42.6978 13.9644 41.3415 15.3207 39.6682 15.3207C37.995 15.3207 36.6387 13.9644 36.6387 12.2912C36.6387 10.6184 37.995 9.26172 39.6682 9.26172C41.3415 9.26172 42.6978 10.6184 42.6978 12.2912" fill="#50E6FF"/>
<path fill-rule="evenodd" clip-rule="evenodd" d="M0.418945 48.2671H24.4185V0.269531H0.418945V48.2671Z" fill="#50E6FF"/>
<path fill-rule="evenodd" clip-rule="evenodd" d="M24.4185 48.2695H48.4192V24.2695H24.4185V48.2695Z" fill="#0078D4"/>
<path fill-rule="evenodd" clip-rule="evenodd" d="M6.41162 12.2693H10.9115V7.76953H6.41162V12.2693Z" fill="white"/>
<path fill-rule="evenodd" clip-rule="evenodd" d="M13.9185 12.2693H18.4184V7.76953H13.9185V12.2693Z" fill="white"/>
<path fill-rule="evenodd" clip-rule="evenodd" d="M6.41162 19.7693H10.9115V15.2695H6.41162V19.7693Z" fill="white"/>
<path fill-rule="evenodd" clip-rule="evenodd" d="M13.9185 19.7693H18.4184V15.2695H13.9185V19.7693Z" fill="white"/>
<path fill-rule="evenodd" clip-rule="evenodd" d="M6.41162 27.2693H10.9115V22.7695H6.41162V27.2693Z" fill="white"/>
<path fill-rule="evenodd" clip-rule="evenodd" d="M13.9185 27.2693H18.4184V22.7695H13.9185V27.2693Z" fill="white"/>
<path fill-rule="evenodd" clip-rule="evenodd" d="M6.41162 34.7693H10.9115V30.2695H6.41162V34.7693Z" fill="white"/>
<path fill-rule="evenodd" clip-rule="evenodd" d="M13.9185 34.7693H18.4184V30.2695H13.9185V34.7693Z" fill="white"/>
<path fill-rule="evenodd" clip-rule="evenodd" d="M9.41895 48.2692H15.4188V42.2695H9.41895V48.2692Z" fill="white"/>
<path fill-rule="evenodd" clip-rule="evenodd" d="M30.417 34.7693H34.9169V30.2695H30.417V34.7693Z" fill="#50E6FF"/>
<path fill-rule="evenodd" clip-rule="evenodd" d="M37.917 34.7693H42.4169V30.2695H37.917V34.7693Z" fill="#50E6FF"/>
<path fill-rule="evenodd" clip-rule="evenodd" d="M33.4185 48.2692H39.4184V42.2695H33.4185V48.2692Z" fill="white"/>
</svg>
