<svg data-slug-id="office13" viewBox="0 0 49 49" xmlns="http://www.w3.org/2000/svg">
<path d="M48.9182 22.4023H39.2695V42.789H48.9182V22.4023Z" fill="#0078D4"/>
<path d="M0.986328 22.4023V42.6334H15.4593V36.8753H22.9292V42.6334H39.2697V22.4023H0.986328Z" fill="#50E6FF"/>
<path d="M15.3035 5.75H9.85666L9.54541 9.95184L15.6147 10.1075L15.3035 5.75Z" fill="#50E6FF"/>
<path d="M9.54535 9.95312L8.92285 22.403H16.2372L15.6147 10.1087L9.54535 9.95312Z" fill="#0078D4"/>
<path d="M8.61205 28.3164H6.12207V30.8064H8.61205V28.3164Z" fill="#0078D7"/>
<path d="M14.9924 28.3164H12.5024V30.8064H14.9924V28.3164Z" fill="#0078D7"/>
<path d="M34.2898 28.3164H31.7998V30.8064H34.2898V28.3164Z" fill="#0078D7"/>
<path d="M27.9094 28.3164H25.4194V30.8064H27.9094V28.3164Z" fill="#0078D7"/>
<path d="M21.529 28.3164H19.0391V30.8064H21.529V28.3164Z" fill="#0078D7"/>
<path d="M27.7532 5.75H22.1507L21.9951 9.95184L28.0644 10.1075L27.7532 5.75Z" fill="#50E6FF"/>
<path d="M21.9959 9.95312L21.2178 22.403H28.6877L28.0652 10.1087L21.9959 9.95312Z" fill="#0078D4"/>
<path d="M40.2037 5.75H34.6013L34.29 9.95184L40.3594 10.1075L40.2037 5.75Z" fill="#50E6FF"/>
<path d="M34.29 9.95312L33.6675 22.403H41.1374L40.3593 10.1087L34.29 9.95312Z" fill="#0078D4"/>
</svg>
