<svg data-slug-id="office11" viewBox="0 0 49 49" xmlns="http://www.w3.org/2000/svg">
<path d="M3.76698 2.51666C3.76698 3.34092 3.09329 4.01379 2.26801 4.01379C1.44274 4.01379 0.769043 3.34092 0.769043 2.51666C0.769043 1.6924 1.44274 1.01953 2.26801 1.01953C3.09329 1.01953 3.76698 1.6924 3.76698 2.51666Z" fill="#0078D4"/>
<path d="M12.4574 2.51666C12.4574 3.34092 11.7837 4.01379 10.9584 4.01379C10.1332 4.01379 9.45947 3.34092 9.45947 2.51666C9.45947 1.6924 10.1332 1.01953 10.9584 1.01953C11.7837 1.01953 12.4574 1.6924 12.4574 2.51666Z" fill="#0078D4"/>
<path d="M21.1561 2.51666C21.1561 3.34092 20.4824 4.01379 19.6572 4.01379C18.8319 4.01379 18.1582 3.34092 18.1582 2.51666C18.1582 1.6924 18.8319 1.01953 19.6572 1.01953C20.4824 1.01953 21.1561 1.6924 21.1561 2.51666Z" fill="#0078D4"/>
<path d="M29.9989 2.51666C29.9989 3.34092 29.3252 4.01379 28.4999 4.01379C27.6747 4.01379 27.001 3.34092 27.001 2.51666C27.001 1.6924 27.6747 1.01953 28.4999 1.01953C29.3252 1.01953 29.9989 1.6924 29.9989 2.51666Z" fill="#50E6FF"/>
<path d="M21.5019 11.1623C21.5019 12.1764 20.6731 13.0042 19.6577 13.0042C18.6423 13.0042 17.8135 12.1764 17.8135 11.1623C17.8135 10.1482 18.6423 9.32031 19.6577 9.32031C20.6731 9.32031 21.5019 10.1482 21.5019 11.1623Z" fill="#0078D4"/>
<path d="M30.3442 11.1623C30.3442 12.1764 29.5154 13.0043 28.5 13.0043C27.4846 13.0043 26.6558 12.1764 26.6558 11.1623C26.6558 10.1482 27.4846 9.32031 28.5 9.32031C29.5154 9.32031 30.3442 10.1482 30.3442 11.1623Z" fill="#50E6FF"/>
<path d="M38.9926 2.51666C38.9926 3.34092 38.3189 4.01379 37.4936 4.01379C36.6683 4.01379 35.9946 3.34092 35.9946 2.51666C35.9946 1.6924 36.6683 1.01953 37.4936 1.01953C38.3189 1.01953 38.9926 1.6924 38.9926 2.51666Z" fill="#50E6FF"/>
<path d="M47.2372 2.51666C47.2372 3.34092 46.5635 4.01379 45.7382 4.01379C44.913 4.01379 44.2393 3.34092 44.2393 2.51666C44.2393 1.6924 44.913 1.01953 45.7382 1.01953C46.5635 1.01953 47.2372 1.6924 47.2372 2.51666Z" fill="#50E6FF"/>
<path d="M3.76698 11.1612C3.76698 11.9855 3.09329 12.6583 2.26801 12.6583C1.44274 12.6583 0.769043 11.9855 0.769043 11.1612C0.769043 10.3369 1.44274 9.66406 2.26801 9.66406C3.09329 9.66406 3.76698 10.3369 3.76698 11.1612Z" fill="#0078D4"/>
<path d="M12.4574 11.1612C12.4574 11.9855 11.7837 12.6583 10.9584 12.6583C10.1332 12.6583 9.45947 11.9855 9.45947 11.1612C9.45947 10.3369 10.1332 9.66406 10.9584 9.66406C11.7837 9.66406 12.4574 10.3369 12.4574 11.1612Z" fill="#0078D4"/>
<path d="M3.76698 19.9073C3.76698 20.7315 3.09329 21.4044 2.26801 21.4044C1.44274 21.4044 0.769043 20.7315 0.769043 19.9073C0.769043 19.083 1.44274 18.4102 2.26801 18.4102C3.09329 18.4102 3.76698 19.0746 3.76698 19.9073Z" fill="#0078D4"/>
<path d="M3.76698 28.4034C3.76698 29.2276 3.09329 29.9005 2.26801 29.9005C1.44274 29.9005 0.769043 29.2276 0.769043 28.4034C0.769043 27.5791 1.44274 26.9062 2.26801 26.9062C3.09329 26.9062 3.76698 27.5707 3.76698 28.4034Z" fill="#0078D4"/>
<path d="M47.2372 28.7159C47.2372 29.5401 46.5635 30.213 45.7382 30.213C44.913 30.213 44.2393 29.5401 44.2393 28.7159C44.2393 27.8916 44.913 27.2188 45.7382 27.2188C46.5635 27.2188 47.2372 27.8916 47.2372 28.7159Z" fill="#50E6FF"/>
<path d="M47.2372 19.9073C47.2372 20.7315 46.5635 21.4044 45.7382 21.4044C44.913 21.4044 44.2393 20.7315 44.2393 19.9073C44.2393 19.083 44.913 18.4102 45.7382 18.4102C46.5635 18.4102 47.2372 19.0746 47.2372 19.9073Z" fill="#50E6FF"/>
<path d="M47.2372 11.1612C47.2372 11.9855 46.5635 12.6583 45.7382 12.6583C44.913 12.6583 44.2393 11.9855 44.2393 11.1612C44.2393 10.3369 44.913 9.66406 45.7382 9.66406C46.5635 9.66406 47.2372 10.3369 47.2372 11.1612Z" fill="#50E6FF"/>
<path d="M39.3633 11.1608C39.3633 12.1934 38.5193 13.0364 37.4853 13.0364C36.4514 13.0364 35.6074 12.1934 35.6074 11.1608C35.6074 10.1281 36.4514 9.28516 37.4853 9.28516C38.5298 9.28516 39.3633 10.1281 39.3633 11.1608Z" fill="#50E6FF"/>
<path d="M21.655 19.9093C21.655 21.0078 20.7572 21.9045 19.6573 21.9045C18.5575 21.9045 17.6597 21.0078 17.6597 19.9093C17.6597 18.8108 18.5575 17.9141 19.6573 17.9141C20.7572 17.9141 21.655 18.7996 21.655 19.9093Z" fill="#0078D4"/>
<path d="M30.4978 19.9093C30.4978 21.0078 29.6 21.9045 28.5001 21.9045C27.4003 21.9045 26.5024 21.0078 26.5024 19.9093C26.5024 18.8108 27.4003 17.9141 28.5001 17.9141C29.6 17.9141 30.4978 18.7996 30.4978 19.9093Z" fill="#50E6FF"/>
<path d="M12.9563 19.9093C12.9563 21.0078 12.0585 21.9045 10.9586 21.9045C9.85877 21.9045 8.96094 21.0078 8.96094 19.9093C8.96094 18.8108 9.85877 17.9141 10.9586 17.9141C12.0585 17.9141 12.9563 18.7996 12.9563 19.9093Z" fill="#0078D4"/>
<path d="M21.5019 28.4045C21.5019 29.4186 20.6731 30.2464 19.6577 30.2464C18.6423 30.2464 17.8135 29.4186 17.8135 28.4045C17.8135 27.3904 18.6423 26.5625 19.6577 26.5625C20.6731 26.5625 21.5019 27.38 21.5019 28.4045Z" fill="#0078D4"/>
<path d="M12.9419 28.4026C12.9419 29.4931 12.0506 30.3834 10.9588 30.3834C9.8669 30.3834 8.97559 29.4931 8.97559 28.4026C8.97559 27.3121 9.8669 26.4219 10.9588 26.4219C12.0506 26.4219 12.9419 27.301 12.9419 28.4026Z" fill="#0078D4"/>
<path d="M3.76698 36.9503C3.76698 37.7745 3.09329 38.4474 2.26801 38.4474C1.44274 38.4474 0.769043 37.7745 0.769043 36.9503C0.769043 36.126 1.44274 35.4531 2.26801 35.4531C3.09329 35.4531 3.76698 36.126 3.76698 36.9503Z" fill="#0078D4"/>
<path d="M12.4574 36.9503C12.4574 37.7745 11.7837 38.4474 10.9584 38.4474C10.1332 38.4474 9.45947 37.7745 9.45947 36.9503C9.45947 36.126 10.1332 35.4531 10.9584 35.4531C11.7837 35.4531 12.4574 36.126 12.4574 36.9503Z" fill="#0078D4"/>
<path d="M39.4831 19.9093C39.4831 21.0078 38.5853 21.9045 37.4855 21.9045C36.3856 21.9045 35.4878 21.0078 35.4878 19.9093C35.4878 18.8108 36.3856 17.9141 37.4855 17.9141C38.5965 17.9141 39.4831 18.7996 39.4831 19.9093Z" fill="#50E6FF"/>
<path d="M40.416 25.4609H27.6748V48.1618H40.416V25.4609Z" fill="#0078D4"/>
<path d="M27.6745 32.8945H17.687V48.1602H27.6745V32.8945Z" fill="#0078D4"/>
<path d="M48.0201 38.043H37.9399V48.1528H48.0201V38.043Z" fill="#0078D4"/>
<path d="M12.5246 42.4336H11.7667L10.874 47.4044H12.2298C12.2467 46.8493 12.693 46.4119 13.2572 46.4119C13.8214 46.4119 14.2678 46.8493 14.2846 47.4044H14.992V44.898H15.0088C14.992 43.5438 13.8804 42.4336 12.5246 42.4336ZM12.7772 44.4858V43.2579C13.552 43.2579 14.1751 43.8046 14.1751 44.4858H12.7772Z" fill="#0078D4"/>
<path d="M11.7671 41.1953H2.81543V47.3941H3.53123C3.56491 46.8558 4.00281 46.4353 4.55861 46.4353C5.10599 46.4353 5.55231 46.8558 5.58599 47.3941L11.7671 47.4025V41.1953Z" fill="#0078D4"/>
<path d="M13.2491 46.6719C12.8196 46.6719 12.4575 47.0167 12.4575 47.4625C12.4575 47.9083 12.8028 48.2531 13.2491 48.2531C13.6954 48.2531 14.0407 47.9083 14.0407 47.4625C14.0407 47.0167 13.6786 46.6719 13.2491 46.6719Z" fill="#0078D4"/>
<path d="M4.55819 46.6875C4.12871 46.6875 3.7666 47.0323 3.7666 47.4781C3.7666 47.9239 4.11187 48.2687 4.55819 48.2687C5.00451 48.2687 5.34978 47.9239 5.34978 47.4781C5.34136 47.0323 4.98767 46.6875 4.55819 46.6875Z" fill="#0078D4"/>
<path d="M37.9486 28.957H30.3442V31.4635H37.9486V28.957Z" fill="#50E6FF"/>
<path d="M37.9486 35.5703H30.3442V38.0767H37.9486V35.5703Z" fill="#50E6FF"/>
<path d="M37.9486 43.2734H30.3442V45.7799H37.9486V43.2734Z" fill="#50E6FF"/>
<path d="M27.8265 35.5703H20.2222V38.0767H27.8265V35.5703Z" fill="#50E6FF"/>
<path d="M27.8265 43.2734H20.2222V45.7799H27.8265V43.2734Z" fill="#50E6FF"/>
</svg>
