<svg data-slug-id="office01" viewBox="0 0 49 49" xmlns="http://www.w3.org/2000/svg">
<path d="M6.06689 48.2517H27.8673V12.8203H6.06689V48.2517Z" fill="#0078D4"/>
<path d="M27.043 48.2527H48.0191V20.3555H27.043V48.2527Z" fill="#0078D4"/>
<path d="M0.0195312 5.29508H10.1207V0.269531H0.0195312V5.29508Z" fill="#50E6FF"/>
<path d="M2.70264 48.2522H7.62286V4.01562H2.70264V48.2522Z" fill="#50E6FF"/>
<path d="M39.1711 48.2697V40.7188H34.1079V48.2697H39.1711Z" fill="#50E6FF"/>
<path d="M18.9851 48.2697V40.7188H13.9219V48.2697H18.9851Z" fill="#50E6FF"/>
<path d="M10.1294 22.9793H15.159V17.9453H10.1294V22.9793Z" fill="#50E6FF"/>
<path d="M17.6982 22.9793H22.7278V17.9453H17.6982V22.9793Z" fill="#50E6FF"/>
<path d="M10.1294 30.4715H15.159V25.4375H10.1294V30.4715Z" fill="#50E6FF"/>
<path d="M17.6982 30.4715H22.7278V25.4375H17.6982V30.4715Z" fill="#50E6FF"/>
<path d="M10.1294 38.0496H15.159V33.0156H10.1294V38.0496Z" fill="#50E6FF"/>
<path d="M17.6982 38.0496H22.7278V33.0156H17.6982V38.0496Z" fill="#50E6FF"/>
<path d="M30.3145 30.4715H35.344V25.4375H30.3145V30.4715Z" fill="#50E6FF"/>
<path d="M30.3145 38.0496H35.344V33.0156H30.3145V38.0496Z" fill="#50E6FF"/>
<path d="M37.8843 30.4715H42.9138V25.4375H37.8843V30.4715Z" fill="#50E6FF"/>
<path d="M37.8843 38.0496H42.9138V33.0156H37.8843V38.0496Z" fill="#50E6FF"/>
</svg>
