<svg data-slug-id="office03" viewBox="0 0 49 49" xmlns="http://www.w3.org/2000/svg">
<path d="M41.9428 25.7344H35.0764V46.3661H41.9428V25.7344V25.7344Z" fill="#0078D4"/>
<path d="M24.7605 2.82422C12.7524 2.82422 2.98975 12.5869 2.98975 24.595H7.5782C7.5782 20.0065 9.36802 15.6784 12.6222 12.4242C15.8765 9.16995 20.172 7.38013 24.793 7.38013C29.3815 7.38013 33.7096 9.16995 36.9638 12.4242C40.218 15.6784 42.0079 19.974 42.0079 24.595H46.5963C46.5312 12.5869 36.8011 2.82422 24.7605 2.82422Z" fill="#0078D4"/>
<path d="M35.0763 14.2773H14.4446V46.364H35.0763V14.2773Z" fill="#3BCAF4"/>
<path d="M22.4826 26.9062H8.71729V45.2601H22.4826V26.9062Z" fill="#50E6FF"/>
<path d="M21.3435 28.0449V44.0882H9.85608V28.0449H21.3435ZM23.6214 25.7344H7.57812V46.3661H23.6214V25.7344Z" fill="#0078D4"/>
<path d="M19.0332 30.3242H12.1667V32.6022H19.0332V30.3242Z" fill="#0078D4"/>
<path d="M19.0332 34.9102H12.1667V37.1881H19.0332V34.9102Z" fill="#0078D4"/>
<path d="M19.0332 39.5H12.1667V41.778H19.0332V39.5Z" fill="#0078D4"/>
<path d="M23.6214 18.8672H19.033V23.4556H23.6214V18.8672Z" fill="#50E6FF"/>
<path d="M30.4879 18.8672H25.8994V23.4556H30.4879V18.8672Z" fill="#50E6FF"/>
<path d="M30.4879 25.7344H25.8994V30.3228H30.4879V25.7344Z" fill="#50E6FF"/>
<path d="M30.4879 32.6328H25.8994V37.2213H30.4879V32.6328Z" fill="#50E6FF"/>
<path d="M30.4879 39.5H25.8994V44.0885H30.4879V39.5Z" fill="#50E6FF"/>
<path d="M41.9427 41.7786C43.2119 41.7786 44.2207 40.7372 44.2207 39.5006C44.2207 38.2315 43.1794 37.2227 41.9427 37.2227C40.6736 37.2227 39.6648 38.264 39.6648 39.5006C39.6648 40.7698 40.7061 41.7786 41.9427 41.7786Z" fill="#0078D4"/>
<path d="M45.3924 39.5003C45.3924 37.6128 43.8629 36.0508 41.9429 36.0508C40.0554 36.0508 38.4934 37.5803 38.4934 39.5003C38.4934 40.9972 39.4371 42.2663 40.7714 42.7545V46.3992H43.0493V42.7545C44.4486 42.2663 45.3924 40.9972 45.3924 39.5003ZM41.9429 40.6392C41.3246 40.6392 40.8039 40.1186 40.8039 39.5003C40.8039 38.882 41.3246 38.3613 41.9429 38.3613C42.5612 38.3613 43.0819 38.882 43.0819 39.5003C43.1144 40.1511 42.5937 40.6392 41.9429 40.6392Z" fill="#50E6FF"/>
</svg>
