<svg data-slug-id="office05" viewBox="0 0 49 49" xmlns="http://www.w3.org/2000/svg">
<path d="M5.07957 23.0097C7.86957 23.0097 10.1313 20.748 10.1313 17.958C10.1313 15.168 7.86957 12.9062 5.07957 12.9062C2.28957 12.9062 0.027832 15.168 0.027832 17.958C0.027832 20.748 2.28957 23.0097 5.07957 23.0097Z" fill="#50E6FF"/>
<path d="M5.07957 35.6386C7.86957 35.6386 10.1313 33.3769 10.1313 30.5869C10.1313 27.7969 7.86957 25.5352 5.07957 25.5352C2.28957 25.5352 0.027832 27.7969 0.027832 30.5869C0.027832 33.3769 2.28957 35.6386 5.07957 35.6386Z" fill="#0078D4"/>
<path d="M48.0194 17.9584V41.4238C48.0194 43.8486 47.5227 46.164 46.6302 48.2689H14.0465C13.154 46.164 12.6572 43.8486 12.6572 41.4238V17.9584C12.6572 8.23384 20.6137 0.277344 30.3383 0.277344C35.2048 0.277344 39.6167 2.26436 42.8245 5.47222C46.0324 8.68007 48.0194 13.0919 48.0194 17.9584Z" fill="#0078D4"/>
<path d="M42.8245 29.4683C39.6167 26.2605 35.2048 24.2734 30.3383 24.2734C20.6137 24.2734 12.6572 32.2299 12.6572 41.9545V48.2692H25.2866V43.2175C25.2866 40.4306 27.5514 38.1657 30.3383 38.1657C33.1252 38.1657 35.3901 40.4306 35.3901 43.2175V48.2692H48.0194V41.9545C48.0194 37.088 46.0324 32.6762 42.8245 29.4683Z" fill="#50E6FF"/>
</svg>
