<svg data-slug-id="office12" viewBox="0 0 49 49" xmlns="http://www.w3.org/2000/svg">
<path d="M4.23633 2.51953C4.23633 3.34537 3.56217 4.01953 2.73633 4.01953C1.91049 4.01953 1.23633 3.34537 1.23633 2.51953C1.23633 1.69369 1.91049 1.01953 2.73633 1.01953C3.56217 1.01953 4.23633 1.69369 4.23633 2.51953Z" fill="#0078D4"/>
<path d="M12.9321 2.51953C12.9321 3.34537 12.258 4.01953 11.4321 4.01953C10.6063 4.01953 9.93213 3.34537 9.93213 2.51953C9.93213 1.69369 10.6063 1.01953 11.4321 1.01953C12.258 1.01953 12.9321 1.69369 12.9321 2.51953Z" fill="#0078D4"/>
<path d="M21.6372 2.51953C21.6372 3.34537 20.9631 4.01953 20.1372 4.01953C19.3114 4.01953 18.6372 3.34537 18.6372 2.51953C18.6372 1.69369 19.3114 1.01953 20.1372 1.01953C20.9631 1.01953 21.6372 1.69369 21.6372 2.51953Z" fill="#0078D4"/>
<path d="M30.4858 2.51953C30.4858 3.34537 29.8117 4.01953 28.9858 4.01953C28.16 4.01953 27.4858 3.34537 27.4858 2.51953C27.4858 1.69369 28.16 1.01953 28.9858 1.01953C29.8117 1.01953 30.4858 1.69369 30.4858 2.51953Z" fill="#50E6FF"/>
<path d="M22.2575 11.1825C22.2575 12.3496 21.3047 13.3024 20.1376 13.3024C18.9704 13.3024 18.0176 12.3496 18.0176 11.1825C18.0176 10.0153 18.9704 9.0625 20.1376 9.0625C21.3047 9.0625 22.2575 10.0153 22.2575 11.1825Z" fill="#0078D4"/>
<path d="M31.1057 11.1825C31.1057 12.3497 30.1529 13.3025 28.9857 13.3025C27.8185 13.3025 26.8657 12.3497 26.8657 11.1825C26.8657 10.0153 27.8185 9.0625 28.9857 9.0625C30.1529 9.0625 31.1057 10.0153 31.1057 11.1825Z" fill="#50E6FF"/>
<path d="M39.4863 2.51953C39.4863 3.34537 38.8122 4.01953 37.9863 4.01953C37.1605 4.01953 36.4863 3.34537 36.4863 2.51953C36.4863 1.69369 37.1605 1.01953 37.9863 1.01953C38.8122 1.01953 39.4863 1.69369 39.4863 2.51953Z" fill="#50E6FF"/>
<path d="M47.7363 2.51953C47.7363 3.34537 47.0622 4.01953 46.2363 4.01953C45.4105 4.01953 44.7363 3.34537 44.7363 2.51953C44.7363 1.69369 45.4105 1.01953 46.2363 1.01953C47.0622 1.01953 47.7363 1.69369 47.7363 2.51953Z" fill="#50E6FF"/>
<path d="M4.23633 11.1836C4.23633 12.0094 3.56217 12.6836 2.73633 12.6836C1.91049 12.6836 1.23633 12.0094 1.23633 11.1836C1.23633 10.3578 1.91049 9.68359 2.73633 9.68359C3.56217 9.68359 4.23633 10.3578 4.23633 11.1836Z" fill="#0078D4"/>
<path d="M12.9321 11.1836C12.9321 12.0094 12.258 12.6836 11.4321 12.6836C10.6063 12.6836 9.93213 12.0094 9.93213 11.1836C9.93213 10.3578 10.6063 9.68359 11.4321 9.68359C12.258 9.68359 12.9321 10.3578 12.9321 11.1836Z" fill="#0078D4"/>
<path d="M4.23633 19.9453C4.23633 20.7712 3.56217 21.4453 2.73633 21.4453C1.91049 21.4453 1.23633 20.7712 1.23633 19.9453C1.23633 19.1195 1.91049 18.4453 2.73633 18.4453C3.56217 18.4453 4.23633 19.111 4.23633 19.9453Z" fill="#0078D4"/>
<path d="M4.23633 28.457C4.23633 29.2829 3.56217 29.957 2.73633 29.957C1.91049 29.957 1.23633 29.2829 1.23633 28.457C1.23633 27.6312 1.91049 26.957 2.73633 26.957C3.56217 26.957 4.23633 27.6228 4.23633 28.457Z" fill="#0078D4"/>
<path d="M47.7363 28.7695C47.7363 29.5954 47.0622 30.2695 46.2363 30.2695C45.4105 30.2695 44.7363 29.5954 44.7363 28.7695C44.7363 27.9437 45.4105 27.2695 46.2363 27.2695C47.0622 27.2695 47.7363 27.9437 47.7363 28.7695Z" fill="#50E6FF"/>
<path d="M47.7363 19.9453C47.7363 20.7712 47.0622 21.4453 46.2363 21.4453C45.4105 21.4453 44.7363 20.7712 44.7363 19.9453C44.7363 19.1195 45.4105 18.4453 46.2363 18.4453C47.0622 18.4453 47.7363 19.111 47.7363 19.9453Z" fill="#50E6FF"/>
<path d="M47.7363 11.1836C47.7363 12.0094 47.0622 12.6836 46.2363 12.6836C45.4105 12.6836 44.7363 12.0094 44.7363 11.1836C44.7363 10.3578 45.4105 9.68359 46.2363 9.68359C47.0622 9.68359 47.7363 10.3578 47.7363 11.1836Z" fill="#50E6FF"/>
<path d="M39.4771 11.1836C39.4771 12.0094 38.8029 12.6836 37.977 12.6836C37.1512 12.6836 36.4771 12.0094 36.4771 11.1836C36.4771 10.3578 37.1512 9.68359 37.977 9.68359C38.8113 9.68359 39.4771 10.3578 39.4771 11.1836Z" fill="#50E6FF"/>
<path d="M22.2575 19.9481C22.2575 21.1153 21.3047 22.0681 20.1376 22.0681C18.9704 22.0681 18.0176 21.1153 18.0176 19.9481C18.0176 18.7809 18.9704 17.8281 20.1376 17.8281C21.3047 17.8281 22.2575 18.769 22.2575 19.9481Z" fill="#0078D4"/>
<path d="M31.1057 19.9481C31.1057 21.1153 30.1529 22.0681 28.9857 22.0681C27.8185 22.0681 26.8657 21.1153 26.8657 19.9481C26.8657 18.7809 27.8185 17.8281 28.9857 17.8281C30.1529 17.8281 31.1057 18.769 31.1057 19.9481Z" fill="#50E6FF"/>
<path d="M12.9321 19.9453C12.9321 20.7712 12.258 21.4453 11.4321 21.4453C10.6063 21.4453 9.93213 20.7712 9.93213 19.9453C9.93213 19.1195 10.6063 18.4453 11.4321 18.4453C12.258 18.4453 12.9321 19.111 12.9321 19.9453Z" fill="#0078D4"/>
<path d="M39.4771 19.9453C39.4771 20.7712 38.8029 21.4453 37.977 21.4453C37.1512 21.4453 36.4771 20.7712 36.4771 19.9453C36.4771 19.1195 37.1512 18.4453 37.977 18.4453C38.8113 18.4453 39.4771 19.111 39.4771 19.9453Z" fill="#50E6FF"/>
<path d="M31.1057 28.7684C31.1057 29.9356 30.1529 30.8884 28.9857 30.8884C27.8185 30.8884 26.8657 29.9356 26.8657 28.7684C26.8657 27.6012 27.8185 26.6484 28.9857 26.6484C30.1529 26.6484 31.1057 27.6012 31.1057 28.7684Z" fill="#50E6FF"/>
<path d="M39.4771 28.7695C39.4771 29.5954 38.8029 30.2695 37.977 30.2695C37.1512 30.2695 36.4771 29.5954 36.4771 28.7695C36.4771 27.9437 37.1512 27.2695 37.977 27.2695C38.8113 27.2695 39.4771 27.9437 39.4771 28.7695Z" fill="#50E6FF"/>
<path d="M23.2642 22.9961H10.5142V48.2517H23.2642V22.9961Z" fill="#0078D4"/>
<path d="M10.5139 32.957H0.519531V48.252H10.5139V32.957Z" fill="#0078D4"/>
<path d="M28.5231 38.1133H20.7871V48.2425H28.5231V38.1133Z" fill="#0078D4"/>
<path d="M20.7863 25.5078H13.1768V28.019H20.7863V25.5078Z" fill="#50E6FF"/>
<path d="M20.7863 35.6367H13.1768V38.148H20.7863V35.6367Z" fill="#50E6FF"/>
<path d="M20.7863 43.3555H13.1768V45.8667H20.7863V43.3555Z" fill="#50E6FF"/>
<path d="M10.6657 35.6367H3.05615V38.148H10.6657V35.6367Z" fill="#50E6FF"/>
<path d="M10.6657 43.3555H3.05615V45.8667H10.6657V43.3555Z" fill="#50E6FF"/>
<path d="M38.8875 32.0812C36.8819 32.2919 35.1628 33.2947 33.9915 34.7441C32.8201 36.1936 32.1965 38.0896 32.4072 40.0952C32.6179 42.1009 33.6207 43.82 35.0701 44.9913C36.5196 46.1627 38.4156 46.7863 40.4128 46.5756C42.4184 46.3649 44.1375 45.3621 45.3173 43.9127C46.4887 42.4632 47.1123 40.5672 46.9016 38.57C46.6909 36.5475 45.6628 34.82 44.1881 33.6318C42.9493 32.6205 41.3651 32.0391 39.6712 32.0391C39.41 32.0391 39.1572 32.0559 38.8875 32.0812Z" fill="#50E6FF"/>
<path d="M36.6545 37.3818L34.8849 35.9492C34.1264 37.0363 33.7809 38.3003 33.8315 39.5391L36.0984 39.3032C36.0984 38.6374 36.2837 37.9717 36.6545 37.3818Z" fill="#0078D4"/>
<path d="M41.6096 36.2609L43.0422 34.4913C41.9551 33.7329 40.691 33.3958 39.4438 33.4463L39.6798 35.7132C40.354 35.7048 41.0197 35.8902 41.6096 36.2609Z" fill="#0078D4"/>
<path d="M38.896 35.7981L38.6601 33.5312C37.4381 33.7504 36.2752 34.3571 35.3735 35.3262L37.1432 36.7588C37.6404 36.27 38.2556 35.9414 38.896 35.7981Z" fill="#0078D4"/>
<path d="M36.1824 40.0938L33.9155 40.3297C34.1346 41.56 34.7414 42.7145 35.7105 43.6162L37.1431 41.8466C36.6543 41.3494 36.3256 40.7426 36.1824 40.0938Z" fill="#0078D4"/>
<path d="M48.385 38.4091C48.1322 35.9738 46.885 33.8839 45.1322 32.4681C44.7951 32.19 44.4243 31.9541 44.0451 31.7266L43.3541 33.0496C43.649 33.2266 43.9271 33.412 44.1883 33.6226C45.6631 34.8193 46.6912 36.5384 46.9018 38.5608C47.1125 40.5665 46.4889 42.4541 45.3176 43.912C44.1378 45.3614 42.4187 46.3642 40.4131 46.5749C39.0732 46.7181 37.7839 46.4738 36.6378 45.9597L35.9468 47.2827C37.3457 47.9316 38.9215 48.235 40.5648 48.058C42.9749 47.8052 45.0563 46.5917 46.4721 44.8474C47.8878 43.103 48.6378 40.8108 48.385 38.4091Z" fill="#0078D4"/>
<path d="M35.0701 44.9933C33.6206 43.8219 32.6178 42.0944 32.4071 40.0972C32.1965 38.0916 32.8116 36.2039 33.9914 34.7461C35.1628 33.2966 36.8903 32.2938 38.8875 32.0831C40.5055 31.9146 42.056 32.2854 43.3454 33.0522L44.0364 31.7292C42.4858 30.8275 40.6403 30.3978 38.7358 30.6C36.3257 30.8528 34.2442 32.0663 32.8285 33.8022C31.4212 35.5466 30.6712 37.8388 30.924 40.2404C31.1768 42.6506 32.3903 44.732 34.1347 46.1478C34.6909 46.5944 35.306 46.9736 35.9549 47.277L36.6459 45.9539C36.0813 45.7011 35.5504 45.3809 35.0701 44.9933Z" fill="#A0A1A2"/>
<path d="M35.0701 44.9933C33.6206 43.8219 32.6178 42.0944 32.4071 40.0972C32.1965 38.0916 32.8116 36.2039 33.9914 34.7461C35.1628 33.2966 36.8903 32.2938 38.8875 32.0831C40.5055 31.9146 42.056 32.2854 43.3454 33.0522L44.0364 31.7292C42.4858 30.8275 40.6403 30.3978 38.7358 30.6C36.3257 30.8528 34.2442 32.0663 32.8285 33.8022C31.4212 35.5466 30.6712 37.8388 30.924 40.2404C31.1768 42.6506 32.3903 44.732 34.1347 46.1478C34.6909 46.5944 35.306 46.9736 35.9549 47.277L36.6459 45.9539C36.0813 45.7011 35.5504 45.3809 35.0701 44.9933Z" fill="#0078D4"/>
<path d="M43.6655 34.9883L42.2329 36.7579C42.5868 37.1119 42.8481 37.5248 43.025 37.963H45.4015C45.1486 36.8506 44.5588 35.8057 43.6655 34.9883Z" fill="#0078D4"/>
<path d="M38.9802 40.0458C38.5757 39.6497 38.5757 39.0008 38.9718 38.5963C39.174 38.3941 39.4353 38.293 39.7049 38.293C39.9662 38.293 40.2274 38.3772 40.4297 38.5795C40.4297 38.5795 40.4297 38.5795 40.4381 38.5795H43.1094H45.4606H45.6797C46.0926 38.5795 46.4297 38.9081 46.4297 39.3211C46.4297 39.734 46.101 40.0711 45.6881 40.0711H40.3875C40.1937 40.2396 39.9577 40.3407 39.7134 40.3407C39.4437 40.3407 39.1825 40.2396 38.9802 40.0458Z" fill="#0078D4"/>
<path d="M45.6713 38.5795H45.4522H43.101H40.4297C40.4297 38.5795 40.4297 38.5795 40.4213 38.5795C40.219 38.3772 39.9578 38.293 39.6965 38.293C39.4353 38.293 39.1656 38.3941 38.9634 38.5963C38.7612 38.7986 38.6685 39.0598 38.6685 39.3211H46.4128C46.4128 38.9081 46.0758 38.5795 45.6713 38.5795Z" fill="#0078D4"/>
</svg>
