<svg data-slug-id="office07" viewBox="0 0 49 49" xmlns="http://www.w3.org/2000/svg">
<path d="M0.952637 48.2694H24.9526V0.269531H0.952637V48.2694Z" fill="#0078D4"/>
<path d="M5.97998 10.3242H11.0242V5.29688H5.97998V10.3242Z" fill="#50E6FF"/>
<path d="M13.5757 10.3242H18.6199V5.29688H13.5757V10.3242Z" fill="#50E6FF"/>
<path d="M5.97998 17.8594H11.0242V12.832H5.97998V17.8594Z" fill="#50E6FF"/>
<path d="M13.5757 17.8594H18.6199V12.832H13.5757V17.8594Z" fill="#50E6FF"/>
<path d="M5.97998 25.4219H11.0242V20.3945H5.97998V25.4219Z" fill="#50E6FF"/>
<path d="M13.5757 25.4219H18.6199V20.3945H13.5757V25.4219Z" fill="#50E6FF"/>
<path d="M5.97998 33H11.0242V27.9727H5.97998V33Z" fill="#50E6FF"/>
<path d="M13.5757 33H18.6199V27.9727H13.5757V33Z" fill="#50E6FF"/>
<path d="M9.19678 48.2693H15.201V40.4883H9.19678V48.2693Z" fill="#50E6FF"/>
<path d="M24.9526 48.2694H48.9526V0.269531H24.9526V48.2694Z" fill="#50E6FF"/>
<path d="M31.2515 10.3242H36.2957V5.29688H31.2515V10.3242Z" fill="#0078D4"/>
<path d="M38.856 10.3242H43.9002V5.29688H38.856V10.3242Z" fill="#0078D4"/>
<path d="M31.2515 17.8594H36.2957V12.832H31.2515V17.8594Z" fill="#0078D4"/>
<path d="M38.856 17.8594H43.9002V12.832H38.856V17.8594Z" fill="#0078D4"/>
<path d="M31.2515 25.4219H36.2957V20.3945H31.2515V25.4219Z" fill="#0078D4"/>
<path d="M38.856 25.4219H43.9002V20.3945H38.856V25.4219Z" fill="#0078D4"/>
<path d="M31.2515 33H36.2957V27.9727H31.2515V33Z" fill="#0078D4"/>
<path d="M38.856 33H43.9002V27.9727H38.856V33Z" fill="#0078D4"/>
<path d="M34.603 48.2693H40.6072V40.4883H34.603V48.2693Z" fill="#0078D4"/>
</svg>
