<svg data-slug-id="office04" viewBox="0 0 49 49" xmlns="http://www.w3.org/2000/svg">
<path d="M6.06689 48.2517H27.8673V12.8203H6.06689V48.2517Z" fill="#0078D4"/>
<path d="M27.0435 48.2528H48.0196V20.3555H27.0435V48.2528Z" fill="#0078D4"/>
<path d="M0.0195312 5.29509H10.1207V0.269531H0.0195312V5.29509Z" fill="#50E6FF"/>
<path d="M2.70264 48.2523H7.62287V4.01562H2.70264V48.2523Z" fill="#50E6FF"/>
<path d="M39.1716 48.2697V40.7188H34.1084V48.2697H39.1716Z" fill="#50E6FF"/>
<path d="M18.9856 48.2697V40.7188H13.9224V48.2697H18.9856Z" fill="#50E6FF"/>
<path d="M10.1289 22.9793H15.1585V17.9453H10.1289V22.9793Z" fill="#50E6FF"/>
<path d="M17.6982 22.9793H22.7278V17.9453H17.6982V22.9793Z" fill="#50E6FF"/>
<path d="M10.1289 30.4715H15.1585V25.4375H10.1289V30.4715Z" fill="#50E6FF"/>
<path d="M17.6982 30.4715H22.7278V25.4375H17.6982V30.4715Z" fill="#50E6FF"/>
<path d="M10.1294 38.0496H15.159V33.0156H10.1294V38.0496Z" fill="#50E6FF"/>
<path d="M17.6987 38.0496H22.7283V33.0156H17.6987V38.0496Z" fill="#50E6FF"/>
<path d="M30.314 30.4715H35.3435V25.4375H30.314V30.4715Z" fill="#50E6FF"/>
<path d="M30.3145 38.0496H35.344V33.0156H30.3145V38.0496Z" fill="#50E6FF"/>
<path d="M37.8848 30.4715H42.9143V25.4375H37.8848V30.4715Z" fill="#50E6FF"/>
<path d="M37.8848 38.0496H42.9143V33.0156H37.8848V38.0496Z" fill="#50E6FF"/>
<path d="M40.971 10.9502C40.971 13.4419 38.9525 15.4706 36.4545 15.4706C33.965 15.4706 31.938 13.4503 31.938 10.9502C31.938 8.45001 33.9565 6.42969 36.4545 6.42969C38.9525 6.42969 40.971 8.45843 40.971 10.9502Z" fill="#50E6FF"/>
<path d="M43.7891 15.47H32.1319C31.1984 15.47 30.4414 14.7124 30.4414 13.778C30.4414 12.8436 31.1984 12.0859 32.1319 12.0859H43.7975C44.7311 12.0859 45.4881 12.8436 45.4881 13.778C45.4881 14.7124 44.7311 15.47 43.7891 15.47Z" fill="#50E6FF"/>
<path d="M43.982 10.9511C43.982 12.6179 42.6363 13.9648 40.971 13.9648C39.3057 13.9648 37.96 12.6179 37.96 10.9511C37.96 9.28438 39.3057 7.9375 40.971 7.9375C42.6363 7.9375 43.982 9.28438 43.982 10.9511Z" fill="#50E6FF"/>
</svg>
