<svg data-slug-id="office09" viewBox="0 0 49 49" xmlns="http://www.w3.org/2000/svg">
<path d="M0.0195312 48.2691H24.0151V0.269531H0.0195312V48.2691Z" fill="#0078D4"/>
<path d="M24.0146 48.2696H48.0102V24.2656H24.0146V48.2696Z" fill="#50E6FF"/>
<path d="M5.03955 10.3347H10.093V5.28125H5.03955V10.3347V10.3347Z" fill="#50E6FF"/>
<path d="M12.6196 10.3347H17.6731V5.28125H12.6196V10.3347Z" fill="#50E6FF"/>
<path d="M5.03955 17.8972H10.093V12.8438H5.03955V17.8972V17.8972Z" fill="#50E6FF"/>
<path d="M12.6196 17.8972H17.6731V12.8438H12.6196V17.8972Z" fill="#50E6FF"/>
<path d="M5.03955 25.4285H10.093V20.375H5.03955V25.4285V25.4285Z" fill="#50E6FF"/>
<path d="M12.6196 25.4285H17.6731V20.375H12.6196V25.4285Z" fill="#50E6FF"/>
<path d="M5.03955 33.0418H10.093V27.9883H5.03955V33.0418V33.0418Z" fill="#50E6FF"/>
<path d="M12.6196 33.0418H17.6731V27.9883H12.6196V33.0418Z" fill="#50E6FF"/>
<path d="M30.2642 32.948H35.3176V27.8945H30.2642V32.948Z" fill="#0078D4"/>
<path d="M37.8447 32.948H42.8982V27.8945H37.8447V32.948Z" fill="#0078D4"/>
<path d="M43.4454 13.971H43.4117C43.5802 13.5583 43.6728 13.1119 43.6728 12.6487C43.6728 10.7031 42.0894 9.11967 40.1438 9.11967C39.7311 9.11967 39.3353 9.19547 38.9647 9.32181C37.9961 8.12582 36.5137 7.35938 34.8461 7.35938C31.9235 7.35938 29.5484 9.72608 29.5484 12.6487C29.5484 13.1035 29.6073 13.5499 29.7168 13.971C28.6472 13.9963 27.7881 14.8722 27.7881 15.9503C27.7881 17.0452 28.6809 17.938 29.7758 17.938H43.4538C44.5488 17.938 45.4415 17.0452 45.4415 15.9503C45.4247 14.8554 44.5403 13.971 43.4454 13.971Z" fill="#0078D4"/>
<path d="M40.3886 40.4961H32.7915V48.2616H40.3886V40.4961Z" fill="#0078D4"/>
<path d="M14.995 40.4961H7.39795V48.2616H14.995V40.4961Z" fill="#50E6FF"/>
</svg>
