<svg data-slug-id="office14" viewBox="0 0 49 49" xmlns="http://www.w3.org/2000/svg">
<path d="M23.9183 2.86609C25.9317 2.86609 27.8271 3.6498 29.2507 5.07396L31.0198 3.30429C29.057 1.34081 26.4877 0.363281 23.9183 0.363281C21.349 0.363281 18.7797 1.34081 16.8169 3.30429L18.5859 5.07396C20.0096 3.65823 21.905 2.86609 23.9183 2.86609Z" fill="#0078D4"/>
<path d="M23.9186 7.9989C24.5672 7.9989 25.1737 8.25171 25.6286 8.70677L27.3977 6.9371C26.4373 5.97643 25.1737 5.49609 23.9186 5.49609C22.6634 5.49609 21.3998 5.97643 20.4395 6.9371L22.2085 8.70677C22.6634 8.24328 23.2699 7.9989 23.9186 7.9989Z" fill="#0078D4"/>
<path d="M47.8679 27.8672H38.2729V48.1509H47.8679V27.8672Z" fill="#0078D4"/>
<path d="M0.195801 27.8672V47.9908H14.5924V42.2604H22.0224V47.9908H38.2723V27.8672H0.195801Z" fill="#50E6FF"/>
<path d="M14.4329 11.3008H9.01628L8.70459 15.4806L14.7446 15.6322L14.4329 11.3008Z" fill="#50E6FF"/>
<path d="M8.7131 15.4805L8.09814 27.8681H15.3765L14.7615 15.6406L8.7131 15.4805Z" fill="#0078D4"/>
<path d="M7.77842 33.75H5.30176V36.2275H7.77842V33.75Z" fill="#0078D7"/>
<path d="M14.1295 33.75H11.6528V36.2275H14.1295V33.75Z" fill="#0078D7"/>
<path d="M33.3194 33.75H30.8428V36.2275H33.3194V33.75Z" fill="#0078D7"/>
<path d="M26.9767 33.75H24.5V36.2275H26.9767V33.75Z" fill="#0078D7"/>
<path d="M20.6246 33.75H18.1479V36.2275H20.6246V33.75Z" fill="#0078D7"/>
<path d="M26.8161 11.3008H21.2478L21.0962 15.4806L27.1362 15.6322L26.8161 11.3008Z" fill="#50E6FF"/>
<path d="M21.088 15.4805L20.313 27.8681H27.743L27.128 15.6406L21.088 15.4805Z" fill="#0078D4"/>
<path d="M39.1993 11.3008H33.631L33.3193 15.4806L39.3594 15.6322L39.1993 11.3008Z" fill="#50E6FF"/>
<path d="M33.3191 15.4805L32.7041 27.8681H40.1341L39.3591 15.6406L33.3191 15.4805Z" fill="#0078D4"/>
</svg>
