<svg data-slug-id="open-source-clouds" xmlns="http://www.w3.org/2000/svg" viewBox="0 0 97 97">
  <path d="M95.9117 26.2345C95.9285 26.1166 95.9622 25.9987 95.9791 25.8808C96.1138 25.1566 96.1812 24.4155 96.1812 23.6576C96.1812 17.1229 90.8928 11.8176 84.358 11.8176C83.4485 11.8176 82.5559 11.9187 81.7138 12.1208C79.0022 7.85975 74.2696 5.04712 68.8633 5.04712C60.4591 5.04712 53.6549 11.8513 53.6549 20.2724C53.6549 20.4745 53.6549 20.6934 53.6717 20.8955C52.9138 20.6429 52.0885 20.4913 51.2128 20.4913C47.0864 20.4913 43.7349 23.8429 43.7349 27.9692C43.7349 31.8597 46.6991 35.0429 50.4717 35.4134L84.3412 35.4808C88.7875 35.4808 92.6612 33.0219 94.6991 29.4176C94.7496 29.3166 94.817 29.2155 94.8675 29.1145C95.1875 28.4745 95.6422 27.4976 95.9117 26.2345Z" fill="#50E6FF"/>
  <path d="M1.57914 57.4934C1.61282 57.5607 1.66335 57.645 1.69704 57.7123C3.17914 60.3397 6.00861 62.1418 9.2423 62.1418L33.9328 62.0913C36.6781 61.8218 38.8507 59.4976 38.8507 56.6681C38.8507 53.6534 36.4086 51.2113 33.3939 51.2113C32.7707 51.2113 32.1644 51.3123 31.6086 51.4976C31.6255 51.346 31.6255 51.1944 31.6255 51.0429C31.6255 44.9123 26.657 39.9439 20.5434 39.9439C16.6023 39.9439 13.1497 41.9818 11.1791 45.0976C10.556 44.946 9.91598 44.8786 9.25914 44.8786C4.47598 44.8786 0.619141 48.7355 0.619141 53.5018C0.619141 54.0576 0.669667 54.5965 0.77072 55.1186C0.787562 55.186 0.804404 55.2871 0.821246 55.3713C1.02335 56.2976 1.34335 57.0218 1.57914 57.4934Z" fill="#50E6FF"/>
  <path d="M47.5748 61.8723C47.1369 61.8723 46.7496 61.805 46.379 61.6534C46.0253 61.5187 45.7222 61.2997 45.4527 61.0302C45.2001 60.7608 44.998 60.4071 44.8632 60.0197C44.7285 59.6155 44.6611 59.1608 44.6611 58.6386C44.6611 58.1165 44.7453 57.6618 44.8969 57.2576C45.0485 56.8534 45.2675 56.5165 45.5369 56.2471C45.8064 55.9776 46.1096 55.7587 46.4632 55.6239C46.8169 55.4892 47.1874 55.405 47.5748 55.405C47.8443 55.405 48.0801 55.4218 48.299 55.4555C48.518 55.4892 48.6864 55.5397 48.8548 55.5734C49.0064 55.6239 49.1411 55.6744 49.2253 55.7081C49.3264 55.7587 49.3938 55.7923 49.4274 55.8092L49.1748 56.5165C49.1243 56.4829 49.0401 56.4492 48.939 56.3987C48.838 56.365 48.7201 56.3144 48.5853 56.2808C48.4506 56.2471 48.299 56.1965 48.1475 56.1797C47.979 56.146 47.8106 56.146 47.6422 56.146C47.339 56.146 47.0527 56.1965 46.8169 56.3144C46.5643 56.4323 46.3453 56.5839 46.1769 56.8029C45.9917 57.0218 45.8569 57.2744 45.7559 57.5776C45.6548 57.8808 45.6043 58.2344 45.6043 58.605C45.6043 58.9755 45.6548 59.3123 45.739 59.6155C45.8232 59.9187 45.958 60.1881 46.1264 60.3902C46.2948 60.6092 46.5138 60.7776 46.7832 60.8955C47.0359 61.0134 47.3559 61.0808 47.6927 61.0808C48.0801 61.0808 48.4169 61.0471 48.6696 60.9629C48.9222 60.8787 49.1243 60.8113 49.259 60.7439L49.478 61.4513C49.4443 61.485 49.3601 61.5187 49.259 61.5692C49.158 61.6197 49.0232 61.6534 48.8548 61.7039C48.6864 61.7376 48.5011 61.7881 48.299 61.805C48.0464 61.8555 47.8274 61.8723 47.5748 61.8723Z" fill="#772953"/>
  <path d="M53.0823 55.5397C53.3013 55.9945 53.5034 56.4324 53.7055 56.8871C53.9076 57.3418 54.0928 57.8134 54.2949 58.3187C54.497 58.8239 54.6991 59.346 54.9013 59.9018C55.1034 60.4576 55.3391 61.0639 55.5749 61.7208H54.6318C54.5307 61.4513 54.4297 61.1818 54.3455 60.9292C54.2613 60.6597 54.1602 60.4071 54.076 60.1376H51.2634L50.7076 61.7376H49.7981C50.0339 61.0808 50.2528 60.4745 50.4718 59.9187C50.6739 59.3629 50.8928 58.8239 51.0781 58.3355C51.2802 57.8303 51.4823 57.3587 51.6676 56.9039C51.8697 56.4492 52.0718 55.9945 52.2907 55.5566L53.0823 55.5397ZM52.6613 56.5334C52.4591 56.9882 52.257 57.4429 52.0718 57.9313C51.8865 58.4197 51.7013 58.925 51.516 59.4471H53.8234C53.6381 58.925 53.436 58.4197 53.2507 57.9482C53.0655 57.4429 52.8634 56.9882 52.6613 56.5334Z" fill="#772953"/>
  <path d="M60.6949 61.7376C60.5602 61.5187 60.4086 61.266 60.2402 60.9966C60.0717 60.7271 59.8865 60.4408 59.6844 60.1376C59.4823 59.8345 59.2802 59.5482 59.0781 59.245C58.8591 58.9418 58.657 58.6555 58.4549 58.3692C58.2528 58.0829 58.0507 57.8134 57.8486 57.5608C57.6465 57.3082 57.4781 57.0892 57.3096 56.9039V61.7376H56.4675V55.5397H57.1581C57.4444 55.8429 57.7307 56.1797 58.0507 56.5839C58.3707 56.9882 58.6907 57.3924 58.9938 57.8134C59.3138 58.2345 59.6002 58.6387 59.8865 59.0597C60.1559 59.4639 60.3917 59.8176 60.5938 60.1376V55.5566H61.436V61.7545L60.6949 61.7376Z" fill="#772953"/>
  <path d="M74.2359 61.7376C74.1012 61.5187 73.9496 61.266 73.7812 60.9966C73.6128 60.7271 73.4275 60.4408 73.2254 60.1376C73.0233 59.8345 72.8212 59.5482 72.6191 59.245C72.4001 58.9418 72.198 58.6555 71.9959 58.3692C71.7938 58.0829 71.5917 57.8134 71.3896 57.5608C71.1875 57.3082 71.0191 57.0892 70.8507 56.9039V61.7376H70.0085V55.5397H70.6991C70.9854 55.8429 71.2717 56.1797 71.5917 56.5839C71.9117 56.9882 72.2317 57.3924 72.5349 57.8134C72.8549 58.2345 73.1412 58.6387 73.4275 59.0597C73.697 59.4639 73.9328 59.8176 74.1349 60.1376V55.5566H74.977V61.7545L74.2359 61.7376Z" fill="#772953"/>
  <path d="M76.5432 55.5397H77.419V61.7376H76.5432V55.5397Z" fill="#772953"/>
  <path d="M81.6464 61.8723C81.2085 61.8723 80.8211 61.805 80.4506 61.6534C80.0969 61.5187 79.7937 61.2997 79.5242 61.0302C79.2716 60.7608 79.0695 60.4071 78.9348 60.0197C78.8 59.6155 78.7327 59.1608 78.7327 58.6386C78.7327 58.1165 78.8169 57.6618 78.9685 57.2576C79.12 56.8534 79.339 56.5165 79.6085 56.2471C79.8779 55.9776 80.1811 55.7587 80.5348 55.6239C80.8885 55.4892 81.259 55.405 81.6464 55.405C81.9158 55.405 82.1516 55.4218 82.3706 55.4555C82.5895 55.4892 82.7579 55.5397 82.9264 55.5734C83.0779 55.6239 83.2127 55.6744 83.2969 55.7081C83.3979 55.7587 83.4653 55.7923 83.499 55.8092L83.2464 56.5165C83.1958 56.4829 83.1116 56.4492 83.0106 56.3987C82.9095 56.365 82.7916 56.3144 82.6569 56.2808C82.5221 56.2471 82.3706 56.1965 82.219 56.1797C82.0506 56.146 81.8821 56.146 81.7137 56.146C81.4106 56.146 81.1242 56.1965 80.8885 56.3144C80.6358 56.4323 80.4169 56.5839 80.2485 56.8029C80.0632 57.0218 79.9285 57.2744 79.8274 57.5776C79.7264 57.8808 79.6758 58.2344 79.6758 58.605C79.6758 58.9755 79.7264 59.3123 79.8106 59.6155C79.8948 59.9187 80.0295 60.1881 80.1979 60.3902C80.3664 60.6092 80.5853 60.7776 80.8548 60.8955C81.1074 61.0134 81.4274 61.0808 81.7642 61.0808C82.1516 61.0808 82.4885 61.0471 82.7411 60.9629C82.9937 60.8787 83.1958 60.8113 83.3306 60.7439L83.5495 61.4513C83.5158 61.485 83.4316 61.5187 83.3306 61.5692C83.2295 61.6197 83.0948 61.6534 82.9264 61.7039C82.7579 61.7376 82.5727 61.7881 82.3706 61.805C82.1179 61.8555 81.899 61.8723 81.6464 61.8723Z" fill="#772953"/>
  <path d="M87.1538 55.5397C87.3728 55.9945 87.5749 56.4324 87.777 56.8871C87.9791 57.3418 88.1644 57.8134 88.3665 58.3187C88.5686 58.8239 88.7707 59.346 88.9728 59.9018C89.1749 60.4576 89.4107 61.0639 89.6465 61.7208H88.7033C88.6023 61.4513 88.5012 61.1818 88.417 60.9292C88.3328 60.6597 88.2317 60.4071 88.1475 60.1376H85.3349L84.7791 61.7376H83.8696C84.1054 61.0808 84.3244 60.4745 84.5433 59.9187C84.7454 59.3629 84.9644 58.8239 85.1496 58.3355C85.3517 57.8303 85.5538 57.3587 85.7391 56.9039C85.9412 56.4492 86.1433 55.9945 86.3623 55.5566L87.1538 55.5397ZM86.7328 56.5334C86.5307 56.9882 86.3286 57.4429 86.1433 57.9313C85.9581 58.4197 85.7728 58.925 85.5875 59.4471H87.8949C87.7096 58.925 87.5075 58.4197 87.3223 57.9482C87.1202 57.4429 86.9349 56.9882 86.7328 56.5334Z" fill="#772953"/>
  <path d="M94.2443 61.0134V61.7376H90.5222V55.5397H91.398V61.0134H94.2443Z" fill="#772953"/>
  <path d="M65.7139 60.6934C64.5687 60.6934 63.6592 59.7671 63.6592 58.6387C63.6592 57.4934 64.5855 56.5839 65.7139 56.5839C66.8592 56.5839 67.7687 57.5102 67.7687 58.6387C67.7687 59.7839 66.8423 60.6934 65.7139 60.6934Z" fill="#772953"/>
  <path d="M68.9476 58.6386C68.9476 60.4239 67.4992 61.8723 65.7139 61.8723C63.9286 61.8723 62.4802 60.4239 62.4802 58.6386C62.4802 56.8534 63.9286 55.405 65.7139 55.405C67.4992 55.405 68.9476 56.8534 68.9476 58.6386ZM65.7139 56.1797C64.3665 56.1797 63.2718 57.2744 63.2718 58.6218C63.2718 59.9692 64.3665 61.0639 65.7139 61.0639C67.0613 61.0639 68.156 59.9692 68.156 58.6218C68.156 57.2913 67.0613 56.1797 65.7139 56.1797Z" fill="#772953"/>
  <path d="M80.5518 49.7629C79.9455 49.7629 79.356 49.5271 78.9518 49.0892L68.8297 39.0007C68.3918 38.5629 68.156 38.0071 68.156 37.4007C68.156 36.7944 68.3918 36.205 68.8297 35.8007L78.9518 25.7292C79.3897 25.2913 79.9455 25.0555 80.5518 25.0555C81.1581 25.0555 81.7476 25.2913 82.1518 25.7292L92.2234 35.8007C92.6613 36.2386 92.8971 36.7944 92.8971 37.4007C92.8971 38.0071 92.6613 38.5965 92.2234 39.0007L82.1518 49.0723C81.7644 49.5102 81.1581 49.7629 80.5518 49.7629Z" fill="#59B3D8"/>
  <path d="M82.1518 25.6787C81.7139 25.2408 81.1581 25.005 80.5518 25.005C79.9455 25.005 79.356 25.2408 78.9518 25.6787L68.8297 35.7503C68.3918 36.1882 68.156 36.744 68.156 37.3503C68.156 37.9566 68.3918 38.5461 68.8297 38.9503L74.556 44.6766L85.2676 28.8282L82.1518 25.6787Z" fill="#7BC3DD"/>
  <path d="M88.2316 37.4007L83.0274 32.1965L82.3032 33.2407L87.3053 38.2765L88.2316 37.4007Z" fill="#B6DEEC"/>
  <path d="M80.9559 30.1587L80.0801 31.0345L82.3201 33.2408L83.0443 32.1966L80.9559 30.1587Z" fill="#BDE1EE"/>
  <path d="M72.9053 37.4008L80.1474 30.1587L81.0232 31.0345L73.7811 38.2766L72.9053 37.4008Z" fill="#BDE1EE"/>
  <path d="M87.3222 35.4303C86.2443 35.4303 85.4022 36.3061 85.4022 37.3503C85.4022 37.7545 85.52 38.1082 85.7222 38.4282L81.8822 42.2682C81.7643 42.1839 81.6801 42.1503 81.5622 42.0661V32.3145C82.1179 31.9945 82.5222 31.3545 82.5222 30.6303C82.5222 29.5524 81.6464 28.7103 80.6022 28.7103C79.5243 28.7103 78.6822 29.5861 78.6822 30.6303C78.6822 31.3545 79.0864 31.9439 79.6422 32.3145V42.1166C79.5243 42.1503 79.44 42.2345 79.3222 42.2682L75.4822 38.4282C75.6843 38.1082 75.8022 37.7545 75.8022 37.3839C75.8022 36.3061 74.9264 35.4639 73.8822 35.4639C72.8043 35.4639 71.9622 36.3397 71.9622 37.3839C71.9622 38.4282 72.8379 39.3039 73.8822 39.3039C74.1179 39.3039 74.32 39.2703 74.5222 39.1861L78.5643 43.2282C78.4464 43.5145 78.3622 43.7839 78.3622 44.1039C78.3622 45.3503 79.3558 46.3439 80.6022 46.3439C81.8485 46.3439 82.8422 45.3503 82.8422 44.1039C82.8422 43.7839 82.7579 43.4976 82.6906 43.2282L86.7327 39.1861C86.9348 39.2703 87.1369 39.3039 87.339 39.3039C88.4169 39.3039 89.259 38.4282 89.259 37.3839C89.2422 36.3229 88.3495 35.4303 87.3222 35.4303Z" fill="white"/>
  <path d="M82.0675 44.1713C82.0675 45.0134 81.4106 45.6703 80.5685 45.6703C79.7264 45.6703 79.0696 45.0134 79.0696 44.1713C79.0696 43.3292 79.7264 42.6724 80.5685 42.6724C81.4106 42.7229 82.0675 43.3797 82.0675 44.1713Z" fill="#B7D332"/>
  <path d="M81.6297 30.6471C81.6297 31.2534 81.1581 31.725 80.5518 31.725C79.9455 31.725 79.4739 31.2534 79.4739 30.6471C79.4739 30.0408 79.9455 29.5692 80.5518 29.5692C81.1581 29.5524 81.6297 30.0408 81.6297 30.6471Z" fill="#B7D332"/>
  <path d="M74.876 37.4008C74.876 38.0071 74.4044 38.4787 73.7981 38.4787C73.1918 38.4787 72.7202 38.0071 72.7202 37.4008C72.7202 36.7945 73.1918 36.3229 73.7981 36.3229C74.4044 36.3229 74.876 36.7945 74.876 37.4008Z" fill="#B7D332"/>
  <path d="M88.3496 37.4008C88.3496 38.0071 87.8781 38.4787 87.2717 38.4787C86.6654 38.4787 86.1938 38.0071 86.1938 37.4008C86.1938 36.7945 86.6654 36.3229 87.2717 36.3229C87.8781 36.3229 88.3496 36.7945 88.3496 37.4008Z" fill="#B7D332"/>
  <path d="M36.0044 28.8786C35.3644 28.7271 34.6907 28.6429 34.0002 28.6429C32.8212 28.6429 31.7602 28.845 30.9686 29.1818C30.8844 29.2323 30.817 29.3165 30.817 29.4176C30.817 29.4513 30.817 29.5018 30.8339 29.5186C30.9181 29.7881 30.7665 30.0744 30.0086 30.2429C28.8802 30.4955 28.156 31.6576 27.7518 32.045C27.2802 32.4997 25.916 32.786 26.1181 32.4997C26.2697 32.2976 26.8928 31.6239 27.2633 30.9165C27.6002 30.2765 27.8865 30.0913 28.2907 29.485C28.4086 29.2997 28.8802 28.6765 29.0149 28.1881C29.1665 27.6997 29.116 27.0934 29.1665 26.8407C29.2507 26.4871 29.5876 25.6955 29.6212 25.2576C29.6381 25.005 28.577 25.6113 28.0718 25.6113C27.5665 25.6113 27.0781 25.3081 26.6233 25.2913C26.0676 25.2576 25.7139 25.7123 25.2086 25.645C24.9223 25.5944 24.6697 25.3418 24.1812 25.325C23.457 25.2913 22.5812 25.7292 20.9476 25.6618C19.3307 25.6113 17.8318 23.6239 17.6297 23.3039C17.3939 22.9334 17.0907 22.9334 16.7876 23.2197C16.4676 23.506 16.0802 23.2871 15.9623 23.085C15.7433 22.7144 15.1876 21.6365 14.3118 21.4007C13.0991 21.0807 12.476 22.0744 12.5602 22.8492C12.6444 23.6407 13.1497 23.8765 13.4023 24.2976C13.6381 24.7186 13.756 24.9881 14.2107 25.1902C14.5307 25.325 14.6486 25.5102 14.5476 25.7797C14.4633 25.9986 14.1265 26.066 13.9076 26.066C13.4528 26.0829 13.116 25.965 12.8802 25.8134C12.6107 25.645 12.3749 25.3923 12.1391 24.9881C11.8528 24.5334 11.4149 24.3313 10.9097 24.3313C10.6739 24.3313 10.4381 24.3986 10.236 24.4997C9.4444 24.9208 8.4844 25.1565 7.45703 25.1565H6.29492C8.50124 31.725 14.716 36.4407 22.0254 36.4407C27.9202 36.4407 33.057 33.426 36.0044 28.8786Z" fill="white"/>
  <path d="M36.0043 28.8787C35.3643 28.7271 34.6906 28.6429 34 28.6429C32.8211 28.6429 31.76 28.845 30.9685 29.1818C30.8843 29.2324 30.8169 29.3166 30.8169 29.4176C30.8169 29.4513 30.8169 29.5018 30.8337 29.5187C30.9179 29.7882 30.7664 30.0745 30.0085 30.2429C28.88 30.4955 28.1558 31.6576 27.7516 32.045C27.28 32.4997 25.9158 32.7861 26.1179 32.5166C26.2695 32.2976 26.8927 31.6408 27.2632 30.9334C27.6 30.2934 27.8864 30.1082 28.2906 29.5018C28.4085 29.3166 28.88 28.6934 29.0148 28.205C29.1664 27.7166 29.1158 27.1103 29.1664 26.8576C29.2506 26.5039 29.5874 25.7124 29.6211 25.2745C29.6379 25.0218 28.5769 25.6282 28.0716 25.6282C27.5664 25.6282 27.0779 25.325 26.6232 25.3082C26.0674 25.2745 25.7137 25.7292 25.2085 25.6618C24.9221 25.6113 24.6695 25.3587 24.1811 25.3418C23.4569 25.3082 22.5811 25.7461 20.9474 25.6787C19.3306 25.6282 17.8316 23.6408 17.6295 23.3208C17.3937 22.9503 17.0906 22.9503 16.7874 23.2366C16.4674 23.5229 16.08 23.3039 15.9621 23.1018C15.7432 22.7313 15.1874 21.6534 14.3116 21.4176C13.099 21.0976 12.4758 22.0913 12.56 22.8661C12.6443 23.6576 13.1495 23.8934 13.4021 24.3145C13.6379 24.7355 13.7558 25.005 14.2106 25.2071C14.5306 25.3418 14.6485 25.5271 14.5474 25.7966C14.4632 26.0155 14.1264 26.0829 13.9074 26.0829C13.4527 26.0997 13.1158 25.9818 12.88 25.8303C12.6106 25.6618 12.3748 25.4092 12.139 25.005C11.8527 24.5503 11.4148 24.3482 10.9095 24.3482C10.6737 24.3482 10.4379 24.4155 10.2358 24.5166C9.44425 24.9376 8.48425 25.1734 7.45688 25.1734H6.3453C5.78951 23.5061 5.48636 21.7208 5.48636 19.8682C5.46951 10.6892 12.9137 3.26184 22.0758 3.26184C31.2379 3.26184 38.6821 10.6892 38.6821 19.8513C38.6821 23.1861 37.6885 26.285 36.0043 28.8787Z" fill="black"/>
  <path d="M25.7306 27.3629C25.8149 27.4471 25.9664 27.7165 25.7812 28.0871C25.6801 28.2723 25.5791 28.4071 25.377 28.5586C25.1412 28.7439 24.6864 28.9628 24.0633 28.5586C23.7264 28.3397 23.7096 28.2723 23.238 28.3397C22.9012 28.3902 22.7833 28.0534 22.9012 27.7671C23.0191 27.4976 23.5075 27.2618 24.1138 27.6155C24.3833 27.7839 24.8212 28.1207 25.1917 27.8176C25.3433 27.6997 25.4443 27.6155 25.6633 27.3629C25.6801 27.346 25.6801 27.346 25.697 27.346C25.7138 27.346 25.7306 27.346 25.7306 27.3629Z" fill="black"/>
  <path d="M20.779 11.1608C18.859 11.2955 18.6569 11.4976 18.3033 11.885C17.798 12.4239 17.1243 11.1945 17.1243 11.1945C16.7201 11.1102 16.2317 10.4702 16.5012 9.86393C16.7538 9.27445 17.2422 9.44287 17.3769 9.62814C17.5622 9.84709 17.9496 10.2176 18.4548 10.2176C18.9601 10.2008 19.5327 10.0997 20.3412 10.0997C21.1664 10.0997 21.7054 10.4029 21.739 10.6723C21.7896 10.8913 21.7054 11.0934 20.779 11.1608ZM22.8001 7.99445C22.7664 7.99445 22.7327 7.97761 22.7327 7.94393C22.7327 7.92709 22.7496 7.91024 22.7664 7.8934C23.1369 7.6913 23.6927 7.53972 24.3327 7.47235C24.518 7.45551 24.7033 7.43866 24.8885 7.43866H24.9896C26.0506 7.45551 26.9096 7.8934 26.8927 8.38182C26.8759 8.87024 26.0001 9.25761 24.939 9.24077C24.6022 9.22393 24.2654 9.19024 23.9959 9.10603C23.9622 9.10603 23.9454 9.07235 23.9454 9.03866C23.9454 9.00498 23.9622 8.9713 23.9959 8.9713C24.6527 8.81972 25.1075 8.56709 25.0738 8.3313C25.0233 8.0113 24.1643 7.84287 23.1369 7.94393C23.019 7.97761 22.9012 7.97761 22.8001 7.99445ZM31.4401 15.4387C31.2717 15.9945 31.0359 16.7018 30.0085 17.2239C29.8569 17.3081 29.8064 17.1734 29.8738 17.0555C30.2612 16.3818 30.3285 16.2134 30.4464 15.9608C30.598 15.5734 30.6822 15.0345 30.379 13.8892C29.7559 11.6492 28.4591 8.63445 27.4991 7.67445C26.5896 6.7313 24.9222 6.46182 23.4401 6.84919C22.8843 6.98393 21.8064 7.55656 19.8191 7.10182C16.3496 6.32709 15.8275 8.06182 15.6422 8.81972C15.4401 9.57761 14.9685 11.7166 14.9685 11.7166C14.8169 12.5923 14.598 14.1081 19.9706 15.1355C22.4801 15.6071 22.598 16.2639 22.7159 16.7187C22.918 17.5439 23.238 18.0323 23.5917 18.2681C23.9454 18.5039 23.5917 18.706 23.1875 18.7397C22.1264 18.8576 18.1854 17.7292 15.8443 16.3987C13.9412 15.2366 13.9075 14.1923 14.3454 13.2997C11.4654 12.9966 9.30958 13.5692 8.90537 14.9334C8.23168 17.2745 14.0422 21.266 20.678 23.2702C27.6338 25.3755 34.7748 23.9102 35.5664 19.5313C35.9369 17.5439 34.2696 16.0787 31.4401 15.4387Z" fill="#E93442"/>
  <path d="M38.5139 27.986H38.6655L38.8844 28.3566H39.036L38.7834 27.986C38.9181 27.9692 39.0023 27.9018 39.0023 27.7503C39.0023 27.5818 38.9013 27.5145 38.6992 27.5145H38.3792V28.3734H38.5139C38.5139 28.3566 38.5139 27.986 38.5139 27.986ZM38.5139 27.885V27.6155H38.6823C38.7665 27.6155 38.8676 27.6324 38.8676 27.7334C38.8676 27.8682 38.7665 27.8682 38.6655 27.8682H38.5139V27.885Z" fill="black"/>
  <path d="M39.5075 27.9355C39.5075 28.3902 39.1369 28.7776 38.6653 28.7776C38.2106 28.7776 37.8232 28.4071 37.8232 27.9355C37.8232 27.4808 38.1938 27.0934 38.6653 27.0934C39.1201 27.0934 39.5075 27.4639 39.5075 27.9355ZM38.6653 27.245C38.278 27.245 37.9748 27.5481 37.9748 27.9355C37.9748 28.306 38.278 28.626 38.6653 28.626C39.0527 28.626 39.3559 28.3229 39.3559 27.9355C39.3559 27.5481 39.0359 27.245 38.6653 27.245Z" fill="black"/>
  <path d="M94.9853 87.8092C95.0021 87.6913 95.0358 87.5903 95.0526 87.4892C95.1874 86.8155 95.2379 86.125 95.2379 85.4176C95.2379 79.3545 90.3369 74.4366 84.2737 74.4366C83.4316 74.4366 82.6063 74.5376 81.8147 74.7229C79.3053 70.765 74.9095 68.1713 69.8905 68.1713C62.1095 68.1713 55.7937 74.4871 55.7937 82.285C55.7937 82.4703 55.7937 82.6724 55.8105 82.8576C55.1032 82.6219 54.3284 82.4871 53.5369 82.4871C49.7137 82.4871 46.5979 85.6029 46.5979 89.4261C46.5979 93.0303 49.36 95.9776 52.8463 96.3313L84.24 96.3987C88.3495 96.3987 91.9537 94.125 93.84 90.7734C93.8905 90.6724 93.9579 90.5882 94.0084 90.4871C94.3116 89.8976 94.7326 88.9882 94.9853 87.8092Z" fill="#50E6FF"/>
  <path d="M34.3537 71.8766C34.3705 71.3545 34.5895 70.8829 34.96 70.5292C35.3305 70.1755 35.8358 69.9903 36.3411 70.0071C37.4021 70.0408 38.2442 70.9503 38.2105 72.0113C38.1937 72.5334 37.9748 73.005 37.6042 73.3587C37.2337 73.7124 36.7284 73.8976 36.2232 73.8808C35.1453 73.8303 34.3032 72.9376 34.3537 71.8766ZM39.5074 73.7797C39.5916 73.7292 39.659 73.6787 39.6927 73.6618L39.7263 73.6113C39.659 73.1397 38.9516 70.8829 38.4295 70.3439C38.2779 70.1924 38.1769 70.0576 37.9411 69.906C36.0379 68.7945 31.5242 68.1208 31.3221 68.1039L31.2884 68.1208L31.2716 68.1545C31.2716 68.1545 31.2548 69.0976 31.2548 69.1987C30.8 69.0471 27.4484 67.9692 24.299 67.8513C21.6379 67.7503 17.7642 67.4134 12.6105 70.5797L12.459 70.6808C10.0337 72.1966 8.36634 74.0492 7.50739 76.205C7.23792 76.8787 6.86739 78.4113 7.23792 79.8597C7.3895 80.4829 7.69265 81.1229 8.08002 81.6955C8.97265 82.9755 10.4716 83.8345 12.0884 83.9692C14.3621 84.1713 16.0969 83.1439 16.7032 81.2408C17.1242 79.9271 16.7032 77.9734 15.0863 76.9966C13.7727 76.1881 12.3579 76.3734 11.5327 76.9124C10.8253 77.3839 10.4211 78.125 10.4211 78.9166C10.4379 80.3482 11.6674 81.106 12.56 81.106C12.8127 81.106 13.0821 81.0555 13.3684 80.9713C13.4695 80.9376 13.5705 80.9039 13.6716 80.8366L13.7053 80.8197L13.7221 80.8029C13.9242 80.6681 14.0421 80.4492 14.0421 80.1966C14.0421 80.1292 14.0253 80.0618 14.0084 79.9945C13.9074 79.6408 13.5537 79.4218 13.1832 79.4892L13.1327 79.506L13.0653 79.5229L12.9642 79.5566C12.7621 79.6071 12.6105 79.6071 12.5769 79.6071C12.4758 79.6071 11.9705 79.4555 11.9705 78.8829C11.9705 78.6808 12.0548 78.5292 12.1053 78.4618C12.2569 78.2092 12.6948 77.9734 13.2842 78.0239C14.059 78.0913 14.6148 78.4787 14.9684 79.2366C15.3053 79.9271 15.2211 80.786 14.7327 81.4092C14.2611 82.0324 13.4021 82.285 12.2737 82.1671C11.1284 82.0492 10.1684 81.3755 9.6295 80.365C9.10739 79.3713 9.07371 78.1755 9.56213 77.266C10.7242 75.0766 12.8969 75.1103 14.0927 75.3124C15.8611 75.6155 17.8821 77.2492 18.5895 79.1355C18.7074 79.4387 18.7579 79.6745 18.8084 79.8934L18.8927 80.2134L20.8969 81.1903L20.9305 81.2071H20.9811L20.9979 81.1566C20.9811 81.106 20.9642 81.0724 20.9137 80.5166C20.88 80.0113 20.7958 78.6639 21.4863 77.9903C21.7558 77.7208 22.16 77.485 22.48 77.4176C23.7937 77.0976 25.3263 77.3166 26.7916 79.0008C27.5495 79.8766 27.92 80.2639 28.0884 80.4492L28.1558 80.4997L28.2232 80.5503C28.2905 80.5839 30.7327 81.7124 30.7327 81.7124L30.7832 81.6955V81.645C30.7663 81.6281 29.2337 79.6408 29.5032 78.0239C29.7221 76.7271 30.7495 76.845 32.1811 77.0134C32.6527 77.0639 33.1748 77.1313 33.7305 77.1482C35.2632 77.165 36.9137 76.8787 37.9411 76.4239C38.5979 76.1376 39.019 75.9524 39.2884 75.6997C39.3895 75.6155 39.44 75.4976 39.4905 75.3629L39.5242 75.2787C39.5748 75.1608 39.6253 74.925 39.659 74.8071C39.6758 74.7566 39.6758 74.6892 39.6421 74.6555L39.5074 74.6892C39.0527 74.9587 37.9411 75.4639 36.8969 75.4976C35.6 75.5313 32.9895 74.1839 32.72 74.0492L32.6863 74.0155C32.619 73.8639 32.2316 72.9376 32.1474 72.7355C34.0337 73.9818 35.5832 74.6555 36.779 74.7734C38.0253 74.8071 39.0695 74.0829 39.5074 73.7797ZM36.5432 72.045C36.2063 72.045 35.9537 71.8597 35.9537 71.6408C35.9537 71.4218 36.2232 71.2366 36.5432 71.2366C36.8632 71.2366 37.1327 71.4218 37.1327 71.6408C37.1495 71.8766 36.88 72.045 36.5432 72.045ZM36.3242 70.5797C35.9705 70.5629 35.6169 70.6976 35.3642 70.9334C35.0948 71.186 34.9432 71.506 34.9432 71.8766C34.9263 72.6176 35.499 73.2408 36.24 73.2745C36.5937 73.2913 36.9474 73.1566 37.2 72.9208C37.4695 72.6681 37.6211 72.3481 37.6211 71.9776C37.6548 71.2366 37.0653 70.6134 36.3242 70.5797Z" fill="#73BA25"/>
  <path d="M20.3244 83.0428C19.4823 83.0428 19.0107 83.7671 19.0107 84.2555V84.8955C19.0107 85.6197 19.6002 86.0744 20.156 86.0744H22.0928C22.3455 86.0744 22.396 86.2428 22.396 86.3776V86.7818C22.396 86.8323 22.3792 87.2197 22.0928 87.2197H19.4486C19.1792 87.2197 18.9939 87.4049 18.9939 87.6576V87.7755C18.9939 88.0281 19.1792 88.2134 19.4486 88.2134H22.2444C22.9686 88.2134 23.4402 87.7081 23.4402 86.9165V86.226C23.4402 85.485 22.9013 85.1649 22.3792 85.1649H20.476C20.1897 85.1649 20.0549 84.946 20.0549 84.7944V84.4071C20.0549 84.1713 20.2065 84.0365 20.4928 84.0365H22.615C22.8676 84.0365 23.0697 83.8513 23.0697 83.5986V83.4807C23.0697 83.2281 22.8676 83.0428 22.5981 83.0428H20.3244V83.0428Z" fill="#73BA25"/>
  <path d="M28.257 83.0428C28.0043 83.0428 27.8022 83.2449 27.8022 83.4976V86.7481C27.8022 87.0007 27.5833 87.2197 27.3307 87.2197H25.8486C25.5959 87.2197 25.377 87.0176 25.377 86.7481V83.4976C25.377 83.2449 25.1749 83.0428 24.9222 83.0428H24.7875C24.5349 83.0428 24.3328 83.2449 24.3328 83.4976V86.866C24.3328 87.6576 24.9559 88.2134 25.798 88.2134H27.3812C28.2233 88.2134 28.8464 87.6407 28.8464 86.866V83.4976C28.8464 83.2449 28.6443 83.0428 28.3917 83.0428H28.257Z" fill="#73BA25"/>
  <path d="M31.0864 83.0428C30.2443 83.0428 29.7727 83.7671 29.7727 84.2555V84.8955C29.7727 85.6197 30.3622 86.0744 30.918 86.0744H32.8548C33.1074 86.0744 33.158 86.2428 33.158 86.3776V86.7818C33.158 86.8323 33.1411 87.2197 32.8548 87.2197H30.2106C29.9411 87.2197 29.7559 87.4049 29.7559 87.6576V87.7755C29.7559 88.0281 29.9411 88.2134 30.2106 88.2134H33.0064C33.7306 88.2134 34.2022 87.7081 34.2022 86.9165V86.226C34.2022 85.485 33.6632 85.1649 33.1411 85.1649H31.238C30.9516 85.1649 30.8169 84.946 30.8169 84.7944V84.4071C30.8169 84.1713 30.9685 84.0365 31.2548 84.0365H33.3769C33.6295 84.0365 33.8316 83.8513 33.8316 83.5986V83.4807C33.8316 83.2281 33.6295 83.0428 33.3601 83.0428H31.0864V83.0428Z" fill="#73BA25"/>
  <path d="M35.5497 83.0429C35.2971 83.0429 35.1118 83.2282 35.1118 83.4808V87.7755C35.1118 88.0282 35.2971 88.2134 35.5497 88.2134H38.9687C39.2381 88.2134 39.4234 88.0282 39.4234 87.7755V87.6408C39.4234 87.3882 39.2381 87.2029 38.9687 87.2029H36.156V86.125H38.2108C38.4802 86.125 38.6655 85.9397 38.6655 85.6871V85.5692C38.6655 85.3166 38.4802 85.1313 38.2108 85.1313H36.156V84.0029H38.8171C39.0866 84.0029 39.2718 83.8176 39.2718 83.565V83.4471C39.2718 83.1945 39.0866 83.0092 38.8171 83.0092L35.5497 83.0429Z" fill="#73BA25"/>
  <path d="M6.27796 87.3713V85.8892C6.27796 85.7208 6.41269 85.5692 6.59796 85.5692H7.40638C7.5748 85.5692 7.72638 85.7208 7.72638 85.8892V87.3713C7.72638 87.5397 7.59164 87.6913 7.40638 87.6913H6.58112C6.41269 87.6913 6.27796 87.5565 6.27796 87.3713ZM6.49691 85.0807C6.07585 85.0807 5.72217 85.4176 5.72217 85.8218V87.4386C5.72217 87.8597 6.05901 88.1965 6.48006 88.1965H7.52427C7.94533 88.1965 8.28217 87.8597 8.28217 87.4386V85.8218C8.28217 85.4176 7.92848 85.0807 7.50743 85.0807H6.49691C6.49691 85.0807 6.49691 85.0807 6.49691 85.0807Z" fill="#73BA25"/>
  <path d="M9.59583 87.3376V85.9228C9.59583 85.7207 9.74741 85.5692 9.94951 85.5692H10.7074C10.9095 85.5692 11.0611 85.7207 11.0611 85.9228V87.3376C11.0611 87.5229 10.9095 87.6913 10.7074 87.6913H9.94951C9.74741 87.6913 9.59583 87.5397 9.59583 87.3376ZM10.64 85.0639C10.3369 85.0639 10.1179 85.165 9.93267 85.266C9.81478 85.3165 9.73057 85.3671 9.64635 85.3671C9.61267 85.3671 9.57899 85.3502 9.56214 85.3334L9.49478 85.1986C9.47793 85.165 9.41057 85.0976 9.32635 85.0976H9.2253C9.12425 85.0976 9.04004 85.1818 9.04004 85.2997V89.4092C9.04004 89.5439 9.14109 89.645 9.27583 89.645H9.36004C9.49478 89.645 9.59583 89.5439 9.59583 89.4092V88.045C9.59583 88.0113 9.62951 87.9607 9.64635 87.9607C9.71372 87.9607 9.81478 88.0113 9.93267 88.0618C10.1179 88.146 10.3369 88.2471 10.64 88.2471H10.7411C11.28 88.2471 11.6 87.9439 11.6 87.4555V85.8892C11.6 85.4007 11.2632 85.0976 10.7411 85.0976L10.64 85.0639Z" fill="#73BA25"/>
  <path d="M12.9305 85.8892C12.9305 85.7208 13.0653 85.586 13.2337 85.586H14.0758C14.2442 85.586 14.379 85.7208 14.379 85.8892V86.3944H12.9137C12.9305 86.3271 12.9305 85.8892 12.9305 85.8892ZM13.1495 85.0807C12.7284 85.0807 12.3748 85.4176 12.3748 85.8218V87.4218C12.3748 87.8429 12.7116 88.1965 13.1158 88.1965H14.1937C14.3284 88.1965 14.4295 88.1123 14.4295 87.9776V87.9102C14.4295 87.7923 14.3284 87.6913 14.1937 87.6913H13.3011C13.0484 87.6913 12.9137 87.5734 12.9137 87.3376V86.866H14.5137C14.7663 86.866 14.9179 86.7144 14.9179 86.445V85.8218C14.9179 85.4176 14.5642 85.0807 14.1432 85.0807H13.1495Z" fill="#73BA25"/>
  <path d="M17.1581 85.0639C16.8549 85.0639 16.636 85.165 16.4507 85.266C16.3328 85.3165 16.2318 85.3671 16.1644 85.3671C16.1307 85.3671 16.1139 85.3671 16.0802 85.3165L16.0128 85.1986C15.9792 85.1313 15.9118 85.0807 15.8276 85.0807H15.7434C15.6423 85.0807 15.5581 85.165 15.5581 85.2828V87.9776C15.5581 88.1123 15.6592 88.2134 15.7939 88.2134H15.8781C16.0128 88.2134 16.1139 88.1123 16.1139 87.9776V85.9397C16.1139 85.7544 16.2655 85.586 16.4676 85.586H17.2255C17.4107 85.586 17.5792 85.7376 17.5792 85.9397V87.9776C17.5792 88.1123 17.6802 88.2134 17.8149 88.2134H17.8992C18.0339 88.2134 18.1349 88.1123 18.1349 87.9776V85.8723C18.1349 85.3839 17.7981 85.0807 17.276 85.0807H17.1581V85.0639Z" fill="#73BA25"/>
  <path d="M40.0969 87.5566H40.1474C40.2148 87.5566 40.2653 87.5397 40.2653 87.4723C40.2653 87.4387 40.2316 87.3881 40.1474 87.3881C40.1305 87.3881 40.1137 87.3881 40.0969 87.3881V87.5566ZM40.0969 87.826H40.0295V87.3545C40.0632 87.3545 40.1137 87.3376 40.1642 87.3376C40.2316 87.3376 40.2821 87.3545 40.3158 87.3713C40.3495 87.3881 40.3663 87.4218 40.3663 87.4723C40.3663 87.5397 40.3326 87.5734 40.2653 87.5902C40.299 87.5902 40.3326 87.6408 40.3495 87.7081C40.3663 87.7755 40.3663 87.8092 40.3832 87.826H40.299C40.2821 87.8092 40.2821 87.7755 40.2653 87.7081C40.2484 87.6408 40.2316 87.6239 40.1642 87.6239H40.1137L40.0969 87.826ZM40.1642 87.2197C39.979 87.2197 39.8274 87.3881 39.8274 87.5734C39.8274 87.7755 39.979 87.9271 40.1642 87.9271C40.3495 87.9271 40.5011 87.7755 40.5011 87.5734C40.5179 87.3713 40.3663 87.2197 40.1642 87.2197C40.1642 87.2197 40.1811 87.2197 40.1642 87.2197ZM40.1811 87.1523C40.4169 87.1523 40.6021 87.3376 40.6021 87.5734C40.6021 87.8092 40.4169 87.9944 40.1811 87.9944C39.9453 87.9944 39.76 87.8092 39.76 87.5734C39.7432 87.3376 39.9453 87.1523 40.1811 87.1523C40.1811 87.1523 40.1642 87.1523 40.1811 87.1523Z" fill="#73BA25"/>
</svg>
