<svg data-slug-id="parameters" xmlns="http://www.w3.org/2000/svg" viewBox="0 0 48 48">
    <path d="M41.6337 47.9488H6.33264V0H30.72L32.9263 7.12411L41.6337 10.9472V47.9488Z" fill="#0078D4"/>
    <path d="M41.6341 10.9135H30.7204V0L41.6341 10.9135Z" fill="#50E6FF"/>
    <path d="M33.9961 18.081C33.9961 17.281 33.3476 16.6326 32.5476 16.6326H15.2592C14.4592 16.6326 13.8108 17.281 13.8108 18.081C13.8108 18.881 14.4592 19.5294 15.2592 19.5294H32.5476C33.3476 19.5294 33.9961 18.881 33.9961 18.081Z" fill="white"/>
    <path d="M25.28 18.079C25.28 19.6706 26.5684 20.959 28.16 20.959C29.7516 20.959 31.04 19.6706 31.04 18.079C31.04 16.4875 29.7516 15.1991 28.16 15.1991C26.5684 15.1907 25.28 16.4875 25.28 18.079Z" fill="#50E6FF"/>
    <path d="M33.9961 26.6121C33.9961 25.8121 33.3476 25.1637 32.5476 25.1637H15.2592C14.4592 25.1637 13.8108 25.8121 13.8108 26.6121C13.8108 27.4121 14.4592 28.0605 15.2592 28.0605H32.5476C33.3476 28.0605 33.9961 27.4121 33.9961 26.6121Z" fill="white"/>
    <path d="M16.699 26.6022C16.699 28.1938 17.9874 29.4822 19.579 29.4822C21.1706 29.4822 22.459 28.1938 22.459 26.6022C22.459 25.0107 21.1706 23.7223 19.579 23.7223C17.9874 23.7223 16.699 25.0107 16.699 26.6022Z" fill="#50E6FF"/>
    <path d="M33.9961 35.3073C33.9961 34.5073 33.3476 33.8589 32.5476 33.8589H15.2592C14.4592 33.8589 13.8108 34.5073 13.8108 35.3073C13.8108 36.1073 14.4592 36.7557 15.2592 36.7557H32.5476C33.3476 36.7473 33.9961 36.0989 33.9961 35.3073Z" fill="white"/>
    <path d="M22.4255 35.3014C22.4255 36.893 23.714 38.1814 25.3055 38.1814C26.8971 38.1814 28.1855 36.893 28.1855 35.3014C28.1855 33.7099 26.8971 32.4214 25.3055 32.4214C23.7224 32.4214 22.4255 33.7099 22.4255 35.3014Z" fill="#50E6FF"/>
</svg>
