<svg data-slug-id="parameter01" viewBox="0 0 49 49" xmlns="http://www.w3.org/2000/svg">
<path d="M43.0287 13.8126H5.50375C2.78282 13.8126 0.600098 11.6298 0.600098 8.93881C0.600098 6.21788 2.78282 4.03516 5.50375 4.03516H43.0586C45.7496 4.03516 47.9622 6.21788 47.9622 8.93881C47.9323 11.6298 45.7496 13.8126 43.0287 13.8126Z" fill="#50E6FF"/>
<path d="M27.092 13.8151H21.2914C18.6003 13.8151 16.3877 11.6324 16.3877 8.91147C16.3877 6.22044 18.5704 4.00781 21.2914 4.00781H27.092C29.783 4.00781 31.9957 6.19054 31.9957 8.91147C31.9658 11.6324 29.783 13.8151 27.092 13.8151Z" fill="#0078D4"/>
<path d="M43.0287 29.6315H5.50375C2.78282 29.6315 0.600098 27.4488 0.600098 24.7279C0.600098 22.0368 2.78282 19.8242 5.50375 19.8242H43.0586C45.7496 19.8242 47.9622 22.0069 47.9622 24.7279C47.9323 27.4488 45.7496 29.6315 43.0287 29.6315Z" fill="#50E6FF"/>
<path d="M11.4539 29.6315H5.50375C2.78282 29.6315 0.600098 27.4488 0.600098 24.7279C0.600098 22.0368 2.78282 19.8242 5.50375 19.8242H11.4539C14.145 19.8242 16.3576 22.0069 16.3576 24.7279C16.3277 27.4488 14.145 29.6315 11.4539 29.6315Z" fill="#0078D4"/>
<path d="M5.50375 35.4922H43.0586C45.7496 35.4922 47.9622 37.6749 47.9622 40.3958C47.9622 43.0869 45.7795 45.2995 43.0586 45.2995H5.50375C2.81272 45.2995 0.600098 43.1168 0.600098 40.3958C0.600098 37.6749 2.78282 35.4922 5.50375 35.4922Z" fill="#50E6FF"/>
<path d="M37.0785 35.4922H43.0286C45.7197 35.4922 47.9323 37.6749 47.9323 40.3958C47.9323 43.0869 45.7496 45.2995 43.0286 45.2995H37.0785C34.3874 45.2995 32.1748 43.1168 32.1748 40.3958C32.2047 37.6749 34.3874 35.4922 37.0785 35.4922Z" fill="#0078D4"/>
</svg>
