<svg data-slug-id="parameter02" viewBox="0 0 49 49" xmlns="http://www.w3.org/2000/svg">
<path d="M40.6069 3.3159L22.4614 30.1406L25.4092 32.1346L43.5547 5.30991L40.6069 3.3159Z" fill="#50E6FF"/>
<path d="M40.4831 11.3666C43.1365 11.3666 45.2875 9.21562 45.2875 6.56222C45.2875 3.90882 43.1365 1.75781 40.4831 1.75781C37.8297 1.75781 35.6787 3.90882 35.6787 6.56222C35.6787 9.21562 37.8297 11.3666 40.4831 11.3666Z" fill="#1F1D21"/>
<path d="M24.1568 25.5141C28.116 25.5141 31.3189 28.6725 31.4079 32.5872H35.9899C35.8564 26.1369 30.6072 20.9766 24.1568 20.9766C17.7064 20.9766 12.4572 26.1369 12.3237 32.5427H16.9057C16.9947 28.628 20.1976 25.5141 24.1568 25.5141Z" fill="#1F1D21"/>
<path d="M24.1569 25.5117C20.1977 25.5117 16.9947 28.6702 16.9058 32.5849H18.8631C18.9966 29.7378 21.3098 27.4691 24.1569 27.4691C27.0039 27.4691 29.3616 29.7378 29.4506 32.5849H31.408C31.2745 28.6257 28.0716 25.5117 24.1569 25.5117Z" fill="#E7E8EA"/>
<path d="M24.1565 27.4727C21.3095 27.4727 18.9518 29.7414 18.8628 32.5885H29.4948C29.3613 29.7414 27.0036 27.4727 24.1565 27.4727Z" fill="#1F1D21"/>
<path d="M40.6069 3.3159L22.4614 30.1406L25.4092 32.1346L43.5547 5.30991L40.6069 3.3159Z" fill="#0078D4"/>
<path d="M40.4831 11.3666C43.1365 11.3666 45.2875 9.21562 45.2875 6.56222C45.2875 3.90882 43.1365 1.75781 40.4831 1.75781C37.8297 1.75781 35.6787 3.90882 35.6787 6.56222C35.6787 9.21562 37.8297 11.3666 40.4831 11.3666Z" fill="#0078D4"/>
<path d="M24.1568 25.5141C28.116 25.5141 31.3189 28.6725 31.4079 32.5872H35.9899C35.8564 26.1369 30.6072 20.9766 24.1568 20.9766C17.7064 20.9766 12.4572 26.1369 12.3237 32.5427H16.9057C16.9947 28.628 20.1976 25.5141 24.1568 25.5141Z" fill="#50E6FF"/>
<path d="M24.1569 25.5117C20.1977 25.5117 16.9947 28.6702 16.9058 32.5849H18.8631C18.9966 29.7378 21.3098 27.4691 24.1569 27.4691C27.0039 27.4691 29.3616 29.7378 29.4506 32.5849H31.408C31.2745 28.6257 28.0716 25.5117 24.1569 25.5117Z" fill="#0078D4"/>
<path d="M24.1565 27.4727C21.3095 27.4727 18.9518 29.7414 18.8628 32.5885H29.4948C29.3613 29.7414 27.0036 27.4727 24.1565 27.4727Z" fill="#50E6FF"/>
<path d="M47.7944 34.273V31.8555L1.41304 31.8555V34.273L47.7944 34.273Z" fill="#0078D4"/>
<path d="M47.7989 40.6562H38.0391V42.9843H47.7989V40.6562Z" fill="#0078D4"/>
<path d="M44.084 46.6973V36.9375H41.756V46.6973H44.084Z" fill="#0078D4"/>
<path d="M11.169 40.6484H1.40918V42.9765H11.169V40.6484Z" fill="#0078D4"/>
</svg>
