<svg data-slug-id="partial-circle-lightning-blue" xmlns="http://www.w3.org/2000/svg" viewBox="0 0 48 48">
<path d="M25.2748 2.5564V7.69781C29.5551 7.98485 33.447 9.68177 36.4863 12.3327L40.0996 8.71934C36.1401 5.13132 30.9734 2.85188 25.2748 2.5564Z" fill="#50E6FF"/>
<path d="M6.10209 10.5261C2.54785 14.5025 0.293735 19.6608 0.0151367 25.3509H5.0468C5.33384 21.0707 7.04764 17.1703 9.70699 14.131L6.10209 10.5261Z" fill="#0078D4"/>
<path d="M22.7421 2.5481C17.0519 2.84358 11.8852 5.12302 7.91724 8.70259L11.5306 12.3159C14.5698 9.66502 18.4618 7.96811 22.7421 7.68951V2.5481Z" fill="#0078D4"/>
<path d="M0.0236816 27.8835C0.33605 33.5484 2.61549 38.6898 6.18662 42.6324L9.69021 39.1288C7.03086 36.0811 5.3255 32.1723 5.0469 27.8835H0.0236816V27.8835Z" fill="#0078D7"/>
<path d="M47.9764 27.8835H42.9532C42.6746 32.1723 40.9777 36.0727 38.3268 39.1204L41.8304 42.6239C45.3931 38.6729 47.6641 33.5399 47.9764 27.8835Z" fill="#50E6FF"/>
<path d="M41.9147 10.5427L38.3098 14.1476C40.9607 17.1869 42.6661 21.0704 42.9531 25.3507H47.9848C47.7062 19.6689 45.4605 14.5106 41.9147 10.5427Z" fill="#50E6FF"/>
<path d="M32.0625 26.6593H26.0093V16.655L15.9375 26.7268H21.9907V36.731L32.0625 26.6593Z" fill="#0078D4"/>
</svg>
