<svg data-slug-id="partners" xmlns="http://www.w3.org/2000/svg" viewBox="0 0 48 29">
    <path fill-rule="evenodd" clip-rule="evenodd" d="M1.88979 13.3191C1.88979 10.0845 4.34651 7.61096 7.55907 7.61096C10.7717 7.61096 13.2284 10.2747 13.2284 13.3191C13.2284 15.2218 12.4724 16.7439 11.1496 17.6953C10.3937 18.4564 9.25988 19.0272 7.93702 19.0272H7.55907H7.18119C6.0473 19.0272 4.91344 18.4564 3.9685 17.6953C2.64573 16.5537 1.88979 15.0315 1.88979 13.3191ZM8.88186 28.5405H0C0 24.3545 3.40157 20.9297 7.55907 20.9297C8.69292 20.9297 9.63776 21.12 10.5827 21.6907C9.44882 23.5934 8.88186 26.0669 8.88186 28.5405Z" fill="#1A1A1F"/>
    <path fill-rule="evenodd" clip-rule="evenodd" d="M40.441 19.0271H40.063C38.9291 19.0271 37.7953 18.4562 37.0394 17.6952C36.2835 16.9341 35.7166 15.7925 35.7166 14.4605C35.7166 11.7968 37.7953 9.7038 40.441 9.7038C43.0866 9.7038 45.1653 11.7968 45.1653 14.4605C45.1653 15.6022 44.5984 16.7438 43.8426 17.6952C43.0866 18.4562 41.9528 19.0271 40.819 19.0271H40.441ZM37.4174 21.5005C38.3622 21.12 39.3072 20.9297 40.441 20.9297C44.5984 20.9297 48 24.3545 48 28.5405H39.1181H37.2284H35.3387H32.8819C32.8819 26.8281 33.4489 25.3059 34.3937 23.974L34.3942 23.9732C34.7721 23.4027 35.1499 22.8322 35.7166 22.4518C36.2835 22.0713 36.8504 21.6907 37.4174 21.5005Z" fill="#1A1A1F"/>
    <path d="M15.6852 20.7395C15.3072 21.1201 14.7403 21.6909 14.5513 22.2617C14.1734 22.8325 13.7954 23.4033 13.6065 23.9741C13.0395 25.306 12.6616 26.8282 12.6616 28.5407H15.1183H17.008H18.8978H29.1025C29.1025 25.4963 30.2363 22.8325 32.3151 20.7395C30.2363 18.4563 27.2127 17.1244 24.0001 17.1244C20.7875 17.1244 17.7639 18.4563 15.6852 20.7395Z" fill="#0078D4"/>
    <path d="M19.6537 13.8897C20.7875 14.6509 22.1104 15.0314 23.4332 15.2217C23.6222 15.2217 23.8111 15.2217 24.0001 15.2217C24.1891 15.2217 24.3781 15.2217 24.567 15.2217C25.8899 15.0314 27.2127 14.6509 28.3466 13.8897C30.2363 12.5578 31.5591 10.2746 31.5591 7.6108C31.5591 4.56649 29.6694 1.90271 27.2127 0.76108C26.2678 0.380541 25.134 0 24.0001 0C22.8663 0 21.9214 0.19027 20.7875 0.76108C18.1419 1.90271 16.4411 4.56649 16.4411 7.6108C16.4411 10.2746 17.7639 12.5578 19.6537 13.8897Z" fill="#0078D4"/>
</svg>
