<svg data-slug-id="people-frame-identity-snapshot-id-photo" xmlns="http://www.w3.org/2000/svg" viewBox="0 0 48 48">
    <path d="M37 12.0526H48V7.05994H37V12.0526Z" fill="#50E6FF"/>
    <path d="M37 5.06287H48V0.0701904H37V5.06287Z" fill="#50E6FF"/>
    <path d="M0 0H48V29.9561H0V0Z" fill="#50E6FF"/>
    <path d="M13 33.2714C13 27.0315 18.069 21.9756 24.3318 21.9756C30.5945 21.9756 35.6635 27.0315 35.6635 33.2714H13Z" fill="#0078D4"/>
    <path d="M30.8449 13.4596C30.8449 16.9953 27.9699 19.8592 24.4225 19.8592C20.875 19.8592 18 16.9953 18 13.4596C18 9.9238 20.875 7.05994 24.4225 7.05994C27.9699 7.05994 30.8449 9.9238 30.8449 13.4596Z" fill="#0078D4"/>
    <path d="M0 32.0234H48" stroke="#50E6FF" stroke-width="4"/>
    <path d="M8 4.06433H4V13.0512H8V4.06433Z" fill="#0078D4"/>
    <path d="M4 4.06432V8.05847H13V4.06432H4Z" fill="#0078D4"/>
    <path d="M40 4.06433H44V13.0512H40V4.06433Z" fill="#0078D4"/>
    <path d="M44 4.06432L44 8.05847L35 8.05847L35 4.06432L44 4.06432Z" fill="#0078D4"/>
    <path d="M40 48H44V39.0132H40V48Z" fill="#0078D4"/>
    <path d="M44 48V44.0059H35V48H44Z" fill="#0078D4"/>
    <path d="M8 48L4 48L4 39.0132L8 39.0132L8 48Z" fill="#0078D4"/>
    <path d="M4 48L4 44.0059L13 44.0059L13 48L4 48Z" fill="#0078D4"/>
    <path d="M36 34.0205H12V38.0147H36V34.0205Z" fill="#0078D4"/>
</svg>
