<svg data-slug-id="person-cloud-dots" xmlns="http://www.w3.org/2000/svg" viewBox="0 0 48 48">
    <path d="M47.6293 26.9698C47.6462 26.8602 47.6799 26.7507 47.6883 26.6579C47.8148 25.9919 47.8739 25.3175 47.8739 24.6263C47.8739 18.6661 43.0502 13.8272 37.0882 13.8272C36.2533 13.8272 35.4522 13.92 34.6764 14.1139C32.1971 10.2191 27.8795 7.66479 22.9462 7.66479C15.2807 7.66479 9.06571 13.8778 9.06571 21.5493C9.06571 21.7347 9.06571 21.9286 9.08258 22.1141C8.39108 21.878 7.63212 21.7516 6.83943 21.7516C3.06993 21.7516 0.00878906 24.8117 0.00878906 28.58C0.00878906 32.1291 2.72418 35.0291 6.15636 35.3747L37.0629 35.4337C41.1191 35.4337 44.6441 33.1913 46.5077 29.9035C46.5583 29.8108 46.6174 29.7181 46.668 29.6169C46.9631 29.0184 47.3763 28.1248 47.6293 26.9698Z" fill="#50E6FF"/>
    <path d="M15.0947 32.7363C15.0947 27.8384 19.0582 23.8762 23.9577 23.8762C28.8572 23.8762 32.8207 27.8384 32.8207 32.7363H15.0947V32.7363Z" fill="#0078D7"/>
    <path d="M29.009 17.4509C29.009 20.2244 26.7575 22.4753 23.983 22.4753C21.2086 22.4753 18.957 20.2244 18.957 17.4509C18.957 14.6774 21.2086 12.4265 23.983 12.4265C26.7575 12.4265 29.009 14.6774 29.009 17.4509Z" fill="#0078D7"/>
    <path d="M23.8986 5.05759C25.2912 5.05759 26.4201 3.92907 26.4201 2.53697C26.4201 1.14488 25.2912 0.0163574 23.8986 0.0163574C22.5061 0.0163574 21.3772 1.14488 21.3772 2.53697C21.3772 3.92907 22.5061 5.05759 23.8986 5.05759Z" fill="#0078D7"/>
    <path d="M23.8986 48C25.2912 48 26.4201 46.8715 26.4201 45.4794C26.4201 44.0873 25.2912 42.9587 23.8986 42.9587C22.5061 42.9587 21.3772 44.0873 21.3772 45.4794C21.3772 46.8715 22.5061 48 23.8986 48Z" fill="#0078D7"/>
    <path d="M42.915 35.3904C44.3075 35.3904 45.4364 34.2618 45.4364 32.8697C45.4364 31.4776 44.3075 30.3491 42.915 30.3491C41.5224 30.3491 40.3936 31.4776 40.3936 32.8697C40.3936 34.2618 41.5224 35.3904 42.915 35.3904Z" fill="#0078D7"/>
    <path d="M4.98359 35.3904C6.37614 35.3904 7.50503 34.2618 7.50503 32.8697C7.50503 31.4776 6.37614 30.3491 4.98359 30.3491C3.59104 30.3491 2.46216 31.4776 2.46216 32.8697C2.46216 34.2618 3.59104 35.3904 4.98359 35.3904Z" fill="#0078D7"/>
    <path d="M42.915 17.6867C44.3075 17.6867 45.4364 16.5582 45.4364 15.1661C45.4364 13.774 44.3075 12.6455 42.915 12.6455C41.5224 12.6455 40.3936 13.774 40.3936 15.1661C40.3936 16.5582 41.5224 17.6867 42.915 17.6867Z" fill="#0078D7"/>
    <path d="M4.98359 17.6867C6.37614 17.6867 7.50503 16.5582 7.50503 15.1661C7.50503 13.774 6.37614 12.6455 4.98359 12.6455C3.59104 12.6455 2.46216 13.774 2.46216 15.1661C2.46216 16.5582 3.59104 17.6867 4.98359 17.6867Z" fill="#0078D7"/>
</svg>
