<svg data-slug-id="person-grid" xmlns="http://www.w3.org/2000/svg" viewBox="0 0 48 48">
    <path d="M37.8638 10.1879L48 10.1879V0.0563259L37.8638 0.0563259V10.1879Z" fill="#50E6FF"/>
    <path d="M25.2966 10.1879L35.4327 10.1879V0.0563259L25.2966 0.0563259V10.1879Z" fill="#50E6FF"/>
    <path d="M12.5999 10.1879L22.7361 10.1879V0.0563259L12.5999 0.0563259L12.5999 10.1879Z" fill="#50E6FF"/>
    <path d="M-4.48227e-05 10.141L10.094 10.141L10.094 0.0515594L-4.48227e-05 0.0515594L-4.48227e-05 10.141Z" fill="#50E6FF"/>
    <path d="M37.8633 22.6838H47.9995V12.5523L37.8633 12.5523V22.6838Z" fill="#50E6FF"/>
    <path d="M25.2961 22.6838H35.4323V12.5523L25.2961 12.5523V22.6838Z" fill="#50E6FF"/>
    <path d="M12.5999 22.6838H22.7361V12.5523L12.5999 12.5523L12.5999 22.6838Z" fill="#50E6FF"/>
    <path d="M-4.48227e-05 22.6409H10.094L10.094 12.5514L-4.48227e-05 12.5514L-4.48227e-05 22.6409Z" fill="#50E6FF"/>
    <path d="M37.8638 35.3751H48V25.2436H37.8638V35.3751Z" fill="#50E6FF"/>
    <path d="M25.2966 35.3751H35.4327V25.2436H25.2966V35.3751Z" fill="#50E6FF"/>
    <path d="M12.5999 35.3751H22.7361V25.2436H12.5999L12.5999 35.3751Z" fill="#50E6FF"/>
    <path d="M-4.48227e-05 35.3282H10.094L10.094 25.2388H-4.48227e-05L-4.48227e-05 35.3282Z" fill="#50E6FF"/>
    <path d="M37.8633 48H47.9995V37.8685H37.8633V48Z" fill="#50E6FF"/>
    <path d="M25.2961 48H35.4323V37.8685H25.2961V48Z" fill="#50E6FF"/>
    <path d="M12.5999 48H22.7361V37.8685H12.5999L12.5999 48Z" fill="#50E6FF"/>
    <path d="M-4.48227e-05 47.957H10.094L10.094 37.8676H-4.48227e-05L-4.48227e-05 47.957Z" fill="#50E6FF"/>
    <path d="M7.578 42.959C7.578 33.8465 14.959 26.4689 24.0756 26.4689C33.1923 26.4689 40.5732 33.8465 40.5732 42.959H7.578Z" fill="#0078D7"/>
    <path d="M33.4792 14.5128C33.4792 19.6754 29.2916 23.8611 24.1266 23.8611C18.9616 23.8611 14.774 19.6754 14.774 14.5128C14.774 9.35017 18.9616 5.16449 24.1266 5.16449C29.2916 5.16449 33.4792 9.35017 33.4792 14.5128Z" fill="#0078D7"/>
</svg>
