<svg data-slug-id="personalize-glyph" xmlns="http://www.w3.org/2000/svg" viewBox="0 0 49 49">
    <path d="M29.2054 18.1137C29.2054 20.9079 26.9554 23.1532 24.1554 23.1532C21.3554 23.1532 19.1054 20.9079 19.1054 18.1137C19.1054 15.3195 21.3554 13.0742 24.1554 13.0742C26.9554 13.0742 29.2054 15.3195 29.2054 18.1137Z" fill="#50E6FF"/>
    <path d="M12.7558 38.2715C12.7558 32.0346 17.8058 26.9452 24.1058 26.9452C30.3557 26.9452 35.4557 32.0346 35.4557 38.2715H12.7558Z" fill="#50E6FF"/>
    <path d="M12.7552 0.549896L0.155273 0.5V13.1735H5.15526V5.58938H12.7552V0.549896Z" fill="#0078D4"/>
    <path d="M48.1049 13.1245L48.1549 0.550781H35.455V5.54037H43.0549V13.1245H48.1049Z" fill="#0078D4"/>
    <path d="M35.5059 48.4978H48.1558V35.8242H43.1558V43.4084H35.5059V48.4978Z" fill="#0078D4"/>
    <path d="M0.205273 35.875L0.155273 48.4488H12.8552V43.5091H5.25526V35.875H0.205273Z" fill="#0078D4"/>
</svg>
