<svg data-slug-id="phone03" viewBox="0 0 49 49" xmlns="http://www.w3.org/2000/svg">
<path d="M12.2068 5.83566C12.2068 5.20419 11.6931 4.68218 11.053 4.68218H10.3792L9.70535 1.66797H3.36319L2.68096 4.6906H1.99031C1.35862 4.6906 0.836426 5.20419 0.836426 5.84408V14.912C0.836426 15.5434 1.3502 16.0654 1.99031 16.0654H2.68096L3.36319 19.1807H9.70535L10.3876 16.0654H11.0782C11.3814 16.0654 11.6846 15.9392 11.8952 15.7202C12.1058 15.5013 12.2153 15.2235 12.2068 14.9204V14.9035V5.83566V5.83566Z" fill="#0078D4"/>
<path d="M47.0343 11.4609H28.1089C27.7551 11.4609 27.4688 11.7472 27.4688 12.1008V48.1029C27.4688 48.4566 27.7551 48.7428 28.1089 48.7428H47.0343C47.388 48.7428 47.6744 48.4566 47.6744 48.1029V12.0924C47.666 11.7472 47.3796 11.4609 47.0343 11.4609Z" fill="#0078D4"/>
<path d="M23.5689 42.7383H18.6333V44.4222H23.5689V42.7383Z" fill="#50E6FF"/>
<path d="M15.0116 42.7383H10.834V44.4222H15.0116V42.7383Z" fill="#50E6FF"/>
<path d="M7.13636 44.4234H4.18848V41.4766H5.87298V42.7395H7.13636V44.4234Z" fill="#50E6FF"/>
<path d="M43.5216 8.06013H41.8371V6.7972H40.5737V5.11328H43.5216V8.06013Z" fill="#50E6FF"/>
<path d="M5.87298 21.582H4.18848V24.251H5.87298V21.582Z" fill="#50E6FF"/>
<path d="M5.87298 34.3789H4.18848V38.555H5.87298V34.3789Z" fill="#50E6FF"/>
<path d="M5.87298 26.8594H4.18848V31.0355H5.87298V26.8594Z" fill="#50E6FF"/>
<path d="M37.2303 5.11328H33.0527V6.7972H37.2303V5.11328Z" fill="#50E6FF"/>
<path d="M14.0676 5.41639V6.7972H15.71V5.11328H14.0508C14.0592 5.21432 14.0676 5.31535 14.0676 5.41639Z" fill="#50E6FF"/>
<path d="M22.1873 5.11328H18.0098V6.7972H22.1873V5.11328Z" fill="#50E6FF"/>
<path d="M29.7088 5.11328H25.5312V6.7972H29.7088V5.11328Z" fill="#50E6FF"/>
<path d="M10.1769 14.4488H2.89146C2.63879 14.4488 2.42822 14.2384 2.42822 13.9858V6.73651C2.42822 6.48393 2.63879 6.27344 2.89146 6.27344H10.1601C10.4128 6.27344 10.6233 6.48393 10.6233 6.73651V14.0026C10.6233 14.2636 10.4128 14.4488 10.1769 14.4488Z" fill="#50E6FF"/>
<path d="M35.3438 46.6625H39.7993V45.1133H35.3438V46.6625Z" fill="#50E6FF"/>
<path d="M38.3505 14.2553C38.3505 14.6679 38.0389 14.9794 37.6262 14.9794C37.2135 14.9794 36.9019 14.6679 36.9019 14.2553C36.9019 13.8428 37.2135 13.5312 37.6262 13.5312C38.0389 13.5312 38.3505 13.8344 38.3505 14.2553Z" fill="#50E6FF"/>
<path d="M28.917 43.1431H46.2169V17.0508H28.917V43.1431Z" fill="#50E6FF"/>
</svg>
