<svg data-slug-id="phone-watch-sync" xmlns="http://www.w3.org/2000/svg" viewBox="0 0 48 48">
    <path d="M12.1873 4.93332C12.1873 4.30185 11.6735 3.77983 11.0334 3.77983H10.3596L9.68582 0.765625H3.34365L2.66143 3.78825H1.97078C1.33909 3.78825 0.816895 4.30185 0.816895 4.94173V14.0096C0.816895 14.6411 1.33067 15.1631 1.97078 15.1631H2.66143L3.34365 18.2783H9.68582L10.368 15.1631H11.0587C11.3619 15.1631 11.6651 15.0368 11.8757 14.8179C12.0862 14.599 12.1957 14.3211 12.1873 14.018V14.0012V4.93332Z" fill="#0078D4"/>
    <path d="M47.0148 10.5586H28.0893C27.7356 10.5586 27.4492 10.8449 27.4492 11.1985V47.2006C27.4492 47.5542 27.7356 47.8405 28.0893 47.8405H47.0148C47.3685 47.8405 47.6549 47.5542 47.6549 47.2006V11.1901C47.6464 10.8449 47.3601 10.5586 47.0148 10.5586Z" fill="#0078D4"/>
    <path d="M23.5494 41.8359H18.6138V43.5199H23.5494V41.8359Z" fill="#50E6FF"/>
    <path d="M14.992 41.8359H10.8145V43.5199H14.992V41.8359Z" fill="#50E6FF"/>
    <path d="M7.11683 43.5211H4.16895V40.5742H5.85345V41.8372H7.11683V43.5211Z" fill="#50E6FF"/>
    <path d="M43.5021 7.15584H41.8176V5.8929H40.5542V4.20898H43.5021V7.15584Z" fill="#50E6FF"/>
    <path d="M5.85345 20.6777H4.16895V23.3467H5.85345V20.6777Z" fill="#50E6FF"/>
    <path d="M5.85345 33.4766H4.16895V37.6527H5.85345V33.4766Z" fill="#50E6FF"/>
    <path d="M5.85345 25.957H4.16895V30.1331H5.85345V25.957Z" fill="#50E6FF"/>
    <path d="M37.2108 4.20898H33.0332V5.8929H37.2108V4.20898Z" fill="#50E6FF"/>
    <path d="M14.0486 4.51209V5.8929H15.691V4.20898H14.0317C14.0402 4.31002 14.0486 4.41105 14.0486 4.51209Z" fill="#50E6FF"/>
    <path d="M22.1678 4.20898H17.9902V5.8929H22.1678V4.20898Z" fill="#50E6FF"/>
    <path d="M29.6893 4.20898H25.5117V5.8929H29.6893V4.20898Z" fill="#50E6FF"/>
    <path d="M10.1574 13.5465H2.87193C2.61925 13.5465 2.40869 13.336 2.40869 13.0834V5.83417C2.40869 5.58158 2.61925 5.37109 2.87193 5.37109H10.1406C10.3932 5.37109 10.6038 5.58158 10.6038 5.83417V13.1003C10.6038 13.3613 10.3932 13.5465 10.1574 13.5465Z" fill="#50E6FF"/>
    <path d="M35.3242 45.7601H39.7797V44.2109H35.3242V45.7601Z" fill="#50E6FF"/>
    <path d="M38.331 13.353C38.331 13.7655 38.0194 14.0771 37.6067 14.0771C37.194 14.0771 36.8823 13.7655 36.8823 13.353C36.8823 12.9404 37.194 12.6289 37.6067 12.6289C38.0194 12.6289 38.331 12.932 38.331 13.353Z" fill="#50E6FF"/>
    <path d="M28.8975 42.2407H46.1973V16.1484H28.8975V42.2407Z" fill="#50E6FF"/>
</svg>
