<svg data-slug-id="phone02" viewBox="0 0 49 49" xmlns="http://www.w3.org/2000/svg">
<path d="M47.0343 11.4609H28.1089C27.7551 11.4609 27.4688 11.7472 27.4688 12.1008V48.1029C27.4688 48.4566 27.7551 48.7428 28.1089 48.7428H47.0343C47.388 48.7428 47.6744 48.4566 47.6744 48.1029V12.0924C47.666 11.7472 47.3796 11.4609 47.0343 11.4609Z" fill="#0078D4"/>
<path d="M23.5694 42.7383H18.6338V44.4222H23.5694V42.7383Z" fill="#0078D4"/>
<path d="M15.0116 42.7383H10.834V44.4222H15.0116V42.7383Z" fill="#0078D4"/>
<path d="M7.13636 44.4234H4.18848V41.4766H5.87298V42.7395H7.13636V44.4234Z" fill="#0078D4"/>
<path d="M43.5221 8.06013H41.8376V6.7972H40.5742V5.11328H43.5221V8.06013Z" fill="#0078D4"/>
<path d="M5.87298 21.582H4.18848V24.251H5.87298V21.582Z" fill="#0078D4"/>
<path d="M5.87298 34.3789H4.18848V38.555H5.87298V34.3789Z" fill="#0078D4"/>
<path d="M5.87298 26.8594H4.18848V31.0355H5.87298V26.8594Z" fill="#0078D4"/>
<path d="M37.2303 5.11328H33.0527V6.7972H37.2303V5.11328Z" fill="#0078D4"/>
<path d="M22.1883 5.11328H18.0107V6.7972H22.1883V5.11328Z" fill="#0078D4"/>
<path d="M29.7088 5.11328H25.5312V6.7972H29.7088V5.11328Z" fill="#0078D4"/>
<path d="M35.3438 46.6625H39.7993V45.1133H35.3438V46.6625Z" fill="#50E6FF"/>
<path d="M38.3505 14.2553C38.3505 14.6679 38.0389 14.9794 37.6262 14.9794C37.2135 14.9794 36.9019 14.6679 36.9019 14.2553C36.9019 13.8428 37.2135 13.5312 37.6262 13.5312C38.0389 13.5312 38.3505 13.8344 38.3505 14.2553Z" fill="#50E6FF"/>
<path d="M28.9175 43.1431H46.2174V17.0508H28.9175V43.1431Z" fill="#50E6FF"/>
<path d="M16.5614 7.32872V6.01527H14.7506V3.78408H12.6786V1.95703H11.3563V3.78408H9.44438V1.95703H8.12204V3.78408H6.2017V1.95703H4.88779V3.78408H2.71477V6.01527H0.895508V7.32872H2.71477V9.24838H0.895508V10.5618H2.71477V12.4731H0.895508V13.7865H2.71477V15.7904H4.88779V17.7185H6.21012V15.7904H8.13046V17.7185H9.4528V15.7904H11.3647V17.7185H12.687V15.7904H14.759V13.7865H16.5698V12.4731H14.759V10.5618H16.5698V9.24838H14.759V7.32872H16.5614Z" fill="#0078D4"/>
<path d="M12.7037 5.81641H4.76123V13.7476H12.7037V5.81641Z" fill="#50E6FF"/>
</svg>
