<svg data-slug-id="phone04" viewBox="0 0 49 49" xmlns="http://www.w3.org/2000/svg">
<path d="M33.5255 48.9022H14.1752C12.5197 48.9022 11.1768 47.5593 11.1768 45.9038V3.90075C11.1768 2.24529 12.5197 0.902344 14.1752 0.902344H33.5255C35.181 0.902344 36.5239 2.24529 36.5239 3.90075V45.8954C36.5239 47.5593 35.181 48.9022 33.5255 48.9022Z" fill="#0078D4"/>
<path d="M25.3082 43.6477C25.3082 44.3572 24.7254 44.94 24.0159 44.94C23.3064 44.94 22.7236 44.3572 22.7236 43.6477C22.7236 42.9298 23.3064 42.3555 24.0159 42.3555C24.7338 42.3555 25.3082 42.9383 25.3082 43.6477Z" fill="#50E6FF"/>
<path d="M26.4814 6.63021H21.3884C21.0421 6.63021 20.7549 6.34304 20.7549 5.99675C20.7549 5.65045 21.0421 5.36328 21.3884 5.36328H26.473C26.8193 5.36328 27.1065 5.65045 27.1065 5.99675C27.1065 6.34304 26.8277 6.63021 26.4814 6.63021Z" fill="#50E6FF"/>
<path d="M20.0285 16.0743C20.0285 17.4595 18.9051 18.5744 17.5284 18.5744C16.1432 18.5744 15.0283 17.451 15.0283 16.0743C15.0283 14.6891 16.1517 13.5742 17.5284 13.5742C18.9136 13.5742 20.0285 14.6891 20.0285 16.0743Z" fill="white"/>
<path d="M26.4992 16.0743C26.4992 17.4595 25.3758 18.5744 23.9991 18.5744C22.6139 18.5744 21.499 17.451 21.499 16.0743C21.499 14.6891 22.6224 13.5742 23.9991 13.5742C25.3758 13.5742 26.4992 14.6891 26.4992 16.0743Z" fill="#50E6FF"/>
<path d="M32.7824 16.0743C32.7824 17.4595 31.6591 18.5744 30.2823 18.5744C28.8971 18.5744 27.7822 17.451 27.7822 16.0743C27.7822 14.6891 28.9056 13.5742 30.2823 13.5742C31.6591 13.5742 32.7824 14.6891 32.7824 16.0743Z" fill="#50E6FF"/>
<path d="M20.0285 22.5743C20.0285 23.9595 18.9051 25.0744 17.5284 25.0744C16.1432 25.0744 15.0283 23.951 15.0283 22.5743C15.0283 21.1891 16.1517 20.0742 17.5284 20.0742C18.9136 20.0742 20.0285 21.1891 20.0285 22.5743Z" fill="white"/>
<path d="M26.4992 22.5743C26.4992 23.9595 25.3758 25.0744 23.9991 25.0744C22.6139 25.0744 21.499 23.951 21.499 22.5743C21.499 21.1891 22.6224 20.0742 23.9991 20.0742C25.3758 20.0742 26.4992 21.1891 26.4992 22.5743Z" fill="white"/>
<path d="M32.7824 22.5743C32.7824 23.9595 31.6591 25.0744 30.2823 25.0744C28.8971 25.0744 27.7822 23.951 27.7822 22.5743C27.7822 21.1891 28.9056 20.0742 30.2823 20.0742C31.6591 20.0742 32.7824 21.1891 32.7824 22.5743Z" fill="#50E6FF"/>
<path d="M20.0285 28.8243C20.0285 30.2095 18.9051 31.3244 17.5284 31.3244C16.1432 31.3244 15.0283 30.201 15.0283 28.8243C15.0283 27.4391 16.1517 26.3242 17.5284 26.3242C18.9136 26.3242 20.0285 27.4391 20.0285 28.8243Z" fill="#50E6FF"/>
<path d="M26.4992 28.8243C26.4992 30.2095 25.3758 31.3244 23.9991 31.3244C22.6139 31.3244 21.499 30.201 21.499 28.8243C21.499 27.4391 22.6224 26.3242 23.9991 26.3242C25.3758 26.3242 26.4992 27.4391 26.4992 28.8243Z" fill="white"/>
<path d="M26.4992 35.4962C26.4992 36.8814 25.3758 37.9963 23.9991 37.9963C22.6139 37.9963 21.499 36.8729 21.499 35.4962C21.499 34.111 22.6224 32.9961 23.9991 32.9961C25.3758 32.9961 26.4992 34.111 26.4992 35.4962Z" fill="#50E6FF"/>
<path d="M32.7824 28.8243C32.7824 30.2095 31.6591 31.3244 30.2823 31.3244C28.8971 31.3244 27.7822 30.201 27.7822 28.8243C27.7822 27.4391 28.9056 26.3242 30.2823 26.3242C31.6591 26.3242 32.7824 27.4391 32.7824 28.8243Z" fill="#50E6FF"/>
</svg>
