<svg data-slug-id="phone06" viewBox="0 0 49 49" xmlns="http://www.w3.org/2000/svg">
<path d="M33.5255 48.902H14.1752C12.5197 48.902 11.1768 47.5591 11.1768 45.9036V3.90074C11.1768 2.24529 12.5197 0.902344 14.1752 0.902344H33.5255C35.181 0.902344 36.5239 2.24529 36.5239 3.90074V45.8952C36.5239 47.5591 35.181 48.902 33.5255 48.902Z" fill="#0078D4"/>
<path d="M25.3077 43.6477C25.3077 44.3572 24.7249 44.94 24.0154 44.94C23.3059 44.94 22.7231 44.3572 22.7231 43.6477C22.7231 42.9298 23.3059 42.3555 24.0154 42.3555C24.7334 42.3555 25.3077 42.9383 25.3077 43.6477Z" fill="white"/>
<path d="M15.0449 38.8771H20.1465V28.8008H15.0449V38.8771Z" fill="white"/>
<path d="M21.3711 38.8758H26.4726V18.6641H21.3711V38.8758V38.8758Z" fill="#50E6FF"/>
<path d="M27.7905 38.8772H32.8921V11.0977H27.7905V38.8772Z" fill="#50E6FF"/>
<path d="M26.4809 6.63021H21.3879C21.0416 6.63021 20.7544 6.34304 20.7544 5.99674C20.7544 5.65045 21.0416 5.36328 21.3879 5.36328H26.4725C26.8188 5.36328 27.106 5.65045 27.106 5.99674C27.106 6.34304 26.8272 6.63021 26.4809 6.63021Z" fill="white"/>
</svg>
