<svg data-slug-id="phone01" viewBox="0 0 49 49" xmlns="http://www.w3.org/2000/svg">
<path d="M33.5255 48.9022H14.1752C12.5197 48.9022 11.1768 47.5593 11.1768 45.9038V3.90075C11.1768 2.24529 12.5197 0.902344 14.1752 0.902344H33.5255C35.181 0.902344 36.5239 2.24529 36.5239 3.90075V45.8954C36.5239 47.5593 35.181 48.9022 33.5255 48.9022Z" fill="#0078D4"/>
<path d="M25.3082 43.6516C25.3082 44.3611 24.7254 44.9439 24.0159 44.9439C23.3064 44.9439 22.7236 44.3611 22.7236 43.6516C22.7236 42.9337 23.3064 42.3594 24.0159 42.3594C24.7338 42.3594 25.3082 42.9422 25.3082 43.6516Z" fill="white"/>
<path d="M26.4814 6.62631H21.3884C21.0421 6.62631 20.7549 6.33914 20.7549 5.99284C20.7549 5.64655 21.0421 5.35938 21.3884 5.35938H26.473C26.8193 5.35938 27.1065 5.64655 27.1065 5.99284C27.1065 6.33914 26.8277 6.62631 26.4814 6.62631Z" fill="white"/>
<path d="M16.4307 28.6747L23.2299 32.5768V24.7556L16.4307 20.8281V28.6747Z" fill="#50E6FF"/>
<path d="M23.9138 16.1055L17.1821 19.9907L23.9138 23.876L30.6454 19.9907L23.9138 16.1055Z" fill="#50E6FF"/>
<path d="M24.5981 24.755V32.5846L31.3974 28.6825V20.8359L24.5981 24.755Z" fill="#50E6FF"/>
</svg>
