<svg data-slug-id="phone05" viewBox="0 0 49 49" xmlns="http://www.w3.org/2000/svg">
<path d="M35.5516 33.6856V31.7572H32.9027V28.4898H29.8742V25.8203H27.9424V28.4898H25.1417V25.8203H23.2099V28.4898H20.4008V25.8203H18.469V28.4898H15.2886V31.7572H12.6313V33.6856H15.2886V36.4898H12.6313V38.4182H15.2886V41.214H12.6313V43.1424H15.2886V46.0729H18.469V48.894H20.4008V46.0729H23.2099V48.894H25.1417V46.0729H27.9424V48.894H29.8742V46.0729H32.9027V43.1424H35.5516V41.214H32.9027V38.4182H35.5516V36.4898H32.9027V33.6856H35.5516Z" fill="#0078D4"/>
<path d="M29.9078 31.4805H18.2832V43.0847H29.9078V31.4805Z" fill="#50E6FF"/>
<path d="M23.9436 2.98311C27.1746 2.98311 30.3211 3.59785 33.3074 4.80206C36.395 6.04837 39.1619 7.88416 41.5324 10.2589L42.899 8.89469C37.6688 3.67363 30.802 1.05469 23.9436 1.05469C17.0853 1.05469 10.2269 3.66521 4.98828 8.89469L6.35489 10.2505C8.7338 7.87574 11.5008 6.04837 14.5798 4.79364C17.5661 3.58942 20.7127 2.98311 23.9436 2.98311Z" fill="#0078D4"/>
<path d="M23.9437 9.43233C28.8618 9.43233 33.4846 11.3439 36.9602 14.8134L38.3268 13.4492C34.3535 9.48285 29.1486 7.50391 23.9437 7.50391C18.7388 7.50391 13.5338 9.48285 9.56055 13.4492L10.9272 14.8134C14.4112 11.3439 19.034 9.43233 23.9437 9.43233Z" fill="#0078D4"/>
<path d="M23.9435 16.7683C26.896 16.7683 29.6714 17.9135 31.7635 20.0019L33.1301 18.6377C30.5909 16.103 27.2672 14.8398 23.9435 14.8398C20.6198 14.8398 17.296 16.103 14.7568 18.6377L16.1234 20.0019C18.2155 17.9219 20.9909 16.7683 23.9435 16.7683Z" fill="#0078D4"/>
</svg>
