<svg data-slug-id="pillar-trusted" xmlns="http://www.w3.org/2000/svg" viewBox="0 0 48 48">
  <path d="M43.1084 13.2919C43.1084 14.2802 43.0007 15.2504 42.7943 16.1752C45.7651 16.7917 48.0089 19.4483 48 22.6398C48 26.2847 45.083 29.2314 41.4749 29.2314H6.52505C2.91698 29.2314 0 26.2847 0 22.6398C0 18.995 2.91698 16.0483 6.52505 16.0483H7.26462C7.09197 15.3945 7 14.708 7 14C7 9.58172 10.5817 6 15 6C16.2448 6 17.4231 6.28429 18.4737 6.79149C20.7259 2.73679 25.0197 0 29.9506 0C37.2206 0 43.1084 5.94783 43.1084 13.2919Z" fill="#0078D4"/>
  <path d="M30.5473 16.9941C32.0219 17.9874 33.8567 19.2233 36 19.818V22.8616H35.9896L35.9913 25.3633C35.995 30.71 32.8703 35.7849 29.3775 39.7282C27.6667 41.6596 25.9487 43.2279 24.6572 44.3132C24.4227 44.5102 24.203 44.6907 24.0006 44.8541C23.798 44.6905 23.578 44.5097 23.3434 44.3124C22.0518 43.2264 20.3336 41.6571 18.6227 39.725C15.1294 35.78 12.005 30.7052 12.0087 25.3633L12.0104 22.8616H12V19.893C14.6128 19.3043 16.6049 17.89 18.2003 16.7573C18.2319 16.7349 18.2634 16.7125 18.2947 16.6903C20.5121 15.1167 21.9808 14.1331 24 14.1331C26.0735 14.1331 27.8343 15.1788 30.154 16.7298C30.2821 16.8154 30.4132 16.9037 30.5473 16.9941Z" stroke="#0078D4" stroke-width="5" stroke-linecap="square" fill="none"/>
  <path d="M9.95452 29.2314C9.66931 27.9816 9.50961 26.6962 9.5087 25.3842V25.3616H9.5V17.67C12.5951 17.67 14.768 16.1277 16.9173 14.6022C19.0203 13.1096 21.1006 11.6331 24 11.6331C27.0363 11.6331 29.4543 13.2523 31.7857 14.8136C33.9559 16.2669 36.0511 17.67 38.5 17.67V25.3616H38.4913V25.3842C38.4904 26.6964 38.3309 27.9817 38.046 29.2314H32.8699C33.2694 27.9493 33.4922 26.6542 33.4913 25.3651L33.4887 21.5705C31.7228 20.8146 30.2599 19.8217 29.2024 19.1039C29.0477 18.9989 28.9014 18.8996 28.7644 18.808C26.3823 17.2152 25.2157 16.6331 24 16.6331C22.8928 16.6331 22.0496 17.0911 19.7415 18.7291L19.557 18.8602C18.3325 19.7311 16.6605 20.9203 14.5112 21.7372L14.5087 25.3651C14.5078 26.6538 14.7309 27.949 15.131 29.2314H9.95452Z" fill="#50E6FF"/>
</svg>
