<svg data-slug-id="pillar-hybrid" xmlns="http://www.w3.org/2000/svg" viewBox="0 0 48 49">
  <path d="M0 48.3282H23.9956V0.328613H0V48.3282Z" fill="#0078D4"/>
  <path d="M23.9951 48.3288H47.9907V24.325H23.9951V48.3288Z" fill="#50E6FF"/>
  <path d="M5.01953 10.3938H10.073V5.34033H5.01953V10.3938Z" fill="#50E6FF"/>
  <path d="M12.6006 10.3938H17.6541V5.34033H12.6006V10.3938Z" fill="#50E6FF"/>
  <path d="M5.01953 17.9561H10.073V12.9026H5.01953V17.9561Z" fill="#50E6FF"/>
  <path d="M12.6006 17.9561H17.6541V12.9026H12.6006V17.9561Z" fill="#50E6FF"/>
  <path d="M5.01953 25.4878H10.073V20.4343H5.01953V25.4878Z" fill="#50E6FF"/>
  <path d="M12.6006 25.4878H17.6541V20.4343H12.6006V25.4878Z" fill="#50E6FF"/>
  <path d="M5.01953 33.1006H10.073V28.0471H5.01953V33.1006Z" fill="#50E6FF"/>
  <path d="M12.6006 33.1006H17.6541V28.0471H12.6006V33.1006Z" fill="#50E6FF"/>
  <path d="M30.2451 33.0071H35.2986V27.9536H30.2451V33.0071Z" fill="#0078D4"/>
  <path d="M37.8252 33.0071H42.8787V27.9536H37.8252V33.0071Z" fill="#0078D4"/>
  <path d="M43.4259 14.0301H43.3922C43.5606 13.6174 43.6533 13.171 43.6533 12.7078C43.6533 10.7622 42.0699 9.17875 40.1243 9.17875C39.7116 9.17875 39.3157 9.25455 38.9451 9.38089C37.9766 8.1849 36.4942 7.41846 34.8266 7.41846C31.904 7.41846 29.5288 9.78517 29.5288 12.7078C29.5288 13.1626 29.5878 13.609 29.6973 14.0301C28.6276 14.0553 27.7686 14.9313 27.7686 16.0094C27.7686 17.1043 28.6613 17.9971 29.7563 17.9971H43.4343C44.5292 17.9971 45.422 17.1043 45.422 16.0094C45.4052 14.9144 44.5208 14.0301 43.4259 14.0301Z" fill="#50E6FF"/>
  <path d="M40.3685 40.5547H32.7715V48.3202H40.3685V40.5547Z" fill="#0078D4"/>
  <path d="M14.975 40.5547H7.37793V48.3202H14.975V40.5547Z" fill="#50E6FF"/>
</svg>
