<svg data-slug-id="pillar-future" xmlns="http://www.w3.org/2000/svg" viewBox="0 0 44 48">
  <path fill-rule="evenodd" clip-rule="evenodd" d="M39.5 39H35.0307C34.739 36.9361 32.9655 35.3486 30.8211 35.3486C30.4967 35.3486 30.1808 35.385 29.8773 35.4538C29.6623 31.2359 26.1743 27.8821 21.9029 27.8821C17.6454 27.8821 14.1661 31.2142 13.9308 35.4129C13.6909 35.3709 13.4442 35.349 13.1923 35.349C11.0481 35.349 9.27461 36.9363 8.98277 39H4.5C2.01472 39 0 41.0147 0 43.5C0 45.9853 2.01472 48 4.5 48H39.5C41.9853 48 44 45.9853 44 43.5C44 41.0147 41.9853 39 39.5 39ZM22 32C21.4477 32 21 32.4477 21 33V41C21 41.5523 21.4477 42 22 42C22.5523 42 23 41.5523 23 41V33C23 32.4477 22.5523 32 22 32Z" fill="#50E6FF"/>
  <path d="M21.9331 0C21.6165 0 21.3142 0.1648 21.1031 0.448938L20.8056 0.84673C18.1427 4.43255 16.852 9.20606 17.2695 13.9568L17.4422 15.9288L15.4318 18.1734C15.427 18.1791 15.427 18.1791 15.4222 18.1848C13.8725 20.0203 13.0184 22.4639 13.0184 25.0553V29.7947C13.0184 30.022 13.1288 30.2266 13.3063 30.3175C13.479 30.4084 13.6854 30.3686 13.8245 30.2209L18.277 25.4644L18.3154 25.919C18.3346 26.1464 18.469 26.3396 18.6561 26.4078C18.8432 26.476 19.0351 26.5328 19.227 26.5896L19.4142 29.1923C19.4286 29.4139 19.5533 29.6071 19.7308 29.681C20.4122 29.9708 21.1223 30.1186 21.8324 30.1243C22.5617 30.13 23.2862 29.9822 23.9867 29.681C24.0538 29.6526 24.1162 29.6072 24.1642 29.5446C24.241 29.4537 24.2889 29.3344 24.3033 29.198C24.3465 28.732 24.3849 28.1921 24.4233 27.6693C24.4521 27.2943 24.4809 26.9135 24.5097 26.5555C24.668 26.51 24.8215 26.4589 24.9799 26.4021C25.0566 26.3737 25.1286 26.3225 25.1862 26.26C25.2581 26.1748 25.3109 26.0554 25.3253 25.9304L25.3781 25.4417L29.8498 30.2209C29.989 30.3743 30.1953 30.4084 30.368 30.3175C30.4208 30.2891 30.4736 30.2493 30.512 30.1982C30.5983 30.0959 30.6511 29.9481 30.6511 29.7947V25.0553C30.6511 22.4582 29.7971 20.0203 28.2473 18.1848L26.3809 15.9742L26.5584 14.3149C27.0862 9.33676 25.7619 4.35299 22.9167 0.636468L22.7584 0.431889C22.5521 0.153434 22.2498 0 21.9331 0Z" fill="#0078D4"/>
</svg>
