<svg data-slug-id="pixelated-arrow" xmlns="http://www.w3.org/2000/svg" viewBox="0 0 48 49">
<path d="M19.3685 0.960938H14.3159V6.01356H19.3685V0.960938Z" fill="#0078D4"/>
<path d="M26.5263 0.960938H21.4736V6.01356H26.5263V0.960938Z" fill="#50E6FF"/>
<path d="M26.5263 8.11719H21.4736V13.1698H26.5263V8.11719Z" fill="#0078D4"/>
<path d="M33.6845 8.11719H28.6318V13.1698H33.6845V8.11719Z" fill="#50E6FF"/>
<path d="M33.6845 15.2773H28.6318V20.33H33.6845V15.2773Z" fill="#0078D4"/>
<path d="M40.8422 15.2773H35.7896V20.33H40.8422V15.2773Z" fill="#50E6FF"/>
<path d="M5.05262 22.4336H0V27.4862H5.05262V22.4336Z" fill="#0078D4"/>
<path d="M12.2108 22.4336H7.1582V27.4862H12.2108V22.4336Z" fill="#0078D4"/>
<path d="M19.3685 22.4336H14.3159V27.4862H19.3685V22.4336Z" fill="#0078D4"/>
<path d="M23.9999 27.4862C22.6021 27.4862 21.4736 26.3578 21.4736 24.9599C21.4736 23.562 22.6021 22.4336 23.9999 22.4336C25.3978 22.4336 26.5263 23.562 26.5263 24.9599C26.5263 26.3494 25.3894 27.4862 23.9999 27.4862Z" fill="#0078D4"/>
<path d="M33.6845 22.4336H28.6318V27.4862H33.6845V22.4336Z" fill="#0078D4"/>
<path d="M40.8422 22.4336H35.7896V27.4862H40.8422V22.4336Z" fill="#0078D4"/>
<path d="M47.9999 22.4336H42.9473V27.4862H47.9999V22.4336Z" fill="#50E6FF"/>
<path d="M33.6845 29.5938H28.6318V34.6464H33.6845V29.5938Z" fill="#0078D4"/>
<path d="M38.3159 34.6464C36.918 34.6464 35.7896 33.518 35.7896 32.1201C35.7896 30.7222 36.918 29.5938 38.3159 29.5938C39.7138 29.5938 40.8422 30.7222 40.8422 32.1201C40.8422 33.5095 39.7053 34.6464 38.3159 34.6464Z" fill="#50E6FF"/>
<path d="M23.9999 41.8026C22.6021 41.8026 21.4736 40.6742 21.4736 39.2763C21.4736 37.8784 22.6021 36.75 23.9999 36.75C25.3978 36.75 26.5263 37.8784 26.5263 39.2763C26.5263 40.6658 25.3894 41.8026 23.9999 41.8026Z" fill="#0078D4"/>
<path d="M33.6845 36.75H28.6318V41.8026H33.6845V36.75Z" fill="#50E6FF"/>
<path d="M19.3685 43.9102H14.3159V48.9628H19.3685V43.9102Z" fill="#0078D4"/>
<path d="M26.5263 43.9102H21.4736V48.9628H26.5263V43.9102Z" fill="#50E6FF"/>
</svg>
