<svg data-slug-id="planet" xmlns="http://www.w3.org/2000/svg" viewBox="0 0 95 96">
<path fill-rule="evenodd" clip-rule="evenodd" d="M78.394 43.2287C82.3865 59.5501 72.2446 75.9813 55.7425 79.9302C39.2426 83.8771 22.6278 73.848 18.6371 57.5264C14.6446 41.205 24.7867 24.7739 41.2866 20.825C41.3054 20.8213 41.3242 20.8157 41.343 20.812C57.766 16.8428 74.3319 26.7903 78.3471 43.0337C78.362 43.0986 78.3791 43.1638 78.394 43.2287Z" fill="#0078D4"/>
<path fill-rule="evenodd" clip-rule="evenodd" d="M44.1667 62.5362C44.1572 58.0743 40.4915 54.4657 35.9804 54.4767H34.7442C35.7925 50.1635 33.1096 45.8282 28.7487 44.7912C28.1062 44.6371 27.4449 44.5626 26.7834 44.5682H18.2948C16.4592 53.9118 19.2004 63.5638 25.6919 70.5938H35.9786C40.4898 70.6048 44.1554 66.9962 44.1667 62.5362Z" fill="#50E6FF"/>
<path fill-rule="evenodd" clip-rule="evenodd" d="M54.3034 29.1259C54.3034 29.5978 54.3654 30.0679 54.4895 30.5251H50.9553C46.2695 30.5251 42.4722 34.2826 42.4722 38.9173C42.4722 43.55 46.2695 47.3073 50.9553 47.3073H79.0516C78.1365 37.2836 72.1544 28.3973 63.1566 23.6959H59.8083C56.7722 23.694 54.3109 26.1227 54.3034 29.1259Z" fill="#50E6FF"/>
<path fill-rule="evenodd" clip-rule="evenodd" d="M79.0545 53.5424H62.2932C58.4698 53.5331 55.3641 56.5863 55.3489 60.3662C55.3472 61.5015 55.6345 62.6202 56.1832 63.6163C52.5457 64.7406 50.5185 68.5705 51.6552 72.17C52.5588 75.0299 55.2456 76.9737 58.2763 76.9607H62.9489C71.9016 72.2685 77.9308 63.5029 79.0545 53.5424Z" fill="#50E6FF"/>
<path fill-rule="evenodd" clip-rule="evenodd" d="M14.0922 30.1369C13.5717 30.1389 13.149 29.7244 13.1471 29.2096V29.2079C13.1321 23.3448 8.32222 18.6025 2.39444 18.6081C1.87588 18.6081 1.45502 18.1918 1.45502 17.6789C1.45502 17.1679 1.87588 16.7516 2.39444 16.7516C8.3147 16.7572 13.1227 12.0241 13.1471 6.17048C13.1697 5.65387 13.6112 5.25435 14.1335 5.27851C14.622 5.29894 15.0128 5.68547 15.0354 6.17048C15.0504 12.0316 19.8622 16.7739 25.79 16.7684C26.3084 16.7684 26.7293 17.1846 26.7293 17.6975C26.7293 18.2104 26.3084 18.6267 25.79 18.6267C19.8658 18.6192 15.0542 23.3578 15.0354 29.2172C15.0278 29.7263 14.607 30.1369 14.0922 30.1369Z" fill="#50E6FF"/>
<path fill-rule="evenodd" clip-rule="evenodd" d="M80.4113 89.8733C80.1033 89.8733 79.8533 89.6261 79.8533 89.3214C79.8402 85.8166 76.9599 82.9827 73.4164 82.9903C73.1084 82.992 72.8565 82.7448 72.8565 82.4401C72.8565 82.1355 73.1045 81.8883 73.4127 81.8883H73.4164C76.958 81.89 79.8328 79.0581 79.8458 75.5551C79.8458 75.2466 80.0976 74.9977 80.4113 74.9977C80.7233 74.9977 80.9751 75.2466 80.9751 75.5551C80.9881 79.0581 83.8629 81.89 87.4045 81.8883C87.7126 81.8863 87.9644 82.1335 87.9644 82.4383C87.9663 82.7431 87.7164 82.9903 87.4082 82.9903H87.4045C83.8629 82.9883 80.9864 85.8203 80.9751 89.3252C80.9732 89.6298 80.7213 89.8753 80.4133 89.8733H80.4113Z" fill="#0072C5"/>
<path fill-rule="evenodd" clip-rule="evenodd" d="M93.2927 23.0168C90.3599 18.2633 82.9874 17.165 71.9866 19.8298C68.5576 20.6903 65.1851 21.7531 61.8859 23.0168C64.0071 24.0426 66.0043 25.3044 67.8382 26.778C69.7095 26.1702 71.547 25.6221 73.2999 25.1985C76.2272 24.4309 79.2389 24.0091 82.2677 23.9422C85.8713 23.9422 87.8591 24.823 88.5243 25.8953C89.6122 27.6569 88.6108 32.3045 82.2132 39.615C81.0746 40.916 79.7952 42.2334 78.4479 43.5583C71.4323 50.2632 63.6651 56.154 55.2968 61.1157C47.0054 66.2501 38.141 70.4239 28.8839 73.5514C17.7479 77.1397 10.1461 77.0673 8.44007 74.3133C6.73784 71.5593 10.1442 64.8267 18.4562 56.6538C17.9471 54.3292 17.7178 51.9524 17.7742 49.5755C4.54146 61.4055 0.259552 71.6521 3.67906 77.1899C5.46961 80.087 9.38138 81.7186 15.0969 81.7186C21.889 81.4342 28.5795 79.9736 34.8606 77.4055C42.9885 74.2687 50.8025 70.3923 58.2052 65.8263C65.6718 61.3553 72.7043 56.2098 79.2052 50.4509C81.7586 48.1856 84.1729 45.7716 86.4368 43.2239C93.8583 34.7501 96.2274 27.761 93.2927 23.0168Z" fill="#0078D4"/>
</svg>
