<svg data-slug-id="play-learn" xmlns="http://www.w3.org/2000/svg" viewBox="0 0 48 48">
  <path d="M46.9932 30.306L46.9932 2.38672L14.0305 2.38672L14.0305 30.306L46.9932 30.306Z" fill="#0078D4"/>
  <path d="M41.6328 37.9701L41.6328 10.0508L6.27901 10.0508L6.27901 37.9701L41.6328 37.9701Z" fill="#50E6FF"/>
  <path d="M36.6152 45.2631L36.6152 17.3438L1.26144 17.3437L1.26144 45.2631L36.6152 45.2631Z" fill="#0078D4"/>
  <path d="M18.8516 40.0596C23.6844 40.0596 27.6079 36.1361 27.6079 31.3032C27.6079 26.4704 23.6844 22.5469 18.8516 22.5469C14.0187 22.5469 10.0952 26.4704 10.0952 31.3032C10.0952 36.1361 14.0187 40.0596 18.8516 40.0596Z" fill="#50E6FF"/>
  <path d="M24.3829 31.4829L16.418 36.0379V26.8438L24.3829 31.4829Z" fill="#0078D4"/>
</svg>
