<svg data-slug-id="power-arrows-diverge" xmlns="http://www.w3.org/2000/svg" viewBox="0 0 48 48">
	<path d="M44.7493 35.4264H31.0651L14.4167 9.74219H2.7114C2.01245 9.74219 1.44824 10.3064 1.44824 11.0053C1.44824 11.7043 2.01245 12.2685 2.7114 12.2685H13.044L29.6925 37.9527H44.7409C45.4398 37.9527 46.004 37.3885 46.004 36.6896C46.0125 35.9906 45.4398 35.4264 44.7493 35.4264Z" fill="#0078D4"/>
	<path d="M16.0033 24.3783H10.0691V14.5742L0.200195 24.4431H6.13446V34.2472L16.0033 24.3783Z" fill="#50E6FF"/>
	<path d="M46.7286 37.515L41.5328 41.6834C40.8002 42.2729 39.7139 41.7508 39.7139 40.8076V32.4792C39.7139 31.5445 40.8002 31.0224 41.5328 31.6034L46.7202 35.7718C47.2844 36.2181 47.2844 37.0687 46.7286 37.515Z" fill="#0078D4"/>
	<path d="M46.7285 11.933L41.5411 16.1014C40.8085 16.6908 39.7222 16.1687 39.7222 15.2256V6.89716C39.7222 5.96243 40.8085 5.44032 41.5411 6.02137L46.7285 10.1898C47.2843 10.6361 47.2843 11.4866 46.7285 11.933Z" fill="#50E6FF"/>
	<path d="M11.9076 35.1746H2.7455C2.0634 35.1746 1.48234 35.6967 1.44866 36.3788C1.41498 37.103 1.99603 37.7009 2.71182 37.7009H13.4066C14.0381 37.7009 14.6276 37.3809 14.9644 36.8503L21.2045 27.183L19.7055 24.8672L13.6592 34.223C13.2802 34.8209 12.615 35.1746 11.9076 35.1746Z" fill="#50E6FF"/>
	<path d="M32.2104 11.9326H44.7156C45.3977 11.9326 45.9788 11.4105 46.0125 10.7284C46.0462 10.0041 45.4651 9.40625 44.7493 9.40625H30.703C30.0714 9.40625 29.482 9.72625 29.1451 10.2568L22.7114 20.2105L24.2188 22.5347L30.4504 12.8841C30.8377 12.2947 31.4946 11.9326 32.2104 11.9326Z" fill="#50E6FF"/>
</svg>
