<svg data-slug-id="pricing12" viewBox="0 0 49 49" xmlns="http://www.w3.org/2000/svg">
<path d="M23.701 14.9844H22.8047V34.8018H23.701V14.9844Z" fill="#0078D4"/>
<path d="M33.7586 14.9844H28.8789V34.8018H33.7586V14.9844Z" fill="#0078D4"/>
<path d="M16.8291 14.9844H8.96191V34.8018H16.8291V14.9844Z" fill="#0078D4"/>
<path d="M20.7132 14.9844H17.8252V34.8018H20.7132V14.9844Z" fill="#0078D4"/>
<path d="M42.1239 14.9844H37.7422V34.8018H42.1239V14.9844Z" fill="#0078D4"/>
<path d="M36.7466 14.9844H34.7549V34.8018H36.7466V14.9844Z" fill="#0078D4"/>
<path d="M27.7833 14.9844H25.9907V34.8018H27.7833V14.9844Z" fill="#0078D4"/>
<path d="M3.7835 45.5566V37.1914H0.995117V48.3449H12.1486V45.5566H3.7835Z" fill="#50E6FF"/>
<path d="M3.7835 3.13213H12.2482V0.34375H0.995117V11.1985H3.7835V3.13213Z" fill="#50E6FF"/>
<path d="M46.207 45.5566H38.2402V48.3449H48.9954V37.1914H46.207V45.5566Z" fill="#50E6FF"/>
<path d="M46.2066 3.13213V11.1985H48.995V0.34375H38.3394V3.13213H46.2066Z" fill="#50E6FF"/>
</svg>
