<svg data-slug-id="pricing01" viewBox="0 0 49 49" xmlns="http://www.w3.org/2000/svg">
<path d="M40.5078 48.8606H45.5246V38.6836H40.5078V48.8606V48.8606Z" fill="#0078D4"/>
<path d="M30.3477 48.8589H35.3644V33.7031H30.3477V48.8589Z" fill="#0078D4"/>
<path d="M10.1885 48.8612H15.2052V10.8789H10.1885V48.8612Z" fill="#0078D4"/>
<path d="M20.3564 48.8634H25.3732V23.5391H20.3564V48.8634Z" fill="#0078D4"/>
<path d="M0.0195312 48.8622H5.06158V0.863281H0.0195312V48.8622Z" fill="#0078D4"/>
<path d="M41.5278 16.1372C41.5278 15.3524 40.946 14.7026 39.7909 14.1963V17.8756C40.9545 17.6899 41.5278 17.1076 41.5278 16.1372ZM38.0203 10.0867V6.23869C36.8989 6.44122 36.334 7.02348 36.334 8.00236C36.334 8.85467 36.8989 9.54663 38.0203 10.0867ZM44.7571 15.9684C44.7571 17.3102 44.3355 18.3903 43.4924 19.2089C42.6492 20.0274 41.4182 20.5253 39.7994 20.7109V23.597H38.0287V20.7869C36.3593 20.77 34.8332 20.3987 33.442 19.673V16.306C33.8804 16.6604 34.5802 17.0064 35.533 17.3439C36.4942 17.6815 37.3205 17.8756 38.0287 17.9178V13.4959C36.2412 12.8293 34.9765 12.1035 34.2345 11.3187C33.4926 10.5255 33.1216 9.48756 33.1216 8.20489C33.1216 6.92222 33.5769 5.83364 34.4959 4.94758C35.4065 4.06152 36.5869 3.54677 38.0372 3.40331V0.863281H39.8078V3.35268C41.511 3.43706 42.7841 3.7071 43.6273 4.17966V7.45385C42.5059 6.77032 41.2327 6.35683 39.8078 6.18806V10.7871C41.5953 11.4369 42.8684 12.1626 43.6273 12.9727C44.3777 13.7913 44.7571 14.787 44.7571 15.9684Z" fill="#50E6FF"/>
</svg>
