<svg data-slug-id="pricing08" viewBox="0 0 49 49" xmlns="http://www.w3.org/2000/svg">
<path d="M10.9199 48.7157H38.7199V0.863281H10.9199V48.7157Z" fill="#0078D4"/>
<path d="M27.4703 28.8053C27.4703 28.0069 26.8703 27.3582 25.6703 26.8094V30.6016C26.8703 30.402 27.4703 29.8033 27.4703 28.8053ZM23.8703 22.568V18.626C22.7203 18.8256 22.1203 19.4244 22.1203 20.4224C22.1203 21.3205 22.7203 22.0191 23.8703 22.568ZM30.7703 28.6057C30.7703 30.0028 30.3203 31.1006 29.4703 31.9489C28.6203 32.7971 27.3203 33.2961 25.6703 33.4957V36.1902H23.8703V33.5456C22.1703 33.5456 20.5703 33.1464 19.1703 32.398V28.955C19.6203 29.3043 20.3203 29.6536 21.3203 30.0028C22.3203 30.3521 23.1703 30.5517 23.8703 30.6016V26.0609C22.0203 25.3623 20.7203 24.6138 19.9703 23.8155C19.2203 23.0171 18.8203 21.9193 18.8203 20.622C18.8203 19.3246 19.2703 18.177 20.2203 17.2788C21.1703 16.3806 22.3703 15.8317 23.8703 15.682V13.3867H25.6703V15.6321C27.4203 15.7319 28.7203 15.9814 29.6203 16.4804V19.8236C28.4703 19.125 27.1703 18.6759 25.6703 18.5262V23.3165C27.5203 23.9652 28.8203 24.7136 29.6203 25.5619C30.4203 26.3603 30.7703 27.4081 30.7703 28.6057Z" fill="#50E6FF"/>
</svg>
