<svg data-slug-id="pricing05" viewBox="0 0 49 49" xmlns="http://www.w3.org/2000/svg">
<path d="M25.6943 3.41797V8.55938C29.9746 8.84642 33.8666 10.5433 36.9058 13.1942L40.5192 9.58091C36.5597 5.9929 31.3929 3.71345 25.6943 3.41797Z" fill="#50E6FF"/>
<path d="M6.52202 11.3906C2.96777 15.367 0.713657 20.5253 0.435059 26.2154H5.46672C5.75376 21.9352 7.46756 18.0348 10.1269 14.9955L6.52202 11.3906Z" fill="#0078D4"/>
<path d="M23.1617 3.41016C17.4716 3.70564 12.3048 5.98508 8.33691 9.56465L11.9503 13.178C14.9895 10.5271 18.8815 8.83017 23.1617 8.55157V3.41016Z" fill="#0078D4"/>
<path d="M0.443848 28.7461C0.756216 34.4109 3.03566 39.5523 6.60679 43.4949L10.1104 39.9913C7.45103 36.9436 5.74566 33.0348 5.46707 28.7461H0.443848V28.7461Z" fill="#0078D7"/>
<path d="M48.3957 28.7461H43.3725C43.0939 33.0348 41.397 36.9352 38.7461 39.9829L42.2497 43.4865C45.8124 39.5355 48.0834 34.4025 48.3957 28.7461Z" fill="#50E6FF"/>
<path d="M42.3344 11.4062L38.7295 15.0111C41.3804 18.0504 43.0858 21.9339 43.3728 26.2142H48.4045C48.1259 20.5325 45.8802 15.3742 42.3344 11.4062Z" fill="#50E6FF"/>
<path d="M32.4824 27.5238H26.4292V17.5195L16.3574 27.5913H22.4106V37.5955L32.4824 27.5238Z" fill="#0078D4"/>
</svg>
