<svg data-slug-id="pricing13" viewBox="0 0 49 49" xmlns="http://www.w3.org/2000/svg">
<path d="M13.9663 35.0797L45.9663 3.05078L45.9945 46.4794H2.56592L13.9663 35.0797Z" fill="#0078D4"/>
<path d="M34.9624 25.9062H41.4272V32.371L34.9624 25.9062Z" fill="#50E6FF"/>
<path d="M12.8516 23.6222C18.5323 23.6222 23.1374 19.0171 23.1374 13.3365C23.1374 7.65585 18.5323 3.05078 12.8516 3.05078C7.17099 3.05078 2.56592 7.65585 2.56592 13.3365C2.56592 19.0171 7.17099 23.6222 12.8516 23.6222Z" fill="#50E6FF"/>
<path d="M15.5383 13.5038C15.1109 13.055 14.3955 12.6489 13.4004 12.2801V9.71481C14.1905 9.81767 14.9052 10.0394 15.5383 10.4287V8.59405C15.0675 8.32891 14.3528 8.16586 13.4004 8.12319V6.88281H12.3985V8.14453C11.6084 8.20396 10.9318 8.49119 10.4229 9.00015C10.1756 9.23706 9.97929 9.522 9.84605 9.83749C9.71281 10.153 9.64542 10.4924 9.64802 10.8348C9.64802 11.5495 9.85374 12.1179 10.2812 12.5674C10.6873 13.0116 11.4019 13.423 12.3977 13.7864V16.255C11.9916 16.2329 11.5208 16.1087 10.9958 15.9243C10.4435 15.724 10.0595 15.5434 9.81031 15.3346V17.2066C10.5999 17.6275 11.4817 17.8453 12.3764 17.8405V19.2638H13.3814V17.8024C14.2956 17.6996 14.9897 17.4123 15.4606 16.9643C15.9315 16.5163 16.1699 15.9083 16.1699 15.1502C16.1669 14.479 15.9665 13.932 15.5383 13.5038ZM12.3985 11.8748C11.7707 11.5701 11.4621 11.1815 11.4621 10.6893C11.4621 10.1636 11.7707 9.83367 12.3985 9.71481V11.8748ZM13.3814 16.2314V14.1742C14.0313 14.4615 14.3558 14.8021 14.3558 15.2516C14.3528 15.7834 14.0282 16.108 13.3814 16.2314Z" fill="#0078D4"/>
<path d="M36.8469 25.9062H27.704V30.4777H33.6141L24.584 39.5078L27.8168 42.7406L36.8469 33.7104V39.6205H41.4183V30.4777V25.9062H36.8469Z" fill="#50E6FF"/>
</svg>
