<svg data-slug-id="pricing04" viewBox="0 0 49 49" xmlns="http://www.w3.org/2000/svg">
<path d="M24.0255 5.42649C24.042 5.42649 24.0586 5.42649 24.0668 5.42649V1.01172C15.444 1.01172 8.06947 5.27768 3.75391 12.7597L7.50729 14.9257C10.8142 9.24602 16.9734 5.42649 24.0255 5.42649Z" fill="#50E6FF"/>
<path d="M7.50666 14.9321L3.75328 12.7578C-0.56229 20.2398 -0.56229 28.7717 3.75328 36.2537L7.4984 34.0876C5.86146 31.2767 4.92724 28.0028 4.92724 24.514C4.92724 21.0252 5.86972 17.743 7.50666 14.9321Z" fill="#0078D4"/>
<path d="M24.026 43.6134C16.974 43.6134 10.8148 39.7856 7.50781 34.0977L3.7627 36.2637C8.07826 43.7457 15.4445 48.0116 24.0756 48.0116V43.6134C24.0508 43.6134 24.0343 43.6134 24.026 43.6134Z" fill="#0078D4"/>
<path d="M47.5209 24.5076C47.5209 11.5278 37.0214 1.01172 24.0664 1.01172V5.42649C34.5908 5.4513 43.1144 13.9915 43.1144 24.5159C43.1144 35.0402 34.5908 43.5887 24.0664 43.6135V48.0117C37.0214 48.0117 47.5209 37.4874 47.5209 24.5076Z" fill="#0078D4"/>
<path d="M26.6375 28.437C26.6375 27.6433 26.0505 26.9902 24.8848 26.4776V30.1897C26.0588 29.9995 26.6375 29.4208 26.6375 28.437ZM23.0991 22.3439V18.4583C21.9665 18.6649 21.396 19.2519 21.396 20.2357C21.4043 21.0955 21.9665 21.7983 23.0991 22.3439ZM29.8949 28.2634C29.8949 29.6192 29.465 30.7105 28.6134 31.529C27.7619 32.3557 26.5218 32.86 24.8848 33.0502V35.704H23.0991V33.1246C21.4208 33.108 19.8748 32.736 18.4694 32.0002V28.6106C18.9075 28.9661 19.6103 29.3216 20.5775 29.6605C21.5448 29.9995 22.3798 30.1897 23.0908 30.2393V25.7831C21.2885 25.1135 20.0071 24.3777 19.263 23.584C18.5107 22.7904 18.1387 21.7404 18.1387 20.4424C18.1387 19.1444 18.6016 18.0532 19.5193 17.1603C20.4453 16.2674 21.6358 15.7466 23.0908 15.5977V13.3242H24.8766V15.5481C26.5962 15.6308 27.8859 15.9036 28.7292 16.3831V19.6901C27.5965 19.0039 26.3068 18.5823 24.8766 18.4169V23.0549C26.6789 23.708 27.9686 24.4438 28.7292 25.254C29.5146 26.0725 29.8949 27.0729 29.8949 28.2634Z" fill="#0078D4"/>
</svg>
