<svg data-slug-id="pricing03" viewBox="0 0 49 49" xmlns="http://www.w3.org/2000/svg">
<path d="M24.6261 5.77806C24.6426 5.77806 24.6592 5.77806 24.6674 5.77806V1.36328C16.0446 1.36328 8.67006 5.62924 4.35449 13.1112L8.10788 15.2773C11.4148 9.59758 17.574 5.77806 24.6261 5.77806Z" fill="#0078D4"/>
<path d="M8.10725 15.2837L4.35386 13.1094C0.0382958 20.5913 0.0382958 29.1233 4.35386 36.6052L8.09898 34.4392C6.46204 31.6283 5.52783 28.3544 5.52783 24.8656C5.52783 21.3767 6.47031 18.0946 8.10725 15.2837Z" fill="#50E6FF"/>
<path d="M24.6266 43.965C17.5745 43.965 11.4153 40.1372 8.1084 34.4492L4.36328 36.6153C8.67885 44.0972 16.0451 48.3632 24.6762 48.3632V43.965C24.6514 43.965 24.6349 43.965 24.6266 43.965Z" fill="#50E6FF"/>
<path d="M48.1215 24.8591C48.1215 11.8794 37.622 1.36328 24.667 1.36328V5.77806C35.1914 5.80286 43.715 14.3431 43.715 24.8674C43.715 35.3918 35.1914 43.9402 24.667 43.965V48.3633C37.622 48.3633 48.1215 37.8389 48.1215 24.8591Z" fill="#50E6FF"/>
<path d="M27.2381 28.7885C27.2381 27.9949 26.6511 27.3417 25.4854 26.8292V30.5412C26.6594 30.3511 27.2381 29.7724 27.2381 28.7885ZM23.6997 22.6955V18.8098C22.5671 19.0165 21.9966 19.6035 21.9966 20.5873C22.0049 21.4471 22.5671 22.1498 23.6997 22.6955ZM30.4955 28.6149C30.4955 29.9708 30.0656 31.0621 29.214 31.8805C28.3625 32.7073 27.1224 33.2116 25.4854 33.4017V36.0556H23.6997V33.4761C22.0214 33.4596 20.4754 33.0876 19.07 32.3518V28.9621C19.5081 29.3176 20.2108 29.6731 21.1781 30.0121C22.1454 30.3511 22.9804 30.5412 23.6914 30.5908V26.1347C21.8891 25.4651 20.6077 24.7293 19.8636 23.9356C19.1113 23.1419 18.7393 22.092 18.7393 20.794C18.7393 19.496 19.2022 18.4047 20.1199 17.5118C21.0459 16.619 22.2364 16.0981 23.6914 15.9493V13.6758H25.4772V15.8997C27.1968 15.9824 28.4865 16.2552 29.3298 16.7347V20.0417C28.1971 19.3555 26.9074 18.9338 25.4772 18.7685V23.4065C27.2795 24.0596 28.5692 24.7954 29.3298 25.6056C30.1152 26.4241 30.4955 27.4244 30.4955 28.6149Z" fill="#0078D4"/>
</svg>
