<svg data-slug-id="price-tag" xmlns="http://www.w3.org/2000/svg" viewBox="0 0 47 40">
  <path d="M42.7085 11.0415C44.1007 12.4338 45.1641 14.0249 45.8984 15.8149C46.6328 17.5897 47 19.4639 47 21.4375C47 23.4111 46.6328 25.2853 45.8984 27.0601C45.1641 28.8348 44.1007 30.4183 42.7085 31.8105C41.3162 33.2028 39.7251 34.2738 37.9351 35.0234C36.1603 35.7578 34.2861 36.125 32.3125 36.125C30.6908 36.125 29.1302 35.8802 27.6309 35.3906C26.1468 34.8857 24.7699 34.1514 23.5 33.1875L17.625 39.0625L0 21.4375L20.5625 0.875H38.1875V7.96631C39.0137 8.3335 39.8016 8.77718 40.5513 9.29736C41.3162 9.80225 42.0353 10.3836 42.7085 11.0415ZM17.625 34.9087L35.25 17.2837V10.0547C34.7757 9.93229 34.2938 9.84049 33.8042 9.7793C33.3146 9.7181 32.8174 9.6875 32.3125 9.6875H30.8438C30.446 9.6875 30.1017 9.54215 29.811 9.25146C29.5203 8.96077 29.375 8.61654 29.375 8.21875C29.375 7.82096 29.5203 7.47673 29.811 7.18604C30.1017 6.89535 30.446 6.75 30.8438 6.75H32.3125C33.3376 6.75 34.3167 6.84945 35.25 7.04834V3.8125H21.7788L4.15381 21.4375L17.625 34.9087ZM32.3125 33.1875C33.9342 33.1875 35.4565 32.8815 36.8794 32.2695C38.3022 31.6423 39.5415 30.8008 40.5972 29.7451C41.6681 28.6742 42.5096 27.4272 43.1216 26.0044C43.7489 24.5815 44.0625 23.0592 44.0625 21.4375C44.0625 20.3512 43.9172 19.3109 43.6265 18.3164C43.3511 17.3066 42.9533 16.3657 42.4331 15.4937C41.9282 14.6216 41.3086 13.826 40.5742 13.1069C39.8551 12.3879 39.0596 11.7759 38.1875 11.271V18.5L25.6113 31.0762C26.5905 31.7646 27.6462 32.2925 28.7783 32.6597C29.9105 33.0116 31.0885 33.1875 32.3125 33.1875Z"/>
</svg>
