<svg data-slug-id="pricing10" viewBox="0 0 49 49" xmlns="http://www.w3.org/2000/svg">
<path d="M27.5291 29.7384C27.5291 28.7506 26.8049 27.9316 25.3481 27.2899V31.9252C26.8049 31.6888 27.5291 30.9627 27.5291 29.7384ZM23.1249 22.1311V17.2847C21.7102 17.538 21.0028 18.281 21.0028 19.5052C21.0028 20.5691 21.7102 21.4472 23.1249 22.1311ZM31.5881 29.5273C31.5881 31.216 31.0575 32.5838 29.9965 33.6054C28.9354 34.6355 27.386 35.2687 25.3565 35.4967V38.8149H23.1249V35.5896C21.0281 35.5727 19.1081 35.0998 17.3649 34.1795V29.9495C17.9123 30.397 18.7881 30.836 19.9923 31.2582C21.1965 31.6803 22.2407 31.9252 23.1249 31.9843V26.4202C20.8765 25.5843 19.2849 24.6725 18.3502 23.6762C17.4154 22.6799 16.9438 21.3796 16.9438 19.7585C16.9438 18.1374 17.5165 16.7696 18.6702 15.6551C19.8154 14.5406 21.306 13.8905 23.1249 13.7047V10.8594H25.3481V13.6372C27.4954 13.7385 29.0954 14.0847 30.1481 14.6757V18.8044C28.7333 17.9517 27.1333 17.4198 25.3481 17.2171V23.0092C27.5965 23.8282 29.1965 24.74 30.1481 25.7617C31.1081 26.7833 31.5881 28.0413 31.5881 29.5273Z" fill="#0078D4"/>
<path d="M48.1863 18.5096V5.84476H43.1253V10.3788C38.7716 4.74714 31.959 1.125 24.3127 1.125C11.159 1.125 0.506348 11.8057 0.506348 24.994C0.506348 38.1823 11.1674 48.863 24.3127 48.863C37.4579 48.863 48.119 38.1738 48.119 24.994C48.119 24.5212 48.1021 24.0568 48.0769 23.5924H43.42C43.4537 24.0568 43.4706 24.5212 43.4706 24.994C43.4706 35.5987 34.8979 44.2023 24.3127 44.2023C13.7274 44.2023 5.15477 35.5987 5.15477 24.994C5.15477 14.3893 13.7274 5.78566 24.3127 5.78566C30.5358 5.78566 36.06 8.75767 39.5548 13.3677H35.5463V18.442H43.1253V18.5096H48.1863Z" fill="#50E6FF"/>
</svg>
