<svg data-slug-id="pricing09" viewBox="0 0 49 49" xmlns="http://www.w3.org/2000/svg">
<path d="M24.4199 38.6148C16.8241 38.6148 10.6683 32.4591 10.6683 24.8633C10.6683 17.2675 16.8241 11.1117 24.4199 11.1117V0.863281C11.1652 0.863281 0.419922 11.6085 0.419922 24.8633C0.419922 38.118 11.1652 48.8633 24.4199 48.8633C31.1399 48.8633 37.2199 46.1012 41.5736 41.6464L34.3231 34.4043C31.822 36.998 28.3104 38.6148 24.4199 38.6148Z" fill="#0078D4"/>
<path d="M38.1715 24.4759H48.4199C48.2094 11.398 37.5483 0.863281 24.4199 0.863281V11.1117C31.8894 11.1117 37.961 17.057 38.1715 24.4759Z" fill="#50E6FF"/>
<path d="M24.4202 36.3657C30.6988 36.3657 35.7886 31.2759 35.7886 24.9973C35.7886 18.7187 30.6988 13.6289 24.4202 13.6289C18.1416 13.6289 13.0518 18.7187 13.0518 24.9973C13.0518 31.2759 18.1416 36.3657 24.4202 36.3657Z" fill="#50E6FF"/>
<path d="M27.3923 25.1818C26.9207 24.6849 26.1291 24.2386 25.026 23.826V20.9881C25.9018 21.106 26.6933 21.3502 27.3923 21.7797V19.7502C26.8702 19.4555 26.0786 19.2786 25.026 19.2281V17.8555H23.9228V19.2534C23.047 19.3207 22.2975 19.6323 21.7418 20.1965C21.1776 20.7607 20.8828 21.4344 20.8828 22.226C20.8828 23.0176 21.1102 23.6407 21.5818 24.1376C22.0281 24.626 22.8197 25.0807 23.9228 25.4849V28.2134C23.4765 28.1881 22.9544 28.0534 22.3733 27.8513C21.767 27.6323 21.3375 27.4302 21.0597 27.2028V29.2744C21.9186 29.7291 22.8618 29.9734 23.8975 29.9734V31.5481H25.0091V29.9313C26.0197 29.8134 26.786 29.5018 27.3081 29.0049C27.8218 28.5165 28.0912 27.8344 28.0912 27.0007C28.0912 26.2597 27.8639 25.6534 27.3923 25.1818ZM23.9228 23.3797C23.2323 23.0344 22.887 22.6134 22.887 22.066C22.887 21.4849 23.2323 21.1228 23.9228 20.9881V23.3797ZM25.0091 28.1965V25.9228C25.7249 26.2428 26.087 26.6134 26.087 27.1102C26.087 27.6997 25.7249 28.0618 25.0091 28.1965Z" fill="#0078D4"/>
<path d="M48.3779 24.8639C48.3779 24.7376 48.3779 24.6029 48.3694 24.4766H38.1715C38.1715 24.6029 38.18 24.7292 38.18 24.8639C38.18 28.5692 36.7147 31.9376 34.3315 34.405L41.5652 41.6218C45.7757 37.3018 48.3779 31.3818 48.3779 24.8639Z" fill="#50E6FF"/>
</svg>
