<svg data-slug-id="pricing07" viewBox="0 0 49 49" xmlns="http://www.w3.org/2000/svg">
<path d="M23.9268 48.7537C37.1731 48.7537 47.8341 38.0168 47.8341 24.8464C47.9099 11.6001 37.1731 0.863281 23.9268 0.863281C10.7563 0.863281 0.0195312 11.6001 0.0195312 24.7706C0.0195312 38.0168 10.7563 48.7537 23.9268 48.7537Z" fill="#50E6FF"/>
<path d="M30.2345 25.1983C29.2324 24.1204 27.5818 23.1941 25.2913 22.3352V16.3899C27.1524 16.6089 28.8029 17.1815 30.2345 18.0405V13.7457C29.1566 13.0973 27.4387 12.7436 25.2913 12.6678V9.80469H22.925V12.7436C21.064 12.8868 19.4892 13.5352 18.344 14.7478C17.7713 15.3205 17.3419 15.9689 16.9798 16.6847C16.6935 17.4005 16.4745 18.192 16.5503 18.9752C16.5503 20.6257 17.0556 21.9815 18.0577 22.9836C18.9924 23.9857 20.6345 24.9878 23.0008 25.8467V31.573C22.0661 31.4973 20.9208 31.2109 19.7082 30.7815C18.4198 30.2762 17.5608 29.9225 16.9124 29.4173V33.7878C18.7734 34.7899 20.7777 35.2951 22.8576 35.2951V38.5878H25.224V35.2193C27.3713 35.0004 28.946 34.2846 30.0913 33.2825C31.1692 32.2046 31.7418 30.8488 31.7418 29.0552C31.666 27.4215 31.2366 26.2004 30.2345 25.1983ZM22.925 21.4089C21.4934 20.6931 20.7777 19.7583 20.7777 18.6131C20.7777 17.392 21.4934 16.6089 22.925 16.3226V21.4089ZM25.2155 31.5057V26.7057C26.7229 27.3541 27.506 28.1373 27.506 29.2152C27.4387 30.5036 26.7229 31.2194 25.2155 31.5057Z" fill="#0078D4"/>
</svg>
