<svg data-slug-id="pricing11" viewBox="0 0 49 49" xmlns="http://www.w3.org/2000/svg">
<path d="M10.1314 13.4766H0.0195312V36.1545H10.1314V13.4766Z" fill="#0078D4"/>
<path d="M22.7522 6.02344H12.6572V36.2382H22.7522V6.02344Z" fill="#0078D4"/>
<path d="M35.3651 0.863281H25.3037V36.257H35.3735V0.863281H35.3651Z" fill="#0078D4"/>
<path d="M48.0027 26.1602H37.9414V36.257H47.9943V26.1602H48.0027Z" fill="#0078D4"/>
<path d="M48.0024 38.7227H7.8833V41.2406H47.9953V38.7227H48.0024Z" fill="#0078D7"/>
<path d="M11.4122 48.8558C17.6679 48.8558 22.7364 43.7863 22.7364 37.5295C22.7364 31.2726 17.6679 26.2031 11.4122 26.2031C5.15645 26.2031 0.0878906 31.2726 0.0878906 37.5295C0.0878906 43.7863 5.15645 48.8558 11.4122 48.8558Z" fill="#50E6FF"/>
<path d="M14.3748 37.7145C13.9033 37.2177 13.1202 36.7714 12.0173 36.3672V33.5377C12.8929 33.6556 13.6759 33.8998 14.3748 34.3293V32.3082C13.8527 32.0135 13.0697 31.8366 12.0173 31.7861V30.4219H10.9143V31.8114C10.0387 31.8787 9.29778 32.1903 8.74209 32.7545C8.17798 33.3187 7.8833 33.984 7.8833 34.7756C7.8833 35.5672 8.11063 36.1819 8.58212 36.6787C9.02836 37.1672 9.81137 37.6219 10.9143 38.0177V40.7377C10.4681 40.7124 9.94609 40.5777 9.37356 40.3756C8.76735 40.1566 8.33796 39.9545 8.06853 39.7272V41.7903C8.92732 42.2451 9.86189 42.4893 10.8975 42.4893V44.0556H12.0005V42.4472C13.0108 42.3293 13.7686 42.0177 14.2906 41.5208C14.8042 41.0324 15.0736 40.3503 15.0736 39.5251C15.0736 38.7924 14.8463 38.1861 14.3748 37.7145ZM10.9143 35.9208C10.2239 35.5756 9.87873 35.1545 9.87873 34.6156C9.87873 34.0345 10.2239 33.6724 10.9143 33.5377V35.9208ZM12.0005 40.7208V38.4556C12.7161 38.7756 13.0782 39.1461 13.0782 39.643C13.0782 40.224 12.7161 40.5861 12.0005 40.7208Z" fill="#0078D4"/>
</svg>
