<svg data-slug-id="pricing02" viewBox="0 0 49 49" xmlns="http://www.w3.org/2000/svg">
<path d="M5.41943 24.7633C5.41943 14.0633 14.1194 5.36328 24.8694 5.36328H24.9194V0.863281C16.1194 0.863281 8.61943 5.21328 4.21943 12.8133C-0.180566 20.4133 -0.180566 29.1133 4.21943 36.7133L8.01943 34.5133C6.36943 31.6633 5.41943 28.3133 5.41943 24.7633Z" fill="#50E6FF"/>
<path d="M24.92 0.863281V5.36328C35.62 5.36328 44.32 14.0633 44.32 24.8133C44.32 35.5633 35.62 44.2633 24.87 44.2633C17.67 44.2633 11.42 40.3633 8.07002 34.5633L4.27002 36.7633C8.62002 44.3633 16.12 48.7133 24.92 48.7133C38.12 48.7133 48.77 38.0133 48.77 24.8133C48.77 11.5633 38.07 0.863281 24.92 0.863281Z" fill="#0078D4"/>
<path d="M8.0707 34.5117L4.2207 36.7117L8.0707 34.5117Z" fill="#0078D4"/>
<path d="M27.5196 28.7633C27.5196 27.9633 26.9196 27.3133 25.7196 26.7633V30.5133C26.9196 30.3633 27.5196 29.7633 27.5196 28.7633ZM23.9196 22.5633V18.6133C22.7696 18.8133 22.1696 19.4133 22.1696 20.4133C22.1696 21.3133 22.7696 22.0133 23.9196 22.5633ZM30.8196 28.6133C30.8196 30.0133 30.3696 31.1133 29.5196 31.9633C28.6696 32.8133 27.3696 33.3133 25.7196 33.5133V36.2133H23.9196V33.5633C22.2196 33.5633 20.6196 33.1633 19.2196 32.4133V28.9633C19.6696 29.3133 20.3696 29.6633 21.3696 30.0133C22.3696 30.3633 23.2196 30.5633 23.9196 30.6133V26.0633C22.0696 25.3633 20.7696 24.6133 20.0196 23.8133C19.2696 23.0133 18.8696 21.9633 18.8696 20.6133C18.8696 19.3133 19.3196 18.1633 20.2696 17.2633C21.2196 16.3633 22.4196 15.8133 23.9196 15.6633V13.3633H25.7196V15.6133C27.4696 15.7133 28.7696 15.9633 29.6196 16.4633V19.8633C28.4696 19.1633 27.1696 18.7133 25.7196 18.5633V23.2633C27.5696 23.9133 28.8696 24.6633 29.6196 25.5133C30.4696 26.3633 30.8196 27.3633 30.8196 28.6133Z" fill="#0078D4"/>
</svg>
