<svg data-slug-id="pricing06" viewBox="0 0 49 49" xmlns="http://www.w3.org/2000/svg">
<path d="M39.7687 36.1589H11.7287L9.53809 15.9883H46.8714L39.7687 36.1589Z" fill="#0078D7"/>
<path d="M11.6445 8.88672H1.65186V12.1895H9.14211L10.2796 22.7719L13.7424 22.2832L11.6445 8.88672Z" fill="#0078D7"/>
<path d="M15.4362 46.3695C17.5209 46.3695 19.2109 44.6796 19.2109 42.5949C19.2109 40.5103 17.5209 38.8203 15.4362 38.8203C13.3516 38.8203 11.6616 40.5103 11.6616 42.5949C11.6616 44.6796 13.3516 46.3695 15.4362 46.3695Z" fill="#0078D7"/>
<path d="M35.9441 46.3695C38.0287 46.3695 39.7187 44.6796 39.7187 42.5949C39.7187 40.5103 38.0287 38.8203 35.9441 38.8203C33.8594 38.8203 32.1694 40.5103 32.1694 42.5949C32.1694 44.6796 33.8594 46.3695 35.9441 46.3695Z" fill="#0078D7"/>
<path d="M30.7788 25.8956C30.2985 25.3901 29.5065 24.9519 28.4112 24.5475V21.7418C29.3043 21.8429 30.0879 22.1125 30.7788 22.517V20.4864C30.2648 20.1831 29.4391 20.0146 28.4112 19.9809V18.6328H27.2822V20.023C26.3891 20.0904 25.6392 20.3937 25.0916 20.9667C24.822 21.2363 24.6113 21.5396 24.4428 21.8851C24.308 22.2221 24.1985 22.5928 24.2406 22.9635C24.2406 23.7387 24.4849 24.379 24.9652 24.8592C25.4117 25.3311 26.1953 25.8029 27.3327 26.2073V28.9119C26.8862 28.8782 26.3385 28.7434 25.7572 28.5412C25.1421 28.3053 24.7293 28.1368 24.4175 27.9008V29.9651C25.3106 30.4369 26.2627 30.6728 27.2569 30.6728V32.2315H28.3859V30.6391C29.4138 30.538 30.1637 30.201 30.7114 29.7208C31.2253 29.2152 31.5034 28.5749 31.5034 27.7239C31.4612 26.9403 31.259 26.3674 30.7788 25.8956ZM27.2822 24.101C26.5997 23.7639 26.2543 23.3258 26.2543 22.7782C26.2543 22.2052 26.5997 21.8345 27.2822 21.6997V24.101ZM28.3775 28.8698V26.6033C29.1021 26.9066 29.4728 27.2774 29.4728 27.7913C29.4391 28.398 29.0937 28.735 28.3775 28.8698Z" fill="#50E6FF"/>
</svg>
