<svg data-slug-id="process" xmlns="http://www.w3.org/2000/svg" viewBox="0 0 49 49">
    <path d="M48.4832 0.0869141C48.4832 13.3417 37.7379 24.0871 24.4831 24.0871C11.2282 24.0871 0.48291 13.3417 0.48291 0.0869141" fill="#0078D4"/>
    <path d="M5.53558 48.0868C8.32609 48.0868 10.5882 45.8246 10.5882 43.0341C10.5882 40.2436 8.32609 37.9814 5.53558 37.9814C2.74507 37.9814 0.48291 40.2436 0.48291 43.0341C0.48291 45.8246 2.74507 48.0868 5.53558 48.0868Z" fill="#0078D4"/>
    <path d="M18.2104 32.8857C19.6057 32.8857 20.7367 31.7546 20.7367 30.3593C20.7367 28.9641 19.6057 27.833 18.2104 27.833C16.8152 27.833 15.6841 28.9641 15.6841 30.3593C15.6841 31.7546 16.8152 32.8857 18.2104 32.8857Z" fill="#0078D4"/>
    <path d="M18.2094 17.8407C20.9999 17.8407 23.2621 15.5785 23.2621 12.788C23.2621 9.99751 20.9999 7.73535 18.2094 7.73535C15.4189 7.73535 13.1567 9.99751 13.1567 12.788C13.1567 15.5785 15.4189 17.8407 18.2094 17.8407Z" fill="#50E6FF"/>
    <path d="M30.7992 48.0868C33.5898 48.0868 35.8519 45.8246 35.8519 43.0341C35.8519 40.2436 33.5898 37.9814 30.7992 37.9814C28.0087 37.9814 25.7466 40.2436 25.7466 43.0341C25.7466 45.8246 28.0087 48.0868 30.7992 48.0868Z" fill="#0078D4"/>
    <path d="M43.4301 48.0868C46.2206 48.0868 48.4828 45.8246 48.4828 43.0341C48.4828 40.2436 46.2206 37.9814 43.4301 37.9814C40.6396 37.9814 38.3774 40.2436 38.3774 43.0341C38.3774 45.8246 40.6396 48.0868 43.4301 48.0868Z" fill="#0078D4"/>
</svg>
