<svg data-slug-id="products" xmlns="http://www.w3.org/2000/svg" viewBox="0 0 48 48">
    <path d="M41.857 39.9663C45.3829 36.0169 47.6298 30.88 47.9243 25.2379H43.0098C42.7321 29.5242 41.0239 33.4316 38.3647 36.4716L41.857 39.9663Z" fill="#0078D4"/>
    <path d="M6.15989 7.88208C2.57503 11.8484 0.302945 17.0105 0 22.7031H5.13324C5.41935 18.4252 7.11921 14.5347 9.76999 11.4947L6.15989 7.88208Z" fill="#1A1A1F"/>
    <path d="M7.96924 41.8779C11.9412 45.4316 17.0997 47.6884 22.7799 47.9663V42.9305C18.4966 42.6442 14.6088 40.9347 11.5709 38.2737L7.96924 41.8779Z" fill="#0078D4"/>
    <path d="M0 25.2379C0.29453 30.9305 2.56662 36.0927 6.14306 40.059L9.75315 36.4463C7.1108 33.4063 5.41935 29.5158 5.13324 25.2379H0Z" fill="#0078D4"/>
    <path d="M41.8401 7.97473L38.3478 11.4695C41.0154 14.5095 42.7237 18.4084 43.0014 22.7032H47.9159C47.6213 17.0526 45.3745 11.9242 41.8401 7.97473Z" fill="#1A1A1F"/>
    <path d="M25.3127 47.9495C30.9677 47.6379 36.1093 45.3558 40.0476 41.7937L36.5469 38.2905C33.5006 40.9516 29.596 42.6526 25.3043 42.9305V47.9495H25.3127Z" fill="#0078D4"/>
    <path d="M25.3128 0.00842285V5.02737C29.5961 5.30526 33.4923 6.9979 36.5386 9.65053L40.0393 6.14737C36.0926 2.59369 30.9594 0.320002 25.3128 0.00842285Z" fill="#1A1A1F"/>
    <path d="M22.7798 0C17.0996 0.277895 11.9495 2.52632 7.97754 6.07158L11.5792 9.67579C14.6087 7.02316 18.4965 5.32211 22.7714 5.02737V0H22.7798Z" fill="#1A1A1F"/>
    <path d="M36.791 25.7179C36.7994 25.6589 36.8163 25.6 36.8247 25.5495C36.892 25.1958 36.9257 24.8337 36.9257 24.4631C36.9257 21.2716 34.3422 18.6863 31.1529 18.6863C30.7069 18.6863 30.2777 18.7368 29.8653 18.8379C28.5442 16.7579 26.23 15.3853 23.5876 15.3853C19.4895 15.3853 16.1655 18.7116 16.1655 22.8126C16.1655 22.9137 16.1655 23.0147 16.1739 23.1158C15.8036 22.9895 15.3997 22.9221 14.979 22.9221C12.9593 22.9221 11.3268 24.5558 11.3268 26.5768C11.3268 28.4716 12.7742 30.0295 14.6171 30.2147L31.1529 30.2484C33.324 30.2484 35.209 29.0526 36.202 27.2842C36.2272 27.2337 36.2609 27.1832 36.2861 27.1326C36.4376 26.8126 36.6564 26.3326 36.791 25.7179Z" fill="#0078D4"/>
</svg>
