<svg data-slug-id="productive" xmlns="http://www.w3.org/2000/svg" viewBox="0 0 48 48">
  <path d="M30.6881 0H17.2119V4.51014H30.6881V0Z" fill="#50E6FF"/>
  <path d="M36.1408 11.7751C37.1884 10.5516 38.1884 9.37609 39.2837 8.05664C40.4027 9.01624 41.4741 9.92787 42.6646 10.9115C41.5456 12.2789 40.4741 13.5744 39.4265 14.8698C47.7361 25.6894 43.5218 38.3562 36.0456 43.9698C28.0456 49.9674 16.6646 49.1277 9.66458 41.8587C2.56933 34.5177 2.09314 23.1224 8.49791 15.0857C14.7836 7.24097 26.736 4.93792 36.1408 11.7751ZM23.9741 43.49C32.5932 43.538 39.4265 36.7248 39.5456 27.9684C39.6646 19.308 32.7122 12.1829 24.0932 12.1589C15.4027 12.135 8.54553 18.9961 8.49791 27.7765C8.42648 36.5569 15.2122 43.4661 23.9741 43.49Z" fill="#50E6FF"/>
  <path fill-rule="evenodd" clip-rule="evenodd" d="M24.0002 15.3735C23.9995 15.3735 23.9989 15.3735 23.9982 15.3735C17.1603 15.3735 11.6172 20.9587 11.6172 27.8484C11.6172 34.7381 17.1603 40.3233 23.9982 40.3233C23.9989 40.3233 23.9995 40.3233 24.0002 40.3233V36.005C23.9995 36.005 23.9989 36.005 23.9982 36.005C19.5273 36.005 15.9029 32.3532 15.9029 27.8484C15.9029 23.3436 19.5273 19.6918 23.9982 19.6918C23.9989 19.6918 23.9995 19.6918 24.0002 19.6918V15.3735Z" fill="#0078D4"/>
  <path d="M21.8079 15.3496C23.3317 15.3496 24.6888 15.3496 26.1888 15.3496C26.1888 17.4367 26.1412 20.8913 26.2127 22.9065C26.2365 23.4583 26.5222 24.13 26.9269 24.4898C28.2603 25.7373 28.8079 27.6086 28.165 29.3838C27.5222 31.1831 25.8317 32.3586 23.9746 32.3586C22.1174 32.3586 20.4269 31.1351 19.8317 29.3358C19.2126 27.5126 19.7365 25.7373 21.1174 24.4659C21.4984 24.13 21.7603 23.4823 21.7841 22.9785C21.8555 20.9633 21.8079 17.4847 21.8079 15.3496Z" fill="#50E6FF"/>
</svg>
