<svg data-slug-id="productivity" xmlns="http://www.w3.org/2000/svg" viewBox="0 0 48 48" >
    <path d="M42.9476 0H17.6845C14.894 0 12.6318 2.26214 12.6318 5.05263C12.6318 7.84312 14.894 10.1053 17.6845 10.1053H42.9476C45.7381 10.1053 48.0003 7.84312 48.0003 5.05263C48.0003 2.26214 45.7381 0 42.9476 0Z" fill="#0078D4"/>
    <path d="M5.05263 10.1053C7.84312 10.1053 10.1053 7.84312 10.1053 5.05263C10.1053 2.26214 7.84312 0 5.05263 0C2.26214 0 0 2.26214 0 5.05263C0 7.84312 2.26214 10.1053 5.05263 10.1053Z" fill="#0078D4"/>
    <path d="M42.9476 12.6316H17.6845C14.894 12.6316 12.6318 14.8937 12.6318 17.6842C12.6318 20.4747 14.894 22.7369 17.6845 22.7369H42.9476C45.7381 22.7369 48.0003 20.4747 48.0003 17.6842C48.0003 14.8937 45.7381 12.6316 42.9476 12.6316Z" fill="#0078D4"/>
    <path d="M5.05263 22.7369C7.84312 22.7369 10.1053 20.4747 10.1053 17.6842C10.1053 14.8937 7.84312 12.6316 5.05263 12.6316C2.26214 12.6316 0 14.8937 0 17.6842C0 20.4747 2.26214 22.7369 5.05263 22.7369Z" fill="#0078D4"/>
    <path d="M42.9476 25.2632H17.6845C14.894 25.2632 12.6318 27.5253 12.6318 30.3158C12.6318 33.1063 14.894 35.3684 17.6845 35.3684H42.9476C45.7381 35.3684 48.0003 33.1063 48.0003 30.3158C48.0003 27.5253 45.7381 25.2632 42.9476 25.2632Z" fill="#50E6FF"/>
    <path d="M5.05263 35.3684C7.84312 35.3684 10.1053 33.1063 10.1053 30.3158C10.1053 27.5253 7.84312 25.2632 5.05263 25.2632C2.26214 25.2632 0 27.5253 0 30.3158C0 33.1063 2.26214 35.3684 5.05263 35.3684Z" fill="#50E6FF"/>
    <path d="M42.9476 37.8948H17.6845C14.894 37.8948 12.6318 40.1569 12.6318 42.9474C12.6318 45.7379 14.894 48 17.6845 48H42.9476C45.7381 48 48.0003 45.7379 48.0003 42.9474C48.0003 40.1569 45.7381 37.8948 42.9476 37.8948Z" fill="#0078D4"/>
    <path d="M5.05263 48C7.84312 48 10.1053 45.7379 10.1053 42.9474C10.1053 40.1569 7.84312 37.8948 5.05263 37.8948C2.26214 37.8948 0 40.1569 0 42.9474C0 45.7379 2.26214 48 5.05263 48Z" fill="#0078D4"/>
</svg>
