<svg data-slug-id="ram" xmlns="http://www.w3.org/2000/svg" viewBox="0 0 49 48">
    <path d="M42.9489 5.06836H15.2622V20.1786H17.695V7.61059H40.4151V30.2802H27.8807V30.3559H27.8976V32.8308H27.9649H42.9489H42.9573V32.7719V5.07678V5.06836H42.9489Z" fill="#50E6FF"/>
    <path d="M5.06787 25.2793V42.9318V42.957H22.7372V25.2793H5.06787ZM20.3717 27.7121V40.3811H7.50066V27.7121H20.3717Z" fill="#50E6FF"/>
    <path d="M47.9993 10.1268H48.0077V5.07604H47.9993H45.4991V2.50855H42.9485V0.0168359V0H37.8809V0.0168359V2.51697H35.406V0.0168359V0H30.3299V0.0168359V2.51697H27.8551V0.0168359V0H22.7285V0.0168359V2.51697H20.2536V0.0168359V0H15.1608V0.0168359V2.51697H12.627V5.08445H10.1521V10.1352H12.627V12.6101H10.1521V17.7114H12.627V20.1779H10.1521H10.1016V20.1863V20.422V22.7874H7.57617V20.422V20.1863H5.06762V20.422V22.7874H2.39912V25.2707H0.0336719H0.0168359H0V27.7961H0.0168359H0.0336719H2.39912V30.3215H0.0336719H0.0168359H0V32.8638H0.0168359H0.0336719H2.39912V35.3891H0.0336719H0.0168359H0V37.9145H0.0168359H0.0336719H2.39912V40.4399H0.0336719H0.0168359H0V42.9316H0.0168359H0.0336719H2.39912V45.617H5.06762V47.9824V47.9993H7.57617V47.9824V45.617H10.1016V47.9824V47.9993H12.6438V47.9824V45.617H15.1692V47.9824V47.9993H17.6946V47.9824V45.617H20.22V47.9824V47.9993H22.7538V47.9824V45.617H25.2876V42.9401H27.653H27.8803V40.4231H27.653H25.2876V37.9145V37.8977H27.653H27.8803H27.9645V37.8809H27.9729V35.406H27.9645V35.3807H30.3299V37.9145H35.406V35.3807H37.8809V37.9145H42.9569V35.3807H45.5075V32.7712H48.0077H48.0161V27.754H48.0077H45.5075V25.2792H48.0077H48.0161V20.1779H48.0077H45.5075V17.703H48.0077H48.0161V12.6017H48.0077H45.5075V10.1268H47.9993ZM15.2618 20.22V20.4136V22.7706H12.6859V20.4136V20.1947H15.2618V20.22ZM25.2876 35.3639V32.889H27.653H27.8803H27.8972V35.3639H27.8803H27.653H25.2876ZM25.2876 30.2205V27.7625V27.6446H27.653H27.8803H27.8887V27.7625V30.2205H27.8803H27.653H25.2876ZM27.8803 25.2371H27.653H25.2876V22.7706H22.7369V20.4052V20.1863H27.8803H27.9056V25.2287H27.8803V25.2371ZM17.703 20.1947H20.3378V20.2115V20.4052V22.7622H20.2873H17.703V20.4052V20.2115V20.1947ZM5.06762 42.9653V42.9401V25.2792H22.7369V42.9569H5.06762V42.9653ZM42.9569 32.7712V32.8217H42.9485H27.9645H27.8972V30.3552H27.8803V30.2794H40.4231V7.60984H17.6946V20.1695H15.2702V5.06762H42.9569H42.9653V5.08445V32.7712H42.9569Z" fill="#0078D4"/>
    <path d="M20.3631 27.7124H7.50049V40.3814H20.3631V27.7124Z" fill="#0078D4"/>
</svg>
