<svg data-slug-id="reserved-ip" xmlns="http://www.w3.org/2000/svg" viewBox="0 0 18 18">
  <defs>
    <linearGradient id="reserved-ip:b4943fc0-ee69-42fa-ba77-41b9c6c6b321" x1="9" y1="16.007" x2="9" y2="5.707" gradientUnits="userSpaceOnUse">
      <stop offset="0" stop-color="#32bedd"/>
      <stop offset="0.175" stop-color="#32caea"/>
      <stop offset="0.41" stop-color="#32d2f2"/>
      <stop offset="0.775" stop-color="#32d4f5"/>
    </linearGradient>
  </defs>
   
  
    <path d="M.285,5.707H17.715a0,0,0,0,1,0,0v10.08a.22.22,0,0,1-.22.22H.505a.22.22,0,0,1-.22-.22V5.707A0,0,0,0,1,.285,5.707Z" fill="url(#reserved-ip:b4943fc0-ee69-42fa-ba77-41b9c6c6b321)"/>
    <path d="M.509,1.993H17.491a.22.22,0,0,1,.22.22V5.707a0,0,0,0,1,0,0H.289a0,0,0,0,1,0,0V2.213A.22.22,0,0,1,.509,1.993Z" fill="#0078d4"/>
    
      <circle cx="12.917" cy="10.218" r="1.416" fill="#0078d4"/>
      <circle cx="9.058" cy="10.218" r="1.416" fill="#0078d4"/>
      <circle cx="5.083" cy="10.218" r="1.416" fill="#0078d4"/>
    
    <rect x="2.63" y="3.102" width="12.739" height="1.496" rx="0.11" fill="#f2f2f2"/>
  
</svg>
