<svg data-slug-id="results" xmlns="http://www.w3.org/2000/svg" viewBox="0 0 48 49">
    <path d="M41.6338 48.4827H6.33276V0.533203H30.7201L32.9264 7.65741L41.6338 11.4806V48.4827Z" fill="#0078D4"/>
    <path d="M41.6337 11.4469H30.72V0.533203L41.6337 11.4469Z" fill="#50E6FF"/>
    <path d="M33.9958 22.6132C33.9958 21.8132 33.3474 21.1648 32.5474 21.1648H15.259C14.459 21.1648 13.8105 21.8132 13.8105 22.6132C13.8105 23.4132 14.459 24.0616 15.259 24.0616H32.5474C33.3474 24.0616 33.9958 23.4132 33.9958 22.6132Z" fill="white"/>
    <path d="M25.28 22.6132C25.28 24.2048 26.5684 25.4932 28.16 25.4932C29.7516 25.4932 31.04 24.2048 31.04 22.6132C31.04 21.0216 29.7516 19.7332 28.16 19.7332C26.5684 19.7248 25.28 21.0216 25.28 22.6132Z" fill="#50E6FF"/>
    <path d="M33.9958 31.1437C33.9958 30.3437 33.3474 29.6953 32.5474 29.6953H15.259C14.459 29.6953 13.8105 30.3437 13.8105 31.1437C13.8105 31.9437 14.459 32.5922 15.259 32.5922H32.5474C33.3474 32.5922 33.9958 31.9437 33.9958 31.1437Z" fill="white"/>
    <path d="M16.699 31.1351C16.699 32.7267 17.9874 34.0151 19.579 34.0151C21.1706 34.0151 22.459 32.7267 22.459 31.1351C22.459 29.5435 21.1706 28.2551 19.579 28.2551C17.9874 28.2551 16.699 29.5435 16.699 31.1351Z" fill="#50E6FF"/>
</svg>
