<svg data-slug-id="retailers" xmlns="http://www.w3.org/2000/svg" viewBox="0 0 96 97">
    <path fill-rule="evenodd" clip-rule="evenodd" d="M0 21.8786H6V0.878601H0V21.8786Z" fill="#50E6FF"/>
    <path fill-rule="evenodd" clip-rule="evenodd" d="M0 6.8786H21V0.878601H0V6.8786Z" fill="#50E6FF"/>
    <path fill-rule="evenodd" clip-rule="evenodd" d="M0 96.8786H21V90.8786H0V96.8786Z" fill="#50E6FF"/>
    <path fill-rule="evenodd" clip-rule="evenodd" d="M0 96.8786H6V75.8786H0V96.8786Z" fill="#50E6FF"/>
    <path fill-rule="evenodd" clip-rule="evenodd" d="M90 21.8786H96V0.878601H90V21.8786Z" fill="#50E6FF"/>
    <path fill-rule="evenodd" clip-rule="evenodd" d="M75 6.8786H96V0.878601H75V6.8786Z" fill="#50E6FF"/>
    <path fill-rule="evenodd" clip-rule="evenodd" d="M75 96.8786H96V90.8786H75V96.8786Z" fill="#50E6FF"/>
    <path fill-rule="evenodd" clip-rule="evenodd" d="M90 96.8786H96V75.8786H90V96.8786Z" fill="#50E6FF"/>
    <path fill-rule="evenodd" clip-rule="evenodd" d="M15 69.8786H30V30.8786H15V69.8786Z" fill="#0078D4"/>
    <path fill-rule="evenodd" clip-rule="evenodd" d="M33 69.8786H39V30.8786H33V69.8786Z" fill="#0078D4"/>
    <path fill-rule="evenodd" clip-rule="evenodd" d="M42 69.8786H45V30.8786H42V69.8786Z" fill="#0078D4"/>
    <path fill-rule="evenodd" clip-rule="evenodd" d="M48 69.8786H51V30.8786H48V69.8786Z" fill="#0078D4"/>
    <path fill-rule="evenodd" clip-rule="evenodd" d="M54 69.8786H63V30.8786H54V69.8786Z" fill="#0078D4"/>
    <path fill-rule="evenodd" clip-rule="evenodd" d="M66 69.8786H69V30.8786H66V69.8786Z" fill="#0078D4"/>
    <path fill-rule="evenodd" clip-rule="evenodd" d="M72 69.8786H81V30.8786H72V69.8786Z" fill="#0078D4"/>
</svg>
