<svg data-slug-id="sap-alt" viewBox="0 0 36 36" xmlns="http://www.w3.org/2000/svg">
    <defs>
        <linearGradient id="sap-alt:b1215f40-f64b-4fcd-ab45-7553c8120aa1" x1="17.7977" y1="9" x2="17.7977" y2="26.6091" gradientUnits="userSpaceOnUse">
            <stop offset="0" stop-color="#00AEEF"/>
            <stop offset="0.212" stop-color="#0097DC"/>
            <stop offset="0.519" stop-color="#007CC5"/>
            <stop offset="0.792" stop-color="#006CB8"/>
            <stop offset="1" stop-color="#0066B3"/>
        </linearGradient>
    </defs>
    <path fill-rule="evenodd" clip-rule="evenodd" d="M0 26.6087H17.9898L35.5954 9H0V26.6087Z" fill="url(#sap-alt:b1215f40-f64b-4fcd-ab45-7553c8120aa1)"/>
    <path fill-rule="evenodd" clip-rule="evenodd" d="M21.1243 12.5219H17.6088L17.6205 20.7902L14.5594 12.5192H11.524L8.9109 19.4269C8.63307 17.6691 6.81585 17.0626 5.38603 16.6083C4.44181 16.305 3.43968 15.859 3.44985 15.3659C3.45768 14.9613 3.98594 14.586 5.03581 14.642C5.74016 14.68 6.36233 14.7367 7.60003 15.3346L8.81698 13.2137C7.68846 12.6393 6.12794 12.2766 4.84837 12.2754H4.84055C3.34851 12.2754 2.10611 12.7587 1.33603 13.555C0.799157 14.1106 0.509592 14.8173 0.497853 15.5987C0.478288 16.674 0.872331 17.4363 1.70033 18.0456C2.39998 18.5582 3.2949 18.8908 4.08337 19.135C5.05577 19.4363 5.85011 19.6984 5.84033 20.2564C5.83251 20.4599 5.75581 20.6501 5.60946 20.8035C5.36685 21.0539 4.99511 21.1478 4.48055 21.158C3.48781 21.1791 2.75216 21.023 1.57981 20.33L0.49707 22.4783C1.66824 23.1443 2.91142 23.4784 4.32403 23.4784L4.64177 23.4761C5.87124 23.4538 6.86907 23.1591 7.66185 22.5213C7.70724 22.4849 7.74794 22.4481 7.7902 22.411L7.65716 23.0965L10.6232 23.0871L11.1554 21.7246C11.715 21.9156 12.3512 22.0212 13.0266 22.0212C13.6848 22.0212 14.3039 21.921 14.8529 21.741L15.2238 23.0871L20.5455 23.0922L20.5585 19.986H21.6909C24.4281 19.986 26.0461 18.593 26.0461 16.2569C26.0453 13.6551 24.4723 12.5219 21.1243 12.5219ZM13.0266 19.5897C12.6177 19.5897 12.2342 19.5184 11.9044 19.3932L13.0141 15.8891H13.0356L14.1274 19.403C13.7987 19.5204 13.4242 19.5897 13.0262 19.5897H13.0266ZM21.3301 17.5764H20.5577V14.7523H21.3305C22.3596 14.7523 23.1814 15.0951 23.1814 16.1462C23.1806 17.234 22.3596 17.5764 21.3305 17.5764" fill="white"/>
</svg>
