<svg data-slug-id="sap" xmlns="http://www.w3.org/2000/svg" viewBox="0 0 48 48">
    <path fill-rule="evenodd" clip-rule="evenodd" d="M0 38.7309H24.2799L48 15H0V38.7309Z" fill="#002169"/>
    <path fill-rule="evenodd" clip-rule="evenodd" d="M28.4778 19.4812H23.7897V30.6816L19.6614 19.4812H15.6031L12.1045 28.8615C11.7547 26.4814 9.3057 25.7114 7.3465 25.0814C6.08701 24.6614 4.75756 24.0313 4.75756 23.4013C4.75756 22.8413 5.45727 22.3513 6.92667 22.4213C7.90627 22.4913 8.74593 22.5613 10.3552 23.3313L11.8946 20.4612C10.3552 19.6912 8.25613 19.2011 6.57681 19.2011C4.54764 19.2011 2.86833 19.8312 1.81876 20.9512C1.11905 21.6512 0.699219 22.6313 0.699219 23.6813C0.699219 25.1514 1.18902 26.1314 2.30856 26.9715C3.21819 27.6715 4.47767 28.0915 5.52724 28.4415C6.8567 28.8615 7.90627 29.2115 7.90627 29.9816C7.90627 30.2616 7.76633 30.5416 7.62638 30.7516C7.27653 31.1016 6.78673 31.2416 6.08701 31.2416C4.75756 31.2416 3.77796 31.0316 2.16862 30.1216L0.699219 32.9917C2.30856 33.9017 4.12782 34.3917 6.01704 34.3917H6.22696C7.90627 34.3917 9.23573 33.9017 10.2853 32.9917C10.3552 32.9217 10.4252 32.9217 10.4252 32.8517L9.93543 34.1117H14.2037L14.9034 31.9417C15.6731 32.2217 16.5127 32.3617 17.4223 32.3617C18.332 32.3617 19.1716 32.2217 19.8713 32.0117L20.5711 34.1817H27.5682V29.6316H29.1076C32.816 29.6316 34.9852 27.7415 34.9852 24.5914C35.1251 21.0912 32.956 19.4812 28.4778 19.4812ZM17.5623 29.0715C17.0025 29.0715 16.5127 29.0015 16.0229 28.7915L17.4923 24.1013L18.9617 28.8615C18.6119 29.0015 18.1221 29.0715 17.5623 29.0715ZM28.7577 26.3414H27.7081V22.5613H28.7577C30.1571 22.5613 31.2767 23.0513 31.2767 24.4514C31.2767 25.9214 30.1571 26.3414 28.7577 26.3414Z" fill="white"/>
    <path d="M30.0884 37.1905C30.0884 36.4905 30.6482 35.9305 31.3479 35.9305C32.0476 35.9305 32.6074 36.4905 32.6074 37.1905C32.6074 37.9606 32.0476 38.4506 31.3479 38.4506C30.6482 38.4506 30.0884 37.9606 30.0884 37.1905ZM31.3479 38.7306C32.1876 38.7306 32.8873 38.1006 32.8873 37.1905C32.8873 36.2805 32.1876 35.6505 31.3479 35.6505C30.5083 35.6505 29.8086 36.2805 29.8086 37.1905C29.8086 38.1006 30.5083 38.7306 31.3479 38.7306ZM30.9981 37.3305H31.278L31.7677 38.1006H32.0476L31.5578 37.3305C31.8377 37.3305 32.0476 37.1905 32.0476 36.8405C32.0476 36.4905 31.8377 36.3505 31.4179 36.3505H30.7182V38.1006H30.9981V37.3305ZM30.9981 37.0505V36.4905H31.3479C31.5578 36.4905 31.6978 36.5605 31.6978 36.7705C31.6978 37.0505 31.4879 37.0505 31.278 37.0505H30.9981Z" fill="#002169"/>
</svg>
