<svg data-slug-id="scale11" viewBox="0 0 49 49" xmlns="http://www.w3.org/2000/svg">
<path d="M32.8719 30.8101C41.2375 30.8101 48.0191 24.0285 48.0191 15.6629C48.0191 7.29728 41.2375 0.515625 32.8719 0.515625C24.5063 0.515625 17.7246 7.29728 17.7246 15.6629C17.7246 24.0285 24.5063 30.8101 32.8719 30.8101Z" fill="#50E6FF"/>
<path d="M10.1506 43.4302C12.9392 43.4302 15.1997 41.1696 15.1997 38.3811C15.1997 35.5926 12.9392 33.332 10.1506 33.332C7.36211 33.332 5.10156 35.5926 5.10156 38.3811C5.10156 41.1696 7.36211 43.4302 10.1506 43.4302Z" fill="#0078D4"/>
<path d="M2.54407 48.5061C3.93834 48.5061 5.06862 47.3758 5.06862 45.9816C5.06862 44.5873 3.93834 43.457 2.54407 43.457C1.14981 43.457 0.0195312 44.5873 0.0195312 45.9816C0.0195312 47.3758 1.14981 48.5061 2.54407 48.5061Z" fill="#0078D4"/>
</svg>
