<svg data-slug-id="scale-lever" xmlns="http://www.w3.org/2000/svg" viewBox="0 0 85 85">
  <path d="m66.192 3.21275-27.1669 40.16115 4.4134 2.9854 27.1668-40.16118z" fill="#50e6ff"/>
  <path d="m66.0069 15.2621c3.9725 0 7.193-3.2204 7.193-7.19299s-3.2205-7.193011-7.193-7.193011c-3.9726 0-7.1931 3.220421-7.1931 7.193011s3.2205 7.19299 7.1931 7.19299z" fill="#1f1d21"/>
  <path d="m41.5637 36.4417c5.9275 0 10.7229 4.7288 10.8561 10.5897h6.86c-.1998-9.6573-8.0589-17.3831-17.7161-17.3831-9.6573 0-17.5164 7.7258-17.7162 17.3165h6.86c.1332-5.8609 4.9286-10.5231 10.8562-10.5231z" fill="#1f1d21"/>
  <path d="m41.5639 36.4415c-5.9276 0-10.7229 4.7288-10.8561 10.5897h2.9305c.1998-4.2625 3.6631-7.6592 7.9256-7.6592s7.7924 3.3967 7.9256 7.6592h2.9305c-.1998-5.9275-4.9951-10.5897-10.8561-10.5897z" fill="#e7e8ea"/>
  <path d="m41.5638 39.3722c-4.2625 0-7.7924 3.3967-7.9256 7.6592h15.9179c-.1999-4.2625-3.7298-7.6592-7.9923-7.6592z" fill="#1f1d21"/>
  <path d="m66.192 3.21275-27.1669 40.16115 4.4134 2.9854 27.1668-40.16118z" fill="#0078d4"/>
  <path d="m66.0069 15.2621c3.9725 0 7.193-3.2204 7.193-7.19299s-3.2205-7.193011-7.193-7.193011c-3.9726 0-7.1931 3.220421-7.1931 7.193011s3.2205 7.19299 7.1931 7.19299z" fill="#0078d4"/>
  <path d="m41.5637 36.4417c5.9275 0 10.7229 4.7288 10.8561 10.5897h6.86c-.1998-9.6573-8.0589-17.3831-17.7161-17.3831-9.6573 0-17.5164 7.7258-17.7162 17.3165h6.86c.1332-5.8609 4.9286-10.5231 10.8562-10.5231z" fill="#50e6ff"/>
  <path d="m41.5639 36.4415c-5.9276 0-10.7229 4.7288-10.8561 10.5897h2.9305c.1998-4.2625 3.6631-7.6592 7.9256-7.6592s7.7924 3.3967 7.9256 7.6592h2.9305c-.1998-5.9275-4.9951-10.5897-10.8561-10.5897z" fill="#0078d4"/>
  <path d="m41.5638 39.3722c-4.2625 0-7.7924 3.3967-7.9256 7.6592h15.9179c-.1999-4.2625-3.7298-7.6592-7.9923-7.6592z" fill="#50e6ff"/>
  <g fill="#0078d4">
    <path d="m76.9534 49.5574v-3.6195h-69.44083v3.6195z"/>
    <path d="m76.96 75.8363h-14.6121v3.4854h14.6121z"/>
    <path d="m71.3984 84.8761v-14.6121h-3.4854v14.6121z"/>
    <path d="m22.1188 75.8192h-14.61209v3.4855h14.61209z"/>
    <path d="m7.5968 56.0903v10.8915h18.0917v-10.8915z"/>
  </g>
  <path d="m58.8622 56.1025v10.8915h18.0916v-10.8915z" fill="#50e6ff"/>
  <path d="m33.2294 56.1025v10.8915h18.0916v-10.8915z" fill="#0078d4"/>
  <path d="m33.2294 56.1022v5.5554h18.0916v-5.5554z" fill="#50e6ff"/>
</svg>
