<svg data-slug-id="scale09" viewBox="0 0 49 49" xmlns="http://www.w3.org/2000/svg">
<path d="M47.9434 29.1484H35.4297V33.1232C35.4297 34.8579 38.2339 36.2558 41.7034 36.2558C45.1728 36.2558 47.9771 34.8495 47.9771 33.1232C47.9771 33.1148 47.9686 29.1737 47.9434 29.1484Z" fill="#0078D7"/>
<path d="M47.9686 28.4414L47.9771 31.9193C47.9771 33.654 45.1728 35.0519 41.7034 35.0519C38.2339 35.0519 35.4297 33.6456 35.4297 31.9193V28.4414H47.9686Z" fill="#50E6FF"/>
<path d="M47.9439 24.8555H35.4302V28.8302C35.4302 30.5649 38.2344 31.9628 41.7039 31.9628C45.1733 31.9628 47.9775 30.5565 47.9775 28.8302C47.9775 28.8218 47.9691 24.8807 47.9439 24.8555Z" fill="#0078D7"/>
<path d="M47.9771 22.3867H35.4297V25.6794C35.4297 27.4141 38.2339 28.812 41.7034 28.812C45.1728 28.812 47.9771 27.4057 47.9771 25.6794C47.9771 25.6794 47.9771 22.412 47.9771 22.3867Z" fill="#50E6FF"/>
<path d="M41.7039 25.7301C45.1687 25.7301 47.9775 24.3276 47.9775 22.5975C47.9775 20.8674 45.1687 19.4648 41.7039 19.4648C38.239 19.4648 35.4302 20.8674 35.4302 22.5975C35.4302 24.3276 38.239 25.7301 41.7039 25.7301Z" fill="#0078D7"/>
<path d="M31.1523 30.4883H21.0723V33.6883C21.0723 35.0862 23.3375 36.2146 26.1249 36.2146C28.9123 36.2146 31.1775 35.0862 31.1775 33.6883C31.1775 33.6883 31.1691 30.5051 31.1523 30.4883Z" fill="#0078D7"/>
<path d="M31.1691 29.918L31.1775 32.7222C31.1775 34.1201 28.9123 35.2485 26.1249 35.2485C23.3375 35.2485 21.0723 34.1201 21.0723 32.7222V29.9264H31.1691" fill="#50E6FF"/>
<path d="M31.1523 27.0273H21.0723V30.2273C21.0723 31.6252 23.3375 32.7537 26.1249 32.7537C28.9123 32.7537 31.1775 31.6252 31.1775 30.2273C31.1775 30.2273 31.1691 27.0526 31.1523 27.0273Z" fill="#0078D7"/>
<path d="M31.1775 25.0508H21.0723V27.7034C21.0723 29.1013 23.3375 30.2297 26.1249 30.2297C28.9123 30.2297 31.1775 29.1013 31.1775 27.7034C31.1775 27.7034 31.1775 25.0676 31.1775 25.0508Z" fill="#50E6FF"/>
<path d="M26.1249 27.7362C28.9154 27.7362 31.1775 26.6052 31.1775 25.2099C31.1775 23.8147 28.9154 22.6836 26.1249 22.6836C23.3344 22.6836 21.0723 23.8147 21.0723 25.2099C21.0723 26.6052 23.3344 27.7362 26.1249 27.7362Z" fill="#0078D7"/>
<path d="M16.5074 31.9219H8.94531V34.3219C8.94531 35.3661 10.6379 36.2166 12.7348 36.2166C14.8316 36.2166 16.5243 35.3661 16.5243 34.3219C16.5243 34.3219 16.5243 31.9387 16.5074 31.9219Z" fill="#0078D7"/>
<path d="M16.5246 31.4922L16.533 33.589C16.533 34.6332 14.8404 35.4838 12.7436 35.4838C10.6467 35.4838 8.9541 34.6332 8.9541 33.589V31.4922H16.5246Z" fill="#50E6FF"/>
<path d="M16.5074 29.3281H8.94531V31.7281C8.94531 32.7723 10.6379 33.6229 12.7348 33.6229C14.8316 33.6229 16.5243 32.7723 16.5243 31.7281C16.5243 31.7281 16.5243 29.345 16.5074 29.3281Z" fill="#0078D7"/>
<path d="M16.5247 27.8359H8.9458V29.8233C8.9458 30.8675 10.6384 31.718 12.7353 31.718C14.8321 31.718 16.5247 30.8675 16.5247 29.8233C16.5247 29.8233 16.5247 27.8528 16.5247 27.8359Z" fill="#50E6FF"/>
<path d="M12.7348 29.8559C14.8277 29.8559 16.5243 29.0076 16.5243 27.9611C16.5243 26.9147 14.8277 26.0664 12.7348 26.0664C10.6419 26.0664 8.94531 26.9147 8.94531 27.9611C8.94531 29.0076 10.6419 29.8559 12.7348 29.8559Z" fill="#0078D7"/>
<path d="M5.05509 33.4023H0.103516V34.9771C0.103516 35.6592 1.21509 36.215 2.58773 36.215C3.96036 36.215 5.07194 35.6592 5.07194 34.9687C5.07194 34.9687 5.07194 33.4108 5.05509 33.4023Z" fill="#0078D7"/>
<path d="M5.07194 33.1172V34.4898C5.07194 35.1719 3.96036 35.7277 2.58773 35.7277C1.21509 35.7277 0.103516 35.1803 0.103516 34.4982V33.1256H5.07194" fill="#50E6FF"/>
<path d="M5.05509 31.7031H0.103516V33.2779C0.103516 33.96 1.21509 34.5158 2.58773 34.5158C3.96036 34.5158 5.07194 33.96 5.07194 33.2779C5.07194 33.2779 5.07194 31.7115 5.05509 31.7031Z" fill="#0078D7"/>
<path d="M5.07194 30.7266H0.103516V32.0318C0.103516 32.7139 1.21509 33.2697 2.58773 33.2697C3.96036 33.2697 5.07194 32.7139 5.07194 32.0318C5.07194 32.0318 5.07194 30.735 5.07194 30.7266Z" fill="#50E6FF"/>
<path d="M2.58773 32.0461C3.95972 32.0461 5.07194 31.4919 5.07194 30.8082C5.07194 30.1245 3.95972 29.5703 2.58773 29.5703C1.21573 29.5703 0.103516 30.1245 0.103516 30.8082C0.103516 31.4919 1.21573 32.0461 2.58773 32.0461Z" fill="#0078D7"/>
<path d="M12.685 42.4297C11.9861 42.4297 11.4219 42.9939 11.4219 43.6928C11.4219 44.3918 11.9861 44.956 12.685 44.956C13.384 44.956 13.9482 44.3918 13.9482 43.6928C13.9482 42.9939 13.384 42.4297 12.685 42.4297Z" fill="#0078D7"/>
<path d="M10.2769 44.4668C10.2011 44.2226 10.1506 43.9616 10.1506 43.6921C10.1506 43.5237 10.1674 43.3637 10.2011 43.2037H2.54634V41.25L0.0537109 43.7511L2.54634 46.2521V44.4753H10.2769V44.4668Z" fill="#50E6FF"/>
<path d="M15.1689 43.2031C15.2026 43.3631 15.2195 43.5231 15.2195 43.6915C15.2195 43.961 15.1774 44.2221 15.1016 44.4663H23.4047V43.2031H15.1689Z" fill="#0078D4"/>
<path d="M36.0029 43.2031H24.6514V44.4663H36.0029V43.2031Z" fill="#0078D4"/>
<path d="M48.0193 43.7504L45.5267 41.2578V43.2031H37.2656V44.4662H45.5267V46.2515L48.0193 43.7504Z" fill="#0078D4"/>
</svg>
