<svg data-slug-id="scale08" viewBox="0 0 49 49" xmlns="http://www.w3.org/2000/svg">
<path d="M25.2949 0.507812H48.0195V23.2451H25.2949V0.507812Z" fill="#0078D4"/>
<path d="M25.2949 25.7695H48.0195V48.5068H25.2949V25.7695Z" fill="#0078D4"/>
<path d="M0.0195351 25.7695H22.7441V48.5068H0.0195351V25.7695Z" fill="#0078D4"/>
<path d="M25.2949 25.7695H48.0195V48.5068H25.2949V25.7695Z" fill="#0078D4"/>
<path d="M3.60596 13.6689H3.64806C3.45441 13.1974 3.35337 12.6921 3.35337 12.1531C3.35337 9.9215 5.16359 8.11094 7.3948 8.11094C7.8663 8.11094 8.32096 8.19515 8.74194 8.33831C9.85333 6.96565 11.5457 6.08984 13.4485 6.08984C16.7911 6.08984 19.5022 8.80148 19.5022 12.1447C19.5022 12.6668 19.4349 13.1805 19.3086 13.6605C20.5379 13.6942 21.5229 14.6963 21.5229 15.9343C21.5229 17.189 20.5042 18.208 19.2496 18.208H3.59754C2.34301 18.208 1.32424 17.189 1.32424 15.9343C1.33265 14.6879 2.35143 13.6689 3.60596 13.6689Z" fill="#50E6FF"/>
</svg>
