<svg data-slug-id="screen-chart" xmlns="http://www.w3.org/2000/svg" viewBox="0 0 48 48">
    <path d="M44.8872 42.898H3.07019C1.4214 42.898 0.0838623 41.5619 0.0838623 39.9148V8.05766C0.0838623 6.4106 1.4214 5.07446 3.07019 5.07446H44.8872C46.536 5.07446 47.8736 6.4106 47.8736 8.05766V39.9148C47.8736 41.5619 46.536 42.898 44.8872 42.898Z" fill="#0078D4"/>
    <path d="M15.1172 24.3618L19.5084 28.4122L26.3727 21.5382L30.3012 25.1937L42.97 11.5466V35.3365H4.99731L15.1172 24.3618Z" fill="#50E6FF"/>
    <path d="M29.7037 38.4714H18.28C17.9351 38.4714 17.649 38.1857 17.649 37.8412C17.649 37.4967 17.9351 37.2109 18.28 37.2109H29.7037C30.0486 37.2109 30.3346 37.4967 30.3346 37.8412C30.3346 38.1857 30.0486 38.4714 29.7037 38.4714Z" fill="white"/>
</svg>
