<svg data-slug-id="screen-shapes" xmlns="http://www.w3.org/2000/svg" viewBox="0 0 72 54">
    <path fill-rule="evenodd" clip-rule="evenodd" d="M0 53.2241H72V7.28662H0V53.2241Z" fill="#0078D4"/>
    <path fill-rule="evenodd" clip-rule="evenodd" d="M0 7.28662H71.9927V0.724121H0V7.28662Z" fill="#50E6FF"/>
    <path fill-rule="evenodd" clip-rule="evenodd" d="M4.48718 4.00555C4.48718 4.6093 3.98375 5.0993 3.36218 5.0993C2.74118 5.0993 2.23718 4.6093 2.23718 4.00555C2.23718 3.4018 2.74118 2.9118 3.36218 2.9118C3.98375 2.9118 4.48718 3.4018 4.48718 4.00555Z" fill="#0078D4"/>
    <path fill-rule="evenodd" clip-rule="evenodd" d="M7.86218 4.00555C7.86218 4.6093 7.35875 5.0993 6.73718 5.0993C6.11618 5.0993 5.61218 4.6093 5.61218 4.00555C5.61218 3.4018 6.11618 2.9118 6.73718 2.9118C7.35875 2.9118 7.86218 3.4018 7.86218 4.00555Z" fill="#0078D4"/>
    <path fill-rule="evenodd" clip-rule="evenodd" d="M11.2372 4.00555C11.2372 4.6093 10.7337 5.0993 10.1122 5.0993C9.49118 5.0993 8.98718 4.6093 8.98718 4.00555C8.98718 3.4018 9.49118 2.9118 10.1122 2.9118C10.7337 2.9118 11.2372 3.4018 11.2372 4.00555Z" fill="#0078D4"/>
    <path fill-rule="evenodd" clip-rule="evenodd" d="M4.48718 37.9625H22.4872V20.4625H4.48718V37.9625Z" fill="#50E6FF"/>
    <path fill-rule="evenodd" clip-rule="evenodd" d="M58.4872 37.9626C53.5169 37.9626 49.4872 34.0453 49.4872 29.2126C49.4872 24.3804 53.5169 20.4626 58.4872 20.4626C63.458 20.4626 67.4872 24.3804 67.4872 29.2126C67.4872 34.0453 63.458 37.9626 58.4872 37.9626Z" fill="#50E6FF"/>
    <path fill-rule="evenodd" clip-rule="evenodd" d="M29.2372 20.4626V37.9626H47.2372L29.2372 20.4626Z" fill="#50E6FF"/>
</svg>
