<svg data-slug-id="search-bar-graph" xmlns="http://www.w3.org/2000/svg" viewBox="0 0 48 48">
	<path d="M18.0477 33.9519C26.837 33.9519 33.9621 26.8267 33.9621 18.0375C33.9621 9.24817 26.837 2.12305 18.0477 2.12305C9.25843 2.12305 2.1333 9.24817 2.1333 18.0375C2.1333 26.8267 9.25843 33.9519 18.0477 33.9519Z" fill="#F8F7F6"/>
	<path d="M47.6413 44.42L31.9474 28.7288C34.218 25.7742 35.5704 22.0684 35.5704 18.0538C35.5704 8.3637 27.7067 0.509766 18.0149 0.509766C8.32308 0.509766 0.467773 8.3637 0.467773 18.0538C0.467773 27.744 8.32308 35.5979 18.0149 35.5979C21.905 35.5979 25.4946 34.3292 28.4079 32.1926L44.1353 47.9171L47.6413 44.42ZM5.50986 18.0538C5.50986 11.143 11.1113 5.54262 18.0233 5.54262C24.9353 5.54262 30.5366 11.143 30.5366 18.0538C30.5366 24.9646 24.9269 30.565 18.0149 30.565C11.1113 30.565 5.50986 24.9646 5.50986 18.0538Z" fill="#0078D4"/>
	<path d="M14.25 10.543H11.8291V25.533H14.25V10.543Z" fill="#0078D4"/>
	<path d="M19.2583 15.6328H16.8374V25.5316H19.2583V15.6328Z" fill="#50E6FF"/>
	<path d="M24.334 20.666H21.9131V25.5319H24.334V20.666Z" fill="#50E6FF"/>
</svg>
