<svg data-slug-id="search-alt" xmlns="http://www.w3.org/2000/svg" viewBox="0 0 49 49">
    <path d="M23.5964 31.4034L12.0862 42.9181C11.2293 43.7753 10.0671 44.2569 8.85527 44.2569C7.64346 44.2569 6.48127 43.7753 5.62436 42.9181V42.9181C4.7675 42.0608 4.28613 40.898 4.28613 39.6857C4.28613 38.4733 4.7675 37.3106 5.62436 36.4533L17.1338 24.9379" fill="#0078D4"/>
    <path d="M29.8086 23.2943C32.3322 23.2943 34.378 21.2476 34.378 18.7229C34.378 16.1982 32.3322 14.1515 29.8086 14.1515C27.285 14.1515 25.2393 16.1982 25.2393 18.7229C25.2393 21.2476 27.285 23.2943 29.8086 23.2943Z" fill="#50E6FF"/>
    <path d="M29.8238 7.29436C35.8477 7.29436 40.8496 12.0182 41.2114 18.0372C41.3014 19.5353 41.0956 21.0365 40.6057 22.4551C40.1158 23.8736 39.3514 25.1817 38.3562 26.3047C37.361 27.4277 36.1545 28.3436 34.8055 29.0001C33.4564 29.6566 31.9914 30.0409 30.494 30.1309C30.2609 30.1446 30.0256 30.1523 29.7941 30.1523C26.8228 30.1519 23.9685 28.9933 21.8369 26.9223C19.7054 24.8513 18.4643 22.0308 18.377 19.0595C18.2897 16.0881 19.3631 13.1996 21.3694 11.0069C23.3757 8.8142 26.157 7.48988 29.1231 7.31493C29.3554 7.30122 29.5907 7.2936 29.823 7.2936L29.8238 7.29436ZM29.823 2.72217C29.5001 2.72217 29.1757 2.73207 28.8497 2.75188C20.0332 3.28522 13.3139 10.8608 13.847 19.6814C14.3542 28.1759 21.3987 34.7229 29.7933 34.7229C30.1162 34.7229 30.4406 34.713 30.7666 34.6932C39.5832 34.1637 46.3024 26.5843 45.7693 17.7637C45.2629 9.26998 38.2184 2.72293 29.8238 2.72293L29.823 2.72217Z" fill="#0078D4"/>
</svg>
