<svg data-slug-id="security14" viewBox="0 0 49 49" xmlns="http://www.w3.org/2000/svg">
<path d="M37.0149 10.624C36.191 10.624 35.4003 10.7156 34.6346 10.907C32.196 7.06189 27.9181 4.52344 23.0243 4.52344C15.4422 4.52344 9.30002 10.674 9.30002 18.256C9.30002 18.4391 9.30002 18.6306 9.31667 18.8137C8.6342 18.5806 7.88515 18.4558 7.10281 18.4558C3.3742 18.4641 0.353027 21.4853 0.353027 25.2222C0.353027 28.7261 3.03296 31.6058 6.43699 31.947L22.5665 31.9803V25.1307C22.5665 18.9801 27.5519 13.9864 33.7108 13.9864C39.8696 13.9864 44.855 18.9718 44.855 25.1307V28.5846C45.4292 27.9604 45.9369 27.2696 46.3531 26.5289C46.403 26.4373 46.4613 26.3458 46.5112 26.2459C46.7942 25.655 47.1937 24.7645 47.4434 23.6326C47.46 23.5244 47.4933 23.4162 47.5016 23.3246C47.6265 22.6671 47.6847 22.0013 47.6847 21.3188C47.693 15.4096 42.9158 10.624 37.0149 10.624Z" fill="#50E6FF"/>
<path d="M42.5252 24.7585C42.5252 19.9562 38.5968 16.0195 33.7946 16.0195C29.4834 16.0195 25.8879 19.1905 25.1971 23.3186H28.7759C29.0173 22.4697 29.475 21.704 30.1076 21.0631C31.098 20.0727 32.4047 19.5317 33.8029 19.5317C35.1928 19.5317 36.4995 20.0811 37.4982 21.0631C38.4886 22.0536 39.0296 23.3602 39.0296 24.7585C39.0296 25.0331 39.0296 25.8238 39.0296 26.8641H25.064V44.3753H42.5085V27.9877C42.5252 26.4064 42.5252 25.1247 42.5252 24.7585Z" fill="#0078D4"/>
<path d="M33.7532 37.7662C34.9267 37.7662 35.8922 36.8091 35.8922 35.6272C35.8922 34.4537 34.9434 33.4883 33.7532 33.4883C32.5797 33.4883 31.6143 34.4371 31.6143 35.6272C31.6143 36.8091 32.5714 37.7662 33.7532 37.7662Z" fill="#50E6FF"/>
</svg>
