<svg data-slug-id="security13" viewBox="0 0 49 49" xmlns="http://www.w3.org/2000/svg">
<path d="M47.3155 23.6369C47.332 23.5293 47.3652 23.4217 47.3734 23.3307C47.4976 22.6768 47.5555 22.0146 47.5555 21.3359C47.5555 15.4675 42.8045 10.7082 36.9361 10.7082C36.1166 10.7082 35.3303 10.7992 34.5688 10.9896C32.1519 7.15732 27.8975 4.63281 23.0306 4.63281C15.4902 4.63281 9.38173 10.7496 9.38173 18.29C9.38173 18.4721 9.38173 18.6624 9.39828 18.8445C8.71956 18.6128 7.97463 18.4886 7.19658 18.4886C3.48846 18.4969 0.483887 21.5015 0.483887 25.2179C0.483887 28.7025 3.1491 31.5664 6.53442 31.9057L36.9443 31.9637C40.9339 31.9637 44.402 29.762 46.2312 26.5091C46.2809 26.418 46.3388 26.327 46.3885 26.2277C46.6699 25.6483 47.0672 24.7709 47.3155 23.6369Z" fill="#50E6FF"/>
<path d="M42.5562 24.7573C42.5562 19.9815 38.6494 16.0664 33.8736 16.0664C29.586 16.0664 26.0103 19.22 25.3234 23.3254H28.8825C29.1225 22.4811 29.5778 21.7196 30.2068 21.0823C31.1918 20.0973 32.4913 19.5593 33.8818 19.5593C35.2641 19.5593 36.5636 20.1056 37.5568 21.0823C38.5418 22.0673 39.0798 23.3668 39.0798 24.7573C39.0798 25.0305 39.0798 25.8168 39.0798 26.8514H25.1909V44.2663H42.5396V27.9688C42.5562 26.3962 42.5562 25.1215 42.5562 24.7573Z" fill="#0078D4"/>
<path d="M33.8313 37.6919C34.9984 37.6919 35.9585 36.74 35.9585 35.5647C35.9585 34.3976 35.0149 33.4375 33.8313 33.4375C32.6642 33.4375 31.7041 34.3811 31.7041 35.5647C31.7041 36.74 32.656 37.6919 33.8313 37.6919Z" fill="#50E6FF"/>
</svg>
