<svg data-slug-id="security03" viewBox="0 0 49 49" xmlns="http://www.w3.org/2000/svg">
<path d="M23.9984 0.214844C18.9701 3.11128 13.4534 5.21625 7.625 6.38661V35.3341L23.9226 48.1829L40.4981 35.3678V6.38661C34.6697 5.22467 29.1614 3.11128 24.1163 0.214844H23.9984Z" fill="#0078D4"/>
<path d="M29.4399 21.4062H28.825C28.446 21.4062 28.067 21.5073 27.7638 21.7262C26.6352 22.5429 25.2455 23.0313 23.7378 23.0313C22.2302 23.0313 20.8405 22.5429 19.7119 21.7262C19.4086 21.5073 19.0296 21.4062 18.6506 21.4062C17.5136 21.4062 16.5534 22.2482 16.4102 23.3765L15.0879 33.253H33.0026L31.6803 23.3765C31.5371 22.2482 30.5769 21.4062 29.4399 21.4062Z" fill="#50E6FF"/>
<path d="M24.0406 20.4413C26.8223 20.4413 29.0773 18.187 29.0773 15.4062C29.0773 12.6254 26.8223 10.3711 24.0406 10.3711C21.2589 10.3711 19.0039 12.6254 19.0039 15.4062C19.0039 18.187 21.2589 20.4413 24.0406 20.4413Z" fill="#50E6FF"/>
</svg>
