<svg data-slug-id="security16" viewBox="0 0 49 49" xmlns="http://www.w3.org/2000/svg">
<path d="M21.9065 21.6388C20.6798 19.5555 19.974 17.1277 19.974 14.532C19.974 6.78683 26.2502 0.511719 33.9968 0.511719C41.7433 0.511719 48.0195 6.78683 48.0195 14.532C48.0195 22.2772 41.7433 28.5523 33.9968 28.5523C32.0223 28.5523 30.1403 28.1407 28.4347 27.4015L22.7214 33.1137V33.265H17.6719L17.6971 38.4648H12.6224V43.4547H7.37118L7.32917 43.4967H7.48881V48.5033H5.08587V48.5117H0.0195299V43.4379L21.9065 21.6388Z" fill="#0078D7"/>
<path d="M39.1053 13.2998C37.0125 13.2998 35.316 11.6036 35.316 9.51125C35.316 7.41887 37.0125 5.72266 39.1053 5.72266C41.198 5.72266 42.8945 7.41887 42.8945 9.51125C42.8945 11.6036 41.198 13.2998 39.1053 13.2998Z" fill="#50E6FF"/>
</svg>
