<svg data-slug-id="security11" viewBox="0 0 49 49" xmlns="http://www.w3.org/2000/svg">
<path d="M3.12834 19.2219C4.84529 19.2219 6.23715 17.8291 6.23715 16.111C6.23715 14.3928 4.84529 13 3.12834 13C1.41139 13 0.0195312 14.3928 0.0195312 16.111C0.0195312 17.8291 1.41139 19.2219 3.12834 19.2219Z" fill="#50E6FF"/>
<path d="M39.108 28.695C39.2406 28.0811 39.3152 27.4506 39.3152 26.7952C39.3152 21.9753 35.4106 18.0762 30.6023 18.0762C29.9308 18.0762 29.2758 18.1508 28.6541 18.3002C26.6644 15.1643 23.166 13.082 19.1784 13.082C12.9857 13.082 7.97013 18.1094 7.97013 24.2981C7.97013 24.4557 7.97013 24.6051 7.97842 24.7544C7.41469 24.5636 6.80951 24.4557 6.17945 24.4557C3.12867 24.4557 0.658203 26.9279 0.658203 29.9808C0.658203 32.8429 2.83852 35.199 5.6323 35.4727L30.6023 35.5225C33.9764 35.5225 36.8945 33.6061 38.3453 30.8104C38.3038 30.6445 38.279 30.4786 38.279 30.2961C38.2707 29.6324 38.6023 29.0434 39.108 28.695Z" fill="#50E6FF"/>
<path d="M40.2268 14.6836C35.9408 14.6836 32.4258 18.1928 32.4258 22.4901V38.0947H48.0196V22.4901C48.0196 18.1928 44.5128 14.6836 40.2268 14.6836ZM40.2268 32.2461C39.1491 32.2461 38.2786 31.375 38.2786 30.2965C38.2786 29.218 39.1491 28.347 40.2268 28.347C41.3045 28.347 42.175 29.218 42.175 30.2965C42.175 31.3667 41.2963 32.2461 40.2268 32.2461ZM34.9128 22.4901C34.9128 21.0798 35.4683 19.7441 36.4714 18.7403C37.4828 17.7282 38.8092 17.1807 40.2185 17.1807C41.6279 17.1807 42.9626 17.7365 43.9657 18.7403C44.9771 19.7524 45.5242 21.0798 45.5242 22.4901H34.9128Z" fill="#0078D4"/>
</svg>
