<svg data-slug-id="security12" viewBox="0 0 49 49" xmlns="http://www.w3.org/2000/svg">
<path d="M25.2367 18.1058V0.449219H0.0195312V28.2988H20.6127V18.1058H25.2367Z" fill="#0078D7"/>
<path d="M48.0196 20.5742H22.7266V48.449H48.0196V20.5742Z" fill="#0078D7"/>
<path d="M43.7069 13.0932C40.2873 7.28911 34.3578 3.15296 27.4092 2.17578V5.07362C33.1197 5.99183 38.0048 9.36983 40.9611 14.0872L38.0216 15.1487L43.2942 17.6169L45.762 12.3435L43.7069 13.0932Z" fill="#0078D7"/>
<path d="M7.38874 34.7851L9.78076 33.9174L4.51664 31.4492L2.04883 36.7226L4.65141 35.7791C7.9699 41.5579 13.7731 45.7278 20.6122 46.8313V43.9251C15.0112 42.8805 10.2524 39.4772 7.38874 34.7851Z" fill="#0078D7"/>
<path d="M42.5695 28.9258L32.1237 39.3733L28.9983 36.239L26.9092 38.3285L32.1237 43.5438L44.6586 31.0069L42.5695 28.9258Z" fill="#50E6FF"/>
<path d="M18.4391 9.71514C18.4391 6.40888 15.7338 3.70312 12.428 3.70312C9.45702 3.70312 6.976 5.88775 6.49981 8.7281H8.96013C9.12576 8.14829 9.43977 7.61335 9.88145 7.16815C10.5647 6.48481 11.4688 6.10862 12.4246 6.10862C13.3804 6.10862 14.2845 6.48481 14.9677 7.16815C15.651 7.85149 16.0271 8.75571 16.0271 9.71169C16.0271 9.90496 16.0271 10.4468 16.0236 11.1612H6.41699V23.2232H18.4356V11.9515C18.4391 10.8609 18.4391 9.97744 18.4391 9.71514Z" fill="#50E6FF"/>
<path d="M12.4278 18.5045C13.2854 18.5045 13.9806 17.8092 13.9806 16.9515C13.9806 16.0938 13.2854 15.3984 12.4278 15.3984C11.5702 15.3984 10.875 16.0938 10.875 16.9515C10.875 17.8092 11.5702 18.5045 12.4278 18.5045Z" fill="#0078D4"/>
</svg>
