<svg data-slug-id="security-backup" xmlns="http://www.w3.org/2000/svg" viewBox="0 0 48 48">
    <path d="M26.5182 35.3768C32.7829 35.3768 37.8614 33.6915 37.8614 31.6126C37.8614 29.5337 32.7829 27.8484 26.5182 27.8484C20.2536 27.8484 15.175 29.5337 15.175 31.6126C15.175 33.6915 20.2536 35.3768 26.5182 35.3768Z" fill="#0078D4"/>
    <path d="M26.5182 32.7833C32.7829 32.7833 37.8614 31.098 37.8614 29.0191C37.8614 26.9402 32.7829 25.2549 26.5182 25.2549C20.2536 25.2549 15.175 26.9402 15.175 29.0191C15.175 31.098 20.2536 32.7833 26.5182 32.7833Z" fill="#50E6FF"/>
    <path d="M26.5182 30.1573C32.7829 30.1573 37.8614 28.472 37.8614 26.3931C37.8614 24.3142 32.7829 22.6289 26.5182 22.6289C20.2536 22.6289 15.175 24.3142 15.175 26.3931C15.175 28.472 20.2536 30.1573 26.5182 30.1573Z" fill="#0078D4"/>
    <path d="M26.5182 27.4779C32.7829 27.4779 37.8614 25.7926 37.8614 23.7137C37.8614 21.6348 32.7829 19.9495 26.5182 19.9495C20.2536 19.9495 15.175 21.6348 15.175 23.7137C15.175 25.7926 20.2536 27.4779 26.5182 27.4779Z" fill="#50E6FF"/>
    <path d="M26.5182 25.0089C32.7829 25.0089 37.8614 23.3236 37.8614 21.2447C37.8614 19.1658 32.7829 17.4805 26.5182 17.4805C20.2536 17.4805 15.175 19.1658 15.175 21.2447C15.175 23.3236 20.2536 25.0089 26.5182 25.0089Z" fill="#0078D4"/>
    <path d="M26.5182 22.4073C32.7829 22.4073 37.8614 20.722 37.8614 18.6431C37.8614 16.5642 32.7829 14.8789 26.5182 14.8789C20.2536 14.8789 15.175 16.5642 15.175 18.6431C15.175 20.722 20.2536 22.4073 26.5182 22.4073Z" fill="#50E6FF"/>
    <path d="M26.5182 20.1534C32.7829 20.1534 37.8614 18.4681 37.8614 16.3892C37.8614 14.3103 32.7829 12.625 26.5182 12.625C20.2536 12.625 15.175 14.3103 15.175 16.3892C15.175 18.4681 20.2536 20.1534 26.5182 20.1534Z" fill="#0078D4"/>
    <path d="M24.0001 0C14.8549 0 6.91381 5.11158 2.86328 12.6316H5.34749C9.18749 6.34947 16.1012 2.15579 24.0001 2.15579C36.0591 2.15579 45.8443 11.9326 45.8443 24C45.8443 36.0674 36.0591 45.8442 24.0001 45.8442C16.1012 45.8442 9.18749 41.6505 5.34749 35.3684H2.86328C6.91381 42.8884 14.8633 48 24.0001 48C37.2548 48 48.0001 37.2547 48.0001 24C48.0001 10.7453 37.2548 0 24.0001 0Z" fill="#0078D4"/>
    <path d="M5.05263 16.4211C2.27368 16.4211 0 18.6948 0 21.4738V31.579H10.1053V21.4738C10.1053 18.6948 7.83158 16.4211 5.05263 16.4211ZM3.26737 19.6885C3.74737 19.2085 4.37895 18.9475 5.05263 18.9475C5.71789 18.9475 6.35789 19.2085 6.83789 19.6885C7.31789 20.1685 7.57894 20.8001 7.57894 21.4738H2.52631C2.52631 20.8085 2.78737 20.1685 3.26737 19.6885ZM5.05263 27.7896C4.35368 27.7896 3.78947 27.2253 3.78947 26.5264C3.78947 25.8275 4.35368 25.2632 5.05263 25.2632C5.75158 25.2632 6.31579 25.8275 6.31579 26.5264C6.31579 27.2253 5.75158 27.7896 5.05263 27.7896Z" fill="#0078D4"/>
</svg>
