<svg data-slug-id="security09" viewBox="0 0 49 49" xmlns="http://www.w3.org/2000/svg">
<path d="M37.9104 16.7454V17.8991H44.22C46.3176 17.8991 48.0108 16.2065 48.0108 14.1097C48.0108 12.0129 46.3176 10.3203 44.22 10.3203H36.8911C37.5735 11.9624 37.9525 13.7644 37.9525 15.6507C37.9525 16.0212 37.9441 16.3833 37.9104 16.7454Z" fill="#0078D4"/>
<path d="M10.1452 15.617C10.1536 13.7392 10.5243 11.954 11.2066 10.3203H3.81033C1.71276 10.3203 0.0195312 12.0129 0.0195312 14.1097C0.0195312 16.2065 1.71276 17.8991 3.81033 17.8991H10.1115V15.617H10.1452Z" fill="#0078D4"/>
<path d="M24.0532 1.74744C28.8212 1.74744 33.0248 4.14739 35.5267 7.79362H44.2287C46.3262 7.79362 48.0195 6.10103 48.0195 4.00423C48.0195 1.90744 46.3262 0.214844 44.2287 0.214844H3.81033C1.71275 0.214844 0.0195312 1.90744 0.0195312 4.00423C0.0195312 6.10103 1.71275 7.79362 3.81033 7.79362H12.5713C15.0816 4.13897 19.2852 1.74744 24.0532 1.74744Z" fill="#0078D4"/>
<path d="M44.2197 28.0046C46.3173 28.0046 48.0105 26.312 48.0105 24.2152C48.0105 22.1184 46.3173 20.4258 44.2197 20.4258H37.9102V28.0046H44.2197Z" fill="#50E6FF"/>
<path d="M3.81033 20.4258C1.71275 20.4258 0.0195312 22.1184 0.0195312 24.2152C0.0195312 26.312 1.71275 28.0046 3.81033 28.0046H10.1115V20.4258H3.81033Z" fill="#50E6FF"/>
<path d="M44.2197 38.11C46.3173 38.11 48.0105 36.4174 48.0105 34.3206C48.0105 32.2238 46.3173 30.5312 44.2197 30.5312H37.9102V38.11H44.2197Z" fill="#0078D4"/>
<path d="M3.81033 30.5312C1.71275 30.5312 0.0195312 32.2238 0.0195312 34.3206C0.0195312 36.4174 1.71275 38.11 3.81033 38.11H10.1115V30.5312H3.81033Z" fill="#0078D4"/>
<path d="M10.1115 43.1882V40.6367H3.81033C1.71275 40.6367 0.0195312 42.3293 0.0195312 44.4261C0.0195312 46.5229 1.71275 48.2155 3.81033 48.2155H44.2203C46.3178 48.2155 48.0111 46.5229 48.0111 44.4261C48.0111 42.3293 46.3178 40.6367 44.2203 40.6367H37.9107V43.1882H10.1115Z" fill="#0078D4"/>
<path d="M35.4257 15.1527C35.4257 8.91285 30.3208 3.79297 24.0617 3.79297C18.4598 3.79297 13.7592 7.91077 12.8662 13.2917H17.5163C17.8364 12.1886 18.4261 11.1865 19.26 10.3528C20.5489 9.06443 22.259 8.35708 24.0617 8.35708C25.8645 8.35708 27.5745 9.07285 28.8634 10.3528C30.1523 11.6412 30.8599 13.3507 30.8599 15.1527C30.8599 15.5148 30.8599 16.5422 30.8599 17.8979H12.6978V40.6764H35.4089V19.3463C35.4257 17.3 35.4257 15.6411 35.4257 15.1527Z" fill="#0078D4"/>
<path d="M24.0026 32.0812C25.5357 32.0812 26.7825 30.8349 26.7825 29.3023C26.7825 27.7697 25.5357 26.5234 24.0026 26.5234C22.4694 26.5234 21.2227 27.7697 21.2227 29.3023C21.2227 30.8349 22.4694 32.0812 24.0026 32.0812Z" fill="#50E6FF"/>
</svg>
