<svg data-slug-id="security10" viewBox="0 0 49 49" xmlns="http://www.w3.org/2000/svg">
<path d="M5.07197 15.375C3.73321 15.379 2.45042 15.9126 1.50377 16.8593C0.557122 17.806 0.0235296 19.0888 0.0195312 20.4276V30.5328H10.1244V20.4276C10.1204 19.0888 9.58681 17.806 8.64016 16.8593C7.69351 15.9126 6.41073 15.379 5.07197 15.375V15.375ZM5.07197 26.7434C4.82215 26.7434 4.57794 26.6693 4.37022 26.5305C4.1625 26.3917 4.00061 26.1944 3.90501 25.9636C3.80941 25.7328 3.78439 25.4788 3.83313 25.2338C3.88187 24.9888 4.00217 24.7637 4.17881 24.587C4.35546 24.4104 4.58053 24.2901 4.82555 24.2413C5.07057 24.1926 5.32454 24.2176 5.55534 24.3132C5.78614 24.4088 5.98341 24.5707 6.1222 24.7784C6.261 24.9862 6.33508 25.2304 6.33508 25.4802C6.33508 25.8152 6.202 26.1365 5.96512 26.3734C5.72824 26.6103 5.40697 26.7434 5.07197 26.7434ZM2.54575 20.4276C2.54575 19.7576 2.8119 19.115 3.28566 18.6412C3.75942 18.1675 4.40197 17.9013 5.07197 17.9013C5.74196 17.9013 6.38452 18.1675 6.85827 18.6412C7.33203 19.115 7.59819 19.7576 7.59819 20.4276H2.54575Z" fill="#0078D4"/>
<path d="M37.9132 12.8438H15.1772V36.8436H37.9132V12.8438Z" fill="#50E6FF"/>
<path d="M35.1199 23.2094L33.1175 25.2128L30.3344 22.4305L25.282 27.4822V14.8516L17.1804 22.9534H12.6509V25.4797H18.2262L22.7558 20.9501V33.5816L30.3344 26.0027L33.1175 28.7858L36.1666 25.7357H42.9655V23.2094H35.1199Z" fill="#0078D4"/>
<path d="M35.3871 34.3193C36.0847 34.3193 36.6502 33.7537 36.6502 33.0561C36.6502 32.3585 36.0847 31.793 35.3871 31.793C34.6895 31.793 34.124 32.3585 34.124 33.0561C34.124 33.7537 34.6895 34.3193 35.3871 34.3193Z" fill="#0078D4"/>
<path d="M30.3344 34.3193C31.032 34.3193 31.5975 33.7537 31.5975 33.0561C31.5975 32.3585 31.032 31.793 30.3344 31.793C29.6368 31.793 29.0713 32.3585 29.0713 33.0561C29.0713 33.7537 29.6368 34.3193 30.3344 34.3193Z" fill="#0078D4"/>
<path d="M5.07227 0.214844V12.8464H10.1247V5.26745H42.9655V43.162H10.1247V33.0568H5.07227V48.2146H48.018V0.214844H5.07227Z" fill="#0078D4"/>
</svg>
