<svg data-slug-id="security15" viewBox="0 0 49 49" xmlns="http://www.w3.org/2000/svg">
<path d="M45.5768 22.9498H17.6105C17.3494 21.1325 16.5157 19.3825 15.1178 17.9775C13.3915 16.2527 11.1347 15.3945 8.87784 15.3945C6.621 15.3945 4.36416 16.2527 2.63785 17.9775C-0.806365 21.4186 -0.806365 26.9967 2.63785 30.4378C4.36416 32.1626 6.621 33.0208 8.87784 33.0208C11.1347 33.0208 13.3915 32.1626 15.1178 30.4378C16.5157 29.0412 17.3494 27.2828 17.6105 25.4655H35.4463V28.9066H43.0252V25.4655H45.5768V22.9498ZM13.3326 28.6542C12.1452 29.8405 10.5621 30.4967 8.87784 30.4967C7.19363 30.4967 5.6189 29.8405 4.42311 28.6542C1.97258 26.2059 1.97258 22.2095 4.42311 19.7611C5.61048 18.5748 7.19363 17.9186 8.87784 17.9186C10.5621 17.9186 12.1368 18.5748 13.3326 19.7611C14.52 20.9474 15.1768 22.5292 15.1768 24.2119C15.1768 25.8861 14.52 27.4679 13.3326 28.6542Z" fill="#0078D4"/>
<path d="M46.9838 6.60729L40.7101 0.347656V4.5544H0.154297V9.00513H40.7101V12.8753L46.9838 6.60729Z" fill="#50E6FF"/>
<path d="M46.9838 41.9471L40.7101 35.6875V39.8942H0.154297V44.345H40.7101V48.2152L46.9838 41.9471Z" fill="#50E6FF"/>
</svg>
