<svg data-slug-id="security05" viewBox="0 0 49 49" xmlns="http://www.w3.org/2000/svg">
<path d="M39.0195 19.7219V15.491C39.0195 7.59082 33.0195 0.813908 25.1445 0.252285C24.7695 0.214844 24.3945 0.214844 24.0195 0.214844C15.732 0.214844 9.01953 6.91687 9.01953 15.1914V19.7593H4.51953V48.2148H43.5195V19.7593H39.0195V19.7219ZM13.557 15.1914C13.557 9.42545 18.2445 4.70782 24.057 4.70782C24.3195 4.70782 24.582 4.70782 24.8445 4.74527C30.2445 5.11968 34.5195 9.83731 34.5195 15.491V19.7219H13.557V15.1914Z" fill="#0078D4"/>
<path d="M28.5195 31.6274V31.7397C28.5195 34.1734 26.532 36.1578 24.057 36.1578H23.9445C21.507 36.1578 19.5195 34.1734 19.5195 31.7023V31.59C19.5195 29.1563 21.507 27.1719 23.982 27.1719H24.0945C26.532 27.1719 28.5195 29.1563 28.5195 31.6274Z" fill="#50E6FF"/>
<path d="M24.0195 42.1867C22.7445 42.1867 21.7695 41.1758 21.7695 39.9403V33.9496C21.7695 32.714 22.782 31.7031 24.0195 31.7031C25.257 31.7031 26.2695 32.714 26.2695 33.9496V39.9777C26.2695 41.2133 25.257 42.1867 24.0195 42.1867Z" fill="#50E6FF"/>
</svg>
