<svg data-slug-id="security07" viewBox="0 0 49 49" xmlns="http://www.w3.org/2000/svg">
<path d="M23.962 0.40625C18.958 3.29318 13.492 5.37177 7.67969 6.52654V35.3188L23.885 48.0983L40.3597 35.3573V6.52654C34.5859 5.37177 29.0815 3.29318 24.0774 0.40625H23.962Z" fill="#0078D4"/>
<path d="M30.159 16.9969C30.159 13.5711 27.349 10.7227 23.8847 10.7227C20.8053 10.7227 18.2263 12.9937 17.7259 15.9576H20.2664C20.4589 15.3417 20.7668 14.8028 21.2287 14.3409C21.9601 13.6096 22.8839 13.2247 23.8847 13.2247C24.8855 13.2247 25.8093 13.6096 26.5407 14.3409C27.272 15.0723 27.6569 15.9961 27.6569 16.9969C27.6569 17.1894 27.6569 17.7668 27.6569 18.4981H17.6489V31.0466H30.159C30.159 31.0466 30.159 17.2664 30.159 16.9969Z" fill="#50E6FF"/>
<path d="M23.885 26.2758C24.7141 26.2758 25.3862 25.6037 25.3862 24.7746C25.3862 23.9455 24.7141 23.2734 23.885 23.2734C23.0559 23.2734 22.3838 23.9455 22.3838 24.7746C22.3838 25.6037 23.0559 26.2758 23.885 26.2758Z" fill="#0078D4"/>
</svg>
