<svg data-slug-id="security17" viewBox="0 0 49 49" xmlns="http://www.w3.org/2000/svg">
<path d="M31.7934 20.2458L28.2241 16.6797L0.0632711 44.8153L3.63254 48.3814L31.7934 20.2458Z" fill="#0078D4"/>
<path d="M17.829 41.3278L14.2598 37.7617L7.10336 44.9117L10.6726 48.4778L17.829 41.3278Z" fill="#0078D4"/>
<path d="M35.4211 0.511719C28.4604 0.511719 22.8228 6.14431 22.8228 13.0988C22.8228 20.0532 28.4604 25.6858 35.4211 25.6858C42.3817 25.6858 48.0194 20.0532 48.0194 13.0988C48.0194 6.14431 42.3733 0.511719 35.4211 0.511719ZM35.4211 20.6847C31.2244 20.6847 27.8284 17.2916 27.8284 13.0988C27.8284 8.90588 31.2244 5.51286 35.4211 5.51286C39.6177 5.51286 43.0138 8.90588 43.0138 13.0988C43.0138 17.2916 39.6093 20.6847 35.4211 20.6847Z" fill="#0078D4"/>
</svg>
