<svg data-slug-id="security18" viewBox="0 0 49 49" xmlns="http://www.w3.org/2000/svg">
<path d="M3.13574 33.2625L14.3357 38.4246H18.9505V28.7656H14.6726V34.3656L4.2389 29.9698L3.13574 33.2625Z" fill="#0078D4"/>
<path d="M27.4046 22.6685L12.5161 16.7148L8.68457 26.298L23.573 32.2601L27.4046 22.6685Z" fill="#50E6FF"/>
<path d="M43.666 18.0123L28.7776 12.0586L24.0449 23.8902L38.9333 29.8439L43.666 18.0123Z" fill="#50E6FF"/>
<path d="M4.89511 25.9023H0.170898V38.3655H4.89511V25.9023Z" fill="#0078D4"/>
<path d="M33.8892 29.7511L3.80078 17.6669L10.386 1.19531L47.9439 16.2437L36.6345 22.61L33.8892 29.7511Z" fill="#0078D4"/>
<path d="M35.3205 19.9748L9.29102 9.54111L11.3794 4.26953L42.6805 16.7916L35.3205 19.9748Z" fill="#50E6FF"/>
</svg>
