<svg data-slug-id="security04" viewBox="0 0 49 49" xmlns="http://www.w3.org/2000/svg">
<path d="M38.6787 15.085C38.6787 7.02326 32.0812 0.425781 24.0195 0.425781C16.7741 0.425781 10.7236 5.75257 9.56232 12.6782H15.5623C15.9662 11.2645 16.732 9.96014 17.8092 8.87459C19.4754 7.20839 21.6801 6.29114 24.0111 6.29114C26.3421 6.29114 28.5469 7.20839 30.2131 8.87459C31.8793 10.5408 32.7965 12.7456 32.7965 15.0766C32.7965 15.5478 32.7965 16.869 32.7881 18.6109H9.36035V48.0219H38.6703V20.538C38.6787 17.8788 38.6787 15.7245 38.6787 15.085Z" fill="#0078D4"/>
<path d="M24.0197 36.5189C26.1111 36.5189 27.8065 34.8235 27.8065 32.7321C27.8065 30.6407 26.1111 28.9453 24.0197 28.9453C21.9283 28.9453 20.2329 30.6407 20.2329 32.7321C20.2329 34.8235 21.9283 36.5189 24.0197 36.5189Z" fill="#50E6FF"/>
</svg>
