<svg data-slug-id="security19" viewBox="0 0 49 49" xmlns="http://www.w3.org/2000/svg">
<path d="M34.1755 18.6092C34.1755 13.4493 29.9528 9.22656 24.7928 9.22656C20.1554 9.22656 16.2827 12.636 15.5394 17.0688H19.3797C19.6383 16.1639 20.1284 15.3291 20.8179 14.6343C21.8843 13.5678 23.2955 12.9807 24.7874 12.9807C26.2794 12.9807 27.6906 13.5678 28.757 14.6343C29.8235 15.7007 30.4106 17.1119 30.4106 18.6038C30.4106 18.9055 30.4106 19.7511 30.4052 20.866H15.4102V39.6906H34.1701V22.0995C34.1755 20.3974 34.1755 19.0186 34.1755 18.6092Z" fill="#0078D4"/>
<path d="M24.7929 32.328C26.1315 32.328 27.2167 31.2428 27.2167 29.9042C27.2167 28.5656 26.1315 27.4805 24.7929 27.4805C23.4543 27.4805 22.3691 28.5656 22.3691 29.9042C22.3691 31.2428 23.4543 32.328 24.7929 32.328Z" fill="#50E6FF"/>
<path d="M0.792969 0.453125V10.5584H5.8456V5.50576H10.8982V0.453125H0.792969Z" fill="#0078D4"/>
<path d="M38.6875 0.453125V5.50576H43.7401V10.5584H48.7928V0.453125H38.6875Z" fill="#0078D4"/>
<path d="M5.8456 38.3477H0.792969V48.4529H10.8982V43.4003H5.8456V38.3477Z" fill="#0078D4"/>
<path d="M43.7401 43.4003H38.6875V48.4529H48.7928V38.3477H43.7401V43.4003Z" fill="#0078D4"/>
</svg>
