<svg data-slug-id="security02" viewBox="0 0 49 49" xmlns="http://www.w3.org/2000/svg">
<path d="M47.8662 28.0262C47.8662 21.7885 42.8122 16.7262 36.5662 16.7262C35.9785 16.7262 35.3993 16.7682 34.8368 16.8605C33.3508 12.3439 29.086 9.07812 24.0657 9.07812C18.0715 9.07812 13.1603 13.7291 12.7489 19.6225C11.943 19.4127 11.0867 19.3035 10.2136 19.3035C4.6727 19.2951 0.172852 23.795 0.172852 29.3442C0.172852 34.3478 3.84157 38.5034 8.63525 39.259L9.22291 39.3346C9.55033 39.3681 36.6585 39.3178 36.6585 39.3178C42.8626 39.2758 47.8662 34.2386 47.8662 28.0262Z" fill="#50E6FF"/>
<path d="M30.27 20.3638C30.27 16.9218 27.4576 14.1094 24.0156 14.1094C20.9261 14.1094 18.3488 16.3845 17.8535 19.3312H20.414C20.5903 18.7268 20.9093 18.1727 21.3711 17.7109C22.0847 16.9973 23.0249 16.6112 24.0156 16.6112C25.0062 16.6112 25.9465 17.0057 26.6601 17.7109C27.3737 18.4245 27.7599 19.3648 27.7599 20.3554C27.7599 20.5569 27.7599 21.1194 27.7599 21.8666H17.7695V34.4091H30.27V22.6893C30.27 21.5559 30.27 20.6409 30.27 20.3638Z" fill="#0078D4"/>
<path d="M24.0241 29.505C24.914 29.505 25.636 28.783 25.636 27.8931C25.636 27.0032 24.914 26.2812 24.0241 26.2812C23.1342 26.2812 22.4122 27.0032 22.4122 27.8931C22.4038 28.783 23.1342 29.505 24.0241 29.505Z" fill="#50E6FF"/>
</svg>
