<svg data-slug-id="security06" viewBox="0 0 49 49" xmlns="http://www.w3.org/2000/svg">
<path d="M6.18161 8.09766C2.59548 12.0639 0.322584 17.226 0.0195312 22.9186H5.1546C5.44081 18.6407 7.14128 14.7502 9.79299 11.7103L6.18161 8.09766Z" fill="#50E6FF"/>
<path d="M7.99121 42.0925C11.9646 45.6461 17.1249 47.9029 22.8071 48.1808V43.1451C18.5223 42.8588 14.6331 41.1493 11.5942 38.4883L7.99121 42.0925Z" fill="#0078D4"/>
<path d="M0.0195312 25.4531C0.314166 31.1457 2.58706 36.3078 6.16477 40.2741L9.77615 36.6615C7.13286 33.6215 5.44081 29.731 5.1546 25.4531H0.0195312Z" fill="#0078D4"/>
<path d="M41.8744 8.19141L38.3809 11.6861C41.0494 14.7261 42.7583 18.625 43.0361 22.9197H47.9523C47.6576 17.2692 45.41 12.1408 41.8744 8.19141Z" fill="#50E6FF"/>
<path d="M25.3413 0.222656V5.24156C29.6261 5.51946 33.5237 7.21207 36.5711 9.86469L40.0731 6.36156C36.1249 2.8079 30.9899 0.534233 25.3413 0.222656Z" fill="#50E6FF"/>
<path d="M22.8075 0.214844C17.1253 0.492736 11.9734 2.74114 8 6.28638L11.603 9.89056C14.6335 7.23795 18.5227 5.53691 22.7991 5.24217V0.214844H22.8075Z" fill="#50E6FF"/>
<path d="M47.1189 30.6152C47.5735 28.9563 47.8597 27.23 47.9523 25.4531H43.0361C43.0193 25.7058 42.994 25.9584 42.9688 26.211C44.8292 27.1373 46.3108 28.7036 47.1189 30.6152Z" fill="#0078D4"/>
<path d="M25.3408 43.1445V48.1635C27.075 48.0708 28.767 47.7845 30.3833 47.3382V42.1172C28.7838 42.6814 27.0918 43.0267 25.3408 43.1445Z" fill="#0078D4"/>
<path d="M37.7412 25.4013C37.7833 25.115 37.8001 24.8287 37.8001 24.5255C37.8001 21.0982 35.0222 18.3193 31.596 18.3193C31.1161 18.3193 30.6531 18.3698 30.207 18.4793C28.7927 16.2477 26.301 14.7656 23.4641 14.7656C19.053 14.7656 15.4837 18.3445 15.4837 22.7487C15.4837 22.8582 15.4837 22.9677 15.4921 23.0771C15.088 22.9424 14.6587 22.8666 14.2125 22.8666C12.0406 22.8666 10.2812 24.6266 10.2812 26.7992C10.2812 28.8371 11.8302 30.5129 13.8253 30.7066L31.0151 30.7402C32.1516 27.9529 34.6854 25.8813 37.7412 25.4013Z" fill="#50E6FF"/>
<path d="M45.4269 33.9498C45.4269 30.4719 42.5815 27.6172 39.0964 27.6172C35.9733 27.6172 33.3637 29.9161 32.867 32.9056H35.4598C35.6366 32.2908 35.9649 31.735 36.4279 31.2719C37.1434 30.5561 38.0947 30.1603 39.1049 30.1603C40.115 30.1603 41.0579 30.5561 41.7818 31.2719C42.4974 31.9877 42.893 32.9393 42.893 33.9498C42.893 34.1519 42.893 34.7245 42.893 35.474H32.7744V48.1644H45.4185V36.2908C45.4269 35.1455 45.4269 34.2192 45.4269 33.9498Z" fill="#0078D4"/>
<path d="M39.0714 43.3802C39.9216 43.3802 40.6203 42.6897 40.6203 41.8307C40.6203 40.9802 39.93 40.2812 39.0714 40.2812C38.2212 40.2812 37.5225 40.9718 37.5225 41.8307C37.5225 42.6897 38.2127 43.3802 39.0714 43.3802Z" fill="#50E6FF"/>
</svg>
