<svg data-slug-id="security20" viewBox="0 0 49 49" xmlns="http://www.w3.org/2000/svg">
<path d="M35.8743 17.1566C35.8743 10.7673 30.641 5.53125 24.255 5.53125C18.5085 5.53125 13.7127 9.75713 12.7956 15.2457H17.5493C17.869 14.1261 18.4748 13.0907 19.333 12.2321C20.654 10.9104 22.404 10.1865 24.2466 10.1865C26.0976 10.1865 27.8392 10.9104 29.1602 12.2321C30.4811 13.5537 31.2047 15.3047 31.2047 17.1482C31.2047 17.5186 31.2047 18.5709 31.1963 19.9514H12.6357V43.278H35.8659V21.4835C35.8743 19.3706 35.8743 17.6617 35.8743 17.1566Z" fill="#0078D4"/>
<path d="M24.2551 34.1551C25.9126 34.1551 27.2588 32.8082 27.2588 31.1498C27.2588 29.4914 25.9126 28.1445 24.2551 28.1445C22.5977 28.1445 21.2515 29.4914 21.2515 31.1498C21.2515 32.8166 22.5977 34.1551 24.2551 34.1551Z" fill="#50E6FF"/>
<path d="M45.626 45.7516H40.603V48.3443H48.1417V40.7344H45.626V45.7516Z" fill="#0078D4"/>
<path d="M45.5923 2.91545V7.94105H48.1837V0.398438H40.5693V2.91545H45.5923V2.91545Z" fill="#0078D4"/>
<path d="M2.75836 2.95605H7.78133V0.363281H0.242676V7.97324H2.75836V2.95605V2.95605Z" fill="#0078D4"/>
<path d="M2.83409 45.7717V40.7461H0.242676V48.2887H7.84864V45.7717H2.83409Z" fill="#0078D4"/>
</svg>
