<svg data-slug-id="security01" viewBox="0 0 49 49" xmlns="http://www.w3.org/2000/svg">
<path d="M37.8667 15.6013C37.8667 8.04368 31.6824 1.85938 24.1247 1.85938C17.3338 1.85938 11.6634 6.85569 10.5765 13.3433H16.1963C16.5755 12.0205 17.2916 10.7988 18.3027 9.77933C19.8614 8.22062 21.9341 7.36122 24.1163 7.36122C26.2985 7.36122 28.3712 8.22062 29.9299 9.77933C31.4886 11.338 32.348 13.4107 32.348 15.5929C32.348 16.031 32.348 16.3933 32.3396 18.0279H10.2227V45.8825H37.8667V20.7072C37.8667 18.2132 37.8667 16.1996 37.8667 15.6013Z" fill="#0078D4"/>
<path d="M30.8148 24.9805L20.3672 35.4281L17.2414 32.2938L15.1519 34.3833L20.3672 39.5987L32.9044 27.0616L30.8148 24.9805Z" fill="#50E6FF"/>
</svg>
