<svg data-slug-id="server-transfer-transport-shift-relocate-data" xmlns="http://www.w3.org/2000/svg" viewBox="0 0 48 48">
    <path d="M47.9241 0.233887H0.0332031V5.27149H47.9241V0.233887Z" fill="#50E6FF"/>
    <path d="M47.9241 5.18701H0.0332031V22.8354H47.9241V5.18701Z" fill="#0078D4"/>
    <path d="M10.1168 25.3042H0.0332031V35.3878H10.1168V25.3042Z" fill="#0078D4"/>
    <path d="M22.7208 25.3042H12.6372V35.3878H22.7208V25.3042Z" fill="#0078D4"/>
    <path d="M35.3219 25.3042H25.2383V35.3878H35.3219V25.3042V25.3042Z" fill="#50E6FF"/>
    <path d="M47.9248 25.3042H37.8496V35.3878H47.9332V25.3042H47.9248Z" fill="#50E6FF"/>
    <path d="M22.7192 37.9058H0.0332031V47.9894H22.7192V37.9058V37.9058Z" fill="#0078D4"/>
    <path d="M47.9243 37.9058H25.2383V47.981H47.9243V37.9058Z" fill="#50E6FF"/>
    <path d="M41.5683 13.8706L35.3301 7.63232V11.8219H6.1875V16.255H35.3301V20.1088L41.5683 13.8706Z" fill="#50E6FF"/>
</svg>
