<svg data-slug-id="server10" viewBox="0 0 49 49" xmlns="http://www.w3.org/2000/svg">
<path d="M0.0195312 10.2051H48.0195V0.03125H0.0195312V10.2051Z" fill="#0078D4"/>
<path d="M0.0195312 35.4394H48.0195V25.2656H0.0195312V35.4394Z" fill="#0078D4"/>
<path d="M0.0195312 22.9394H48.0195V12.7656H0.0195312V22.9394Z" fill="#0078D4"/>
<path d="M0.0195312 47.9551H48.0195V37.7812H0.0195312V47.9551Z" fill="#0078D4"/>
<path d="M22.6343 5.15337C22.6343 6.51212 21.5229 7.61925 20.1589 7.61925C18.795 7.61925 17.6836 6.51212 17.6836 5.15337C17.6836 3.79463 18.795 2.6875 20.1589 2.6875C21.5313 2.6875 22.6343 3.79463 22.6343 5.15337Z" fill="white"/>
<path d="M7.47952 5.15337C7.47952 6.51212 6.36813 7.61925 5.00416 7.61925C3.64019 7.61925 2.52881 6.51212 2.52881 5.15337C2.52881 3.79463 3.64019 2.6875 5.00416 2.6875C6.37655 2.6875 7.47952 3.79463 7.47952 5.15337Z" fill="#50E6FF"/>
<path d="M15.0572 5.15337C15.0572 6.51212 13.9458 7.61925 12.5818 7.61925C11.2178 7.61925 10.1064 6.51212 10.1064 5.15337C10.1064 3.79463 11.2178 2.6875 12.5818 2.6875C13.9542 2.6875 15.0572 3.79463 15.0572 5.15337Z" fill="#50E6FF"/>
<path d="M22.6343 17.7393C22.6343 19.0981 21.5229 20.2052 20.1589 20.2052C18.795 20.2052 17.6836 19.0981 17.6836 17.7393C17.6836 16.3806 18.795 15.2734 20.1589 15.2734C21.5313 15.2734 22.6343 16.3806 22.6343 17.7393Z" fill="white"/>
<path d="M7.47952 17.7393C7.47952 19.0981 6.36813 20.2052 5.00416 20.2052C3.64019 20.2052 2.52881 19.0981 2.52881 17.7393C2.52881 16.3806 3.64019 15.2734 5.00416 15.2734C6.37655 15.2734 7.47952 16.3806 7.47952 17.7393Z" fill="#50E6FF"/>
<path d="M15.0572 17.7393C15.0572 19.0981 13.9458 20.2052 12.5818 20.2052C11.2178 20.2052 10.1064 19.0981 10.1064 17.7393C10.1064 16.3806 11.2178 15.2734 12.5818 15.2734C13.9542 15.2734 15.0572 16.3806 15.0572 17.7393Z" fill="#50E6FF"/>
<path d="M22.6343 30.3174C22.6343 31.6762 21.5229 32.7833 20.1589 32.7833C18.795 32.7833 17.6836 31.6762 17.6836 30.3174C17.6836 28.9587 18.795 27.8516 20.1589 27.8516C21.5313 27.8516 22.6343 28.9587 22.6343 30.3174Z" fill="white"/>
<path d="M7.47952 30.3174C7.47952 31.6762 6.36813 32.7833 5.00416 32.7833C3.64019 32.7833 2.52881 31.6762 2.52881 30.3174C2.52881 28.9587 3.64019 27.8516 5.00416 27.8516C6.37655 27.8516 7.47952 28.9587 7.47952 30.3174Z" fill="#50E6FF"/>
<path d="M15.0572 30.3174C15.0572 31.6762 13.9458 32.7833 12.5818 32.7833C11.2178 32.7833 10.1064 31.6762 10.1064 30.3174C10.1064 28.9587 11.2178 27.8516 12.5818 27.8516C13.9542 27.8516 15.0572 28.9587 15.0572 30.3174Z" fill="#50E6FF"/>
<path d="M22.6343 42.8956C22.6343 44.2543 21.5229 45.3614 20.1589 45.3614C18.795 45.3614 17.6836 44.2543 17.6836 42.8956C17.6836 41.5368 18.795 40.4297 20.1589 40.4297C21.5313 40.4297 22.6343 41.5368 22.6343 42.8956Z" fill="white"/>
<path d="M7.47952 42.8956C7.47952 44.2543 6.36813 45.3614 5.00416 45.3614C3.64019 45.3614 2.52881 44.2543 2.52881 42.8956C2.52881 41.5368 3.64019 40.4297 5.00416 40.4297C6.37655 40.4297 7.47952 41.5368 7.47952 42.8956Z" fill="#50E6FF"/>
<path d="M15.0572 42.8956C15.0572 44.2543 13.9458 45.3614 12.5818 45.3614C11.2178 45.3614 10.1064 44.2543 10.1064 42.8956C10.1064 41.5368 11.2178 40.4297 12.5818 40.4297C13.9542 40.4297 15.0572 41.5368 15.0572 42.8956Z" fill="#50E6FF"/>
</svg>
