<svg data-slug-id="server05" viewBox="0 0 49 49" xmlns="http://www.w3.org/2000/svg">
<path d="M45.4075 27.9668H48.0193V15.4297H0.0195312V27.9752H27.8067C30.0731 25.7509 33.1821 24.386 36.6029 24.386C40.0236 24.386 43.141 25.7509 45.4075 27.9668Z" fill="#0078D7"/>
<path d="M25.7761 30.5547H0.0195312V43.1002H25.6245C24.605 41.2803 24.0237 39.1908 24.0237 36.9581C24.0237 34.6242 24.664 32.4336 25.7761 30.5547Z" fill="#0078D7"/>
<path d="M48.0193 0.203125H0.0195312V12.7487H48.0193V0.203125Z" fill="#0078D7"/>
<path d="M7.84675 9.1613C9.28926 9.1613 10.4586 7.99191 10.4586 6.5494C10.4586 5.10689 9.28926 3.9375 7.84675 3.9375C6.40425 3.9375 5.23486 5.10689 5.23486 6.5494C5.23486 7.99191 6.40425 9.1613 7.84675 9.1613Z" fill="#50E6FF"/>
<path d="M7.84675 39.509C9.28926 39.509 10.4586 38.3396 10.4586 36.8971C10.4586 35.4545 9.28926 34.2852 7.84675 34.2852C6.40425 34.2852 5.23486 35.4545 5.23486 36.8971C5.23486 38.3396 6.40425 39.509 7.84675 39.509Z" fill="#50E6FF"/>
<path d="M7.84675 24.384C9.28926 24.384 10.4586 23.2146 10.4586 21.7721C10.4586 20.3295 9.28926 19.1602 7.84675 19.1602C6.40425 19.1602 5.23486 20.3295 5.23486 21.7721C5.23486 23.2146 6.40425 24.384 7.84675 24.384Z" fill="#50E6FF"/>
<path d="M29.8037 39.3075C29.1296 37.5297 29.1886 35.5919 29.9806 33.8562C30.7642 32.1206 32.1797 30.7978 33.9574 30.1237C35.0022 29.7277 36.0806 29.5845 37.176 29.7025L36.8642 31.4465L40.7399 29.3402L37.8416 25.9531L37.5045 27.8573C36.0806 27.6888 34.6399 27.8657 33.3002 28.3712C31.0506 29.2222 29.2644 30.8989 28.2702 33.0895C27.276 35.2801 27.2002 37.732 28.0512 39.9816C28.6578 41.5993 29.711 42.9979 31.0928 44.0174L31.4298 44.2701L32.5419 42.7535L32.2049 42.5008C31.118 41.6919 30.2839 40.5798 29.8037 39.3075Z" fill="#0078D7"/>
<path d="M44.9018 33.6038C44.3626 32.1715 43.4695 30.9077 42.3068 29.9219L41.0851 31.3374C42.0035 32.1209 42.7112 33.1151 43.1409 34.261C44.5311 37.9429 42.6691 42.063 38.9872 43.4532C38.3637 43.6891 37.7065 43.8324 37.0325 43.8829L37.142 41.9703L33.519 44.4811L36.7881 47.8597L36.9145 45.7786C37.8497 45.7281 38.7681 45.5427 39.6443 45.2141C44.2952 43.4616 46.6543 38.2547 44.9018 33.6038Z" fill="#0078D7"/>
</svg>
