<svg data-slug-id="server01" viewBox="0 0 49 49" xmlns="http://www.w3.org/2000/svg">
<path d="M47.9436 0.265625H0.0527344V5.30323H47.9436V0.265625Z" fill="#50E6FF"/>
<path d="M47.9436 5.21875H0.0527344V22.8672H47.9436V5.21875Z" fill="#0078D4"/>
<path d="M10.1363 25.3359H0.0527344V35.4195H10.1363V25.3359Z" fill="#0078D4"/>
<path d="M22.7403 25.3359H12.6567V35.4195H22.7403V25.3359Z" fill="#0078D4"/>
<path d="M35.3414 25.3359H25.2578V35.4195H35.3414V25.3359V25.3359Z" fill="#50E6FF"/>
<path d="M47.9444 25.3359H37.8691V35.4195H47.9528V25.3359H47.9444Z" fill="#50E6FF"/>
<path d="M22.7388 37.9375H0.0527344V48.0211H22.7388V37.9375V37.9375Z" fill="#0078D4"/>
<path d="M47.9438 37.9375H25.2578V48.0127H47.9438V37.9375Z" fill="#50E6FF"/>
<path d="M41.5878 13.9023L35.3496 7.66406V11.8537H6.20703V16.2868H35.3496V20.1405L41.5878 13.9023Z" fill="#50E6FF"/>
</svg>
