<svg data-slug-id="servers-sync" xmlns="http://www.w3.org/2000/svg" viewBox="0 0 48 49">
<path d="M45.3881 28.9356H48V16.3984H0V28.944H27.7873C30.0537 26.7197 33.1627 25.3547 36.5835 25.3547C40.0042 25.3547 43.1216 26.7197 45.3881 28.9356Z" fill="#0078D7"/>
<path d="M25.7567 31.5234H0V44.069H25.6051C24.5856 42.2491 24.0042 40.1596 24.0042 37.9268C24.0042 35.5929 24.6446 33.4023 25.7567 31.5234Z" fill="#0078D7"/>
<path d="M48 1.17188H0V13.7174H48V1.17188Z" fill="#0078D7"/>
<path d="M7.82723 10.1301C9.26975 10.1301 10.4391 8.96066 10.4391 7.51815C10.4391 6.07564 9.26975 4.90625 7.82723 4.90625C6.38472 4.90625 5.21533 6.07564 5.21533 7.51815C5.21533 8.96066 6.38472 10.1301 7.82723 10.1301Z" fill="#50E6FF"/>
<path d="M7.82723 40.4777C9.26975 40.4777 10.4391 39.3083 10.4391 37.8658C10.4391 36.4233 9.26975 35.2539 7.82723 35.2539C6.38472 35.2539 5.21533 36.4233 5.21533 37.8658C5.21533 39.3083 6.38472 40.4777 7.82723 40.4777Z" fill="#50E6FF"/>
<path d="M7.82723 25.3527C9.26975 25.3527 10.4391 24.1833 10.4391 22.7408C10.4391 21.2983 9.26975 20.1289 7.82723 20.1289C6.38472 20.1289 5.21533 21.2983 5.21533 22.7408C5.21533 24.1833 6.38472 25.3527 7.82723 25.3527Z" fill="#50E6FF"/>
<path d="M29.7842 40.2763C29.1101 38.4985 29.1691 36.5606 29.9611 34.825C30.7447 33.0893 32.1601 31.7665 33.9379 31.0925C34.9827 30.6965 36.0611 30.5533 37.1565 30.6712L36.8447 32.4153L40.7204 30.3089L37.8221 26.9219L37.485 28.826C36.0611 28.6575 34.6204 28.8345 33.2807 29.34C31.0311 30.191 29.2449 31.8676 28.2507 34.0583C27.2565 36.2489 27.1807 38.7007 28.0317 40.9503C28.6383 42.568 29.6915 43.9666 31.0733 44.9861L31.4103 45.2389L32.5224 43.7223L32.1854 43.4695C31.0985 42.6607 30.2644 41.5485 29.7842 40.2763Z" fill="#0078D7"/>
<path d="M44.8826 34.5726C44.3434 33.1402 43.4503 31.8764 42.2875 30.8906L41.0658 32.3061C41.9842 33.0897 42.692 34.0839 43.1217 35.2298C44.5119 38.9117 42.6498 43.0317 38.9679 44.422C38.3444 44.6579 37.6872 44.8011 37.0132 44.8517L37.1227 42.9391L33.4998 45.4499L36.7688 48.8285L36.8952 46.7474C37.8305 46.6968 38.7488 46.5115 39.6251 46.1829C44.276 44.4304 46.6351 39.2234 44.8826 34.5726Z" fill="#0078D7"/>
</svg>
