<svg data-slug-id="servers-blue" xmlns="http://www.w3.org/2000/svg" viewBox="0 0 48 48">
    <path fill-rule="evenodd" clip-rule="evenodd" d="M0 37.5039H48V46.5039H0V37.5039ZM20.9924 42.0039C20.9924 43.2465 19.9851 44.2539 18.7424 44.2539C17.4998 44.2539 16.4924 43.2465 16.4924 42.0039C16.4924 40.7613 17.4998 39.7539 18.7424 39.7539C19.9851 39.7539 20.9924 40.7613 20.9924 42.0039Z" fill="#0078D4"/>
    <path fill-rule="evenodd" clip-rule="evenodd" d="M0 25.5039H48V34.5039H0V25.5039ZM20.9924 30.0039C20.9924 31.2465 19.9851 32.2539 18.7424 32.2539C17.4998 32.2539 16.4924 31.2465 16.4924 30.0039C16.4924 28.7613 17.4998 27.7539 18.7424 27.7539C19.9851 27.7539 20.9924 28.7613 20.9924 30.0039Z" fill="#0078D4"/>
    <path fill-rule="evenodd" clip-rule="evenodd" d="M0 13.5039H48V22.5039H0V13.5039ZM20.9924 18.0039C20.9924 19.2465 19.9851 20.2539 18.7424 20.2539C17.4998 20.2539 16.4924 19.2465 16.4924 18.0039C16.4924 16.7613 17.4998 15.7539 18.7424 15.7539C19.9851 15.7539 20.9924 16.7613 20.9924 18.0039Z" fill="#0078D4"/>
    <path fill-rule="evenodd" clip-rule="evenodd" d="M0 1.50391H48V10.5039H0V1.50391ZM20.9924 6.00391C20.9924 7.24655 19.9851 8.25391 18.7424 8.25391C17.4998 8.25391 16.4924 7.24655 16.4924 6.00391C16.4924 4.76127 17.4998 3.75391 18.7424 3.75391C19.9851 3.75391 20.9924 4.76127 20.9924 6.00391Z" fill="#0078D4"/>
    <path d="M5.25 44.2539C6.49264 44.2539 7.5 43.2465 7.5 42.0039C7.5 40.7613 6.49264 39.7539 5.25 39.7539C4.00736 39.7539 3 40.7613 3 42.0039C3 43.2465 4.00736 44.2539 5.25 44.2539Z" fill="#50E6FF"/>
    <path d="M11.9965 44.2539C13.2391 44.2539 14.2465 43.2465 14.2465 42.0039C14.2465 40.7613 13.2391 39.7539 11.9965 39.7539C10.7538 39.7539 9.74646 40.7613 9.74646 42.0039C9.74646 43.2465 10.7538 44.2539 11.9965 44.2539Z" fill="#50E6FF"/>
    <path d="M5.25 32.2539C6.49264 32.2539 7.5 31.2465 7.5 30.0039C7.5 28.7613 6.49264 27.7539 5.25 27.7539C4.00736 27.7539 3 28.7613 3 30.0039C3 31.2465 4.00736 32.2539 5.25 32.2539Z" fill="#50E6FF"/>
    <path d="M11.9965 32.2539C13.2391 32.2539 14.2465 31.2465 14.2465 30.0039C14.2465 28.7613 13.2391 27.7539 11.9965 27.7539C10.7538 27.7539 9.74646 28.7613 9.74646 30.0039C9.74646 31.2465 10.7538 32.2539 11.9965 32.2539Z" fill="#50E6FF"/>
    <path d="M5.25 20.2539C6.49264 20.2539 7.5 19.2465 7.5 18.0039C7.5 16.7613 6.49264 15.7539 5.25 15.7539C4.00736 15.7539 3 16.7613 3 18.0039C3 19.2465 4.00736 20.2539 5.25 20.2539Z" fill="#50E6FF"/>
    <path d="M11.9965 20.2539C13.2391 20.2539 14.2465 19.2465 14.2465 18.0039C14.2465 16.7613 13.2391 15.7539 11.9965 15.7539C10.7538 15.7539 9.74646 16.7613 9.74646 18.0039C9.74646 19.2465 10.7538 20.2539 11.9965 20.2539Z" fill="#50E6FF"/>
    <path d="M5.25 8.25391C6.49264 8.25391 7.5 7.24655 7.5 6.00391C7.5 4.76127 6.49264 3.75391 5.25 3.75391C4.00736 3.75391 3 4.76127 3 6.00391C3 7.24655 4.00736 8.25391 5.25 8.25391Z" fill="#50E6FF"/>
    <path d="M11.9965 8.25391C13.2391 8.25391 14.2465 7.24655 14.2465 6.00391C14.2465 4.76127 13.2391 3.75391 11.9965 3.75391C10.7538 3.75391 9.74646 4.76127 9.74646 6.00391C9.74646 7.24655 10.7538 8.25391 11.9965 8.25391Z" fill="#50E6FF"/>
</svg>
