<svg data-slug-id="server08" viewBox="0 0 49 49" xmlns="http://www.w3.org/2000/svg">
<path d="M10.1249 0.046875H0.0195312V48.0132H10.1249V0.046875Z" fill="#0078D4"/>
<path d="M22.7557 0.046875H12.6504V48.0132H22.7557V0.046875Z" fill="#0078D4"/>
<path d="M35.3885 0.046875H25.2832V48.0132H35.3885V0.046875Z" fill="#0078D4"/>
<path d="M48.0194 0.046875H37.9141V48.0132H48.0194V0.046875Z" fill="#0078D4"/>
<path d="M6.26779 41.7344H3.72461V44.2793H6.26779V41.7344Z" fill="#50E6FF"/>
<path d="M6.26779 36.6797H3.72461V39.2246H6.26779V36.6797Z" fill="#50E6FF"/>
<path d="M18.9592 41.7344H16.416V44.2793H18.9592V41.7344Z" fill="#50E6FF"/>
<path d="M18.9592 36.6797H16.416V39.2246H18.9592V36.6797Z" fill="#50E6FF"/>
<path d="M31.6154 41.7344H29.0723V44.2793H31.6154V41.7344Z" fill="#50E6FF"/>
<path d="M31.6154 36.6797H29.0723V39.2246H31.6154V36.6797Z" fill="#50E6FF"/>
<path d="M44.196 41.7344H41.6528V44.2793H44.196V41.7344Z" fill="#50E6FF"/>
<path d="M44.196 36.6797H41.6528V39.2246H44.196V36.6797Z" fill="#50E6FF"/>
</svg>
