<svg data-slug-id="shapes-brower" xmlns="http://www.w3.org/2000/svg" viewBox="0 0 48 48">
    <path d="M0 42.9717H48V6.01172H0V42.9717Z" fill="#0078D4"/>
    <path d="M0 10.0059H47.9832V5.00378H0V10.0059Z" fill="#50E6FF"/>
    <path d="M7.47789 8.82492C8.15226 8.82492 8.69894 8.27823 8.69894 7.60387C8.69894 6.9295 8.15226 6.38281 7.47789 6.38281C6.80352 6.38281 6.25684 6.9295 6.25684 7.60387C6.25684 8.27823 6.80352 8.82492 7.47789 8.82492Z" fill="white"/>
    <path d="M3.68834 8.82492C4.36271 8.82492 4.90939 8.27823 4.90939 7.60387C4.90939 6.9295 4.36271 6.38281 3.68834 6.38281C3.01397 6.38281 2.46729 6.9295 2.46729 7.60387C2.46729 8.27823 3.01397 8.82492 3.68834 8.82492Z" fill="white"/>
    <path d="M11.3514 8.82492C12.0258 8.82492 12.5725 8.27823 12.5725 7.60387C12.5725 6.9295 12.0258 6.38281 11.3514 6.38281C10.6771 6.38281 10.1304 6.9295 10.1304 7.60387C10.1304 8.27823 10.6771 8.82492 11.3514 8.82492Z" fill="white"/>
    <path d="M15.0231 20.1991H2.3999V32.8223H15.0231V20.1991Z" fill="#50E6FF"/>
    <path d="M17.5918 20.1991V32.8223H30.2234L17.5918 20.1991Z" fill="#50E6FF"/>
    <path d="M39.1156 20.1991C35.6293 20.1991 32.7998 23.0286 32.7998 26.5149C32.7998 30.0012 35.6293 32.8307 39.1156 32.8307C42.6019 32.8307 45.4314 30.0012 45.4314 26.5149C45.4314 23.0201 42.6019 20.1991 39.1156 20.1991Z" fill="#50E6FF"/>
</svg>
