<svg data-slug-id="share-connection" xmlns="http://www.w3.org/2000/svg" viewBox="0 0 49 49">
  <path d="M5.54304 35.7214C7.0083 34.2562 9.39146 34.2562 10.8567 35.7214C12.322 37.1867 12.322 39.5699 10.8567 41.0351C9.39146 42.5004 7.0083 42.5004 5.54304 41.0351C4.07778 39.5699 4.07778 37.1951 5.54304 35.7214Z" fill="#0078D4"/>
  <path d="M22.503 36.5383C21.5178 35.553 19.9178 35.553 18.9325 36.5383C18.6041 36.8667 18.3851 37.2709 18.2756 37.692H15.783C15.6314 35.9825 14.8988 34.3067 13.5935 33.0014C12.8441 32.252 11.9767 31.6878 11.042 31.3172L12.6756 28.673C13.0967 28.7993 13.5514 28.8246 14.0062 28.7151C15.362 28.3951 16.2041 27.0309 15.8841 25.6751C15.5641 24.3193 14.1999 23.4772 12.8441 23.7972C11.4883 24.1172 10.6462 25.4814 10.9662 26.8372C11.0756 27.292 11.303 27.6878 11.6062 28.0078L9.79565 30.9383C7.36196 30.4246 4.72617 31.1067 2.83986 32.993C-0.124353 35.9572 -0.124353 40.7825 2.83986 43.7467C5.80407 46.7109 10.6293 46.7109 13.5935 43.7467C14.9325 42.4078 15.6651 40.6983 15.7914 38.9467H18.2756C18.3851 39.3678 18.6041 39.772 18.9325 40.1004C19.9178 41.0856 21.5178 41.0856 22.503 40.1004C23.4883 39.1235 23.4883 37.5235 22.503 36.5383ZM12.3893 42.5678C10.082 44.8751 6.32617 44.8751 4.02723 42.5678C1.72828 40.2604 1.71986 36.5046 4.02723 34.2056C6.33459 31.9067 10.0904 31.8983 12.3893 34.2056C14.6967 36.5046 14.6967 40.2604 12.3893 42.5678Z" fill="#50E6FF"/>
  <path d="M21.9136 7.64567C23.3789 6.18041 25.7621 6.18041 27.2273 7.64567C28.6926 9.11093 28.6926 11.4941 27.2273 12.9594C25.7621 14.4246 23.3789 14.4246 21.9136 12.9594C20.4484 11.4941 20.4484 9.11093 21.9136 7.64567Z" fill="#0078D4"/>
  <path d="M32.2295 17.3214C31.7747 17.212 31.32 17.2372 30.899 17.3635L29.8968 15.7383C29.9137 15.7214 29.939 15.7046 29.9558 15.6793C32.92 12.7151 32.92 7.88985 29.9558 4.92564C26.9916 1.96143 22.1663 1.96143 19.2021 4.92564C16.2379 7.88985 16.2379 12.7151 19.2021 15.6793C19.2021 15.6793 19.2021 15.6793 19.2105 15.6877L18.1747 17.3635C17.7537 17.2372 17.299 17.212 16.8442 17.3214C15.4884 17.6414 14.6463 19.0056 14.9663 20.3614C15.2863 21.7172 16.6505 22.5593 18.0063 22.2393C19.3621 21.9193 20.2042 20.5551 19.8842 19.1993C19.7747 18.7446 19.5474 18.3488 19.2442 18.0288L20.179 16.513C22.7811 18.3572 26.2926 18.3741 28.9116 16.5551L29.8211 18.0372C29.5179 18.3488 29.2905 18.753 29.1811 19.2077C28.8611 20.5635 29.7032 21.9277 31.059 22.2477C32.4147 22.5677 33.779 21.7256 34.099 20.3699C34.4274 18.9972 33.5853 17.6414 32.2295 17.3214ZM20.3895 14.4835C18.0821 12.1762 18.0821 8.42038 20.3895 6.12143C22.6968 3.82248 26.4526 3.81406 28.7516 6.12143C31.059 8.4288 31.059 12.1846 28.7516 14.4835C26.4526 16.7909 22.6968 16.7909 20.3895 14.4835Z" fill="#50E6FF"/>
  <path d="M38.3094 35.6793C39.7831 34.2225 42.1662 34.2309 43.6231 35.7046C45.0799 37.1783 45.0715 39.5614 43.5978 41.0183C42.1241 42.4751 39.741 42.4667 38.2841 40.993C36.8188 39.5193 36.8357 37.1362 38.3094 35.6793Z" fill="#0078D4"/>
  <path d="M46.3601 33.0014C44.4485 31.073 41.7538 30.3825 39.278 30.9383L37.4759 28.0162C37.779 27.7046 38.0064 27.3004 38.1159 26.8456C38.4359 25.4899 37.5938 24.1256 36.238 23.8056C34.8822 23.4856 33.518 24.3278 33.198 25.6835C32.878 27.0393 33.7201 28.4035 35.0759 28.7235C35.5306 28.833 35.9853 28.8078 36.4064 28.6814L38.0485 31.3341C37.1643 31.6962 36.339 32.2351 35.6148 32.9509C34.2843 34.273 33.5432 35.9656 33.3917 37.7004H30.7896C30.6801 37.2793 30.4611 36.8751 30.1327 36.5467C29.1475 35.5614 27.5475 35.5614 26.5622 36.5467C25.5769 37.532 25.5769 39.132 26.5622 40.1172C27.5475 41.1025 29.1475 41.1025 30.1327 40.1172C30.4611 39.7888 30.6801 39.3846 30.7896 38.9635H33.3832C33.518 40.6899 34.2422 42.3825 35.5559 43.713C38.5032 46.6941 43.3285 46.7193 46.3096 43.7635C49.2822 40.7993 49.3075 35.9741 46.3601 33.0014ZM45.1138 42.5509C42.798 44.8499 39.0422 44.8246 36.7517 42.5088C34.4527 40.193 34.478 36.4372 36.7938 34.1467C39.1096 31.8478 42.8653 31.873 45.1559 34.1888C47.4548 36.5046 47.438 40.2604 45.1138 42.5509Z" fill="#50E6FF"/>
</svg>
