<svg data-slug-id="shield-cloud" xmlns="http://www.w3.org/2000/svg" viewBox="0 0 96 96">
    <path d="M10 10.1053V39.36H10.0168C10 70.7368 47.8947 96 47.8947 96C47.8947 96 85.7895 70.7368 85.7726 39.36H85.7895V10.1053L47.8947 0L10 10.1053Z" fill="#50E6FF"/>
    <path d="M73.1579 45.4737C85.7151 45.4737 95.8947 35.2941 95.8947 22.7368C95.8947 10.1796 85.7151 0 73.1579 0C60.6007 0 50.421 10.1796 50.421 22.7368C50.421 35.2941 60.6007 45.4737 73.1579 45.4737Z" fill="#0078D4"/>
    <path d="M71 30C75.9706 30 80 25.9706 80 21C80 16.0294 75.9706 12 71 12C66.0294 12 62 16.0294 62 21C62 25.9706 66.0294 30 71 30Z" fill="white"/>
    <path d="M85.625 23.25H62.375C60.511 23.25 59 24.761 59 26.625C59 28.489 60.511 30 62.375 30H85.625C87.489 30 89 28.489 89 26.625C89 24.761 87.489 23.25 85.625 23.25Z" fill="white"/>
    <path d="M80 27C83.3137 27 86 24.3137 86 21C86 17.6863 83.3137 15 80 15C76.6863 15 74 17.6863 74 21C74 24.3137 76.6863 27 80 27Z" fill="white"/>
</svg>
