<svg data-slug-id="shield-unlock-alt" xmlns="http://www.w3.org/2000/svg" viewBox="0 0 96 96">
    <path d="M47.8844 0.381958C37.8764 6.15582 26.9445 10.313 15.3198 12.6225V70.2071L47.7304 95.7661L80.6799 70.2841V12.6225C69.1322 10.313 58.1234 6.15582 48.1153 0.381958H47.8844Z" fill="#50E6FF"/>
    <path d="M60.2788 33.5633C60.2788 26.7116 54.6589 21.0148 47.7303 21.0148C41.5715 21.0148 36.4136 25.5569 35.4128 31.4847H40.4938C40.8787 30.2529 41.4946 29.1752 42.4184 28.2513C43.8811 26.7886 45.7287 26.0188 47.7303 26.0188C49.7319 26.0188 51.5796 26.7886 53.0423 28.2513C54.505 29.7141 55.2748 31.5617 55.2748 33.5633C55.2748 33.9482 55.2748 35.103 55.2748 36.5657H35.2588V61.6627H60.2788C60.2788 61.6627 60.2788 34.1022 60.2788 33.5633Z" fill="#0078D4"/>
    <path d="M47.7304 52.1213C49.3886 52.1213 50.7328 50.777 50.7328 49.1189C50.7328 47.4607 49.3886 46.1165 47.7304 46.1165C46.0723 46.1165 44.728 47.4607 44.728 49.1189C44.728 50.777 46.0723 52.1213 47.7304 52.1213Z" fill="#50E6FF"/>
</svg>
