<svg data-slug-id="shield-locked" xmlns="http://www.w3.org/2000/svg" viewBox="0 0 48 48">
    <path d="M23.9422 0.192505C18.9382 3.07943 13.4723 5.15802 7.65991 6.31279V35.1051L23.8652 47.8846L40.3399 35.1436V6.31279C34.5661 5.15802 29.0617 3.07943 24.0577 0.192505H23.9422Z" fill="#0078D4"/>
    <path d="M30.1394 16.7827C30.1394 13.3569 27.3295 10.5084 23.8652 10.5084C20.7858 10.5084 18.2068 12.7795 17.7064 15.7434H20.2469C20.4393 15.1275 20.7473 14.5886 21.2092 14.1267C21.9405 13.3954 22.8644 13.0104 23.8652 13.0104C24.866 13.0104 25.7898 13.3954 26.5211 14.1267C27.2525 14.8581 27.6374 15.7819 27.6374 16.7827C27.6374 16.9751 27.6374 17.5525 27.6374 18.2839H17.6294V30.8324H30.1394C30.1394 30.8324 30.1394 17.0521 30.1394 16.7827Z" fill="#50E6FF"/>
    <path d="M17.6294 16.7827C17.6294 13.3569 20.4393 10.5084 23.9036 10.5084C26.983 10.5084 29.562 12.7795 30.0624 15.7434H27.5219C27.3295 15.1275 27.0215 14.5886 26.5596 14.1267C25.8283 13.3954 24.9044 13.0104 23.9036 13.0104C22.9028 13.0104 21.979 13.3954 21.2477 14.1267C20.5163 14.8581 20.1314 15.7819 20.1314 16.7827C20.1314 16.9751 20.1314 17.5525 20.1314 18.2839H30.1394V30.8324H17.6294C17.6294 30.8324 17.6294 17.0521 17.6294 16.7827Z" fill="#50E6FF"/>
    <path d="M23.8652 26.0593C24.6943 26.0593 25.3664 25.3872 25.3664 24.5581C25.3664 23.729 24.6943 23.0569 23.8652 23.0569C23.0361 23.0569 22.364 23.729 22.364 24.5581C22.364 25.3872 23.0361 26.0593 23.8652 26.0593Z" fill="#0078D4"/>
</svg>
