<svg data-slug-id="ship-wheel" viewBox="0 0 48 48" xmlns="http://www.w3.org/2000/svg">
    <path fill-rule="evenodd" clip-rule="evenodd" d="M15.3242 46.7041C14.1984 46.707 13.1337 46.1895 12.438 45.3027L1.57532 31.7551C0.855009 30.8672 0.591289 29.691 0.861897 28.578L4.74094 11.6657C4.9899 10.5567 5.73383 9.62637 6.7582 9.14246L22.4623 1.60426C23.4818 1.10652 24.6715 1.10652 25.6899 1.60426L41.3951 9.11085C42.4194 9.59378 43.1634 10.5251 43.4123 11.6331L47.2914 28.5464C47.5472 29.6594 47.2845 30.8277 46.5779 31.7235L35.7152 45.2731C35.0097 46.149 33.9509 46.6626 32.8291 46.6744L15.3242 46.705V46.7041Z" fill="#0078D4"/>
    <path fill-rule="evenodd" clip-rule="evenodd" d="M24.0454 0.54541C23.3802 0.552323 22.7248 0.701448 22.1216 0.980933L6.41652 8.51913C5.18846 9.09785 4.29594 10.2128 3.9968 11.5401L0.117751 28.4534C-0.196155 29.7867 0.125623 31.19 0.986649 32.2526L11.8484 45.8022C12.6858 46.852 13.9542 47.4604 15.2935 47.4545H32.7039C34.0432 47.4604 35.3126 46.853 36.149 45.8032L47.0117 32.2546C47.8757 31.193 48.1974 29.7876 47.8806 28.4544L44.0015 11.5411C43.7024 10.2138 42.8089 9.09884 41.5808 8.52012L25.9387 0.980933C25.3473 0.697497 24.7008 0.54936 24.0454 0.54541ZM24.0454 2.009C24.4853 2.009 24.9192 2.1048 25.3178 2.28948L41.0229 9.79508C41.8367 10.1931 42.4291 10.9357 42.6367 11.8196L46.5147 28.7329C46.7332 29.6296 46.5138 30.5767 45.9253 31.2858L35.0626 44.8364C34.4997 45.5474 33.6417 45.9612 32.7364 45.9573H15.324C14.4187 45.9612 13.5616 45.5474 12.9977 44.8364L2.13403 31.2868C1.57313 30.5639 1.35763 29.6296 1.54459 28.7329L5.42462 11.8196C5.62536 10.9328 6.21972 10.1862 7.03745 9.79508L22.7426 2.25689C23.1588 2.0969 23.5996 2.01197 24.0454 2.00703V2.009Z" fill="#50E6FF"/>
    <path fill-rule="evenodd" clip-rule="evenodd" d="M32.2699 29.9797C31.5063 31.1914 30.4898 32.2225 29.2903 33.0007L27.335 28.2978C27.2337 27.9127 27.4147 27.5097 27.77 27.332C27.9058 27.2678 28.0544 27.2362 28.2049 27.2381L33.1703 28.0796C32.9784 28.759 32.6744 29.4019 32.2699 29.9797ZM26.2162 34.3092C25.5028 34.4702 24.7746 34.5541 24.0435 34.5591C22.9797 34.5522 21.9219 34.3833 20.9093 34.0584L23.3596 29.6054C23.5997 29.3081 24.012 29.2182 24.3534 29.3861C24.4991 29.476 24.625 29.5915 24.7264 29.7298L27.1166 34.0584C26.8371 34.1522 26.5271 34.2144 26.2172 34.3092H26.2162ZM14.89 28.1102L19.8249 27.2697C20.2353 27.2431 20.6033 27.5216 20.6938 27.9235C20.7312 28.0904 20.7204 28.2642 20.6623 28.4242L18.7691 33.0007C16.9801 31.8383 15.6182 30.1219 14.89 28.1102ZM15.7274 19.6703L19.4205 22.9708C19.758 23.2671 19.7993 23.7777 19.514 24.1233C19.4254 24.2517 19.2916 24.3406 19.14 24.3742L14.3321 25.7745C14.1353 23.6424 14.6243 21.5033 15.7274 19.6703ZM21.8422 15.2469C22.1836 15.1847 22.4936 15.1225 22.8351 15.0603L22.5556 20.0436C22.532 20.493 22.1659 20.8465 21.7172 20.8515C21.5873 20.8544 21.4584 20.8228 21.3433 20.7586L17.2163 17.7979C18.4847 16.5239 20.0886 15.638 21.8402 15.244L21.8422 15.2469ZM30.8421 17.8008L26.7761 20.6974C26.4199 20.9216 25.9525 20.8416 25.6897 20.5107C25.6081 20.413 25.5549 20.2945 25.5352 20.1681L25.2568 15.0909C27.3705 15.3348 29.3385 16.2908 30.8421 17.8008ZM33.5128 22.6291C33.7529 23.6591 33.8267 24.7218 33.7293 25.7745L28.9803 24.4038C28.5513 24.2813 28.2925 23.8448 28.3909 23.4083C28.4204 23.2789 28.4854 23.1604 28.5769 23.0656L32.3319 19.6703C32.881 20.5868 33.2786 21.5862 33.5118 22.6311L33.5128 22.6291ZM25.4103 25.8684L24.0454 26.5231L22.6796 25.8684L22.3381 24.4038L23.27 23.2207H24.7903L25.7212 24.4038L25.4103 25.8684ZM39.7801 27.3942H39.7495C39.7181 27.3942 39.6876 27.3942 39.6876 27.3636C39.6256 27.3636 39.5626 27.332 39.5006 27.332C39.3058 27.2974 39.1089 27.2767 38.9112 27.2697C38.8068 27.2737 38.7025 27.2628 38.6012 27.2381H38.5697C38.0029 27.2036 37.441 27.1098 36.8939 26.9577C36.7374 26.8964 36.6144 26.772 36.5524 26.616C36.5524 26.5844 36.5209 26.5844 36.5209 26.5537L36.1175 26.4283C36.3084 24.9628 36.2346 23.4755 35.9 22.0366C35.5615 20.5848 34.9741 19.2042 34.1622 17.9559L34.4732 17.6764V17.6142C34.4673 17.4443 34.5224 17.2784 34.6277 17.1461C35.0626 16.7816 35.53 16.4587 36.025 16.1822C36.1185 16.12 36.211 16.0884 36.3045 16.0261C36.4865 15.9343 36.6626 15.8296 36.8319 15.7151C36.8634 15.6835 36.9244 15.6528 36.9864 15.5896C37.0179 15.558 37.0484 15.558 37.0484 15.5274C37.4755 15.1897 37.5699 14.5784 37.2659 14.126C37.0956 13.9058 36.8309 13.7784 36.5524 13.7834C36.3045 13.7903 36.0644 13.8782 35.8695 14.0342L35.8075 14.0964C35.7455 14.127 35.715 14.1892 35.653 14.2208C35.5104 14.3581 35.3755 14.5043 35.2496 14.6564C35.1846 14.7374 35.1118 14.8104 35.0321 14.8756C34.6592 15.2914 34.2429 15.6677 33.7903 15.9965C33.7086 16.0548 33.6122 16.0874 33.5118 16.0894C33.4478 16.0943 33.3839 16.0834 33.3258 16.0587H33.2638L32.8899 16.3086C32.4884 15.8889 32.0643 15.4929 31.6165 15.1225C29.7469 13.655 27.4944 12.7573 25.1308 12.537L25.0993 12.1321L25.0373 12.0699C24.9064 11.9721 24.8179 11.827 24.7884 11.665C24.7766 11.1031 24.808 10.5401 24.8818 9.98315V9.95154C24.8868 9.84587 24.9084 9.7402 24.9438 9.64046C24.9743 9.4538 25.0048 9.26518 25.0363 9.0489V8.76842C25.0787 8.24599 24.69 7.78677 24.1694 7.7443C23.8772 7.7206 23.5908 7.83417 23.393 8.05045C23.208 8.24204 23.1067 8.4998 23.1145 8.76744V9.01729C23.1126 9.21876 23.144 9.41825 23.208 9.60984C23.2385 9.70267 23.2385 9.79649 23.27 9.91994V9.95154C23.3586 10.5076 23.3901 11.0715 23.3625 11.6334C23.333 11.7954 23.2444 11.9405 23.1135 12.0383L23.0515 12.1005L23.0201 12.5064C22.4572 12.5588 21.8973 12.6417 21.3443 12.7563C18.9924 13.2728 16.8522 14.4875 15.199 16.2444L14.889 16.0261H14.828C14.766 16.0261 14.703 16.0577 14.642 16.0577C14.5417 16.0548 14.4442 16.0232 14.3626 15.9639C13.9109 15.6232 13.4947 15.2381 13.1217 14.8114C13.0568 14.7314 12.9839 14.6583 12.9042 14.5932C12.7773 14.4411 12.6435 14.2949 12.5008 14.1576C12.4693 14.126 12.4073 14.0954 12.3453 14.0322C12.3148 14.0006 12.2833 14.0006 12.2833 13.97C12.0914 13.81 11.8503 13.7221 11.6014 13.7201C11.3229 13.7152 11.0582 13.8416 10.888 14.0628C10.5829 14.5151 10.6784 15.1255 11.1044 15.4642C11.1359 15.4642 11.1359 15.4948 11.1664 15.4948C11.2284 15.5264 11.2589 15.5886 11.3209 15.6203C11.4902 15.7358 11.6673 15.8405 11.8494 15.9323C11.9487 15.9718 12.0422 16.0242 12.1278 16.0874C12.6228 16.3649 13.0902 16.6888 13.5252 17.0532C13.6442 17.1777 13.7003 17.3485 13.6797 17.5204V17.5826L13.9896 17.8621C13.9276 17.9391 13.8755 18.023 13.8351 18.1129C12.2981 20.5581 11.6811 23.4745 12.0973 26.3355L11.6939 26.4609C11.6939 26.4925 11.6624 26.4925 11.6624 26.5231C11.5915 26.6732 11.4705 26.7937 11.3209 26.8658C10.7738 27.0199 10.2119 27.1137 9.64513 27.1463H9.61364C9.50934 27.1404 9.40503 27.1512 9.30367 27.1769C9.10588 27.1838 8.90908 27.2046 8.71424 27.2391C8.65225 27.2391 8.58927 27.2707 8.52826 27.2707C8.49382 27.2658 8.45938 27.2776 8.43478 27.3023C7.90242 27.409 7.54718 27.9156 7.62787 28.4548C7.743 28.9022 8.16122 29.2034 8.62076 29.1708C8.70538 29.1758 8.79001 29.1649 8.8707 29.1392C8.90121 29.1392 8.93171 29.1392 8.93171 29.1086C8.9937 29.1086 9.05668 29.077 9.11868 29.077C9.31056 29.0227 9.49753 28.9496 9.67662 28.8578C9.76912 28.8262 9.8626 28.7639 9.9551 28.7323H9.98659C10.5052 28.518 11.0474 28.361 11.6004 28.2652H11.6624C11.81 28.2721 11.9517 28.3274 12.0658 28.4213C12.0973 28.4213 12.0973 28.4529 12.1278 28.4529L12.5618 28.3906C13.3116 30.7016 14.7267 32.739 16.6278 34.246C17.0529 34.5749 17.4987 34.8761 17.9621 35.1487L17.7762 35.5536C17.7762 35.5852 17.8077 35.5852 17.8077 35.6158C17.8952 35.7669 17.9179 35.9476 17.8696 36.1165C17.6473 36.629 17.3767 37.1189 17.0618 37.5801V37.6117C17.0008 37.7045 16.9378 37.7667 16.8758 37.8615C16.7518 38.0176 16.6593 38.1726 16.5343 38.3622C16.4969 38.4096 16.4654 38.462 16.4418 38.5173C16.4389 38.541 16.4271 38.5627 16.4103 38.5795C16.1525 39.0585 16.3296 39.656 16.8069 39.9157C16.8089 39.9167 16.8118 39.9177 16.8138 39.9187C16.9299 39.9789 17.0578 40.0115 17.1877 40.0125C17.5803 39.9937 17.9336 39.7685 18.1186 39.4209C18.1225 39.3972 18.1334 39.3755 18.1501 39.3587C18.1737 39.3024 18.2052 39.2501 18.2436 39.2027C18.3144 39.019 18.3764 38.8323 18.4296 38.6417L18.5221 38.3622C18.6785 37.8191 18.898 37.2966 19.1745 36.8048C19.2758 36.6705 19.4165 36.5727 19.5779 36.5244C19.6084 36.5244 19.6084 36.5243 19.6399 36.4927L19.8564 36.0888C21.2429 36.6231 22.716 36.8977 24.2019 36.8977C25.1111 36.9036 26.0174 36.7989 26.9021 36.5866C27.4492 36.4641 27.9874 36.3081 28.5159 36.1194L28.7018 36.4621C28.7333 36.4621 28.7333 36.4621 28.7638 36.4937C28.9331 36.5224 29.0817 36.6251 29.1673 36.7732C29.4251 37.2729 29.6426 37.7924 29.8177 38.3267V38.3583L29.9112 38.6388C29.9594 38.8294 30.0214 39.017 30.0972 39.1987C30.1287 39.2609 30.1592 39.2925 30.1907 39.3547C30.1936 39.3785 30.2045 39.4002 30.2212 39.417C30.3963 39.7735 30.7555 40.0026 31.1521 40.0085C31.283 40.0075 31.4109 39.9759 31.527 39.9157C31.7514 39.7992 31.9186 39.5977 31.9905 39.3547C32.0633 39.096 32.0416 38.8205 31.9295 38.5765C31.9295 38.5449 31.898 38.5449 31.898 38.5143C31.8744 38.458 31.8429 38.4057 31.8045 38.3583C31.709 38.1795 31.5949 38.0126 31.463 37.8586C31.401 37.7647 31.339 37.7025 31.2771 37.6077V37.5771C30.9513 37.1228 30.6797 36.631 30.4701 36.1125C30.4318 35.9466 30.4426 35.7728 30.5016 35.6128C30.5016 35.5812 30.5321 35.5812 30.5321 35.5506L30.3777 35.1753C32.944 33.6347 34.8629 31.2102 35.779 28.3541L36.1529 28.4163C36.1844 28.4163 36.1844 28.3847 36.2149 28.3847C36.332 28.2958 36.4717 28.2425 36.6174 28.2297H36.6794C37.2334 28.3245 37.7746 28.4815 38.2942 28.6958H38.3247C38.4182 28.7274 38.5107 28.7896 38.6041 28.8212C38.7822 28.9121 38.9702 28.9862 39.1631 29.0395C39.2241 29.0395 39.2871 29.0711 39.349 29.0711C39.3835 29.0661 39.4169 29.078 39.4425 29.1017C39.5222 29.1274 39.6069 29.1382 39.6915 29.1333C40.1412 29.1343 40.5417 28.8459 40.6844 28.4163C40.6273 27.9196 40.2681 27.5097 39.784 27.3892L39.7801 27.3942Z" fill="#50E6FF"/>
</svg>
