<svg data-slug-id="solution-architectures-alt" viewBox="0 0 48 48" xmlns="http://www.w3.org/2000/svg">
<path d="M18.0252 36.4954H16.9238V13.9798L29.726 13.9219L29.7508 15.0232L18.0252 15.0812V36.4954Z" fill="#50E6FF"/>
<path d="M22.8863 24.3008H18.8867V25.4021H22.8863V24.3008Z" fill="#50E6FF"/>
<path d="M22.2983 26.8915L25.8342 24.8461L22.2983 22.8008V26.8915Z" fill="#50E6FF"/>
<path d="M10.9864 24.3008H6.98682V25.4021H10.9864V24.3008Z" fill="#50E6FF"/>
<path d="M10.3823 26.8915L13.9182 24.8461L10.3823 22.8008V26.8915Z" fill="#50E6FF"/>
<path d="M35.7379 24.3008H31.7383V25.4021H35.7379V24.3008Z" fill="#50E6FF"/>
<path d="M35.1582 26.8915L38.6941 24.8461L35.1582 22.8008V26.8915Z" fill="#50E6FF"/>
<path d="M33.3698 11H26.3062V18.0884H33.3946V11H33.3698Z" fill="#0078D7"/>
<path d="M47 24.8553L42.8596 20.7148L38.7192 24.8553L42.8596 28.9957L47 24.8553Z" fill="#0078D7"/>
<path d="M20.9815 21.3164H13.8931V28.38H20.9815V21.3164Z" fill="#0078D7"/>
<path d="M19.0438 31.75H15.8391C14.7626 31.75 13.9097 32.6029 13.9097 33.6794V36.8841C13.9097 37.9606 14.7626 38.8135 15.8391 38.8135H19.0438C20.1203 38.8135 20.9732 37.9606 20.9732 36.8841V33.6794C20.9815 32.6029 20.0955 31.75 19.0438 31.75Z" fill="#0078D7"/>
<path d="M19.4911 11H15.4087L13.3633 14.5359L15.4087 18.0635H19.4911L21.5365 14.5276L19.4911 11Z" fill="#0078D7"/>
<path d="M5.03276 28.878C7.26859 28.878 9.06553 27.0811 9.06553 24.8453C9.06553 22.6094 7.26859 20.8125 5.03276 20.8125C2.79694 20.8125 1 22.6177 1 24.8535C1 27.0894 2.79694 28.878 5.03276 28.878Z" fill="#0078D7"/>
<path d="M29.8341 28.878C32.0699 28.878 33.8668 27.0811 33.8668 24.8453C33.8668 22.6094 32.0699 20.8125 29.8341 20.8125C27.5982 20.8125 25.8013 22.6094 25.8013 24.8453C25.8013 27.0811 27.6314 28.878 29.8341 28.878Z" fill="#0078D7"/>
</svg>
