<svg data-slug-id="solution-architectures" viewBox="0 0 73 73" xmlns="http://www.w3.org/2000/svg">
    <path d="M28.3721 53.3741H26.7939V21.1795L45.1007 21.1006L45.1401 22.6788L28.3721 22.7577V53.3741Z" fill="#C7C7C7"/>
    <path d="M35.3156 35.9355H29.5947V37.5137H35.3156V35.9355Z" fill="#C7C7C7"/>
    <path d="M34.4863 39.6439L39.5365 36.7243L34.4863 33.8047V39.6439Z" fill="#C7C7C7"/>
    <path d="M18.3087 35.9346H12.5879V37.5127H18.3087V35.9346Z" fill="#C7C7C7"/>
    <path d="M17.4434 39.6439L22.4935 36.7243L17.4434 33.8047V39.6439Z" fill="#C7C7C7"/>
    <path d="M53.6994 35.9346H47.9785V37.5127H53.6994V35.9346Z" fill="#C7C7C7"/>
    <path d="M52.873 39.6439L57.9232 36.7243L52.873 33.8047V39.6439Z" fill="#C7C7C7"/>
    <path d="M50.3092 16.9189H40.209V27.0587H50.3487V16.9189H50.3092Z" fill="#7F7F7F"/>
    <path d="M69.8001 36.7257L63.882 30.8076L57.9639 36.7257L63.882 42.6439L69.8001 36.7257Z" fill="#C9C9C9"/>
    <path d="M32.5938 31.6738H22.4541V41.7741H32.5938V31.6738Z" fill="#7F7F7F"/>
    <path d="M29.8326 46.5879H25.2559C23.7172 46.5879 22.4941 47.811 22.4941 49.3497V53.9264C22.4941 55.4651 23.7172 56.6882 25.2559 56.6882H29.8326C31.3713 56.6882 32.5944 55.4651 32.5944 53.9264V49.3497C32.5944 47.811 31.3319 46.5879 29.8326 46.5879Z" fill="#6A6A6A"/>
    <path d="M30.4639 16.9189H24.6247L21.7051 21.9691L24.6247 27.0192H30.4639L33.3835 21.9691L30.4639 16.9189Z" fill="#949494"/>
    <path d="M9.78863 42.4855C12.9844 42.4855 15.5489 39.9209 15.5489 36.7251C15.5489 33.5294 12.9844 30.9648 9.78863 30.9648C6.59284 30.9648 4.02832 33.5294 4.02832 36.7251C4.02832 39.9209 6.59284 42.4855 9.78863 42.4855Z" fill="#969696"/>
    <path d="M45.2584 42.4855C48.4541 42.4855 51.0187 39.9209 51.0187 36.7251C51.0187 33.5294 48.4541 30.9648 45.2584 30.9648C42.0626 30.9648 39.498 33.5294 39.498 36.7251C39.498 39.9209 42.102 42.4855 45.2584 42.4855Z" fill="#464646"/>
</svg>
