<svg data-slug-id="spring-cloud" viewBox="0 0 36 36" xmlns="http://www.w3.org/2000/svg">
    <path d="M18 36C8.064 36 0 27.936 0 18C0 8.064 8.064 0 18 0C27.936 0 36 8.064 36 18C36 27.936 27.936 36 18 36Z" fill="#68BD45"/>
    <path d="M27.864 24.2633C31.464 20.0873 30.096 12.8873 28.872 8.2793C27.36 11.0153 23.832 12.9593 20.88 13.4633C18.144 13.9673 15.12 13.1753 12.528 13.9673C6.69603 15.7673 6.33603 22.6073 9.36003 24.3353L9.50403 24.4793C9.50403 24.4793 14.904 23.9033 17.496 23.1113C21.312 21.9593 25.632 18.8633 27.288 14.9753C26.28 19.0793 22.536 22.7513 18.864 24.3353C16.92 25.1993 15.48 25.4153 12.24 26.2073C11.448 26.4233 10.728 26.7113 10.08 27.2153C13.68 24.9113 23.472 29.3753 27.864 24.2633ZM7.41603 27.7193C8.28003 27.7193 8.92803 26.9993 8.92803 26.1353C8.92803 25.2713 8.20803 24.6233 7.34403 24.6233C6.48003 24.6233 5.83203 25.3433 5.83203 26.2073C5.90403 27.0713 6.55203 27.7193 7.41603 27.7193Z" fill="white"/>
</svg>
