<svg data-slug-id="sql-database-edge" xmlns="http://www.w3.org/2000/svg" viewBox="0 0 49 49">
    <path d="M6.89062 7.13281V41.3286C6.89062 44.8529 14.7966 47.8058 24.6076 47.8058V7.13281H6.89062Z" fill="#0072C5"/>
    <path d="M24.418 47.8058H24.7037C34.5148 47.8058 42.4207 44.9482 42.4207 41.3286V7.13281H24.418V47.8058Z" fill="#0072C5"/>
    <path d="M24.2266 47.8053H24.5123C34.4186 47.8053 42.5151 44.9477 42.5151 41.3281V7.03711H24.3218L24.2266 47.8053Z" fill="#3A93CE"/>
    <path d="M42.4184 7.13344C42.4184 10.6578 34.5124 13.6106 24.7014 13.6106C14.8904 13.6106 6.98438 10.753 6.98438 7.13344C6.98438 3.51383 14.8904 0.65625 24.7014 0.65625C34.5124 0.65625 42.4184 3.60909 42.4184 7.13344Z" fill="#fff"/>
    <path d="M38.8003 6.75122C38.8003 9.13254 32.5136 11.0376 24.7029 11.0376C16.8922 11.0376 10.6055 9.13254 10.6055 6.75122C10.6055 4.3699 16.8922 2.46484 24.7029 2.46484C32.5136 2.46484 38.8003 4.3699 38.8003 6.75122Z" fill="#7FB900"/>
    <path d="M35.8475 9.32305C37.6573 8.56102 38.8003 7.70375 38.8003 6.75122C38.8003 4.3699 32.5136 2.46484 24.7029 2.46484C16.8922 2.46484 10.6055 4.3699 10.6055 6.75122C10.6055 7.70375 11.7485 8.65628 13.5583 9.32305C16.1301 8.27526 20.226 7.70375 24.7029 7.70375C29.1798 7.70375 33.2756 8.37052 35.8475 9.32305Z" fill="#B7D332"/>
    <path d="M18.9868 30.8499C18.9868 31.8977 18.6058 32.755 17.8438 33.3265C17.0818 33.898 16.034 34.1838 14.6052 34.1838C13.4621 34.1838 12.5096 33.9933 11.7476 33.517V31.0404C12.6049 31.8025 13.6527 32.1835 14.7004 32.1835C15.1767 32.1835 15.653 32.0882 15.9387 31.8977C16.2245 31.7072 16.3197 31.4215 16.3197 31.0404C16.3197 30.6594 16.2245 30.3737 15.9387 30.1832C15.653 29.8974 15.0814 29.6117 14.2242 29.2306C12.5096 28.4686 11.6523 27.3256 11.6523 25.9921C11.6523 24.9443 12.0334 24.1822 12.7954 23.6107C13.5574 23.0392 14.5099 22.6582 15.7482 22.6582C16.796 22.6582 17.7485 22.8487 18.5105 23.1345V25.5158C17.7485 25.0395 16.8912 24.7538 15.9387 24.7538C15.4625 24.7538 15.0814 24.849 14.7957 25.0395C14.5099 25.23 14.4147 25.5158 14.4147 25.8968C14.4147 26.2778 14.5099 26.5636 14.7957 26.7541C14.9862 26.9446 15.4625 27.2303 16.2245 27.6113C17.2723 28.0876 18.0343 28.5639 18.5105 29.1354C18.7963 29.5164 18.9868 30.0879 18.9868 30.8499Z" fill="#fff"/>
    <path d="M28.4183 28.4686C28.4183 27.3256 28.1325 26.4683 27.6563 25.8015C27.18 25.1348 26.5132 24.849 25.656 24.849C24.7987 24.849 24.0367 25.1348 23.5604 25.8015C22.9889 26.4683 22.7984 27.3256 22.7984 28.4686C22.7984 29.5164 23.0841 30.4689 23.5604 31.1357C24.0367 31.8025 24.7987 32.0882 25.656 32.0882C26.5132 32.0882 27.18 31.8025 27.7515 31.1357C28.1325 30.4689 28.4183 29.6117 28.4183 28.4686ZM31.0854 28.3734C31.0854 29.7069 30.7996 30.8499 30.2281 31.8025C29.6566 32.755 28.7993 33.4218 27.6563 33.8028L30.8949 36.8509H27.6563L25.3702 34.279C24.4177 34.279 23.4652 33.9933 22.7031 33.517C21.9411 33.0408 21.2743 32.374 20.8933 31.5167C20.4171 30.6594 20.2266 29.7069 20.2266 28.6591C20.2266 27.5161 20.4171 26.4683 20.8933 25.5158C21.3696 24.5633 22.0364 23.8965 22.8936 23.4202C23.7509 22.944 24.7034 22.6582 25.8465 22.6582C26.8943 22.6582 27.8468 22.8487 28.6088 23.325C29.4661 23.8012 30.0376 24.468 30.5139 25.3253C30.8949 26.2778 31.0854 27.2303 31.0854 28.3734Z" fill="#fff"/>
    <path d="M39.6575 33.9922H32.8945V22.8477H35.4664V31.9919H39.6575V33.9922Z" fill="#fff"/>
</svg>
