<svg data-slug-id="sql-database-blue" xmlns="http://www.w3.org/2000/svg" viewBox="0 0 49 49">
  <path d="m6.40421 7.40442v34.19578c0 3.5243 7.88969 6.4772 17.68039 6.4772v-40.67298z" fill="#0078d4"/>
  <path d="m23.8946 48.0774h.2852c9.7907 0 17.6804-2.8576 17.6804-6.4772v-34.19578h-17.9656z" fill="#0072c5"/>
  <path d="m23.7043 48.0779h.2852c9.8858 0 17.9656-2.8576 17.9656-6.4772v-34.29101h-18.1557z" fill="#0078d4"/>
  <path d="m41.8584 7.40553c0 3.52437-7.8897 6.47717-17.6805 6.47717-9.7907 0-17.68039-2.8576-17.68039-6.47717 0-3.6196 7.88969-6.477185 17.68039-6.477185 9.7908 0 17.6805 2.952835 17.6805 6.477185z" fill="#fff"/><path d="m38.2481 7.0238c0 2.38132-6.2737 4.2864-14.0683 4.2864s-14.0683-1.90508-14.0683-4.2864 6.2737-4.28637 14.0683-4.28637 14.0683 1.90505 14.0683 4.28637z" fill="#50e6ff"/>
  <path d="m35.3013 9.59563c1.8061-.76202 2.9468-1.6193 2.9468-2.57183 0-2.38132-6.2737-4.28637-14.0683-4.28637s-14.0683 1.90505-14.0683 4.28637c0 .95253 1.1407 1.90506 2.9467 2.57183 2.5665-1.04778 6.654-1.6193 11.1216-1.6193s8.555.66677 11.1215 1.6193z" fill="#50e6ff"/>
  <g fill="#fff">
    <path d="m18.4752 31.122c0 1.0478-.3803 1.9051-1.1407 2.4766-.7605.5715-1.8061.8573-3.2319.8573-1.1407 0-2.0913-.1905-2.8517-.6668v-2.4766c.8555.7621 1.9011 1.1431 2.9467 1.1431.4753 0 .9506-.0953 1.2358-.2858.2851-.1905.3802-.4762.3802-.8573 0-.381-.0951-.6667-.3802-.8572-.2852-.2858-.8555-.5715-1.711-.9526-1.7111-.762-2.5666-1.905-2.5666-3.2386 0-1.0477.3803-1.8098 1.1407-2.3813.7605-.5715 1.711-.9525 2.9467-.9525 1.0457 0 1.9962.1905 2.7567.4763v2.3813c-.7605-.4763-1.616-.762-2.5665-.762-.4753 0-.8555.0952-1.1407.2857s-.3802.4763-.3802.8573.095.6668.3802.8573c.1901.1905.6654.4762 1.4258.8572 1.0456.4763 1.8061.9526 2.2814 1.5241.2851.381.4753.9525.4753 1.7145z"/><path d="m27.8868 28.7412c0-1.143-.2852-2.0003-.7604-2.6671-.4753-.6667-1.1407-.9525-1.9962-.9525s-1.616.2858-2.0913.9525c-.5703.6668-.7604 1.5241-.7604 2.6671 0 1.0478.2852 2.0003.7604 2.6671.4753.6668 1.2358.9525 2.0913.9525s1.5209-.2857 2.0912-.9525c.3802-.6668.6654-1.5241.6654-2.6671zm2.6616-.0952c0 1.3335-.2852 2.4765-.8555 3.4291-.5704.9525-1.4259 1.6193-2.5665 2.0003l3.2319 3.0481h-3.2319l-2.2814-2.5719c-.9506 0-1.9011-.2857-2.6616-.762-.7604-.4763-1.4258-1.143-1.806-2.0003-.4753-.8573-.6654-1.8098-.6654-2.8576 0-1.143.1901-2.1908.6654-3.1433.4753-.9526 1.1406-1.6193 1.9962-2.0956.8555-.4763 1.806-.762 2.9467-.762 1.0456 0 1.9962.1905 2.7566.6668.8555.4762 1.4259 1.143 1.9011 2.0003.3803.9525.5704 1.905.5704 3.0481z"/><path d="m39.1036 34.2653h-6.749v-11.1446h2.5666v9.1443h4.1824z"/>
  </g>
</svg>
