<svg data-slug-id="squares-in-blue-square" xmlns="http://www.w3.org/2000/svg" viewBox="0 0 48 48">
  <path d="M0 48H48V0H0V48Z" fill="#0078D4"/>
  <path d="M15.1885 32.793H10.0835V37.8642H15.1885V32.793Z" fill="#50E6FF"/>
  <path d="M22.7615 32.793H17.6566V37.8642H22.7615V32.793Z" fill="#50E6FF"/>
  <path d="M30.242 32.793H25.1371V37.8642H30.242V32.793Z" fill="#50E6FF"/>
  <path d="M15.1885 25.2148H10.0835V30.2861H15.1885V25.2148Z" fill="#50E6FF"/>
  <path d="M22.7615 25.2148H17.6566V30.2861H22.7615V25.2148Z" fill="#50E6FF"/>
  <path d="M15.1885 17.6289H10.0835V22.7002H15.1885V17.6289Z" fill="#50E6FF"/>
  <path d="M15.1885 9.96484H10.0835V15.0361H15.1885V9.96484Z" fill="white"/>
  <path d="M22.7615 17.6289H17.6566V22.7002H22.7615V17.6289Z" fill="white"/>
  <path d="M30.242 25.2148H25.1371V30.2861H30.242V25.2148Z" fill="white"/>
  <path d="M37.9585 32.793H32.8536V37.8642H37.9585V32.793Z" fill="white"/>
</svg>
