<svg data-slug-id="squares-clapperboard" xmlns="http://www.w3.org/2000/svg" viewBox="0 0 49 49">
  <path d="M10.6629 37.9152H0.571777V48.0063H10.6629V37.9152Z" fill="#50E6FF"/>
  <path d="M23.2769 37.9152H13.1858V48.0063H23.2769V37.9152Z" fill="#50E6FF"/>
  <path d="M35.8907 37.9152H25.7996V48.0063H35.8907V37.9152Z" fill="#50E6FF"/>
  <path d="M48.5044 37.9152H38.4133V48.0063H48.5044V37.9152Z" fill="#50E6FF"/>
  <path d="M10.6629 25.3013H0.571777V35.3924H10.6629V25.3013Z" fill="#0078D4"/>
  <path d="M23.2769 25.3013H13.1858V35.3924H23.2769V25.3013Z" fill="#0078D4"/>
  <path d="M35.8907 25.3013H25.7996V35.3924H35.8907V25.3013Z" fill="#0078D4"/>
  <path d="M48.5044 25.3013H38.4133V35.3924H48.5044V25.3013Z" fill="#0078D4"/>
  <path d="M23.2769 7.64185H13.1858V17.733H23.2769V7.64185Z" fill="#0078D4"/>
  <path d="M10.6629 5.11914H0.571777V15.2103H10.6629V5.11914Z" fill="#0078D4"/>
  <path d="M35.8907 10.1647H25.7996V20.2558H35.8907V10.1647Z" fill="#0078D4"/>
  <path d="M48.5044 12.6874H38.4133V22.7786H48.5044V12.6874Z" fill="#0078D4"/>
</svg>
