<svg data-slug-id="squares-connected" xmlns="http://www.w3.org/2000/svg" viewBox="0 0 48 48">
  <path d="M7.26295 41.1524H6V23H19.4883V24.2594H7.26295V41.1524Z" fill="#0078D4"/>
  <path d="M41.4047 6H6V7.25942H41.4047V6Z" fill="#0078D4"/>
  <path d="M42.0913 24.4211H21V23.1616H40.8283V6H42.0913V24.4211Z" fill="#50E6FF"/>
  <path d="M43.2635 41H7V42.2594H43.2635V41Z" fill="#50E6FF"/>
  <path d="M12.7305 0H0V12.6949H12.7305V0Z" fill="#50E6FF"/>
  <path d="M30.7305 0H18V12.6949H30.7305V0Z" fill="#50E6FF"/>
  <path d="M47.7305 0H35V12.6949H47.7305V0Z" fill="#0078D4"/>
  <path d="M12.7305 18H0V30.6949H12.7305V18Z" fill="#50E6FF"/>
  <path d="M30.7305 18H18V30.6949H30.7305V18Z" fill="#0078D4"/>
  <path d="M47.7305 18H35V30.6949H47.7305V18Z" fill="#0078D4"/>
  <path d="M12.7305 35H0V47.6949H12.7305V35Z" fill="#0078D4"/>
  <path d="M30.7305 35H18V47.6949H30.7305V35Z" fill="#0078D4"/>
  <path d="M47.7305 35H35V47.6949H47.7305V35Z" fill="#0078D4"/>
</svg>
