<svg data-slug-id="square-circles-search" xmlns="http://www.w3.org/2000/svg" viewBox="0 0 49 49">
	<path d="M5.04252 8.33296C3.64511 8.33296 2.51709 7.20493 2.51709 5.80753C2.51709 4.41013 3.64511 3.2821 5.04252 3.2821C6.43992 3.2821 7.56794 4.41013 7.56794 5.80753C7.56794 7.19652 6.4315 8.33296 5.04252 8.33296Z" fill="#50E6FF"/>
	<path d="M12.6187 8.33296C11.2213 8.33296 10.0933 7.20493 10.0933 5.80753C10.0933 4.41013 11.2213 3.2821 12.6187 3.2821C14.0161 3.2821 15.1441 4.41013 15.1441 5.80753C15.1441 7.19652 14.0077 8.33296 12.6187 8.33296Z" fill="#50E6FF"/>
	<path d="M20.2203 8.33296C18.8228 8.33296 17.6948 7.20493 17.6948 5.80753C17.6948 4.41013 18.8228 3.2821 20.2203 3.2821C21.6177 3.2821 22.7457 4.41013 22.7457 5.80753C22.7457 7.19652 21.6177 8.33296 20.2203 8.33296Z" fill="#50E6FF"/>
	<path d="M27.7964 8.33296C26.399 8.33296 25.271 7.20493 25.271 5.80753C25.271 4.41013 26.399 3.2821 27.7964 3.2821C29.1938 3.2821 30.3219 4.41013 30.3219 5.80753C30.3219 7.19652 29.1938 8.33296 27.7964 8.33296Z" fill="#50E6FF"/>
	<path d="M35.3477 8.33296C33.9503 8.33296 32.8223 7.20493 32.8223 5.80753C32.8223 4.41013 33.9503 3.2821 35.3477 3.2821C36.7451 3.2821 37.8731 4.41013 37.8731 5.80753C37.8731 7.19652 36.7367 8.33296 35.3477 8.33296Z" fill="#50E6FF"/>
	<path d="M42.9493 8.33296C41.5519 8.33296 40.4238 7.20493 40.4238 5.80753C40.4238 4.41013 41.5519 3.2821 42.9493 3.2821C44.3467 3.2821 45.4747 4.41013 45.4747 5.80753C45.4747 7.19652 44.3467 8.33296 42.9493 8.33296Z" fill="#50E6FF"/>
	<path d="M5.04252 15.9091C3.64511 15.9091 2.51709 14.7811 2.51709 13.3837C2.51709 11.9863 3.64511 10.8583 5.04252 10.8583C6.43992 10.8583 7.56794 11.9863 7.56794 13.3837C7.56794 14.7727 6.4315 15.9091 5.04252 15.9091Z" fill="#50E6FF"/>
	<path d="M12.6187 15.9091C11.2213 15.9091 10.0933 14.7811 10.0933 13.3837C10.0933 11.9863 11.2213 10.8583 12.6187 10.8583C14.0161 10.8583 15.1441 11.9863 15.1441 13.3837C15.1441 14.7727 14.0077 15.9091 12.6187 15.9091Z" fill="#50E6FF"/>
	<path d="M20.2203 15.9091C18.8228 15.9091 17.6948 14.7811 17.6948 13.3837C17.6948 11.9863 18.8228 10.8583 20.2203 10.8583C21.6177 10.8583 22.7457 11.9863 22.7457 13.3837C22.7457 14.7727 21.6177 15.9091 20.2203 15.9091Z" fill="#50E6FF"/>
	<path d="M27.7964 15.9091C26.399 15.9091 25.271 14.7811 25.271 13.3837C25.271 11.9863 26.399 10.8583 27.7964 10.8583C29.1938 10.8583 30.3219 11.9863 30.3219 13.3837C30.3219 14.7727 29.1938 15.9091 27.7964 15.9091Z" fill="#50E6FF"/>
	<path d="M35.3477 15.9091C33.9503 15.9091 32.8223 14.7811 32.8223 13.3837C32.8223 11.9863 33.9503 10.8583 35.3477 10.8583C36.7451 10.8583 37.8731 11.9863 37.8731 13.3837C37.8731 14.7727 36.7367 15.9091 35.3477 15.9091Z" fill="#50E6FF"/>
	<path d="M42.9493 15.9091C41.5519 15.9091 40.4238 14.7811 40.4238 13.3837C40.4238 11.9863 41.5519 10.8583 42.9493 10.8583C44.3467 10.8583 45.4747 11.9863 45.4747 13.3837C45.4747 14.7727 44.3467 15.9091 42.9493 15.9091Z" fill="#50E6FF"/>
	<path d="M5.04252 23.5107C3.64511 23.5107 2.51709 22.3826 2.51709 20.9852C2.51709 19.5878 3.64511 18.4598 5.04252 18.4598C6.43992 18.4598 7.56794 19.5878 7.56794 20.9852C7.56794 22.3826 6.4315 23.5107 5.04252 23.5107Z" fill="#50E6FF"/>
	<path d="M12.6187 23.5107C11.2213 23.5107 10.0933 22.3826 10.0933 20.9852C10.0933 19.5878 11.2213 18.4598 12.6187 18.4598C14.0161 18.4598 15.1441 19.5878 15.1441 20.9852C15.1441 22.3826 14.0077 23.5107 12.6187 23.5107Z" fill="#50E6FF"/>
	<path d="M20.2203 23.5107C18.8228 23.5107 17.6948 22.3826 17.6948 20.9852C17.6948 19.5878 18.8228 18.4598 20.2203 18.4598C21.6177 18.4598 22.7457 19.5878 22.7457 20.9852C22.7457 22.3826 21.6177 23.5107 20.2203 23.5107Z" fill="#50E6FF"/>
	<path d="M27.7964 23.5107C26.399 23.5107 25.271 22.3826 25.271 20.9852C25.271 19.5878 26.399 18.4598 27.7964 18.4598C29.1938 18.4598 30.3219 19.5878 30.3219 20.9852C30.3219 22.3826 29.1938 23.5107 27.7964 23.5107Z" fill="#50E6FF"/>
	<path d="M35.3477 23.5107C33.9503 23.5107 32.8223 22.3826 32.8223 20.9852C32.8223 19.5878 33.9503 18.4598 35.3477 18.4598C36.7451 18.4598 37.8731 19.5878 37.8731 20.9852C37.8731 22.3826 36.7367 23.5107 35.3477 23.5107Z" fill="#50E6FF"/>
	<path d="M42.9493 23.5107C41.5519 23.5107 40.4238 22.3826 40.4238 20.9852C40.4238 19.5878 41.5519 18.4598 42.9493 18.4598C44.3467 18.4598 45.4747 19.5878 45.4747 20.9852C45.4747 22.3826 44.3467 23.5107 42.9493 23.5107Z" fill="#50E6FF"/>
	<path d="M5.04252 31.0871C3.64511 31.0871 2.51709 29.9591 2.51709 28.5617C2.51709 27.1642 3.64511 26.0362 5.04252 26.0362C6.43992 26.0362 7.56794 27.1642 7.56794 28.5617C7.56794 29.9591 6.4315 31.0871 5.04252 31.0871Z" fill="#50E6FF"/>
	<path d="M12.6187 31.0871C11.2213 31.0871 10.0933 29.9591 10.0933 28.5617C10.0933 27.1642 11.2213 26.0362 12.6187 26.0362C14.0161 26.0362 15.1441 27.1642 15.1441 28.5617C15.1441 29.9591 14.0077 31.0871 12.6187 31.0871Z" fill="#50E6FF"/>
	<path d="M20.2203 31.0871C18.8228 31.0871 17.6948 29.9591 17.6948 28.5617C17.6948 27.1642 18.8228 26.0362 20.2203 26.0362C21.6177 26.0362 22.7457 27.1642 22.7457 28.5617C22.7457 29.9591 21.6177 31.0871 20.2203 31.0871Z" fill="#50E6FF"/>
	<path d="M5.04252 38.6633C3.64511 38.6633 2.51709 37.5352 2.51709 36.1378C2.51709 34.7404 3.64511 33.6124 5.04252 33.6124C6.43992 33.6124 7.56794 34.7404 7.56794 36.1378C7.56794 37.5352 6.4315 38.6633 5.04252 38.6633Z" fill="#50E6FF"/>
	<path d="M12.6187 38.6633C11.2213 38.6633 10.0933 37.5352 10.0933 36.1378C10.0933 34.7404 11.2213 33.6124 12.6187 33.6124C14.0161 33.6124 15.1441 34.7404 15.1441 36.1378C15.1441 37.5352 14.0077 38.6633 12.6187 38.6633Z" fill="#50E6FF"/>
	<path d="M20.2203 38.6633C18.8228 38.6633 17.6948 37.5352 17.6948 36.1378C17.6948 34.7404 18.8228 33.6124 20.2203 33.6124C21.6177 33.6124 22.7457 34.7404 22.7457 36.1378C22.7457 37.5352 21.6177 38.6633 20.2203 38.6633Z" fill="#50E6FF"/>
	<path d="M5.04252 46.2396C3.64511 46.2396 2.51709 45.1116 2.51709 43.7142C2.51709 42.3168 3.64511 41.1888 5.04252 41.1888C6.43992 41.1888 7.56794 42.3168 7.56794 43.7142C7.56794 45.1116 6.4315 46.2396 5.04252 46.2396Z" fill="#50E6FF"/>
	<path d="M12.6187 46.2396C11.2213 46.2396 10.0933 45.1116 10.0933 43.7142C10.0933 42.3168 11.2213 41.1888 12.6187 41.1888C14.0161 41.1888 15.1441 42.3168 15.1441 43.7142C15.1441 45.1116 14.0077 46.2396 12.6187 46.2396Z" fill="#50E6FF"/>
	<path d="M20.2203 46.2396C18.8228 46.2396 17.6948 45.1116 17.6948 43.7142C17.6948 42.3168 18.8228 41.1888 20.2203 41.1888C21.6177 41.1888 22.7457 42.3168 22.7457 43.7142C22.7457 45.1116 21.6177 46.2396 20.2203 46.2396Z" fill="#50E6FF"/>
	<path d="M48.0589 46.9804L40.7436 39.7408C41.8464 38.2929 42.503 36.4914 42.503 34.5384C42.503 29.7991 38.6559 25.952 33.9165 25.952C29.1771 25.952 25.3301 29.7991 25.3301 34.5384C25.3301 39.2778 29.1771 43.1249 33.9165 43.1249C35.7938 43.1249 37.5279 42.5272 38.9337 41.5086L46.2827 48.7819L48.0589 46.9804ZM33.9165 40.5995C30.5745 40.5995 27.8555 37.8804 27.8555 34.5384C27.8555 31.1965 30.5745 28.4774 33.9165 28.4774C37.2585 28.4774 39.9776 31.1965 39.9776 34.5384C39.9776 37.8804 37.2585 40.5995 33.9165 40.5995Z" fill="white"/>
</svg>
