<svg data-slug-id="squares-cloud" xmlns="http://www.w3.org/2000/svg" viewBox="0 0 49 48">
  <path d="M23.5884 0H0.926941V22.7368H23.5884V0Z" fill="#0078D4"/>
  <path d="M23.5884 25.2637H0.926941V48.0005H23.5884V25.2637Z" fill="#0078D4"/>
  <path d="M48.7937 25.2637H26.1323V48.0005H48.7937V25.2637Z" fill="#0078D4"/>
  <path d="M23.5884 25.2637H0.926941V48.0005H23.5884V25.2637Z" fill="#0078D4"/>
  <path d="M45.2172 13.1629H45.1752C45.3683 12.6914 45.4691 12.1861 45.4691 11.6472C45.4691 9.41557 43.6639 7.60504 41.4389 7.60504C40.9687 7.60504 40.5153 7.68925 40.0955 7.83241C38.9872 6.45978 37.2996 5.58398 35.402 5.58398C32.0688 5.58398 29.3652 8.29557 29.3652 11.6387C29.3652 12.1608 29.4324 12.6745 29.5583 13.1545C28.3325 13.1882 27.3501 14.1903 27.3501 15.4282C27.3501 16.683 28.366 17.7019 29.6171 17.7019H45.2256C46.4766 17.7019 47.4926 16.683 47.4926 15.4282C47.4842 14.1819 46.4682 13.1629 45.2172 13.1629Z" fill="#50E6FF"/>
</svg>
