<svg data-slug-id="square-money" xmlns="http://www.w3.org/2000/svg" viewBox="0 0 60 96">
    <path d="M60 0H0V96H60V0Z" fill="#0078D4"/>
    <path d="M42.0008 55.665C42.0544 56.898 41.8499 58.1286 41.4005 59.2781C40.951 60.4275 40.2665 61.4704 39.3908 62.34C37.6308 64.02 35.0933 65.0525 31.7783 65.4375V70.86H28.1258V65.61C24.8365 65.6133 21.595 64.8235 18.6758 63.3075V56.3625C19.9864 57.3067 21.4434 58.0288 22.9883 58.5C24.6414 59.119 26.3687 59.5174 28.1258 59.685V50.5875C24.4458 49.2225 21.8383 47.7225 20.3033 46.0875C18.7246 44.3407 17.8974 42.0423 18.0008 39.69C17.9731 38.4296 18.2104 37.1775 18.6975 36.0147C19.1846 34.8519 19.9106 33.8044 20.8283 32.94C22.8179 31.0639 25.3974 29.9371 28.1258 29.7525V25.1025H31.7783V29.6475C35.2783 29.8225 37.9033 30.39 39.6533 31.35V38.1C37.2485 36.6709 34.5612 35.7828 31.7783 35.4975V45C35.4583 46.325 38.0833 47.825 39.6533 49.5C41.2219 51.1628 42.0662 53.3802 42.0008 55.665ZM28.1258 43.56V35.64C25.8058 36.05 24.6483 37.2575 24.6533 39.2625C24.6533 41.0125 25.8108 42.445 28.1258 43.56ZM35.3483 56.01C35.3483 54.395 34.1583 53.0625 31.7783 52.0125V59.5875C34.1583 59.2075 35.3483 58.015 35.3483 56.01Z" fill="#50E6FF"/>
</svg>
