<svg data-slug-id="square-dark-blue-circles-search" xmlns="http://www.w3.org/2000/svg" viewBox="0 0 48 48">
<path d="M5.03599 7.55066C3.64029 7.55066 2.51364 6.42268 2.51364 5.02533C2.51364 3.62798 3.64029 2.5 5.03599 2.5C6.43169 2.5 7.55834 3.62798 7.55834 5.02533C7.55834 6.41426 6.42329 7.55066 5.03599 7.55066Z" fill="#0078D4"/>
<path d="M12.603 7.55066C11.2073 7.55066 10.0806 6.42268 10.0806 5.02533C10.0806 3.62798 11.2073 2.5 12.603 2.5C13.9987 2.5 15.1253 3.62798 15.1253 5.02533C15.1253 6.41426 13.9903 7.55066 12.603 7.55066Z" fill="#0078D4"/>
<path d="M20.1956 7.55066C18.7999 7.55066 17.6732 6.42268 17.6732 5.02533C17.6732 3.62798 18.7999 2.5 20.1956 2.5C21.5913 2.5 22.7179 3.62798 22.7179 5.02533C22.7179 6.41426 21.5913 7.55066 20.1956 7.55066Z" fill="#0078D4"/>
<path d="M27.7621 7.55066C26.3664 7.55066 25.2397 6.42268 25.2397 5.02533C25.2397 3.62798 26.3664 2.5 27.7621 2.5C29.1578 2.5 30.2844 3.62798 30.2844 5.02533C30.2844 6.41426 29.1578 7.55066 27.7621 7.55066Z" fill="#0078D4"/>
<path d="M35.3044 7.55066C33.9087 7.55066 32.7821 6.42268 32.7821 5.02533C32.7821 3.62798 33.9087 2.5 35.3044 2.5C36.7001 2.5 37.8268 3.62798 37.8268 5.02533C37.8268 6.41426 36.6917 7.55066 35.3044 7.55066Z" fill="#0078D4"/>
<path d="M42.8965 7.55066C41.5008 7.55066 40.3742 6.42268 40.3742 5.02533C40.3742 3.62798 41.5008 2.5 42.8965 2.5C44.2922 2.5 45.4189 3.62798 45.4189 5.02533C45.4189 6.41426 44.2922 7.55066 42.8965 7.55066Z" fill="#0078D4"/>
<path d="M5.03599 15.1288C3.64029 15.1288 2.51364 14.0008 2.51364 12.6035C2.51364 11.2061 3.64029 10.0781 5.03599 10.0781C6.43169 10.0781 7.55834 11.2061 7.55834 12.6035C7.55834 13.9924 6.42329 15.1288 5.03599 15.1288Z" fill="#0078D4"/>
<path d="M12.603 15.1288C11.2073 15.1288 10.0806 14.0008 10.0806 12.6035C10.0806 11.2061 11.2073 10.0781 12.603 10.0781C13.9987 10.0781 15.1253 11.2061 15.1253 12.6035C15.1253 13.9924 13.9903 15.1288 12.603 15.1288Z" fill="#0078D4"/>
<path d="M20.1956 15.1288C18.7999 15.1288 17.6732 14.0008 17.6732 12.6035C17.6732 11.2061 18.7999 10.0781 20.1956 10.0781C21.5913 10.0781 22.7179 11.2061 22.7179 12.6035C22.7179 13.9924 21.5913 15.1288 20.1956 15.1288Z" fill="#0078D4"/>
<path d="M27.7621 15.1288C26.3664 15.1288 25.2397 14.0008 25.2397 12.6035C25.2397 11.2061 26.3664 10.0781 27.7621 10.0781C29.1578 10.0781 30.2844 11.2061 30.2844 12.6035C30.2844 13.9924 29.1578 15.1288 27.7621 15.1288Z" fill="#0078D4"/>
<path d="M35.3044 15.1288C33.9087 15.1288 32.7821 14.0008 32.7821 12.6035C32.7821 11.2061 33.9087 10.0781 35.3044 10.0781C36.7001 10.0781 37.8268 11.2061 37.8268 12.6035C37.8268 13.9924 36.6917 15.1288 35.3044 15.1288Z" fill="#0078D4"/>
<path d="M42.8965 15.1288C41.5008 15.1288 40.3742 14.0008 40.3742 12.6035C40.3742 11.2061 41.5008 10.0781 42.8965 10.0781C44.2922 10.0781 45.4189 11.2061 45.4189 12.6035C45.4189 13.9924 44.2922 15.1288 42.8965 15.1288Z" fill="#0078D4"/>
<path d="M5.03599 22.7299C3.64029 22.7299 2.51364 21.6019 2.51364 20.2045C2.51364 18.8072 3.64029 17.6792 5.03599 17.6792C6.43169 17.6792 7.55834 18.8072 7.55834 20.2045C7.55834 21.6019 6.42329 22.7299 5.03599 22.7299Z" fill="#0078D4"/>
<path d="M12.603 22.7299C11.2073 22.7299 10.0806 21.6019 10.0806 20.2045C10.0806 18.8072 11.2073 17.6792 12.603 17.6792C13.9987 17.6792 15.1253 18.8072 15.1253 20.2045C15.1253 21.6019 13.9903 22.7299 12.603 22.7299Z" fill="#0078D4"/>
<path d="M20.1956 22.7299C18.7999 22.7299 17.6732 21.6019 17.6732 20.2045C17.6732 18.8072 18.7999 17.6792 20.1956 17.6792C21.5913 17.6792 22.7179 18.8072 22.7179 20.2045C22.7179 21.6019 21.5913 22.7299 20.1956 22.7299Z" fill="#0078D4"/>
<path d="M27.7621 22.7299C26.3664 22.7299 25.2397 21.6019 25.2397 20.2045C25.2397 18.8072 26.3664 17.6792 27.7621 17.6792C29.1578 17.6792 30.2844 18.8072 30.2844 20.2045C30.2844 21.6019 29.1578 22.7299 27.7621 22.7299Z" fill="#0078D4"/>
<path d="M35.3044 22.7299C33.9087 22.7299 32.7821 21.6019 32.7821 20.2045C32.7821 18.8072 33.9087 17.6792 35.3044 17.6792C36.7001 17.6792 37.8268 18.8072 37.8268 20.2045C37.8268 21.6019 36.6917 22.7299 35.3044 22.7299Z" fill="#0078D4"/>
<path d="M42.8965 22.7299C41.5008 22.7299 40.3742 21.6019 40.3742 20.2045C40.3742 18.8072 41.5008 17.6792 42.8965 17.6792C44.2922 17.6792 45.4189 18.8072 45.4189 20.2045C45.4189 21.6019 44.2922 22.7299 42.8965 22.7299Z" fill="#0078D4"/>
<path d="M5.03599 30.3036C3.64029 30.3036 2.51364 29.1756 2.51364 27.7783C2.51364 26.3809 3.64029 25.2529 5.03599 25.2529C6.43169 25.2529 7.55834 26.3809 7.55834 27.7783C7.55834 29.1756 6.42329 30.3036 5.03599 30.3036Z" fill="#0078D4"/>
<path d="M12.603 30.3036C11.2073 30.3036 10.0806 29.1756 10.0806 27.7783C10.0806 26.3809 11.2073 25.2529 12.603 25.2529C13.9987 25.2529 15.1253 26.3809 15.1253 27.7783C15.1253 29.1756 13.9903 30.3036 12.603 30.3036Z" fill="#0078D4"/>
<path d="M20.1956 30.3036C18.7999 30.3036 17.6732 29.1756 17.6732 27.7783C17.6732 26.3809 18.7999 25.2529 20.1956 25.2529C21.5913 25.2529 22.7179 26.3809 22.7179 27.7783C22.7179 29.1756 21.5913 30.3036 20.1956 30.3036Z" fill="#0078D4"/>
<path d="M5.03599 37.8817C3.64029 37.8817 2.51364 36.7537 2.51364 35.3564C2.51364 33.959 3.64029 32.8311 5.03599 32.8311C6.43169 32.8311 7.55834 33.959 7.55834 35.3564C7.55834 36.7537 6.42329 37.8817 5.03599 37.8817Z" fill="#0078D4"/>
<path d="M12.603 37.8817C11.2073 37.8817 10.0806 36.7537 10.0806 35.3564C10.0806 33.959 11.2073 32.8311 12.603 32.8311C13.9987 32.8311 15.1253 33.959 15.1253 35.3564C15.1253 36.7537 13.9903 37.8817 12.603 37.8817Z" fill="#0078D4"/>
<path d="M20.1956 37.8817C18.7999 37.8817 17.6732 36.7537 17.6732 35.3564C17.6732 33.959 18.7999 32.8311 20.1956 32.8311C21.5913 32.8311 22.7179 33.959 22.7179 35.3564C22.7179 36.7537 21.5913 37.8817 20.1956 37.8817Z" fill="#0078D4"/>
<path d="M5.03599 45.4554C3.64029 45.4554 2.51364 44.3275 2.51364 42.9301C2.51364 41.5328 3.64029 40.4048 5.03599 40.4048C6.43169 40.4048 7.55834 41.5328 7.55834 42.9301C7.55834 44.3275 6.42329 45.4554 5.03599 45.4554Z" fill="#0078D4"/>
<path d="M12.603 45.4554C11.2073 45.4554 10.0806 44.3275 10.0806 42.9301C10.0806 41.5328 11.2073 40.4048 12.603 40.4048C13.9987 40.4048 15.1253 41.5328 15.1253 42.9301C15.1253 44.3275 13.9903 45.4554 12.603 45.4554Z" fill="#0078D4"/>
<path d="M20.1956 45.4554C18.7999 45.4554 17.6732 44.3275 17.6732 42.9301C17.6732 41.5328 18.7999 40.4048 20.1956 40.4048C21.5913 40.4048 22.7179 41.5328 22.7179 42.9301C22.7179 44.3275 21.5913 45.4554 20.1956 45.4554Z" fill="#0078D4"/>
<path d="M47.9999 46.1985L40.6935 38.9592C41.7949 37.5113 42.4507 35.7099 42.4507 33.757C42.4507 29.0178 38.6083 25.1709 33.8747 25.1709C29.1411 25.1709 25.2987 29.0178 25.2987 33.757C25.2987 38.4962 29.1411 42.3431 33.8747 42.3431C35.7497 42.3431 37.4817 41.7455 38.8858 40.7269L46.2258 47.9999L47.9999 46.1985ZM33.8747 39.8178C30.5368 39.8178 27.8211 37.0989 27.8211 33.757C27.8211 30.4152 30.5368 27.6962 33.8747 27.6962C37.2126 27.6962 39.9284 30.4152 39.9284 33.757C39.9284 37.0989 37.2126 39.8178 33.8747 39.8178Z" fill="#50E6FF"/>
</svg>
