<svg data-slug-id="square-gear-diamond-merge-alt" xmlns="http://www.w3.org/2000/svg" viewBox="0 0 49 49">
    <path d="M48.1905 23.6791L43.1478 18.6264V22.4496H30.6251V4.79907H9.52979V7.32539H28.1037V22.4496H10.4543V24.9759H28.1037V42.5759H9.52979V45.1022H30.6251V24.9759H43.1478V28.7401L48.1905 23.6791Z" fill="#0078D4"/>
    <path d="M15.1008 24.3371V22.7708H13.4872C13.3527 21.735 12.9409 20.7834 12.3357 20.0003L13.4787 18.855L12.3778 17.7519L11.2347 18.8971C10.4447 18.2908 9.49502 17.8866 8.46967 17.7434V16.135H6.91484V17.7519C5.88109 17.8866 4.93138 18.2992 4.14976 18.9055L3.00675 17.7603L1.89735 18.8634L3.04037 20.0003C2.43524 20.7919 2.03183 21.7434 1.88895 22.7708H0.283691V24.3371H1.89735C2.03183 25.3729 2.43524 26.3245 3.04037 27.1076L1.89735 28.2529L2.99834 29.3561L4.14135 28.2108C4.93138 28.8171 5.88109 29.2213 6.90643 29.3645V30.9813H8.46967V29.3645C9.50342 29.2297 10.4531 28.8171 11.2347 28.2108L12.3778 29.3561L13.4787 28.2529L12.3357 27.1076C12.9409 26.3161 13.3443 25.3645 13.4872 24.3371H15.1008ZM7.69646 26.375C6.15003 26.375 4.88935 25.1119 4.88935 23.5624C4.88935 22.0129 6.15003 20.7497 7.69646 20.7497C9.24288 20.7497 10.5036 22.0129 10.5036 23.5624C10.5036 25.1119 9.24288 26.375 7.69646 26.375Z" fill="#50E6FF"/>
    <path d="M14.1594 0.994385H1.56104V13.6175H14.1594V0.994385Z" fill="#50E6FF"/>
    <path d="M15.5458 40.4747L7.86768 32.7815L0.189556 40.4747L7.86768 48.168L15.5458 40.4747Z" fill="#50E6FF"/>
</svg>
