<svg data-slug-id="students" xmlns="http://www.w3.org/2000/svg" viewBox="0 0 60 60">
    <path d="M59.0267 27.432C59.058 27.2954 59.0789 27.1693 59.1103 27.0327C59.2673 26.2132 59.3509 25.3728 59.3509 24.5008C59.3509 17.0731 53.3572 11.0742 45.9828 11.0742C44.9472 11.0742 43.943 11.1897 42.9911 11.4208C39.9368 6.58811 34.5707 3.38379 28.4409 3.38379C18.9326 3.38379 11.2443 11.1372 11.2443 20.6557C11.2443 20.8972 11.2443 21.1284 11.2548 21.3595C10.3866 21.0653 9.46609 20.8972 8.49326 20.8972C3.80711 20.8972 0.0205078 24.7004 0.0205078 29.4071C0.0205078 33.8196 3.36778 37.4442 7.65647 37.8644L45.9828 37.938C51.0246 37.938 55.3969 35.1433 57.6773 31.0355C57.74 30.92 57.8028 30.8044 57.8656 30.6783C58.2003 29.9744 58.7128 28.8608 59.0267 27.432Z" fill="#50E6FF"/>
    <path d="M59.9998 33.3786L36.1609 43.4224L12.3325 33.3786L36.1609 23.335L59.9998 33.3786Z" fill="#0078D7"/>
    <path d="M36.1613 45.4098L22.291 39.5264V43.3926C22.291 47.3009 28.2952 50.4736 35.8161 50.4736C43.3265 50.4736 49.9269 47.3009 49.9269 43.3926V39.8205L36.1613 45.4098Z" fill="#0078D7"/>
    <path d="M52.5004 52.9936C53.8927 52.9936 55.0213 51.86 55.0213 50.4617C55.0213 49.0633 53.8927 47.9297 52.5004 47.9297C51.1082 47.9297 49.9795 49.0633 49.9795 50.4617C49.9795 51.86 51.1082 52.9936 52.5004 52.9936Z" fill="#0078D7"/>
    <path d="M53.4311 51.267C53.4311 51.267 54.4772 53.8305 56.1299 54.8811C57.7826 55.9317 59.3516 56.3835 59.3516 56.3835L54.634 59.9975C54.634 59.9975 52.1654 59.241 51.7889 55.5535C51.4123 51.8659 52.7303 50.4686 52.7303 50.4686L53.4311 51.267Z" fill="#0078D7"/>
    <path d="M53.5674 33.3984H51.3916V49.0629H53.5674V33.3984Z" fill="#0078D7"/>
</svg>
