<svg data-slug-id="surveillance-alt" xmlns="http://www.w3.org/2000/svg" viewBox="0 0 49 49">
  <path d="M3.84033 33.4052L15.0403 38.5673H19.6551V28.9083H15.3772V34.5083L4.94349 30.1125L3.84033 33.4052Z" fill="#0078D4"/>
  <path d="M28.1101 22.8114L13.2217 16.8577L9.39014 26.4408L24.2786 32.4029L28.1101 22.8114Z" fill="#50E6FF"/>
  <path d="M44.3711 18.1548L29.4826 12.2011L24.75 24.0327L39.6384 29.9864L44.3711 18.1548Z" fill="#50E6FF"/>
  <path d="M5.60019 26.0452H0.875977V38.5083H5.60019V26.0452Z" fill="#0078D4"/>
  <path d="M34.5943 29.8937L4.50586 17.8095L11.0911 1.33795L48.649 16.3864L37.3395 22.7527L34.5943 29.8937Z" fill="#0078D4"/>
  <path d="M36.0256 20.1169L9.99609 9.6832L12.0845 4.41162L43.3856 16.9337L36.0256 20.1169Z" fill="#50E6FF"/>
</svg>
