<svg data-slug-id="target-unlock" xmlns="http://www.w3.org/2000/svg" viewBox="0 0 48 48">
  <path d="M12.6 0.0498959L0 0V12.6735H4.99998V5.08938H12.6V0.0498959Z" fill="#50E6FF"/>
  <path d="M47.65 12.5738L47.7 0H35V4.98959H42.6V12.5738H47.65Z" fill="#50E6FF"/>
  <path d="M35 47.6735H47.65V35H42.65V42.5842H35V47.6735Z" fill="#50E6FF"/>
  <path d="M0.0499998 35L0 47.5738H12.7V42.6341H5.09998V35H0.0499998Z" fill="#50E6FF"/>
  <path d="M32.1024 18.5512C32.1024 13.8485 28.2539 10 23.5512 10C19.3247 10 15.7952 13.1073 15.1178 17.1473H18.6178C18.8534 16.3226 19.3001 15.5617 19.9285 14.9285C20.9004 13.9565 22.1865 13.4215 23.5463 13.4215C24.906 13.4215 26.1921 13.9565 27.1641 14.9285C28.136 15.9004 28.6711 17.1865 28.6711 18.5463C28.6711 18.8212 28.6711 19.5919 28.6662 20.608H15V37.7644H32.0975V21.7321C32.1024 20.1809 32.1024 18.9243 32.1024 18.5512Z" fill="#0078D4"/>
  <path d="M24.209 31.418C25.429 31.418 26.418 30.429 26.418 29.209C26.418 27.989 25.429 27 24.209 27C22.989 27 22 27.989 22 29.209C22 30.429 22.989 31.418 24.209 31.418Z" fill="#50E6FF"/>
</svg>
