<svg data-slug-id="target-magnify-alt" xmlns="http://www.w3.org/2000/svg" viewBox="0 0 48 48">
    <path d="M2.55989 5.04449C1.17041 5.04449 0.0419922 3.92429 0.0419922 2.52615C0.0419922 1.12801 1.17041 0.0078125 2.55989 0.0078125C3.95778 0.0078125 5.07778 1.12801 5.07778 2.52615C5.07778 3.91587 3.94936 5.04449 2.55989 5.04449Z" fill="#50E6FF"/>
    <path d="M10.1131 5.04449C8.71521 5.04449 7.59521 3.91587 7.59521 2.52615C7.59521 1.13643 8.72364 0.0078125 10.1131 0.0078125C11.5026 0.0078125 12.631 1.13643 12.631 2.52615C12.6394 3.91587 11.5026 5.04449 10.1131 5.04449Z" fill="#50E6FF"/>
    <path d="M17.6843 5.04449C16.2864 5.04449 15.1664 3.91587 15.1664 2.52615C15.1664 1.13643 16.2948 0.0078125 17.6843 0.0078125C19.0738 0.0078125 20.2022 1.13643 20.2022 2.52615C20.2022 3.91587 19.0822 5.04449 17.6843 5.04449Z" fill="#50E6FF"/>
    <path d="M25.3138 5.04449C23.9159 5.04449 22.7959 3.91587 22.7959 2.52615C22.7959 1.13643 23.9159 0.0078125 25.3138 0.0078125C26.7117 0.0078125 27.8317 1.13643 27.8317 2.52615C27.8317 3.91587 26.7033 5.04449 25.3138 5.04449Z" fill="#50E6FF"/>
    <path d="M32.842 5.04449C31.4441 5.04449 30.3241 3.91587 30.3241 2.52615C30.3241 1.13643 31.4525 0.0078125 32.842 0.0078125C34.2399 0.0078125 35.3599 1.13643 35.3599 2.52615C35.3599 3.91587 34.2315 5.04449 32.842 5.04449Z" fill="#50E6FF"/>
    <path d="M40.4295 5.04449C39.0316 5.04449 37.9116 3.91587 37.9116 2.52615C37.9116 1.13643 39.04 0.0078125 40.4295 0.0078125C41.819 0.0078125 42.9474 1.12801 42.9474 2.52615C42.9474 3.91587 41.819 5.04449 40.4295 5.04449Z" fill="#50E6FF"/>
    <path d="M2.56038 12.5992C1.16248 12.5992 0.0424805 11.4706 0.0424805 10.0808C0.0424805 8.69112 1.1709 7.5625 2.56038 7.5625C3.95827 7.5625 5.07827 8.69112 5.07827 10.0808C5.07827 11.4706 3.94985 12.5992 2.56038 12.5992Z" fill="#50E6FF"/>
    <path d="M40.4295 12.5992C39.0316 12.5992 37.9116 11.4706 37.9116 10.0808C37.9116 8.69112 39.04 7.5625 40.4295 7.5625C41.8274 7.5625 42.9474 8.69112 42.9474 10.0808C42.9474 11.4706 41.819 12.5992 40.4295 12.5992Z" fill="#50E6FF"/>
    <path d="M2.5345 20.271C1.1366 20.271 0.0166016 19.1424 0.0166016 17.7527C0.0166016 16.363 1.14502 15.2344 2.5345 15.2344C3.93239 15.2344 5.05239 16.363 5.05239 17.7527C5.05239 19.1424 3.91555 20.271 2.5345 20.271Z" fill="#50E6FF"/>
    <path d="M17.6761 20.271C16.2782 20.271 15.1582 19.1424 15.1582 17.7527C15.1582 16.363 16.2866 15.2344 17.6761 15.2344C19.0656 15.2344 20.194 16.363 20.194 17.7527C20.194 19.1424 19.0656 20.271 17.6761 20.271Z" fill="#50E6FF"/>
    <path d="M25.3138 20.271C23.9159 20.271 22.7959 19.1424 22.7959 17.7527C22.7959 16.363 23.9243 15.2344 25.3138 15.2344C26.7117 15.2344 27.8317 16.363 27.8317 17.7527C27.8317 19.1424 26.7033 20.271 25.3138 20.271Z" fill="#50E6FF"/>
    <path d="M40.4295 20.189C39.0316 20.189 37.9116 19.0604 37.9116 17.6707C37.9116 16.281 39.04 15.1523 40.4295 15.1523C41.8274 15.1523 42.9474 16.281 42.9474 17.6707C42.9474 19.0604 41.819 20.189 40.4295 20.189Z" fill="#50E6FF"/>
    <path d="M2.61909 27.8296C1.2212 27.8296 0.101196 26.701 0.101196 25.3113C0.101196 23.9216 1.22962 22.793 2.61909 22.793C4.01699 22.793 5.13699 23.9216 5.13699 25.3113C5.13699 26.701 4.00014 27.8296 2.61909 27.8296Z" fill="#50E6FF"/>
    <path d="M17.76 27.8296C16.3621 27.8296 15.2421 26.701 15.2421 25.3113C15.2421 23.9216 16.3705 22.793 17.76 22.793C19.1494 22.793 20.2779 23.9216 20.2779 25.3113C20.2779 26.701 19.1494 27.8296 17.76 27.8296Z" fill="#50E6FF"/>
    <path d="M2.61872 35.3921C1.22083 35.3921 0.10083 34.2635 0.10083 32.8738C0.10083 31.4757 1.22925 30.3555 2.61872 30.3555C4.01662 30.3555 5.13662 31.4841 5.13662 32.8738C5.13662 34.2635 3.99978 35.3921 2.61872 35.3921Z" fill="#50E6FF"/>
    <path d="M2.61872 42.9468C1.22083 42.9468 0.10083 41.8182 0.10083 40.4285C0.10083 39.0304 1.22925 37.9102 2.61872 37.9102C4.01662 37.9102 5.13662 39.0388 5.13662 40.4285C5.13662 41.8182 3.99978 42.9468 2.61872 42.9468Z" fill="#50E6FF"/>
    <path d="M10.1724 42.9468C8.77454 42.9468 7.65454 41.8182 7.65454 40.4285C7.65454 39.0304 8.78296 37.9102 10.1724 37.9102C11.5619 37.9102 12.6903 39.0388 12.6903 40.4285C12.6903 41.8182 11.5619 42.9468 10.1724 42.9468Z" fill="#50E6FF"/>
    <path d="M17.76 42.9468C16.3621 42.9468 15.2421 41.8182 15.2421 40.4285C15.2421 39.0304 16.3705 37.9102 17.76 37.9102C19.1494 37.9102 20.2779 39.0388 20.2779 40.4285C20.2779 41.8182 19.1494 42.9468 17.76 42.9468Z" fill="#50E6FF"/>
    <path d="M45.5237 43.6049L38.2311 36.3868C39.3342 34.9465 39.9827 33.1441 39.9827 31.1985C39.9827 26.4735 36.1427 22.6328 31.4185 22.6328C26.6942 22.6328 22.8542 26.4735 22.8542 31.1985C22.8542 35.9236 26.6942 39.7642 31.4185 39.7642C33.2879 39.7642 35.0227 39.1662 36.4206 38.1555L43.7469 45.4073L45.5237 43.6049ZM31.4185 37.2375C28.0837 37.2375 25.3721 34.5254 25.3721 31.1901C25.3721 27.8548 28.0837 25.1427 31.4185 25.1427C34.7532 25.1427 37.4648 27.8548 37.4648 31.1901C37.4648 34.5254 34.7532 37.2375 31.4185 37.2375Z" fill="#0078D4"/>
    <path d="M10.1308 17.6876H7.63818V7.54688H17.6845V10.1073H10.1308V17.6876Z" fill="#0078D4"/>
    <path d="M17.7344 32.8909V35.384H7.58704V25.3359H10.147V32.8909H17.7344Z" fill="#0078D4"/>
    <path d="M25.2714 10.1082V7.58984H35.3598V17.6885H32.7998V10.1082H25.2714Z" fill="#0078D4"/>
</svg>
