<svg data-slug-id="telephone-white" viewBox="0 0 19 20" xmlns="http://www.w3.org/2000/svg">
    <path d="M6.40193 7.10693L4.64909 0.0944424C4.38534 0.0325919 4.11139 0 3.83033 0C1.72412 0 0.0167053 1.8303 0.0167053 4.08809C0.0167053 4.14864 0.0142747 4.02818 0.0167053 4.08809C0.0167053 4.02754 -0.0605514 9.51531 4.65937 14.5749C9.37929 19.6345 14.7737 19.9074 14.7737 19.9074C14.8296 19.91 14.7173 19.9074 14.7737 19.9074C16.8799 19.9074 18.5874 18.0771 18.5874 15.8193C18.5874 15.4747 18.5476 15.1401 18.4727 14.8204L12.0373 12.9719C11.0505 14.9304 12.0373 12.9719 11.0505 14.9304C11.0505 14.9304 9.44329 15.2025 6.92226 12.5C4.40122 9.79752 4.65937 8.07931 4.65937 8.07931C6.40193 7.10693 4.65937 8.07931 6.40193 7.10693Z" fill="white"/>
</svg>
