<svg data-slug-id="templates-alt" viewBox="0 0 48 48" xmlns="http://www.w3.org/2000/svg">
<path d="M35.7279 46.9997C39.3673 46.9997 42.3176 44.0494 42.3176 40.41C42.3176 36.7706 39.3673 33.8203 35.7279 33.8203C32.0885 33.8203 29.1382 36.7706 29.1382 40.41C29.1382 44.0494 32.0885 46.9997 35.7279 46.9997Z" fill="#0078D7"/>
<path d="M39.0511 1H7V5.77855H39.0511V1Z" fill="#50E6FF"/>
<path d="M39.0511 7.97656H7V17.9379H39.0511V7.97656Z" fill="#0078D7"/>
<path d="M35.7117 32.1682C36.9003 32.1682 38.0323 32.4188 39.0511 32.8797V20.0156H7V44.6846H28.7016C27.9335 43.4313 27.4888 41.9598 27.4888 40.3912C27.4888 35.8552 31.1758 32.1682 35.7117 32.1682Z" fill="#0078D7"/>
<path d="M36.3016 36.2188H35.1211V44.5873H36.3016V36.2188Z" fill="#50E6FF"/>
<path d="M39.8924 39.8711H31.5239V41.0516H39.9005V39.8711H39.8924Z" fill="#50E6FF"/>
</svg>
