<svg data-slug-id="three-modules" xmlns="http://www.w3.org/2000/svg" viewBox="0 0 48 48">
	<path d="M15.4105 2.61719H0V6.28035H15.4105V2.61719Z" fill="#50E6FF"/>
	<path d="M15.4105 6.3916H0V10.1221H15.4105V6.3916Z" fill="#0078D4"/>
	<path d="M45.4401 5.12842H27.7896V7.63789H45.4401V5.12842Z" fill="#0078D4"/>
	<path d="M25.2632 0.0673828H17.7347V12.5726H25.2632V0.0673828Z" fill="#0078D4"/>
	<path d="M47.9664 6.37278L44.438 9.9012V2.83594L47.9664 6.37278Z" fill="#0078D4"/>
	<path d="M15.4105 20.4211H0V24.0338H15.4105V20.4211Z" fill="#50E6FF"/>
	<path d="M15.4105 24.042H0V27.9157H15.4105V24.042Z" fill="#0078D4"/>
	<path d="M45.4401 22.9221H27.7896V25.4316H45.4401V22.9221Z" fill="#50E6FF"/>
	<path d="M25.2547 17.7769H17.7263V30.2821H25.2547V17.7769Z" fill="#50E6FF"/>
	<path d="M47.9663 24.0842L44.4379 27.6126V20.5474L47.9663 24.0842Z" fill="#50E6FF"/>
	<path d="M15.4105 37.9958H0V41.8611H15.4105V37.9958Z" fill="#50E6FF"/>
	<path d="M15.4105 41.8086H0V45.497H15.4105V41.8086Z" fill="#0078D4"/>
	<path d="M45.4401 40.5039H27.7896V43.0134H45.4401V40.5039Z" fill="#0078D4"/>
	<path d="M41.2295 40.5039H32.2021V43.0134H41.2295V40.5039Z" fill="#50E6FF"/>
	<path d="M25.2547 35.4453H17.7263V47.9506H25.2547V35.4453Z" fill="#0078D4"/>
	<path d="M25.2548 35.4453H21.4148V47.9506H25.2548V35.4453Z" fill="#50E6FF"/>
	<path d="M47.9663 41.7517L44.4379 45.2801V38.2148L47.9663 41.7517Z" fill="#0078D4"/>
</svg>
