<svg data-slug-id="three-arrows-bordered" xmlns="http://www.w3.org/2000/svg" viewBox="0 0 48 46">
    <path d="M29.2037 4.67256L24.8498 0.318584C24.425 -0.106195 23.5754 -0.106195 23.1507 0.318584L18.9029 4.56637C18.3719 5.09734 18.3719 5.8407 18.9029 6.37168C19.4338 6.90265 20.1772 6.90265 20.7082 6.37168L22.6197 4.46017V35.7876L25.2745 35.8938V4.56637L27.1861 6.47787C27.717 7.00885 28.4604 7.00885 28.9914 6.47787L29.0976 6.37168C29.7347 5.9469 29.7347 5.20354 29.2037 4.67256Z" fill="#0078D4"/>
    <path d="M46.7256 12.2125H40.8849C40.1415 12.2125 39.6106 12.7434 39.6106 13.4868C39.6106 14.2302 40.1415 14.7611 40.8849 14.7611L43.115 14.8673L23.2566 34.8319L25.6991 36.1063L45.3451 16.4602V19.2213C45.3451 19.9647 45.8761 20.4956 46.6194 20.4956H46.7256C47.469 20.4956 47.9999 19.9647 47.9999 19.2213V13.3806C47.9999 12.7434 47.469 12.2125 46.7256 12.2125Z" fill="#0078D4"/>
    <path d="M4.88495 14.8673H7.11504C7.8584 14.8673 8.38938 14.3364 8.38938 13.593V13.4868C8.38938 12.7434 7.8584 12.2125 7.11504 12.2125H1.16814C0.530973 12.2125 0 12.7434 0 13.3806V19.2213C0 19.9647 0.530973 20.4956 1.27434 20.4956C2.0177 20.4956 2.54867 19.9647 2.54867 19.2213L2.65487 16.3541L22.1947 35.8939C23.1504 36.8496 24.6372 36.9558 25.6991 36.1063L4.88495 14.8673Z" fill="#50E6FF"/>
    <rect y="38" width="8" height="8" fill="#0078D4"/>
    <rect x="40" y="38" width="8" height="8" fill="#0078D4"/>
    <rect x="30" y="38" width="8" height="8" fill="#0078D4"/>
    <rect x="20" y="38" width="8" height="8" fill="#50E6FF"/>
    <rect x="10" y="38" width="8" height="8" fill="#0078D4"/>
</svg>
