<svg data-slug-id="three-point-graph" xmlns="http://www.w3.org/2000/svg" viewBox="0 0 48 48">
	<path d="M15.4591 17.3184L13.9612 18.0884L15.5012 21.0843L16.9992 20.3142L15.4591 17.3184Z" fill="#0075DA"/>
	<path d="M5.97792 16.0258L3.7002 18.5073L4.94095 19.6462L7.21868 17.1647L5.97792 16.0258Z" fill="#0075DA"/>
	<path d="M0.143066 22.417L0.951487 23.9834L3.23359 21.5076L1.98728 20.3623L0.143066 22.417Z" fill="#0075DA"/>
	<path d="M42.7077 27.1515L41.3147 28.0981L43.2081 30.8842L44.6011 29.9375L42.7077 27.1515Z" fill="#0075DA"/>
	<path d="M46.0181 32.0304L44.6251 32.9771L46.5185 35.7631L47.9115 34.8164L46.0181 32.0304Z" fill="#0075DA"/>
	<path d="M11.4274 16.3707C11.2084 16.3707 10.9979 16.3539 10.7874 16.3286V47.0739H12.0505V16.337C11.8484 16.3623 11.6463 16.3707 11.4274 16.3707Z" fill="#50E6FF"/>
	<path d="M12.0589 6.31597V0.842285H10.7958V6.31597C11.0063 6.29071 11.2168 6.27386 11.4358 6.27386C11.6463 6.27386 11.8484 6.29071 12.0589 6.31597Z" fill="#50E6FF"/>
	<path d="M16.4211 12.101H47.318V10.8379H16.4548C16.4717 10.9979 16.4801 11.1579 16.4801 11.3179C16.4801 11.5874 16.4632 11.8484 16.4211 12.101Z" fill="#50E6FF"/>
	<path d="M6.40848 10.8379H0.286377V12.101H6.44217C6.40006 11.8484 6.38322 11.5874 6.38322 11.3179C6.38322 11.1579 6.39164 10.9979 6.40848 10.8379Z" fill="#50E6FF"/>
	<path d="M36.0168 24.6904H34.7537V47.0736H36.0168V24.6904Z" fill="#50E6FF"/>
	<path d="M36.0168 23.04C35.7979 23.0653 35.5789 23.0821 35.3516 23.0821C35.1494 23.0821 34.9473 23.0653 34.7537 23.0485V23.4274H36.0168V23.04Z" fill="#50E6FF"/>
	<path d="M36.0168 13.036V0.842285H34.7537V13.0275C34.9473 13.0023 35.1494 12.9939 35.3516 12.9939C35.5705 12.9939 35.7979 13.0107 36.0168 13.036Z" fill="#50E6FF"/>
	<path d="M0.286377 23.4272V24.6904H29.9201L30.1053 24.4041L30.5432 24.6904H34.7537V23.4272H0.286377Z" fill="#50E6FF"/>
	<path d="M36.0168 23.4272V24.6904H38.9979L38.1389 23.4272H36.0168Z" fill="#50E6FF"/>
	<path d="M47.3179 23.4272H40.1685L41.0274 24.6904H47.3179V23.4272Z" fill="#50E6FF"/>
	<path d="M36.0168 23.4272H34.7537V24.6904H36.0168V23.4272Z" fill="#50E6FF"/>
	<path d="M30.6357 23.604L28.1599 27.3514L29.5747 28.2693L32.0504 24.5219L30.6357 23.604Z" fill="#0075DA"/>
	<path d="M39.3853 22.2734L37.9958 23.225L38.139 23.4271H40.1685L39.3853 22.2734Z" fill="#0075DA"/>
	<path d="M39.8906 26.0041L41.28 25.061L41.0274 24.6904H38.9979L39.8906 26.0041Z" fill="#0075DA"/>
	<path d="M38.1389 23.4272L38.9979 24.6904H41.0273L40.1684 23.4272H38.1389Z" fill="#0075DA"/>
	<path d="M31.4695 22.2821L32.8842 23.1916L33.2463 22.6274C32.7326 22.3916 32.2611 22.0716 31.8568 21.6758L31.4695 22.2821Z" fill="#0075DA"/>
	<path d="M24.64 30.3412V0.842285H23.3768V30.3075C23.5453 30.2907 23.7221 30.2823 23.8989 30.2823C24.1516 30.2823 24.3958 30.2991 24.64 30.3412Z" fill="#50E6FF"/>
	<path d="M23.3768 40.3539V47.0739H24.64V40.3286C24.3958 40.3623 24.1516 40.3876 23.8989 40.3876C23.7221 40.3791 23.5453 40.3707 23.3768 40.3539Z" fill="#50E6FF"/>
	<path d="M18.8801 34.7959H0.286377V36.0591H18.9053C18.8716 35.8233 18.8548 35.5791 18.8548 35.3264C18.8464 35.1496 18.8632 34.9727 18.8801 34.7959Z" fill="#50E6FF"/>
	<path d="M47.5705 34.7959H28.9178C28.9347 34.9727 28.9431 35.1496 28.9431 35.3264C28.9431 35.5706 28.9263 35.8148 28.8926 36.0591H47.5705V34.7959Z" fill="#50E6FF"/>
	<path d="M20.8505 27.7979L19.3516 28.5642L20.7916 31.36C21.2295 31.0147 21.7347 30.7368 22.2737 30.5515L20.8505 27.7979Z" fill="#0075DA"/>
	<path d="M28.3199 30.2737L26.9052 29.3643L26.0042 30.7537C26.5178 30.9895 26.9894 31.3179 27.3936 31.7053L28.3199 30.2737Z" fill="#0075DA"/>
	<path d="M11.4273 7.53711C13.5157 7.53711 15.2083 9.22974 15.2083 11.3182C15.2083 13.4066 13.5157 15.0992 11.4273 15.0992C9.33887 15.0992 7.64624 13.4066 7.64624 11.3182C7.64624 9.23816 9.33887 7.53711 11.4273 7.53711Z" fill="#0078D4"/>
	<path d="M23.899 31.5454C25.9874 31.5454 27.6801 33.238 27.6801 35.3265C27.6801 37.4149 25.9874 39.1075 23.899 39.1075C21.8106 39.1075 20.118 37.4149 20.118 35.3265C20.1095 33.238 21.8106 31.5454 23.899 31.5454Z" fill="#0075DA"/>
	<path d="M35.3516 14.2568C37.4401 14.2568 39.1327 15.9495 39.1327 18.0379C39.1327 20.1263 37.4401 21.8189 35.3516 21.8189C33.2632 21.8189 31.5706 20.1263 31.5706 18.0379C31.5622 15.9495 33.2632 14.2568 35.3516 14.2568Z" fill="#0075DA"/>
	<path d="M19.6969 25.5497L18.1558 22.5518L16.6569 23.3265L18.1979 26.3244" fill="#0075DA"/>
	<path d="M46.7368 1.26316V46.7368H1.26316V1.26316H46.7368ZM48 0H0V48H48V0Z" fill="#50E6FF"/>
</svg>
