<svg data-slug-id="three-server-sync" xmlns="http://www.w3.org/2000/svg" viewBox="0 0 48 48">
    <path d="M45.3881 27.9356H48V15.3984H0V27.944H27.7873C30.0537 25.7197 33.1627 24.3547 36.5835 24.3547C40.0042 24.3547 43.1216 25.7197 45.3881 27.9356Z" fill="#0078D7"/>
    <path d="M25.7567 30.5234H0V43.069H25.6051C24.5856 41.2491 24.0042 39.1596 24.0042 36.9268C24.0042 34.5929 24.6446 32.4023 25.7567 30.5234Z" fill="#0078D7"/>
    <path d="M48 0.171875H0V12.7174H48V0.171875Z" fill="#0078D7"/>
    <path d="M7.82723 9.13005C9.26975 9.13005 10.4391 7.96066 10.4391 6.51815C10.4391 5.07564 9.26975 3.90625 7.82723 3.90625C6.38472 3.90625 5.21533 5.07564 5.21533 6.51815C5.21533 7.96066 6.38472 9.13005 7.82723 9.13005Z" fill="#50E6FF"/>
    <path d="M7.82723 39.4777C9.26975 39.4777 10.4391 38.3083 10.4391 36.8658C10.4391 35.4233 9.26975 34.2539 7.82723 34.2539C6.38472 34.2539 5.21533 35.4233 5.21533 36.8658C5.21533 38.3083 6.38472 39.4777 7.82723 39.4777Z" fill="#50E6FF"/>
    <path d="M7.82723 24.3527C9.26975 24.3527 10.4391 23.1833 10.4391 21.7408C10.4391 20.2983 9.26975 19.1289 7.82723 19.1289C6.38472 19.1289 5.21533 20.2983 5.21533 21.7408C5.21533 23.1833 6.38472 24.3527 7.82723 24.3527Z" fill="#50E6FF"/>
    <path d="M29.7842 39.2763C29.1101 37.4985 29.1691 35.5606 29.9611 33.825C30.7447 32.0893 32.1601 30.7665 33.9379 30.0925C34.9827 29.6965 36.0611 29.5533 37.1565 29.6712L36.8447 31.4153L40.7204 29.3089L37.8221 25.9219L37.485 27.826C36.0611 27.6575 34.6204 27.8345 33.2807 28.34C31.0311 29.191 29.2449 30.8676 28.2507 33.0583C27.2565 35.2489 27.1807 37.7007 28.0317 39.9503C28.6383 41.568 29.6915 42.9666 31.0733 43.9861L31.4103 44.2389L32.5224 42.7223L32.1854 42.4695C31.0985 41.6607 30.2644 40.5485 29.7842 39.2763Z" fill="#0078D7"/>
    <path d="M44.8826 33.5726C44.3434 32.1402 43.4503 30.8764 42.2875 29.8906L41.0658 31.3061C41.9842 32.0897 42.692 33.0839 43.1217 34.2298C44.5119 37.9117 42.6498 42.0317 38.9679 43.422C38.3444 43.6579 37.6872 43.8011 37.0132 43.8517L37.1227 41.9391L33.4998 44.4499L36.7688 47.8285L36.8952 45.7474C37.8305 45.6968 38.7488 45.5115 39.6251 45.1829C44.276 43.4304 46.6351 38.2234 44.8826 33.5726Z" fill="#0078D7"/>
</svg>
