<svg data-slug-id="three-quarter-circle-check" xmlns="http://www.w3.org/2000/svg" viewBox="0 0 49 49">
	<path d="M23.6335 47.9909C17.3981 47.7999 11.4821 45.1887 7.13902 40.7105C2.79594 36.2324 0.367065 30.2392 0.367065 24.0009C0.367065 17.7627 2.79594 11.7695 7.13902 7.29133C11.4821 2.81319 17.3981 0.201971 23.6335 0.0109863V4.51121C19.7765 4.51121 16.0062 5.65492 12.7993 7.79772C9.59239 9.94051 7.0929 12.9861 5.61692 16.5495C4.14093 20.1128 3.75475 24.0338 4.5072 27.8166C5.25965 31.5995 7.11693 35.0742 9.84419 37.8015C12.5715 40.5287 16.0462 42.386 19.829 43.1384C23.6118 43.8909 27.5328 43.5047 31.0962 42.0287C34.6595 40.5527 37.7051 38.0533 39.8479 34.8463C41.9907 31.6394 43.1344 27.8691 43.1344 24.0122H47.6347C47.6287 30.3738 45.0974 36.4728 40.5969 40.969C36.0965 45.4653 29.9951 47.9909 23.6335 47.9909Z" fill="#0078D4"/>
	<path d="M20.3891 28.2537L23.5713 31.4358L41.2348 13.7723L38.0527 10.5901L20.3891 28.2537Z" fill="#50E6FF"/>
	<path d="M23.526 31.3941L26.7081 28.2119L16.6314 18.1351L13.4492 21.3173L23.526 31.3941Z" fill="#50E6FF"/>
</svg>
