<svg data-slug-id="three-circle-one-large" xmlns="http://www.w3.org/2000/svg" viewBox="0 0 48 49">
	<path d="M32.8523 30.8414C41.2179 30.8414 47.9996 24.0597 47.9996 15.6941C47.9996 7.32853 41.2179 0.546875 32.8523 0.546875C24.4867 0.546875 17.7051 7.32853 17.7051 15.6941C17.7051 24.0597 24.4867 30.8414 32.8523 30.8414Z" fill="#50E6FF"/>
	<path d="M10.1311 43.4614C12.9196 43.4614 15.1802 41.2009 15.1802 38.4124C15.1802 35.6238 12.9196 33.3633 10.1311 33.3633C7.34258 33.3633 5.08203 35.6238 5.08203 38.4124C5.08203 41.2009 7.34258 43.4614 10.1311 43.4614Z" fill="#0078D4"/>
	<path d="M2.52454 48.5374C3.91881 48.5374 5.04908 47.4071 5.04908 46.0128C5.04908 44.6186 3.91881 43.4883 2.52454 43.4883C1.13028 43.4883 0 44.6186 0 46.0128C0 47.4071 1.13028 48.5374 2.52454 48.5374Z" fill="#0078D4"/>
</svg>
