<svg data-slug-id="time-zones" xmlns="http://www.w3.org/2000/svg" viewBox="0 0 49 49">
    <path d="M3.50522 0.330322H0.300781V48.3303H3.50522V0.330322Z" fill="#50E6FF"/>
    <path d="M6.70395 0.330322H3.49951V48.3303H6.70395V0.330322Z" fill="#0078D4"/>
    <path d="M9.90171 0.330322H6.69727V48.3303H9.90171V0.330322Z" fill="#50E6FF"/>
    <path d="M13.0999 0.330322H9.89551V48.3303H13.0999V0.330322Z" fill="#0078D4"/>
    <path d="M16.2977 0.330322H13.0933V48.3303H16.2977V0.330322Z" fill="#50E6FF"/>
    <path d="M19.4964 0.330322H16.292V48.3303H19.4964V0.330322Z" fill="#0078D4"/>
    <path d="M22.6937 0.330322H19.4893V48.3303H22.6937V0.330322Z" fill="#50E6FF"/>
    <path d="M25.8929 0.330322H22.6885V48.3303H25.8929V0.330322Z" fill="#0078D4"/>
    <path d="M29.0902 0.330322H25.8857V48.3303H29.0902V0.330322Z" fill="#50E6FF"/>
    <path d="M32.2884 0.330322H29.084V48.3303H32.2884V0.330322Z" fill="#0078D4"/>
    <path d="M35.4862 0.330322H32.2817V48.3303H35.4862V0.330322Z" fill="white"/>
    <path d="M38.6849 0.330322H35.4805V48.3303H38.6849V0.330322Z" fill="#0078D4"/>
    <path d="M41.8827 0.330322H38.6782V48.3303H41.8827V0.330322Z" fill="#50E6FF"/>
    <path d="M45.0814 0.330322H41.877V48.3303H45.0814V0.330322Z" fill="#0078D4"/>
    <path d="M48.2791 0.330322H45.0747V48.3303H48.2791V0.330322Z" fill="#50E6FF"/>
    <path d="M33.8012 36.3303C40.4256 36.3303 45.7957 30.9577 45.7957 24.3303C45.7957 17.7028 40.4256 12.3303 33.8012 12.3303C27.1768 12.3303 21.8066 17.7028 21.8066 24.3303C21.8066 30.9577 27.1768 36.3303 33.8012 36.3303Z" fill="white"/>
    <path d="M33.8013 24.3303V19.446" stroke="#0078D4" stroke-width="5" stroke-linecap="round" stroke-linejoin="round"/>
    <path d="M33.8013 24.3303L37.2532 27.7837" stroke="#0078D4" stroke-width="5" stroke-linecap="round" stroke-linejoin="round"/>
</svg>
