<svg data-slug-id="time06" viewBox="0 0 48 48" xmlns="http://www.w3.org/2000/svg">
<path d="M0.0341797 17.6492V4.98209H5.09523V9.51693C9.44892 3.88428 16.2531 0.261475 23.9079 0.261475C37.0531 0.261475 47.7142 10.9525 47.7142 24.1348C47.7142 37.3171 37.0531 47.9997 23.9079 47.9997C10.7626 47.9997 0.101548 37.3171 0.101548 24.1348C0.101548 23.6619 0.11839 23.1974 0.143653 22.733H4.8005C4.76681 23.1974 4.74997 23.6619 4.74997 24.1348C4.74997 34.7414 13.3226 43.3466 23.9079 43.3466C34.4931 43.3466 43.0658 34.7499 43.0658 24.1348C43.0658 13.5197 34.4847 4.92298 23.9079 4.92298C17.6847 4.92298 12.1605 7.89553 8.66576 12.5064H12.6742V17.5817H5.09523V17.6492H0.0341797Z" fill="#0078D4"/>
<path d="M33.4991 25.3707C33.6001 24.9907 33.6591 24.5854 33.6591 24.1716C33.6591 21.6297 31.6044 19.5692 29.0696 19.5692C28.4802 19.5692 27.9244 19.679 27.4023 19.8816C26.1728 17.8549 23.958 16.5037 21.4233 16.5037C17.558 16.5037 14.4338 19.6452 14.4338 23.5129C14.4338 24.1462 14.518 24.7627 14.678 25.3454C13.5328 25.6325 12.6907 26.6628 12.6907 27.8957C12.6907 29.3482 13.8612 30.522 15.3096 30.522H32.7917C34.2402 30.522 35.4107 29.3482 35.4107 27.8957C35.4107 26.6965 34.6023 25.6832 33.4991 25.3707Z" fill="#50E6FF"/>
</svg>
