<svg data-slug-id="tool-blue-squares" xmlns="http://www.w3.org/2000/svg" viewBox="0 0 48 48">
    <path d="M35.4166 17.9355L30.0647 12.5837L34.8881 7.76034C33.0927 7.01409 31.1177 6.81148 29.2081 7.17764C27.2986 7.5438 25.5386 8.46262 24.1466 9.82007C22.7545 11.1775 21.7918 12.9138 21.3777 14.8136C20.9637 16.7133 21.1166 18.6928 21.8175 20.5063L11.1706 31.1524C10.4208 31.9068 10 32.9273 10 33.9909C10 35.0545 10.4208 36.075 11.1706 36.8294C11.9251 37.5792 12.9455 38 14.0091 38C15.0728 38 16.0932 37.5792 16.8476 36.8294L27.4938 26.1826C29.3074 26.8834 31.2868 27.0363 33.1864 26.6222C35.086 26.2082 36.8223 25.2455 38.1797 23.8536C39.5372 22.4617 40.456 20.7019 40.8223 18.7925C41.1885 16.8831 40.986 14.9082 40.24 13.1128L35.4166 17.9355ZM15.4281 35.4098C15.1474 35.6905 14.7898 35.8817 14.4005 35.9592C14.0111 36.0367 13.6076 35.997 13.2408 35.8451C12.8741 35.6932 12.5606 35.436 12.34 35.106C12.1195 34.7759 12.0018 34.3879 12.0018 33.9909C12.0018 33.5939 12.1195 33.2059 12.34 32.8758C12.5606 32.5458 12.8741 32.2886 13.2408 32.1367C13.6076 31.9848 14.0111 31.9451 14.4005 32.0226C14.7898 32.1001 15.1474 32.2913 15.4281 32.572C15.8043 32.9484 16.0157 33.4587 16.0157 33.9909C16.0157 34.5231 15.8043 35.0334 15.4281 35.4098Z" fill="#50E6FF"/>
    <rect width="10" height="10" fill="#0078D4"/>
    <rect x="38" width="10" height="10" fill="#0078D4"/>
    <rect y="38" width="10" height="10" fill="#0078D4"/>
    <rect x="38" y="38" width="10" height="10" fill="#0078D4"/>
</svg>
