<svg data-slug-id="training-alt" viewBox="0 0 48 48" xmlns="http://www.w3.org/2000/svg">
<path d="M47.205 21.2386C47.2301 21.1294 47.2468 21.0285 47.2719 20.9192C47.3975 20.2637 47.4644 19.5913 47.4644 18.8937C47.4644 12.9515 42.6694 8.15231 36.7699 8.15231C35.9414 8.15231 35.1381 8.24477 34.3765 8.42967C31.933 4.56347 27.6401 2 22.7364 2C15.1297 2 8.97908 8.20274 8.97908 15.8175C8.97908 16.0108 8.97908 16.1957 8.98744 16.3806C8.29288 16.1453 7.55648 16.0108 6.77824 16.0108C3.02929 16.0108 0 19.0534 0 22.8187C0 26.3487 2.67782 29.2484 6.10878 29.5846L36.7699 29.6434C40.8033 29.6434 44.3012 27.4077 46.1255 24.1215C46.1757 24.029 46.2259 23.9366 46.2761 23.8357C46.5439 23.2726 46.9539 22.3817 47.205 21.2386Z" fill="#50E6FF"/>
<path d="M47.9835 25.9959L28.9124 34.0308L9.84961 25.9959L28.9124 17.9609L47.9835 25.9959Z" fill="#0078D7"/>
<path d="M28.9126 35.6208L17.8164 30.9141V34.0071C17.8164 37.1336 22.6198 39.6719 28.6365 39.6719C34.6448 39.6719 39.9252 37.1336 39.9252 34.0071V31.1494L28.9126 35.6208Z" fill="#0078D7"/>
<path d="M41.9835 41.6879C43.0973 41.6879 44.0003 40.781 44.0003 39.6623C44.0003 38.5436 43.0973 37.6368 41.9835 37.6368C40.8697 37.6368 39.9668 38.5436 39.9668 39.6623C39.9668 40.781 40.8697 41.6879 41.9835 41.6879Z" fill="#0078D7"/>
<path d="M42.7283 40.3068C42.7283 40.3068 43.5651 42.3575 44.8873 43.198C46.2095 44.0385 47.4647 44.3999 47.4647 44.3999L43.6906 47.2912C43.6906 47.2912 41.7157 46.686 41.4145 43.7359C41.1132 40.7858 42.1676 39.668 42.1676 39.668L42.7283 40.3068Z" fill="#0078D7"/>
<path d="M42.8368 26.0118H41.0962V38.5433H42.8368V26.0118Z" fill="#0078D7"/>
</svg>
