<svg data-slug-id="triangle-three-circles" xmlns="http://www.w3.org/2000/svg" viewBox="0 0 49 48">
	<path d="M5.05256 35.2337C6.51782 33.7684 8.90098 33.7684 10.3662 35.2337C11.8315 36.699 11.8315 39.0821 10.3662 40.5474C8.90098 42.0127 6.51782 42.0127 5.05256 40.5474C3.5873 39.0821 3.5873 36.7074 5.05256 35.2337Z" fill="#0078D4"/>
	<path d="M22.0125 36.0506C21.0273 35.0654 19.4273 35.0654 18.442 36.0506C18.1136 36.3791 17.8946 36.7833 17.7852 37.2043H15.2925C15.141 35.4948 14.4083 33.8191 13.1031 32.5138C12.3536 31.7643 11.4862 31.2001 10.5515 30.8296L12.1852 28.1854C12.6062 28.3117 13.061 28.337 13.5157 28.2275C14.8715 27.9075 15.7136 26.5433 15.3936 25.1875C15.0736 23.8317 13.7094 22.9896 12.3536 23.3096C10.9978 23.6296 10.1557 24.9938 10.4757 26.3496C10.5852 26.8043 10.8125 27.2001 11.1157 27.5201L9.30517 30.4506C6.87148 29.937 4.23569 30.6191 2.34938 32.5054C-0.614832 35.4696 -0.614832 40.2949 2.34938 43.2591C5.31359 46.2233 10.1389 46.2233 13.1031 43.2591C14.442 41.9201 15.1746 40.2106 15.301 38.4591H17.7852C17.8946 38.8801 18.1136 39.2843 18.442 39.6127C19.4273 40.598 21.0273 40.598 22.0125 39.6127C22.9978 38.6359 22.9978 37.0359 22.0125 36.0506ZM11.8989 42.0801C9.59148 44.3875 5.83569 44.3875 3.53675 42.0801C1.2378 39.7727 1.22938 36.017 3.53675 33.718C5.84412 31.4191 9.5999 31.4106 11.8989 33.718C14.2062 36.017 14.2062 39.7727 11.8989 42.0801Z" fill="#50E6FF"/>
	<path d="M21.4232 7.15803C22.8884 5.69277 25.2716 5.69277 26.7369 7.15803C28.2021 8.62329 28.2021 11.0065 26.7369 12.4717C25.2716 13.937 22.8884 13.937 21.4232 12.4717C19.9579 11.0065 19.9579 8.62329 21.4232 7.15803Z" fill="#0078D4"/>
	<path d="M31.739 16.8338C31.2843 16.7243 30.8295 16.7496 30.4085 16.8759L29.4064 15.2506C29.4232 15.2338 29.4485 15.2169 29.4653 15.1917C32.4295 12.2275 32.4295 7.40221 29.4653 4.438C26.5011 1.47379 21.6758 1.47379 18.7116 4.438C15.7474 7.40221 15.7474 12.2275 18.7116 15.1917C18.7116 15.1917 18.7116 15.1917 18.7201 15.2001L17.6843 16.8759C17.2632 16.7496 16.8085 16.7243 16.3537 16.8338C14.9979 17.1538 14.1558 18.518 14.4758 19.8738C14.7958 21.2296 16.1601 22.0717 17.5158 21.7517C18.8716 21.4317 19.7137 20.0675 19.3937 18.7117C19.2843 18.2569 19.0569 17.8612 18.7537 17.5412L19.6885 16.0254C22.2906 17.8696 25.8022 17.8864 28.4211 16.0675L29.3306 17.5496C29.0274 17.8612 28.8001 18.2654 28.6906 18.7201C28.3706 20.0759 29.2127 21.4401 30.5685 21.7601C31.9243 22.0801 33.2885 21.238 33.6085 19.8822C33.9369 18.5096 33.0948 17.1538 31.739 16.8338ZM19.899 13.9959C17.5916 11.6885 17.5916 7.93274 19.899 5.63379C22.2064 3.33484 25.9622 3.32642 28.2611 5.63379C30.5685 7.94116 30.5685 11.6969 28.2611 13.9959C25.9622 16.3033 22.2064 16.3033 19.899 13.9959Z" fill="#50E6FF"/>
	<path d="M37.8189 35.1918C39.2926 33.735 41.6757 33.7434 43.1326 35.2171C44.5894 36.6908 44.581 39.0739 43.1073 40.5308C41.6336 41.9876 39.2505 41.9792 37.7936 40.5055C36.3284 39.0318 36.3452 36.6487 37.8189 35.1918Z" fill="#0078D4"/>
	<path d="M45.8696 32.5137C43.958 30.5853 41.2633 29.8947 38.7875 30.4505L36.9854 27.5284C37.2886 27.2168 37.5159 26.8126 37.6254 26.3579C37.9454 25.0021 37.1033 23.6379 35.7475 23.3179C34.3917 22.9979 33.0275 23.84 32.7075 25.1958C32.3875 26.5516 33.2296 27.9158 34.5854 28.2358C35.0401 28.3453 35.4949 28.32 35.9159 28.1937L37.558 30.8463C36.6738 31.2084 35.8486 31.7474 35.1243 32.4631C33.7938 33.7853 33.0528 35.4779 32.9012 37.2126H30.2991C30.1896 36.7916 29.9707 36.3874 29.6422 36.0589C28.657 35.0737 27.057 35.0737 26.0717 36.0589C25.0864 37.0442 25.0864 38.6442 26.0717 39.6295C27.057 40.6147 28.657 40.6147 29.6422 39.6295C29.9707 39.301 30.1896 38.8968 30.2991 38.4758H32.8928C33.0275 40.2021 33.7517 41.8947 35.0654 43.2253C38.0128 46.2063 42.838 46.2316 45.8191 43.2758C48.7917 40.3116 48.817 35.4863 45.8696 32.5137ZM44.6233 42.0631C42.3075 44.3621 38.5517 44.3368 36.2612 42.021C33.9622 39.7053 33.9875 35.9495 36.3033 33.6589C38.6191 31.36 42.3749 31.3853 44.6654 33.701C46.9643 36.0168 46.9475 39.7726 44.6233 42.0631Z" fill="#50E6FF"/>
</svg>
