<svg data-slug-id="truck-building-circles" xmlns="http://www.w3.org/2000/svg" viewBox="0 0 48 48">
	<path d="M3.74741 2.24564C3.74741 3.06989 3.07372 3.74275 2.24846 3.74275C1.4232 3.74275 0.749512 3.06989 0.749512 2.24564C0.749512 1.42139 1.4232 0.748535 2.24846 0.748535C3.07372 0.748535 3.74741 1.42139 3.74741 2.24564Z" fill="#0078D4"/>
	<path d="M12.4378 2.24564C12.4378 3.06989 11.7642 3.74275 10.9389 3.74275C10.1136 3.74275 9.43994 3.06989 9.43994 2.24564C9.43994 1.42139 10.1136 0.748535 10.9389 0.748535C11.7642 0.748535 12.4378 1.42139 12.4378 2.24564Z" fill="#0078D4"/>
	<path d="M21.1368 2.24564C21.1368 3.06989 20.4631 3.74275 19.6379 3.74275C18.8126 3.74275 18.1389 3.06989 18.1389 2.24564C18.1389 1.42139 18.8126 0.748535 19.6379 0.748535C20.4631 0.748535 21.1368 1.42139 21.1368 2.24564Z" fill="#0078D4"/>
	<path d="M29.9789 2.24564C29.9789 3.06989 29.3052 3.74275 28.4799 3.74275C27.6546 3.74275 26.981 3.06989 26.981 2.24564C26.981 1.42139 27.6546 0.748535 28.4799 0.748535C29.3052 0.748535 29.9789 1.42139 29.9789 2.24564Z" fill="#50E6FF"/>
	<path d="M21.4821 10.8917C21.4821 11.9058 20.6533 12.7337 19.6379 12.7337C18.6226 12.7337 17.7937 11.9058 17.7937 10.8917C17.7937 9.87764 18.6226 9.0498 19.6379 9.0498C20.6533 9.0498 21.4821 9.87764 21.4821 10.8917Z" fill="#0078D4"/>
	<path d="M30.3242 10.8917C30.3242 11.9059 29.4953 12.7337 28.4799 12.7337C27.4646 12.7337 26.6357 11.9059 26.6357 10.8917C26.6357 9.87764 27.4646 9.0498 28.4799 9.0498C29.4953 9.0498 30.3242 9.87764 30.3242 10.8917Z" fill="#50E6FF"/>
	<path d="M38.9727 2.24564C38.9727 3.06989 38.2991 3.74275 37.4738 3.74275C36.6485 3.74275 35.9749 3.06989 35.9749 2.24564C35.9749 1.42139 36.6485 0.748535 37.4738 0.748535C38.2991 0.748535 38.9727 1.42139 38.9727 2.24564Z" fill="#50E6FF"/>
	<path d="M47.2169 2.24564C47.2169 3.06989 46.5432 3.74275 45.7179 3.74275C44.8927 3.74275 44.219 3.06989 44.219 2.24564C44.219 1.42139 44.8927 0.748535 45.7179 0.748535C46.5432 0.748535 47.2169 1.42139 47.2169 2.24564Z" fill="#50E6FF"/>
	<path d="M3.74741 10.8921C3.74741 11.7164 3.07372 12.3892 2.24846 12.3892C1.4232 12.3892 0.749512 11.7164 0.749512 10.8921C0.749512 10.0679 1.4232 9.39502 2.24846 9.39502C3.07372 9.39502 3.74741 10.0679 3.74741 10.8921Z" fill="#0078D4"/>
	<path d="M12.4378 10.8921C12.4378 11.7164 11.7642 12.3892 10.9389 12.3892C10.1136 12.3892 9.43994 11.7164 9.43994 10.8921C9.43994 10.0679 10.1136 9.39502 10.9389 9.39502C11.7642 9.39502 12.4378 10.0679 12.4378 10.8921Z" fill="#0078D4"/>
	<path d="M3.74741 19.6392C3.74741 20.4634 3.07372 21.1363 2.24846 21.1363C1.4232 21.1363 0.749512 20.4634 0.749512 19.6392C0.749512 18.8149 1.4232 18.1421 2.24846 18.1421C3.07372 18.1421 3.74741 18.8065 3.74741 19.6392Z" fill="#0078D4"/>
	<path d="M3.74741 28.1338C3.74741 28.9581 3.07372 29.6309 2.24846 29.6309C1.4232 29.6309 0.749512 28.9581 0.749512 28.1338C0.749512 27.3096 1.4232 26.6367 2.24846 26.6367C3.07372 26.6367 3.74741 27.3012 3.74741 28.1338Z" fill="#0078D4"/>
	<path d="M47.2169 28.4449C47.2169 29.2691 46.5432 29.942 45.7179 29.942C44.8927 29.942 44.219 29.2691 44.219 28.4449C44.219 27.6206 44.8927 26.9478 45.7179 26.9478C46.5432 26.9478 47.2169 27.6206 47.2169 28.4449Z" fill="#50E6FF"/>
	<path d="M47.2169 19.6392C47.2169 20.4634 46.5432 21.1363 45.7179 21.1363C44.8927 21.1363 44.219 20.4634 44.219 19.6392C44.219 18.8149 44.8927 18.1421 45.7179 18.1421C46.5432 18.1421 47.2169 18.8065 47.2169 19.6392Z" fill="#50E6FF"/>
	<path d="M47.2169 10.8921C47.2169 11.7164 46.5432 12.3892 45.7179 12.3892C44.8927 12.3892 44.219 11.7164 44.219 10.8921C44.219 10.0679 44.8927 9.39502 45.7179 9.39502C46.5432 9.39502 47.2169 10.0679 47.2169 10.8921Z" fill="#50E6FF"/>
	<path d="M39.3432 10.8917C39.3432 11.9243 38.4992 12.7673 37.4653 12.7673C36.4314 12.7673 35.5874 11.9243 35.5874 10.8917C35.5874 9.85908 36.4314 9.01611 37.4653 9.01611C38.5097 9.01611 39.3432 9.85908 39.3432 10.8917Z" fill="#50E6FF"/>
	<path d="M21.6354 19.6392C21.6354 20.7377 20.7376 21.6344 19.6378 21.6344C18.538 21.6344 17.6401 20.7377 17.6401 19.6392C17.6401 18.5408 18.538 17.644 19.6378 17.644C20.7376 17.644 21.6354 18.5296 21.6354 19.6392Z" fill="#0078D4"/>
	<path d="M30.4777 19.6392C30.4777 20.7377 29.5799 21.6344 28.4801 21.6344C27.3802 21.6344 26.4824 20.7377 26.4824 19.6392C26.4824 18.5408 27.3802 17.644 28.4801 17.644C29.5799 17.644 30.4777 18.5296 30.4777 19.6392Z" fill="#50E6FF"/>
	<path d="M12.9367 19.6392C12.9367 20.7377 12.0389 21.6344 10.9391 21.6344C9.83922 21.6344 8.94141 20.7377 8.94141 19.6392C8.94141 18.5408 9.83922 17.644 10.9391 17.644C12.0389 17.644 12.9367 18.5296 12.9367 19.6392Z" fill="#0078D4"/>
	<path d="M21.4821 28.1339C21.4821 29.148 20.6533 29.9759 19.6379 29.9759C18.6226 29.9759 17.7937 29.148 17.7937 28.1339C17.7937 27.1198 18.6226 26.292 19.6379 26.292C20.6533 26.292 21.4821 27.1095 21.4821 28.1339Z" fill="#0078D4"/>
	<path d="M12.9221 28.134C12.9221 29.2245 12.0308 30.1148 10.939 30.1148C9.84711 30.1148 8.95581 29.2245 8.95581 28.134C8.95581 27.0435 9.84711 26.1533 10.939 26.1533C12.0308 26.1533 12.9221 27.0324 12.9221 28.134Z" fill="#0078D4"/>
	<path d="M3.74741 36.6792C3.74741 37.5035 3.07372 38.1763 2.24846 38.1763C1.4232 38.1763 0.749512 37.5035 0.749512 36.6792C0.749512 35.855 1.4232 35.1821 2.24846 35.1821C3.07372 35.1821 3.74741 35.855 3.74741 36.6792Z" fill="#0078D4"/>
	<path d="M12.4378 36.6792C12.4378 37.5035 11.7642 38.1763 10.9389 38.1763C10.1136 38.1763 9.43994 37.5035 9.43994 36.6792C9.43994 35.855 10.1136 35.1821 10.9389 35.1821C11.7642 35.1821 12.4378 35.855 12.4378 36.6792Z" fill="#0078D4"/>
	<path d="M39.4628 19.6392C39.4628 20.7377 38.565 21.6344 37.4652 21.6344C36.3653 21.6344 35.4675 20.7377 35.4675 19.6392C35.4675 18.5408 36.3653 17.644 37.4652 17.644C38.5762 17.644 39.4628 18.5296 39.4628 19.6392Z" fill="#50E6FF"/>
	<path d="M40.3958 25.1899H27.6548V47.8905H40.3958V25.1899Z" fill="#0078D4"/>
	<path d="M27.6548 32.625H17.6675V47.8905H27.6548V32.625Z" fill="#0078D4"/>
	<path d="M47.9999 37.7725H37.9199V47.8821H47.9999V37.7725Z" fill="#0078D4"/>
	<path d="M12.5053 42.1631H11.7474L10.8547 47.1338H12.2105C12.2274 46.5787 12.6737 46.1414 13.2379 46.1414C13.8021 46.1414 14.2484 46.5787 14.2653 47.1338H14.9726V44.6274H14.9895C14.9726 43.2733 13.8611 42.1631 12.5053 42.1631ZM12.7579 44.2153V42.9873C13.5326 42.9873 14.1558 43.534 14.1558 44.2153H12.7579Z" fill="#0078D4"/>
	<path d="M11.7475 40.9268H2.7959V47.1255H3.51169C3.54537 46.5872 3.98327 46.1666 4.53906 46.1666C5.08642 46.1666 5.53274 46.5872 5.56642 47.1255L11.7475 47.1339V40.9268Z" fill="#0078D4"/>
	<path d="M13.2296 46.4019C12.8001 46.4019 12.438 46.7467 12.438 47.1925C12.438 47.6382 12.7833 47.9831 13.2296 47.9831C13.6759 47.9831 14.0211 47.6382 14.0211 47.1925C14.0211 46.7467 13.659 46.4019 13.2296 46.4019Z" fill="#0078D4"/>
	<path d="M4.53889 46.4189C4.10942 46.4189 3.74731 46.7638 3.74731 47.2096C3.74731 47.6553 4.09258 48.0002 4.53889 48.0002C4.98521 48.0002 5.33047 47.6553 5.33047 47.2096C5.32205 46.7638 4.96837 46.4189 4.53889 46.4189Z" fill="#0078D4"/>
	<path d="M37.9284 28.689H30.3242V31.1954H37.9284V28.689Z" fill="#50E6FF"/>
	<path d="M37.9284 35.2998H30.3242V37.8062H37.9284V35.2998Z" fill="#50E6FF"/>
	<path d="M37.9284 43.0039H30.3242V45.5103H37.9284V43.0039Z" fill="#50E6FF"/>
	<path d="M27.8064 35.2998H20.2021V37.8062H27.8064V35.2998Z" fill="#50E6FF"/>
	<path d="M27.8064 43.0039H20.2021V45.5103H27.8064V43.0039Z" fill="#50E6FF"/>
</svg>
