<svg data-slug-id="twenty-five" xmlns="http://www.w3.org/2000/svg" viewBox="0 0 48 41">
    <path d="M9.77197 33.6324H26.9435V41H0V37.963C0 35.9008 0.348326 34.0542 1.04498 32.4232C1.74163 30.7734 2.61715 29.3018 3.67155 28.0082C4.72594 26.6959 5.87448 25.543 7.11716 24.5494C8.37866 23.537 9.57427 22.6278 10.704 21.8217C11.8902 20.9781 12.9257 20.1719 13.8107 19.4033C14.7144 18.6347 15.4676 17.8754 16.0701 17.1255C16.6914 16.3569 17.1527 15.5882 17.454 14.8196C17.7552 14.0322 17.9059 13.198 17.9059 12.3169C17.9059 10.5921 17.4163 9.28921 16.4372 8.40809C15.4582 7.52698 13.9613 7.08642 11.9467 7.08642C8.46339 7.08642 5.13075 8.46433 1.94874 11.2202V3.40261C5.46967 1.1342 9.44247 0 13.8672 0C15.9195 0 17.7552 0.271833 19.3745 0.815501C21.0126 1.34042 22.3964 2.09968 23.5262 3.09328C24.6559 4.08688 25.5126 5.29607 26.0962 6.72085C26.6987 8.12689 27 9.70165 27 11.4451C27 13.3011 26.7082 14.9508 26.1245 16.3944C25.5596 17.8379 24.7971 19.1502 23.8368 20.3313C22.8954 21.5123 21.8033 22.5997 20.5607 23.5933C19.318 24.5681 18.0282 25.5149 16.6914 26.4335C15.7877 27.0709 14.9121 27.7083 14.0649 28.3457C13.2364 28.9643 12.5021 29.583 11.8619 30.2016C11.2218 30.8016 10.7134 31.3921 10.3368 31.9733C9.96025 32.5544 9.77197 33.1075 9.77197 33.6324Z" fill="#0078D4"/>
    <path d="M23 39.3002V31.8979C25.7192 33.5428 28.6141 34.3653 31.6848 34.3653C33.997 34.3653 35.8006 33.8261 37.0954 32.7478C38.4088 31.6511 39.0655 30.1707 39.0655 28.3064C39.0655 24.4133 36.2815 22.4668 30.7137 22.4668C28.6604 22.4668 26.2926 22.6221 23.6104 22.9328L25.1088 1H46.1687V8.07334H31.7958L31.2408 15.9417C32.6652 15.8321 33.8953 15.7772 34.9312 15.7772C39.0192 15.7772 42.2194 16.8373 44.5316 18.9575C46.8439 21.0777 48 23.9289 48 27.5113C48 31.4775 46.6219 34.7217 43.8657 37.244C41.1095 39.748 37.3729 41 32.6559 41C28.8269 41 25.6082 40.4334 23 39.3002Z" fill="#50E6FF"/>
    <path fill-rule="evenodd" clip-rule="evenodd" d="M26.8207 33.6326C26.8616 33.6453 26.9025 33.6579 26.9435 33.6703V40.4961C25.5024 40.2151 24.1879 39.8165 23 39.3004V33.6326H26.8207ZM24.8669 4.54102C25.3614 5.20082 25.7711 5.9275 26.0962 6.72106C26.6987 8.12709 27 9.70185 27 11.4453C27 13.3013 26.7082 14.9511 26.1245 16.3946C25.5596 17.8381 24.7971 19.1504 23.8368 20.3315C23.8191 20.3537 23.8014 20.3758 23.7836 20.3979L24.8669 4.54102Z" fill="#3CCAF4"/>
</svg>
