<svg data-slug-id="two-people" xmlns="http://www.w3.org/2000/svg" viewBox="0 0 48 48">
    <path d="M36 13.5C39.7279 13.5 42.75 10.4779 42.75 6.75C42.75 3.02208 39.7279 0 36 0C32.2721 0 29.25 3.02208 29.25 6.75C29.25 10.4779 32.2721 13.5 36 13.5Z" fill="#50E6FF"/>
    <path d="M12 31.5C15.7279 31.5 18.75 28.4779 18.75 24.75C18.75 21.0221 15.7279 18 12 18C8.27208 18 5.25 21.0221 5.25 24.75C5.25 28.4779 8.27208 31.5 12 31.5Z" fill="#0078D4"/>
    <path d="M12 34.5C15.1826 34.5 18.2348 35.7643 20.4853 38.0147C22.7357 40.2652 24 43.3174 24 46.5V48H0V46.5C0 43.3174 1.26428 40.2652 3.51472 38.0147C5.76516 35.7643 8.8174 34.5 12 34.5Z" fill="#0078D4"/>
    <path d="M36 16.5C39.1826 16.5 42.2348 17.7643 44.4853 20.0147C46.7357 22.2652 48 25.3174 48 28.5V30H24V28.5C24 25.3174 25.2643 22.2652 27.5147 20.0147C29.7652 17.7643 32.8174 16.5 36 16.5Z" fill="#50E6FF"/>
</svg>
