<svg data-slug-id="two-tone-clouds" xmlns="http://www.w3.org/2000/svg" viewBox="0 0 48 48">
<path d="M47.9855 0H0V47.9612H47.9855V0Z" fill="white"/>
<path d="M40.0513 23.8774H39.9535C40.3643 22.833 40.599 21.7007 40.599 20.5C40.599 15.5315 36.6577 11.5 31.7971 11.5C30.7702 11.5 29.7824 11.6855 28.8631 12.0271C26.4474 8.96204 22.7408 7 18.5941 7C11.3081 7 5.3912 13.0423 5.3912 20.5C5.3912 21.6714 5.54768 22.8037 5.8313 23.8872C3.15159 23.9555 1 26.1811 1 28.9338C1 31.7256 3.22005 34 5.94866 34H40.0513C42.7897 34 45 31.7354 45 28.9338C45 26.1421 42.7897 23.8774 40.0513 23.8774Z" fill="#50E6FF"/>
<path d="M12.1582 35.819C12.1483 35.7514 12.1285 35.6839 12.1186 35.626C12.0395 35.2208 12 34.8059 12 34.3814C12 30.7344 15.0247 27.7724 18.7611 27.7724C19.285 27.7724 19.7891 27.8303 20.2735 27.9461C21.8254 25.563 24.5338 24 27.6277 24C32.4316 24 36.3262 27.8014 36.3262 32.5C36.3262 32.6158 36.3262 32.7316 36.3163 32.8473C36.7512 32.7026 37.2257 32.6254 37.7199 32.6254C40.0824 32.6254 42 34.4972 42 36.8031C42 38.9739 40.2998 40.7491 38.145 40.9614L18.771 41C16.2306 41 14.0165 39.63 12.8501 37.6135C12.8204 37.5556 12.7809 37.4977 12.7512 37.4398C12.5733 37.0732 12.3163 36.5233 12.1582 35.819Z" fill="#0078D4"/>
</svg>
