<svg data-slug-id="two-leaves-signal" xmlns="http://www.w3.org/2000/svg" viewBox="0 0 48 48">
	<path d="M14.3394 38.1892C7.1917 38.1892 1.37793 32.3754 1.37793 25.2361V15.2109H13.1229C20.2706 15.2109 26.0843 21.0247 26.0843 28.1724V38.1892H14.3394V38.1892Z" fill="#50E6FF"/>
	<path d="M31.001 38.2025V30.8702C31.001 27.0867 34.0798 24.0078 37.8634 24.0078H46.6218V31.34C46.6218 35.1236 43.5429 38.2025 39.7594 38.2025H31.001V38.2025Z" fill="#50E6FF"/>
	<path d="M30.5808 20.4916C32.3043 20.4916 33.7016 19.0944 33.7016 17.3708C33.7016 15.6472 32.3043 14.25 30.5808 14.25C28.8572 14.25 27.46 15.6472 27.46 17.3708C27.46 19.0944 28.8572 20.4916 30.5808 20.4916Z" fill="#0078D4"/>
	<path d="M47.6445 16.6343C47.4348 12.2131 45.5556 8.08558 42.3509 5.0235C39.1378 1.94463 34.9096 0.25 30.4633 0.25C26.2351 0.25 22.1663 1.80202 19.0119 4.62081L18.3911 5.1745L20.7904 7.57384L21.3441 7.08726C23.8609 4.8641 27.0992 3.64766 30.4717 3.64766C34.1629 3.64766 37.6277 5.08222 40.2368 7.69129C42.6529 10.1074 44.0875 13.3121 44.2636 16.7181L44.3056 17.4648H47.6865L47.6445 16.6343Z" fill="#0078D4"/>
	<path d="M38.1317 9.7811C36.0847 7.73411 33.3582 6.60156 30.4639 6.60156C27.9303 6.60156 25.4723 7.49083 23.5343 9.10157L22.8716 9.65526L25.2709 12.0546L25.8162 11.6183C27.1501 10.5613 28.7525 9.99922 30.4555 9.99922C32.3263 9.99922 34.1132 10.6955 35.489 11.9539C36.8565 13.2039 37.7038 14.9069 37.88 16.7442L37.9471 17.4573H41.3364L41.2693 16.61C41.0763 14.0428 39.9605 11.6183 38.1317 9.7811Z" fill="#0078D4"/>
	<path d="M27.3428 37.6696V28.1729C27.3428 20.3206 20.9754 13.9531 13.123 13.9531H0.119629V25.2283C0.119629 33.0807 6.48709 39.4481 14.3394 39.4481H24.8428V47.7451H27.3596V37.6696H27.3428ZM6.06762 33.5085C3.85286 31.2938 2.63641 28.3575 2.63641 25.2367V16.4699H13.123C16.2522 16.4699 19.1884 17.6864 21.3948 19.9011C23.6012 22.1159 24.826 25.0521 24.826 28.1729V34.1881C23.9452 32.8961 22.2254 30.6981 19.1549 27.7367C15.9754 24.6746 13.1146 23.0974 11.3613 22.3424C10.9166 22.1494 10.5307 22.7031 10.8579 23.0555C12.7119 25.027 16.0509 28.5924 17.1079 29.7837C18.2405 31.0589 21.7807 35.1025 23.3831 36.9397H14.3394C11.2102 36.9397 8.274 35.7149 6.06762 33.5085Z" fill="#0078D4"/>
	<path d="M37.8635 22.75C33.3752 22.75 29.7427 26.3826 29.7427 30.8708V37.6661V47.75H32.2595V39.4698H39.7595C44.2477 39.4698 47.8803 35.8373 47.8803 31.349V22.75H37.8635ZM45.3635 31.3406C45.3635 34.4279 42.8467 36.9446 39.7595 36.9446H33.09C34.0799 35.6443 35.8668 33.3121 36.5548 32.5403C37.1001 31.9279 38.5766 30.3507 39.7762 29.0671C40.1873 28.6309 39.6588 27.9513 39.1303 28.245C38.0481 28.849 36.6806 29.7802 35.2125 31.198C33.8618 32.4983 32.9138 33.5722 32.2595 34.3943V30.8708C32.2595 27.7836 34.7762 25.2668 37.8635 25.2668H45.3635V31.3406V31.3406Z" fill="#0078D4"/>
</svg>
