<svg data-slug-id="ui-glyph" xmlns="http://www.w3.org/2000/svg" viewBox="0 0 50 48">
    <path d="M0 0V37.8948H48V0H0ZM35.3684 27.7895H4.96842V25.2632H35.3684V27.7895ZM35.3684 18.9474H4.96842V16.4211H35.3684V18.9474ZM40.4211 29.0526C39.9214 29.0526 39.433 28.9045 39.0175 28.6269C38.6021 28.3493 38.2783 27.9547 38.0871 27.4931C37.8958 27.0315 37.8458 26.5235 37.9433 26.0335C38.0408 25.5434 38.2814 25.0933 38.6347 24.74C38.988 24.3866 39.4382 24.146 39.9282 24.0486C40.4183 23.9511 40.9262 24.0011 41.3879 24.1923C41.8495 24.3835 42.244 24.7073 42.5216 25.1228C42.7992 25.5382 42.9474 26.0267 42.9474 26.5263C42.9474 27.1963 42.6812 27.8389 42.2074 28.3127C41.7337 28.7865 41.0911 29.0526 40.4211 29.0526ZM40.4211 20.2105C39.9214 20.2105 39.433 20.0624 39.0175 19.7848C38.6021 19.5072 38.2783 19.1126 38.0871 18.651C37.8958 18.1894 37.8458 17.6814 37.9433 17.1914C38.0408 16.7013 38.2814 16.2512 38.6347 15.8978C38.988 15.5445 39.4382 15.3039 39.9282 15.2064C40.4183 15.109 40.9262 15.159 41.3879 15.3502C41.8495 15.5414 42.244 15.8652 42.5216 16.2807C42.7992 16.6961 42.9474 17.1846 42.9474 17.6842C42.9474 18.3542 42.6812 18.9968 42.2074 19.4706C41.7337 19.9444 41.0911 20.2105 40.4211 20.2105Z" fill="#0078D4"/>
    <path d="M35.3684 42.9474H12.6316V48H35.3684V42.9474Z" fill="#0078D4"/>
    <path d="M42.9474 10.1052H37.8948L40.4211 6.06311L42.9474 10.1052Z" fill="#50E6FF"/>
    <path d="M35.3684 7.57898H4.96838V10.1053H35.3684V7.57898Z" fill="#50E6FF"/>
</svg>
