<svg data-slug-id="unlock-check" xmlns="http://www.w3.org/2000/svg" viewBox="0 0 49 49">
<path d="M38.27 16.2738C38.27 8.71617 32.0857 2.53186 24.528 2.53186C17.7371 2.53186 12.0667 7.52817 10.9798 14.0158H16.5996C16.9788 12.693 17.695 11.4713 18.706 10.4518C20.2647 8.8931 22.3374 8.0337 24.5196 8.0337C26.7018 8.0337 28.7745 8.8931 30.3332 10.4518C31.8919 12.0105 32.7513 14.0832 32.7513 16.2654C32.7513 16.7035 32.7513 17.0658 32.7429 18.7004H10.626V46.555H38.27V21.3797C38.27 18.8857 38.27 16.872 38.27 16.2738Z" fill="#0078D4"/>
<path d="M31.2182 26.192L20.7706 36.6396L17.6447 33.5053L15.5552 35.5949L20.7706 40.8102L33.3077 28.2731L31.2182 26.192Z" fill="#50E6FF"/>
</svg>
