<svg data-slug-id="unlock-circle" xmlns="http://www.w3.org/2000/svg" viewBox="0 0 49 49">
    <path d="M38.7339 15.6025C38.7339 7.54083 32.1364 0.943359 24.0747 0.943359C16.8293 0.943359 10.7788 6.27015 9.61749 13.1958H15.6175C16.0214 11.7821 16.7872 10.4777 17.8643 9.39217C19.5305 7.72597 21.7353 6.80872 24.0663 6.80872C26.3973 6.80872 28.6021 7.72597 30.2683 9.39217C31.9345 11.0584 32.8517 13.2631 32.8517 15.5941C32.8517 16.0654 32.8517 17.3866 32.8433 19.1285H9.41553V48.5394H38.7255V21.0556C38.7339 18.3964 38.7339 16.2421 38.7339 15.6025Z" fill="#0078D4"/>
    <path d="M24.0749 37.036C26.1663 37.036 27.8617 35.3406 27.8617 33.2492C27.8617 31.1578 26.1663 29.4624 24.0749 29.4624C21.9835 29.4624 20.2881 31.1578 20.2881 33.2492C20.2881 35.3406 21.9835 37.036 24.0749 37.036Z" fill="#50E6FF"/>
</svg>
