<svg data-slug-id="unlock" xmlns="http://www.w3.org/2000/svg" viewBox="0 0 49 49">
<path d="M38.8928 15.4555C38.8928 7.39383 32.2954 0.796356 24.2336 0.796356C16.9882 0.796356 10.9377 6.12314 9.77643 13.0488H15.7764C16.1804 11.6351 16.9461 10.3307 18.0233 9.24516C19.6895 7.57896 21.8942 6.66171 24.2252 6.66171C26.5562 6.66171 28.761 7.57896 30.4272 9.24516C32.0934 10.9114 33.0106 13.1161 33.0106 15.4471C33.0106 15.9184 33.0106 17.2396 33.0022 18.9815H9.57446V48.3924H38.8844V20.9086C38.8928 18.2494 38.8928 16.0951 38.8928 15.4555Z" fill="#0078D4"/>
<path d="M24.2338 36.889C26.3252 36.889 28.0207 35.1936 28.0207 33.1022C28.0207 31.0108 26.3252 29.3154 24.2338 29.3154C22.1424 29.3154 20.447 31.0108 20.447 33.1022C20.447 35.1936 22.1424 36.889 24.2338 36.889Z" fill="#50E6FF"/>
</svg>
