<svg data-slug-id="updates-alt" viewBox="0 0 48 48" xmlns="http://www.w3.org/2000/svg">
<path d="M40.9684 6L39.1831 7.78526C41.1536 9.75575 42.7031 12.0547 43.7894 14.6147C44.9094 17.259 45.4736 20.0715 45.4736 22.9683C45.4736 25.8652 44.9094 28.6778 43.7894 31.322C42.7115 33.882 41.162 36.1726 39.1831 38.1516L40.9684 39.9367C45.3136 35.5999 47.9999 29.5957 47.9999 22.9683C47.9999 16.341 45.3136 10.3369 40.9684 6Z" fill="#50E6FF"/>
<path d="M25.5156 9.68898C25.2293 9.29318 24.9177 9.07428 24.6062 9.07428C24.4883 9.07428 24.3704 9.10798 24.2525 9.16688C24.2356 9.17528 24.2188 9.19218 24.202 9.20058C24.1598 9.23428 24.1093 9.25948 24.0672 9.29318C24.0504 9.30158 24.042 9.31848 24.0251 9.32688C22.8209 10.3543 21.8693 14.4974 21.5914 19.8195C22.3998 19.8364 23.1325 20.1732 23.6714 20.7121C24.2272 21.2679 24.5641 22.0258 24.5641 22.8763C24.5641 23.7774 24.1767 24.5774 23.562 25.1416C23.0398 25.6216 22.3409 25.9163 21.583 25.9332C21.8441 31.3563 22.8041 35.5921 24.0251 36.6363C24.0756 36.6784 24.1262 36.7205 24.1851 36.7542C24.3198 36.8384 24.463 36.8805 24.6062 36.8805C24.9262 36.8805 25.2293 36.6616 25.5156 36.2658C26.3409 35.1205 27.023 32.4426 27.3935 28.9732C27.5872 27.1627 27.6967 25.1332 27.6967 22.9858C27.6967 20.8385 27.5872 18.8174 27.3935 16.9985C27.023 13.5122 26.3493 10.8343 25.5156 9.68898Z" fill="#50E6FF"/>
<path d="M26.6524 9.28348C26.6945 9.24978 26.7282 9.22448 26.7703 9.19928L26.4756 9.29188C26.5177 9.30028 26.5598 9.30868 26.6019 9.31718C26.6187 9.30868 26.6356 9.29188 26.6524 9.28348Z" fill="white"/>
<path d="M26.8379 3.16797C26.8126 3.17637 26.7958 3.19327 26.7705 3.20167L26.7874 3.19327C26.8042 3.18487 26.821 3.17637 26.8379 3.16797Z" fill="white"/>
<path d="M26.7871 9.19928L26.7702 9.20768C26.7281 9.23298 26.686 9.25818 26.6523 9.29188C26.7029 9.25818 26.745 9.22448 26.7871 9.19928Z" fill="white"/>
<path d="M26.4756 36.6458L26.6945 36.7132C26.6524 36.6879 26.6103 36.6542 26.5682 36.629C26.5345 36.6374 26.5093 36.6374 26.4756 36.6458Z" fill="white"/>
<path d="M2.46729 29.2852C2.47571 29.2936 2.49255 29.2852 2.50097 29.2852C2.48413 29.2936 2.47571 29.2936 2.46729 29.2852Z" fill="white"/>
<path d="M2.27344 29.2773C2.33238 29.2857 2.39975 29.2941 2.46712 29.2941V29.2857C2.39975 29.2857 2.34081 29.2773 2.27344 29.2773Z" fill="white"/>
<path d="M21.5915 25.9173C22.3579 25.9004 23.0484 25.6057 23.5705 25.1257C24.1852 24.5699 24.5726 23.7615 24.5726 22.8604C24.5726 22.0183 24.2273 21.252 23.68 20.6962C23.141 20.1573 22.4084 19.8204 21.6 19.8036C21.8779 14.4815 22.8294 10.3383 24.0336 9.31104C24.0505 9.30264 24.0589 9.28574 24.0757 9.27734C24.0589 9.28574 24.0421 9.29414 24.0252 9.31104C19.6884 12.1152 14.8547 14.2373 9.69261 15.5004C8.63156 15.7615 7.55367 15.9804 6.46736 16.1657C5.2042 16.3846 3.9242 16.5447 2.63578 16.6625C2.58526 16.6541 2.52631 16.6457 2.47579 16.6457C2.36631 16.6457 2.26526 16.6625 2.15579 16.6962C0.934735 17.1089 0 19.7615 0 22.9783C0 26.3046 1.0021 29.033 2.27368 29.2773C2.34105 29.2857 2.4 29.2857 2.46736 29.2941C2.47578 29.2941 2.49263 29.2941 2.50105 29.2941C3.83999 29.412 5.17052 29.5804 6.47578 29.7994C7.57051 29.9846 8.64841 30.212 9.70946 30.473C9.81893 30.4983 9.9284 30.532 10.0379 30.5573V41.9172H15.0905V32.1404C18.2231 33.3278 21.2042 34.8351 23.9747 36.6288C24.0168 36.6541 24.0589 36.6878 24.101 36.713L24.1768 36.7383C24.1263 36.7046 24.0673 36.6709 24.0168 36.6204C22.8126 35.5846 21.8442 31.3404 21.5915 25.9173Z" fill="#0078D4"/>
<path d="M37.8947 22.9696C37.8947 19.0791 36.5389 15.5002 34.2737 12.6876L32.48 14.4812C34.3495 16.9065 35.3684 19.8623 35.3684 22.9696C35.3684 26.077 34.3579 29.0244 32.4884 31.4496L34.2821 33.2433C36.5389 30.4307 37.8947 26.8602 37.8947 22.9696Z" fill="#50E6FF"/>
</svg>
