<svg data-slug-id="updates-light" xmlns="http://www.w3.org/2000/svg" viewBox="0 0 49 49">
    <path d="M0.396484 48.4095H48.3966V4.90625H0.396484V48.4095Z" fill="#0078D4"/>
    <path d="M0.396484 5.51333H48.3966V0.410156H0.396484V5.51333Z" fill="#50E6FF"/>
    <path d="M11.6553 35.6523H6.62793V40.6797H11.6553V35.6523Z" fill="#50E6FF"/>
    <path d="M19.2598 35.6523H14.2324V40.6797H19.2598V35.6523Z" fill="#50E6FF"/>
    <path d="M26.8301 35.6523H21.8027V40.6797H26.8301V35.6523Z" fill="#50E6FF"/>
    <path d="M34.3921 35.6523H29.3647V40.6797H34.3921V35.6523Z" fill="white"/>
    <path d="M41.9966 35.6523H36.9692V40.6797H41.9966V35.6523Z" fill="#50E6FF"/>
    <path d="M11.6553 28.0898H6.62793V33.1172H11.6553V28.0898Z" fill="#50E6FF"/>
    <path d="M19.2598 28.0898H14.2324V33.1172H19.2598V28.0898Z" fill="white"/>
    <path d="M26.8301 28.0898H21.8027V33.1172H26.8301V28.0898Z" fill="#50E6FF"/>
    <path d="M34.3921 28.0898H29.3647V33.1172H34.3921V28.0898Z" fill="#50E6FF"/>
    <path d="M41.9966 28.0898H36.9692V33.1172H41.9966V28.0898Z" fill="#50E6FF"/>
    <path d="M11.6553 20.5273H6.62793V25.5547H11.6553V20.5273Z" fill="#50E6FF"/>
    <path d="M19.2598 20.5273H14.2324V25.5547H19.2598V20.5273Z" fill="#50E6FF"/>
    <path d="M26.8301 20.5273H21.8027V25.5547H26.8301V20.5273Z" fill="white"/>
    <path d="M34.3921 20.5273H29.3647V25.5547H34.3921V20.5273Z" fill="#50E6FF"/>
    <path d="M41.9966 20.5273H36.9692V25.5547H41.9966V20.5273Z" fill="#50E6FF"/>
    <path d="M11.6553 13.0078H6.62793V18.0352H11.6553V13.0078Z" fill="white"/>
    <path d="M19.2598 13.0078H14.2324V18.0352H19.2598V13.0078Z" fill="#50E6FF"/>
    <path d="M26.8301 13.0078H21.8027V18.0352H26.8301V13.0078Z" fill="#50E6FF"/>
    <path d="M34.3921 13.0078H29.3647V18.0352H34.3921V13.0078Z" fill="#50E6FF"/>
    <path d="M41.9966 13.0078H36.9692V18.0352H41.9966V13.0078Z" fill="#50E6FF"/>
</svg>
