<svg data-slug-id="users14" viewBox="0 0 49 49" xmlns="http://www.w3.org/2000/svg">
<path d="M48.5082 24.6252C48.5082 11.6147 37.965 1.07153 24.9629 1.05469V5.85469C35.3208 5.87153 43.7082 14.2673 43.7082 24.6252C43.7082 34.9831 35.3124 43.3873 24.9629 43.3957V48.1873C37.965 48.1705 48.5082 37.6273 48.5082 24.6252Z" fill="#0078D4"/>
<path d="M4.53369 12.8105L8.68527 15.2189C11.9358 9.6189 17.9905 5.85469 24.9379 5.85469C24.9463 5.85469 24.9547 5.85469 24.9632 5.85469V1.05469C24.9547 1.05469 24.9463 1.05469 24.9379 1.05469C16.2305 1.05469 8.6179 5.78732 4.53369 12.8105Z" fill="white"/>
<path d="M6.15913 24.6266C6.15913 21.1908 7.08545 17.9824 8.68545 15.2203L4.53387 12.8203C2.52966 16.2898 1.37598 20.3235 1.37598 24.6266C1.37598 28.9382 2.52966 32.9719 4.55071 36.4414L8.70229 34.0498C7.08545 31.2793 6.15913 28.054 6.15913 24.6266Z" fill="#50E6FF"/>
<path d="M8.68527 15.2203L4.53369 12.8203L8.68527 15.2203Z" fill="#50E6FF"/>
<path d="M24.9378 43.4027C17.9988 43.4027 11.9441 39.6469 8.69357 34.0469L4.54199 36.4469C8.6262 43.47 16.2304 48.1858 24.9378 48.1858C24.9462 48.1858 24.9546 48.1858 24.963 48.1858V43.3942C24.9546 43.4027 24.9462 43.4027 24.9378 43.4027Z" fill="#0078D4"/>
<path d="M4.54199 36.4385L8.69357 34.0469L4.54199 36.4385Z" fill="#0078D4"/>
<path d="M15.3296 35.9184C15.3296 30.4784 19.7422 26.0742 25.1906 26.0742C30.6391 26.0742 35.0517 30.4784 35.0517 35.9184H15.3296Z" fill="#0078D4"/>
<path d="M30.7989 18.6529C30.7989 21.735 28.2978 24.2276 25.2073 24.2276C22.1168 24.2276 19.6157 21.735 19.6157 18.6529C19.6157 15.5708 22.1168 13.0781 25.2073 13.0781C28.2978 13.0781 30.7989 15.5708 30.7989 18.6529Z" fill="#0078D4"/>
</svg>
