<svg data-slug-id="users09" viewBox="0 0 49 49" xmlns="http://www.w3.org/2000/svg">
<path d="M37.8831 10.6523L48.0193 10.6523V0.520803L37.8831 0.520803V10.6523Z" fill="#50E6FF"/>
<path d="M25.3157 10.6523L35.4519 10.6523V0.520803L25.3157 0.520803V10.6523Z" fill="#50E6FF"/>
<path d="M12.6194 10.6523L22.7556 10.6523V0.520803L12.6194 0.520803L12.6194 10.6523Z" fill="#50E6FF"/>
<path d="M0.0194864 10.6055L10.1135 10.6055L10.1135 0.516037L0.0194864 0.516037L0.0194864 10.6055Z" fill="#50E6FF"/>
<path d="M37.8826 23.1484H48.0188V13.0169L37.8826 13.0169V23.1484Z" fill="#50E6FF"/>
<path d="M25.3152 23.1484H35.4514V13.0169L25.3152 13.0169V23.1484Z" fill="#50E6FF"/>
<path d="M12.6194 23.1484H22.7556V13.0169L12.6194 13.0169L12.6194 23.1484Z" fill="#50E6FF"/>
<path d="M0.0194864 23.1055H10.1135L10.1135 13.016L0.0194864 13.016L0.0194864 23.1055Z" fill="#50E6FF"/>
<path d="M37.8831 35.8398H48.0193V25.7083H37.8831V35.8398Z" fill="#50E6FF"/>
<path d="M25.3157 35.8398H35.4519V25.7083H25.3157V35.8398Z" fill="#50E6FF"/>
<path d="M12.6194 35.8398H22.7556V25.7083H12.6194L12.6194 35.8398Z" fill="#50E6FF"/>
<path d="M0.0194864 35.793H10.1135L10.1135 25.7035H0.0194864L0.0194864 35.793Z" fill="#50E6FF"/>
<path d="M37.8826 48.4648H48.0188V38.3333H37.8826V48.4648Z" fill="#50E6FF"/>
<path d="M25.3152 48.4648H35.4514V38.3333H25.3152V48.4648Z" fill="#50E6FF"/>
<path d="M12.6194 48.4648H22.7556V38.3333H12.6194L12.6194 48.4648Z" fill="#50E6FF"/>
<path d="M0.0194864 48.4219H10.1135L10.1135 38.3324H0.0194864L0.0194864 48.4219Z" fill="#50E6FF"/>
<path d="M7.59741 43.4237C7.59741 34.3112 14.9784 26.9336 24.095 26.9336C33.2117 26.9336 40.5926 34.3112 40.5926 43.4237H7.59741Z" fill="#0078D7"/>
<path d="M33.4984 14.9772C33.4984 20.1398 29.3108 24.3255 24.1458 24.3255C18.9808 24.3255 14.7932 20.1398 14.7932 14.9772C14.7932 9.81459 18.9808 5.62891 24.1458 5.62891C29.3108 5.62891 33.4984 9.81459 33.4984 14.9772Z" fill="#0078D7"/>
</svg>
