<svg data-slug-id="users18" viewBox="0 0 49 49" xmlns="http://www.w3.org/2000/svg">
<path d="M42.4032 7.02922C42.4032 10.2787 39.7555 13.0467 36.3857 13.0467C33.1362 13.0467 30.3682 10.399 30.3682 7.02922C30.3682 3.77977 33.0159 1.01172 36.3857 1.01172C39.7555 1.01172 42.4032 3.65942 42.4032 7.02922Z" fill="#50E6FF"/>
<path d="M36.3854 15.2148C42.4029 15.2148 47.3373 20.1492 47.3373 26.1667V27.6109H25.4336V26.1667C25.4336 20.1492 30.3679 15.2148 36.3854 15.2148Z" fill="#50E6FF"/>
<path d="M18.3333 26.4081C18.3333 29.6576 15.6856 32.4256 12.3158 32.4256C9.06639 32.4256 6.29834 29.7779 6.29834 26.4081C6.29834 23.0383 8.94604 20.3906 12.3158 20.3906C15.6856 20.3906 18.3333 23.1587 18.3333 26.4081Z" fill="#0078D4"/>
<path d="M12.3156 34.5898C18.3331 34.5898 23.2675 39.5242 23.2675 45.5417V46.8655H1.36377V45.5417C1.36377 39.5242 6.29812 34.5898 12.3156 34.5898Z" fill="#0078D4"/>
</svg>
