<svg data-slug-id="users13" viewBox="0 0 49 49" xmlns="http://www.w3.org/2000/svg">
<path d="M47.8208 9.10938H0.108398V39.4918H47.8208V9.10938Z" fill="#50E6FF"/>
<path d="M7.23788 30.718C9.84268 30.718 11.9543 28.6064 11.9543 26.0016C11.9543 23.3968 9.84268 21.2852 7.23788 21.2852C4.63309 21.2852 2.52148 23.3968 2.52148 26.0016C2.52148 28.6064 4.63309 30.718 7.23788 30.718Z" fill="#0078D4"/>
<path d="M7.23784 32.3633C3.28923 32.3633 0.108398 35.5441 0.108398 39.4927H14.477C14.3673 35.5441 11.1865 32.3633 7.23784 32.3633Z" fill="#0078D4"/>
<path d="M24.3482 30.718C26.953 30.718 29.0646 28.6064 29.0646 26.0016C29.0646 23.3968 26.953 21.2852 24.3482 21.2852C21.7434 21.2852 19.6318 23.3968 19.6318 26.0016C19.6318 28.6064 21.7434 30.718 24.3482 30.718Z" fill="#0078D4"/>
<path d="M24.3482 32.3633C20.3996 32.3633 17.2188 35.5441 17.2188 39.4927H31.5873C31.4776 35.5441 28.2968 32.3633 24.3482 32.3633Z" fill="#0078D4"/>
<path d="M40.691 30.718C43.2958 30.718 45.4074 28.6064 45.4074 26.0016C45.4074 23.3968 43.2958 21.2852 40.691 21.2852C38.0862 21.2852 35.9746 23.3968 35.9746 26.0016C35.9746 28.6064 38.0862 30.718 40.691 30.718Z" fill="#0078D4"/>
<path d="M40.6915 32.3633C36.7428 32.3633 33.562 35.5441 33.562 39.4927H47.9306C47.8209 35.5441 44.6401 32.3633 40.6915 32.3633Z" fill="#0078D4"/>
</svg>
