<svg data-slug-id="users10" viewBox="0 0 49 49" xmlns="http://www.w3.org/2000/svg">
<path d="M0.0195312 43.4366H48.0195V6.47656H0.0195312V43.4366Z" fill="#0078D4"/>
<path d="M15.1689 35.772C15.1689 30.9131 19.1016 26.9805 23.9605 26.9805C28.8195 26.9805 32.7521 30.9131 32.7521 35.772H15.1689V35.772Z" fill="#50E6FF"/>
<path d="M0.0195312 10.4669H48.0027V5.46484H0.0195312V10.4669Z" fill="#50E6FF"/>
<path d="M7.49742 9.28976C8.17179 9.28976 8.71847 8.74308 8.71847 8.06871C8.71847 7.39434 8.17179 6.84766 7.49742 6.84766C6.82305 6.84766 6.27637 7.39434 6.27637 8.06871C6.27637 8.74308 6.82305 9.28976 7.49742 9.28976Z" fill="white"/>
<path d="M3.70787 9.28976C4.38224 9.28976 4.92892 8.74308 4.92892 8.06871C4.92892 7.39434 4.38224 6.84766 3.70787 6.84766C3.0335 6.84766 2.48682 7.39434 2.48682 8.06871C2.48682 8.74308 3.0335 9.28976 3.70787 9.28976Z" fill="white"/>
<path d="M11.371 9.28976C12.0453 9.28976 12.592 8.74308 12.592 8.06871C12.592 7.39434 12.0453 6.84766 11.371 6.84766C10.6966 6.84766 10.1499 7.39434 10.1499 8.06871C10.1499 8.74308 10.6966 9.28976 11.371 9.28976Z" fill="white"/>
<path d="M28.971 20.6064C28.971 23.36 26.7394 25.5916 23.9858 25.5916C21.2321 25.5916 19.0005 23.36 19.0005 20.6064C19.0005 17.8527 21.2321 15.6211 23.9858 15.6211C26.7394 15.6211 28.971 17.8527 28.971 20.6064Z" fill="#50E6FF"/>
</svg>
