<svg data-slug-id="user-square" xmlns="http://www.w3.org/2000/svg" viewBox="0 0 40 49">
    <path d="M0.765869 0.320312V48.3203H39.2125H39.9503V47.2718V0.320312H0.765869Z" fill="#1EACE9"/>
    <path d="M28.3387 27.466C27.2901 26.8446 25.9698 26.7281 24.8435 27.1942C23.4843 27.7767 21.8144 28.0874 20.5329 28.0874C19.4066 28.0874 18.0863 27.8543 16.8435 27.3883C15.7173 26.9223 14.4358 26.9223 13.3872 27.466C9.50374 29.6796 4.80471 32.9806 4.80471 34.1456C4.80471 35.6213 4.61053 40.7087 4.53286 42.9611C4.49403 43.5825 4.99888 44.0874 5.62024 44.0485L35.795 43.9709C36.3775 43.9709 36.8824 43.5048 36.8435 42.8835C36.8047 40.4369 36.727 34.6505 36.727 34.1068C36.6494 32.8252 32.0668 29.6408 28.3387 27.466Z" fill="white"/>
    <path d="M20.5717 25.1359C25.2708 25.1359 29.0766 21.3301 29.0766 16.631C29.0766 11.932 25.2708 8.12619 20.5717 8.12619C15.8727 8.12619 12.0669 11.932 12.0669 16.631C12.0669 21.3301 15.8727 25.1359 20.5717 25.1359Z" fill="white"/>
</svg>
