<svg data-slug-id="users19" viewBox="0 0 61 61" xmlns="http://www.w3.org/2000/svg">
<path d="M4.8501 47.212C4.8501 42.6484 8.54145 38.957 13.1051 38.957C17.6687 38.957 21.3601 42.6484 21.3601 47.212H4.8501Z" fill="#0078D7"/>
<path d="M17.8074 32.9782C17.8074 35.5571 15.7089 37.6556 13.13 37.6556C10.5511 37.6556 8.45264 35.5571 8.45264 32.9782C8.45264 30.3993 10.5511 28.3008 13.13 28.3008C15.7089 28.3008 17.8074 30.3993 17.8074 32.9782Z" fill="#0078D7"/>
<path d="M54.4683 49.4258H4.81201V51.4232H54.4683V49.4258Z" fill="#0078D7"/>
<path d="M50.8779 11.3516L38.7419 29.0119L25.936 15.8899L16.6064 27.2168C17.0995 27.5202 17.5419 27.8742 17.9338 28.2913L26.0497 18.4562L38.9821 31.6919L52.2937 12.325L50.8779 11.3516Z" fill="#0078D4"/>
<path d="M51.7 17.1285C54.5206 17.1285 56.8072 14.8419 56.8072 12.0213C56.8072 9.20064 54.5206 6.91406 51.7 6.91406C48.8794 6.91406 46.5928 9.20064 46.5928 12.0213C46.5928 14.8419 48.8794 17.1285 51.7 17.1285Z" fill="#50E6FF"/>
<path d="M51.7001 16.3054C54.0669 16.3054 55.9856 14.3867 55.9856 12.0199C55.9856 9.65306 54.0669 7.73438 51.7001 7.73438C49.3332 7.73438 47.4146 9.65306 47.4146 12.0199C47.4146 14.3867 49.3332 16.3054 51.7001 16.3054Z" fill="white"/>
<path d="M51.7 14.9381C53.3128 14.9381 54.6202 13.6307 54.6202 12.0179C54.6202 10.4051 53.3128 9.09766 51.7 9.09766C50.0872 9.09766 48.7798 10.4051 48.7798 12.0179C48.7798 13.6307 50.0872 14.9381 51.7 14.9381Z" fill="#0078D4"/>
<path d="M26.1765 22.3238C28.9972 22.3238 31.2838 20.0372 31.2838 17.2166C31.2838 14.396 28.9972 12.1094 26.1765 12.1094C23.3559 12.1094 21.0693 14.396 21.0693 17.2166C21.0693 20.0372 23.3559 22.3238 26.1765 22.3238Z" fill="#50E6FF"/>
<path d="M26.1766 21.5007C28.5434 21.5007 30.4621 19.582 30.4621 17.2152C30.4621 14.8484 28.5434 12.9297 26.1766 12.9297C23.8098 12.9297 21.8911 14.8484 21.8911 17.2152C21.8911 19.582 23.8098 21.5007 26.1766 21.5007Z" fill="white"/>
<path d="M26.1765 20.1605C27.8032 20.1605 29.122 18.8418 29.122 17.215C29.122 15.5883 27.8032 14.2695 26.1765 14.2695C24.5497 14.2695 23.231 15.5883 23.231 17.215C23.231 18.8418 24.5497 20.1605 26.1765 20.1605Z" fill="#0078D4"/>
<path d="M38.8308 35.1168C41.6515 35.1168 43.9381 32.8302 43.9381 30.0096C43.9381 27.1889 41.6515 24.9023 38.8308 24.9023C36.0102 24.9023 33.7236 27.1889 33.7236 30.0096C33.7236 32.8302 36.0102 35.1168 38.8308 35.1168Z" fill="#50E6FF"/>
<path d="M38.8304 34.2937C41.1973 34.2937 43.1159 32.375 43.1159 30.0082C43.1159 27.6413 41.1973 25.7227 38.8304 25.7227C36.4636 25.7227 34.5449 27.6413 34.5449 30.0082C34.5449 32.375 36.4636 34.2937 38.8304 34.2937Z" fill="white"/>
<path d="M38.8308 32.9535C40.4575 32.9535 41.7762 31.6348 41.7762 30.008C41.7762 28.3812 40.4575 27.0625 38.8308 27.0625C37.204 27.0625 35.8853 28.3812 35.8853 30.008C35.8853 31.6348 37.204 32.9535 38.8308 32.9535Z" fill="#0078D4"/>
<path d="M51.5483 47.4414L56.744 50.3995L51.5483 53.4082V47.4414Z" fill="#0078D4"/>
</svg>
