<svg data-slug-id="users08" viewBox="0 0 49 49" xmlns="http://www.w3.org/2000/svg">
<path d="M47.6488 27.434C47.6657 27.3244 47.6994 27.2148 47.7079 27.122C47.8344 26.4561 47.8934 25.7816 47.8934 25.0904C47.8934 19.1303 43.0698 14.2913 37.1077 14.2913C36.2729 14.2913 35.4717 14.3841 34.6959 14.578C32.2167 10.6832 27.899 8.12891 22.9658 8.12891C15.3003 8.12891 9.08524 14.3419 9.08524 22.0134C9.08524 22.1988 9.08524 22.3927 9.10211 22.5782C8.41061 22.3421 7.65165 22.2157 6.85896 22.2157C3.08946 22.2157 0.0283203 25.2758 0.0283203 29.0441C0.0283203 32.5932 2.74371 35.4932 6.1759 35.8388L37.0824 35.8978C41.1386 35.8978 44.6636 33.6554 46.5273 30.3676C46.5779 30.2749 46.6369 30.1822 46.6875 30.081C46.9826 29.4825 47.3959 28.5889 47.6488 27.434Z" fill="#50E6FF"/>
<path d="M15.1143 33.1999C15.1143 28.302 19.0777 24.3398 23.9772 24.3398C28.8767 24.3398 32.8402 28.302 32.8402 33.1999H15.1143V33.1999Z" fill="#0078D7"/>
<path d="M29.0286 17.915C29.0286 20.6885 26.777 22.9394 24.0026 22.9394C21.2281 22.9394 18.9766 20.6885 18.9766 17.915C18.9766 15.1415 21.2281 12.8906 24.0026 12.8906C26.777 12.8906 29.0286 15.1415 29.0286 17.915Z" fill="#0078D7"/>
<path d="M23.9184 5.5217C25.311 5.5217 26.4398 4.39318 26.4398 3.00108C26.4398 1.60899 25.311 0.480469 23.9184 0.480469C22.5259 0.480469 21.397 1.60899 21.397 3.00108C21.397 4.39318 22.5259 5.5217 23.9184 5.5217Z" fill="#0078D7"/>
<path d="M23.9184 48.4631C25.311 48.4631 26.4398 47.3346 26.4398 45.9425C26.4398 44.5504 25.311 43.4219 23.9184 43.4219C22.5259 43.4219 21.397 44.5504 21.397 45.9425C21.397 47.3346 22.5259 48.4631 23.9184 48.4631Z" fill="#0078D7"/>
<path d="M42.9345 35.8537C44.3271 35.8537 45.456 34.7252 45.456 33.3331C45.456 31.941 44.3271 30.8125 42.9345 30.8125C41.542 30.8125 40.4131 31.941 40.4131 33.3331C40.4131 34.7252 41.542 35.8537 42.9345 35.8537Z" fill="#0078D7"/>
<path d="M5.00337 35.8537C6.39592 35.8537 7.5248 34.7252 7.5248 33.3331C7.5248 31.941 6.39592 30.8125 5.00337 30.8125C3.61082 30.8125 2.48193 31.941 2.48193 33.3331C2.48193 34.7252 3.61082 35.8537 5.00337 35.8537Z" fill="#0078D7"/>
<path d="M42.9345 18.1506C44.3271 18.1506 45.456 17.0221 45.456 15.63C45.456 14.2379 44.3271 13.1094 42.9345 13.1094C41.542 13.1094 40.4131 14.2379 40.4131 15.63C40.4131 17.0221 41.542 18.1506 42.9345 18.1506Z" fill="#0078D7"/>
<path d="M5.00337 18.1506C6.39592 18.1506 7.5248 17.0221 7.5248 15.63C7.5248 14.2379 6.39592 13.1094 5.00337 13.1094C3.61082 13.1094 2.48193 14.2379 2.48193 15.63C2.48193 17.0221 3.61082 18.1506 5.00337 18.1506Z" fill="#0078D7"/>
</svg>
