<svg data-slug-id="users07" viewBox="0 0 49 49" xmlns="http://www.w3.org/2000/svg">
<path d="M42.8746 6.70823C42.8746 10.1546 40.0776 12.9516 36.6312 12.9516C33.1848 12.9516 30.3877 10.1546 30.3877 6.70823C30.3877 3.26188 33.1848 0.464844 36.6312 0.464844C40.0776 0.464844 42.8746 3.26188 42.8746 6.70823Z" fill="#50E6FF"/>
<path d="M36.5816 15.2969C42.875 15.2969 48.0196 20.3915 48.0196 26.7348V28.1832H25.1436V26.7348C25.1436 20.3915 30.2882 15.2969 36.5816 15.2969Z" fill="#50E6FF"/>
<path d="M17.7507 26.9856C17.7507 30.4319 14.9537 33.229 11.5073 33.229C8.06089 33.229 5.21387 30.4319 5.21387 26.9856C5.21387 23.5392 8.01094 20.7422 11.5073 20.7422C15.0036 20.7422 17.7507 23.5392 17.7507 26.9856Z" fill="#0078D4"/>
<path d="M11.4576 35.5781C17.751 35.5781 22.8956 40.6727 22.8956 47.016V48.4145H0.0195312V46.9661C0.0195312 40.6727 5.1142 35.5781 11.4576 35.5781Z" fill="#0078D4"/>
</svg>
