<svg data-slug-id="users17" viewBox="0 0 49 49" xmlns="http://www.w3.org/2000/svg">
<path d="M37.4116 12.8711H48.4116V7.87109H37.4116V12.8711Z" fill="#50E6FF"/>
<path d="M37.4116 5.87109H48.4116V0.871094H37.4116V5.87109Z" fill="#50E6FF"/>
<path d="M0.411621 0.800781H48.4116V30.8008H0.411621V0.800781Z" fill="#50E6FF"/>
<path d="M13.4116 34.121C13.4116 27.8719 18.4806 22.8086 24.7434 22.8086C31.0061 22.8086 36.0751 27.8719 36.0751 34.121H13.4116Z" fill="#0078D4"/>
<path d="M31.2565 14.2801C31.2565 17.821 28.3815 20.6891 24.8341 20.6891C21.2866 20.6891 18.4116 17.821 18.4116 14.2801C18.4116 10.7392 21.2866 7.87109 24.8341 7.87109C28.3815 7.87109 31.2565 10.7392 31.2565 14.2801Z" fill="#0078D4"/>
<path d="M0.411621 32.8711H48.4116" stroke="#50E6FF" stroke-width="4"/>
<path d="M8.41162 4.87109H4.41162V13.8711H8.41162V4.87109Z" fill="#0078D4"/>
<path d="M4.41162 4.87109V8.87109H13.4116V4.87109H4.41162Z" fill="#0078D4"/>
<path d="M40.4116 4.87109H44.4116V13.8711H40.4116V4.87109Z" fill="#0078D4"/>
<path d="M44.4116 4.87109L44.4116 8.87109L35.4116 8.87109L35.4116 4.87109L44.4116 4.87109Z" fill="#0078D4"/>
<path d="M40.4116 48.8711H44.4116V39.8711H40.4116V48.8711Z" fill="#0078D4"/>
<path d="M44.4116 48.8711V44.8711H35.4116V48.8711H44.4116Z" fill="#0078D4"/>
<path d="M8.41162 48.8711L4.41162 48.8711L4.41162 39.8711L8.41162 39.8711L8.41162 48.8711Z" fill="#0078D4"/>
<path d="M4.41162 48.8711L4.41162 44.8711L13.4116 44.8711L13.4116 48.8711L4.41162 48.8711Z" fill="#0078D4"/>
<path d="M36.4116 34.8711H12.4116V38.8711H36.4116V34.8711Z" fill="#0078D4"/>
</svg>
