<svg data-slug-id="users04" viewBox="0 0 49 49" xmlns="http://www.w3.org/2000/svg">
<path d="M47.7588 24.9528C47.7756 24.8432 47.8093 24.7336 47.8261 24.6324C47.9522 23.9662 48.0195 23.2831 48.0195 22.5832C48.0195 16.5874 43.1834 11.7216 37.2033 11.7216C36.3623 11.7216 35.5548 11.8144 34.7811 12.0083C32.2999 8.09547 27.9684 5.52344 23.0144 5.52344C15.327 5.52344 9.0947 11.7722 9.0947 19.4967C9.0947 19.6907 9.0947 19.8762 9.11152 20.0702C8.41343 19.834 7.65647 19.7076 6.86586 19.7076C3.08945 19.7076 0.0195312 22.7856 0.0195312 26.5719C0.0195312 30.139 2.7362 33.0568 6.18459 33.4026L37.1781 33.47C41.2405 33.47 44.7814 31.2184 46.6486 27.9043C46.699 27.8116 46.7579 27.7104 46.8084 27.6176C47.1028 27.0189 47.5065 26.1081 47.7588 24.9528Z" fill="#50E6FF"/>
<path d="M0.0961914 43.3708C0.0961914 38.4713 4.04923 34.5078 8.93586 34.5078C13.8225 34.5078 17.7755 38.4713 17.7755 43.3708H0.0961914V43.3708Z" fill="#0078D7"/>
<path d="M13.9728 28.0807C13.9728 30.8551 11.7272 33.1067 8.96006 33.1067C6.19293 33.1067 3.94727 30.8551 3.94727 28.0807C3.94727 25.3063 6.19293 23.0547 8.96006 23.0547C11.7272 23.0547 13.9728 25.2978 13.9728 28.0807Z" fill="#0078D7"/>
<path d="M43.0404 20.6354V15.6094H38.0276V20.6354H39.9032V25.8132H38.0276V27.6937H32.8045V25.8132H30.929V20.6354H32.8045V15.6094H27.7918V17.4899H22.7369V15.6094H17.7241V20.6354H19.5997V25.8132H17.7241V30.8392H22.7369V25.8132H20.8613V20.6354H22.7369V18.7548H27.7918V20.6354H29.6673V25.8132H27.7918V30.8392H32.8045V28.9586H38.0276V30.8392H43.0404V25.8132H41.1648V20.6354H43.0404Z" fill="#0078D4"/>
</svg>
