<svg data-slug-id="users02" viewBox="0 0 49 49" xmlns="http://www.w3.org/2000/svg">
<path d="M24.0439 29.5859C20.5612 29.5859 17.7549 32.3922 17.7549 35.875H30.4332C30.333 32.3922 27.5267 29.5859 24.0439 29.5859Z" fill="#0078D4"/>
<path d="M6.50488 29.5859C3.02209 29.5859 0.21582 32.3922 0.21582 35.875H12.8942C12.7939 32.3922 9.98767 29.5859 6.50488 29.5859Z" fill="#0078D4"/>
<path d="M41.5835 29.5859C38.1007 29.5859 35.2944 32.3922 35.2944 35.875H47.9728C47.8726 32.3922 45.0663 29.5859 41.5835 29.5859Z" fill="#0078D4"/>
<path d="M6.55528 26.9699C8.65163 26.9699 10.3137 25.3079 10.3137 23.2115C10.3137 21.1152 8.65163 19.4531 6.55528 19.4531C4.45892 19.4531 2.79688 21.1152 2.79688 23.2115C2.79688 25.3079 4.45892 26.9699 6.55528 26.9699Z" fill="#0078D4"/>
<path d="M24.0191 26.9699C26.1155 26.9699 27.7775 25.3079 27.7775 23.2115C27.7775 21.1152 26.1155 19.4531 24.0191 19.4531C21.9228 19.4531 20.2607 21.1152 20.2607 23.2115C20.2607 25.3079 21.9228 26.9699 24.0191 26.9699Z" fill="#0078D4"/>
<path d="M41.6339 26.9699C43.7302 26.9699 45.3923 25.3079 45.3923 23.2115C45.3923 21.1152 43.7302 19.4531 41.6339 19.4531C39.5375 19.4531 37.8755 21.1152 37.8755 23.2115C37.8755 25.3079 39.5375 26.9699 41.6339 26.9699Z" fill="#0078D4"/>
</svg>
