<svg data-slug-id="users12" viewBox="0 0 49 49" xmlns="http://www.w3.org/2000/svg">
<path d="M43.666 44.1211H4.26367V4.71875H43.666V44.1211ZM5.53771 42.8555H42.4089V5.98435H5.53771V42.8555V42.8555Z" fill="#50E6FF"/>
<path d="M35.49 13.0703H12.5151V35.868H35.49V13.0703Z" fill="#50E6FF"/>
<path d="M18.2949 30.8663C18.2949 27.6939 20.8599 25.1289 24.0323 25.1289C27.2047 25.1289 29.7697 27.6939 29.7697 30.8663H18.2949Z" fill="#0078D4"/>
<path d="M27.3056 20.9599C27.3056 22.7571 25.846 24.2167 24.0488 24.2167C22.2517 24.2167 20.792 22.7571 20.792 20.9599C20.792 19.1628 22.2517 17.7031 24.0488 17.7031C25.846 17.7031 27.3056 19.1628 27.3056 20.9599Z" fill="#0078D4"/>
<path d="M39.1974 9.34375L46.791 9.34375V1.75015L39.1974 1.75015V9.34375Z" fill="#0078D4"/>
<path d="M26.5514 9.34375L34.145 9.34375V1.75015L26.5514 1.75015V9.34375Z" fill="#0078D4"/>
<path d="M13.8957 9.34375L21.4893 9.34375V1.75015L13.8957 1.75015V9.34375Z" fill="#0078D4"/>
<path d="M1.23892 9.34375L8.83252 9.34375L8.83252 1.75015L1.23892 1.75015L1.23892 9.34375Z" fill="#0078D4"/>
<path d="M39.2824 47.3984H46.876V39.8048H39.2824V47.3984Z" fill="#0078D4"/>
<path d="M26.6359 47.3984H34.2295V39.8048H26.6359V47.3984Z" fill="#0078D4"/>
<path d="M13.9796 47.3984H21.5732V39.8048H13.9796V47.3984Z" fill="#0078D4"/>
<path d="M1.32339 47.3984H8.91699L8.91699 39.8048H1.32339L1.32339 47.3984Z" fill="#0078D4"/>
<path d="M39.2824 34.8281H46.876V27.2345H39.2824V34.8281Z" fill="#0078D4"/>
<path d="M1.32339 34.8281H8.91699L8.91699 27.2345H1.32339L1.32339 34.8281Z" fill="#0078D4"/>
<path d="M39.2824 22H46.876V14.4064H39.2824V22Z" fill="#0078D4"/>
<path d="M1.32339 22H8.91699L8.91699 14.4064H1.32339L1.32339 22Z" fill="#0078D4"/>
</svg>
