<svg data-slug-id="users16" viewBox="0 0 49 49" xmlns="http://www.w3.org/2000/svg">
<path d="M0.972168 48.3822C0.972168 36.8703 10.2877 27.5547 21.7997 27.5547C31.6117 27.5547 39.8333 34.3289 42.0465 43.4593C42.4252 45.0414 36.1727 48.3906 36.1727 48.3906H0.972168V48.3822Z" fill="#0078D7"/>
<path d="M33.6727 12.4477C33.6727 18.9694 28.388 24.2625 21.8578 24.2625C15.3277 24.2625 10.043 18.9778 10.043 12.4477C10.043 5.91752 15.3361 0.632812 21.8578 0.632812C28.3796 0.632812 33.6727 5.91752 33.6727 12.4477Z" fill="#0078D7"/>
<path d="M36.2063 48.4125C43.2194 48.4125 48.9047 42.7272 48.9047 35.7141C48.9047 28.7009 43.2194 23.0156 36.2063 23.0156C29.1931 23.0156 23.5078 28.7009 23.5078 35.7141C23.5078 42.7272 29.1931 48.4125 36.2063 48.4125Z" fill="#50E6FF"/>
<path d="M42.248 30.9688C40.6997 30.9688 39.4458 32.2226 39.4458 33.771C39.4458 34.3685 39.9255 34.8481 40.5229 34.8481C41.1204 34.8481 41.6001 34.3685 41.6001 33.771C41.6001 33.4091 41.8946 33.123 42.248 33.123C42.6015 33.123 42.896 33.4176 42.896 33.771C42.896 34.3685 43.3757 34.8481 43.9731 34.8481C44.5706 34.8481 45.0503 34.3685 45.0503 33.771C45.0419 32.231 43.788 30.9688 42.248 30.9688Z" fill="#0078D4"/>
<path d="M29.8193 30.9688C28.2709 30.9688 27.0171 32.2226 27.0171 33.771C27.0171 34.3685 27.4968 34.8481 28.0942 34.8481C28.6917 34.8481 29.1714 34.3685 29.1714 33.771C29.1714 33.4091 29.4659 33.123 29.8193 33.123C30.1728 33.123 30.4673 33.4176 30.4673 33.771C30.4673 34.3685 30.947 34.8481 31.5444 34.8481C32.1419 34.8481 32.6216 34.3685 32.6216 33.771C32.6216 32.231 31.3677 30.9688 29.8193 30.9688Z" fill="#0078D4"/>
<path d="M42.475 38.4073C42.0711 37.9781 41.3894 37.9529 40.9518 38.3652C39.6643 39.577 37.9897 40.2418 36.2225 40.2418C34.4049 40.2418 32.6882 39.5349 31.3838 38.2642C30.9631 37.8519 30.2814 37.8519 29.8607 38.281C29.6587 38.483 29.5493 38.7607 29.5493 39.0468C29.5493 39.3329 29.6671 39.6022 29.8691 39.8042C31.569 41.4788 33.8242 42.4045 36.2141 42.4045C38.5283 42.4045 40.733 41.5293 42.4245 39.9388C42.6349 39.7453 42.7527 39.476 42.7611 39.1899C42.7695 38.9038 42.6685 38.6177 42.475 38.4073Z" fill="#0078D4"/>
</svg>
