<svg data-slug-id="vehicle02" viewBox="0 0 48 48" xmlns="http://www.w3.org/2000/svg">
<path d="M42.9472 27.7892H5.05261C3.71258 27.7892 2.42742 28.3216 1.47988 29.2691C0.532327 30.2167 0 31.5018 0 32.8419C0 34.1819 0.532327 35.467 1.47988 36.4146C2.42742 37.3621 3.71258 37.8945 5.05261 37.8945V47.9997H12.6315V42.9471H35.3683V47.9997H42.9472V37.8945C44.2872 37.8945 45.5724 37.3621 46.5199 36.4146C47.4675 35.467 47.9998 34.1819 47.9998 32.8419C47.9998 31.5018 47.4675 30.2167 46.5199 29.2691C45.5724 28.3216 44.2872 27.7892 42.9472 27.7892ZM2.52631 32.8419C2.52631 32.3422 2.67447 31.8538 2.95207 31.4383C3.22966 31.0229 3.62421 30.6991 4.08584 30.5079C4.54746 30.3166 5.05541 30.2666 5.54547 30.3641C6.03553 30.4616 6.48567 30.7022 6.83898 31.0555C7.19229 31.4088 7.4329 31.8589 7.53038 32.349C7.62785 32.8391 7.57782 33.347 7.38661 33.8086C7.1954 34.2703 6.8716 34.6648 6.45615 34.9424C6.0407 35.22 5.55227 35.3682 5.05261 35.3682C4.38259 35.3682 3.74002 35.102 3.26624 34.6282C2.79247 34.1544 2.52631 33.5119 2.52631 32.8419ZM42.9472 35.3682C42.4475 35.3682 41.9591 35.22 41.5437 34.9424C41.1282 34.6648 40.8044 34.2703 40.6132 33.8086C40.422 33.347 40.372 32.8391 40.4694 32.349C40.5669 31.8589 40.8075 31.4088 41.1608 31.0555C41.5141 30.7022 41.9643 30.4616 42.4543 30.3641C42.9444 30.2666 43.4524 30.3166 43.914 30.5079C44.3756 30.6991 44.7702 31.0229 45.0477 31.4383C45.3253 31.8538 45.4735 32.3422 45.4735 32.8419C45.4735 33.5119 45.2073 34.1544 44.7336 34.6282C44.2598 35.102 43.6172 35.3682 42.9472 35.3682Z" fill="#50E6FF"/>
<path d="M15.1593 30.3125H12.633V35.3651H15.1593V30.3125Z" fill="#0078D4"/>
<path d="M25.2648 30.3125H22.7385V35.3651H25.2648V30.3125Z" fill="#0078D4"/>
<path d="M20.2101 30.3125H17.6838V35.3651H20.2101V30.3125Z" fill="#0078D4"/>
<path d="M35.3683 30.3125H32.842V35.3651H35.3683V30.3125Z" fill="#0078D4"/>
<path d="M30.3156 30.3125H27.7892V35.3651H30.3156V30.3125Z" fill="#0078D4"/>
<path d="M24.4467 23.5865L9.75538 8.89518C10.0676 8.36549 10.176 7.74011 10.0601 7.13625C9.94422 6.5324 9.61211 5.99153 9.126 5.61502C8.63989 5.23851 8.03315 5.05222 7.41951 5.09104C6.80587 5.12987 6.22745 5.39116 5.79268 5.82594C5.3579 6.26072 5.09661 6.83913 5.05778 7.45277C5.01895 8.06642 5.20525 8.67315 5.58176 9.15926C5.95827 9.64538 6.49914 9.97749 7.10299 10.0934C7.70684 10.2092 8.33222 10.1009 8.86191 9.78865L23.5541 24.48L24.4467 23.5865Z" fill="#0078D4"/>
<path d="M40.4221 5.086C39.9768 5.0861 39.5394 5.2039 39.1543 5.42748C38.7692 5.65105 38.45 5.97245 38.2291 6.35912C38.0082 6.74578 37.8934 7.18396 37.8964 7.62926C37.8994 8.07456 38.02 8.51117 38.2461 8.89483L23.5548 23.5861L24.4474 24.4796L39.1396 9.7883C39.4742 9.98569 39.8499 10.1032 40.2374 10.1318C40.6249 10.1603 41.0138 10.0991 41.3737 9.95291C41.7337 9.8067 42.0551 9.57943 42.3129 9.28877C42.5708 8.99811 42.7581 8.6519 42.8603 8.27706C42.9626 7.90221 42.977 7.50884 42.9024 7.12752C42.8279 6.7462 42.6663 6.38722 42.4305 6.07849C42.1946 5.76976 41.8906 5.5196 41.5423 5.34747C41.194 5.17533 40.8106 5.08585 40.4221 5.086Z" fill="#50E6FF"/>
<path d="M24.6304 4.97266H23.3672V24.0319H24.6304V4.97266Z" fill="#0078D4"/>
<path d="M39.9169 20.2119L35.3696 12.633H12.6328L8.08546 20.2119H2.52759V25.2645H45.4748V20.2119H39.9169ZM9.51703 22.7382L14.0644 15.1593H33.938L38.4853 22.7382H9.51703Z" fill="#50E6FF"/>
<path d="M24.001 5.05261C25.3962 5.05261 26.5273 3.92155 26.5273 2.52631C26.5273 1.13107 25.3962 0 24.001 0C22.6057 0 21.4747 1.13107 21.4747 2.52631C21.4747 3.92155 22.6057 5.05261 24.001 5.05261Z" fill="#0078D4"/>
</svg>
