<svg data-slug-id="video-camera-blue" xmlns="http://www.w3.org/2000/svg" viewBox="0 0 49 49">
  <path d="M8.75128 20.9735C13.3323 20.9735 17.046 17.2598 17.046 12.6788C17.046 8.09771 13.3323 4.38403 8.75128 4.38403C4.17022 4.38403 0.456543 8.09771 0.456543 12.6788C0.456543 17.2598 4.17022 20.9735 8.75128 20.9735Z" fill="#0078D4"/>
  <path d="M27.6058 20.9735C32.1868 20.9735 35.9005 17.2598 35.9005 12.6788C35.9005 8.09771 32.1868 4.38403 27.6058 4.38403C23.0247 4.38403 19.311 8.09771 19.311 12.6788C19.311 17.2598 23.0247 20.9735 27.6058 20.9735Z" fill="#0078D4"/>
  <path d="M35.8588 23.4817H0.616699V43.8101H35.8588V23.4817Z" fill="#0078D4"/>
  <path d="M48.389 43.7679L38.3511 38.7153V28.4837L48.389 24.1047V43.7679Z" fill="#0078D4"/>
</svg>
