<svg data-slug-id="vm-sql-server" viewBox="0 0 36 36" xmlns="http://www.w3.org/2000/svg">
    <defs>
        <linearGradient id="vm-sql-server:8ef77eb9-6b48-471f-b669-7d5144f0bef1" x1="1" y1="20.0781" x2="26.36" y2="20.0781" gradientUnits="userSpaceOnUse">
            <stop offset="0" stop-color="#005BA1"/>
            <stop offset="0.07" stop-color="#0060A9"/>
            <stop offset="0.36" stop-color="#0071C8"/>
            <stop offset="0.52" stop-color="#0078D4"/>
            <stop offset="0.64" stop-color="#0074CD"/>
            <stop offset="0.82" stop-color="#006ABB"/>
            <stop offset="1" stop-color="#005BA1"/>
        </linearGradient>
    </defs>
    <path d="M13.68 10.1781C6.68 10.1781 1 8.17812 1 5.57812V29.9981C1 32.5181 6.58 34.5581 13.5 34.5981H13.68C20.68 34.5981 26.36 32.5981 26.36 29.9981V5.57812C26.36 8.11812 20.68 10.1781 13.68 10.1781Z" fill="url(#vm-sql-server:8ef77eb9-6b48-471f-b669-7d5144f0bef1)"/>
    <path d="M26.36 5.58047C26.36 8.12047 20.68 10.1805 13.68 10.1805C6.68 10.1805 1 8.12047 1 5.58047C1 3.04047 6.68 0.980469 13.68 0.980469C20.68 0.980469 26.36 2.98047 26.36 5.58047Z" fill="#E8E8E8"/>
    <path d="M23.4 5.20125C23.4 6.82125 19.04 8.12125 13.68 8.12125C8.32 8.12125 4 6.82125 4 5.20125C4 3.58125 8.32 2.28125 13.68 2.28125C19.04 2.28125 23.4 3.60125 23.4 5.20125Z" fill="#50E6FF"/>
    <path d="M13.68 5.88062C11.0773 5.82834 8.4834 6.19986 6 6.98062C8.48094 7.80508 11.0866 8.19085 13.7 8.12062C16.3134 8.19085 18.9191 7.80508 21.4 6.98062C18.9038 6.19555 16.2961 5.82398 13.68 5.88062V5.88062Z" fill="#198AB3"/>
    <path d="M21.4799 22.199V15.439H19.6199V23.719H24.5399V22.199H21.4799ZM7.17994 18.859C6.8097 18.7067 6.46555 18.4975 6.15994 18.239C6.02564 18.0544 5.96827 17.825 5.99994 17.599C5.99989 17.4776 6.02892 17.3579 6.08459 17.2501C6.14026 17.1422 6.22097 17.0492 6.31994 16.979C6.57064 16.8209 6.86398 16.7441 7.15994 16.759C7.87138 16.7342 8.57212 16.9374 9.15994 17.339V15.619C8.51979 15.3857 7.84092 15.2771 7.15994 15.299C6.30085 15.227 5.44562 15.4764 4.75994 15.999C4.49574 16.2172 4.28463 16.4926 4.14256 16.8045C4.0005 17.1163 3.93122 17.4564 3.93994 17.799C3.93994 18.819 4.57994 19.619 5.93994 20.219C6.3745 20.4082 6.78422 20.65 7.15994 20.939C7.2593 21.0135 7.33994 21.1101 7.39548 21.2212C7.45103 21.3323 7.47994 21.4548 7.47994 21.579C7.47999 21.7004 7.45097 21.82 7.39529 21.9279C7.33962 22.0357 7.25892 22.1287 7.15994 22.199C6.89301 22.3724 6.57781 22.4565 6.25994 22.439C5.41751 22.4482 4.60543 22.1248 3.99994 21.539V23.399C4.66561 23.723 5.39991 23.8808 6.13994 23.859C6.97413 23.8972 7.79937 23.6734 8.49994 23.219C8.78059 23.0039 9.00528 22.7244 9.15499 22.4041C9.30469 22.0839 9.37499 21.7322 9.35994 21.379C9.37935 20.8654 9.2003 20.3641 8.85994 19.979C8.38491 19.4917 7.81245 19.11 7.17994 18.859V18.859ZM17.5799 21.999C18.0316 21.23 18.2602 20.3505 18.2399 19.459C18.2568 18.6957 18.0851 17.94 17.7399 17.259C17.4277 16.6344 16.9415 16.1135 16.3399 15.759C15.7303 15.4134 15.0406 15.2341 14.3399 15.239C13.5786 15.2255 12.827 15.4117 12.1599 15.779C11.5348 16.1406 11.0277 16.6754 10.6999 17.319C10.3389 18.0308 10.1602 18.8211 10.1799 19.619C10.1684 20.3474 10.333 21.0679 10.6599 21.719C10.9632 22.3369 11.4346 22.8568 12.0199 23.219C12.6237 23.5855 13.3138 23.7856 14.0199 23.799L15.7199 25.799H18.0999L15.6999 23.579C16.4916 23.2874 17.1565 22.7286 17.5799 21.999ZM15.7199 21.479C15.5322 21.702 15.298 21.8812 15.0337 22.0042C14.7694 22.1272 14.4814 22.1909 14.1899 22.1909C13.8984 22.1909 13.6105 22.1272 13.3462 22.0042C13.0819 21.8812 12.8477 21.702 12.6599 21.479C12.2427 20.8995 12.0443 20.1909 12.0999 19.479C12.0446 18.7641 12.2507 18.0534 12.6799 17.479C12.8596 17.2374 13.0958 17.0436 13.3678 16.9146C13.6397 16.7856 13.9392 16.7253 14.2399 16.739C14.5315 16.73 14.8207 16.7928 15.0823 16.9218C15.3438 17.0508 15.5697 17.2422 15.7399 17.479C16.134 18.0686 16.3237 18.7712 16.2799 19.479C16.36 20.2117 16.1599 20.9476 15.7199 21.539V21.479Z" fill="#F2F2F2"/>
    <path d="M29.62 34.9788L30.0999 33.3988L31.04 32.8588L32.6599 33.5788L33.6999 32.5188V32.3988L32.9599 30.9788L33.4 29.9788L35.0199 29.3988H35.1999V27.9388H34.9999L33.4 27.4588L32.88 26.5388L33.58 24.8988L32.5199 23.8788H32.4L30.9799 24.5988L29.9999 23.9988L29.36 22.2188H27.8799V22.4388L27.3999 24.0188L26.3799 24.4588L24.6399 23.6588L23.62 24.7188L23.7199 24.9188L24.4799 26.3988L24.08 27.4188L22.2 27.9988V29.4788H22.42L24 29.9588L24.44 30.9788L23.66 32.6988L24.7199 33.7388L24.8999 33.6388L26.3799 32.8788L27.3999 33.2788L28.0799 35.0588H29.54L29.62 34.9788ZM27.2199 30.2588C26.8168 29.8636 26.5872 29.3244 26.5816 28.76C26.5759 28.1955 26.7948 27.6519 27.19 27.2488C27.5851 26.8456 28.1243 26.616 28.6887 26.6104C29.2532 26.6047 29.7968 26.8236 30.2 27.2188C30.3996 27.4144 30.5587 27.6475 30.6682 27.9047C30.7777 28.1618 30.8356 28.438 30.8383 28.7175C30.8411 28.997 30.7888 29.2744 30.6844 29.5337C30.5801 29.7929 30.4256 30.0291 30.2299 30.2288C30.0343 30.4284 29.8012 30.5875 29.544 30.697C29.2869 30.8065 29.0107 30.8644 28.7312 30.8671C28.4517 30.8699 28.1743 30.8176 27.915 30.7132C27.6558 30.6089 27.4196 30.4544 27.2199 30.2588V30.2588Z" fill="#949494"/>
</svg>
