<svg data-slug-id="vm-windows" viewBox="0 0 36 36" xmlns="http://www.w3.org/2000/svg">
    <defs>
        <linearGradient id="vm-windows:43f94af4-46c8-4d82-879c-25bd8cf755b9" x1="17.7599" y1="24.4219" x2="17.7599" y2="0.421875" gradientUnits="userSpaceOnUse">
            <stop offset="0" stop-color="#0078D4"/>
            <stop offset="0.82" stop-color="#5EA0EF"/>
        </linearGradient>
        <linearGradient id="vm-windows:d92bdf17-bb9a-4486-8e36-65a1aad949e2" x1="17.7599" y1="33.6819" x2="17.7599" y2="24.4219" gradientUnits="userSpaceOnUse">
            <stop offset="0.15" stop-color="#CCCCCC"/>
            <stop offset="1" stop-color="#707070"/>
        </linearGradient>
        <clipPath id="vm-windows:c5acb55e-098b-4705-b390-44300f0494cf">
            <rect width="36" height="36" fill="white"/>
        </clipPath>
        <clipPath id="vm-windows:08259165-5ba0-4ba7-9fc4-53d81aa5a4ed">
            <rect x="10" y="4" width="16" height="16" fill="white"/>
        </clipPath>
    </defs>
    <g clip-path="url(#vm-windows:c5acb55e-098b-4705-b390-44300f0494cf)">
        <path d="M34.5599 0.421875H0.959888C0.297146 0.421875 -0.240112 0.959133 -0.240112 1.62188V23.2219C-0.240112 23.8846 0.297146 24.4219 0.959888 24.4219H34.5599C35.2226 24.4219 35.7599 23.8846 35.7599 23.2219V1.62188C35.7599 0.959133 35.2226 0.421875 34.5599 0.421875Z" fill="url(#vm-windows:43f94af4-46c8-4d82-879c-25bd8cf755b9)"/>
        <path d="M24.9799 31.6819C21.4199 31.1219 21.2799 28.5619 21.2799 24.4219H14.2199C14.2199 28.5619 14.0999 31.1219 10.5399 31.6819C10.0485 31.7363 9.59461 31.9707 9.26589 32.3401C8.93718 32.7094 8.75693 33.1874 8.75992 33.6819H26.7599C26.7629 33.1874 26.5827 32.7094 26.254 32.3401C25.9252 31.9707 25.4714 31.7363 24.9799 31.6819Z" fill="url(#vm-windows:d92bdf17-bb9a-4486-8e36-65a1aad949e2)"/>
        <g clip-path="url(#vm-windows:08259165-5ba0-4ba7-9fc4-53d81aa5a4ed)">
            <path d="M17.3296 5.25633C20.2143 4.81459 23.1071 4.40122 26 4C26 6.52888 26 9.0537 26 11.5826C23.1112 11.5947 20.2224 11.6393 17.3296 11.6474C17.3255 9.5157 17.3255 7.38399 17.3296 5.25633Z" fill="#50E6FF"/>
            <path d="M10 6.27455C12.1737 5.94223 14.3555 5.65449 16.5373 5.37891C16.5373 7.47414 16.5373 9.56938 16.5414 11.6646C14.3596 11.6646 12.1818 11.697 10 11.6889V6.27455Z" fill="#50E6FF"/>
            <path d="M10 12.3527C12.1778 12.3446 14.3555 12.3811 16.5373 12.3771C16.5373 14.4804 16.5414 16.5797 16.5373 18.683C14.3596 18.3588 12.1818 18.0792 10 17.7833V12.3527Z" fill="#50E6FF"/>
            <path d="M17.3174 12.4375C20.2143 12.4375 23.1071 12.4375 26 12.4375C26.004 14.9583 26 17.479 26 19.9998C23.1153 19.5702 20.2224 19.169 17.3296 18.7759C17.3255 16.6644 17.3214 14.5489 17.3174 12.4375Z" fill="#50E6FF"/>
        </g>
    </g>
</svg>
