<svg data-slug-id="webinars-alt" viewBox="0 0 48 48" xmlns="http://www.w3.org/2000/svg">
<path d="M43.6702 3H4.32969C1.9409 3 0 4.94091 0 7.32971V40.1384C0 42.5272 1.9409 44.4681 4.32969 44.4681H43.6702C46.059 44.4681 47.9999 42.5272 47.9999 40.1384V7.32971C47.9999 4.94091 46.059 3 43.6702 3Z" fill="#0078D4"/>
<path d="M24.0368 25.7698C25.1706 25.7698 26.0897 24.8507 26.0897 23.7169C26.0897 22.5832 25.1706 21.6641 24.0368 21.6641C22.903 21.6641 21.9839 22.5832 21.9839 23.7169C21.9839 24.8507 22.903 25.7698 24.0368 25.7698Z" fill="#50E6FF"/>
<path d="M24.0368 14.1211C18.7366 14.1211 14.4443 18.4135 14.4443 23.7136C14.4443 29.0138 18.7366 33.3062 24.0368 33.3062C29.3369 33.3062 33.6293 29.0138 33.6293 23.7136C33.6293 18.4135 29.3369 14.1211 24.0368 14.1211ZM24.0368 31.4399C19.7817 31.4399 16.3105 28.006 16.3105 23.7136C16.3105 19.4212 19.7817 15.9873 24.0368 15.9873C28.2918 15.9873 31.8004 19.4212 31.8004 23.7136C31.8004 28.006 28.3291 31.4399 24.0368 31.4399Z" fill="#50E6FF"/>
</svg>
