<svg data-slug-id="wifi-one-bar" xmlns="http://www.w3.org/2000/svg" viewBox="0 0 48 48">
	<path d="M24.0659 18.044C31.0845 18.044 37.4936 20.6554 42.3704 24.9638L47.5767 20.12C41.3901 14.4276 33.1358 10.9595 24.0659 10.9595C14.9384 10.9595 6.62642 14.4771 0.42334 20.2353L5.65436 25.0544C10.5476 20.6966 16.9979 18.044 24.0659 18.044Z" fill="#0078D7"/>
	<path d="M9.38611 28.4896L13.0767 31.8836C16.0917 29.4864 19.9141 28.0448 24.0742 28.0448C28.2013 28.0448 31.9989 29.4617 35.0058 31.8259L38.6716 28.4072C34.7257 25.0792 29.6347 23.0691 24.0742 23.0691C18.4642 23.0774 13.3403 25.1203 9.38611 28.4896Z" fill="#0078D7"/>
	<path d="M16.8001 35.3188L18.6701 37.0405C20.2353 36.0684 22.0888 35.5 24.0659 35.5C26.0347 35.5 27.8718 36.0519 29.4287 37.0158L31.2822 35.2858C29.2393 33.8689 26.7514 33.0369 24.0659 33.0369C21.3639 33.0369 18.8596 33.8772 16.8001 35.3188Z" fill="#50E6FF"/>
</svg>
