<svg data-slug-id="wrench-clipboard-alt" xmlns="http://www.w3.org/2000/svg" viewBox="0 0 49 49">
    <path d="M45.6621 3.50415H15.3457V48.9787H45.6621V3.50415Z" fill="#0078D4"/>
    <path d="M40.6074 0.976807H20.3965V6.02954H40.6074V0.976807Z" fill="#50E6FF"/>
    <path d="M34.7134 23.7153L27.9764 16.9783L34.0481 10.9066C31.788 9.96721 29.3018 9.71215 26.8981 10.1731C24.4943 10.634 22.2789 11.7906 20.5266 13.4994C18.7743 15.2082 17.5623 17.3939 17.0411 19.7853C16.5199 22.1768 16.7124 24.6686 17.5947 26.9515L4.19237 40.3531C3.24852 41.3027 2.71875 42.5873 2.71875 43.9262C2.71875 45.2651 3.24852 46.5497 4.19237 47.4993V47.4993C5.14203 48.4432 6.42657 48.9729 7.76549 48.9729C9.10442 48.9729 10.389 48.4432 11.3386 47.4993L24.7401 34.097C27.023 34.9791 29.5147 35.1716 31.906 34.6504C34.2973 34.1292 36.4829 32.9173 38.1916 31.1652C39.9004 29.413 41.057 27.1977 41.5181 24.7941C41.9791 22.3905 41.7242 19.9045 40.7851 17.6444L34.7134 23.7153ZM9.55163 45.7123C9.19835 46.0657 8.74819 46.3064 8.2581 46.404C7.76802 46.5015 7.26001 46.4515 6.79833 46.2603C6.33665 46.0691 5.94204 45.7453 5.66441 45.3299C5.38678 44.9144 5.23859 44.4259 5.23859 43.9262C5.23859 43.4265 5.38678 42.938 5.66441 42.5225C5.94204 42.1071 6.33665 41.7833 6.79833 41.5921C7.26001 41.4009 7.76802 41.3509 8.2581 41.4484C8.74819 41.546 9.19835 41.7867 9.55163 42.1401C10.0253 42.6138 10.2913 43.2563 10.2913 43.9262C10.2913 44.5961 10.0253 45.2386 9.55163 45.7123V45.7123Z" fill="#50E6FF"/>
</svg>
