<svg data-slug-id="wrench-clipboard" xmlns="http://www.w3.org/2000/svg" viewBox="0 0 48 48">
  <path d="M42.9473 2.52625H12.6315V48H42.9473V2.52625Z" fill="#0078D4"/>
  <path d="M37.8947 0H17.6842V5.05264H37.8947V0Z" fill="#50E6FF"/>
  <path d="M32 22.7367L25.2631 15.9999L31.3347 9.92831C29.0746 8.98893 26.5885 8.73388 24.1848 9.1948C21.7811 9.65573 19.5657 10.8123 17.8134 12.5211C16.0611 14.2298 14.8492 16.4155 14.328 18.8069C13.8069 21.1982 13.9993 23.69 14.8816 25.973L1.47951 39.3742C0.535676 40.3239 0.00592041 41.6084 0.00592041 42.9473C0.00592041 44.2862 0.535676 45.5707 1.47951 46.5203C2.42916 47.4642 3.71367 47.9939 5.05257 47.9939C6.39147 47.9939 7.67598 47.4642 8.62562 46.5203L22.0269 33.1182C24.3097 34.0004 26.8014 34.1928 29.1926 33.6716C31.5838 33.1505 33.7694 31.9386 35.4781 30.1865C37.1868 28.4344 38.3435 26.2191 38.8045 23.8156C39.2655 21.412 39.0107 18.926 38.0715 16.666L32 22.7367ZM6.83867 44.7334C6.48539 45.0868 6.03525 45.3275 5.54517 45.425C5.05509 45.5225 4.54709 45.4726 4.08542 45.2814C3.62376 45.0902 3.22915 44.7664 2.95152 44.3509C2.6739 43.9354 2.52571 43.447 2.52571 42.9473C2.52571 42.4476 2.6739 41.9591 2.95152 41.5437C3.22915 41.1282 3.62376 40.8044 4.08542 40.6132C4.54709 40.422 5.05509 40.372 5.54517 40.4696C6.03525 40.5671 6.48539 40.8078 6.83867 41.1612C7.31229 41.6349 7.57835 42.2774 7.57835 42.9473C7.57835 43.6172 7.31229 44.2596 6.83867 44.7334Z" fill="#50E6FF"/>
</svg>
